<?xml version="1.0" standalone="no"?>
<!DOCTYPE svg PUBLIC "-//W3C//DTD SVG 1.1//EN" "http://www.w3.org/Graphics/SVG/1.1/DTD/svg11.dtd" >
<svg xmlns="http://www.w3.org/2000/svg" xmlns:xlink="http://www.w3.org/1999/xlink" version="1.1">
<metadata>
Created by FontForge 20201107 at Sat Dec 16 18:06:46 2023
 By 
Copyright (c) 2020 by Marcello Raffo. All rights reserved.
</metadata>
<defs>
<font id="DFVN-PexelGrotesk-Regular" horiz-adv-x="608" >
  <font-face 
    font-family="DFVN Pexel Grotesk"
    font-weight="400"
    font-stretch="normal"
    units-per-em="1000"
    panose-1="0 0 0 0 0 0 0 0 0 0"
    ascent="770"
    descent="-230"
    x-height="538"
    cap-height="769"
    bbox="-407 -231 1360 1167"
    underline-thickness="50"
    underline-position="-125"
    unicode-range="U+000D-2194"
  />
<missing-glyph horiz-adv-x="500" 
d="M300 8h-100v47h100v-47zM410 -230h-317v1000h317v-1000zM233 504h-33v36h33v-36zM167 88v-113h166v113h-166zM233 261v-56h34v23h33v-47h-100v80h-33v-113h166v113h-100zM167 574v-104h166v34h-66v70h-100zM167 443v-33h66v-37h-66v-33h100v70h66v33h-166zM300 383v-66
h-133v-34h166v100h-33zM168 703v-33h65v-37h-66v-33h166v33h-66v37h66v33h-165zM167 -48v-33h70l-70 -47v-33h166v33h-102l70 47h32v33h-166z" />
    <glyph glyph-name=".notdef" horiz-adv-x="500" 
d="M300 8h-100v47h100v-47zM410 -230h-317v1000h317v-1000zM233 504h-33v36h33v-36zM167 88v-113h166v113h-166zM233 261v-56h34v23h33v-47h-100v80h-33v-113h166v113h-100zM167 574v-104h166v34h-66v70h-100zM167 443v-33h66v-37h-66v-33h100v70h66v33h-166zM300 383v-66
h-133v-34h166v100h-33zM168 703v-33h65v-37h-66v-33h166v33h-66v37h66v33h-165zM167 -48v-33h70l-70 -47v-33h166v33h-102l70 47h32v33h-166z" />
    <glyph glyph-name="uni0000" horiz-adv-x="0" 
 />
    <glyph glyph-name="uni0000" horiz-adv-x="0" 
 />
    <glyph glyph-name="uni000D" unicode="&#xd;" horiz-adv-x="250" 
 />
    <glyph glyph-name="space" unicode=" " horiz-adv-x="450" 
 />
    <glyph glyph-name="exclam" unicode="!" horiz-adv-x="152" 
d="M95 769q7 0 12 -5t5 -12v-560q0 -16 -11.5 -27t-27.5 -11h-21q-17 0 -17 17v560q0 16 11 27t27 11h22zM35 38q0 17 11 28t27 11h22q7 0 12 -5t5 -12v-22q0 -16 -11.5 -27t-27.5 -11h-21q-8 0 -12.5 5t-4.5 12v21z" />
    <glyph glyph-name="quotedbl" unicode="&#x22;" horiz-adv-x="301" 
d="M95 770q7 0 12 -4.5t5 -12.5v-175q0 -16 -11.5 -27.5t-27.5 -11.5h-22q-7 0 -11.5 5t-4.5 12v176q0 16 11 27t27 11h22zM249 770q7 0 12 -4.5t5 -12.5v-175q0 -16 -11.5 -27.5t-27.5 -11.5h-22q-7 0 -11.5 5t-4.5 12v176q0 16 11 27t27 11h22z" />
    <glyph glyph-name="numbersign" unicode="#" horiz-adv-x="618" 
d="M561 769q17 0 17 -17v-98q0 -16 -11 -27.5t-27 -11.5h-20q-8 0 -13.5 -5t-5.5 -13v-59h60q17 0 17 -16v-22q0 -16 -11 -27t-27 -11h-39v-39q0 -16 -11 -27t-27 -11h-20q-8 0 -13.5 -5.5t-5.5 -13.5v-58h60q8 0 12.5 -5t4.5 -12v-22q0 -16 -11 -27t-27 -11h-39v-39
q0 -16 -11 -27t-27 -11h-20q-8 0 -13.5 -5.5t-5.5 -13.5v-97q0 -16 -11 -27t-27 -11h-22q-7 0 -12 5t-5 12v98q0 17 11.5 28t27.5 11h19q19 0 19 19v58h-154v-39q0 -16 -11 -27t-27 -11h-20q-8 0 -13.5 -5.5t-5.5 -13.5v-97q0 -16 -11 -27t-27 -11h-22q-7 0 -11.5 5t-4.5 12
v98q0 17 11 28t27 11h20q8 0 13 5.5t5 13.5v58h-60q-16 0 -16 17v21q0 16 11 27.5t27 11.5h38v38q0 16 11.5 27.5t27.5 11.5h20q8 0 13 5t5 13v59h-60q-7 0 -12 4.5t-5 11.5v22q0 16 11.5 27t27.5 11h38v39q0 16 11.5 27t27.5 11h19q8 0 13.5 5.5t5.5 13.5v97q0 16 11.5 27
t27.5 11h21q17 0 17 -17v-98q0 -16 -11 -27.5t-27 -11.5h-20q-8 0 -13.5 -5t-5.5 -13v-59h154v39q0 16 11 27t28 11h19q8 0 13.5 5.5t5.5 13.5v97q0 16 11 27t28 11h21zM405 385q8 0 13.5 5t5.5 13v59h-154v-39q0 -16 -11 -27t-27 -11h-20q-8 0 -13.5 -5.5t-5.5 -13.5v-58
h154v38q0 16 11 27.5t28 11.5h19z" />
    <glyph glyph-name="dollar" unicode="$" horiz-adv-x="619" 
d="M502 674q0 8 -5.5 13t-13.5 5h-135v-214q0 -7 5 -12t12 -5h22q16 0 27 -11t11 -27v-20q0 -8 5 -13.5t13 -5.5h20q17 0 28 -11t11 -27v-20q0 -8 5 -13t13 -5h20q17 0 28 -11.5t11 -27.5v-154q0 -16 -11 -27t-28 -11h-20q-8 0 -13 -5.5t-5 -13.5v-20q0 -16 -11 -27t-28 -11
h-98q-7 0 -12 -5t-5 -12v-21q0 -17 -11 -28t-27 -11h-22q-7 0 -12 5t-5 12v43q0 7 -4.5 12t-12.5 5h-98q-16 0 -27.5 11t-11.5 27v20q0 8 -5 13.5t-13 5.5h-20q-16 0 -27.5 11t-11.5 27v22q0 7 5 12t12 5h22q16 0 27 -11t11 -28v-20q0 -8 5.5 -13t13.5 -5h118q17 0 17 17
v274q0 16 -17 16h-98q-16 0 -27.5 11.5t-11.5 27.5v20q0 8 -5 13t-13 5h-20q-16 0 -27.5 11.5t-11.5 27.5v77q0 16 11.5 27t27.5 11h20q8 0 13 5.5t5 13.5v97q1 16 12 27t27 11h115v38q0 17 11 28t28 11h21q8 0 12.5 -5t4.5 -12v-60h115q17 0 28 -11t11 -27v-20
q0 -8 5 -13.5t13 -5.5h20q17 0 28 -11t11 -27v-22q0 -7 -5 -12t-12 -5h-22q-16 0 -27 11t-11 28v20zM117 480q0 -8 5.5 -13.5t13.5 -5.5h118q8 0 12.5 5t4.5 12v197q0 17 -17 17h-43q-7 0 -12 -4.5t-5 -12.5v-21q0 -17 -11 -28t-27 -11h-20q-8 0 -13.5 -5t-5.5 -13v-117z
M425 366q0 8 -5 13t-13 5h-42q-7 0 -12 -4.5t-5 -11.5v-274q0 -8 5 -12.5t12 -4.5h118q8 0 13.5 5t5.5 13v194q0 8 -5.5 13.5t-13.5 5.5h-20q-16 0 -27 11t-11 27v20z" />
    <glyph glyph-name="percent" unicode="%" horiz-adv-x="839" 
d="M787 769q7 0 12 -5t5 -12v-21q0 -17 -11.5 -28t-27.5 -11h-20q-8 0 -13 -5t-5 -13v-20q0 -17 -11.5 -28t-27.5 -11h-20q-8 0 -13 -5t-5 -13v-20q0 -16 -11 -27.5t-28 -11.5h-20q-8 0 -13 -5t-5 -13v-20q0 -16 -11 -27.5t-28 -11.5h-20q-8 0 -13 -5t-5 -13v-20
q0 -16 -11 -27.5t-27 -11.5h-20q-8 0 -13.5 -5t-5.5 -13v-20q0 -16 -11 -27t-27 -11h-20q-8 0 -13.5 -5.5t-5.5 -13.5v-20q0 -16 -11 -27t-27 -11h-20q-8 0 -13.5 -5.5t-5.5 -13.5v-20q0 -16 -11 -27t-27 -11h-20q-8 0 -13.5 -5.5t-5.5 -13.5v-20q0 -16 -11 -27t-27 -11h-20
q-8 0 -13.5 -5.5t-5.5 -13.5v-20q0 -16 -11 -27t-27 -11h-22q-7 0 -11.5 5t-4.5 12v21q0 17 11 28t27 11h20q8 0 13 5t5 13v20q0 17 11.5 28t27.5 11h20q8 0 13 5t5 13v20q0 16 11.5 27.5t27.5 11.5h20q8 0 13 5t5 13v20q0 16 11.5 27.5t27.5 11.5h20q8 0 13 5t5 13v20
q0 16 11 27t28 11h20q8 1 13 6t5 13v20q0 16 11 27t28 11h20q8 0 13 5.5t5 13.5v20q0 16 11 27t27 11h20q8 0 13.5 5.5t5.5 13.5v20q0 16 11 27t27 11h20q19 0 19 19v20q0 16 11 27t27 11h20q8 0 13.5 5t5.5 13v21q0 16 11 27t27 11h22zM765 308q16 0 27.5 -11.5t11.5 -27.5
v-231q0 -16 -11.5 -27t-27.5 -11h-154q-16 0 -27 11t-11 27v20q0 19 -19 19h-20q-16 0 -27 11t-11 27v231q0 16 11 27t27 11h154q16 0 27.5 -11t11.5 -27v-20q0 -8 5 -13t13 -5h20zM73 461q-16 0 -27 11.5t-11 27.5v231q0 16 11 27t27 11h154q16 0 27 -11t11 -27v-21
q0 -8 5.5 -13t13.5 -5h20q16 0 27 -11t11 -27v-231q0 -16 -11 -27.5t-27 -11.5h-154q-16 0 -27.5 11.5t-11.5 27.5v20q0 8 -5 13t-13 5h-20zM727 289q0 8 -5.5 13.5t-13.5 5.5h-135v-213q0 -8 5 -13t13 -5h136v212zM111 480q0 -8 5.5 -13.5t13.5 -5.5h135v213q0 8 -5 13
t-13 5h-136v-212z" />
    <glyph glyph-name="ampersand" unicode="&#x26;" horiz-adv-x="696" 
d="M579 269q0 16 11 27.5t27 11.5h22q7 0 12 -5t5 -12v-22q0 -16 -11.5 -27t-27.5 -11h-20q-8 0 -13 -5.5t-5 -13.5v-40q0 -8 5 -13t13 -5h20q16 0 27.5 -11t11.5 -28v-98q0 -7 -5 -12t-12 -5h-22q-16 0 -27 11t-11 27v97q0 19 -19 19h-40q-8 0 -13 -5.5t-5 -13.5v-20
q0 -16 -11 -27t-28 -11h-20q-8 0 -13 -5.5t-5 -13.5v-20q0 -16 -11 -27t-27 -11h-231q-16 0 -27.5 11t-11.5 27v20q0 8 -5 13.5t-13 5.5h-20q-16 0 -27.5 11t-11.5 27v77q0 16 11.5 27.5t27.5 11.5h20q8 0 13 5t5 13v20q0 16 11.5 27.5t27.5 11.5h20q8 0 13 5t5 13v20
q0 16 11.5 27t27.5 11h20q8 0 13 5.5t5 13.5v40q0 8 -5 13t-13 5h-20q-17 0 -28 11.5t-11 27.5v20q0 8 -5 13t-13 5h-20q-17 0 -28 11.5t-11 27.5q1 17 12.5 27.5t27.5 10.5h19q8 0 13 5.5t5 13.5v97q0 16 11.5 27t27.5 11h154q16 0 27 -11t11 -27v-20q0 -8 5 -13.5t13 -5.5
h20q17 0 28 -11t11 -27v-77q0 -16 -11 -27.5t-28 -11.5h-20q-8 0 -13 -5t-5 -13v-20q0 -16 -11 -27.5t-27 -11.5h-21q-8 0 -13 -5t-5 -13v-40q0 -8 5 -13.5t13 -5.5h21q16 0 27 -11t11 -27v-20q0 -8 5 -13t13 -5h20q17 0 28 -11.5t11 -27.5v-20q0 -8 5 -13t13 -5h40
q8 0 13.5 5t5.5 13v20zM271 480q0 -8 5.5 -13.5t13.5 -5.5h40q8 0 13 5.5t5 13.5v20q0 16 11 27t28 11h20q8 0 13 5.5t5 13.5v117q0 8 -5 13t-13 5h-119q-7 0 -12 -4.5t-5 -12.5v-21q0 -17 -11 -28t-27 -11h-20q-8 0 -13.5 -5t-5.5 -13v-40q0 -8 5.5 -13.5t13.5 -5.5h20
q16 0 27 -11t11 -27v-20zM483 154q8 0 13.5 5t5.5 13v40q0 8 -5.5 13.5t-13.5 5.5h-20q-16 0 -27 11t-11 27v20q0 8 -5 13.5t-13 5.5h-20q-17 0 -28 11t-11 27v20q0 8 -5 13t-13 5h-40q-8 0 -13.5 -5t-5.5 -13v-20q0 -16 -11 -27t-27 -11h-20q-8 0 -13.5 -5.5t-5.5 -13.5
v-20q0 -16 -11 -27t-27 -11h-20q-8 0 -13.5 -5.5t-5.5 -13.5v-117q0 -8 5.5 -13t13.5 -5h271q8 0 13 5t5 13v20q0 17 11 28t27 11h20z" />
    <glyph glyph-name="quotesingle" unicode="'" horiz-adv-x="147" 
d="M95 770q7 0 12 -4.5t5 -12.5v-175q0 -16 -11 -27t-27 -11h-22q-7 0 -12 4.5t-5 11.5v176q0 16 11 27t28 11h21z" />
    <glyph glyph-name="parenleft" unicode="(" horiz-adv-x="271" 
d="M107 95q0 -8 5 -13t13 -5h20q16 0 27.5 -11.5t11.5 -27.5v-97q0 -8 5 -13t13 -5h20q16 0 27.5 -11t11.5 -28v-21q0 -7 -5 -12t-12 -5h-22q-16 0 -27 11t-11 27v20q0 8 -5.5 13.5t-13.5 5.5h-20q-16 0 -27 11t-11 27v97q0 8 -5.5 13.5t-13.5 5.5h-20q-16 0 -27 11t-11 27
v462q0 16 11 27t27 11h20q8 0 13.5 5t5.5 13v98q0 16 11 27t27 11h20q8 0 13.5 5t5.5 13v20q0 16 11 27.5t27 11.5h22q7 0 12 -5t5 -12v-22q0 -16 -11.5 -27t-27.5 -11h-20q-8 0 -13 -5.5t-5 -13.5v-97q0 -16 -11.5 -27t-27.5 -11h-20q-8 0 -13 -5t-5 -13v-502z" />
    <glyph glyph-name="parenright" unicode=")" horiz-adv-x="271" 
d="M164 598q0 8 -5 13.5t-13 5.5h-20q-17 0 -28 11t-11 27v97q0 8 -5 13t-13 5h-20q-16 0 -27.5 11.5t-11.5 27.5v21q0 8 5 12.5t12 4.5h22q16 0 27 -11t11 -27v-20q0 -8 5.5 -13.5t13.5 -5.5h20q16 0 27 -11t11 -27v-97q0 -8 5.5 -13t13.5 -5h20q16 0 27 -11.5t11 -27.5
v-462q0 -16 -11 -27t-27 -11h-20q-8 0 -13.5 -5t-5.5 -13v-97q0 -17 -11 -28t-27 -11h-20q-8 0 -13.5 -5t-5.5 -13v-20q0 -16 -11 -27t-27 -11h-22q-7 0 -12 4.5t-5 11.5v22q0 16 11.5 27t27.5 11h20q8 0 13 5.5t5 13.5v97q0 16 11 27t28 11h20q8 0 13 5.5t5 13.5v501z" />
    <glyph glyph-name="asterisk" unicode="*" horiz-adv-x="291" 
d="M184 635q0 -8 5.5 -13.5t13.5 -5.5h19q17 0 28 -11t11 -27v-22q0 -7 -5 -12t-12 -5h-22q-16 0 -27 11.5t-11 27.5v19q0 8 -5.5 13.5t-13.5 5.5h-39q-19 0 -19 -19v-19q0 -16 -11 -27.5t-27 -11.5h-22q-7 0 -12 5t-5 12v22q0 16 11 27t28 11h19q8 0 13.5 5.5t5.5 13.5v39
q0 19 -19 19h-19q-17 0 -28 11t-11 28v21q0 8 5 12.5t12 4.5h22q16 0 27 -11t11 -27v-20q0 -8 5.5 -13.5t13.5 -5.5h39q8 0 13.5 5.5t5.5 13.5v20q0 16 11 27t27 11h22q7 0 12 -4.5t5 -12.5v-21q0 -17 -11 -28t-28 -11h-19q-19 0 -19 -19v-39z" />
    <glyph glyph-name="plus" unicode="+" horiz-adv-x="454" 
d="M403 387q7 0 11.5 -5t4.5 -12v-22q0 -16 -11 -27t-27 -11h-115v-116q0 -16 -11.5 -27t-27.5 -11h-22q-16 0 -16 17v137h-137q-17 0 -17 16v22q0 16 11 27.5t27 11.5h116v115q0 16 11 27t27 11h22q7 0 12 -4.5t5 -11.5v-137h137z" />
    <glyph glyph-name="comma" unicode="," horiz-adv-x="209" 
d="M97 38q0 17 11 28t27 11h22q7 0 12 -5t5 -12v-98q0 -17 -11.5 -28t-27.5 -11h-20q-8 0 -13 -5t-5 -13v-20q0 -17 -11.5 -28t-27.5 -11h-21q-8 0 -12.5 5t-4.5 12v22q0 16 11 27t27 11h20q8 0 13.5 5.5t5.5 13.5v96z" />
    <glyph glyph-name="hyphen" unicode="-" horiz-adv-x="378" 
d="M326 308q7 0 12 -5t5 -12v-22q0 -16 -11 -27t-28 -11h-252q-7 0 -12 5t-5 12v21q0 17 11 28t28 11h252z" />
    <glyph glyph-name="period" unicode="." horiz-adv-x="127" 
d="M81 77q7 0 11.5 -5t4.5 -12v-22q0 -16 -11 -27t-27 -11h-22q-7 0 -12 5t-5 12v21q0 17 11.5 28t27.5 11h22z" />
    <glyph glyph-name="slash" unicode="/" horiz-adv-x="517" 
d="M480 847q7 0 12 -5t5 -12v-99q0 -16 -11.5 -27t-27.5 -11h-20q-8 0 -13 -5.5t-5 -13.5v-97q0 -16 -11 -27t-28 -11h-20q-8 0 -13 -5t-5 -13v-97q0 -17 -11 -28t-28 -11h-20q-8 0 -13 -5t-5 -13v-97q0 -16 -11 -27.5t-27 -11.5h-20q-8 0 -13.5 -5t-5.5 -13v-97
q0 -16 -11 -27t-27 -11h-20q-8 0 -13.5 -5.5t-5.5 -13.5v-97q0 -16 -11 -27t-27 -11h-22q-7 0 -12 4.5t-5 12.5v98q0 16 11.5 27.5t27.5 11.5h20q8 0 13 5t5 13v97q0 16 11 27t28 11h20q8 0 13 5.5t5 13.5v97q0 16 11 27t28 11h20q8 0 13 5.5t5 13.5v97q0 16 11 27t27 11h20
q8 0 13.5 5t5.5 13v98q0 16 11 27t27 11h20q8 0 13.5 5t5.5 13v98q0 16 11 27t27 11h22z" />
    <glyph glyph-name="zero" unicode="0" horiz-adv-x="609" 
d="M535 539q17 0 28 -11t11 -27v-385q0 -17 -11 -28t-28 -11h-20q-8 0 -13 -5t-5 -13v-20q0 -17 -11 -28t-28 -11h-307q-17 0 -28 11t-11 28v97q0 8 -5 13t-13 5h-20q-17 0 -28 11t-11 27v386q0 16 11 27t28 11h20q8 0 13 5t5 13v21q0 16 11 27t28 11h307q17 0 28 -11
t11 -27v-98q0 -8 5 -13t13 -5h20zM112 172q0 -8 5 -13t13 -5h41q8 0 13 5t5 13v97q0 17 11 28t28 11h20q8 0 13 5t5 13v21q0 16 11 27t27 11h21q8 0 13 5t5 13v98q0 16 11 27t27 11h20q8 0 13.5 5t5.5 13v42q0 7 -5 12t-12 5h-273q-8 0 -13 -5.5t-5 -13.5v-425zM478 77
q8 0 13.5 5t5.5 13v425q0 19 -19 19h-40q-8 0 -13 -5.5t-5 -13.5v-97q0 -16 -11 -27t-28 -11h-20q-8 0 -13 -5.5t-5 -13.5v-20q0 -16 -11 -27t-28 -11h-20q-8 0 -13 -5.5t-5 -13.5v-97q0 -16 -11 -27t-27 -11h-21q-8 0 -13 -5t-5 -13v-42q0 -7 5 -12t12 -5h272z" />
    <glyph glyph-name="one" unicode="1" horiz-adv-x="301" 
d="M227 693q16 0 27 -11t12 -27v-616q0 -17 -11.5 -28t-27.5 -11h-22q-7 0 -11.5 5t-4.5 12v582q0 7 -5 12t-12 5h-42q-8 0 -13 -5t-5 -13v-21q0 -16 -11.5 -27t-27.5 -11h-21q-17 0 -17 17v22q0 16 11 27t27 11h20q8 0 13.5 5t5.5 13v21q0 16 11 27t27 11h77z" />
    <glyph glyph-name="two" unicode="2" horiz-adv-x="609" 
d="M536 539q16 0 27 -11t11 -27v-78q0 -16 -11 -27t-27 -11h-20q-19 0 -19 -19v-20q0 -16 -11 -27t-27 -11h-174q-8 0 -13.5 -5.5t-5.5 -13.5v-20q0 -16 -11 -27t-27 -11h-20q-8 0 -13.5 -5.5t-5.5 -13.5v-20q0 -16 -11 -27t-27 -11h-20q-8 0 -13.5 -5t-5.5 -13v-42
q0 -8 5 -12.5t12 -4.5h428q8 0 12.5 -5t4.5 -12v-22q0 -16 -11 -27t-27 -11h-462q-16 0 -27.5 11t-11.5 27v77q0 17 11.5 28t27.5 11h20q8 0 13 5t5 13v20q0 17 11.5 28t27.5 11h20q8 0 13 5t5 13v20q0 17 11.5 28t27.5 11h20q8 0 13 5t5 13v21q1 16 12 27t27 11h174
q8 0 13 5t5 13v117q0 8 -5 13.5t-13 5.5h-20q-17 0 -28 11t-11 27v22q0 7 -4.5 12t-12.5 5h-272q-8 0 -13.5 -5.5t-5.5 -13.5v-20q0 -16 -11 -27t-27 -11h-22q-7 0 -12 4.5t-5 12.5v22q1 16 12 27t27 11h20q8 0 13 5t5 13v21q1 16 12 27t27 11h308q16 0 27 -11t11 -27v-98
q0 -8 5.5 -13t13.5 -5h20z" />
    <glyph glyph-name="three" unicode="3" horiz-adv-x="609" 
d="M535 539q16 0 27.5 -11t11.5 -27v-77q0 -17 -11 -28t-28 -11h-20q-8 0 -13 -5t-5 -13v-40q0 -8 5 -13.5t13 -5.5h20q17 0 28 -11t11 -27v-154q0 -16 -11 -27.5t-28 -11.5h-20q-8 0 -13 -5t-5 -13v-20q0 -16 -11 -27.5t-28 -11.5h-308q-16 0 -27 11.5t-11 27.5v20
q0 8 -5 13t-13 5h-21q-16 0 -27 11.5t-11 27.5v22q0 7 5 11.5t12 4.5h21q17 0 28 -11t11 -27v-20q0 -8 5 -13.5t13 -5.5h348q8 0 13.5 5.5t5.5 13.5v194q0 8 -5 12.5t-12 5.5h-176q-16 0 -27 11t-11 28v21q0 17 17 17h195q19 0 19 19v117q0 8 -5.5 13t-13.5 5h-20
q-16 0 -27 11t-11 28v38h-290q-8 0 -13 -5t-5 -13v-20q0 -17 -11 -28t-28 -11h-21q-7 0 -12 5t-5 12v22q0 16 11 27t27 11h21q8 0 13 5.5t5 13.5v20q0 16 11 27t27 11h309q16 0 27 -11t11 -27v-97q0 -8 5 -13.5t13 -5.5h20z" />
    <glyph glyph-name="four" unicode="4" horiz-adv-x="609" 
d="M535 231q17 0 28 -11.5t11 -27.5v-22q0 -7 -5 -11.5t-12 -4.5h-60v-116q0 -16 -11 -27t-28 -11h-21q-17 0 -17 16v138h-346q-17 0 -28 11t-11 27v77q0 16 11 27.5t28 11.5h20q8 0 13 5t5 13v97q0 16 11 27t28 11h20q8 0 13 5.5t5 13.5v97q0 16 11 27t28 11h20q8 0 13 5.5
t5 13.5v20q0 16 11 27t27 11h77q17 0 28 -11t11 -27v-97q0 -8 5 -13.5t13 -5.5h21q16 0 27 -11t11 -27v-269h38zM130 308q-8 0 -13 -5.5t-5 -13.5v-42q0 -7 5 -11.5t12 -4.5h291v289q0 8 -5.5 13t-13.5 5h-20q-16 0 -27 11.5t-11 27.5v22q0 7 -5 11.5t-12 4.5h-42
q-8 0 -13 -5t-5 -13v-97q0 -16 -11 -27.5t-27 -11.5h-21q-8 0 -13 -5t-5 -13v-97q0 -16 -11 -27t-27 -11h-21z" />
    <glyph glyph-name="five" unicode="5" horiz-adv-x="609" 
d="M536 693q16 0 27 -11t11 -27v-22q0 -7 -4.5 -12t-12.5 -5h-368v-38q0 -17 -11 -28t-27 -11h-20q-8 0 -13.5 -5t-5.5 -13v-136h347q16 0 27 -11t11 -27v-20q0 -8 5.5 -13.5t13.5 -5.5h20q16 0 27 -11t11 -27v-154q0 -16 -11 -27.5t-27 -11.5h-20q-8 0 -13.5 -5t-5.5 -13
v-20q0 -16 -11 -27.5t-27 -11.5h-308q-16 0 -27.5 11.5t-11.5 27.5v20q0 8 -5 13t-13 5h-20q-16 0 -27.5 11.5t-11.5 27.5v22q0 7 5 11.5t12 4.5h22q16 0 27 -11t11 -27v-20q0 -8 5.5 -13.5t13.5 -5.5h348q8 0 13 5.5t5 13.5v194q0 8 -5 13t-13 5h-405q-16 0 -27.5 11.5
t-11.5 27.5v154q1 16 12 27t27 11h20q8 0 13 5.5t5 13.5v97q0 16 11.5 27t27.5 11h385z" />
    <glyph glyph-name="six" unicode="6" horiz-adv-x="609" 
d="M535 616q16 0 27 -11t12 -27v-22q0 -7 -5 -12t-12 -5h-22q-16 0 -27 11t-11 28v20q0 8 -5.5 13t-13.5 5h-271q-8 0 -13 -5t-5 -13v-20q0 -17 -11.5 -28t-27.5 -11h-20q-8 0 -13 -5t-5 -13v-251q0 16 11 27t27 11h20q8 0 13.5 5.5t5.5 13.5v20q0 16 11 27t27 11h231
q16 0 27.5 -11t11.5 -27v-20q0 -8 5 -13.5t13 -5.5h20q16 0 27.5 -11t11.5 -27v-154q0 -16 -11.5 -27.5t-27.5 -11.5h-20q-8 0 -13 -5t-5 -13v-20q0 -16 -11.5 -27.5t-27.5 -11.5h-308q-16 0 -27 11.5t-11 27.5v97q0 8 -5.5 13t-13.5 5h-20q-16 0 -27 11.5t-11 27.5v308
q0 16 11 27t27 11h20q8 0 13.5 5.5t5.5 13.5v20q0 16 11 27t27 11h20q8 0 13.5 5.5t5.5 13.5v20q0 16 11 27t27 11h231q16 0 27.5 -11t11.5 -27v-20q0 -8 5 -13.5t13 -5.5h20zM129 231q-17 0 -17 -17v-41q0 -8 5 -13.5t13 -5.5h20q16 0 27.5 -11t11.5 -27v-22q0 -7 4.5 -12
t11.5 -5h273q8 0 13.5 5.5t5.5 13.5v194q0 8 -5.5 13t-13.5 5h-271q-8 0 -13 -5t-5 -13v-20q0 -17 -11.5 -28t-27.5 -11h-21z" />
    <glyph glyph-name="seven" unicode="7" 
d="M535 693q16 0 27 -11t11 -27v-77q0 -17 -11 -28t-27 -11h-20q-8 0 -13.5 -5t-5.5 -13v-20q0 -17 -11 -28t-27 -11h-20q-8 0 -13.5 -5t-5.5 -13v-20q0 -17 -11 -28t-27 -11h-20q-8 0 -13.5 -5t-5.5 -13v-97q0 -16 -11 -27.5t-27 -11.5h-20q-8 0 -13.5 -5t-5.5 -13v-174
q0 -16 -11 -27.5t-27 -11.5h-22q-7 0 -12 5t-5 12v176q0 16 11.5 27t27.5 11h20q8 0 13 5.5t5 13.5v97q1 16 12 27t27 11h20q8 0 13 5.5t5 13.5v20q1 16 12 27t27 11h20q8 0 13 5.5t5 13.5v20q1 16 12 27t27 11h20q8 0 13 5.5t5 13.5v41q0 17 -16 17h-350q-8 0 -13.5 -5
t-5.5 -13v-20q0 -17 -11 -28t-27 -11h-22q-7 0 -11.5 5t-4.5 12v22q0 16 11 27t27 11h20q8 0 13 5.5t5 13.5v20q1 16 12 27t27 11h385z" />
    <glyph glyph-name="eight" unicode="8" horiz-adv-x="609" 
d="M497 403q0 -8 5.5 -13t13.5 -5l-1 -1h21q16 0 27 -11t11 -27v-231q0 -16 -11 -27t-27 -11h-20q-8 0 -13.5 -5.5t-5.5 -13.5v-20q0 -16 -11 -27t-27 -11h-308q-17 0 -28 11t-11 27v97q0 8 -5 13.5t-13 5.5h-20q-17 0 -28 11t-11 27v154q0 16 11.5 27t27.5 11h20
q8 0 13 5.5t5 13.5v40q0 8 -5 13t-13 5h-20q-16 0 -27.5 11.5t-11.5 27.5v77q0 16 11.5 27t27.5 11h20q8 0 13 5.5t5 13.5v20q0 16 11.5 27t27.5 11h308q16 0 27 -11t11 -27v-97q0 -8 5.5 -13.5t13.5 -5.5h20q16 0 27 -11t11 -27t-11 -27.5t-27 -11.5h-20q-8 0 -13.5 -5
t-5.5 -13v-40zM479 461q8 0 13 5.5t5 13.5v40q0 8 -5 13t-13 5h-20q-17 0 -28 11.5t-11 27.5v22q0 16 -17 16h-272q-8 0 -13.5 -5t-5.5 -13v-117q0 -8 5.5 -13.5t13.5 -5.5h348zM497 366q0 16 -16 18h-350q-8 0 -13.5 -5t-5.5 -13v-194q0 -8 5.5 -13t13.5 -5h20
q16 0 27 -11.5t11 -27.5v-22q0 -7 5 -11.5t12 -4.5h273q8 0 13 5t5 13v271z" />
    <glyph glyph-name="nine" unicode="9" horiz-adv-x="609" 
d="M536 539q16 0 27 -11.5t11 -27.5v-308q0 -16 -11 -27t-27 -11h-20q-8 0 -13.5 -5.5t-5.5 -13.5v-20q0 -16 -11 -27t-27 -11h-20q-8 0 -13.5 -5.5t-5.5 -13.5v-20q0 -16 -11 -27t-27 -11h-231q-17 0 -28 11t-11 27v20q0 8 -5 13.5t-13 5.5h-20q-16 0 -27 11t-12 27v22
q0 7 5 12t12 5h22q16 0 27 -11.5t11 -27.5v-20q0 -8 5.5 -13t13.5 -5h271q8 0 13 5t5 13v20q0 16 11.5 27.5t27.5 11.5h20q8 0 13 5t5 13v251q0 -16 -11 -27t-27 -11h-20q-8 0 -13.5 -5.5t-5.5 -13.5v-20q0 -16 -11 -27t-27 -11h-231q-17 0 -28 11t-11 27v20q0 8 -5 13.5
t-13 5.5h-20q-16 0 -27.5 11t-11.5 27v154q0 16 11.5 27.5t27.5 11.5h20q8 0 13 5t5 13v20q0 16 11.5 27t27.5 11h308q16 0 27 -11t11 -27v-97q0 -8 5.5 -13t13.5 -5h20zM497 520q0 8 -5 13.5t-13 5.5h-20q-16 0 -27.5 11t-11.5 27v22q0 7 -4.5 12t-12.5 5h-272
q-8 0 -13.5 -5.5t-5.5 -13.5v-194q0 -8 5.5 -13t13.5 -5h271q8 0 13 5t5 13v20q0 16 11.5 27.5t27.5 11.5h21q17 0 17 16v42z" />
    <glyph glyph-name="colon" unicode=":" horiz-adv-x="131" 
d="M80 461q16 0 16 -16v-22q0 -16 -11 -27.5t-27 -11.5h-22q-7 0 -11.5 5t-4.5 12v22q0 16 11 27t27 11h22zM20 38q0 17 11 28t27 11h22q7 0 11.5 -5t4.5 -12v-22q0 -16 -11 -27t-27 -11h-22q-7 0 -11.5 5t-4.5 12v21z" />
    <glyph glyph-name="semicolon" unicode=";" horiz-adv-x="209" 
d="M157 461q7 0 12 -4.5t5 -11.5v-22q0 -16 -11.5 -27.5t-27.5 -11.5h-22q-7 0 -11.5 5t-4.5 12v22q0 16 11 27t27 11h22zM97 38q0 17 11 28t27 11h22q7 0 12 -5t5 -12v-98q0 -17 -11.5 -28t-27.5 -11h-20q-8 0 -13 -5t-5 -13v-20q0 -17 -11.5 -28t-27.5 -11h-21
q-8 0 -12.5 5t-4.5 12v22q0 16 11 27t27 11h20q8 0 13.5 5.5t5.5 13.5v96z" />
    <glyph glyph-name="less" unicode="&#x3c;" horiz-adv-x="455" 
d="M73 231q-16 0 -27 11t-11 28q0 16 11 27t27 11h20q19 0 19 19v20q0 16 11 27t27 11h97q8 0 13.5 5.5t5.5 13.5v20q0 16 11 27t27 11h99q7 0 12 -5t5 -12v-21q0 -17 -11 -28t-28 -11h-96q-19 0 -19 -19v-19q0 -17 -11 -28t-28 -11h-96q-19 0 -19 -19v-39q0 -8 5.5 -13.5
t13.5 -5.5h96q17 0 28 -11t11 -27v-20q0 -8 5.5 -13.5t13.5 -5.5h96q17 0 28 -11t11 -27v-22q0 -7 -5 -12t-12 -5h-99q-16 0 -27 11t-11 28v19q0 8 -5.5 13.5t-13.5 5.5h-97q-16 0 -27 11t-11 28v19q0 19 -19 19h-20z" />
    <glyph glyph-name="equal" unicode="=" horiz-adv-x="455" 
d="M403 464q7 0 12 -5t5 -12v-21q0 -17 -11 -28t-28 -11h-330q-16 0 -16 16v23q0 16 11.5 27t27.5 11h329zM404 310q16 0 16 -16v-22q0 -17 -11 -28t-28 -11h-329q-7 0 -12 5t-5 12v22q0 16 11.5 27t27.5 11h330z" />
    <glyph glyph-name="greater" unicode="&#x3e;" horiz-adv-x="455" 
d="M382 308q16 0 27 -11t11 -28q0 -16 -11 -27t-27 -11h-20q-19 0 -19 -19v-20q0 -16 -11 -27t-27 -11h-97q-8 0 -13.5 -5.5t-5.5 -13.5v-20q0 -16 -11 -27t-27 -11h-99q-7 0 -12 5t-5 12v21q0 17 11 28t28 11h96q19 0 19 19v19q0 17 11 28t28 11h96q19 0 19 19v39
q0 8 -5.5 13.5t-13.5 5.5h-96q-17 0 -28 11t-11 27v20q0 8 -5.5 13.5t-13.5 5.5h-96q-17 0 -28 11t-11 27v22q0 7 5 12t12 5h99q16 0 27 -11t11 -28v-19q0 -8 5.5 -13.5t13.5 -5.5h97q16 0 27 -11t11 -28v-19q0 -19 19 -19h20z" />
    <glyph glyph-name="question" unicode="?" horiz-adv-x="537" 
d="M458 615q16 0 27 -11t12 -27v-77q0 -16 -11.5 -27.5t-27.5 -11.5h-20q-8 0 -13 -5t-5 -13v-20q0 -16 -11.5 -27.5t-27.5 -11.5h-20q-8 0 -13 -5t-5 -13v-20q0 -16 -11.5 -27t-27.5 -11h-20q-8 0 -13 -5.5t-5 -13.5v-97q0 -16 -11 -27t-28 -11h-38v115q0 16 11 27.5
t27 11.5h20q8 0 13.5 5t5.5 13v20q0 16 11 27t27 11h20q8 0 13.5 5.5t5.5 13.5v20q0 16 11 27t27 11h20q8 0 13.5 5.5t5.5 13.5v117q0 8 -5.5 13t-13.5 5h-20q-16 0 -27 11t-11 28v21q0 8 -5 12.5t-12 4.5h-196q-8 0 -13 -5t-5 -13v-174q0 -16 -11 -27.5t-27 -11.5h-22
q-7 0 -12 5t-5 12v176q0 16 11 27t28 11h20q8 0 13 5t5 13v21q0 16 11 27t27 11h231q16 0 27 -11t12 -27v-97q0 -8 5 -13.5t13 -5.5h20zM189 38q0 17 11 28t27 11h22q7 0 12 -5t5 -12v-22q0 -16 -11 -27t-28 -11h-21q-8 0 -12.5 5t-4.5 12v21z" />
    <glyph glyph-name="at" unicode="@" horiz-adv-x="844" 
d="M771 538q16 0 27 -11t11 -27v-308q0 -16 -11 -27t-27 -11h-20q-8 0 -13.5 -5.5t-5.5 -13.5v-20q0 -16 -11 -27t-27 -11h-77q-17 0 -28 11t-11 27v20q0 8 -5.5 13.5t-13.5 5.5h-39q-8 0 -13.5 -5.5t-5.5 -13.5v-20q0 -16 -11 -27t-27 -11h-154q-16 0 -27 11t-11 27v20
q0 8 -5.5 13.5t-13.5 5.5h-20q-16 0 -27 11t-11 27v231q0 16 11 27.5t27 11.5h20q8 0 13.5 5t5.5 13v20q0 16 11 27t27 11h231q16 0 27 -11t11 -27v-97q0 -8 5.5 -13t13.5 -5h20q16 0 27 -11.5t11 -27.5v-77q0 -16 -11 -27t-27 -11h-20q-8 0 -13.5 -5.5t-5.5 -13.5v-39
q0 -8 5.5 -13.5t13.5 -5.5h116q19 0 19 19v347q0 8 -5.5 13t-13.5 5h-19q-17 0 -28 11.5t-11 27.5v20q0 8 -5.5 13t-13.5 5h-424q-8 0 -13 -5t-5 -13v-20q0 -16 -11.5 -27.5t-27.5 -11.5h-19q-8 0 -13.5 -5t-5.5 -13v-424q0 -19 19 -19h19q16 0 27.5 -11t11.5 -28v-21
q0 -7 4.5 -12t11.5 -5h428q8 0 12.5 -5t4.5 -12v-21q0 -17 -11 -28t-27 -11h-462q-16 0 -27 11t-11 28v96q0 8 -5.5 13.5t-13.5 5.5h-20q-16 0 -27 11t-11 27v385q0 16 11 27t27 11h20q8 0 13.5 5.5t5.5 13.5v20q0 16 11 27t27 11h20q8 0 13.5 5.5t5.5 13.5v20q0 16 11 27
t27 11h385q16 0 27 -11t11 -27v-20q0 -8 5.5 -13.5t13.5 -5.5h20q16 0 27 -11t11 -27v-20q0 -8 5.5 -13.5t13.5 -5.5h20zM501 192q0 17 11.5 28t27.5 11h19q19 0 19 19v116q0 8 -5.5 13.5t-13.5 5.5h-19q-16 0 -27.5 11t-11.5 27v22q0 7 -4.5 12t-11.5 5h-196q-8 0 -13 -5.5
t-5 -13.5v-270q0 -8 5 -13.5t13 -5.5h194q8 0 13 5.5t5 13.5v19z" />
    <glyph glyph-name="A" unicode="A" horiz-adv-x="696" 
d="M617 154q17 0 28 -11t11 -27v-99q0 -7 -5 -12t-12 -5h-22q-16 0 -27 11.5t-11 27.5v97q0 8 -5.5 13t-13.5 5h-20q-16 0 -27 11.5t-11 27.5v77q0 -16 -11 -27.5t-28 -11.5h-327q-8 0 -13.5 -5t-5.5 -13v-174q0 -16 -11 -27.5t-27 -11.5h-22q-7 0 -12 5t-5 12v176
q0 16 11 27t28 11h20q8 0 13 5.5t5 13.5v174q0 16 11 27t28 11h20q8 0 13 5.5t5 13.5v174q0 16 11 27t28 11h20q8 0 13 5.5t5 13.5v20q0 16 11 27t27 11h77q17 0 28 -11t11 -27v-97q0 -8 5 -13.5t13 -5.5h20q17 0 28 -11t11 -27v-174q0 -8 5 -13.5t13 -5.5h20q17 0 28 -11
t11 -27v-174q0 -8 5 -13.5t13 -5.5h20zM485 308q7 0 12 5t5 12v42q0 8 -5.5 13t-13.5 5h-20q-16 0 -27 11.5t-11 27.5v174q0 8 -5 13t-13 5h-21q-16 0 -27 11t-11 28v21q0 8 -5 12.5t-12 4.5h-42q-8 0 -13 -5t-5 -13v-174q0 -16 -11 -27.5t-27 -11.5h-21q-8 0 -13 -5t-5 -13
v-119q0 -7 5 -12t12 -5h274z" />
    <glyph glyph-name="B" unicode="B" horiz-adv-x="706" 
d="M627 616q17 0 28 -11t11 -28v-154q0 -16 -11 -27t-28 -11h-21q-7 0 -12 -5t-5 -12v-42q0 -8 5 -13t13 -5h20q17 0 28 -11t11 -28v-77q0 -16 -11 -27t-28 -11h-20q-8 0 -13 -5t-5 -13v-21q0 -16 -11 -27t-27 -11h-21q-8 0 -13 -5t-5 -13v-21q0 -16 -11 -27t-27 -11h-385
q-17 0 -28 11t-11 27v693q0 16 11 27.5t28 11.5h385q16 0 27 -11.5t11 -27.5v-20q0 -8 5 -13t13 -5h21q16 0 27 -11.5t11 -27.5v-21q0 -13 13 -17h25zM512 674q0 8 -5 13.5t-13 5.5h-350q-7 0 -12 -5t-5 -12v-197q0 -8 5 -12.5t12 -4.5h22q16 0 27 -11t11 -28v-20
q0 -8 5.5 -13t13.5 -5h272q17 0 17 17v21q0 17 11 28t28 11h21q7 0 12 4.5t5 12.5v118q0 8 -5 13t-13 5v1h-20q-17 0 -28 11t-11 27v20zM589 289q0 8 -5 13.5t-13 5.5h-328q-17 0 -28 11t-11 27v20q0 8 -5 13.5t-13 5.5h-20q-17 0 -28 11t-11 27v-329q0 -8 5 -12.5t12 -4.5
h350q8 0 13 5t5 13v20q0 17 11 28t28 11h20q8 0 13 5t5 13v117z" />
    <glyph glyph-name="C" unicode="C" horiz-adv-x="696" 
d="M617 616q17 0 28 -11.5t11 -27.5v-22q0 -7 -5 -11.5t-12 -4.5h-22q-16 0 -27 11t-11 27v20q0 8 -5 13.5t-13 5.5h-20q-17 0 -28 11t-11 27v20q0 8 -5 13.5t-13 5.5h-273q-7 0 -12 -5t-5 -12v-22q0 -16 -11 -27t-27 -11h-20q-8 0 -13.5 -5.5t-5.5 -13.5v-425q0 -8 5.5 -13
t13.5 -5h20q16 0 27 -11t11 -28v-20q0 -8 5.5 -13t13.5 -5h271q8 0 13 5t5 13v20q0 17 11 28t28 11h20q8 0 13 5t5 13v20q0 17 11 28t27 11h22q7 0 12 -5t5 -12v-22q0 -16 -11 -27t-28 -11h-20q-8 0 -13 -5.5t-5 -13.5v-20q0 -16 -11 -27t-27 -11h-21q-8 0 -13 -5.5
t-5 -13.5v-20q0 -16 -11 -27t-27 -11h-231q-17 0 -28 11t-11 27v20q0 8 -5 13.5t-13 5.5h-20q-17 0 -28 11t-11 27v20q0 8 -5 13.5t-13 5.5h-20q-17 0 -28 11t-11 27v385q0 17 11.5 28t27.5 11h20q8 0 13 5t5 13v97q0 16 11.5 27.5t27.5 11.5h308q16 0 27 -11.5t11 -27.5
v-20q0 -8 5 -13t13 -5h21q16 0 27 -11t11 -28v-20q0 -8 5 -13t13 -5h20z" />
    <glyph glyph-name="D" unicode="D" horiz-adv-x="706" 
d="M627 616q17 0 28 -11t11 -28v-385q0 -16 -11 -27t-28 -11h-20q-8 0 -13 -5t-5 -13v-21q0 -16 -11 -27t-28 -11h-20q-8 0 -13 -5t-5 -13v-21q0 -16 -11 -27t-28 -11h-384q-17 0 -28 11t-11 27v693q0 16 11 27.5t28 11.5h384q17 0 28 -11.5t11 -27.5v-20q0 -8 5 -13t13 -5
h20q17 0 28 -11.5t11 -27.5v-20q0 -8 5 -13t13 -5h20zM570 154q8 0 13.5 5t5.5 13v425q0 8 -5.5 13.5t-13.5 5.5h-20q-16 0 -27 11t-11 27v20q0 8 -5.5 13.5t-13.5 5.5h-349q-7 0 -12 -5t-5 -12v-582q0 -8 5 -12.5t12 -4.5h349q8 0 13.5 5t5.5 13v20q0 17 11 28t27 11h20z
" />
    <glyph glyph-name="E" unicode="E" horiz-adv-x="617" 
d="M539 614q-16 0 -27 11.5t-11 27.5v20q0 8 -5.5 13.5t-13.5 5.5h-348q-8 0 -12.5 -5t-4.5 -12v-197q0 -17 17 -17h21q16 0 27 -11.5t11 -27.5v-19q0 -19 19 -19h250q16 0 27.5 -11t11.5 -28v-21q0 -16 -17 -16h-252q-16 0 -27.5 10.5t-11.5 26.5v21q0 8 -5 13t-13 5h-20
q-16 0 -27 11.5t-11 26.5v-328q0 -17 17 -17h426q8 0 12.5 -5t4.5 -12v-21q0 -17 -11 -28t-27 -11h-461q-17 0 -27.5 11t-10.5 28v691q0 16 10.5 27.5t27.5 11.5h384q16 0 27.5 -11.5t11.5 -27.5v-20q0 -8 5 -13t13 -5h20q16 0 27 -11.5t11 -27.5v-22q0 -7 -4.5 -12
t-12.5 -5h-21z" />
    <glyph glyph-name="F" unicode="F" horiz-adv-x="619" 
d="M540 692q16 0 27.5 -11t11.5 -27v-22q0 -8 -5 -12t-12 -4h-22q-17 0 -28 10.5t-11 27.5v20q0 8 -5.5 13t-13.5 5h-348q-17 0 -17 -17v-197q0 -7 4.5 -12t12.5 -5h22q15 0 26 -10.5t11 -27.5v-21q0 -7 5.5 -12.5t13.5 -5.5h251q15 0 26.5 -10.5t11.5 -27.5v-22
q0 -7 -4.5 -12t-11.5 -5h-253q-16 0 -27.5 11.5t-11.5 27.5v20q0 8 -5 13t-13 5h-19q-17 0 -28 11.5t-11 27.5v-384q0 -17 -11.5 -28t-26.5 -11h-22q-7 0 -12 5t-5 12v713q0 17 11 28t28 11h384q15 0 26.5 -11t11.5 -28v-19q0 -8 5 -13.5t13 -5.5h21z" />
    <glyph glyph-name="G" unicode="G" horiz-adv-x="695" 
d="M578 598q0 8 -5 13t-13 5h-20q-16 0 -27.5 11t-11.5 27v21q0 8 -5 13t-13 5h-273q-7 0 -11.5 -5t-4.5 -12v-22q0 -16 -11.5 -27t-27.5 -11h-20q-8 0 -13 -5t-5 -13v-425q0 -8 5 -13.5t13 -5.5h20q16 0 27.5 -11t11.5 -27v-20q0 -8 5 -13.5t13 -5.5h271q8 0 13 5.5t5 13.5
v20q0 16 11.5 27t27.5 11h22q7 0 11.5 5t4.5 12v120q0 17 -16 17h-176q-16 0 -27 11t-11 28v21q0 17 16 17h253q16 0 27 -11t11 -27v-308q0 -17 -11 -28t-27 -11h-22q-7 0 -12 5t-5 12v99q0 -17 -11 -28t-27 -11h-20q-8 0 -13.5 -5t-5.5 -13v-20q0 -17 -11 -28t-27 -11h-231
q-16 0 -27 11t-11 28v20q0 8 -5.5 13t-13.5 5h-20q-16 0 -27 11t-11 28v20q0 8 -5.5 13t-13.5 5h-20q-16 0 -27 11t-11 28v385q0 16 11 27t27 11h20q8 0 13.5 5t5.5 13v97q0 17 11 28t27 11h308q16 0 27 -11t11 -27v-21q0 -8 5.5 -13t13.5 -5h20q16 0 27 -11t11 -27v-21
q0 -8 5.5 -13t13.5 -5h20q16 0 27 -11t11 -28v-21q0 -7 -4.5 -12t-11.5 -5h-22q-16 0 -27.5 11t-11.5 28v20z" />
    <glyph glyph-name="H" unicode="H" horiz-adv-x="716" 
d="M589 731q0 16 11 27.5t27 11.5h22q7 0 12 -5t5 -12v-715q0 -16 -11.5 -27t-27.5 -11h-21q-8 0 -12.5 5t-4.5 12v329q0 -16 -11.5 -27t-27.5 -11h-308q-16 0 -27 11t-11 27v20q0 19 -19 19h-20q-16 0 -27 11t-11 27v-385q0 -16 -11 -27t-28 -11h-21q-8 0 -12.5 5t-4.5 12
v714q0 16 11 27.5t27 11.5h22q7 0 12 -5t5 -12v-274q0 -17 17 -17h21q17 0 28 -11t11 -28v-20q0 -8 5 -13t13 -5h350q7 0 12 4.5t5 12.5v329z" />
    <glyph glyph-name="I" unicode="I" horiz-adv-x="177" 
d="M50 731q0 16 11.5 27t27.5 11h22q16 0 16 -16v-715q0 -16 -11 -27t-27 -11h-22q-7 0 -12 4.5t-5 12.5v714z" />
    <glyph glyph-name="J" unicode="J" horiz-adv-x="474" 
d="M347 731q0 16 11.5 27.5t27.5 11.5h22q7 0 11.5 -5t4.5 -12v-638q0 -16 -11 -27t-27 -11h-20q-8 0 -13.5 -5t-5.5 -13v-20q0 -17 -11 -28t-27 -11h-154q-16 0 -27 11t-11 28v20q0 8 -5.5 13t-13.5 5h-20q-16 0 -27 11t-11 27v77q0 17 11 28t27 11h22q7 0 12 -5t5 -12
v-119q0 -8 5 -13t13 -5h194q8 0 13 5t5 13v636z" />
    <glyph glyph-name="K" unicode="K" horiz-adv-x="618" 
d="M562 770q7 0 11.5 -5t4.5 -12v-22q0 -16 -11 -27t-27 -11h-20q-8 0 -13.5 -5.5t-5.5 -13.5v-20q0 -16 -11 -27t-27 -11h-20q-8 0 -13 -5.5t-5 -13.5h-1v-20q0 -16 -11 -27t-27 -11h-20q-8 0 -13 -5.5t-5 -13.5v-20q0 -16 -11.5 -27t-27.5 -11h-20q-8 0 -13 -5.5t-5 -13.5
v-42q0 -16 16 -16h22q16 0 27.5 -11.5t11.5 -27.5v-97q0 -8 5 -13t13 -5h20q16 0 27 -11t11 -28v-20q0 -8 5.5 -13t13.5 -5h20q16 0 27 -11t11 -28v-20q0 -8 5.5 -13t13.5 -5h20q16 0 27 -11t11 -28v-21q0 -17 -16 -17h-22q-16 0 -27.5 11t-11.5 27v20q0 8 -5 13.5t-13 5.5
h-20q-16 0 -27.5 11t-11.5 27v20q0 8 -5 13.5t-13 5.5h-20q-16 0 -27 11t-11 27v20q0 8 -5.5 13.5t-13.5 5.5h-20q-16 0 -27 11t-11 27v22q0 7 -5 12t-12 5h-99q-16 0 -27 11t-11 27v-308q0 -16 -11.5 -27t-27.5 -11h-22q-16 0 -16 17v714q0 16 11 27.5t27 11.5h22
q7 0 12 -5t5 -12v-352q0 -16 16 -16h44q7 0 12 4.5t5 11.5v22q0 16 11 27.5t27 11.5h20q8 0 13 5t6 13v20q0 16 11 27.5t27 11.5h20q8 0 13.5 5t5.5 13v20q0 16 11 27.5t27 11.5h20q8 0 13 5t5 13v20q1 16 12 27.5t27 11.5h20q8 0 13 5t5 13v20q1 16 12 27.5t27 11.5h22z
" />
    <glyph glyph-name="L" unicode="L" horiz-adv-x="552" 
d="M473 77q16 0 27.5 -11t11.5 -28v-21q0 -7 -5 -12t-12 -5h-330q-16 0 -27 11t-11 27v21q0 8 -5.5 13t-13.5 5h-20q-16 0 -27 11t-11 27v617q0 16 11 27t27 11h22q7 0 12 -5t5 -12v-658q0 -8 5 -13t13 -5h328z" />
    <glyph glyph-name="M" unicode="M" horiz-adv-x="792" 
d="M704 770q16 0 27 -11t11 -27v-693q0 -16 -11 -27t-27 -11h-22q-16 0 -16 16v659q0 8 -5 12.5t-12 4.5h-42q-8 0 -13 -5t-5 -13v-328q0 -16 -11.5 -27.5t-27.5 -11.5h-22q-16 0 -16 -16v-176q0 -16 -11.5 -27t-27.5 -11h-20q-8 0 -13 -5.5t-5 -13.5v-20q0 -15 -11 -26.5
t-27 -11.5q-17 0 -28 11.5t-11 27.5v19q0 8 -5.5 13.5t-13.5 5.5h-20q-16 0 -27 11t-11 27v192h-39q-16 0 -27 11.5t-11 27.5v328q0 8 -5.5 13t-13.5 5h-41q-17 0 -17 -17v-637q0 -16 -11 -27t-28 -11h-21q-17 0 -17 16v715q0 16 11 27t27 11h77q16 0 27.5 -11t11.5 -27v-20
q0 -8 5 -13.5t13 -5.5h20q16 0 27 -11t12 -27v-253q0 -7 4.5 -12t11.5 -5h22q16 0 27.5 -11t11.5 -27v-251q0 -8 5 -13t13 -5h40q8 0 13.5 5t5.5 13v251q0 16 11 27t27 11h22q7 0 12 5t5 12v253q0 16 11 27t27 11h20q8 0 13.5 5.5t5.5 13.5v20q0 16 11 27t27 11h77z" />
    <glyph glyph-name="N" unicode="N" horiz-adv-x="706" 
d="M589 731q0 16 11 27.5t27 11.5h22q7 0 12 -5t5 -12v-638q0 -16 -11 -27t-28 -11h-20q-8 0 -13 -5t-5 -13v-21q0 -16 -11 -27t-28 -11h-77q-16 0 -27 11t-11 27v98q0 8 -5 13t-13 5h-21q-16 0 -27 11t-11 27v99q0 7 -5 12t-12 5h-21q-17 0 -28 11t-11 27v99q0 7 -4.5 12
t-12.5 5h-21q-17 0 -28 11t-11 27v174q0 8 -5 13.5t-13 5.5h-42q-7 0 -12 -5t-5 -12v-638q0 -16 -11 -27t-27 -11h-22q-7 0 -12 5t-5 12v714q0 16 11 27.5t28 11.5h77q16 0 27 -11.5t11 -27.5v-20q0 -8 5.5 -13t13.5 -5h20q16 0 27 -11.5t11 -27.5v-98q0 -8 5 -12.5t12 -4.5
h22q16 0 27 -11t11 -28v-98q0 -8 5 -12.5t12 -4.5h22q16 0 27 -11t11 -28v-174q0 -8 5 -13t13 -5h20q17 0 28 -11t11 -28v-21q0 -17 17 -17h41q8 0 13.5 5t5.5 13v636z" />
    <glyph glyph-name="O" unicode="O" horiz-adv-x="773" 
d="M694 616q17 0 28 -11t11 -28v-385q0 -16 -11 -27t-28 -11h-20q-8 0 -13 -5.5t-5 -13.5v-97q0 -16 -11 -27t-28 -11h-385q-16 0 -27 11t-11 27v21q0 8 -5 13t-13 5h-20q-17 0 -28 11t-11 27v20q0 8 -5 13.5t-13 5.5h-20q-17 0 -28 11t-11 27v385q0 17 11 28t28 11h20
q8 0 13 5t5 13v97q0 16 11 27.5t28 11.5h384q17 0 28 -11.5t11 -27.5v-20q0 -8 5 -13t13 -5h20q17 0 28 -11.5t11 -27.5v-20q0 -8 5 -13t13 -5h20zM637 154q8 0 13.5 5t5.5 13v425q0 8 -5.5 13.5t-13.5 5.5h-20q-16 0 -27 11t-11 27v20q0 19 -19 19h-349q-7 0 -12 -5t-5 -12
v-22q0 -16 -11 -27t-27 -11h-21q-8 0 -13 -5.5t-5 -13.5v-425q0 -8 5 -13t13 -5h21q16 0 27 -11t11 -28v-20q0 -8 5 -13t13 -5h350q7 0 12 4.5t5 12.5v21q0 17 11 28t27 11h20z" />
    <glyph glyph-name="P" unicode="P" horiz-adv-x="706" 
d="M628 616q16 0 27 -11t11 -28v-154q0 -16 -11 -27t-27 -11h-97q-19 0 -19 -19v-20q0 -16 -11 -27t-27 -11h-231q-16 0 -27.5 11t-11.5 27v20q0 8 -5 13.5t-13 5.5h-20q-16 0 -27.5 11t-11.5 27v-385q0 -16 -11 -27t-27 -11h-22q-7 0 -12 5t-5 12v714q0 16 11.5 27.5
t27.5 11.5h385q16 0 27 -11.5t11 -27.5v-20q0 -8 5.5 -13t13.5 -5h20q16 0 27 -11.5t11 -27.5v-20q0 -8 5.5 -13t13.5 -5h20zM512 423q0 17 11 28t28 11h21q17 0 17 17v118q0 8 -5 13.5t-13 5.5h-20q-17 0 -28 11t-11 27v20q0 8 -5 13.5t-13 5.5h-350q-7 0 -12 -5t-5 -12
v-197q0 -8 5 -12.5t12 -4.5h22q16 0 27 -11t11 -28v-20q0 -8 5.5 -13t13.5 -5h271q8 0 13 5t5 13v20z" />
    <glyph glyph-name="Q" unicode="Q" horiz-adv-x="772" 
d="M694 616q16 0 27 -11t11 -28v-385q0 -16 -11 -27t-27 -11h-20q-8 0 -13.5 -5t-5.5 -13v-42q0 -8 5 -12.5t12 -4.5h22q16 0 27 -11t11 -28v-21q0 -7 -4.5 -12t-11.5 -5h-484q-16 0 -27 11t-11 27v21q0 8 -5.5 13t-13.5 5h-20q-16 0 -27 11t-11 27v21q0 8 -5.5 13t-13.5 5
h-20q-16 0 -27 11t-11 27v385q0 17 11 28t27 11h20q8 0 13.5 5t5.5 13v97q0 16 11 27.5t27 11.5h385q16 0 27.5 -11.5t11.5 -27.5v-20q0 -8 5 -13t13 -5h20q16 0 27 -11.5t11 -27.5v-20q0 -8 5.5 -13t13.5 -5h20zM637 154q8 0 13 5t5 13v425q0 8 -5 13.5t-13 5.5h-20
q-16 0 -27 11t-11 27v20q0 8 -5.5 13.5t-13.5 5.5h-350q-7 0 -11.5 -5t-4.5 -12v-22q0 -16 -11.5 -27t-27.5 -11h-20q-8 0 -13 -5.5t-5 -13.5v-425q0 -8 5 -13t13 -5h20q16 0 27.5 -11t11.5 -28v-20q0 -8 5 -13t13 -5h350q7 0 12 4.5t5 12.5v42q0 8 -5.5 13t-13.5 5h-20
q-16 0 -27 11t-11 27v22q0 7 4.5 12t11.5 5h22q16 0 27.5 -11t11.5 -28v-20q0 -8 5 -13t13 -5h40z" />
    <glyph glyph-name="R" unicode="R" horiz-adv-x="706" 
d="M628 616q16 0 27 -11t11 -28v-154q0 -16 -11 -27t-27 -11h-97q-8 0 -13.5 -5.5t-5.5 -13.5v-40q0 -8 5.5 -13t13.5 -5h20q16 0 27 -11t11 -28v-174q0 -8 5.5 -13t13.5 -5h20q16 0 27 -11t11 -28v-21q0 -7 -4.5 -12t-12.5 -5h-21q-17 0 -28 11t-11 27v21q0 8 -5 13t-13 5
h-20q-16 0 -27.5 11t-11.5 27v174q0 8 -5 13.5t-13 5.5h-251q-16 0 -27.5 11t-11.5 27v20q0 8 -5 13.5t-13 5.5h-20q-16 0 -27.5 11t-11.5 27v-385q0 -16 -11 -27t-27 -11h-22q-7 0 -12 5t-5 12v714q0 16 11.5 27.5t27.5 11.5h385q16 0 27 -11.5t11 -27.5v-20q0 -8 5.5 -13
t13.5 -5h20q16 0 27 -11.5t11 -27.5v-20q0 -8 5.5 -13t13.5 -5h20zM512 423q0 17 11.5 28t27.5 11h21q17 0 17 17v118q0 8 -5 13.5t-13 5.5h-20q-16 0 -27.5 11t-11.5 27v20q0 8 -5 13.5t-13 5.5h-350q-7 0 -12 -5t-5 -12v-197q0 -8 5 -12.5t12 -4.5h22q16 0 27 -11t11 -28
v-20q0 -8 5.5 -13t13.5 -5h271q8 0 13 5t5 13v20z" />
    <glyph glyph-name="S" unicode="S" horiz-adv-x="695" 
d="M578 674q0 8 -5 13.5t-13 5.5h-350q-7 0 -11.5 -5t-4.5 -12v-22q0 -16 -11.5 -27t-27.5 -11h-20q-8 0 -13 -5.5t-5 -13.5v-117q0 -8 5 -13t13 -5h328q16 0 27.5 -11t11.5 -28v-20q0 -8 5 -13t13 -5h20q16 0 27 -11t11 -28v-20q0 -8 5.5 -13t13.5 -5h20q16 0 27 -11
t11 -28v-154q0 -16 -11 -27t-27 -11h-20q-8 0 -13.5 -5t-5.5 -13v-21q0 -16 -11 -27t-27 -11h-385q-16 0 -27 11t-11 27v21q0 8 -5.5 13t-13.5 5h-20q-16 0 -27 11t-11 27v22q0 7 4.5 12t11.5 5h22q16 0 27.5 -11t11.5 -28v-20q0 -8 5 -13t13 -5h425q8 0 13 5t5 13v194
q0 8 -5 13.5t-13 5.5h-20q-16 0 -27 11t-11 27v20q0 8 -5.5 13.5t-13.5 5.5h-328q-16 0 -27 11t-11 27v20q0 8 -5.5 13.5t-13.5 5.5h-20q-16 0 -27 11t-11 27v78q0 16 11 27t27 11h20q8 0 13.5 5t5.5 13v97q0 16 11 27.5t27 11.5h385q16 0 27 -11t11 -27v-21q0 -8 5.5 -13
t13.5 -5h20q16 0 27 -11.5t11 -27.5v-21q0 -17 -16 -17h-22q-16 0 -27.5 11t-11.5 28v19z" />
    <glyph glyph-name="T" unicode="T" horiz-adv-x="618" 
d="M562 770q7 0 11.5 -5t4.5 -12v-22q0 -16 -11 -27t-27 -11h-174q-8 0 -13.5 -5.5t-5.5 -13.5v-636q0 -16 -11 -27t-27 -11h-22q-7 0 -12 5t-5 12v657q0 8 -5 13.5t-13 5.5h-196q-16 0 -16 17v22q0 16 11 27t27 11h154q16 0 27 -11t11 -27v-21q0 -8 5.5 -13t13.5 -5h40
q8 0 13 5t5 13v20q0 16 11.5 27.5t27.5 11.5h176z" />
    <glyph glyph-name="U" unicode="U" horiz-adv-x="696" 
d="M579 731q0 16 11 27.5t27 11.5h22q7 0 12 -5t5 -12v-561q0 -16 -11 -27t-28 -11h-20q-8 0 -13 -5t-5 -13v-98q0 -16 -11 -27t-28 -11h-307q-17 0 -28 11t-11 27v21q0 8 -5 13t-13 5h-20q-17 0 -28 11t-11 27v21q0 8 -5 13t-13 5h-20q-17 0 -28 11t-11 27v539
q0 16 11 27.5t28 11.5h21q8 0 12.5 -5t4.5 -12v-581q0 -8 5.5 -13t13.5 -5h20q16 0 27 -11t11 -28v-20q0 -8 5.5 -13t13.5 -5h272q7 0 12 4.5t5 12.5v21q0 17 11 28t27 11h21q8 0 13 5t5 13v559z" />
    <glyph glyph-name="V" unicode="V" horiz-adv-x="695" 
d="M578 731q0 16 11.5 27.5t27.5 11.5h21q8 0 12.5 -5t4.5 -12v-253q0 -16 -11 -27t-27 -11h-22q-7 0 -12 -5t-5 -12v-176q0 -16 -11 -27t-27 -11h-22q-7 0 -12 -5t-5 -12v-99q0 -16 -11 -27t-27 -11h-20q-8 0 -13.5 -5t-5.5 -13v-21q0 -16 -11 -27t-27 -11h-77
q-16 0 -27.5 11t-11.5 27v98q0 8 -5 13t-13 5h-20q-16 0 -27.5 11t-11.5 27v99q0 7 -4.5 12t-11.5 5h-22q-16 0 -27.5 11t-11.5 27v176q0 7 -4.5 12t-11.5 5h-22q-16 0 -27 11t-11 27v176q0 7 4.5 12t11.5 5h22q16 0 27 -11.5t11 -27.5v-98q0 -8 5 -12.5t12 -4.5h22
q16 0 27 -11t11 -28v-175q0 -8 5 -12.5t12 -4.5h22q16 0 27 -11t11 -28v-174q0 -8 5.5 -13t13.5 -5h20q16 0 27 -11t11 -28v-21q0 -8 5 -12.5t12 -4.5h42q8 0 13 5t5 13v174q0 17 11.5 28t27.5 11h22q16 0 16 17v175q0 17 11.5 28t27.5 11h21q17 0 17 17v175z" />
    <glyph glyph-name="W" unicode="W" horiz-adv-x="927" 
d="M810 731q0 17 11 28t27 11h22q7 0 12 -5t5 -12v-330q0 -16 -11 -27t-28 -11h-21q-7 0 -12 -5t-5 -12v-252q0 -17 -11 -28t-27 -11h-21q-8 0 -13 -5t-5 -13v-20q0 -17 -11.5 -28t-27.5 -11t-27 12t-11 28v19q0 8 -5 13t-13 5h-20q-17 0 -28 11t-11 28v252q0 7 -4.5 12
t-12.5 5h-21q-17 0 -28 11t-11 27v251q0 8 -5 13.5t-13 5.5h-40q-19 0 -19 -19v-251q0 -16 -11 -27t-27 -11h-22q-7 0 -12 -5t-5 -12v-252q0 -17 -11 -28t-27 -11h-20q-8 0 -13.5 -5t-5.5 -13v-20q0 -17 -11 -28t-28 -11q-16 0 -27 12t-11 28v19q0 8 -5 13t-13 5h-20
q-16 0 -27.5 11t-11.5 28v252q0 7 -4.5 12t-12.5 5h-21q-16 0 -27.5 11t-11.5 27v309q0 16 11.5 27t27.5 11h21q8 0 12.5 -5t4.5 -12v-274q0 -8 5 -12.5t12 -4.5h22q16 0 27 -11t11 -28v-328q0 -8 5.5 -13t13.5 -5h40q8 0 13 5t5 13v328q0 17 11 28t28 11h21q17 0 17 17v175
q0 16 11.5 27.5t27.5 11.5h20q8 0 13 5t5 13v21q0 16 11 27t28 11q16 0 27 -11t11 -27v-21q0 -8 5.5 -13t13.5 -5h20q16 0 27 -11t11 -27v-176q0 -8 5 -12.5t12 -4.5h22q16 0 27 -11t11 -28v-328q0 -8 5.5 -13t13.5 -5h40q8 0 13 5t5 13v328q0 17 11 28t28 11h21q7 0 12 4.5
t5 12.5v252z" />
    <glyph glyph-name="X" unicode="X" horiz-adv-x="696" 
d="M639 770q7 0 12 -5t5 -12v-253q0 -16 -11 -27t-28 -11h-174q-8 0 -13 -5.5t-5 -13.5v-40q0 -8 5 -13t13 -5h174q17 0 28 -11t11 -28v-308q0 -16 -11 -27t-28 -11h-21q-8 0 -12.5 5t-4.5 12v274q0 7 -5 12t-12 5h-99q-16 0 -27 11t-11 27v20q0 19 -19 19h-117
q-8 0 -13 -5.5t-5 -13.5v-20q0 -16 -11 -27t-28 -11h-98q-8 0 -12.5 -5t-4.5 -12v-253q0 -16 -11 -27t-28 -11h-21q-7 0 -12 5t-5 12v329q0 17 11 28t27 11h174q8 0 13.5 5t5.5 13v40q0 19 -19 19h-174q-16 0 -27 11t-11 27v231q0 16 11 27.5t28 11.5h21q7 0 12 -5t5 -12
v-197q0 -17 17 -17h98q17 0 28 -11t11 -28v-20q0 -8 5 -13t13 -5h117q8 0 13.5 5t5.5 13v20q0 17 11 28t27 11h99q7 0 12 4.5t5 12.5v175q0 16 11 27.5t27 11.5h22z" />
    <glyph glyph-name="Y" unicode="Y" horiz-adv-x="619" 
d="M502 732q0 16 11 27t27 11h22q7 0 12 -4.5t5 -12.5v-175q0 -17 -11.5 -28t-27.5 -11h-22q-16 0 -16 -17v-98q0 -16 -11.5 -27.5t-27.5 -11.5h-97q-8 0 -13 -5t-5 -13v-328q0 -16 -11.5 -27.5t-27.5 -11.5h-22q-7 0 -11.5 5t-4.5 12v350q0 8 -5.5 13t-13.5 5h-97
q-16 0 -27 11.5t-11 27.5v98q0 8 -5 12.5t-12 4.5h-22q-16 0 -27 11t-11 28v154q0 16 11 27t27 11h22q7 0 12 -4.5t5 -12.5v-120q0 -7 4.5 -12t12.5 -5h21q16 0 27.5 -11t11.5 -27v-99q0 -7 4.5 -12t11.5 -5h22q16 0 27.5 -11t11.5 -27v-20q0 -8 5 -13.5t13 -5.5h40
q8 0 13.5 5.5t5.5 13.5v20q0 16 11 27t27 11h22q7 0 12 5t5 12v99q0 16 11 27t27 11h22q7 0 12 5t5 12v99z" />
    <glyph glyph-name="Z" unicode="Z" horiz-adv-x="696" 
d="M617 770q16 0 27.5 -11t11.5 -28v-77q0 -16 -11.5 -27t-27.5 -11h-20q-8 0 -13 -5.5t-5 -13.5v-20q0 -16 -11 -27t-28 -11h-20q-8 0 -13 -5.5t-5 -13.5v-20q0 -16 -11 -27t-28 -11h-20q-8 0 -13 -5t-5 -13v-21q0 -16 -11 -27t-28 -11h-20q-8 0 -13 -5t-5 -13v-20
q0 -17 -11 -28t-28 -11h-20q-8 0 -13 -5t-5 -13v-20q0 -17 -11 -28t-28 -11h-20q-8 0 -13 -5t-5 -13v-20q0 -17 -11 -28t-28 -11h-20q-8 0 -13 -5t-5 -13v-41q0 -8 5 -13t13 -5h504q7 0 12 -4.5t5 -12.5v-21q0 -17 -11.5 -28t-27.5 -11h-462q-16 0 -27 11t-11 28v20
q0 8 -5.5 13t-13.5 5h-20q-16 0 -27 11.5t-11 27.5t12 27t28 11h18q19 0 19 19v20q0 16 11 27t27 11h20q8 0 13.5 5t5.5 13v21q0 16 11 27t27 11h20q8 0 13.5 5t5.5 13v21q0 16 11 27t27 11h20q8 0 13.5 5t5.5 13v20q0 17 11 28t27 11h20q8 0 13.5 5t5.5 13v20q0 17 11 28
t27 11h20q8 0 13.5 5t5.5 13v21q0 16 11 27t27 11h20q8 0 13.5 5t5.5 13v42q0 7 -5 12t-12 5h-505q-17 0 -17 17v22q0 16 11 27t27 11h539z" />
    <glyph glyph-name="bracketleft" unicode="[" horiz-adv-x="270" 
d="M107 -59q0 -8 4.5 -13t12.5 -5h98q16 0 27 -11t11 -27v-21q0 -8 -5 -13t-12 -5h-175q-16 0 -27 11.5t-11 27.5v923q0 16 11 27t27 11h175q7 0 12 -5t5 -12v-21q0 -16 -11 -27t-27 -11h-98q-8 0 -12.5 -5t-4.5 -13v-811z" />
    <glyph glyph-name="backslash" unicode="\" horiz-adv-x="518" 
d="M59 847q16 0 27 -11t11 -27v-98q0 -8 5.5 -13t13.5 -5h20q16 0 27 -11t11 -27v-98q0 -8 5.5 -13t13.5 -5h21q16 0 27 -11t11 -27v-97q0 -8 5 -13.5t13 -5.5h20q17 0 28 -11t11 -27v-97q0 -8 5 -13.5t13 -5.5h20q17 0 28 -11t11 -27v-97q0 -8 5 -13t13 -5h20
q16 0 27.5 -11.5t11.5 -27.5v-98q0 -8 -5 -12.5t-12 -4.5h-22q-16 0 -27 11t-11 27v97q0 8 -5.5 13.5t-13.5 5.5h-20q-16 0 -27 11t-11 27v97q0 8 -5.5 13t-13.5 5h-20q-16 0 -27 11.5t-11 27.5v97q0 8 -5 13t-13 5h-20q-17 0 -28.5 11t-11.5 28v97q0 8 -5 13t-13 5h-20
q-17 0 -28 11t-11 27v97q0 8 -5 13.5t-13 5.5h-20q-16 0 -27.5 11t-11.5 27v99q0 7 5 12t12 5h22z" />
    <glyph glyph-name="bracketright" unicode="]" horiz-adv-x="271" 
d="M164 752q0 8 -5 13t-13 5h-98q-16 0 -27 11t-11 27v21q0 8 5 13t13 5h174q17 0 28 -11.5t11 -27.5v-923q0 -16 -11 -27t-28 -11h-174q-8 0 -13 4.5t-5 12.5v21q0 16 11 27t27 11h98q8 0 13 5t5 13v811z" />
    <glyph glyph-name="asciicircum" unicode="^" horiz-adv-x="440" 
d="M173 732q0 16 11 27t28 11q16 0 27 -11t11 -27v-20q0 -8 6 -13.5t14 -5.5h20q16 0 27 -11t11 -27v-97q0 -8 5.5 -13t13.5 -5h20q16 0 27 -11t11 -27v-99q0 -7 -5 -12t-12 -5h-21q-17 0 -28 10.5t-11 27.5v96q0 19 -19 19h-19q-17 0 -28 11t-11 28v96q0 19 -19 19h-39
q-8 0 -13.5 -5.5t-5.5 -13.5v-96q0 -17 -11 -28t-27 -11h-20q-8 0 -13.5 -5.5t-5.5 -13.5v-96q0 -17 -11 -28t-27 -11h-22q-7 0 -12 5t-5 12v99q0 16 11 27t28 11h19q8 0 13.5 5.5t5.5 13.5v97q0 16 11 27t28 11h19q18 0 18 19v20z" />
    <glyph glyph-name="underscore" unicode="_" horiz-adv-x="532" 
d="M480 -77q8 0 12.5 -5t4.5 -12v-22q0 -16 -11 -27t-27 -11h-407q-7 0 -12 4.5t-5 12.5v21q0 17 11.5 28t27.5 11h406z" />
    <glyph glyph-name="grave" unicode="`" horiz-adv-x="600" 
d="M330 694q16 0 27 -11t11 -27v-22q0 -7 -4.5 -12t-11.5 -5h-22q-16 0 -27.5 11t-11.5 28v20q0 8 -5 13t-13 5h-20q-16 0 -27 11t-11 27v22q0 7 4.5 12t11.5 5h22q16 0 27 -11t11 -28v-20q0 -8 5.5 -13t13.5 -5h20z" />
    <glyph glyph-name="a" unicode="a" 
d="M150 0q-16 0 -27 11t-11 27v20q0 19 -19 19h-20q-16 0 -27 11t-11 27v77q0 16 11 27.5t27 11.5h20q8 0 13.5 5t5.5 13v20q0 16 11 27t27 11h308q16 0 27 -11t11 -27v174q0 8 -5 13t-13 5h-348q-8 0 -13 -5t-5 -13v-20q0 -17 -11 -28t-28 -11h-21q-7 0 -12 5t-5 12v22
q0 16 11 27t27 11h20q8 0 13.5 5t5.5 13v20q0 17 11 28t27 11h308q16 0 27 -11t11 -28v-20q0 -8 5 -13t13 -5h20q17 0 28 -11t11 -27v-231q0 -16 -11 -27t-28 -11h-20q-8 0 -13 -5.5t-5 -13.5v-97q0 -16 -11 -27t-27 -11h-308zM402 77q17 0 17 17v21q0 16 11 27.5t28 11.5
h20q8 0 13 5t5 13v42q0 7 -4.5 12t-12.5 5h-349q-8 0 -13 -5.5t-5 -13.5v-117q0 -8 5 -13t13 -5h272z" />
    <glyph glyph-name="b" unicode="b" horiz-adv-x="623" 
d="M549 461q17 0 28 -11t11 -27v-308q0 -16 -11 -27t-28 -11h-20q-8 0 -13 -5.5t-5 -13.5v-20q0 -16 -11 -27t-27 -11h-308q-16 0 -27 11t-11 27v97q0 8 -5.5 13.5t-13.5 5.5h-20q-16 0 -27 11t-11 27v538q0 16 11 27t27 11h22q7 0 12 -4.5t5 -11.5v-329q0 16 11 27t27 11
h20q8 0 13.5 5t5.5 13v20q0 17 11 28t27 11h231q16 0 27 -11t11 -28v-20q0 -8 5 -13t13 -5h20zM493 77q8 0 13 5t5 13v348q0 8 -5 13t-13 5h-271q-8 0 -13 -5t-5 -13v-20q0 -17 -11.5 -28t-27.5 -11h-21q-17 0 -17 -17v-195q0 -8 5 -13t13 -5h20q16 0 27.5 -11.5t11.5 -27.5
v-21q0 -17 16 -17h273z" />
    <glyph glyph-name="c" unicode="c" 
d="M534 384q-16 0 -27 11t-11 28v20q0 8 -5 13t-13 5h-273q-16 0 -16 -17v-21q0 -17 -11.5 -28t-27.5 -11h-20q-8 0 -13 -5t-5 -13v-194q0 -8 5 -13t13 -5h20q16 0 27.5 -11.5t11.5 -27.5v-20q0 -8 5 -13t13 -5h271q8 0 13 5t5 13v20q0 16 11 27.5t27 11.5h22q7 0 12 -5
t5 -12v-22q0 -16 -11 -27t-28 -11h-20q-8 0 -13 -5.5t-5 -13.5v-20q0 -16 -11 -27t-27 -11h-231q-16 0 -27 11t-11 27v20q0 8 -5.5 13.5t-13.5 5.5h-20q-16 0 -27 11t-11 27v20q0 8 -5.5 13.5t-13.5 5.5h-20q-16 0 -27 11t-11 27v154q0 16 11 27t27 11h20q19 0 19 19v96
q0 17 11 28t27 11h308q16 0 27 -11t11 -28v-20q0 -8 5 -13t13 -5h20q17 0 28 -11t11 -27v-22q0 -7 -5 -12t-12 -5h-22z" />
    <glyph glyph-name="d" unicode="d" horiz-adv-x="623" 
d="M35 423q0 16 11 27t27 11h20q8 0 13.5 5t5.5 13v20q0 17 11 28t27 11h231q16 0 27 -11t11 -28v-20q0 -8 5 -13t13 -5h21q16 0 27 -11t11 -27v329q0 16 17 16h21q16 0 27.5 -11t11.5 -27v-538q0 -16 -11 -27t-28 -11h-20q-8 0 -13 -5.5t-5 -13.5v-97q0 -16 -11 -27
t-27 -11h-308q-16 0 -27 11t-11 27v20q0 8 -5.5 13.5t-13.5 5.5h-20q-16 0 -27 11t-11 27v308zM112 95q0 -8 5 -13t13 -5h272q17 0 17 17v21q0 16 11 27.5t28 11.5h20q8 0 13 5t5 13v195q0 8 -5 12.5t-12 4.5h-21q-17 0 -28 11t-11 28v20q0 8 -5 13t-13 5h-271q-8 0 -13 -5
t-5 -13v-348z" />
    <glyph glyph-name="e" unicode="e" 
d="M535 461q16 0 27 -11t11 -27v-77q0 -16 -11 -27.5t-27 -11.5h-20q-8 0 -13.5 -5t-5.5 -13v-20q0 -16 -11 -27t-27 -11h-308q-16 0 -27 11t-11 27v-97q0 -8 5 -13t13 -5h20q17 0 28 -11.5t11 -27.5v-20q0 -8 5 -13t13 -5h271q8 0 13 5t5 13v20q0 16 11 27.5t28 11.5h21
q7 0 12 -5t5 -12v-22q0 -16 -11 -27t-27 -11h-20q-19 0 -19 -19v-20q0 -16 -11 -27t-27 -11h-231q-16 0 -27 11t-11 27v20q0 8 -5.5 13.5t-13.5 5.5h-20q-16 0 -27 11t-11 27v20q0 8 -5.5 13.5t-13.5 5.5h-20q-16 0 -27 11t-11 27v154q0 16 11 27t27 11h20q19 0 19 19v96
q0 17 11 28t27 11h308q16 0 27 -11t11 -28v-20q0 -8 5.5 -13t13.5 -5h20zM478 307q8 0 13 5.5t5 13.5v117q0 8 -5 13t-13 5h-272q-17 0 -17 -17v-21q0 -17 -11 -28t-28 -11h-20q-8 0 -13 -5t-5 -13v-42q0 -7 4.5 -12t12.5 -5h349z" />
    <glyph glyph-name="f" unicode="f" horiz-adv-x="377" 
d="M304 692q16 0 27 -11t11 -28v-21q0 -17 -16 -17h-22q-16 0 -27 11t-11 27v20q0 8 -5.5 13.5t-13.5 5.5h-58v-154h137q7 0 11.5 -5t4.5 -12v-22q0 -16 -11 -27t-27 -11h-115v-423q0 -16 -11 -27t-28 -11h-21q-8 0 -12.5 5t-4.5 12v444h-60q-7 0 -12 5t-5 12v21q0 17 11 28
t28 11h38v192q0 16 11 27t27 11h78q16 0 27 -11t11 -27v-20q0 -8 5 -13t13 -5h20z" />
    <glyph glyph-name="g" unicode="g" 
d="M535 384q16 0 27 -11t11 -27v-384q0 -16 -11 -27.5t-27 -11.5h-20q-8 0 -13.5 -5t-5.5 -13v-20q0 -16 -11 -27.5t-27 -11.5h-20q-8 0 -13 -5t-5 -13v-20q0 -16 -11.5 -27t-27.5 -11h-230q-17 0 -28 11t-11 27v20q0 8 -5 13t-13 5h-20q-16 0 -27.5 11.5t-11.5 27.5v22
q0 7 5 11.5t12 4.5h22q16 0 27 -11t11 -27v-20q0 -8 5.5 -13.5t13.5 -5.5h270q8 0 13.5 5.5t5.5 13.5v20q0 16 11 27t27 11h20q8 0 13 5.5t5 13.5v173q0 -16 -11 -27t-27 -11h-20q-8 0 -13 -5t-5 -13v-20q0 -17 -11.5 -28t-27.5 -11h-230q-17 0 -28 11t-11 28v20q0 8 -5 13
t-13 5h-20q-16 0 -27.5 11t-11.5 27v308q0 16 11.5 27t27.5 11h20q8 0 13 5.5t5 13.5v20q0 16 11 27t28 11h307q16 0 27 -11t11 -27v-97q0 -8 5.5 -13.5t13.5 -5.5h20zM480 154q16 0 16 17v195q0 8 -5 13t-13 5h-20q-16 0 -27 11.5t-11 27.5v21q0 8 -5 12.5t-12 4.5h-272
q-8 0 -13.5 -5t-5.5 -13v-348q0 -8 5.5 -13t13.5 -5h270q8 0 13.5 5t5.5 13v20q0 17 11 28t27 11h22z" />
    <glyph glyph-name="h" unicode="h" horiz-adv-x="638" 
d="M549 461q16 0 27.5 -11t11.5 -27v-385q0 -16 -11.5 -27t-27.5 -11h-21q-8 0 -12.5 5t-4.5 12v425q0 19 -19 19h-270q-8 0 -13.5 -5.5t-5.5 -13.5v-19q0 -17 -11 -28t-27 -11h-22q-16 0 -16 -17v-329q0 -16 -11.5 -27t-27.5 -11h-22q-7 0 -11.5 5t-4.5 12v713q0 16 11 27
t27 11h22q7 0 12 -4.5t5 -11.5v-329q0 16 11 27t27 11h23q15 3 15 18v20q0 17 11.5 28t27.5 11h230q17 0 28 -11t11 -28v-20q0 -15 15 -18h23z" />
    <glyph glyph-name="i" unicode="i" horiz-adv-x="216" 
d="M130 692q16 0 16 -17v-21q0 -16 -11 -27.5t-27 -11.5h-22q-7 0 -11.5 5t-4.5 12v22q0 16 11 27t27 11h22zM70 499q0 17 11 28t27 11h22q7 0 11.5 -5t4.5 -12v-483q0 -16 -11 -27t-27 -11h-22q-7 0 -11.5 5t-4.5 12v482z" />
    <glyph glyph-name="j" unicode="j" horiz-adv-x="335" 
d="M248 692q8 0 12.5 -5t4.5 -12v-22q0 -16 -11 -27t-27 -11h-22q-7 0 -12 4.5t-5 12.5v21q0 17 11.5 28t27.5 11h21zM188 500q0 16 11.5 27t27.5 11h21q17 0 17 -17v-636q0 -16 -11 -27.5t-27 -11.5h-20q-8 0 -13.5 -5t-5.5 -13v-20q0 -16 -11 -27t-28 -11
q-16 0 -26.5 11.5t-10.5 27.5v19q0 8 -5.5 13t-13.5 5h-20q-16 0 -27 11.5t-11 27.5v22q0 16 16 16h22q16 0 27.5 -11t11.5 -27v-20q0 -8 5 -13.5t13 -5.5h40q8 0 13 5.5t5 13.5v635z" />
    <glyph glyph-name="k" unicode="k" horiz-adv-x="531" 
d="M496 499q0 -16 -11 -27t-27 -11h-20q-8 0 -13.5 -5t-5.5 -13v-20q0 -17 -11 -28t-27 -11h-20q-8 0 -13.5 -5t-5.5 -13v-20q0 -16 -11 -27.5t-27 -11.5h-20q-8 0 -13 -5t-5 -13v-117q0 -8 5 -13t13 -5h20q16 0 27 -11.5t11 -27.5v-20q0 -8 5.5 -13t13.5 -5h97q16 0 27 -11
t11 -28v-21q0 -7 -4.5 -12t-12.5 -5h-98q-16 0 -27.5 11t-11.5 27v20q0 8 -5 13.5t-13 5.5h-20q-16 0 -27 11t-11 27v20q0 8 -5.5 13.5t-13.5 5.5h-20q-16 0 -27 11t-11 27v22q0 7 -5 12t-12 5h-43q-8 0 -12.5 -5t-4.5 -12v-176q0 -16 -11 -27t-28 -11h-21q-8 0 -12.5 5
t-4.5 12v713q0 16 11 27t27 11h22q7 0 12 -4.5t5 -11.5v-483q0 16 11 27t27 11h97q8 0 13.5 5.5t5.5 13.5v20q0 16 11 27t27 11h20q8 0 13 5.5t5 13.5v20q0 16 11.5 27t27.5 11h20q8 0 13 5t5 13v20q0 17 11 28t28 11h21q8 0 12.5 -5t4.5 -12v-22z" />
    <glyph glyph-name="l" unicode="l" horiz-adv-x="217" 
d="M130 768q7 0 12 -4.5t5 -11.5v-714q0 -16 -11 -27t-28 -11h-21q-7 0 -12 5t-5 12v713q0 16 11 27t27 11h22z" />
    <glyph glyph-name="m" unicode="m" horiz-adv-x="945" 
d="M857 461q16 0 27 -11t11 -27v-385q0 -16 -11 -27t-27 -11h-22q-7 0 -11.5 5t-4.5 12v426q0 8 -5.5 13t-13.5 5h-194q-8 0 -13 -5t-5 -13v-20q0 -17 -11 -28t-27 -11h-22q-7 0 -12 -4.5t-5 -12.5v-329q0 -16 -11 -27t-27 -11h-22q-7 0 -12 5t-5 12v426q0 8 -5 13t-13 5
h-194q-8 0 -13 -5t-5 -13v-20q0 -17 -11 -28t-28 -11h-21q-7 0 -12 -4.5t-5 -12.5v-329q0 -16 -11 -27t-27 -11h-22q-7 0 -12 5t-5 12v482q0 17 11 28t28 11h21q8 0 12.5 -5t4.5 -12v-98q0 16 11 27t27 11h20q8 0 13.5 5t5.5 13v20q0 17 11 28t27 11h154q16 0 27 -11t11 -28
v-20q0 -8 5.5 -13t13.5 -5h20q16 0 27 -11t11 -27q0 16 11 27t28 11h20q8 0 13 5t5 13v20q0 17 11 28t28 11h153q16 0 27.5 -11t11.5 -28v-20q0 -8 5 -13t13 -5h20z" />
    <glyph glyph-name="n" unicode="n" horiz-adv-x="638" 
d="M549 461q16 0 27.5 -11t11.5 -27v-385q0 -16 -11.5 -27t-27.5 -11h-21q-8 0 -12.5 5t-4.5 12v426q0 8 -5.5 13t-13.5 5h-270q-8 0 -13.5 -5t-5.5 -13v-20q0 -17 -11 -28t-27 -11h-22q-16 0 -16 -17v-329q0 -16 -11.5 -27t-27.5 -11h-21q-8 0 -12.5 5t-4.5 12v482
q0 17 11 28t27 11h22q7 0 12 -5t5 -12v-98q0 16 11 27t27 11h20q8 0 13 5t5 13v20q0 17 11.5 28t27.5 11h230q17 0 28 -11t11 -28v-20q0 -8 5 -13t13 -5h20z" />
    <glyph glyph-name="o" unicode="o" horiz-adv-x="685" 
d="M611 384q17 0 28 -11t11 -27v-154q0 -16 -11 -27t-28 -11h-20q-8 0 -13 -5.5t-5 -13.5v-97q0 -16 -11 -27t-28 -11h-307q-16 0 -27 11t-11 27v20q0 8 -5.5 13.5t-13.5 5.5h-20q-16 0 -27 11t-11 27v20q0 8 -5.5 13.5t-13.5 5.5h-20q-16 0 -27 11t-11 27v154q0 16 11 27
t27 11h20q19 0 19 19v96q0 17 11 28t27 11h308q16 0 27 -11t11 -28v-20q0 -8 5 -13t13 -5h20q17 0 28 -11t11 -27v-20q0 -8 5 -13.5t13 -5.5h20zM554 154q8 0 13.5 5t5.5 13v194q0 8 -5.5 13t-13.5 5h-20q-16 0 -27 11t-11 28v20q0 8 -5 13t-13 5h-289v-38q0 -17 -11.5 -28
t-27.5 -11h-20q-8 0 -13 -5t-5 -13v-194q0 -8 5 -13t13 -5h20q16 0 27.5 -11.5t11.5 -27.5v-20q0 -8 5 -13t13 -5h289v38q0 16 11 27.5t27 11.5h20z" />
    <glyph glyph-name="p" unicode="p" horiz-adv-x="623" 
d="M588 115q0 -16 -11 -27t-27 -11h-20q-19 0 -19 -19v-20q0 -16 -11 -27t-27 -11h-231q-16 0 -27 11t-11 27v20q0 8 -5.5 13.5t-13.5 5.5h-20q-16 0 -27 11t-11 27v-329q0 -7 -5 -12t-12 -5h-22q-16 0 -27 11t-11 28v538q0 16 11 27t27 11h20q19 0 19 19v96q0 17 11 28
t27 11h308q16 0 27 -11t11 -28v-20q0 -8 5.5 -13t13.5 -5h20q16 0 27 -11t11 -27v-308zM511 443q0 8 -5 13t-13 5h-273q-16 0 -16 -17v-21q0 -17 -11 -28t-28 -11h-20q-8 0 -13 -5t-5 -13v-196q0 -16 17 -16h21q17 0 28 -11.5t11 -27.5v-20q0 -8 5 -13t13 -5h271q8 0 13 5
t5 13v348z" />
    <glyph glyph-name="q" unicode="q" horiz-adv-x="623" 
d="M74 77q-16 0 -27.5 11t-11.5 27v308q0 16 11.5 27t27.5 11h20q8 0 13 5t5 13v20q0 17 11 28t28 11h307q16 0 27 -11t11 -28v-96q0 -8 5.5 -13.5t13.5 -5.5h20q16 0 27 -11t11 -27v-538q0 -17 -11 -28t-27 -11h-22q-7 0 -12 5t-5 12v329q0 -16 -11 -27t-27 -11h-20
q-8 0 -13 -5.5t-5 -13.5v-20q0 -16 -11.5 -27t-27.5 -11h-230q-17 0 -28 11t-11 27v20q0 8 -5 13.5t-13 5.5h-20zM131 461q-8 0 -13.5 -5t-5.5 -13v-348q0 -8 5.5 -13t13.5 -5h270q8 0 13.5 5t5.5 13v20q0 16 11 27.5t27 11.5h22q16 0 16 16v196q0 8 -5 13t-13 5h-20
q-16 0 -27 11t-11 28v21q0 7 -5 12t-12 5h-272z" />
    <glyph glyph-name="r" unicode="r" horiz-adv-x="392" 
d="M341 538q7 0 11.5 -5t4.5 -12v-22q0 -16 -11 -27t-27 -11h-97q-8 0 -13 -5t-5 -13v-20q0 -17 -11 -28t-28 -11h-21q-17 0 -17 -17v-329q0 -16 -11 -27t-27 -11h-22q-7 0 -12 5t-5 12v482q0 17 11 28t28 11h21q7 0 12 -5t5 -12v-98q0 16 11 27t27 11h20q8 0 13.5 5t5.5 13
v20q0 17 11 28t27 11h99z" />
    <glyph glyph-name="s" unicode="s" 
d="M534 384q-16 0 -27 11t-11 28v20q0 8 -5 13t-13 5h-289v-38q0 -17 -11.5 -28t-27.5 -11h-20q-8 0 -13 -5t-5 -13v-42q0 -7 4.5 -12t11.5 -5h329q17 0 28 -11t11 -27v-20q0 -8 5 -13t13 -5h20q17 0 28 -11.5t11 -27.5v-77q0 -16 -11 -27t-28 -11h-20q-8 0 -13 -5.5
t-5 -13.5v-20q0 -16 -11 -27t-28 -11h-307q-16 0 -27 11t-11 27v26q-2 5 -7 9t-11 4h-21q-16 0 -27 11t-11 27v22q0 7 4.5 12t12.5 5h21q16 0 27.5 -11.5t11.5 -27.5v-21l1 1q0 -8 5 -13t13 -5h347q8 0 13 5t5 13v117q0 8 -5 13.5t-13 5.5h-405q-16 0 -27 11t-11 27v77
q0 16 11 27t27 11h20q8 0 13.5 5.5t5.5 13.5v96q0 17 11 28t27 11h307q17 0 28 -11t11 -28v-20q0 -8 5 -13t13 -5h20q17 0 28 -11t11 -27v-22q0 -7 -5 -12t-12 -5h-22z" />
    <glyph glyph-name="t" unicode="t" horiz-adv-x="377" 
d="M325 538q7 0 12 -5t5 -12v-22q0 -16 -11 -27t-27 -11h-116v-367q0 -8 5 -12.5t12 -4.5h42q8 0 13 5t5 13v20q0 16 11 27.5t28 11.5h21q7 0 12 -5t5 -12v-22q0 -16 -11 -27t-27 -11h-20q-19 0 -19 -19v-20q0 -16 -11 -27t-27 -11h-77q-16 0 -27.5 11t-11.5 27v423h-60
q-7 0 -11.5 5t-4.5 12v21q0 17 11 28t27 11h38v192q0 16 11.5 27t27.5 11h22q16 0 16 -16v-214h137z" />
    <glyph glyph-name="u" unicode="u" horiz-adv-x="638" 
d="M511 499q0 17 11 28t27 11h22q7 0 12 -5t5 -12v-483q0 -16 -11.5 -27t-27.5 -11h-21q-8 0 -12.5 5t-4.5 12v98q0 -16 -11 -27t-28 -11h-20q-8 0 -13 -5.5t-5 -13.5v-20q0 -16 -11 -27t-27 -11h-231q-16 0 -27 11t-11 27v20q0 8 -5.5 13.5t-13.5 5.5h-20q-16 0 -27 11
t-11 27v384q0 17 11 28t27 11h22q7 0 12 -5t5 -12v-426q0 -8 5 -13t13 -5h271q8 0 13 5t5 13v20q0 16 11 27.5t27 11.5h22q7 0 12 4.5t5 11.5v329z" />
    <glyph glyph-name="v" unicode="v" horiz-adv-x="607" 
d="M496 499q0 17 11 28t27 11h22q7 0 11.5 -5t4.5 -12v-175q0 -16 -11 -27.5t-27 -11.5h-22q-16 0 -16 -16v-99q-1 -16 -12 -27t-27 -11h-21q-8 0 -12.5 -5t-4.5 -12v-22q0 -16 -11.5 -27t-27.5 -11h-20q-8 0 -13 -5.5t-5 -13.5v-20q0 -16 -11 -27t-27 -11q-17 0 -28 11
t-11 27v21q0 8 -5 13t-13 5h-20q-16 0 -27.5 11t-11.5 27v22q0 7 -4.5 12t-12.5 5h-21q-17 0 -28 11t-11 27v99q0 16 -16 16h-22q-16 0 -27 11.5t-11 27.5v153q0 17 11 28t27 11h22q7 0 11.5 -5t4.5 -12v-120q0 -7 5 -12t12 -5h22q16 0 27 -11t11 -27v-99q0 -7 5 -11.5
t12 -4.5h22q16 0 27 -11.5t11 -27.5v-97q0 -8 5.5 -13t13.5 -5h40q8 0 13 5t5 13v97q0 16 11 27.5t27 11.5h22q7 0 12 4.5t5 11.5v99q0 16 11 27t27 11h22q7 0 12 5t5 12v98z" />
    <glyph glyph-name="w" unicode="w" horiz-adv-x="915" 
d="M803 499q0 17 11 28t28 11h21q7 0 12 -5t5 -12v-252q0 -16 -11 -27t-27 -11h-22q-7 0 -12 -5t-5 -12v-99q0 -16 -11 -27t-27 -11h-20q-8 0 -13.5 -5.5t-5.5 -13.5v-20q0 -16 -11 -27t-28 -11q-16 0 -27 12t-11 28v18q0 8 -5 13.5t-13 5.5h-20q-16 0 -27 11t-11 27v99
q0 7 -5 12t-12 5h-22q-16 0 -27 11t-11 27v174q0 8 -5.5 13t-13.5 5h-40q-8 0 -13 -5t-5 -13v-174q0 -16 -11 -27t-28 -11h-21q-7 0 -12 -5t-5 -12v-99q0 -16 -11 -27t-27 -11h-20q-19 0 -19 -19v-20q0 -16 -11 -27t-28 -11q-16 0 -27 12t-11 28v18q0 8 -5 13.5t-13 5.5h-20
q-16 0 -27 11t-11 27v99q0 7 -5 12t-12 5h-22q-16 0 -27 11t-11 27v230q0 17 11 28t27 11h22q7 0 12 -5t5 -12v-197q0 -7 4.5 -12t11.5 -5h22q16 0 27 -11t11 -27v-174q0 -8 5.5 -13t13.5 -5h40q8 0 13 5t5 13v174q0 16 11 27t28 11h21q8 0 12.5 5t4.5 12v99q0 16 11 27
t27 11h20q8 0 13.5 5t5.5 13v20q0 17 11 28t28 11q16 0 27 -12t11 -28v-19q0 -8 5 -13t13 -5h20q16 0 27.5 -11t11.5 -27v-99q0 -7 4.5 -12t11.5 -5h22q16 0 27 -11t11 -27v-174q0 -8 5.5 -13t13.5 -5h40q8 0 13 5t5 13v174q0 16 11 27t28 11h21q8 0 12.5 5t4.5 12v175z" />
    <glyph glyph-name="x" unicode="x" 
d="M497 499q0 17 11 28t27 11h22q7 0 11.5 -5t4.5 -12v-175q0 -16 -11 -27.5t-27 -11.5h-174q-8 0 -13 -5t-5 -13v-40q0 -8 5 -13t13 -5h174q16 0 27 -11.5t11 -27.5v-154q0 -16 -11 -27t-27 -11h-22q-7 0 -11.5 5t-4.5 12v120q0 7 -5 12t-12 5h-99q-16 0 -27 11t-11 27v20
q0 8 -5.5 13.5t-13.5 5.5h-40q-8 0 -13 -5.5t-5 -13.5v-20q0 -16 -11 -27t-27 -11h-99q-7 0 -12 -5t-5 -12v-99q0 -16 -11 -27t-27 -11h-22q-7 0 -12 5t-5 12v175q0 16 11.5 27.5t27.5 11.5h174q8 0 13 5t5 13v40q0 8 -5 13t-13 5h-174q-16 0 -27.5 11.5t-11.5 27.5v153
q0 17 11.5 28t27.5 11h22q7 0 11.5 -5t4.5 -12v-120q0 -7 5 -12t12 -5h99q16 0 27 -11t11 -27v-20q0 -8 5 -13.5t13 -5.5h40q8 0 13.5 5.5t5.5 13.5v20q0 16 11 27t27 11h99q7 0 12 5t5 12v98z" />
    <glyph glyph-name="y" unicode="y" 
d="M556 538q7 0 12 -4.5t5 -12.5v-175q0 -16 -11.5 -27t-27.5 -11h-22q-7 0 -11.5 -5t-4.5 -12v-99q0 -16 -11.5 -27t-27.5 -11h-21q-17 0 -17 -17v-99q0 -16 -11 -27t-28 -11h-96q-8 0 -13.5 -5t-5.5 -13v-97q0 -16 -11 -27t-27 -11h-20q-8 0 -13.5 -5.5t-5.5 -13.5v-20
q0 -16 -11 -27t-27 -11h-99q-16 0 -16 17v21q0 16 11 27.5t27 11.5h97q8 0 13 5t5 13v97q0 16 11.5 27t27.5 11h20q8 0 13 5.5t5 13.5v40q0 8 -5 13t-13 5h-20q-16 0 -27 11t-12 27v22q0 17 -16 17h-22q-16 0 -27.5 11t-11.5 27v99q0 7 -4.5 12t-11.5 5h-22q-16 0 -27 11
t-11 27v154q0 16 11 27t27 11h22q16 0 16 -17v-120q0 -7 5 -11.5t12 -4.5h22q16 0 27 -11.5t11 -27.5v-98q0 -8 5 -12.5t12 -4.5h22q16 0 27 -11t11 -28v-96q0 -19 19 -19h41q8 0 12.5 5t4.5 12v98q0 17 11 28t27 11h22q7 0 12 4.5t5 12.5v98q0 16 11 27.5t27 11.5h22
q7 0 12 4.5t5 11.5v99q0 16 11 27t27 11h22z" />
    <glyph glyph-name="z" unicode="z" 
d="M534 538q17 0 28 -11t11 -28v-76q0 -17 -11 -28t-28 -11h-23q-15 -2 -15 -18v-20q0 -16 -11 -27.5t-28 -11.5h-100q-6 -1 -10.5 -6t-4.5 -12v-20q0 -16 -11 -27t-27 -11h-97q-8 0 -13 -5.5t-6 -13.5v-20q0 -16 -11 -27t-27 -11h-22q-7 0 -11.5 -5t-4.5 -12v-42
q0 -8 5 -13t13 -5h426q7 0 12 -5t5 -12v-22q0 -16 -11.5 -27t-27.5 -11h-384q-16 0 -27 11t-11 27v20q0 8 -5.5 13.5t-13.5 5.5h-20q-16 0 -27 11t-11 27v77q0 16 11 27.5t27 11.5h97q8 0 13 5t5 13v20q0 16 11.5 27t27.5 11h97v1q8 0 13 5t5 13v20q0 16 11 27t28 11h97
l-1 1q8 0 13.5 5t5.5 13v41q0 8 -5 12.5t-12 4.5h-427q-8 0 -12.5 5t-4.5 12v21q0 17 11 28t27 11h461z" />
    <glyph glyph-name="braceleft" unicode="{" horiz-adv-x="347" 
d="M107 326q0 -8 5 -13t13 -5h20q16 0 27.5 -11.5t11.5 -27.5v-327q0 -8 5 -13.5t13 -5.5h97q16 0 27 -11t11 -27v-21q0 -8 -5 -13t-12 -5h-98q-16 0 -27 11t-11 28v19q0 8 -5.5 13.5t-13.5 5.5h-20q-16 0 -27 11t-11 28v327q0 8 -5.5 13.5t-13.5 5.5h-20q-16 0 -27 10.5
t-11 26.5q-1 17 10.5 28.5t28.5 11.5h19q8 0 13.5 5t5.5 13v328q0 16 11 27t27 11h20q8 0 13.5 5.5t5.5 13.5v20q0 16 11 27t27 11h98q7 0 12 -5t5 -13v-20q0 -17 -11 -28t-27 -11h-97q-8 0 -13 -5.5t-5 -13.5v-327q0 -16 -11.5 -27t-27.5 -11h-20q-8 0 -13 -5.5t-5 -13.5
v-40z" />
    <glyph glyph-name="bar" unicode="|" horiz-adv-x="132" 
d="M80 846q17 0 17 -16v-868q0 -16 -11 -27.5t-27 -11.5h-22q-7 0 -12 5t-5 12v868q1 16 12 27t27 11h21z" />
    <glyph glyph-name="braceright" unicode="}" horiz-adv-x="348" 
d="M241 366q0 8 -5.5 13t-13.5 5h-19q-17 0 -28 11.5t-11 27.5v327q0 19 -19 19h-96q-16 0 -27.5 11t-11.5 28v20q0 8 5 13t13 5h98q16 0 27 -11t11 -27v-20q0 -8 5.5 -13.5t13.5 -5.5h20q16 0 27 -11t11 -27v-328q0 -8 5.5 -13.5t13.5 -5.5h20q16 0 27 -10.5t11 -26.5
q0 -17 -11.5 -28t-27.5 -11h-19q-8 0 -13.5 -5.5t-5.5 -13.5v-328q0 -16 -11 -27t-27 -11h-20q-8 0 -13.5 -5.5t-5.5 -13.5v-20q0 -16 -11 -27t-27 -11h-98q-8 0 -13 5t-5 13v20q0 17 11.5 28t27.5 11h96q19 0 19 19v327q0 16 11 27.5t28 11.5h19q8 0 13.5 5t5.5 13v40z" />
    <glyph glyph-name="exclamdown" unicode="&#xa1;" horiz-adv-x="152" 
d="M117 502q0 -17 -11 -28t-28 -11h-21q-8 0 -12.5 5t-4.5 12v22q0 16 11 27t27 11h22q7 0 12 -4.5t5 -12.5v-21zM57 -229q-8 0 -12.5 5t-4.5 12v560q0 16 11 27t27 11h22q7 0 12 -4.5t5 -11.5v-561q0 -16 -11.5 -27t-27.5 -11h-21z" />
    <glyph glyph-name="cent" unicode="&#xa2;" 
d="M534 384q-16 0 -27 11t-11 28v20q0 8 -5 13t-13 5h-136v-384h136q8 0 13 5t5 13v20q0 16 11 27.5t27 11.5h22q7 0 12 -5t5 -12v-22q0 -16 -11 -27t-28 -11h-20q-8 0 -13 -5.5t-5 -13.5v-20q0 -16 -11 -27t-27 -11h-116v-38q0 -17 -11 -28t-27 -11h-22q-7 0 -12 5t-5 12
v60h-38q-16 0 -27 11t-11 27v20q0 8 -5.5 13.5t-13.5 5.5h-20q-16 0 -27 11t-11 27v20q0 8 -5.5 13.5t-13.5 5.5h-20q-16 0 -27 11t-11 27v154q0 16 11 27t27 11h20q19 0 19 19v96q0 17 11 28t27 11h115v39q1 16 12 27t27 11h22q16 0 16 -17v-60h116q16 0 27 -11t11 -28v-20
q0 -8 5 -13t13 -5h20q17 0 28 -11t11 -27v-22q0 -7 -5 -12t-12 -5h-22zM265 461h-60q-16 0 -16 -17v-21q0 -17 -11.5 -28t-27.5 -11h-20q-8 0 -13 -5t-5 -13v-194q0 -8 5 -13t13 -5h20q16 0 27.5 -11.5t11.5 -27.5v-20q0 -8 5 -13t13 -5h58v384z" />
    <glyph glyph-name="sterling" unicode="&#xa3;" horiz-adv-x="618" 
d="M540 692q16 0 27 -11t11 -27v-99q0 -7 -4.5 -12t-11.5 -5h-22q-16 0 -27.5 11.5t-11.5 27.5v97q0 8 -5 13t-13 5h-272q-17 0 -17 -17v-21q0 -17 -11 -28t-28 -11h-20q-8 0 -13 -5t-5 -13v-117q0 -8 5 -13.5t13 -5.5h20q17 0 28 -11t11 -27v-22q0 -7 4.5 -12t12.5 -5h197
q7 0 12 -4.5t5 -11.5v-22q0 -16 -11.5 -27t-27.5 -11h-175q-8 0 -12.5 -5t-4.5 -12v-137h115q16 0 27.5 -11t11.5 -28v-20q0 -8 5 -13t13 -5h117q8 0 13 5t5 13v20q0 17 11.5 28t27.5 11h22q7 0 11.5 -5t4.5 -12v-22q0 -16 -11 -27t-27 -11h-20q-8 0 -13.5 -5.5t-5.5 -13.5
v-20q0 -16 -11 -27t-27 -11h-77q-16 0 -27 11t-11 27v20q0 8 -5.5 13.5t-13.5 5.5h-194q-8 0 -13 -5.5t-5 -13.5v-20q0 -16 -11 -27t-27 -11h-22q-7 0 -12 5t-5 12v21q0 17 11 28t28 11h20q8 0 13 5t5 13v196q0 7 -5 12t-12 5h-43q-7 0 -12 4.5t-5 11.5v22q0 16 11 27t28 11
h21q7 0 12 5t5 12v42q0 8 -5 13t-13 5h-20q-17 0 -28 11.5t-11 27.5v77q0 16 11 27t28 11h20q8 0 13 5.5t5 13.5v97q0 16 11 27t27 11h308q16 0 27 -11t11 -27v-21q0 -8 5.5 -13t13.5 -5h20z" />
    <glyph glyph-name="currency" unicode="&#xa4;" horiz-adv-x="532" 
d="M420 501q0 17 11.5 28t27.5 11h22q7 0 11.5 -5t4.5 -12v-22q0 -16 -11 -27t-27 -11h-20q-8 0 -13.5 -5.5t-5.5 -13.5v-39q0 -8 5.5 -13.5t13.5 -5.5h20q16 0 27 -11t11 -28v-77q0 -16 -11 -27t-27 -11h-20q-8 0 -13.5 -5.5t-5.5 -13.5v-39q0 -8 5.5 -13.5t13.5 -5.5h20
q16 0 27 -11t11 -28v-21q0 -17 -16 -17h-22q-16 0 -27.5 11t-11.5 27v20q0 19 -19 19h-39q-16 0 -19 -15v-24q0 -16 -11 -27t-27 -11h-77q-16 0 -27.5 11t-11.5 27v20q0 8 -5 13.5t-13 5.5h-40q-8 0 -13.5 -5.5t-5.5 -13.5v-20q0 -16 -11 -27t-27 -11h-22q-7 0 -12 4.5
t-5 12.5v21q0 17 11.5 28t27.5 11h20q8 0 13 5.5t5 13.5v39q0 8 -5 13.5t-13 5.5h-20q-16 0 -27.5 11t-11.5 27v77q0 17 11.5 28t27.5 11h20q8 0 13 5.5t5 13.5v39q0 8 -5 13.5t-13 5.5h-20q-16 0 -27.5 11t-11.5 27v22q0 7 5 12t12 5h22q16 0 27 -11t11 -28v-20
q0 -16 16 -18h43q8 0 13 5.5t5 13.5v19q0 17 11.5 28t27.5 11h77q16 0 27 -11t11 -28v-20q0 -16 16 -18h42q19 0 19 19v19zM420 367q0 8 -5.5 13.5t-13.5 5.5h-19q-16 0 -27.5 11t-11.5 27v20q0 8 -5 13.5t-13 5.5h-117q-8 0 -13.5 -5.5t-5.5 -13.5v-20q0 -16 -11 -27
t-27 -11h-20q-8 0 -13.5 -5.5t-5.5 -13.5v-116q0 -8 5.5 -13.5t13.5 -5.5h20q16 0 27 -11t11 -28v-19q0 -8 5.5 -13.5t13.5 -5.5h116q19 0 19 19v19q0 17 11.5 28t27.5 11h19q19 0 19 19v116z" />
    <glyph glyph-name="yen" unicode="&#xa5;" horiz-adv-x="618" 
d="M562 770q7 0 11.5 -5t4.5 -12v-176q0 -16 -11 -27t-27 -11h-22q-7 0 -12 -5t-5 -12v-99q0 -16 -11 -27t-27 -11h-97q-8 0 -13.5 -5.5t-5.5 -13.5v-58h99q7 0 12 -5t5 -12v-22q0 -16 -11 -27t-28 -11h-77v-77h99q7 0 12 -5t5 -12v-22q0 -16 -11 -27t-28 -11h-77v-39
q0 -16 -11 -27t-27 -11h-22q-7 0 -12 5t-5 12v60h-98q-7 0 -12 4.5t-5 12.5v21q0 17 11 28t27 11h77v77h-98q-7 0 -12 4.5t-5 12.5v21q0 17 11 28t27 11h77v59q0 8 -5 13t-13 5h-97q-16 0 -27 11t-11 27v99q0 7 -5 12t-12 5h-22q-16 0 -27 11t-11 27v155q0 16 11 27t27 11
h22q7 0 12 -5t5 -12v-120q0 -17 16 -17h22q16 0 27 -11t11 -27v-99q0 -8 5 -12.5t12 -4.5h22q16 0 27 -11t11 -28v-20q0 -8 5.5 -13t13.5 -5h40q8 0 13 5t5 13v20q0 17 11.5 28t27.5 11h22q16 0 16 17v99q1 16 12 27t27 11h22q16 0 16 17v99q1 16 12 27t27 11h22z" />
    <glyph glyph-name="section" unicode="&#xa7;" horiz-adv-x="619" 
d="M540 616q-16 0 -27 11t-11 28v19q0 8 -5.5 13.5t-13.5 5.5h-270q-19 0 -19 -19v-116q0 -8 5.5 -13.5t13.5 -5.5h96q17 0 28 -11t11 -27v-20q0 -15 16 -19h22q17 0 28 -11t11 -27v-20q0 -8 5.5 -13.5t13.5 -5.5h19q17 0 28 -11t11 -27v-20q0 -8 5.5 -13.5t13.5 -5.5h19
q17 0 28 -11t11 -27v-154q0 -17 -11 -28t-28 -11h-96q-19 0 -19 -19v-39q0 -8 5.5 -13.5t13.5 -5.5h19q17 0 28 -11t11 -27v-77q0 -17 -11 -28t-28 -11h-19q-19 0 -19 -19v-19q0 -17 -11 -28t-28 -11h-231q-16 0 -27 11t-11 28v19q0 8 -5.5 13.5t-13.5 5.5h-20q-16 0 -27 11
t-11 28v20q0 8 5 13t13 5h20q17 0 28 -11t11 -27v-20q0 -8 5.5 -13.5t13.5 -5.5h270q8 0 13.5 5.5t5.5 13.5v116q0 8 -5.5 13.5t-13.5 5.5h-97q-16 0 -27 11t-11 28v19q0 8 -5.5 13.5t-13.5 5.5h-20q-16 0 -27 11t-11 28v19q0 8 -5.5 13.5t-13.5 5.5h-20q-16 0 -27 11
t-11 28v19q0 19 -19 19h-20q-16 0 -27 11t-11 28v154q0 16 11 27t27 11h97q8 0 13.5 5.5t5.5 13.5v39q0 8 -5.5 13.5t-13.5 5.5h-20q-16 0 -27 11t-11 28v77q0 16 11 27t27 11h20q8 0 13.5 5.5t5.5 13.5v20q0 16 11 27t27 11h231q17 0 28 -11t11 -27v-20q0 -8 5.5 -13.5
t13.5 -5.5h19q17 0 28 -11t11 -27v-21q0 -8 -5 -13t-13 -5h-21zM348 443q0 19 -19 19h-116q-19 0 -19 -19v-19q0 -17 -11 -28t-28 -11h-20q-8 0 -13 -5t-5 -13v-117q0 -15 16 -19h22q17 0 28 -11t11 -27v-20q0 -8 5.5 -13.5t13.5 -5.5h19q17 0 28 -11t11 -27v-20
q0 -8 5.5 -13.5t13.5 -5.5h116q8 0 13.5 5.5t5.5 13.5v20q0 16 11 27t27 11h21q8 0 13 5t5 13v117q0 8 -5.5 13.5t-13.5 5.5h-20q-16 0 -27 11t-11 28v19q0 8 -5.5 13.5t-13.5 5.5h-20q-16 0 -27 11t-11 28v19z" />
    <glyph glyph-name="dieresis" unicode="&#xa8;" horiz-adv-x="600" 
d="M197 655q0 16 11 27t27 11h22q7 0 12 -5t5 -12v-21q0 -17 -11.5 -28t-27.5 -11h-21q-8 0 -12.5 5t-4.5 12v22zM351 655q0 16 11 27t27 11h22q7 0 11.5 -5t4.5 -12v-21q0 -17 -11 -28t-27 -11h-22q-7 0 -11.5 5t-4.5 12v22z" />
    <glyph glyph-name="copyright" unicode="&#xa9;" horiz-adv-x="849" 
d="M770 538q17 0 28 -11t11 -27v-385q0 -16 -11 -27t-28 -11h-19q-8 0 -13.5 -5.5t-5.5 -13.5v-97q0 -16 -11 -27t-28 -11h-461q-16 0 -27.5 11t-11.5 27v20q0 8 -5 13.5t-13 5.5h-20q-16 0 -27 11t-11 27v20q0 8 -5.5 13.5t-13.5 5.5h-20q-16 0 -27 11t-11 27v385
q0 16 11 27t27 11h20q8 0 13.5 5.5t5.5 13.5v97q0 16 11 27t27 11h462q16 0 27 -11t11 -27v-20q0 -8 5.5 -13.5t13.5 -5.5h19q17 0 28 -11t11 -27v-20q0 -8 5.5 -13.5t13.5 -5.5h19zM713 77q8 0 13.5 5.5t5.5 13.5v424q0 8 -5.5 13t-13.5 5h-20q-16 0 -27 11.5t-11 27.5v19
q0 19 -19 19h-425q-8 0 -13 -5t-5 -12v-21q0 -16 -11 -27.5t-27 -11.5h-20q-8 0 -13 -5t-5 -13v-424q0 -8 5 -13.5t13 -5.5h20q16 0 27 -11t11 -28v-19q0 -8 5.5 -13.5t13.5 -5.5h425q8 0 13 5t5 13v20q0 17 11 28t27 11h20zM617 461q16 0 27 -11t11 -27v-21q0 -7 -5 -12
t-13 -5h-20q-17 0 -28 11t-11 27v20q0 8 -5.5 13t-13.5 5h-194q-8 0 -13 -4.5t-5 -12.5v-21q0 -16 -11 -27t-27 -11h-20q-8 0 -13.5 -5.5t-5.5 -13.5v-193q0 -8 5.5 -13.5t13.5 -5.5h270q19 0 19 19v19q0 16 11 27.5t28 11.5h20q8 0 13 -5t5 -13v-21q0 -16 -11 -27t-27 -11
h-20q-8 0 -13.5 -5.5t-5.5 -13.5v-20q0 -16 -11 -27t-27 -11h-231q-16 0 -27.5 11t-11.5 27v20q0 8 -5 13.5t-13 5.5h-20q-16 0 -27.5 11t-11.5 27v154q0 16 11.5 27.5t27.5 11.5h20q8 0 13 5t5 13v97q0 16 11.5 27t27.5 11h231q16 0 27 -11t11 -27v-20q0 -8 5.5 -13.5
t13.5 -5.5h20z" />
    <glyph glyph-name="ordfeminine" unicode="&#xaa;" horiz-adv-x="383" 
d="M305 694q16 0 27 -11t11 -28v-231q0 -16 -11 -27t-27 -11h-154q-17 0 -28 11t-11 27v20q0 17 -16 19h-22q-16 0 -27.5 11t-11.5 27t11.5 27.5t27.5 11.5h19q19 0 19 19v19q0 17 11 28t28 11h77q16 0 27 -11t11 -28v97q0 17 -16 19h-122q-16 -2 -16 -19v-20q0 -16 -11 -27
t-27 -11h-22q-7 0 -12 5t-5 12v21q0 17 11 28t28 11h19q8 0 13.5 5.5t5.5 13.5v19q0 17 11 28t28 11h77q16 0 27 -11t11 -28v-19q0 -8 5.5 -13.5t13.5 -5.5h20zM266 523q0 7 -4.5 12t-12.5 5h-118q-19 0 -19 -19v-39q0 -8 5.5 -13.5t13.5 -5.5h118q17 0 17 17v43z" />
    <glyph glyph-name="guillemotleft" unicode="&#xab;" horiz-adv-x="594" 
d="M-45 231q-16 0 -27.5 11t-11.5 27t11 27.5t27 11.5h20q8 0 13.5 5.5t5.5 13.5v19q0 17 11 28t27 11h20q8 0 13 5.5t5 13.5v20q0 16 11 27t27 11l20 1q8 0 13.5 5t5.5 13v20q0 16 11 27.5t27 11.5h22q7 0 12 -5t5 -12v-21q0 -17 -11 -28t-28 -11h-19q-8 0 -13.5 -5.5
t-5.5 -13.5v-20q0 -16 -11 -27t-27 -12h-20q-8 0 -13.5 -5.5t-4.5 -13.5v-19q0 -16 -11 -27.5t-28 -11.5h-19q-8 0 -13.5 -5.5t-5.5 -13.5v-39q0 -8 5.5 -13.5t13.5 -5.5h20q16 0 27 -11t11 -27l1 -20q0 -8 5 -13.5t13 -5.5l20 1q16 0 27.5 -11t11.5 -28v-19q0 -19 19 -19
h20q16 0 27 -11t11 -27v-22q0 -7 -4.5 -12t-11.5 -5h-22q-16 0 -27.5 11t-11.5 27v20q0 8 -5.5 13.5t-13.5 5.5h-19q-17 -1 -28 10.5t-11 27.5v20q0 8 -5.5 13t-13.5 5h-20q-16 0 -27 11t-12 27v20q0 8 -5.5 13.5t-13.5 5.5h-19zM185 231q-16 0 -27.5 11t-11.5 27t11 27.5
t27 11.5h20q8 0 13.5 5.5t5.5 13.5v19q0 17 11 28t27 11h20q8 0 13 5.5t5 13.5v20q0 16 11 27t27 11l20 1q8 0 13.5 5t5.5 13v20q0 16 11 27.5t27 11.5h22q7 0 12 -5t5 -12v-21q0 -17 -11 -28t-28 -11h-19q-8 0 -13.5 -5.5t-5.5 -13.5v-20q0 -16 -11 -27t-27 -12h-20
q-8 0 -13.5 -5.5t-4.5 -13.5v-19q0 -16 -11 -27.5t-28 -11.5h-19q-8 0 -13.5 -5.5t-5.5 -13.5v-39q0 -8 5.5 -13.5t13.5 -5.5h20q16 0 27 -11t11 -27l1 -20q0 -8 5 -13.5t13 -5.5l20 1q16 0 27.5 -11t11.5 -28v-19q0 -19 19 -19h20q16 0 27 -11t11 -27v-22q0 -7 -4.5 -12
t-11.5 -5h-22q-16 0 -27.5 11t-11.5 27v20q0 8 -5.5 13.5t-13.5 5.5h-19q-17 -1 -28 10.5t-11 27.5v20q0 8 -5.5 13t-13.5 5h-20q-16 0 -27 11t-12 27v20q0 8 -5.5 13.5t-13.5 5.5h-19z" />
    <glyph glyph-name="registered" unicode="&#xae;" horiz-adv-x="686" 
d="M612 616q17 0 28 -11t11 -27v-231q0 -17 -11 -28t-28 -11h-19q-19 0 -19 -19v-96q0 -17 -11 -28t-28 -11h-308q-16 0 -27 11t-11 28v19q0 8 -5.5 13.5t-13.5 5.5h-20q-16 0 -27 11t-11 28v19q0 8 -5.5 13.5t-13.5 5.5h-20q-16 0 -27 11t-11 28v231q0 16 11 27t27 11h20
q8 0 13.5 5.5t5.5 13.5v97q0 16 11 27t27 11h308q17 0 28 -11t11 -27v-20q0 -19 19 -19h19q17 0 28 -11t11 -27v-20q0 -19 19 -19h19zM555 308q8 0 13.5 5.5t5.5 13.5v270q0 8 -5.5 13.5t-13.5 5.5h-20q-16 0 -27 11t-11 28v19q0 8 -5.5 13.5t-13.5 5.5h-271q-8 0 -13 -5
t-5 -13v-20q0 -17 -11 -28t-28 -11h-19q-19 0 -19 -19v-270q0 -19 19 -19h19q17 0 28 -11t11 -27v-20q0 -19 19 -19h271q8 0 13 5t5 13v21q0 16 11 27t27 11h20zM420 404q0 -19 19 -19h19q17 0 28 -11t11 -27v-21q0 -8 -5 -13t-13 -5h-21q-16 0 -27 11t-11 28v19
q0 8 -5.5 13.5t-13.5 5.5h-97q-16 0 -27 11t-11 28v-77q0 -17 -11 -28t-28 -11h-20q-8 0 -13 5t-5 13v252q0 16 11 27t27 11h154q17 0 28 -11t11 -27v-20q0 -19 19 -19h19q17 0 28 -11t11 -27q0 -17 -11 -28t-28 -11h-19q-19 0 -19 -19v-39zM266 480q0 -8 5 -13t13 -5h117
q8 0 13.5 5.5t5.5 13.5v39q0 8 -5.5 13.5t-13.5 5.5h-117q-8 0 -13 -5t-5 -13v-41z" />
    <glyph glyph-name="degree" unicode="&#xb0;" horiz-adv-x="363" 
d="M59 539q-16 0 -27.5 11.5t-11.5 27.5v154q1 16 12 27t27 11h154q16 0 27 -11t11 -27v-20q0 -8 5 -13.5t13 -5.5h21q16 0 27 -11t11 -27v-154q0 -16 -11 -27.5t-27 -11.5h-154q-17 0 -28 11.5t-11 27.5v20q0 8 -5 13t-13 5h-20zM251 675q0 8 -5 13t-13 5h-136v-135
q0 -8 5.5 -13.5t13.5 -5.5h135v136z" />
    <glyph glyph-name="twosuperior" unicode="&#xb2;" horiz-adv-x="383" 
d="M305 770q16 0 27 -11t11 -28v-77q0 -16 -11 -27t-27 -11h-20q-8 0 -13.5 -5.5t-5.5 -13.5v-20q0 -16 -11 -27t-27 -11h-101q-6 -2 -10.5 -7t-4.5 -12v-41q0 -8 5 -12.5t12 -4.5h197q8 0 12.5 -5t4.5 -12v-22q0 -16 -11 -27t-27 -11h-231q-17 0 -28 11t-11 27v77
q0 17 11 28t28 11h19q8 0 13.5 5.5t5.5 13.5v19q0 17 11 28t28 11h99q16 2 16 19v41q0 7 -4.5 12t-12.5 5h-118q-8 0 -13.5 -5.5t-5.5 -13.5v-20q0 -16 -11 -27t-27 -11h-22q-7 0 -12 4.5t-5 12.5v21q0 17 11 28t28 11h22q16 2 16 19v19q0 17 11 28t28 11h154z" />
    <glyph glyph-name="threesuperior" unicode="&#xb3;" horiz-adv-x="383" 
d="M305 770q16 0 27 -11t11 -28v-77q0 -16 -11 -27t-27 -11h-22q-17 -2 -17 -19v-39q0 -8 5.5 -13.5t13.5 -5.5h20q16 0 27 -11t11 -28v-77q0 -16 -11 -27t-27 -11h-154q-16 0 -27.5 11t-11.5 27v20q0 16 -14 19h-24q-16 0 -27.5 11t-11.5 27v22q0 7 5 12t12 5h22
q16 0 27 -11t11 -28v-19q0 -8 5.5 -13.5t13.5 -5.5h119q16 0 16 17v41q0 16 -14 19h-101q-16 0 -27.5 11t-11.5 27v22q0 7 5 12t12 5h119q8 0 13 5.5t5 13.5v41q0 7 -4.5 12t-11.5 5h-121q-17 -2 -17 -19v-20q0 -16 -11 -27t-27 -11h-22q-7 0 -12 4.5t-5 12.5v21
q0 17 11.5 28t27.5 11h20q8 0 13 5.5t5 13.5v19q0 17 11.5 28t27.5 11h154z" />
    <glyph glyph-name="acute" unicode="&#xb4;" horiz-adv-x="600" 
d="M304 731q0 17 11 28t27 11h22q7 0 12 -5t5 -12v-22q0 -16 -11 -27t-28 -11h-20q-8 0 -13 -5t-5 -13v-20q0 -17 -11 -28t-27 -11h-22q-7 0 -12 5t-5 12v22q0 16 11 27t28 11h20q8 0 13 5t5 13v20z" />
    <glyph glyph-name="periodcentered" unicode="&#xb7;" horiz-adv-x="146" 
d="M35 269q0 16 11 27.5t27 11.5h22q7 0 11.5 -5t4.5 -12v-22q0 -16 -11 -27t-27 -11h-22q-16 0 -16 16v22z" />
    <glyph glyph-name="cedilla" unicode="&#xb8;" horiz-adv-x="600" 
d="M403 -77q16 0 27.5 -11t10.5 -28q0 -16 -11.5 -27t-27.5 -11h-19q-8 0 -13 -5t-5 -13v-20q0 -16 -11.5 -27.5t-27.5 -11.5h-22q-7 0 -11.5 5t-4.5 12v22q0 16 11 27t27 11h20q8 0 13.5 5.5t5.5 13.5v40q0 8 -5.5 13t-13.5 5h-19q-16 0 -27.5 11t-11.5 27q-1 16 10.5 27.5
t27.5 11.5h55q-16 0 -16 -17v-41q0 -8 5 -13.5t13 -5.5h20z" />
    <glyph glyph-name="onesuperior" unicode="&#xb9;" horiz-adv-x="306" 
d="M227 770q16 0 27.5 -11t11.5 -27v-308q0 -16 -11.5 -27.5t-27.5 -11.5h-22q-7 0 -11.5 5t-4.5 12v275q0 7 -5 11.5t-12 4.5h-42q-8 0 -13 -5.5t-5 -13.5v-19q0 -16 -11.5 -27.5t-27.5 -11.5h-22q-7 0 -11.5 5t-4.5 12v22q0 16 11 27t27 11h22q17 3 17 19v20q0 16 11 27
t27 11h77z" />
    <glyph glyph-name="guillemotright" unicode="&#xbb;" horiz-adv-x="594" 
d="M310 308q16 0 27 -11t11 -28q0 -16 -11 -27t-27 -11h-20q-8 0 -13.5 -5.5t-5.5 -13.5v-20q0 -16 -11 -27t-27 -11h-20q-19 0 -19 -19v-20q0 -16 -11 -27t-27 -11h-20q-8 0 -13.5 -5.5t-5.5 -13.5v-20q0 -16 -11 -27t-27 -11h-22q-7 0 -12 5t-5 12v21q0 17 11 28t28 11h19
q19 0 19 19v19q0 17 11 28t28 11h19q19 0 19 19v19q0 17 11 28t28 11h19q19 0 19 19v39q0 8 -5.5 13.5t-13.5 5.5h-19q-17 0 -28 11t-11 27v20q0 8 -5.5 13.5t-13.5 5.5h-19q-17 0 -28 11t-11 27v20q0 8 -5.5 13.5t-13.5 5.5h-19q-17 0 -28 11t-11 27v22q0 7 5 12t12 5h22
q16 0 27 -11t11 -28v-19q0 -8 5.5 -13.5t13.5 -5.5h20q16 0 27 -11t11 -28v-19q0 -19 19 -19h20q16 0 27 -11t11 -28v-19q0 -19 19 -19h20zM541 308q16 0 27 -11t11 -28q0 -16 -11 -27t-27 -11h-20q-8 0 -13.5 -5.5t-5.5 -13.5v-20q0 -16 -11 -27t-27 -11h-20q-19 0 -19 -19
v-20q0 -16 -11 -27t-27 -11h-20q-8 0 -13.5 -5.5t-5.5 -13.5v-20q0 -16 -11 -27t-27 -11h-22q-7 0 -12 5t-5 12v21q0 17 11 28t28 11h19q19 0 19 19v19q0 17 11 28t28 11h19q19 0 19 19v19q0 17 11 28t28 11h19q19 0 19 19v39q0 8 -5.5 13.5t-13.5 5.5h-19q-17 0 -28 11
t-11 27v20q0 8 -5.5 13.5t-13.5 5.5h-19q-17 0 -28 11t-11 27v20q0 8 -5.5 13.5t-13.5 5.5h-19q-17 0 -28 11t-11 27v22q0 7 5 12t12 5h22q16 0 27 -11t11 -28v-19q0 -8 5.5 -13.5t13.5 -5.5h20q16 0 27 -11t11 -28v-19q0 -19 19 -19h20q16 0 27 -11t11 -28v-19
q0 -19 19 -19h20z" />
    <glyph glyph-name="questiondown" unicode="&#xbf;" horiz-adv-x="538" 
d="M350 502q0 -17 -11 -28t-27 -11h-22q-7 0 -12 5t-5 12v22q0 16 11 27t28 11h21q8 0 12.5 -5t4.5 -12v-21zM79 -74q-16 0 -27 11t-12 27v39l1 38q0 16 11.5 27.5t27.5 11.5l20 -1q8 0 13 5t5 13v20q0 16 11.5 27.5t27.5 11.5h20q8 0 13 5t5 13v20q0 16 11.5 27t27.5 11h20
q8 0 13 5.5t5 13.5v20l1 38v39q0 16 11 27t28 11h38v-77l-1 -38q0 -16 -11 -27.5t-27 -11.5h-20q-8 0 -13.5 -5t-5.5 -13v-20q0 -16 -11 -27t-27 -11h-20q-8 0 -13.5 -5.5t-5.5 -13.5v-20q0 -16 -11 -27t-27 -11h-20q-8 0 -13.5 -5.5t-5.5 -13.5v-20l-1 -38v-59
q0 -8 5.5 -13t13.5 -5h20q16 0 27 -11t11 -28v-21q0 -8 5 -12.5t12 -4.5h137l39 -1h20q8 0 13 5t5 13v136l1 38q0 16 11 27.5t27 11.5h22q7 0 12 -5t5 -12v-22l-1 -38v-116q0 -16 -11 -27t-28 -11h-20q-8 0 -13 -5t-5 -13v-21q0 -16 -11 -26.5t-27 -10.5h-231q-16 0 -27 11
t-12 27v97q0 8 -5 13.5t-13 5.5z" />
    <glyph glyph-name="Agrave" unicode="&#xc0;" horiz-adv-x="696" 
d="M387 924q16 0 27 -11t11 -27v-22q0 -7 -4.5 -12t-11.5 -5h-22q-16 0 -27.5 11t-11.5 28v20q0 8 -5 13t-13 5h-20q-16 0 -27 11t-11 27v22q0 7 4.5 12t11.5 5h22q16 0 27 -11t11 -28v-20q0 -8 5.5 -13t13.5 -5h20zM617 154q17 0 28 -11t11 -27v-99q0 -7 -5 -12t-12 -5h-22
q-16 0 -27 11.5t-11 27.5v97q0 8 -5.5 13t-13.5 5h-20q-16 0 -27 11.5t-11 27.5v77q0 -16 -11 -27.5t-28 -11.5h-327q-8 0 -13.5 -5t-5.5 -13v-174q0 -16 -11 -27.5t-27 -11.5h-22q-7 0 -12 5t-5 12v176q0 16 11 27t28 11h20q8 0 13 5.5t5 13.5v174q0 16 11 27t28 11h20
q8 0 13 5.5t5 13.5v174q0 16 11 27t28 11h20q8 0 13 5.5t5 13.5v20q0 16 11 27t27 11h77q17 0 28 -11t11 -27v-97q0 -8 5 -13.5t13 -5.5h20q17 0 28 -11t11 -27v-174q0 -8 5 -13.5t13 -5.5h20q17 0 28 -11t11 -27v-174q0 -8 5 -13.5t13 -5.5h20zM485 308q7 0 12 5t5 12v42
q0 8 -5.5 13t-13.5 5h-20q-16 0 -27 11.5t-11 27.5v174q0 8 -5 13t-13 5h-21q-16 0 -27 11t-11 28v21q0 8 -5 12.5t-12 4.5h-42q-8 0 -13 -5t-5 -13v-174q0 -16 -11 -27.5t-27 -11.5h-21q-8 0 -13 -5t-5 -13v-119q0 -7 5 -12t12 -5h274z" />
    <glyph glyph-name="Aacute" unicode="&#xc1;" horiz-adv-x="696" 
d="M348 961q0 17 11 28t27 11h22q7 0 12 -5t5 -12v-22q0 -16 -11 -27t-28 -11h-20q-8 0 -13 -5t-5 -13v-20q0 -17 -11 -28t-27 -11h-22q-7 0 -12 5t-5 12v22q0 16 11 27t28 11h20q8 0 13 5t5 13v20zM617 154q17 0 28 -11t11 -27v-99q0 -7 -5 -12t-12 -5h-22q-16 0 -27 11.5
t-11 27.5v97q0 8 -5.5 13t-13.5 5h-20q-16 0 -27 11.5t-11 27.5v77q0 -16 -11 -27.5t-28 -11.5h-327q-8 0 -13.5 -5t-5.5 -13v-174q0 -16 -11 -27.5t-27 -11.5h-22q-7 0 -12 5t-5 12v176q0 16 11 27t28 11h20q8 0 13 5.5t5 13.5v174q0 16 11 27t28 11h20q8 0 13 5.5t5 13.5
v174q0 16 11 27t28 11h20q8 0 13 5.5t5 13.5v20q0 16 11 27t27 11h77q17 0 28 -11t11 -27v-97q0 -8 5 -13.5t13 -5.5h20q17 0 28 -11t11 -27v-174q0 -8 5 -13.5t13 -5.5h20q17 0 28 -11t11 -27v-174q0 -8 5 -13.5t13 -5.5h20zM485 308q7 0 12 5t5 12v42q0 8 -5.5 13t-13.5 5
h-20q-16 0 -27 11.5t-11 27.5v174q0 8 -5 13t-13 5h-21q-16 0 -27 11t-11 28v21q0 8 -5 12.5t-12 4.5h-42q-8 0 -13 -5t-5 -13v-174q0 -16 -11 -27.5t-27 -11.5h-21q-8 0 -13 -5t-5 -13v-119q0 -7 5 -12t12 -5h274z" />
    <glyph glyph-name="Acircumflex" unicode="&#xc2;" horiz-adv-x="696" 
d="M424 923q16 0 27.5 -11t11.5 -28v-21q0 -8 -5 -12.5t-12 -4.5h-22q-16 0 -27 11t-11 27v20q0 8 -5.5 13.5t-13.5 5.5h-40q-8 0 -13 -5.5t-5 -13.5v-20q0 -16 -11 -27t-28 -11h-21q-17 0 -17 17v21q0 17 11 28t27 11h20q8 0 13.5 5t5.5 13v20q0 17 11 28t28 11
q16 -1 27 -12.5t11 -27.5v-19q0 -8 5 -13t13 -5h20zM617 154q17 0 28 -11t11 -27v-99q0 -7 -5 -12t-12 -5h-22q-16 0 -27 11.5t-11 27.5v97q0 8 -5.5 13t-13.5 5h-20q-16 0 -27 11.5t-11 27.5v77q0 -16 -11 -27.5t-28 -11.5h-327q-8 0 -13.5 -5t-5.5 -13v-174
q0 -16 -11 -27.5t-27 -11.5h-22q-7 0 -12 5t-5 12v176q0 16 11 27t28 11h20q8 0 13 5.5t5 13.5v174q0 16 11 27t28 11h20q8 0 13 5.5t5 13.5v174q0 16 11 27t28 11h20q8 0 13 5.5t5 13.5v20q0 16 11 27t27 11h77q17 0 28 -11t11 -27v-97q0 -8 5 -13.5t13 -5.5h20
q17 0 28 -11t11 -27v-174q0 -8 5 -13.5t13 -5.5h20q17 0 28 -11t11 -27v-174q0 -8 5 -13.5t13 -5.5h20zM485 308q7 0 12 5t5 12v42q0 8 -5.5 13t-13.5 5h-20q-16 0 -27 11.5t-11 27.5v174q0 8 -5 13t-13 5h-21q-16 0 -27 11t-11 28v21q0 8 -5 12.5t-12 4.5h-42q-8 0 -13 -5
t-5 -13v-174q0 -16 -11 -27.5t-27 -11.5h-21q-8 0 -13 -5t-5 -13v-119q0 -7 5 -12t12 -5h274z" />
    <glyph glyph-name="Atilde" unicode="&#xc3;" horiz-adv-x="696" 
d="M524 1000q7 0 12 -4.5t5 -11.5v-22q0 -16 -11.5 -27t-27.5 -11h-20q-8 0 -13 -5.5t-5 -13.5v-20q0 -15 -11 -26.5t-27 -11.5q-17 0 -28 11.5t-11 27.5v19q0 8 -5.5 13.5t-13.5 5.5h-40q-8 0 -13 -5.5t-5 -13.5v-20q0 -16 -11 -27t-28 -11h-21q-17 0 -17 16v22
q0 16 11 27.5t27 11.5h20q8 0 13.5 5t5.5 13v20q0 15 10.5 26.5t26.5 11.5q17 0 28.5 -11.5t11.5 -27.5v-19q0 -8 5 -13t13 -5h40q8 0 13.5 5t5.5 13v20q0 16 11 27t27 11h22zM617 154q17 0 28 -11t11 -27v-99q0 -7 -5 -12t-12 -5h-22q-16 0 -27 11.5t-11 27.5v97
q0 8 -5.5 13t-13.5 5h-20q-16 0 -27 11.5t-11 27.5v77q0 -16 -11 -27.5t-28 -11.5h-327q-8 0 -13.5 -5t-5.5 -13v-174q0 -16 -11 -27.5t-27 -11.5h-22q-7 0 -12 5t-5 12v176q0 16 11 27t28 11h20q8 0 13 5.5t5 13.5v174q0 16 11 27t28 11h20q8 0 13 5.5t5 13.5v174
q0 16 11 27t28 11h20q8 0 13 5.5t5 13.5v20q0 16 11 27t27 11h77q17 0 28 -11t11 -27v-97q0 -8 5 -13.5t13 -5.5h20q17 0 28 -11t11 -27v-174q0 -8 5 -13.5t13 -5.5h20q17 0 28 -11t11 -27v-174q0 -8 5 -13.5t13 -5.5h20zM485 308q7 0 12 5t5 12v42q0 8 -5.5 13t-13.5 5h-20
q-16 0 -27 11.5t-11 27.5v174q0 8 -5 13t-13 5h-21q-16 0 -27 11t-11 28v21q0 8 -5 12.5t-12 4.5h-42q-8 0 -13 -5t-5 -13v-174q0 -16 -11 -27.5t-27 -11.5h-21q-8 0 -13 -5t-5 -13v-119q0 -7 5 -12t12 -5h274z" />
    <glyph glyph-name="Adieresis" unicode="&#xc4;" horiz-adv-x="696" 
d="M232 885q0 16 11 27t27 11h22q7 0 12 -5t5 -12v-21q0 -17 -11.5 -28t-27.5 -11h-21q-8 0 -12.5 5t-4.5 12v22zM386 885q0 16 11 27t27 11h22q7 0 11.5 -5t4.5 -12v-21q0 -17 -11 -28t-27 -11h-22q-7 0 -11.5 5t-4.5 12v22zM617 154q17 0 28 -11t11 -27v-99q0 -7 -5 -12
t-12 -5h-22q-16 0 -27 11.5t-11 27.5v97q0 8 -5.5 13t-13.5 5h-20q-16 0 -27 11.5t-11 27.5v77q0 -16 -11 -27.5t-28 -11.5h-327q-8 0 -13.5 -5t-5.5 -13v-174q0 -16 -11 -27.5t-27 -11.5h-22q-7 0 -12 5t-5 12v176q0 16 11 27t28 11h20q8 0 13 5.5t5 13.5v174q0 16 11 27
t28 11h20q8 0 13 5.5t5 13.5v174q0 16 11 27t28 11h20q8 0 13 5.5t5 13.5v20q0 16 11 27t27 11h77q17 0 28 -11t11 -27v-97q0 -8 5 -13.5t13 -5.5h20q17 0 28 -11t11 -27v-174q0 -8 5 -13.5t13 -5.5h20q17 0 28 -11t11 -27v-174q0 -8 5 -13.5t13 -5.5h20zM485 308q7 0 12 5
t5 12v42q0 8 -5.5 13t-13.5 5h-20q-16 0 -27 11.5t-11 27.5v174q0 8 -5 13t-13 5h-21q-16 0 -27 11t-11 28v21q0 8 -5 12.5t-12 4.5h-42q-8 0 -13 -5t-5 -13v-174q0 -16 -11 -27.5t-27 -11.5h-21q-8 0 -13 -5t-5 -13v-119q0 -7 5 -12t12 -5h274z" />
    <glyph glyph-name="Aring" unicode="&#xc5;" horiz-adv-x="696" 
d="M617 154q17 0 28 -11t11 -27v-99q0 -7 -5 -12t-12 -5h-22q-16 0 -27 11.5t-11 27.5v97q0 8 -5.5 13t-13.5 5h-20q-16 0 -27 11.5t-11 27.5v77q0 -16 -11 -27.5t-28 -11.5h-327q-8 0 -13.5 -5t-5.5 -13v-174q0 -16 -11 -27.5t-27 -11.5h-22q-7 0 -12 5t-5 12v176
q0 16 11 27t28 11h20q8 0 13 5.5t5 13.5v174q0 16 11 27t28 11h20q8 0 13 5.5t5 13.5v174q0 16 11 27t28 11h20q8 0 13 5.5t5 13.5v20q0 16 11 27t27 11h77q17 0 28 -11t11 -27v-97q0 -8 5 -13.5t13 -5.5h20q17 0 28 -11t11 -27v-174q0 -8 5 -13.5t13 -5.5h20q17 0 28 -11
t11 -27v-174q0 -8 5 -13.5t13 -5.5h20zM414 1000q16 0 27 -11t11 -27t-11 -27t-27 -11h-21q-8 0 -13 -5.5t-5 -13.5v-20q0 -15 -11 -26.5t-26 -11.5q-17 0 -28.5 11.5t-11.5 27.5v19q0 8 -5 13.5t-13 5.5h-20q-17 0 -28 11t-11 27t11 27t28 11h20q8 0 13 5.5t5 13.5v20
q0 15 11 26.5t26 11.5q17 0 28.5 -11.5t11.5 -27.5v-19q0 -8 5 -13.5t13 -5.5h21zM485 308q7 0 12 5t5 12v42q0 8 -5.5 13t-13.5 5h-20q-16 0 -27 11.5t-11 27.5v174q0 8 -5 13t-13 5h-21q-16 0 -27 11t-11 28v21q0 8 -5 12.5t-12 4.5h-42q-8 0 -13 -5t-5 -13v-174
q0 -16 -11 -27.5t-27 -11.5h-21q-8 0 -13 -5t-5 -13v-119q0 -7 5 -12t12 -5h274zM375 982q0 8 -5 13t-13 5h-40q-8 0 -13.5 -5t-5.5 -13v-40q0 -8 5.5 -13t13.5 -5h40q8 0 13 5t5 13v40z" />
    <glyph glyph-name="AE" unicode="&#xc6;" horiz-adv-x="926" 
d="M847 615q-16 0 -27 11.5t-11 27.5v19q0 8 -5.5 13.5t-13.5 5.5h-289v-213q0 -7 5 -12t13 -5h21q16 0 27 -11.5t11 -27.5v-20q0 -8 5.5 -13t13.5 -5h173q17 0 28 -11.5t11 -27.5v-21q0 -7 -5 -12t-13 -5h-175q-16 0 -27 11t-11 27v20q0 8 -5.5 13.5t-13.5 5.5h-19
q-17 0 -28 11t-11 27v-328q0 -8 5 -13t13 -5h328q16 0 27.5 -11t11.5 -28v-20q0 -8 -5 -13t-13 -5h-405q-17 0 -28 11t-11 27v231q0 -16 -11 -27t-27 -11h-251q-8 0 -13.5 -5.5t-5.5 -13.5v-174q0 -16 -11 -27t-27 -11h-21q-8 0 -12.5 5t-4.5 13v174q0 17 11 28t27 11h20
q8 0 13 5.5t5 13.5v173q0 16 11.5 27.5t27.5 11.5h20q8 0 13 5t5 13v174q0 16 11.5 27t27.5 11h19q8 0 13.5 5.5t5.5 13.5v20q0 16 11.5 27t27.5 11h154q16 0 27 -11t11 -27q0 16 11 27t28 11h230q17 0 28 -11t11 -27v-20q0 -8 5.5 -13.5t13.5 -5.5h19q16 0 27.5 -11
t11.5 -27v-21q0 -8 -5 -13t-13 -5h-21zM406 308q8 0 13 5t5 12v350q0 7 -5 12t-13 5h-117q-8 0 -13.5 -5.5t-5.5 -13.5v-173q0 -16 -11 -27t-27 -11h-20q-8 0 -13.5 -5.5t-5.5 -13.5v-135h213z" />
    <glyph glyph-name="Ccedilla" unicode="&#xc7;" horiz-adv-x="696" 
d="M617 539q-16 0 -27 11t-11 27v20q0 8 -5 13.5t-13 5.5h-20q-17 0 -28 11t-11 27v20q0 8 -5 13.5t-13 5.5h-273q-7 0 -12 -5t-5 -12v-22q0 -16 -11 -27t-27 -11h-20q-8 0 -13.5 -5.5t-5.5 -13.5v-425q0 -8 5.5 -13t13.5 -5h20q16 0 27 -11t11 -28v-20q0 -8 5.5 -13
t13.5 -5h271q8 0 13 5t5 13v20q0 17 11 28t28 11h20q8 0 13 5t5 13v20q0 17 11 28t27 11h22q7 0 12 -5t5 -12v-22q0 -16 -11 -27t-28 -11h-20q-8 0 -13 -5.5t-5 -13.5v-20q0 -16 -11 -27t-27 -11h-21q-8 0 -13 -5.5t-5 -13.5v-20q0 -16 -11 -27t-27 -11h-61q-16 0 -16 -17
v-41q0 -8 5 -13.5t13 -5.5h20q16 0 27.5 -11t10.5 -28q0 -16 -11.5 -27t-27.5 -11h-19q-8 0 -13 -5t-5 -13v-20q0 -16 -11.5 -27.5t-27.5 -11.5h-22q-7 0 -11.5 5t-4.5 12v22q0 16 11 27t27 11h20q8 0 13.5 5.5t5.5 13.5v40q0 8 -5.5 13t-13.5 5h-19q-16 0 -27.5 11
t-11.5 27q-1 16 10.5 27.5t27.5 11.5h-115q-17 0 -28 11t-11 27v20q0 8 -5 13.5t-13 5.5h-20q-17 0 -28 11t-11 27v20q0 8 -5 13.5t-13 5.5h-20q-17 0 -28 11t-11 27v385q0 17 11.5 28t27.5 11h20q8 0 13 5t5 13v97q0 16 11.5 27.5t27.5 11.5h308q16 0 27 -11.5t11 -27.5
v-20q0 -8 5 -13t13 -5h21q16 0 27 -11t11 -28v-20q0 -8 5 -13t13 -5h20q17 0 28 -11.5t11 -27.5v-22q0 -7 -5 -11.5t-12 -4.5h-22z" />
    <glyph glyph-name="Egrave" unicode="&#xc8;" horiz-adv-x="617" 
d="M309 923q16 0 27 -11t11 -27v-22q0 -7 -4.5 -12t-11.5 -5h-22q-16 0 -27.5 11t-11.5 28v20q0 8 -5 13t-13 5h-20q-16 0 -27 11t-11 27v22q0 7 4.5 12t11.5 5h22q16 0 27 -11t11 -28v-20q0 -8 5.5 -13t13.5 -5h20zM539 614q-16 0 -27 11.5t-11 27.5v20q0 8 -5.5 13.5
t-13.5 5.5h-348q-8 0 -12.5 -5t-4.5 -12v-197q0 -17 17 -17h21q16 0 27 -11.5t11 -27.5v-19q0 -19 19 -19h250q16 0 27.5 -11t11.5 -28v-21q0 -16 -17 -16h-252q-16 0 -27.5 10.5t-11.5 26.5v21q0 8 -5 13t-13 5h-20q-16 0 -27 11.5t-11 26.5v-328q0 -17 17 -17h426
q8 0 12.5 -5t4.5 -12v-21q0 -17 -11 -28t-27 -11h-461q-17 0 -27.5 11t-10.5 28v691q0 16 10.5 27.5t27.5 11.5h384q16 0 27.5 -11.5t11.5 -27.5v-20q0 -8 5 -13t13 -5h20q16 0 27 -11.5t11 -27.5v-22q0 -7 -4.5 -12t-12.5 -5h-21z" />
    <glyph glyph-name="Eacute" unicode="&#xc9;" horiz-adv-x="617" 
d="M270 960q0 17 11 28t27 11h22q7 0 12 -5t5 -12v-22q0 -16 -11 -27t-28 -11h-20q-8 0 -13 -5t-5 -13v-20q0 -17 -11 -28t-27 -11h-22q-7 0 -12 5t-5 12v22q0 16 11 27t28 11h20q8 0 13 5t5 13v20zM539 614q-16 0 -27 11.5t-11 27.5v20q0 8 -5.5 13.5t-13.5 5.5h-348
q-8 0 -12.5 -5t-4.5 -12v-197q0 -17 17 -17h21q16 0 27 -11.5t11 -27.5v-19q0 -19 19 -19h250q16 0 27.5 -11t11.5 -28v-21q0 -16 -17 -16h-252q-16 0 -27.5 10.5t-11.5 26.5v21q0 8 -5 13t-13 5h-20q-16 0 -27 11.5t-11 26.5v-328q0 -17 17 -17h426q8 0 12.5 -5t4.5 -12
v-21q0 -17 -11 -28t-27 -11h-461q-17 0 -27.5 11t-10.5 28v691q0 16 10.5 27.5t27.5 11.5h384q16 0 27.5 -11.5t11.5 -27.5v-20q0 -8 5 -13t13 -5h20q16 0 27 -11.5t11 -27.5v-22q0 -7 -4.5 -12t-12.5 -5h-21z" />
    <glyph glyph-name="Ecircumflex" unicode="&#xca;" horiz-adv-x="617" 
d="M346 922q16 0 27.5 -11t11.5 -28v-21q0 -8 -5 -12.5t-12 -4.5h-22q-16 0 -27 11t-11 27v20q0 8 -5.5 13.5t-13.5 5.5h-40q-8 0 -13 -5.5t-5 -13.5v-20q0 -16 -11 -27t-28 -11h-21q-17 0 -17 17v21q0 17 11 28t27 11h20q8 0 13.5 5t5.5 13v20q0 17 11 28t28 11
q16 -1 27 -12.5t11 -27.5v-19q0 -8 5 -13t13 -5h20zM539 614q-16 0 -27 11.5t-11 27.5v20q0 8 -5.5 13.5t-13.5 5.5h-348q-8 0 -12.5 -5t-4.5 -12v-197q0 -17 17 -17h21q16 0 27 -11.5t11 -27.5v-19q0 -19 19 -19h250q16 0 27.5 -11t11.5 -28v-21q0 -16 -17 -16h-252
q-16 0 -27.5 10.5t-11.5 26.5v21q0 8 -5 13t-13 5h-20q-16 0 -27 11.5t-11 26.5v-328q0 -17 17 -17h426q8 0 12.5 -5t4.5 -12v-21q0 -17 -11 -28t-27 -11h-461q-17 0 -27.5 11t-10.5 28v691q0 16 10.5 27.5t27.5 11.5h384q16 0 27.5 -11.5t11.5 -27.5v-20q0 -8 5 -13t13 -5
h20q16 0 27 -11.5t11 -27.5v-22q0 -7 -4.5 -12t-12.5 -5h-21z" />
    <glyph glyph-name="Edieresis" unicode="&#xcb;" horiz-adv-x="617" 
d="M154 884q0 16 11 27t27 11h22q7 0 12 -5t5 -12v-21q0 -17 -11.5 -28t-27.5 -11h-21q-8 0 -12.5 5t-4.5 12v22zM308 884q0 16 11 27t27 11h22q7 0 11.5 -5t4.5 -12v-21q0 -17 -11 -28t-27 -11h-22q-7 0 -11.5 5t-4.5 12v22zM539 614q-16 0 -27 11.5t-11 27.5v20
q0 8 -5.5 13.5t-13.5 5.5h-348q-8 0 -12.5 -5t-4.5 -12v-197q0 -17 17 -17h21q16 0 27 -11.5t11 -27.5v-19q0 -19 19 -19h250q16 0 27.5 -11t11.5 -28v-21q0 -16 -17 -16h-252q-16 0 -27.5 10.5t-11.5 26.5v21q0 8 -5 13t-13 5h-20q-16 0 -27 11.5t-11 26.5v-328
q0 -17 17 -17h426q8 0 12.5 -5t4.5 -12v-21q0 -17 -11 -28t-27 -11h-461q-17 0 -27.5 11t-10.5 28v691q0 16 10.5 27.5t27.5 11.5h384q16 0 27.5 -11.5t11.5 -27.5v-20q0 -8 5 -13t13 -5h20q16 0 27 -11.5t11 -27.5v-22q0 -7 -4.5 -12t-12.5 -5h-21z" />
    <glyph glyph-name="Igrave" unicode="&#xcc;" horiz-adv-x="177" 
d="M128 924q16 0 27 -11t11 -27v-22q0 -7 -4.5 -12t-11.5 -5h-22q-16 0 -27.5 11t-11.5 28v20q0 8 -5 13t-13 5h-20q-16 0 -27 11t-11 27v22q0 7 4.5 12t11.5 5h22q16 0 27 -11t11 -28v-20q0 -8 5.5 -13t13.5 -5h20zM50 731q0 16 11.5 27t27.5 11h22q16 0 16 -16v-715
q0 -16 -11 -27t-27 -11h-22q-7 0 -12 4.5t-5 12.5v714z" />
    <glyph glyph-name="Iacute" unicode="&#xcd;" horiz-adv-x="177" 
d="M89 961q0 17 11 28t27 11h22q7 0 12 -5t5 -12v-22q0 -16 -11 -27t-28 -11h-20q-8 0 -13 -5t-5 -13v-20q0 -17 -11 -28t-27 -11h-22q-7 0 -12 5t-5 12v22q0 16 11 27t28 11h20q8 0 13 5t5 13v20zM50 731q0 16 11.5 27t27.5 11h22q16 0 16 -16v-715q0 -16 -11 -27t-27 -11
h-22q-7 0 -12 4.5t-5 12.5v714z" />
    <glyph glyph-name="Icircumflex" unicode="&#xce;" horiz-adv-x="177" 
d="M165 923q16 0 27.5 -11t11.5 -28v-21q0 -8 -5 -12.5t-12 -4.5h-22q-16 0 -27 11t-11 27v20q0 8 -5.5 13.5t-13.5 5.5h-40q-8 0 -13 -5.5t-5 -13.5v-20q0 -16 -11 -27t-28 -11h-21q-17 0 -17 17v21q0 17 11 28t27 11h20q8 0 13.5 5t5.5 13v20q0 17 11 28t28 11
q16 -1 27 -12.5t11 -27.5v-19q0 -8 5 -13t13 -5h20zM50 731q0 16 11.5 27t27.5 11h22q16 0 16 -16v-715q0 -16 -11 -27t-27 -11h-22q-7 0 -12 4.5t-5 12.5v714z" />
    <glyph glyph-name="Idieresis" unicode="&#xcf;" horiz-adv-x="177" 
d="M-27 885q0 16 11 27t27 11h22q7 0 12 -5t5 -12v-21q0 -17 -11.5 -28t-27.5 -11h-21q-8 0 -12.5 5t-4.5 12v22zM127 885q0 16 11 27t27 11h22q7 0 11.5 -5t4.5 -12v-21q0 -17 -11 -28t-27 -11h-22q-7 0 -11.5 5t-4.5 12v22zM50 731q0 16 11.5 27t27.5 11h22q16 0 16 -16
v-715q0 -16 -11 -27t-27 -11h-22q-7 0 -12 4.5t-5 12.5v714z" />
    <glyph glyph-name="Ntilde" unicode="&#xd1;" horiz-adv-x="706" 
d="M484 1000q7 0 12 -4.5t5 -11.5v-22q0 -16 -11.5 -27t-27.5 -11h-20q-8 0 -13 -5.5t-5 -13.5v-20q0 -15 -11 -26.5t-27 -11.5q-17 0 -28 11.5t-11 27.5v19q0 8 -5.5 13.5t-13.5 5.5h-40q-8 0 -13 -5.5t-5 -13.5v-20q0 -16 -11 -27t-28 -11h-21q-17 0 -17 16v22
q0 16 11 27.5t27 11.5h20q8 0 13.5 5t5.5 13v20q0 15 10.5 26.5t26.5 11.5q17 0 28.5 -11.5t11.5 -27.5v-19q0 -8 5 -13t13 -5h40q8 0 13.5 5t5.5 13v20q0 16 11 27t27 11h22zM589 731q0 16 11 27.5t27 11.5h22q7 0 12 -5t5 -12v-638q0 -16 -11 -27t-28 -11h-20q-8 0 -13 -5
t-5 -13v-21q0 -16 -11 -27t-28 -11h-77q-16 0 -27 11t-11 27v98q0 8 -5 13t-13 5h-21q-16 0 -27 11t-11 27v99q0 7 -5 12t-12 5h-21q-17 0 -28 11t-11 27v99q0 7 -4.5 12t-12.5 5h-21q-17 0 -28 11t-11 27v174q0 8 -5 13.5t-13 5.5h-42q-7 0 -12 -5t-5 -12v-638
q0 -16 -11 -27t-27 -11h-22q-7 0 -12 5t-5 12v714q0 16 11 27.5t28 11.5h77q16 0 27 -11.5t11 -27.5v-20q0 -8 5.5 -13t13.5 -5h20q16 0 27 -11.5t11 -27.5v-98q0 -8 5 -12.5t12 -4.5h22q16 0 27 -11t11 -28v-98q0 -8 5 -12.5t12 -4.5h22q16 0 27 -11t11 -28v-174
q0 -8 5 -13t13 -5h20q17 0 28 -11t11 -28v-21q0 -17 17 -17h41q8 0 13.5 5t5.5 13v636z" />
    <glyph glyph-name="Ograve" unicode="&#xd2;" horiz-adv-x="773" 
d="M387 924q16 0 27 -11t11 -27v-22q0 -7 -4.5 -12t-11.5 -5h-22q-16 0 -27.5 11t-11.5 28v20q0 8 -5 13t-13 5h-20q-16 0 -27 11t-11 27v22q0 7 4.5 12t11.5 5h22q16 0 27 -11t11 -28v-20q0 -8 5.5 -13t13.5 -5h20zM694 616q17 0 28 -11t11 -28v-385q0 -16 -11 -27t-28 -11
h-20q-8 0 -13 -5.5t-5 -13.5v-97q0 -16 -11 -27t-28 -11h-385q-16 0 -27 11t-11 27v21q0 8 -5 13t-13 5h-20q-17 0 -28 11t-11 27v20q0 8 -5 13.5t-13 5.5h-20q-17 0 -28 11t-11 27v385q0 17 11 28t28 11h20q8 0 13 5t5 13v97q0 16 11 27.5t28 11.5h384q17 0 28 -11.5
t11 -27.5v-20q0 -8 5 -13t13 -5h20q17 0 28 -11.5t11 -27.5v-20q0 -8 5 -13t13 -5h20zM637 154q8 0 13.5 5t5.5 13v425q0 8 -5.5 13.5t-13.5 5.5h-20q-16 0 -27 11t-11 27v20q0 19 -19 19h-349q-7 0 -12 -5t-5 -12v-22q0 -16 -11 -27t-27 -11h-21q-8 0 -13 -5.5t-5 -13.5
v-425q0 -8 5 -13t13 -5h21q16 0 27 -11t11 -28v-20q0 -8 5 -13t13 -5h350q7 0 12 4.5t5 12.5v21q0 17 11 28t27 11h20z" />
    <glyph glyph-name="Oacute" unicode="&#xd3;" horiz-adv-x="773" 
d="M348 961q0 17 11 28t27 11h22q7 0 12 -5t5 -12v-22q0 -16 -11 -27t-28 -11h-20q-8 0 -13 -5t-5 -13v-20q0 -17 -11 -28t-27 -11h-22q-7 0 -12 5t-5 12v22q0 16 11 27t28 11h20q8 0 13 5t5 13v20zM694 616q17 0 28 -11t11 -28v-385q0 -16 -11 -27t-28 -11h-20
q-8 0 -13 -5.5t-5 -13.5v-97q0 -16 -11 -27t-28 -11h-385q-16 0 -27 11t-11 27v21q0 8 -5 13t-13 5h-20q-17 0 -28 11t-11 27v20q0 8 -5 13.5t-13 5.5h-20q-17 0 -28 11t-11 27v385q0 17 11 28t28 11h20q8 0 13 5t5 13v97q0 16 11 27.5t28 11.5h384q17 0 28 -11.5t11 -27.5
v-20q0 -8 5 -13t13 -5h20q17 0 28 -11.5t11 -27.5v-20q0 -8 5 -13t13 -5h20zM637 154q8 0 13.5 5t5.5 13v425q0 8 -5.5 13.5t-13.5 5.5h-20q-16 0 -27 11t-11 27v20q0 19 -19 19h-349q-7 0 -12 -5t-5 -12v-22q0 -16 -11 -27t-27 -11h-21q-8 0 -13 -5.5t-5 -13.5v-425
q0 -8 5 -13t13 -5h21q16 0 27 -11t11 -28v-20q0 -8 5 -13t13 -5h350q7 0 12 4.5t5 12.5v21q0 17 11 28t27 11h20z" />
    <glyph glyph-name="Ocircumflex" unicode="&#xd4;" horiz-adv-x="773" 
d="M424 923q16 0 27.5 -11t11.5 -28v-21q0 -8 -5 -12.5t-12 -4.5h-22q-16 0 -27 11t-11 27v20q0 8 -5.5 13.5t-13.5 5.5h-40q-8 0 -13 -5.5t-5 -13.5v-20q0 -16 -11 -27t-28 -11h-21q-17 0 -17 17v21q0 17 11 28t27 11h20q8 0 13.5 5t5.5 13v20q0 17 11 28t28 11
q16 -1 27 -12.5t11 -27.5v-19q0 -8 5 -13t13 -5h20zM694 616q17 0 28 -11t11 -28v-385q0 -16 -11 -27t-28 -11h-20q-8 0 -13 -5.5t-5 -13.5v-97q0 -16 -11 -27t-28 -11h-385q-16 0 -27 11t-11 27v21q0 8 -5 13t-13 5h-20q-17 0 -28 11t-11 27v20q0 8 -5 13.5t-13 5.5h-20
q-17 0 -28 11t-11 27v385q0 17 11 28t28 11h20q8 0 13 5t5 13v97q0 16 11 27.5t28 11.5h384q17 0 28 -11.5t11 -27.5v-20q0 -8 5 -13t13 -5h20q17 0 28 -11.5t11 -27.5v-20q0 -8 5 -13t13 -5h20zM637 154q8 0 13.5 5t5.5 13v425q0 8 -5.5 13.5t-13.5 5.5h-20q-16 0 -27 11
t-11 27v20q0 19 -19 19h-349q-7 0 -12 -5t-5 -12v-22q0 -16 -11 -27t-27 -11h-21q-8 0 -13 -5.5t-5 -13.5v-425q0 -8 5 -13t13 -5h21q16 0 27 -11t11 -28v-20q0 -8 5 -13t13 -5h350q7 0 12 4.5t5 12.5v21q0 17 11 28t27 11h20z" />
    <glyph glyph-name="Otilde" unicode="&#xd5;" horiz-adv-x="773" 
d="M524 1000q7 0 12 -4.5t5 -11.5v-22q0 -16 -11.5 -27t-27.5 -11h-20q-8 0 -13 -5.5t-5 -13.5v-20q0 -15 -11 -26.5t-27 -11.5q-17 0 -28 11.5t-11 27.5v19q0 8 -5.5 13.5t-13.5 5.5h-40q-8 0 -13 -5.5t-5 -13.5v-20q0 -16 -11 -27t-28 -11h-21q-17 0 -17 16v22
q0 16 11 27.5t27 11.5h20q8 0 13.5 5t5.5 13v20q0 15 10.5 26.5t26.5 11.5q17 0 28.5 -11.5t11.5 -27.5v-19q0 -8 5 -13t13 -5h40q8 0 13.5 5t5.5 13v20q0 16 11 27t27 11h22zM694 616q17 0 28 -11t11 -28v-385q0 -16 -11 -27t-28 -11h-20q-8 0 -13 -5.5t-5 -13.5v-97
q0 -16 -11 -27t-28 -11h-385q-16 0 -27 11t-11 27v21q0 8 -5 13t-13 5h-20q-17 0 -28 11t-11 27v20q0 8 -5 13.5t-13 5.5h-20q-17 0 -28 11t-11 27v385q0 17 11 28t28 11h20q8 0 13 5t5 13v97q0 16 11 27.5t28 11.5h384q17 0 28 -11.5t11 -27.5v-20q0 -8 5 -13t13 -5h20
q17 0 28 -11.5t11 -27.5v-20q0 -8 5 -13t13 -5h20zM637 154q8 0 13.5 5t5.5 13v425q0 8 -5.5 13.5t-13.5 5.5h-20q-16 0 -27 11t-11 27v20q0 19 -19 19h-349q-7 0 -12 -5t-5 -12v-22q0 -16 -11 -27t-27 -11h-21q-8 0 -13 -5.5t-5 -13.5v-425q0 -8 5 -13t13 -5h21
q16 0 27 -11t11 -28v-20q0 -8 5 -13t13 -5h350q7 0 12 4.5t5 12.5v21q0 17 11 28t27 11h20z" />
    <glyph glyph-name="Odieresis" unicode="&#xd6;" horiz-adv-x="773" 
d="M232 885q0 16 11 27t27 11h22q7 0 12 -5t5 -12v-21q0 -17 -11.5 -28t-27.5 -11h-21q-8 0 -12.5 5t-4.5 12v22zM386 885q0 16 11 27t27 11h22q7 0 11.5 -5t4.5 -12v-21q0 -17 -11 -28t-27 -11h-22q-7 0 -11.5 5t-4.5 12v22zM694 616q17 0 28 -11t11 -28v-385
q0 -16 -11 -27t-28 -11h-20q-8 0 -13 -5.5t-5 -13.5v-97q0 -16 -11 -27t-28 -11h-385q-16 0 -27 11t-11 27v21q0 8 -5 13t-13 5h-20q-17 0 -28 11t-11 27v20q0 8 -5 13.5t-13 5.5h-20q-17 0 -28 11t-11 27v385q0 17 11 28t28 11h20q8 0 13 5t5 13v97q0 16 11 27.5t28 11.5
h384q17 0 28 -11.5t11 -27.5v-20q0 -8 5 -13t13 -5h20q17 0 28 -11.5t11 -27.5v-20q0 -8 5 -13t13 -5h20zM637 154q8 0 13.5 5t5.5 13v425q0 8 -5.5 13.5t-13.5 5.5h-20q-16 0 -27 11t-11 27v20q0 19 -19 19h-349q-7 0 -12 -5t-5 -12v-22q0 -16 -11 -27t-27 -11h-21
q-8 0 -13 -5.5t-5 -13.5v-425q0 -8 5 -13t13 -5h21q16 0 27 -11t11 -28v-20q0 -8 5 -13t13 -5h350q7 0 12 4.5t5 12.5v21q0 17 11 28t27 11h20z" />
    <glyph glyph-name="multiply" unicode="&#xd7;" horiz-adv-x="454" 
d="M265 250q0 -8 5.5 -13.5t13.5 -5.5h20q16 0 27 -11t11 -27v-20q0 -8 5.5 -13.5t13.5 -5.5h20q16 0 27 -11t11 -27v-22q0 -7 -4.5 -12t-12.5 -5h-21q-16 0 -27.5 11t-11.5 28v19q0 19 -19 19h-19q-16 0 -27.5 11t-11.5 28v19q0 8 -5 13.5t-13 5.5h-40q-15 0 -19 -16v-22
q0 -17 -11 -28t-27 -11h-19q-8 0 -13.5 -5.5t-5.5 -13.5v-19q0 -17 -11.5 -28t-27.5 -11h-22q-7 0 -11.5 5t-4.5 12v22q0 16 11 27t27 11h23q12 2 16 16v23q0 16 11 27t27 11h22q16 2 16 19v39q0 8 -5 13.5t-13 5.5h-20q-16 0 -27 11t-11 27v20q0 8 -5.5 13t-13.5 5v1h-20
q-16 0 -27 11t-11 27v22q0 7 4.5 12t11.5 5h22q16 0 27.5 -11t11.5 -28v-20q0 -15 15 -18h23q16 0 27 -11t11 -28v-19q0 -8 5.5 -13.5t13.5 -5.5h42q16 2 16 19v19q0 17 11.5 28t27.5 11h22q16 2 16 18v20q0 17 11.5 28t27.5 11h21q8 0 12.5 -5t4.5 -12v-22q0 -16 -11 -27
t-27 -11h-20q-16 0 -19 -17v-22q0 -16 -11 -27t-27 -11h-20q-16 0 -19 -17v-41z" />
    <glyph glyph-name="Oslash" unicode="&#xd8;" horiz-adv-x="773" 
d="M656 635q0 -8 5 -13.5t13 -5.5h20q16 0 27.5 -11t11.5 -27v-385q0 -17 -11.5 -28t-27.5 -11h-20q-8 0 -13 -5.5t-5 -13.5v-97q0 -16 -11.5 -27t-27.5 -11h-385q-16 0 -27 11t-11 28v19q0 8 -5.5 13.5t-13.5 5.5h-40q-8 0 -13 -5.5t-5 -13.5v-20q0 -16 -11.5 -27
t-27.5 -11h-21q-7 0 -12 5t-5 13v21q0 16 11 27t27 11h20q8 0 13.5 5.5t5.5 13.5v39q-2 19 -19 19h-20q-16 0 -27 11t-11 28v385q0 16 11 27t27 11h20q8 0 13.5 5.5t5.5 13.5v97q0 16 11 27t27 11h385q16 0 27.5 -11t11.5 -27v-20q0 -8 5 -13.5t13 -5.5h40q8 0 13.5 5.5
t5.5 13.5v20q0 16 11 27t27 11h21q8 0 13 -5t5 -13v-20q0 -17 -11.5 -28t-27.5 -11h-20q-8 0 -13 -5.5t-5 -13.5v-39zM117 173q0 -8 5 -13.5t13 -5.5h40q8 0 13.5 5.5t5.5 13.5v20q0 16 11 27t27 11h20q8 0 13.5 5.5t5.5 13.5v20q0 16 11 27t27 11h20q8 0 13.5 5.5t5.5 13.5
v96q0 17 11 28t27 11h20q8 0 13.5 5.5t5.5 13.5v20q0 16 11 27t27 11h20q8 0 13.5 5.5t5.5 13.5v20q0 16 11 27t27 11h20q8 0 13.5 5.5t5.5 13.5v39q0 8 -5.5 13.5t-13.5 5.5h-349q-7 0 -12 -5t-5 -13v-20q0 -17 -11.5 -28t-27.5 -11h-20q-8 0 -13 -5.5t-5 -13.5v-424z
M656 597q0 8 -5.5 13.5t-13.5 5.5h-40q-8 0 -13 -5.5t-5 -13.5v-19q0 -17 -11.5 -28t-27.5 -11h-20q-8 0 -13 -5.5t-5 -13.5v-19q0 -17 -11.5 -28t-27.5 -11h-20q-8 0 -13 -5.5t-5 -13.5v-96q0 -17 -11.5 -28t-27.5 -11h-20q-8 0 -13 -5.5t-5 -13.5v-20q0 -16 -11.5 -27
t-27.5 -11h-20q-8 0 -13 -5.5t-5 -13.5v-19q0 -17 -11.5 -28t-27.5 -11h-20q-8 0 -13 -5.5t-5 -13.5v-39q0 -8 5 -13.5t13 -5.5h349q8 0 13 5t5 13v21q0 16 11 27t27 11h20q8 0 13.5 5.5t5.5 13.5v424z" />
    <glyph glyph-name="Ugrave" unicode="&#xd9;" horiz-adv-x="696" 
d="M387 924q16 0 27 -11t11 -27v-22q0 -7 -4.5 -12t-11.5 -5h-22q-16 0 -27.5 11t-11.5 28v20q0 8 -5 13t-13 5h-20q-16 0 -27 11t-11 27v22q0 7 4.5 12t11.5 5h22q16 0 27 -11t11 -28v-20q0 -8 5.5 -13t13.5 -5h20zM579 731q0 16 11 27.5t27 11.5h22q7 0 12 -5t5 -12v-561
q0 -16 -11 -27t-28 -11h-20q-8 0 -13 -5t-5 -13v-98q0 -16 -11 -27t-28 -11h-307q-17 0 -28 11t-11 27v21q0 8 -5 13t-13 5h-20q-17 0 -28 11t-11 27v21q0 8 -5 13t-13 5h-20q-17 0 -28 11t-11 27v539q0 16 11 27.5t28 11.5h21q8 0 12.5 -5t4.5 -12v-581q0 -8 5.5 -13
t13.5 -5h20q16 0 27 -11t11 -28v-20q0 -8 5.5 -13t13.5 -5h272q7 0 12 4.5t5 12.5v21q0 17 11 28t27 11h21q8 0 13 5t5 13v559z" />
    <glyph glyph-name="Uacute" unicode="&#xda;" horiz-adv-x="696" 
d="M348 961q0 17 11 28t27 11h22q7 0 12 -5t5 -12v-22q0 -16 -11 -27t-28 -11h-20q-8 0 -13 -5t-5 -13v-20q0 -17 -11 -28t-27 -11h-22q-7 0 -12 5t-5 12v22q0 16 11 27t28 11h20q8 0 13 5t5 13v20zM579 731q0 16 11 27.5t27 11.5h22q7 0 12 -5t5 -12v-561q0 -16 -11 -27
t-28 -11h-20q-8 0 -13 -5t-5 -13v-98q0 -16 -11 -27t-28 -11h-307q-17 0 -28 11t-11 27v21q0 8 -5 13t-13 5h-20q-17 0 -28 11t-11 27v21q0 8 -5 13t-13 5h-20q-17 0 -28 11t-11 27v539q0 16 11 27.5t28 11.5h21q8 0 12.5 -5t4.5 -12v-581q0 -8 5.5 -13t13.5 -5h20
q16 0 27 -11t11 -28v-20q0 -8 5.5 -13t13.5 -5h272q7 0 12 4.5t5 12.5v21q0 17 11 28t27 11h21q8 0 13 5t5 13v559z" />
    <glyph glyph-name="Ucircumflex" unicode="&#xdb;" horiz-adv-x="696" 
d="M424 923q16 0 27.5 -11t11.5 -28v-21q0 -8 -5 -12.5t-12 -4.5h-22q-16 0 -27 11t-11 27v20q0 8 -5.5 13.5t-13.5 5.5h-40q-8 0 -13 -5.5t-5 -13.5v-20q0 -16 -11 -27t-28 -11h-21q-17 0 -17 17v21q0 17 11 28t27 11h20q8 0 13.5 5t5.5 13v20q0 17 11 28t28 11
q16 -1 27 -12.5t11 -27.5v-19q0 -8 5 -13t13 -5h20zM579 731q0 16 11 27.5t27 11.5h22q7 0 12 -5t5 -12v-561q0 -16 -11 -27t-28 -11h-20q-8 0 -13 -5t-5 -13v-98q0 -16 -11 -27t-28 -11h-307q-17 0 -28 11t-11 27v21q0 8 -5 13t-13 5h-20q-17 0 -28 11t-11 27v21q0 8 -5 13
t-13 5h-20q-17 0 -28 11t-11 27v539q0 16 11 27.5t28 11.5h21q8 0 12.5 -5t4.5 -12v-581q0 -8 5.5 -13t13.5 -5h20q16 0 27 -11t11 -28v-20q0 -8 5.5 -13t13.5 -5h272q7 0 12 4.5t5 12.5v21q0 17 11 28t27 11h21q8 0 13 5t5 13v559z" />
    <glyph glyph-name="Udieresis" unicode="&#xdc;" horiz-adv-x="696" 
d="M232 885q0 16 11 27t27 11h22q7 0 12 -5t5 -12v-21q0 -17 -11.5 -28t-27.5 -11h-21q-8 0 -12.5 5t-4.5 12v22zM386 885q0 16 11 27t27 11h22q7 0 11.5 -5t4.5 -12v-21q0 -17 -11 -28t-27 -11h-22q-7 0 -11.5 5t-4.5 12v22zM579 731q0 16 11 27.5t27 11.5h22q7 0 12 -5
t5 -12v-561q0 -16 -11 -27t-28 -11h-20q-8 0 -13 -5t-5 -13v-98q0 -16 -11 -27t-28 -11h-307q-17 0 -28 11t-11 27v21q0 8 -5 13t-13 5h-20q-17 0 -28 11t-11 27v21q0 8 -5 13t-13 5h-20q-17 0 -28 11t-11 27v539q0 16 11 27.5t28 11.5h21q8 0 12.5 -5t4.5 -12v-581
q0 -8 5.5 -13t13.5 -5h20q16 0 27 -11t11 -28v-20q0 -8 5.5 -13t13.5 -5h272q7 0 12 4.5t5 12.5v21q0 17 11 28t27 11h21q8 0 13 5t5 13v559z" />
    <glyph glyph-name="Yacute" unicode="&#xdd;" horiz-adv-x="619" 
d="M309 961q0 17 11 28t27 11h22q7 0 12 -5t5 -12v-22q0 -16 -11 -27t-28 -11h-20q-8 0 -13 -5t-5 -13v-20q0 -17 -11 -28t-27 -11h-22q-7 0 -12 5t-5 12v22q0 16 11 27t28 11h20q8 0 13 5t5 13v20zM502 732q0 16 11 27t27 11h22q7 0 12 -4.5t5 -12.5v-175q0 -17 -11.5 -28
t-27.5 -11h-22q-16 0 -16 -17v-98q0 -16 -11.5 -27.5t-27.5 -11.5h-97q-8 0 -13 -5t-5 -13v-328q0 -16 -11.5 -27.5t-27.5 -11.5h-22q-7 0 -11.5 5t-4.5 12v350q0 8 -5.5 13t-13.5 5h-97q-16 0 -27 11.5t-11 27.5v98q0 8 -5 12.5t-12 4.5h-22q-16 0 -27 11t-11 28v154
q0 16 11 27t27 11h22q7 0 12 -4.5t5 -12.5v-120q0 -7 4.5 -12t12.5 -5h21q16 0 27.5 -11t11.5 -27v-99q0 -7 4.5 -12t11.5 -5h22q16 0 27.5 -11t11.5 -27v-20q0 -8 5 -13.5t13 -5.5h40q8 0 13.5 5.5t5.5 13.5v20q0 16 11 27t27 11h22q7 0 12 5t5 12v99q0 16 11 27t27 11h22
q7 0 12 5t5 12v99z" />
    <glyph glyph-name="germandbls" unicode="&#xdf;" horiz-adv-x="465" 
d="M386 616q16 0 27.5 -11t11.5 -28v-154q0 -16 -11.5 -27t-27.5 -11h-20q-8 0 -13 -5.5t-5 -13.5v-39q0 -8 5 -13.5t13 -5.5h20q16 0 27.5 -11t11.5 -28v-154q0 -16 -11.5 -27t-27.5 -11h-20q-8 0 -13 -5.5t-5 -13.5v-20q0 -16 -11.5 -27t-27.5 -11h-99q-7 0 -11.5 5
t-4.5 12v21q0 17 11 28t27 11h97q8 0 13.5 5.5t5.5 13.5v193q0 8 -5.5 13.5t-13.5 5.5h-97q-16 0 -27 11t-11 27v22q0 7 4.5 12t11.5 5h119q8 0 13.5 5.5t5.5 13.5v193q0 8 -5.5 13.5t-13.5 5.5h-20q-16 0 -27 11t-11 27v20q0 8 -5.5 13.5t-13.5 5.5h-135v-655
q0 -16 -11.5 -27t-27.5 -11h-21q-8 0 -12.5 5t-4.5 12v714q0 16 11 27.5t27 11.5h154q16 0 27.5 -11.5t11.5 -27.5v-19q0 -8 5 -13.5t13 -5.5h20q16 0 27.5 -11.5t11.5 -27.5v-19q0 -8 5 -13.5t13 -5.5h20z" />
    <glyph glyph-name="agrave" unicode="&#xe0;" 
d="M304 692q17 0 28 -11.5t11 -27.5v-21q0 -8 -5 -12.5t-12 -4.5h-22q-16 0 -27 11t-11 27v20q0 8 -5.5 13.5t-13.5 5.5h-20q-16 0 -27 11t-11 27v22q0 7 5 12t12 5h21q17 0 28 -11.5t11 -27.5v-20q0 -8 5 -13t13 -5h20zM150 0q-16 0 -27 11t-11 27v20q0 19 -19 19h-20
q-16 0 -27 11t-11 27v77q0 16 11 27.5t27 11.5h20q8 0 13.5 5t5.5 13v20q0 16 11 27t27 11h308q16 0 27 -11t11 -27v174q0 8 -5 13t-13 5h-348q-8 0 -13 -5t-5 -13v-20q0 -17 -11 -28t-28 -11h-21q-7 0 -12 5t-5 12v22q0 16 11 27t27 11h20q8 0 13.5 5t5.5 13v20q0 17 11 28
t27 11h308q16 0 27 -11t11 -28v-20q0 -8 5 -13t13 -5h20q17 0 28 -11t11 -27v-231q0 -16 -11 -27t-28 -11h-20q-8 0 -13 -5.5t-5 -13.5v-97q0 -16 -11 -27t-27 -11h-308zM402 77q17 0 17 17v21q0 16 11 27.5t28 11.5h20q8 0 13 5t5 13v42q0 7 -4.5 12t-12.5 5h-349
q-8 0 -13 -5.5t-5 -13.5v-117q0 -8 5 -13t13 -5h272z" />
    <glyph glyph-name="aacute" unicode="&#xe1;" 
d="M304 729q0 17 11 28t27 11h22q7 0 12 -5t5 -12v-22q0 -16 -11 -27t-28 -11h-20q-8 0 -13 -5t-5 -13v-20q0 -17 -11 -28t-27 -11h-22q-7 0 -12 5t-5 12v22q0 16 11 27t28 11h20q8 0 13 5t5 13v20zM150 0q-16 0 -27 11t-11 27v20q0 19 -19 19h-20q-16 0 -27 11t-11 27v77
q0 16 11 27.5t27 11.5h20q8 0 13.5 5t5.5 13v20q0 16 11 27t27 11h308q16 0 27 -11t11 -27v174q0 8 -5 13t-13 5h-348q-8 0 -13 -5t-5 -13v-20q0 -17 -11 -28t-28 -11h-21q-7 0 -12 5t-5 12v22q0 16 11 27t27 11h20q8 0 13.5 5t5.5 13v20q0 17 11 28t27 11h308q16 0 27 -11
t11 -28v-20q0 -8 5 -13t13 -5h20q17 0 28 -11t11 -27v-231q0 -16 -11 -27t-28 -11h-20q-8 0 -13 -5.5t-5 -13.5v-97q0 -16 -11 -27t-27 -11h-308zM402 77q17 0 17 17v21q0 16 11 27.5t28 11.5h20q8 0 13 5t5 13v42q0 7 -4.5 12t-12.5 5h-349q-8 0 -13 -5.5t-5 -13.5v-117
q0 -8 5 -13t13 -5h272z" />
    <glyph glyph-name="acircumflex" unicode="&#xe2;" 
d="M380 691q16 0 27.5 -11t11.5 -28v-21q0 -8 -5 -12.5t-12 -4.5h-22q-16 0 -27 11t-11 27v20q0 8 -5.5 13.5t-13.5 5.5h-40q-8 0 -13 -5.5t-5 -13.5v-20q0 -16 -11 -27t-28 -11h-21q-17 0 -17 17v21q0 17 11 28t27 11h20q8 0 13.5 5t5.5 13v20q0 17 11 28t28 11
q16 -1 27 -12.5t11 -27.5v-19q0 -8 5 -13t13 -5h20zM150 0q-16 0 -27 11t-11 27v20q0 19 -19 19h-20q-16 0 -27 11t-11 27v77q0 16 11 27.5t27 11.5h20q8 0 13.5 5t5.5 13v20q0 16 11 27t27 11h308q16 0 27 -11t11 -27v174q0 8 -5 13t-13 5h-348q-8 0 -13 -5t-5 -13v-20
q0 -17 -11 -28t-28 -11h-21q-7 0 -12 5t-5 12v22q0 16 11 27t27 11h20q8 0 13.5 5t5.5 13v20q0 17 11 28t27 11h308q16 0 27 -11t11 -28v-20q0 -8 5 -13t13 -5h20q17 0 28 -11t11 -27v-231q0 -16 -11 -27t-28 -11h-20q-8 0 -13 -5.5t-5 -13.5v-97q0 -16 -11 -27t-27 -11
h-308zM402 77q17 0 17 17v21q0 16 11 27.5t28 11.5h20q8 0 13 5t5 13v42q0 7 -4.5 12t-12.5 5h-349q-8 0 -13 -5.5t-5 -13.5v-117q0 -8 5 -13t13 -5h272z" />
    <glyph glyph-name="atilde" unicode="&#xe3;" 
d="M480 768q7 0 12 -4.5t5 -11.5v-22q0 -16 -11.5 -27t-27.5 -11h-20q-8 0 -13 -5.5t-5 -13.5v-20q0 -15 -11 -26.5t-27 -11.5q-17 0 -28 11.5t-11 27.5v19q0 8 -5.5 13.5t-13.5 5.5h-40q-8 0 -13 -5.5t-5 -13.5v-20q0 -16 -11 -27t-28 -11h-21q-17 0 -17 16v22
q0 16 11 27.5t27 11.5h20q8 0 13.5 5t5.5 13v20q0 15 10.5 26.5t26.5 11.5q17 0 28.5 -11.5t11.5 -27.5v-19q0 -8 5 -13t13 -5h40q8 0 13.5 5t5.5 13v20q0 16 11 27t27 11h22zM150 0q-16 0 -27 11t-11 27v20q0 19 -19 19h-20q-16 0 -27 11t-11 27v77q0 16 11 27.5t27 11.5
h20q8 0 13.5 5t5.5 13v20q0 16 11 27t27 11h308q16 0 27 -11t11 -27v174q0 8 -5 13t-13 5h-348q-8 0 -13 -5t-5 -13v-20q0 -17 -11 -28t-28 -11h-21q-7 0 -12 5t-5 12v22q0 16 11 27t27 11h20q8 0 13.5 5t5.5 13v20q0 17 11 28t27 11h308q16 0 27 -11t11 -28v-20q0 -8 5 -13
t13 -5h20q17 0 28 -11t11 -27v-231q0 -16 -11 -27t-28 -11h-20q-8 0 -13 -5.5t-5 -13.5v-97q0 -16 -11 -27t-27 -11h-308zM402 77q17 0 17 17v21q0 16 11 27.5t28 11.5h20q8 0 13 5t5 13v42q0 7 -4.5 12t-12.5 5h-349q-8 0 -13 -5.5t-5 -13.5v-117q0 -8 5 -13t13 -5h272z
" />
    <glyph glyph-name="adieresis" unicode="&#xe4;" 
d="M188 653q0 16 11 27t27 11h22q7 0 12 -5t5 -12v-21q0 -17 -11.5 -28t-27.5 -11h-21q-8 0 -12.5 5t-4.5 12v22zM342 653q0 16 11 27t27 11h22q7 0 11.5 -5t4.5 -12v-21q0 -17 -11 -28t-27 -11h-22q-7 0 -11.5 5t-4.5 12v22zM150 0q-16 0 -27 11t-11 27v20q0 19 -19 19h-20
q-16 0 -27 11t-11 27v77q0 16 11 27.5t27 11.5h20q8 0 13.5 5t5.5 13v20q0 16 11 27t27 11h308q16 0 27 -11t11 -27v174q0 8 -5 13t-13 5h-348q-8 0 -13 -5t-5 -13v-20q0 -17 -11 -28t-28 -11h-21q-7 0 -12 5t-5 12v22q0 16 11 27t27 11h20q8 0 13.5 5t5.5 13v20q0 17 11 28
t27 11h308q16 0 27 -11t11 -28v-20q0 -8 5 -13t13 -5h20q17 0 28 -11t11 -27v-231q0 -16 -11 -27t-28 -11h-20q-8 0 -13 -5.5t-5 -13.5v-97q0 -16 -11 -27t-27 -11h-308zM402 77q17 0 17 17v21q0 16 11 27.5t28 11.5h20q8 0 13 5t5 13v42q0 7 -4.5 12t-12.5 5h-349
q-8 0 -13 -5.5t-5 -13.5v-117q0 -8 5 -13t13 -5h272z" />
    <glyph glyph-name="aring" unicode="&#xe5;" 
d="M150 0q-16 0 -27 11t-11 27v20q0 19 -19 19h-20q-16 0 -27 11t-11 27v77q0 16 11 27.5t27 11.5h20q8 0 13.5 5t5.5 13v20q0 16 11 27t27 11h308q16 0 27 -11t11 -27v174q0 8 -5 13t-13 5h-348q-8 0 -13 -5t-5 -13v-20q0 -17 -11 -28t-28 -11h-21q-7 0 -12 5t-5 12v22
q0 16 11 27t27 11h20q8 0 13.5 5t5.5 13v20q0 17 11 28t27 11h308q16 0 27 -11t11 -28v-20q0 -8 5 -13t13 -5h20q17 0 28 -11t11 -27v-231q0 -16 -11 -27t-28 -11h-20q-8 0 -13 -5.5t-5 -13.5v-97q0 -16 -11 -27t-27 -11h-308zM391 767q16 0 27 -11t11 -27t-11 -27t-27 -11
h-21q-8 0 -13 -5.5t-5 -13.5v-20q0 -15 -11 -26.5t-26 -11.5q-17 0 -28.5 11.5t-11.5 27.5v19q0 8 -5 13.5t-13 5.5h-20q-17 0 -28 11t-11 27t11 27t28 11h20q8 0 13 5.5t5 13.5v20q0 15 11 26.5t26 11.5q17 0 28.5 -11.5t11.5 -27.5v-19q0 -8 5 -13.5t13 -5.5h21zM402 77
q17 0 17 17v21q0 16 11 27.5t28 11.5h20q8 0 13 5t5 13v42q0 7 -4.5 12t-12.5 5h-349q-8 0 -13 -5.5t-5 -13.5v-117q0 -8 5 -13t13 -5h272zM352 749q0 8 -5 13t-13 5h-40q-8 0 -13.5 -5t-5.5 -13v-40q0 -8 5.5 -13t13.5 -5h40q8 0 13 5t5 13v40z" />
    <glyph glyph-name="ae" unicode="&#xe6;" horiz-adv-x="916" 
d="M842 461q16 0 27.5 -11t11.5 -27v-77q0 -16 -11.5 -27.5t-27.5 -11.5h-20q-8 0 -13 -5t-5 -13v-20q0 -16 -11.5 -27t-27.5 -11h-230q-16 0 -27.5 11t-11.5 27v-97q0 -8 5.5 -13t13.5 -5h20q16 0 27 -11.5t11 -27.5v-20q0 -8 5.5 -13t13.5 -5h193q8 0 13.5 5t5.5 13v20
q0 16 11 27.5t27 11.5h22q7 0 12 -5t5 -12v-22q0 -16 -11.5 -27t-27.5 -11h-20q-8 0 -13 -5.5t-5 -13.5v-20q0 -16 -11.5 -27t-27.5 -11h-153q-17 0 -28 11t-11 27v20q0 8 -5 13.5t-13 5.5h-20q-16 0 -27.5 11t-11.5 27v20q0 8 -5 13.5t-13 5.5h-40q-8 0 -13.5 -5.5
t-5.5 -13.5v-97q0 -16 -11 -27t-27 -11h-231q-16 0 -27 11t-11 27v20q0 8 -5 13.5t-13 5.5h-20q-17 0 -28 11t-11 27v77q0 16 11 27.5t28 11.5h20q8 0 13 5t5 13v20q0 16 11 27t27 11h231q16 0 27 -11t11 -27v174q0 8 -5 13t-13 5h-271q-8 0 -13 -5t-5 -13v-20
q0 -17 -11 -28t-27 -11h-22q-7 0 -12 5t-5 12v22q0 16 11 27t28 11h20q8 0 13 5t5 13v20q0 17 11 28t27 11h231q16 0 27 -11t11 -28v-20q0 -8 5.5 -13t13.5 -5h20q16 0 27 -11t11 -27v76q0 17 11.5 28t27.5 11h230q16 0 27.5 -11t11.5 -28v-20q0 -8 5 -13t13 -5h20zM804 443
q0 8 -5.5 13t-13.5 5h-195q-7 0 -12 -4.5t-5 -12.5v-21q0 -17 -11 -28t-27 -11h-20q-8 0 -13.5 -5t-5.5 -13v-42q0 -7 5 -12t12 -5h272q8 0 13.5 5.5t5.5 13.5v117zM419 214q0 7 -4.5 12t-11.5 5h-273q-8 0 -13 -5.5t-5 -13.5v-117q0 -8 5 -13t13 -5h196q7 0 12 4.5t5 12.5
v21q0 16 11 27.5t27 11.5h20q8 0 13 5t5 13v42z" />
    <glyph glyph-name="ccedilla" unicode="&#xe7;" 
d="M534 384q-16 0 -27 11t-11 28v20q0 8 -5 13t-13 5h-273q-16 0 -16 -17v-21q0 -17 -11.5 -28t-27.5 -11h-20q-8 0 -13 -5t-5 -13v-194q0 -8 5 -13t13 -5h20q16 0 27.5 -11.5t11.5 -27.5v-20q0 -8 5 -13t13 -5h271q8 0 13 5t5 13v20q0 16 11 27.5t27 11.5h22q7 0 12 -5
t5 -12v-22q0 -16 -11 -27t-28 -11h-20q-8 0 -13 -5.5t-5 -13.5v-20q0 -16 -11 -27t-27 -11h-77q-16 0 -16 -17v-41q0 -8 5 -13.5t13 -5.5h20q16 0 27.5 -11t10.5 -28q0 -16 -11.5 -27t-27.5 -11h-19q-8 0 -13 -5t-5 -13v-20q0 -16 -11.5 -27.5t-27.5 -11.5h-22q-7 0 -11.5 5
t-4.5 12v22q0 16 11 27t27 11h20q8 0 13.5 5.5t5.5 13.5v40q0 8 -5.5 13t-13.5 5h-19q-16 0 -27.5 11t-11.5 27q-1 16 10.5 27.5t27.5 11.5h-99q-16 0 -27 11t-11 27v20q0 8 -5.5 13.5t-13.5 5.5h-20q-16 0 -27 11t-11 27v20q0 8 -5.5 13.5t-13.5 5.5h-20q-16 0 -27 11
t-11 27v154q0 16 11 27t27 11h20q19 0 19 19v96q0 17 11 28t27 11h308q16 0 27 -11t11 -28v-20q0 -8 5 -13t13 -5h20q17 0 28 -11t11 -27v-22q0 -7 -5 -12t-12 -5h-22z" />
    <glyph glyph-name="egrave" unicode="&#xe8;" 
d="M330 694q16 0 27 -11t11 -27v-22q0 -7 -4.5 -12t-11.5 -5h-22q-16 0 -27.5 11t-11.5 28v20q0 8 -5 13t-13 5h-20q-16 0 -27 11t-11 27v22q0 7 4.5 12t11.5 5h22q16 0 27 -11t11 -28v-20q0 -8 5.5 -13t13.5 -5h20zM535 461q16 0 27 -11t11 -27v-77q0 -16 -11 -27.5
t-27 -11.5h-20q-8 0 -13.5 -5t-5.5 -13v-20q0 -16 -11 -27t-27 -11h-308q-16 0 -27 11t-11 27v-97q0 -8 5 -13t13 -5h20q17 0 28 -11.5t11 -27.5v-20q0 -8 5 -13t13 -5h271q8 0 13 5t5 13v20q0 16 11 27.5t28 11.5h21q7 0 12 -5t5 -12v-22q0 -16 -11 -27t-27 -11h-20
q-19 0 -19 -19v-20q0 -16 -11 -27t-27 -11h-231q-16 0 -27 11t-11 27v20q0 8 -5.5 13.5t-13.5 5.5h-20q-16 0 -27 11t-11 27v20q0 8 -5.5 13.5t-13.5 5.5h-20q-16 0 -27 11t-11 27v154q0 16 11 27t27 11h20q19 0 19 19v96q0 17 11 28t27 11h308q16 0 27 -11t11 -28v-20
q0 -8 5.5 -13t13.5 -5h20zM478 307q8 0 13 5.5t5 13.5v117q0 8 -5 13t-13 5h-272q-17 0 -17 -17v-21q0 -17 -11 -28t-28 -11h-20q-8 0 -13 -5t-5 -13v-42q0 -7 4.5 -12t12.5 -5h349z" />
    <glyph glyph-name="eacute" unicode="&#xe9;" 
d="M304 731q0 17 11 28t27 11h22q7 0 12 -5t5 -12v-22q0 -16 -11 -27t-28 -11h-20q-8 0 -13 -5t-5 -13v-20q0 -17 -11 -28t-27 -11h-22q-7 0 -12 5t-5 12v22q0 16 11 27t28 11h20q8 0 13 5t5 13v20zM535 461q16 0 27 -11t11 -27v-77q0 -16 -11 -27.5t-27 -11.5h-20
q-8 0 -13.5 -5t-5.5 -13v-20q0 -16 -11 -27t-27 -11h-308q-16 0 -27 11t-11 27v-97q0 -8 5 -13t13 -5h20q17 0 28 -11.5t11 -27.5v-20q0 -8 5 -13t13 -5h271q8 0 13 5t5 13v20q0 16 11 27.5t28 11.5h21q7 0 12 -5t5 -12v-22q0 -16 -11 -27t-27 -11h-20q-19 0 -19 -19v-20
q0 -16 -11 -27t-27 -11h-231q-16 0 -27 11t-11 27v20q0 8 -5.5 13.5t-13.5 5.5h-20q-16 0 -27 11t-11 27v20q0 8 -5.5 13.5t-13.5 5.5h-20q-16 0 -27 11t-11 27v154q0 16 11 27t27 11h20q19 0 19 19v96q0 17 11 28t27 11h308q16 0 27 -11t11 -28v-20q0 -8 5.5 -13t13.5 -5
h20zM478 307q8 0 13 5.5t5 13.5v117q0 8 -5 13t-13 5h-272q-17 0 -17 -17v-21q0 -17 -11 -28t-28 -11h-20q-8 0 -13 -5t-5 -13v-42q0 -7 4.5 -12t12.5 -5h349z" />
    <glyph glyph-name="ecircumflex" unicode="&#xea;" 
d="M389 693q16 0 27.5 -11t11.5 -28v-21q0 -8 -5 -12.5t-12 -4.5h-22q-16 0 -27 11t-11 27v20q0 8 -5.5 13.5t-13.5 5.5h-40q-8 0 -13 -5.5t-5 -13.5v-20q0 -16 -11 -27t-28 -11h-21q-17 0 -17 17v21q0 17 11 28t27 11h20q8 0 13.5 5t5.5 13v20q0 17 11 28t28 11
q16 -1 27 -12.5t11 -27.5v-19q0 -8 5 -13t13 -5h20zM535 461q16 0 27 -11t11 -27v-77q0 -16 -11 -27.5t-27 -11.5h-20q-8 0 -13.5 -5t-5.5 -13v-20q0 -16 -11 -27t-27 -11h-308q-16 0 -27 11t-11 27v-97q0 -8 5 -13t13 -5h20q17 0 28 -11.5t11 -27.5v-20q0 -8 5 -13t13 -5
h271q8 0 13 5t5 13v20q0 16 11 27.5t28 11.5h21q7 0 12 -5t5 -12v-22q0 -16 -11 -27t-27 -11h-20q-19 0 -19 -19v-20q0 -16 -11 -27t-27 -11h-231q-16 0 -27 11t-11 27v20q0 8 -5.5 13.5t-13.5 5.5h-20q-16 0 -27 11t-11 27v20q0 8 -5.5 13.5t-13.5 5.5h-20q-16 0 -27 11
t-11 27v154q0 16 11 27t27 11h20q19 0 19 19v96q0 17 11 28t27 11h308q16 0 27 -11t11 -28v-20q0 -8 5.5 -13t13.5 -5h20zM478 307q8 0 13 5.5t5 13.5v117q0 8 -5 13t-13 5h-272q-17 0 -17 -17v-21q0 -17 -11 -28t-28 -11h-20q-8 0 -13 -5t-5 -13v-42q0 -7 4.5 -12t12.5 -5
h349z" />
    <glyph glyph-name="edieresis" unicode="&#xeb;" 
d="M197 655q0 16 11 27t27 11h22q7 0 12 -5t5 -12v-21q0 -17 -11.5 -28t-27.5 -11h-21q-8 0 -12.5 5t-4.5 12v22zM351 655q0 16 11 27t27 11h22q7 0 11.5 -5t4.5 -12v-21q0 -17 -11 -28t-27 -11h-22q-7 0 -11.5 5t-4.5 12v22zM535 461q16 0 27 -11t11 -27v-77
q0 -16 -11 -27.5t-27 -11.5h-20q-8 0 -13.5 -5t-5.5 -13v-20q0 -16 -11 -27t-27 -11h-308q-16 0 -27 11t-11 27v-97q0 -8 5 -13t13 -5h20q17 0 28 -11.5t11 -27.5v-20q0 -8 5 -13t13 -5h271q8 0 13 5t5 13v20q0 16 11 27.5t28 11.5h21q7 0 12 -5t5 -12v-22q0 -16 -11 -27
t-27 -11h-20q-19 0 -19 -19v-20q0 -16 -11 -27t-27 -11h-231q-16 0 -27 11t-11 27v20q0 8 -5.5 13.5t-13.5 5.5h-20q-16 0 -27 11t-11 27v20q0 8 -5.5 13.5t-13.5 5.5h-20q-16 0 -27 11t-11 27v154q0 16 11 27t27 11h20q19 0 19 19v96q0 17 11 28t27 11h308q16 0 27 -11
t11 -28v-20q0 -8 5.5 -13t13.5 -5h20zM478 307q8 0 13 5.5t5 13.5v117q0 8 -5 13t-13 5h-272q-17 0 -17 -17v-21q0 -17 -11 -28t-28 -11h-20q-8 0 -13 -5t-5 -13v-42q0 -7 4.5 -12t12.5 -5h349z" />
    <glyph glyph-name="igrave" unicode="&#xec;" horiz-adv-x="244" 
d="M136 692q16 0 27 -11t11 -27v-22q0 -7 -4.5 -12t-12.5 -5h-21q-16 0 -27.5 11.5t-11.5 27.5v20q0 8 -5 13t-13 5h-20q-16 0 -27.5 11.5t-11.5 27.5v21q0 8 5 12.5t12 4.5h22q16 0 27 -11t11 -27v-20q0 -8 5.5 -13.5t13.5 -5.5h20zM97 500q0 16 11.5 27t27.5 11h21
q17 0 17 -17v-482q0 -17 -11 -28t-27 -11h-22q-7 0 -12 5t-5 12v483z" />
    <glyph glyph-name="iacute" unicode="&#xed;" horiz-adv-x="244" 
d="M147 731q0 16 11 27.5t27 11.5h22q7 0 12 -5t5 -12v-22q0 -16 -11 -27t-28 -11h-20q-8 0 -13 -5.5t-5 -13.5v-20q0 -16 -11 -27t-27 -11h-22q-7 0 -12 4.5t-5 11.5v22q0 16 11 27.5t28 11.5h20q8 0 13 5t5 13v20zM70 500q0 16 11 27t28 11h21q7 0 12 -4.5t5 -11.5v-483
q0 -16 -11 -27.5t-27 -11.5h-22q-7 0 -12 5t-5 12v483z" />
    <glyph glyph-name="icircumflex" unicode="&#xee;" horiz-adv-x="271" 
d="M212 692q16 0 27.5 -11t11.5 -28v-21q0 -7 -5 -12t-12 -5h-22q-16 0 -27 11t-11 28v20q0 8 -5.5 13t-13.5 5h-40q-8 0 -13 -5t-5 -13v-20q0 -17 -11 -28t-28 -11h-21q-8 0 -12.5 5t-4.5 12v22q0 16 11 27t27 11h20q8 0 13.5 5t5.5 13v20q0 17 11 28t28 11q16 -1 27 -12.5
t11 -27.5v-19q0 -8 5 -13t13 -5h20zM97 499q0 16 11 27.5t27 11.5h22q7 0 12 -5t5 -12v-483q0 -16 -11.5 -27t-27.5 -11h-21q-17 0 -17 16v483z" />
    <glyph glyph-name="idieresis" unicode="&#xef;" horiz-adv-x="271" 
d="M20 654q0 16 11.5 27t27.5 11h22q16 0 16 -17v-21q0 -16 -11 -27.5t-27 -11.5h-22q-7 0 -12 5t-5 12v22zM174 654q0 16 11 27t28 11h21q17 0 17 -17v-21q0 -16 -11 -27.5t-27 -11.5h-22q-7 0 -12 5t-5 12v22zM97 499q0 17 11.5 28t27.5 11h21q8 0 12.5 -5t4.5 -12v-483
q0 -16 -11 -27t-27 -11h-22q-7 0 -12 5t-5 12v482z" />
    <glyph glyph-name="ntilde" unicode="&#xf1;" horiz-adv-x="638" 
d="M484 770q7 0 12 -4.5t5 -11.5v-22q0 -16 -11.5 -27t-27.5 -11h-20q-8 0 -13 -5.5t-5 -13.5v-20q0 -15 -11 -26.5t-27 -11.5q-17 0 -28 11.5t-11 27.5v19q0 8 -5.5 13.5t-13.5 5.5h-40q-8 0 -13 -5.5t-5 -13.5v-20q0 -16 -11 -27t-28 -11h-21q-17 0 -17 16v22
q0 16 11 27.5t27 11.5h20q8 0 13.5 5t5.5 13v20q0 15 10.5 26.5t26.5 11.5q17 0 28.5 -11.5t11.5 -27.5v-19q0 -8 5 -13t13 -5h40q8 0 13.5 5t5.5 13v20q0 16 11 27t27 11h22zM549 461q16 0 27.5 -11t11.5 -27v-385q0 -16 -11.5 -27t-27.5 -11h-21q-8 0 -12.5 5t-4.5 12v426
q0 8 -5.5 13t-13.5 5h-270q-8 0 -13.5 -5t-5.5 -13v-20q0 -17 -11 -28t-27 -11h-22q-16 0 -16 -17v-329q0 -16 -11.5 -27t-27.5 -11h-21q-8 0 -12.5 5t-4.5 12v482q0 17 11 28t27 11h22q7 0 12 -5t5 -12v-98q0 16 11 27t27 11h20q8 0 13 5t5 13v20q0 17 11.5 28t27.5 11h230
q17 0 28 -11t11 -28v-20q0 -8 5 -13t13 -5h20z" />
    <glyph glyph-name="ograve" unicode="&#xf2;" horiz-adv-x="685" 
d="M330 694q16 0 27 -11t11 -27v-22q0 -7 -4.5 -12t-11.5 -5h-22q-16 0 -27.5 11t-11.5 28v20q0 8 -5 13t-13 5h-20q-16 0 -27 11t-11 27v22q0 7 4.5 12t11.5 5h22q16 0 27 -11t11 -28v-20q0 -8 5.5 -13t13.5 -5h20zM611 384q17 0 28 -11t11 -27v-154q0 -16 -11 -27t-28 -11
h-20q-8 0 -13 -5.5t-5 -13.5v-97q0 -16 -11 -27t-28 -11h-307q-16 0 -27 11t-11 27v20q0 8 -5.5 13.5t-13.5 5.5h-20q-16 0 -27 11t-11 27v20q0 8 -5.5 13.5t-13.5 5.5h-20q-16 0 -27 11t-11 27v154q0 16 11 27t27 11h20q19 0 19 19v96q0 17 11 28t27 11h308q16 0 27 -11
t11 -28v-20q0 -8 5 -13t13 -5h20q17 0 28 -11t11 -27v-20q0 -8 5 -13.5t13 -5.5h20zM554 154q8 0 13.5 5t5.5 13v194q0 8 -5.5 13t-13.5 5h-20q-16 0 -27 11t-11 28v20q0 8 -5 13t-13 5h-289v-38q0 -17 -11.5 -28t-27.5 -11h-20q-8 0 -13 -5t-5 -13v-194q0 -8 5 -13t13 -5
h20q16 0 27.5 -11.5t11.5 -27.5v-20q0 -8 5 -13t13 -5h289v38q0 16 11 27.5t27 11.5h20z" />
    <glyph glyph-name="oacute" unicode="&#xf3;" horiz-adv-x="685" 
d="M304 731q0 17 11 28t27 11h22q7 0 12 -5t5 -12v-22q0 -16 -11 -27t-28 -11h-20q-8 0 -13 -5t-5 -13v-20q0 -17 -11 -28t-27 -11h-22q-7 0 -12 5t-5 12v22q0 16 11 27t28 11h20q8 0 13 5t5 13v20zM611 384q17 0 28 -11t11 -27v-154q0 -16 -11 -27t-28 -11h-20
q-8 0 -13 -5.5t-5 -13.5v-97q0 -16 -11 -27t-28 -11h-307q-16 0 -27 11t-11 27v20q0 8 -5.5 13.5t-13.5 5.5h-20q-16 0 -27 11t-11 27v20q0 8 -5.5 13.5t-13.5 5.5h-20q-16 0 -27 11t-11 27v154q0 16 11 27t27 11h20q19 0 19 19v96q0 17 11 28t27 11h308q16 0 27 -11t11 -28
v-20q0 -8 5 -13t13 -5h20q17 0 28 -11t11 -27v-20q0 -8 5 -13.5t13 -5.5h20zM554 154q8 0 13.5 5t5.5 13v194q0 8 -5.5 13t-13.5 5h-20q-16 0 -27 11t-11 28v20q0 8 -5 13t-13 5h-289v-38q0 -17 -11.5 -28t-27.5 -11h-20q-8 0 -13 -5t-5 -13v-194q0 -8 5 -13t13 -5h20
q16 0 27.5 -11.5t11.5 -27.5v-20q0 -8 5 -13t13 -5h289v38q0 16 11 27.5t27 11.5h20z" />
    <glyph glyph-name="ocircumflex" unicode="&#xf4;" horiz-adv-x="685" 
d="M389 693q16 0 27.5 -11t11.5 -28v-21q0 -8 -5 -12.5t-12 -4.5h-22q-16 0 -27 11t-11 27v20q0 8 -5.5 13.5t-13.5 5.5h-40q-8 0 -13 -5.5t-5 -13.5v-20q0 -16 -11 -27t-28 -11h-21q-17 0 -17 17v21q0 17 11 28t27 11h20q8 0 13.5 5t5.5 13v20q0 17 11 28t28 11
q16 -1 27 -12.5t11 -27.5v-19q0 -8 5 -13t13 -5h20zM611 384q17 0 28 -11t11 -27v-154q0 -16 -11 -27t-28 -11h-20q-8 0 -13 -5.5t-5 -13.5v-97q0 -16 -11 -27t-28 -11h-307q-16 0 -27 11t-11 27v20q0 8 -5.5 13.5t-13.5 5.5h-20q-16 0 -27 11t-11 27v20q0 8 -5.5 13.5
t-13.5 5.5h-20q-16 0 -27 11t-11 27v154q0 16 11 27t27 11h20q19 0 19 19v96q0 17 11 28t27 11h308q16 0 27 -11t11 -28v-20q0 -8 5 -13t13 -5h20q17 0 28 -11t11 -27v-20q0 -8 5 -13.5t13 -5.5h20zM554 154q8 0 13.5 5t5.5 13v194q0 8 -5.5 13t-13.5 5h-20q-16 0 -27 11
t-11 28v20q0 8 -5 13t-13 5h-289v-38q0 -17 -11.5 -28t-27.5 -11h-20q-8 0 -13 -5t-5 -13v-194q0 -8 5 -13t13 -5h20q16 0 27.5 -11.5t11.5 -27.5v-20q0 -8 5 -13t13 -5h289v38q0 16 11 27.5t27 11.5h20z" />
    <glyph glyph-name="otilde" unicode="&#xf5;" horiz-adv-x="685" 
d="M484 770q7 0 12 -4.5t5 -11.5v-22q0 -16 -11.5 -27t-27.5 -11h-20q-8 0 -13 -5.5t-5 -13.5v-20q0 -15 -11 -26.5t-27 -11.5q-17 0 -28 11.5t-11 27.5v19q0 8 -5.5 13.5t-13.5 5.5h-40q-8 0 -13 -5.5t-5 -13.5v-20q0 -16 -11 -27t-28 -11h-21q-17 0 -17 16v22
q0 16 11 27.5t27 11.5h20q8 0 13.5 5t5.5 13v20q0 15 10.5 26.5t26.5 11.5q17 0 28.5 -11.5t11.5 -27.5v-19q0 -8 5 -13t13 -5h40q8 0 13.5 5t5.5 13v20q0 16 11 27t27 11h22zM611 384q17 0 28 -11t11 -27v-154q0 -16 -11 -27t-28 -11h-20q-8 0 -13 -5.5t-5 -13.5v-97
q0 -16 -11 -27t-28 -11h-307q-16 0 -27 11t-11 27v20q0 8 -5.5 13.5t-13.5 5.5h-20q-16 0 -27 11t-11 27v20q0 8 -5.5 13.5t-13.5 5.5h-20q-16 0 -27 11t-11 27v154q0 16 11 27t27 11h20q19 0 19 19v96q0 17 11 28t27 11h308q16 0 27 -11t11 -28v-20q0 -8 5 -13t13 -5h20
q17 0 28 -11t11 -27v-20q0 -8 5 -13.5t13 -5.5h20zM554 154q8 0 13.5 5t5.5 13v194q0 8 -5.5 13t-13.5 5h-20q-16 0 -27 11t-11 28v20q0 8 -5 13t-13 5h-289v-38q0 -17 -11.5 -28t-27.5 -11h-20q-8 0 -13 -5t-5 -13v-194q0 -8 5 -13t13 -5h20q16 0 27.5 -11.5t11.5 -27.5
v-20q0 -8 5 -13t13 -5h289v38q0 16 11 27.5t27 11.5h20z" />
    <glyph glyph-name="odieresis" unicode="&#xf6;" horiz-adv-x="685" 
d="M197 655q0 16 11 27t27 11h22q7 0 12 -5t5 -12v-21q0 -17 -11.5 -28t-27.5 -11h-21q-8 0 -12.5 5t-4.5 12v22zM351 655q0 16 11 27t27 11h22q7 0 11.5 -5t4.5 -12v-21q0 -17 -11 -28t-27 -11h-22q-7 0 -11.5 5t-4.5 12v22zM611 384q17 0 28 -11t11 -27v-154
q0 -16 -11 -27t-28 -11h-20q-8 0 -13 -5.5t-5 -13.5v-97q0 -16 -11 -27t-28 -11h-307q-16 0 -27 11t-11 27v20q0 8 -5.5 13.5t-13.5 5.5h-20q-16 0 -27 11t-11 27v20q0 8 -5.5 13.5t-13.5 5.5h-20q-16 0 -27 11t-11 27v154q0 16 11 27t27 11h20q19 0 19 19v96q0 17 11 28
t27 11h308q16 0 27 -11t11 -28v-20q0 -8 5 -13t13 -5h20q17 0 28 -11t11 -27v-20q0 -8 5 -13.5t13 -5.5h20zM554 154q8 0 13.5 5t5.5 13v194q0 8 -5.5 13t-13.5 5h-20q-16 0 -27 11t-11 28v20q0 8 -5 13t-13 5h-289v-38q0 -17 -11.5 -28t-27.5 -11h-20q-8 0 -13 -5t-5 -13
v-194q0 -8 5 -13t13 -5h20q16 0 27.5 -11.5t11.5 -27.5v-20q0 -8 5 -13t13 -5h289v38q0 16 11 27.5t27 11.5h20z" />
    <glyph glyph-name="oslash" unicode="&#xf8;" horiz-adv-x="686" 
d="M574 404q0 -8 5.5 -13.5t13.5 -5.5h20q16 0 27 -11t11 -27v-154q0 -17 -11 -28t-27 -11h-20q-8 0 -13.5 -5.5t-5.5 -13.5v-96q0 -17 -11 -28t-27 -11h-308q-16 0 -27.5 11t-11.5 28v19q0 8 -5 13.5t-13 5.5h-40q-8 0 -13.5 -5.5t-5.5 -13.5v-19q0 -17 -11 -28t-27 -11
h-21q-8 0 -13 5t-5 13v21q0 16 11.5 27t27.5 11h20q8 0 13 5.5t5 13.5v39q0 8 -5 13.5t-13 5.5h-20q-16 0 -27.5 11t-11.5 28v154q0 16 11.5 27t27.5 11h20q8 0 13 5.5t5 13.5v97q0 16 11.5 27t27.5 11h308q16 0 27 -11t11 -27v-20q0 -8 5.5 -13.5t13.5 -5.5h40q8 0 13 5.5
t5 13.5v20q0 16 11.5 27t27.5 11h21q7 0 12 -5t5 -13v-20q0 -17 -11 -28t-27 -11h-20q-8 0 -13.5 -5.5t-5.5 -13.5v-39zM112 173q0 -8 5.5 -13.5t13.5 -5.5h40q8 0 13 5.5t5 13.5v20q0 16 11.5 27t27.5 11h20q8 0 13 5.5t5 13.5v20q0 16 11.5 27t27.5 11h97q8 0 13 5.5
t5 13.5v20q0 16 11.5 27t27.5 11h20q8 0 13 5.5t5 13.5v39q0 8 -5 13.5t-13 5.5h-272q-8 0 -13 -5t-5 -13v-20q0 -17 -11 -28t-27 -11h-20q-8 0 -13.5 -5.5t-5.5 -13.5v-193zM574 366q0 8 -5 13.5t-13 5.5h-40q-8 0 -13.5 -5.5t-5.5 -13.5v-19q0 -17 -11 -28t-27 -11h-20
q-8 0 -13.5 -5.5t-5.5 -13.5v-20q0 -16 -11 -27t-27 -11h-97q-8 0 -13.5 -5.5t-5.5 -13.5v-19q0 -17 -11 -28t-27 -11h-20q-8 0 -13.5 -5.5t-5.5 -13.5v-39q0 -8 5.5 -13.5t13.5 -5.5h272q7 0 12 5t5 13v21q0 16 11.5 27t27.5 11h20q8 0 13 5.5t5 13.5v193z" />
    <glyph glyph-name="ugrave" unicode="&#xf9;" horiz-adv-x="638" 
d="M330 694q16 0 27 -11t11 -27v-22q0 -7 -4.5 -12t-11.5 -5h-22q-16 0 -27.5 11t-11.5 28v20q0 8 -5 13t-13 5h-20q-16 0 -27 11t-11 27v22q0 7 4.5 12t11.5 5h22q16 0 27 -11t11 -28v-20q0 -8 5.5 -13t13.5 -5h20zM511 499q0 17 11 28t27 11h22q7 0 12 -5t5 -12v-483
q0 -16 -11.5 -27t-27.5 -11h-21q-8 0 -12.5 5t-4.5 12v98q0 -16 -11 -27t-28 -11h-20q-8 0 -13 -5.5t-5 -13.5v-20q0 -16 -11 -27t-27 -11h-231q-16 0 -27 11t-11 27v20q0 8 -5.5 13.5t-13.5 5.5h-20q-16 0 -27 11t-11 27v384q0 17 11 28t27 11h22q7 0 12 -5t5 -12v-426
q0 -8 5 -13t13 -5h271q8 0 13 5t5 13v20q0 16 11 27.5t27 11.5h22q7 0 12 4.5t5 11.5v329z" />
    <glyph glyph-name="uacute" unicode="&#xfa;" horiz-adv-x="638" 
d="M304 731q0 17 11 28t27 11h22q7 0 12 -5t5 -12v-22q0 -16 -11 -27t-28 -11h-20q-8 0 -13 -5t-5 -13v-20q0 -17 -11 -28t-27 -11h-22q-7 0 -12 5t-5 12v22q0 16 11 27t28 11h20q8 0 13 5t5 13v20zM511 499q0 17 11 28t27 11h22q7 0 12 -5t5 -12v-483q0 -16 -11.5 -27
t-27.5 -11h-21q-8 0 -12.5 5t-4.5 12v98q0 -16 -11 -27t-28 -11h-20q-8 0 -13 -5.5t-5 -13.5v-20q0 -16 -11 -27t-27 -11h-231q-16 0 -27 11t-11 27v20q0 8 -5.5 13.5t-13.5 5.5h-20q-16 0 -27 11t-11 27v384q0 17 11 28t27 11h22q7 0 12 -5t5 -12v-426q0 -8 5 -13t13 -5
h271q8 0 13 5t5 13v20q0 16 11 27.5t27 11.5h22q7 0 12 4.5t5 11.5v329z" />
    <glyph glyph-name="ucircumflex" unicode="&#xfb;" horiz-adv-x="638" 
d="M389 693q16 0 27.5 -11t11.5 -28v-21q0 -8 -5 -12.5t-12 -4.5h-22q-16 0 -27 11t-11 27v20q0 8 -5.5 13.5t-13.5 5.5h-40q-8 0 -13 -5.5t-5 -13.5v-20q0 -16 -11 -27t-28 -11h-21q-17 0 -17 17v21q0 17 11 28t27 11h20q8 0 13.5 5t5.5 13v20q0 17 11 28t28 11
q16 -1 27 -12.5t11 -27.5v-19q0 -8 5 -13t13 -5h20zM511 499q0 17 11 28t27 11h22q7 0 12 -5t5 -12v-483q0 -16 -11.5 -27t-27.5 -11h-21q-8 0 -12.5 5t-4.5 12v98q0 -16 -11 -27t-28 -11h-20q-8 0 -13 -5.5t-5 -13.5v-20q0 -16 -11 -27t-27 -11h-231q-16 0 -27 11t-11 27
v20q0 8 -5.5 13.5t-13.5 5.5h-20q-16 0 -27 11t-11 27v384q0 17 11 28t27 11h22q7 0 12 -5t5 -12v-426q0 -8 5 -13t13 -5h271q8 0 13 5t5 13v20q0 16 11 27.5t27 11.5h22q7 0 12 4.5t5 11.5v329z" />
    <glyph glyph-name="udieresis" unicode="&#xfc;" horiz-adv-x="638" 
d="M197 655q0 16 11 27t27 11h22q7 0 12 -5t5 -12v-21q0 -17 -11.5 -28t-27.5 -11h-21q-8 0 -12.5 5t-4.5 12v22zM351 655q0 16 11 27t27 11h22q7 0 11.5 -5t4.5 -12v-21q0 -17 -11 -28t-27 -11h-22q-7 0 -11.5 5t-4.5 12v22zM511 499q0 17 11 28t27 11h22q7 0 12 -5t5 -12
v-483q0 -16 -11.5 -27t-27.5 -11h-21q-8 0 -12.5 5t-4.5 12v98q0 -16 -11 -27t-28 -11h-20q-8 0 -13 -5.5t-5 -13.5v-20q0 -16 -11 -27t-27 -11h-231q-16 0 -27 11t-11 27v20q0 8 -5.5 13.5t-13.5 5.5h-20q-16 0 -27 11t-11 27v384q0 17 11 28t27 11h22q7 0 12 -5t5 -12
v-426q0 -8 5 -13t13 -5h271q8 0 13 5t5 13v20q0 16 11 27.5t27 11.5h22q7 0 12 4.5t5 11.5v329z" />
    <glyph glyph-name="yacute" unicode="&#xfd;" 
d="M556 538q7 0 12 -4.5t5 -12.5v-175q0 -16 -11.5 -27t-27.5 -11h-22q-7 0 -11.5 -5t-4.5 -12v-99q0 -16 -11.5 -27t-27.5 -11h-21q-17 0 -17 -17v-99q0 -16 -11 -27t-28 -11h-96q-8 0 -13.5 -5t-5.5 -13v-97q0 -16 -11 -27t-27 -11h-20q-8 0 -13.5 -5.5t-5.5 -13.5v-20
q0 -16 -11 -27t-27 -11h-99q-16 0 -16 17v21q0 16 11 27.5t27 11.5h97q8 0 13 5t5 13v97q0 16 11.5 27t27.5 11h20q8 0 13 5.5t5 13.5v40q0 8 -5 13t-13 5h-20q-16 0 -27 11t-12 27v22q0 17 -16 17h-22q-16 0 -27.5 11t-11.5 27v99q0 7 -4.5 12t-11.5 5h-22q-16 0 -27 11
t-11 27v154q0 16 11 27t27 11h22q16 0 16 -17v-120q0 -7 5 -11.5t12 -4.5h22q16 0 27 -11.5t11 -27.5v-98q0 -8 5 -12.5t12 -4.5h22q16 0 27 -11t11 -28v-96q0 -19 19 -19h41q8 0 12.5 5t4.5 12v98q0 17 11 28t27 11h22q7 0 12 4.5t5 12.5v98q0 16 11 27.5t27 11.5h22
q7 0 12 4.5t5 11.5v99q0 16 11 27t27 11h22zM304 731q0 17 11 28t27 11h22q7 0 12 -5t5 -12v-22q0 -16 -11 -27t-28 -11h-20q-8 0 -13 -5t-5 -13v-20q0 -17 -11 -28t-27 -11h-22q-7 0 -12 5t-5 12v22q0 16 11 27t28 11h20q8 0 13 5t5 13v20z" />
    <glyph glyph-name="ydieresis" unicode="&#xff;" 
d="M556 538q7 0 12 -4.5t5 -12.5v-175q0 -16 -11.5 -27t-27.5 -11h-22q-7 0 -11.5 -5t-4.5 -12v-99q0 -16 -11.5 -27t-27.5 -11h-21q-17 0 -17 -17v-99q0 -16 -11 -27t-28 -11h-96q-8 0 -13.5 -5t-5.5 -13v-97q0 -16 -11 -27t-27 -11h-20q-8 0 -13.5 -5.5t-5.5 -13.5v-20
q0 -16 -11 -27t-27 -11h-99q-16 0 -16 17v21q0 16 11 27.5t27 11.5h97q8 0 13 5t5 13v97q0 16 11.5 27t27.5 11h20q8 0 13 5.5t5 13.5v40q0 8 -5 13t-13 5h-20q-16 0 -27 11t-12 27v22q0 17 -16 17h-22q-16 0 -27.5 11t-11.5 27v99q0 7 -4.5 12t-11.5 5h-22q-16 0 -27 11
t-11 27v154q0 16 11 27t27 11h22q16 0 16 -17v-120q0 -7 5 -11.5t12 -4.5h22q16 0 27 -11.5t11 -27.5v-98q0 -8 5 -12.5t12 -4.5h22q16 0 27 -11t11 -28v-96q0 -19 19 -19h41q8 0 12.5 5t4.5 12v98q0 17 11 28t27 11h22q7 0 12 4.5t5 12.5v98q0 16 11 27.5t27 11.5h22
q7 0 12 4.5t5 11.5v99q0 16 11 27t27 11h22zM197 655q0 16 11 27t27 11h22q7 0 12 -5t5 -12v-21q0 -17 -11.5 -28t-27.5 -11h-21q-8 0 -12.5 5t-4.5 12v22zM351 655q0 16 11 27t27 11h22q7 0 11.5 -5t4.5 -12v-21q0 -17 -11 -28t-27 -11h-22q-7 0 -11.5 5t-4.5 12v22z" />
    <glyph glyph-name="Abreve" unicode="&#x102;" horiz-adv-x="696" 
d="M617 154q17 0 28 -11t11 -27v-99q0 -7 -5 -12t-12 -5h-22q-16 0 -27 11.5t-11 27.5v97q0 8 -5.5 13t-13.5 5h-20q-16 0 -27 11.5t-11 27.5v77q0 -16 -11 -27.5t-28 -11.5h-327q-8 0 -13.5 -5t-5.5 -13v-174q0 -16 -11 -27.5t-27 -11.5h-22q-7 0 -12 5t-5 12v176
q0 16 11 27t28 11h20q8 0 13 5.5t5 13.5v174q0 16 11 27t28 11h20q8 0 13 5.5t5 13.5v174q0 16 11 27t28 11h20q8 0 13 5.5t5 13.5v20q0 16 11 27t27 11h77q17 0 28 -11t11 -27v-97q0 -8 5 -13.5t13 -5.5h20q17 0 28 -11t11 -27v-174q0 -8 5 -13.5t13 -5.5h20q17 0 28 -11
t11 -27v-174q0 -8 5 -13.5t13 -5.5h20zM485 308q7 0 12 5t5 12v42q0 8 -5.5 13t-13.5 5h-20q-16 0 -27 11.5t-11 27.5v174q0 8 -5 13t-13 5h-21q-16 0 -27 11t-11 28v21q0 8 -5 12.5t-12 4.5h-42q-8 0 -13 -5t-5 -13v-174q0 -16 -11 -27.5t-27 -11.5h-21q-8 0 -13 -5t-5 -13
v-119q0 -7 5 -12t12 -5h274zM227 960q14 0 24 -9.5t10 -23.5v-17q0 -16 15 -16h145q15 0 15 16v17q0 14 10 23.5t24 9.5h17q15 0 15 -15v-18q0 -14 -9.5 -23.5t-22.5 -9.5h-17q-7 0 -12 -4t-5 -12l-1 -11q0 -13 -8.5 -21.5t-21.5 -8.5h-113q-13 0 -21.5 8.5t-8.5 21.5l-1 11
q0 16 -17 16h-17q-13 0 -22.5 9.5t-9.5 23.5v17q0 5 3.5 10.5t8.5 5.5h20z" />
    <glyph glyph-name="abreve" unicode="&#x103;" 
d="M150 0q-16 0 -27 11t-11 27v20q0 19 -19 19h-20q-16 0 -27 11t-11 27v77q0 16 11 27.5t27 11.5h20q8 0 13.5 5t5.5 13v20q0 16 11 27t27 11h308q16 0 27 -11t11 -27v174q0 8 -5 13t-13 5h-348q-8 0 -13 -5t-5 -13v-20q0 -17 -11 -28t-28 -11h-21q-7 0 -12 5t-5 12v22
q0 16 11 27t27 11h20q8 0 13.5 5t5.5 13v20q0 17 11 28t27 11h308q16 0 27 -11t11 -28v-20q0 -8 5 -13t13 -5h20q17 0 28 -11t11 -27v-231q0 -16 -11 -27t-28 -11h-20q-8 0 -13 -5.5t-5 -13.5v-97q0 -16 -11 -27t-27 -11h-308zM402 77q17 0 17 17v21q0 16 11 27.5t28 11.5
h20q8 0 13 5t5 13v42q0 7 -4.5 12t-12.5 5h-349q-8 0 -13 -5.5t-5 -13.5v-117q0 -8 5 -13t13 -5h272zM183 730q14 0 24 -9.5t10 -23.5v-17q0 -16 15 -16h145q15 0 15 16v17q0 14 10 23.5t24 9.5h17q15 0 15 -15v-18q0 -14 -9.5 -23.5t-22.5 -9.5h-17q-7 0 -12 -4t-5 -12
l-1 -11q0 -13 -8.5 -21.5t-21.5 -8.5h-113q-13 0 -21.5 8.5t-8.5 21.5l-1 11q0 16 -17 16h-17q-13 0 -22.5 9.5t-9.5 23.5v17q0 5 3.5 10.5t8.5 5.5h20z" />
    <glyph glyph-name="Dcroat" unicode="&#x110;" horiz-adv-x="706" 
d="M50 429v302q0 16 11 27.5t28 11.5h384q17 0 28 -11.5t11 -27.5v-20q0 -8 5 -13t13 -5h20q17 0 28 -11.5t11 -27.5v-20q0 -8 5 -13t13 -5h20q17 0 28 -11t11 -28v-385q0 -16 -11 -27t-28 -11h-20q-8 0 -13 -5t-5 -13v-21q0 -16 -11 -27t-28 -11h-20q-8 0 -13 -5t-5 -13
v-21q0 -16 -11 -27t-28 -11h-384q-17 0 -28 11t-11 27v324h-82q-7 0 -12 2.5t-5 9.5v21q0 17 11 25.5t28 8.5h60zM570 154q8 0 13.5 5t5.5 13v425q0 8 -5.5 13.5t-13.5 5.5h-20q-16 0 -27 11t-11 27v20q0 8 -5.5 13.5t-13.5 5.5h-349q-7 0 -12 -5t-5 -12v-247h115
q7 0 12 -2.5t5 -9.5v-22q0 -16 -11 -24.5t-28 -8.5h-93v-268q0 -8 5 -12.5t12 -4.5h349q8 0 13.5 5t5.5 13v20q0 17 11 28t27 11h20z" />
    <glyph glyph-name="dcroat" unicode="&#x111;" horiz-adv-x="623" 
d="M496 679v73q0 16 17 16h21q16 0 27.5 -11t11.5 -27v-51h73h12t5 -7v-22q0 -16 -11 -22t-28 -6h-51v-430q0 -16 -11 -27t-28 -11h-20q-8 0 -13 -5.5t-5 -13.5v-97q0 -16 -11 -27t-27 -11h-308q-16 0 -27 11t-11 27v20q0 8 -5.5 13.5t-13.5 5.5h-20q-16 0 -27 11t-11 27
v308q0 16 11 27t27 11h20q8 0 13.5 5t5.5 13v20q0 17 11 28t27 11h231q16 0 27 -11t11 -28v-20q0 -8 5 -13t13 -5h21q16 0 27 -11t11 -27v199h-106h-12t-5 7v21q0 17 11 23t28 6h84zM112 95q0 -8 5 -13t13 -5h272q17 0 17 17v21q0 16 11 27.5t28 11.5h20q8 0 13 5t5 13v195
q0 8 -5 12.5t-12 4.5h-21q-17 0 -28 11t-11 28v20q0 8 -5 13t-13 5h-271q-8 0 -13 -5t-5 -13v-348z" />
    <glyph glyph-name="Itilde" unicode="&#x128;" horiz-adv-x="177" 
d="M50 731q0 16 11.5 27t27.5 11h22q16 0 16 -16v-715q0 -16 -11 -27t-27 -11h-22q-7 0 -12 4.5t-5 12.5v714zM246 1000q7 0 12 -4.5t5 -11.5v-22q0 -16 -11.5 -27t-27.5 -11h-20q-8 0 -13 -5.5t-5 -13.5v-20q0 -15 -11 -26.5t-27 -11.5q-17 0 -28 11.5t-11 27.5v19
q0 8 -5.5 13.5t-13.5 5.5h-40q-8 0 -13 -5.5t-5 -13.5v-20q0 -16 -11 -27t-28 -11h-21q-17 0 -17 16v22q0 16 11 27.5t27 11.5h20q8 0 13.5 5t5.5 13v20q0 15 10.5 26.5t26.5 11.5q17 0 28.5 -11.5t11.5 -27.5v-19q0 -8 5 -13t13 -5h40q8 0 13.5 5t5.5 13v20q0 16 11 27
t27 11h22z" />
    <glyph glyph-name="itilde" unicode="&#x129;" horiz-adv-x="216" 
d="M70 499q0 17 11 28t27 11h22q7 0 11.5 -5t4.5 -12v-483q0 -16 -11 -27t-27 -11h-22q-7 0 -11.5 5t-4.5 12v482zM245 768q7 0 12 -4.5t5 -11.5v-22q0 -16 -11.5 -27t-27.5 -11h-20q-8 0 -13 -5.5t-5 -13.5v-20q0 -15 -11 -26.5t-27 -11.5q-17 0 -28 11.5t-11 27.5v19
q0 8 -5.5 13.5t-13.5 5.5h-40q-8 0 -13 -5.5t-5 -13.5v-20q0 -16 -11 -27t-28 -11h-21q-17 0 -17 16v22q0 16 11 27.5t27 11.5h20q8 0 13.5 5t5.5 13v20q0 15 10.5 26.5t26.5 11.5q17 0 28.5 -11.5t11.5 -27.5v-19q0 -8 5 -13t13 -5h40q8 0 13.5 5t5.5 13v20q0 16 11 27
t27 11h22z" />
    <glyph glyph-name="OE" unicode="&#x152;" horiz-adv-x="1003" 
d="M925 615q-16 0 -27 11.5t-11 27.5v19q0 8 -5.5 13.5t-13.5 5.5h-271q-8 0 -13 -5t-5 -12v-196q0 -7 5 -12t13 -5h20q17 0 28 -11.5t11 -27.5v-20q0 -8 5.5 -13t13.5 -5h173q16 0 27.5 -11.5t11.5 -27.5v-21q0 -7 -5 -12t-13 -5h-175q-16 0 -27 11t-11 27v20
q0 8 -5.5 13.5t-13.5 5.5h-20q-16 0 -27 11t-11 27v-328q0 -8 5 -13t13 -5h328q16 0 27 -11t11 -28v-20q0 -8 -4.5 -13t-12.5 -5h-406q-16 0 -27 11t-11 27q0 -16 -11 -27t-28 -11h-230q-17 0 -28 11t-11 27v20q0 8 -5.5 13.5t-13.5 5.5h-19q-16 0 -27.5 11t-11.5 27v20
q0 8 -5 13.5t-13 5.5h-20q-16 0 -27.5 11t-11.5 27v385q0 16 11.5 27t27.5 11h20q8 0 13 5.5t5 13.5v97q0 16 11.5 27t27.5 11h231q16 0 27 -11t11 -27v-20q0 -8 5.5 -13.5t13.5 -5.5h19q17 0 28 -11t11 -27v77q0 16 11 27t27 11h308q16 0 27.5 -11t11.5 -27v-20
q0 -8 5 -13.5t13 -5.5h20q16 0 27 -11t11 -27v-21q0 -8 -4.5 -13t-12.5 -5h-21zM484 77q8 0 13 5t5 13v503q0 7 -5 12t-13 5h-21q-16 0 -27 11.5t-11 27.5v19q0 19 -19 19h-194q-8 0 -13 -5t-5 -12v-21q0 -16 -11 -27.5t-27 -11.5h-20q-8 0 -13.5 -5t-5.5 -13v-424
q0 -8 5.5 -13.5t13.5 -5.5h20q16 0 27 -11t11 -28v-19q0 -8 5.5 -13.5t13.5 -5.5h271z" />
    <glyph glyph-name="oe" unicode="&#x153;" horiz-adv-x="915" 
d="M842 461q16 0 27 -11t11 -27v-77q0 -16 -11 -27.5t-27 -11.5h-20q-8 0 -13.5 -5t-5.5 -13v-20q0 -16 -11 -27t-27 -11h-231q-16 0 -27 11t-11 27v-97q0 -8 5 -13t13 -5h20q17 0 28 -11.5t11 -27.5v-20q0 -8 5 -13t13 -5h194q8 0 13 5t5 13v20q0 16 11.5 27.5t27.5 11.5
h21q8 0 12.5 -5t4.5 -12v-22q0 -16 -11 -27t-27 -11h-20q-8 0 -13.5 -5.5t-5.5 -13.5v-20q0 -16 -11 -27t-27 -11h-154q-16 0 -27 11t-11 27v20q0 19 -19 19h-20q-16 0 -27 11t-11 27v20q0 8 -5 13.5t-13 5.5h-40q-8 0 -13.5 -5.5t-5.5 -13.5v-97q0 -16 -11 -27t-27 -11
h-154q-16 0 -27 11t-11 27v20q0 8 -5.5 13.5t-13.5 5.5h-20q-16 0 -27 11t-11 27v20q0 8 -5.5 13.5t-13.5 5.5h-20q-16 0 -27 11t-11 27v154q0 16 11 27t27 11h20q19 0 19 19v96q0 17 11 28t27 11h154q16 0 27 -11t11 -28v-20q0 -8 5.5 -13t13.5 -5h20q16 0 27 -11t11 -27
v-20q0 -19 19 -19h40q8 0 13 5.5t5 13.5v96q0 17 11 28t27 11h231q16 0 27 -11t11 -28v-20q0 -8 5.5 -13t13.5 -5h20zM419 366q0 8 -5 13t-13 5h-20q-17 0 -28 11t-11 28v20q0 8 -5 13t-13 5h-135v-38q0 -17 -11.5 -28t-27.5 -11h-20q-8 0 -13 -5t-5 -13v-194q0 -8 5 -13
t13 -5h20q16 0 27.5 -11.5t11.5 -27.5v-20q0 -8 5 -13t13 -5h135v38q0 16 11 27.5t28 11.5h20q8 0 13 5t5 13v194zM803 443q0 8 -5 13t-13 5h-195q-17 0 -17 -17v-21q0 -17 -11 -28t-28 -11h-20q-8 0 -13 -5t-5 -13v-42q0 -7 4.5 -12t12.5 -5h272q8 0 13 5.5t5 13.5v117z
" />
    <glyph glyph-name="Scaron" unicode="&#x160;" horiz-adv-x="600" 
d="M233 922q-16 0 -27.5 11t-11.5 27v22q0 7 5 12t12 5h22q16 0 27 -11t11 -28v-20q0 -8 5.5 -13t13.5 -5h40q8 0 13 5t5 13v20q0 17 11 28t28 11h21q8 0 12.5 -5t4.5 -12v-22q0 -16 -11 -27t-27 -11h-20q-8 0 -13.5 -5t-5.5 -13v-20q0 -17 -11 -28t-28 -11q-16 0 -27 12
t-11 28v19q0 8 -5 13t-13 5h-20zM578 674q0 8 -5 13.5t-13 5.5h-350q-7 0 -11.5 -5t-4.5 -12v-22q0 -16 -11.5 -27t-27.5 -11h-20q-8 0 -13 -5.5t-5 -13.5v-117q0 -8 5 -13t13 -5h328q16 0 27.5 -11t11.5 -28v-20q0 -8 5 -13t13 -5h20q16 0 27 -11t11 -28v-20q0 -8 5.5 -13
t13.5 -5h20q16 0 27 -11t11 -28v-154q0 -16 -11 -27t-27 -11h-20q-8 0 -13.5 -5t-5.5 -13v-21q0 -16 -11 -27t-27 -11h-385q-16 0 -27 11t-11 27v21q0 8 -5.5 13t-13.5 5h-20q-16 0 -27 11t-11 27v22q0 7 4.5 12t11.5 5h22q16 0 27.5 -11t11.5 -28v-20q0 -8 5 -13t13 -5h425
q8 0 13 5t5 13v194q0 8 -5 13.5t-13 5.5h-20q-16 0 -27 11t-11 27v20q0 8 -5.5 13.5t-13.5 5.5h-328q-16 0 -27 11t-11 27v20q0 8 -5.5 13.5t-13.5 5.5h-20q-16 0 -27 11t-11 27v78q0 16 11 27t27 11h20q8 0 13.5 5t5.5 13v97q0 16 11 27.5t27 11.5h385q16 0 27 -11t11 -27
v-21q0 -8 5.5 -13t13.5 -5h20q16 0 27 -11.5t11 -27.5v-21q0 -17 -16 -17h-22q-16 0 -27.5 11t-11.5 28v19z" />
    <glyph glyph-name="scaron" unicode="&#x161;" horiz-adv-x="600" 
d="M224 693q-16 0 -27.5 11t-11.5 27v22q0 7 5 12t12 5h22q16 0 27 -11t11 -28v-20q0 -8 5.5 -13t13.5 -5h40q8 0 13 5t5 13v20q0 17 11 28t28 11h21q8 0 12.5 -5t4.5 -12v-22q0 -16 -11 -27t-27 -11h-20q-8 0 -13.5 -5t-5.5 -13v-20q0 -17 -11 -28t-28 -11q-16 0 -27 12
t-11 28v19q0 8 -5 13t-13 5h-20zM534 384q-16 0 -27 11t-11 28v20q0 8 -5 13t-13 5h-289v-38q0 -17 -11.5 -28t-27.5 -11h-20q-8 0 -13 -5t-5 -13v-42q0 -7 4.5 -12t11.5 -5h329q17 0 28 -11t11 -27v-20q0 -8 5 -13t13 -5h20q17 0 28 -11.5t11 -27.5v-77q0 -16 -11 -27
t-28 -11h-20q-8 0 -13 -5.5t-5 -13.5v-20q0 -16 -11 -27t-28 -11h-307q-16 0 -27 11t-11 27v26q-2 5 -7 9t-11 4h-21q-16 0 -27 11t-11 27v22q0 7 4.5 12t12.5 5h21q16 0 27.5 -11.5t11.5 -27.5v-21l1 1q0 -8 5 -13t13 -5h347q8 0 13 5t5 13v117q0 8 -5 13.5t-13 5.5h-405
q-16 0 -27 11t-11 27v77q0 16 11 27t27 11h20q8 0 13.5 5.5t5.5 13.5v96q0 17 11 28t27 11h307q17 0 28 -11t11 -28v-20q0 -8 5 -13t13 -5h20q17 0 28 -11t11 -27v-22q0 -7 -5 -12t-12 -5h-22z" />
    <glyph glyph-name="Utilde" unicode="&#x168;" horiz-adv-x="696" 
d="M579 731q0 16 11 27.5t27 11.5h22q7 0 12 -5t5 -12v-561q0 -16 -11 -27t-28 -11h-20q-8 0 -13 -5t-5 -13v-98q0 -16 -11 -27t-28 -11h-307q-17 0 -28 11t-11 27v21q0 8 -5 13t-13 5h-20q-17 0 -28 11t-11 27v21q0 8 -5 13t-13 5h-20q-17 0 -28 11t-11 27v539
q0 16 11 27.5t28 11.5h21q8 0 12.5 -5t4.5 -12v-581q0 -8 5.5 -13t13.5 -5h20q16 0 27 -11t11 -28v-20q0 -8 5.5 -13t13.5 -5h272q7 0 12 4.5t5 12.5v21q0 17 11 28t27 11h21q8 0 13 5t5 13v559zM485 1000q7 0 12 -4.5t5 -11.5v-22q0 -16 -11.5 -27t-27.5 -11h-20
q-8 0 -13 -5.5t-5 -13.5v-20q0 -15 -11 -26.5t-27 -11.5q-17 0 -28 11.5t-11 27.5v19q0 8 -5.5 13.5t-13.5 5.5h-40q-8 0 -13 -5.5t-5 -13.5v-20q0 -16 -11 -27t-28 -11h-21q-17 0 -17 16v22q0 16 11 27.5t27 11.5h20q8 0 13.5 5t5.5 13v20q0 15 10.5 26.5t26.5 11.5
q17 0 28.5 -11.5t11.5 -27.5v-19q0 -8 5 -13t13 -5h40q8 0 13.5 5t5.5 13v20q0 16 11 27t27 11h22z" />
    <glyph glyph-name="utilde" unicode="&#x169;" horiz-adv-x="638" 
d="M511 499q0 17 11 28t27 11h22q7 0 12 -5t5 -12v-483q0 -16 -11.5 -27t-27.5 -11h-21q-8 0 -12.5 5t-4.5 12v98q0 -16 -11 -27t-28 -11h-20q-8 0 -13 -5.5t-5 -13.5v-20q0 -16 -11 -27t-27 -11h-231q-16 0 -27 11t-11 27v20q0 8 -5.5 13.5t-13.5 5.5h-20q-16 0 -27 11
t-11 27v384q0 17 11 28t27 11h22q7 0 12 -5t5 -12v-426q0 -8 5 -13t13 -5h271q8 0 13 5t5 13v20q0 16 11 27.5t27 11.5h22q7 0 12 4.5t5 11.5v329zM456 768q7 0 12 -4.5t5 -11.5v-22q0 -16 -11.5 -27t-27.5 -11h-20q-8 0 -13 -5.5t-5 -13.5v-20q0 -15 -11 -26.5t-27 -11.5
q-17 0 -28 11.5t-11 27.5v19q0 8 -5.5 13.5t-13.5 5.5h-40q-8 0 -13 -5.5t-5 -13.5v-20q0 -16 -11 -27t-28 -11h-21q-17 0 -17 16v22q0 16 11 27.5t27 11.5h20q8 0 13.5 5t5.5 13v20q0 15 10.5 26.5t26.5 11.5q17 0 28.5 -11.5t11.5 -27.5v-19q0 -8 5 -13t13 -5h40
q8 0 13.5 5t5.5 13v20q0 16 11 27t27 11h22z" />
    <glyph glyph-name="Wcircumflex" unicode="&#x174;" horiz-adv-x="927" 
d="M540 923q16 0 27.5 -11t11.5 -28v-21q0 -8 -5 -12.5t-12 -4.5h-22q-16 0 -27 11t-11 27v20q0 8 -5.5 13.5t-13.5 5.5h-40q-8 0 -13 -5.5t-5 -13.5v-20q0 -16 -11 -27t-28 -11h-21q-17 0 -17 17v21q0 17 11 28t27 11h20q8 0 13.5 5t5.5 13v20q0 17 11 28t28 11
q16 -1 27 -12.5t11 -27.5v-19q0 -8 5 -13t13 -5h20zM810 731q0 17 11 28t27 11h22q7 0 12 -5t5 -12v-330q0 -16 -11 -27t-28 -11h-21q-7 0 -12 -5t-5 -12v-252q0 -17 -11 -28t-27 -11h-21q-8 0 -13 -5t-5 -13v-20q0 -17 -11.5 -28t-27.5 -11t-27 12t-11 28v19q0 8 -5 13
t-13 5h-20q-17 0 -28 11t-11 28v252q0 7 -4.5 12t-12.5 5h-21q-17 0 -28 11t-11 27v251q0 8 -5 13.5t-13 5.5h-40q-19 0 -19 -19v-251q0 -16 -11 -27t-27 -11h-22q-7 0 -12 -5t-5 -12v-252q0 -17 -11 -28t-27 -11h-20q-8 0 -13.5 -5t-5.5 -13v-20q0 -17 -11 -28t-28 -11
q-16 0 -27 12t-11 28v19q0 8 -5 13t-13 5h-20q-16 0 -27.5 11t-11.5 28v252q0 7 -4.5 12t-12.5 5h-21q-16 0 -27.5 11t-11.5 27v309q0 16 11.5 27t27.5 11h21q8 0 12.5 -5t4.5 -12v-274q0 -8 5 -12.5t12 -4.5h22q16 0 27 -11t11 -28v-328q0 -8 5.5 -13t13.5 -5h40q8 0 13 5
t5 13v328q0 17 11 28t28 11h21q17 0 17 17v175q0 16 11.5 27.5t27.5 11.5h20q8 0 13 5t5 13v21q0 16 11 27t28 11q16 0 27 -11t11 -27v-21q0 -8 5.5 -13t13.5 -5h20q16 0 27 -11t11 -27v-176q0 -8 5 -12.5t12 -4.5h22q16 0 27 -11t11 -28v-328q0 -8 5.5 -13t13.5 -5h40
q8 0 13 5t5 13v328q0 17 11 28t28 11h21q7 0 12 4.5t5 12.5v252z" />
    <glyph glyph-name="wcircumflex" unicode="&#x175;" horiz-adv-x="915" 
d="M534 691q16 0 27.5 -11t11.5 -28v-21q0 -8 -5 -12.5t-12 -4.5h-22q-16 0 -27 11t-11 27v20q0 8 -5.5 13.5t-13.5 5.5h-40q-8 0 -13 -5.5t-5 -13.5v-20q0 -16 -11 -27t-28 -11h-21q-17 0 -17 17v21q0 17 11 28t27 11h20q8 0 13.5 5t5.5 13v20q0 17 11 28t28 11
q16 -1 27 -12.5t11 -27.5v-19q0 -8 5 -13t13 -5h20zM803 499q0 17 11 28t28 11h21q7 0 12 -5t5 -12v-252q0 -16 -11 -27t-27 -11h-22q-7 0 -12 -5t-5 -12v-99q0 -16 -11 -27t-27 -11h-20q-8 0 -13.5 -5.5t-5.5 -13.5v-20q0 -16 -11 -27t-28 -11q-16 0 -27 12t-11 28v18
q0 8 -5 13.5t-13 5.5h-20q-16 0 -27 11t-11 27v99q0 7 -5 12t-12 5h-22q-16 0 -27 11t-11 27v174q0 8 -5.5 13t-13.5 5h-40q-8 0 -13 -5t-5 -13v-174q0 -16 -11 -27t-28 -11h-21q-7 0 -12 -5t-5 -12v-99q0 -16 -11 -27t-27 -11h-20q-19 0 -19 -19v-20q0 -16 -11 -27t-28 -11
q-16 0 -27 12t-11 28v18q0 8 -5 13.5t-13 5.5h-20q-16 0 -27 11t-11 27v99q0 7 -5 12t-12 5h-22q-16 0 -27 11t-11 27v230q0 17 11 28t27 11h22q7 0 12 -5t5 -12v-197q0 -7 4.5 -12t11.5 -5h22q16 0 27 -11t11 -27v-174q0 -8 5.5 -13t13.5 -5h40q8 0 13 5t5 13v174
q0 16 11 27t28 11h21q8 0 12.5 5t4.5 12v99q0 16 11 27t27 11h20q8 0 13.5 5t5.5 13v20q0 17 11 28t28 11q16 0 27 -12t11 -28v-19q0 -8 5 -13t13 -5h20q16 0 27.5 -11t11.5 -27v-99q0 -7 4.5 -12t11.5 -5h22q16 0 27 -11t11 -27v-174q0 -8 5.5 -13t13.5 -5h40q8 0 13 5
t5 13v174q0 16 11 27t28 11h21q8 0 12.5 5t4.5 12v175z" />
    <glyph glyph-name="Ycircumflex" unicode="&#x176;" horiz-adv-x="619" 
d="M385 923q16 0 27.5 -11t11.5 -28v-21q0 -8 -5 -12.5t-12 -4.5h-22q-16 0 -27 11t-11 27v20q0 8 -5.5 13.5t-13.5 5.5h-40q-8 0 -13 -5.5t-5 -13.5v-20q0 -16 -11 -27t-28 -11h-21q-17 0 -17 17v21q0 17 11 28t27 11h20q8 0 13.5 5t5.5 13v20q0 17 11 28t28 11
q16 -1 27 -12.5t11 -27.5v-19q0 -8 5 -13t13 -5h20zM502 732q0 16 11 27t27 11h22q7 0 12 -4.5t5 -12.5v-175q0 -17 -11.5 -28t-27.5 -11h-22q-16 0 -16 -17v-98q0 -16 -11.5 -27.5t-27.5 -11.5h-97q-8 0 -13 -5t-5 -13v-328q0 -16 -11.5 -27.5t-27.5 -11.5h-22
q-7 0 -11.5 5t-4.5 12v350q0 8 -5.5 13t-13.5 5h-97q-16 0 -27 11.5t-11 27.5v98q0 8 -5 12.5t-12 4.5h-22q-16 0 -27 11t-11 28v154q0 16 11 27t27 11h22q7 0 12 -4.5t5 -12.5v-120q0 -7 4.5 -12t12.5 -5h21q16 0 27.5 -11t11.5 -27v-99q0 -7 4.5 -12t11.5 -5h22
q16 0 27.5 -11t11.5 -27v-20q0 -8 5 -13.5t13 -5.5h40q8 0 13.5 5.5t5.5 13.5v20q0 16 11 27t27 11h22q7 0 12 5t5 12v99q0 16 11 27t27 11h22q7 0 12 5t5 12v99z" />
    <glyph glyph-name="ycircumflex" unicode="&#x177;" 
d="M556 538q7 0 12 -4.5t5 -12.5v-175q0 -16 -11.5 -27t-27.5 -11h-22q-7 0 -11.5 -5t-4.5 -12v-99q0 -16 -11.5 -27t-27.5 -11h-21q-17 0 -17 -17v-99q0 -16 -11 -27t-28 -11h-96q-8 0 -13.5 -5t-5.5 -13v-97q0 -16 -11 -27t-27 -11h-20q-8 0 -13.5 -5.5t-5.5 -13.5v-20
q0 -16 -11 -27t-27 -11h-99q-16 0 -16 17v21q0 16 11 27.5t27 11.5h97q8 0 13 5t5 13v97q0 16 11.5 27t27.5 11h20q8 0 13 5.5t5 13.5v40q0 8 -5 13t-13 5h-20q-16 0 -27 11t-12 27v22q0 17 -16 17h-22q-16 0 -27.5 11t-11.5 27v99q0 7 -4.5 12t-11.5 5h-22q-16 0 -27 11
t-11 27v154q0 16 11 27t27 11h22q16 0 16 -17v-120q0 -7 5 -11.5t12 -4.5h22q16 0 27 -11.5t11 -27.5v-98q0 -8 5 -12.5t12 -4.5h22q16 0 27 -11t11 -28v-96q0 -19 19 -19h41q8 0 12.5 5t4.5 12v98q0 17 11 28t27 11h22q7 0 12 4.5t5 12.5v98q0 16 11 27.5t27 11.5h22
q7 0 12 4.5t5 11.5v99q0 16 11 27t27 11h22zM389 693q16 0 27.5 -11t11.5 -28v-21q0 -8 -5 -12.5t-12 -4.5h-22q-16 0 -27 11t-11 27v20q0 8 -5.5 13.5t-13.5 5.5h-40q-8 0 -13 -5.5t-5 -13.5v-20q0 -16 -11 -27t-28 -11h-21q-17 0 -17 17v21q0 17 11 28t27 11h20
q8 0 13.5 5t5.5 13v20q0 17 11 28t28 11q16 -1 27 -12.5t11 -27.5v-19q0 -8 5 -13t13 -5h20z" />
    <glyph glyph-name="Ydieresis" unicode="&#x178;" horiz-adv-x="619" 
d="M193 885q0 16 11 27t27 11h22q7 0 12 -5t5 -12v-21q0 -17 -11.5 -28t-27.5 -11h-21q-8 0 -12.5 5t-4.5 12v22zM347 885q0 16 11 27t27 11h22q7 0 11.5 -5t4.5 -12v-21q0 -17 -11 -28t-27 -11h-22q-7 0 -11.5 5t-4.5 12v22zM502 732q0 16 11 27t27 11h22q7 0 12 -4.5
t5 -12.5v-175q0 -17 -11.5 -28t-27.5 -11h-22q-16 0 -16 -17v-98q0 -16 -11.5 -27.5t-27.5 -11.5h-97q-8 0 -13 -5t-5 -13v-328q0 -16 -11.5 -27.5t-27.5 -11.5h-22q-7 0 -11.5 5t-4.5 12v350q0 8 -5.5 13t-13.5 5h-97q-16 0 -27 11.5t-11 27.5v98q0 8 -5 12.5t-12 4.5h-22
q-16 0 -27 11t-11 28v154q0 16 11 27t27 11h22q7 0 12 -4.5t5 -12.5v-120q0 -7 4.5 -12t12.5 -5h21q16 0 27.5 -11t11.5 -27v-99q0 -7 4.5 -12t11.5 -5h22q16 0 27.5 -11t11.5 -27v-20q0 -8 5 -13.5t13 -5.5h40q8 0 13.5 5.5t5.5 13.5v20q0 16 11 27t27 11h22q7 0 12 5t5 12
v99q0 16 11 27t27 11h22q7 0 12 5t5 12v99z" />
    <glyph glyph-name="zcaron" unicode="&#x17e;" horiz-adv-x="600" 
d="M224 693q-16 0 -27.5 11t-11.5 27v22q0 7 5 12t12 5h22q16 0 27 -11t11 -28v-20q0 -8 5.5 -13t13.5 -5h40q8 0 13 5t5 13v20q0 17 11 28t28 11h21q8 0 12.5 -5t4.5 -12v-22q0 -16 -11 -27t-27 -11h-20q-8 0 -13.5 -5t-5.5 -13v-20q0 -17 -11 -28t-28 -11q-16 0 -27 12
t-11 28v19q0 8 -5 13t-13 5h-20zM534 538q17 0 28 -11t11 -28v-76q0 -17 -11 -28t-28 -11h-23q-15 -2 -15 -18v-20q0 -16 -11 -27.5t-28 -11.5h-100q-6 -1 -10.5 -6t-4.5 -12v-20q0 -16 -11 -27t-27 -11h-97q-8 0 -13 -5.5t-6 -13.5v-20q0 -16 -11 -27t-27 -11h-22
q-7 0 -11.5 -5t-4.5 -12v-42q0 -8 5 -13t13 -5h426q7 0 12 -5t5 -12v-22q0 -16 -11.5 -27t-27.5 -11h-384q-16 0 -27 11t-11 27v20q0 8 -5.5 13.5t-13.5 5.5h-20q-16 0 -27 11t-11 27v77q0 16 11 27.5t27 11.5h97q8 0 13 5t5 13v20q0 16 11.5 27t27.5 11h97v1q8 0 13 5t5 13
v20q0 16 11 27t28 11h97l-1 1q8 0 13.5 5t5.5 13v41q0 8 -5 12.5t-12 4.5h-427q-8 0 -12.5 5t-4.5 12v21q0 17 11 28t27 11h461z" />
    <glyph glyph-name="Ohorn" unicode="&#x1a0;" horiz-adv-x="773" 
d="M694 616q17 0 28 -11t11 -28v-385q0 -16 -11 -27t-28 -11h-20q-8 0 -13 -5.5t-5 -13.5v-97q0 -16 -11 -27t-28 -11h-385q-16 0 -27 11t-11 27v21q0 8 -5 13t-13 5h-20q-17 0 -28 11t-11 27v20q0 8 -5 13.5t-13 5.5h-20q-17 0 -28 11t-11 27v385q0 17 11 28t28 11h20
q8 0 13 5t5 13v97q0 16 11 27.5t28 11.5h384q17 0 28 -11.5t11 -27.5v-20q0 -8 5 -13t13 -5h20q17 0 28 -11.5t11 -27.5v-20q0 -8 5 -13t13 -5h20zM637 154q8 0 13.5 5t5.5 13v425q0 8 -5.5 13.5t-13.5 5.5h-20q-16 0 -27 11t-11 27v20q0 19 -19 19h-349q-7 0 -12 -5t-5 -12
v-22q0 -16 -11 -27t-27 -11h-21q-8 0 -13 -5.5t-5 -13.5v-425q0 -8 5 -13t13 -5h21q16 0 27 -11t11 -28v-20q0 -8 5 -13t13 -5h350q7 0 12 4.5t5 12.5v21q0 17 11 28t27 11h20zM745 819q0 -15 -11 -25.5t-25 -10.5h-19q-8 0 -12.5 -5t-4.5 -12v-19q0 -15 -11 -26t-26 -11
h-21q-6 0 -10.5 4.5t-4.5 11.5v21q0 14 10.5 25t25.5 11h19q7 0 12.5 4.5t5.5 12.5v92q0 15 10.5 25.5t25.5 10.5h20q7 0 11.5 -5t4.5 -11v-93z" />
    <glyph glyph-name="ohorn" unicode="&#x1a1;" horiz-adv-x="685" 
d="M611 384q17 0 28 -11t11 -27v-154q0 -16 -11 -27t-28 -11h-20q-8 0 -13 -5.5t-5 -13.5v-97q0 -16 -11 -27t-28 -11h-307q-16 0 -27 11t-11 27v20q0 8 -5.5 13.5t-13.5 5.5h-20q-16 0 -27 11t-11 27v20q0 8 -5.5 13.5t-13.5 5.5h-20q-16 0 -27 11t-11 27v154q0 16 11 27
t27 11h20q19 0 19 19v96q0 17 11 28t27 11h308q16 0 27 -11t11 -28v-20q0 -8 5 -13t13 -5h20q17 0 28 -11t11 -27v-20q0 -8 5 -13.5t13 -5.5h20zM554 154q8 0 13.5 5t5.5 13v194q0 8 -5.5 13t-13.5 5h-20q-16 0 -27 11t-11 28v20q0 8 -5 13t-13 5h-289v-38q0 -17 -11.5 -28
t-27.5 -11h-20q-8 0 -13 -5t-5 -13v-194q0 -8 5 -13t13 -5h20q16 0 27.5 -11.5t11.5 -27.5v-20q0 -8 5 -13t13 -5h289v38q0 16 11 27.5t27 11.5h20zM663 588q0 -15 -11 -25.5t-25 -10.5h-19q-8 0 -12.5 -5t-4.5 -12v-19q0 -15 -11 -26t-26 -11h-21q-6 0 -10.5 4.5t-4.5 11.5
v21q0 14 10.5 25t25.5 11h19q7 0 12.5 4.5t5.5 12.5v92q0 15 10.5 25.5t25.5 10.5h20q7 0 11.5 -5t4.5 -11v-93z" />
    <glyph glyph-name="Uhorn" unicode="&#x1af;" horiz-adv-x="696" 
d="M727 810q0 -15 -11 -25.5t-25 -10.5h-19q-15 0 -17 -16q1 -1 1 -5v-561q0 -16 -11 -27t-28 -11h-20q-8 0 -13 -5t-5 -13v-98q0 -16 -11 -27t-28 -11h-307q-17 0 -28 11t-11 27v21q0 8 -5 13t-13 5h-20q-17 0 -28 11t-11 27v21q0 8 -5 13t-13 5h-20q-17 0 -28 11t-11 27
v539q0 16 11 27.5t28 11.5h21q8 0 12.5 -5t4.5 -12v-581q0 -8 5.5 -13t13.5 -5h20q16 0 27 -11t11 -28v-20q0 -8 5.5 -13t13.5 -5h272q7 0 12 4.5t5 12.5v21q0 17 11 28t27 11h21q8 0 13 5t5 13v559q0 11 6 20q4 10 13 16.5t20 6.5h19q7 0 12.5 4.5t5.5 12.5v92
q0 15 10.5 25.5t25.5 10.5h20q7 0 11.5 -5t4.5 -11v-93z" />
    <glyph glyph-name="uhorn" unicode="&#x1b0;" horiz-adv-x="638" 
d="M660 576q0 -15 -11 -25.5t-25 -10.5h-19q-8 0 -12.5 -5t-4.5 -12v-485q0 -16 -11.5 -27t-27.5 -11h-21q-8 0 -12.5 5t-4.5 12v98q0 -16 -11 -27t-28 -11h-20q-8 0 -13 -5.5t-5 -13.5v-20q0 -16 -11 -27t-27 -11h-231q-16 0 -27 11t-11 27v20q0 8 -5.5 13.5t-13.5 5.5h-20
q-16 0 -27 11t-11 27v384q0 17 11 28t27 11h22q7 0 12 -5t5 -12v-426q0 -8 5 -13t13 -5h271q8 0 13 5t5 13v20q0 16 11 27.5t27 11.5h22q7 0 12 4.5t5 11.5v329q0 16 12 28.5t28 12.5h19q7 0 12.5 4.5t5.5 12.5v92q0 15 10.5 25.5t25.5 10.5h20q7 0 11.5 -5t4.5 -11v-93z
" />
    <glyph glyph-name="circumflex" unicode="&#x2c6;" horiz-adv-x="600" 
d="M389 693q16 0 27.5 -11t11.5 -28v-21q0 -8 -5 -12.5t-12 -4.5h-22q-16 0 -27 11t-11 27v20q0 8 -5.5 13.5t-13.5 5.5h-40q-8 0 -13 -5.5t-5 -13.5v-20q0 -16 -11 -27t-28 -11h-21q-17 0 -17 17v21q0 17 11 28t27 11h20q8 0 13.5 5t5.5 13v20q0 17 11 28t28 11
q16 -1 27 -12.5t11 -27.5v-19q0 -8 5 -13t13 -5h20z" />
    <glyph glyph-name="caron" unicode="&#x2c7;" horiz-adv-x="600" 
d="M224 693q-16 0 -27.5 11t-11.5 27v22q0 7 5 12t12 5h22q16 0 27 -11t11 -28v-20q0 -8 5.5 -13t13.5 -5h40q8 0 13 5t5 13v20q0 17 11 28t28 11h21q8 0 12.5 -5t4.5 -12v-22q0 -16 -11 -27t-27 -11h-20q-8 0 -13.5 -5t-5.5 -13v-20q0 -17 -11 -28t-28 -11q-16 0 -27 12
t-11 28v19q0 8 -5 13t-13 5h-20z" />
    <glyph glyph-name="dotaccent" unicode="&#x2d9;" horiz-adv-x="600" 
d="M275 655q0 16 11 27t27 11h22q7 0 11.5 -5t4.5 -12v-21q0 -17 -11 -28t-27 -11h-22q-7 0 -11.5 5t-4.5 12v22z" />
    <glyph glyph-name="ring" unicode="&#x2da;" horiz-adv-x="600" 
d="M391 767q16 0 27 -11t11 -27t-11 -27t-27 -11h-21q-8 0 -13 -5.5t-5 -13.5v-20q0 -15 -11 -26.5t-26 -11.5q-17 0 -28.5 11.5t-11.5 27.5v19q0 8 -5 13.5t-13 5.5h-20q-17 0 -28 11t-11 27t11 27t28 11h20q8 0 13 5.5t5 13.5v20q0 15 11 26.5t26 11.5q17 0 28.5 -11.5
t11.5 -27.5v-19q0 -8 5 -13.5t13 -5.5h21zM352 749q0 8 -5 13t-13 5h-40q-8 0 -13.5 -5t-5.5 -13v-40q0 -8 5.5 -13t13.5 -5h40q8 0 13 5t5 13v40z" />
    <glyph glyph-name="tilde" unicode="&#x2dc;" horiz-adv-x="600" 
d="M484 770q7 0 12 -4.5t5 -11.5v-22q0 -16 -11.5 -27t-27.5 -11h-20q-8 0 -13 -5.5t-5 -13.5v-20q0 -15 -11 -26.5t-27 -11.5q-17 0 -28 11.5t-11 27.5v19q0 8 -5.5 13.5t-13.5 5.5h-40q-8 0 -13 -5.5t-5 -13.5v-20q0 -16 -11 -27t-28 -11h-21q-17 0 -17 16v22
q0 16 11 27.5t27 11.5h20q8 0 13.5 5t5.5 13v20q0 15 10.5 26.5t26.5 11.5q17 0 28.5 -11.5t11.5 -27.5v-19q0 -8 5 -13t13 -5h40q8 0 13.5 5t5.5 13v20q0 16 11 27t27 11h22z" />
    <glyph glyph-name="gravecomb" unicode="&#x300;" horiz-adv-x="0" 
d="M-270 694q16 0 27 -11t11 -27v-22q0 -7 -4.5 -12t-11.5 -5h-22q-16 0 -27.5 11t-11.5 28v20q0 8 -5 13t-13 5h-20q-16 0 -27 11t-11 27v22q0 7 4.5 12t11.5 5h22q16 0 27 -11t11 -28v-20q0 -8 5.5 -13t13.5 -5h20z" />
    <glyph glyph-name="acutecomb" unicode="&#x301;" horiz-adv-x="0" 
d="M-296 731q0 17 11 28t27 11h22q7 0 12 -5t5 -12v-22q0 -16 -11 -27t-28 -11h-20q-8 0 -13 -5t-5 -13v-20q0 -17 -11 -28t-27 -11h-22q-7 0 -12 5t-5 12v22q0 16 11 27t28 11h20q8 0 13 5t5 13v20z" />
    <glyph glyph-name="uni0302" unicode="&#x302;" horiz-adv-x="0" 
d="M-211 693q16 0 27.5 -11t11.5 -28v-21q0 -8 -5 -12.5t-12 -4.5h-22q-16 0 -27 11t-11 27v20q0 8 -5.5 13.5t-13.5 5.5h-40q-8 0 -13 -5.5t-5 -13.5v-20q0 -16 -11 -27t-28 -11h-21q-17 0 -17 17v21q0 17 11 28t27 11h20q8 0 13.5 5t5.5 13v20q0 17 11 28t28 11
q16 -1 27 -12.5t11 -27.5v-19q0 -8 5 -13t13 -5h20z" />
    <glyph glyph-name="tildecomb" unicode="&#x303;" horiz-adv-x="0" 
d="M-116 770q7 0 12 -4.5t5 -11.5v-22q0 -16 -11.5 -27t-27.5 -11h-20q-8 0 -13 -5.5t-5 -13.5v-20q0 -15 -11 -26.5t-27 -11.5q-17 0 -28 11.5t-11 27.5v19q0 8 -5.5 13.5t-13.5 5.5h-40q-8 0 -13 -5.5t-5 -13.5v-20q0 -16 -11 -27t-28 -11h-21q-17 0 -17 16v22
q0 16 11 27.5t27 11.5h20q8 0 13.5 5t5.5 13v20q0 15 10.5 26.5t26.5 11.5q17 0 28.5 -11.5t11.5 -27.5v-19q0 -8 5 -13t13 -5h40q8 0 13.5 5t5.5 13v20q0 16 11 27t27 11h22z" />
    <glyph glyph-name="uni0307" unicode="&#x307;" horiz-adv-x="0" 
d="M-325 655q0 16 11 27t27 11h22q7 0 11.5 -5t4.5 -12v-21q0 -17 -11 -28t-27 -11h-22q-7 0 -11.5 5t-4.5 12v22z" />
    <glyph glyph-name="uni0308" unicode="&#x308;" horiz-adv-x="0" 
d="M-403 655q0 16 11 27t27 11h22q7 0 12 -5t5 -12v-21q0 -17 -11.5 -28t-27.5 -11h-21q-8 0 -12.5 5t-4.5 12v22zM-249 655q0 16 11 27t27 11h22q7 0 11.5 -5t4.5 -12v-21q0 -17 -11 -28t-27 -11h-22q-7 0 -11.5 5t-4.5 12v22z" />
    <glyph glyph-name="uni030A" unicode="&#x30a;" horiz-adv-x="0" 
d="M-209 767q16 0 27 -11t11 -27t-11 -27t-27 -11h-21q-8 0 -13 -5.5t-5 -13.5v-20q0 -15 -11 -26.5t-26 -11.5q-17 0 -28.5 11.5t-11.5 27.5v19q0 8 -5 13.5t-13 5.5h-20q-17 0 -28 11t-11 27t11 27t28 11h20q8 0 13 5.5t5 13.5v20q0 15 11 26.5t26 11.5q17 0 28.5 -11.5
t11.5 -27.5v-19q0 -8 5 -13.5t13 -5.5h21zM-248 749q0 8 -5 13t-13 5h-40q-8 0 -13.5 -5t-5.5 -13v-40q0 -8 5.5 -13t13.5 -5h40q8 0 13 5t5 13v40z" />
    <glyph glyph-name="uni0327" unicode="&#x327;" horiz-adv-x="0" 
d="M-197 -77q16 0 27.5 -11t10.5 -28q0 -16 -11.5 -27t-27.5 -11h-19q-8 0 -13 -5t-5 -13v-20q0 -16 -11.5 -27.5t-27.5 -11.5h-22q-7 0 -11.5 5t-4.5 12v22q0 16 11 27t27 11h20q8 0 13.5 5.5t5.5 13.5v40q0 8 -5.5 13t-13.5 5h-19q-16 0 -27.5 11t-11.5 27
q-1 16 10.5 27.5t27.5 11.5h55q-16 0 -16 -17v-41q0 -8 5 -13.5t13 -5.5h20z" />
    <glyph glyph-name="Wgrave" unicode="&#x1e80;" horiz-adv-x="927" 
d="M503 924q16 0 27 -11t11 -27v-22q0 -7 -4.5 -12t-11.5 -5h-22q-16 0 -27.5 11t-11.5 28v20q0 8 -5 13t-13 5h-20q-16 0 -27 11t-11 27v22q0 7 4.5 12t11.5 5h22q16 0 27 -11t11 -28v-20q0 -8 5.5 -13t13.5 -5h20zM810 731q0 17 11 28t27 11h22q7 0 12 -5t5 -12v-330
q0 -16 -11 -27t-28 -11h-21q-7 0 -12 -5t-5 -12v-252q0 -17 -11 -28t-27 -11h-21q-8 0 -13 -5t-5 -13v-20q0 -17 -11.5 -28t-27.5 -11t-27 12t-11 28v19q0 8 -5 13t-13 5h-20q-17 0 -28 11t-11 28v252q0 7 -4.5 12t-12.5 5h-21q-17 0 -28 11t-11 27v251q0 8 -5 13.5t-13 5.5
h-40q-19 0 -19 -19v-251q0 -16 -11 -27t-27 -11h-22q-7 0 -12 -5t-5 -12v-252q0 -17 -11 -28t-27 -11h-20q-8 0 -13.5 -5t-5.5 -13v-20q0 -17 -11 -28t-28 -11q-16 0 -27 12t-11 28v19q0 8 -5 13t-13 5h-20q-16 0 -27.5 11t-11.5 28v252q0 7 -4.5 12t-12.5 5h-21
q-16 0 -27.5 11t-11.5 27v309q0 16 11.5 27t27.5 11h21q8 0 12.5 -5t4.5 -12v-274q0 -8 5 -12.5t12 -4.5h22q16 0 27 -11t11 -28v-328q0 -8 5.5 -13t13.5 -5h40q8 0 13 5t5 13v328q0 17 11 28t28 11h21q17 0 17 17v175q0 16 11.5 27.5t27.5 11.5h20q8 0 13 5t5 13v21
q0 16 11 27t28 11q16 0 27 -11t11 -27v-21q0 -8 5.5 -13t13.5 -5h20q16 0 27 -11t11 -27v-176q0 -8 5 -12.5t12 -4.5h22q16 0 27 -11t11 -28v-328q0 -8 5.5 -13t13.5 -5h40q8 0 13 5t5 13v328q0 17 11 28t28 11h21q7 0 12 4.5t5 12.5v252z" />
    <glyph glyph-name="wgrave" unicode="&#x1e81;" horiz-adv-x="915" 
d="M497 692q16 0 27 -11t11 -27v-22q0 -7 -4.5 -12t-11.5 -5h-22q-16 0 -27.5 11t-11.5 28v20q0 8 -5 13t-13 5h-20q-16 0 -27 11t-11 27v22q0 7 4.5 12t11.5 5h22q16 0 27 -11t11 -28v-20q0 -8 5.5 -13t13.5 -5h20zM803 499q0 17 11 28t28 11h21q7 0 12 -5t5 -12v-252
q0 -16 -11 -27t-27 -11h-22q-7 0 -12 -5t-5 -12v-99q0 -16 -11 -27t-27 -11h-20q-8 0 -13.5 -5.5t-5.5 -13.5v-20q0 -16 -11 -27t-28 -11q-16 0 -27 12t-11 28v18q0 8 -5 13.5t-13 5.5h-20q-16 0 -27 11t-11 27v99q0 7 -5 12t-12 5h-22q-16 0 -27 11t-11 27v174q0 8 -5.5 13
t-13.5 5h-40q-8 0 -13 -5t-5 -13v-174q0 -16 -11 -27t-28 -11h-21q-7 0 -12 -5t-5 -12v-99q0 -16 -11 -27t-27 -11h-20q-19 0 -19 -19v-20q0 -16 -11 -27t-28 -11q-16 0 -27 12t-11 28v18q0 8 -5 13.5t-13 5.5h-20q-16 0 -27 11t-11 27v99q0 7 -5 12t-12 5h-22q-16 0 -27 11
t-11 27v230q0 17 11 28t27 11h22q7 0 12 -5t5 -12v-197q0 -7 4.5 -12t11.5 -5h22q16 0 27 -11t11 -27v-174q0 -8 5.5 -13t13.5 -5h40q8 0 13 5t5 13v174q0 16 11 27t28 11h21q8 0 12.5 5t4.5 12v99q0 16 11 27t27 11h20q8 0 13.5 5t5.5 13v20q0 17 11 28t28 11q16 0 27 -12
t11 -28v-19q0 -8 5 -13t13 -5h20q16 0 27.5 -11t11.5 -27v-99q0 -7 4.5 -12t11.5 -5h22q16 0 27 -11t11 -27v-174q0 -8 5.5 -13t13.5 -5h40q8 0 13 5t5 13v174q0 16 11 27t28 11h21q8 0 12.5 5t4.5 12v175z" />
    <glyph glyph-name="Wacute" unicode="&#x1e82;" horiz-adv-x="927" 
d="M464 961q0 17 11 28t27 11h22q7 0 12 -5t5 -12v-22q0 -16 -11 -27t-28 -11h-20q-8 0 -13 -5t-5 -13v-20q0 -17 -11 -28t-27 -11h-22q-7 0 -12 5t-5 12v22q0 16 11 27t28 11h20q8 0 13 5t5 13v20zM810 731q0 17 11 28t27 11h22q7 0 12 -5t5 -12v-330q0 -16 -11 -27
t-28 -11h-21q-7 0 -12 -5t-5 -12v-252q0 -17 -11 -28t-27 -11h-21q-8 0 -13 -5t-5 -13v-20q0 -17 -11.5 -28t-27.5 -11t-27 12t-11 28v19q0 8 -5 13t-13 5h-20q-17 0 -28 11t-11 28v252q0 7 -4.5 12t-12.5 5h-21q-17 0 -28 11t-11 27v251q0 8 -5 13.5t-13 5.5h-40
q-19 0 -19 -19v-251q0 -16 -11 -27t-27 -11h-22q-7 0 -12 -5t-5 -12v-252q0 -17 -11 -28t-27 -11h-20q-8 0 -13.5 -5t-5.5 -13v-20q0 -17 -11 -28t-28 -11q-16 0 -27 12t-11 28v19q0 8 -5 13t-13 5h-20q-16 0 -27.5 11t-11.5 28v252q0 7 -4.5 12t-12.5 5h-21q-16 0 -27.5 11
t-11.5 27v309q0 16 11.5 27t27.5 11h21q8 0 12.5 -5t4.5 -12v-274q0 -8 5 -12.5t12 -4.5h22q16 0 27 -11t11 -28v-328q0 -8 5.5 -13t13.5 -5h40q8 0 13 5t5 13v328q0 17 11 28t28 11h21q17 0 17 17v175q0 16 11.5 27.5t27.5 11.5h20q8 0 13 5t5 13v21q0 16 11 27t28 11
q16 0 27 -11t11 -27v-21q0 -8 5.5 -13t13.5 -5h20q16 0 27 -11t11 -27v-176q0 -8 5 -12.5t12 -4.5h22q16 0 27 -11t11 -28v-328q0 -8 5.5 -13t13.5 -5h40q8 0 13 5t5 13v328q0 17 11 28t28 11h21q7 0 12 4.5t5 12.5v252z" />
    <glyph glyph-name="wacute" unicode="&#x1e83;" horiz-adv-x="915" 
d="M458 729q0 17 11 28t27 11h22q7 0 12 -5t5 -12v-22q0 -16 -11 -27t-28 -11h-20q-8 0 -13 -5t-5 -13v-20q0 -17 -11 -28t-27 -11h-22q-7 0 -12 5t-5 12v22q0 16 11 27t28 11h20q8 0 13 5t5 13v20zM803 499q0 17 11 28t28 11h21q7 0 12 -5t5 -12v-252q0 -16 -11 -27
t-27 -11h-22q-7 0 -12 -5t-5 -12v-99q0 -16 -11 -27t-27 -11h-20q-8 0 -13.5 -5.5t-5.5 -13.5v-20q0 -16 -11 -27t-28 -11q-16 0 -27 12t-11 28v18q0 8 -5 13.5t-13 5.5h-20q-16 0 -27 11t-11 27v99q0 7 -5 12t-12 5h-22q-16 0 -27 11t-11 27v174q0 8 -5.5 13t-13.5 5h-40
q-8 0 -13 -5t-5 -13v-174q0 -16 -11 -27t-28 -11h-21q-7 0 -12 -5t-5 -12v-99q0 -16 -11 -27t-27 -11h-20q-19 0 -19 -19v-20q0 -16 -11 -27t-28 -11q-16 0 -27 12t-11 28v18q0 8 -5 13.5t-13 5.5h-20q-16 0 -27 11t-11 27v99q0 7 -5 12t-12 5h-22q-16 0 -27 11t-11 27v230
q0 17 11 28t27 11h22q7 0 12 -5t5 -12v-197q0 -7 4.5 -12t11.5 -5h22q16 0 27 -11t11 -27v-174q0 -8 5.5 -13t13.5 -5h40q8 0 13 5t5 13v174q0 16 11 27t28 11h21q8 0 12.5 5t4.5 12v99q0 16 11 27t27 11h20q8 0 13.5 5t5.5 13v20q0 17 11 28t28 11q16 0 27 -12t11 -28v-19
q0 -8 5 -13t13 -5h20q16 0 27.5 -11t11.5 -27v-99q0 -7 4.5 -12t11.5 -5h22q16 0 27 -11t11 -27v-174q0 -8 5.5 -13t13.5 -5h40q8 0 13 5t5 13v174q0 16 11 27t28 11h21q8 0 12.5 5t4.5 12v175z" />
    <glyph glyph-name="Wdieresis" unicode="&#x1e84;" horiz-adv-x="927" 
d="M348 885q0 16 11 27t27 11h22q7 0 12 -5t5 -12v-21q0 -17 -11.5 -28t-27.5 -11h-21q-8 0 -12.5 5t-4.5 12v22zM502 885q0 16 11 27t27 11h22q7 0 11.5 -5t4.5 -12v-21q0 -17 -11 -28t-27 -11h-22q-7 0 -11.5 5t-4.5 12v22zM810 731q0 17 11 28t27 11h22q7 0 12 -5t5 -12
v-330q0 -16 -11 -27t-28 -11h-21q-7 0 -12 -5t-5 -12v-252q0 -17 -11 -28t-27 -11h-21q-8 0 -13 -5t-5 -13v-20q0 -17 -11.5 -28t-27.5 -11t-27 12t-11 28v19q0 8 -5 13t-13 5h-20q-17 0 -28 11t-11 28v252q0 7 -4.5 12t-12.5 5h-21q-17 0 -28 11t-11 27v251q0 8 -5 13.5
t-13 5.5h-40q-19 0 -19 -19v-251q0 -16 -11 -27t-27 -11h-22q-7 0 -12 -5t-5 -12v-252q0 -17 -11 -28t-27 -11h-20q-8 0 -13.5 -5t-5.5 -13v-20q0 -17 -11 -28t-28 -11q-16 0 -27 12t-11 28v19q0 8 -5 13t-13 5h-20q-16 0 -27.5 11t-11.5 28v252q0 7 -4.5 12t-12.5 5h-21
q-16 0 -27.5 11t-11.5 27v309q0 16 11.5 27t27.5 11h21q8 0 12.5 -5t4.5 -12v-274q0 -8 5 -12.5t12 -4.5h22q16 0 27 -11t11 -28v-328q0 -8 5.5 -13t13.5 -5h40q8 0 13 5t5 13v328q0 17 11 28t28 11h21q17 0 17 17v175q0 16 11.5 27.5t27.5 11.5h20q8 0 13 5t5 13v21
q0 16 11 27t28 11q16 0 27 -11t11 -27v-21q0 -8 5.5 -13t13.5 -5h20q16 0 27 -11t11 -27v-176q0 -8 5 -12.5t12 -4.5h22q16 0 27 -11t11 -28v-328q0 -8 5.5 -13t13.5 -5h40q8 0 13 5t5 13v328q0 17 11 28t28 11h21q7 0 12 4.5t5 12.5v252z" />
    <glyph glyph-name="wdieresis" unicode="&#x1e85;" horiz-adv-x="915" 
d="M342 653q0 16 11 27t27 11h22q7 0 12 -5t5 -12v-21q0 -17 -11.5 -28t-27.5 -11h-21q-8 0 -12.5 5t-4.5 12v22zM496 653q0 16 11 27t27 11h22q7 0 11.5 -5t4.5 -12v-21q0 -17 -11 -28t-27 -11h-22q-7 0 -11.5 5t-4.5 12v22zM803 499q0 17 11 28t28 11h21q7 0 12 -5t5 -12
v-252q0 -16 -11 -27t-27 -11h-22q-7 0 -12 -5t-5 -12v-99q0 -16 -11 -27t-27 -11h-20q-8 0 -13.5 -5.5t-5.5 -13.5v-20q0 -16 -11 -27t-28 -11q-16 0 -27 12t-11 28v18q0 8 -5 13.5t-13 5.5h-20q-16 0 -27 11t-11 27v99q0 7 -5 12t-12 5h-22q-16 0 -27 11t-11 27v174
q0 8 -5.5 13t-13.5 5h-40q-8 0 -13 -5t-5 -13v-174q0 -16 -11 -27t-28 -11h-21q-7 0 -12 -5t-5 -12v-99q0 -16 -11 -27t-27 -11h-20q-19 0 -19 -19v-20q0 -16 -11 -27t-28 -11q-16 0 -27 12t-11 28v18q0 8 -5 13.5t-13 5.5h-20q-16 0 -27 11t-11 27v99q0 7 -5 12t-12 5h-22
q-16 0 -27 11t-11 27v230q0 17 11 28t27 11h22q7 0 12 -5t5 -12v-197q0 -7 4.5 -12t11.5 -5h22q16 0 27 -11t11 -27v-174q0 -8 5.5 -13t13.5 -5h40q8 0 13 5t5 13v174q0 16 11 27t28 11h21q8 0 12.5 5t4.5 12v99q0 16 11 27t27 11h20q8 0 13.5 5t5.5 13v20q0 17 11 28t28 11
q16 0 27 -12t11 -28v-19q0 -8 5 -13t13 -5h20q16 0 27.5 -11t11.5 -27v-99q0 -7 4.5 -12t11.5 -5h22q16 0 27 -11t11 -27v-174q0 -8 5.5 -13t13.5 -5h40q8 0 13 5t5 13v174q0 16 11 27t28 11h21q8 0 12.5 5t4.5 12v175z" />
    <glyph glyph-name="uni1EA0" unicode="&#x1ea0;" horiz-adv-x="696" 
d="M617 154q17 0 28 -11t11 -27v-99q0 -7 -5 -12t-12 -5h-22q-16 0 -27 11.5t-11 27.5v97q0 8 -5.5 13t-13.5 5h-20q-16 0 -27 11.5t-11 27.5v77q0 -16 -11 -27.5t-28 -11.5h-327q-8 0 -13.5 -5t-5.5 -13v-174q0 -16 -11 -27.5t-27 -11.5h-22q-7 0 -12 5t-5 12v176
q0 16 11 27t28 11h20q8 0 13 5.5t5 13.5v174q0 16 11 27t28 11h20q8 0 13 5.5t5 13.5v174q0 16 11 27t28 11h20q8 0 13 5.5t5 13.5v20q0 16 11 27t27 11h77q17 0 28 -11t11 -27v-97q0 -8 5 -13.5t13 -5.5h20q17 0 28 -11t11 -27v-174q0 -8 5 -13.5t13 -5.5h20q17 0 28 -11
t11 -27v-174q0 -8 5 -13.5t13 -5.5h20zM485 308q7 0 12 5t5 12v42q0 8 -5.5 13t-13.5 5h-20q-16 0 -27 11.5t-11 27.5v174q0 8 -5 13t-13 5h-21q-16 0 -27 11t-11 28v21q0 8 -5 12.5t-12 4.5h-42q-8 0 -13 -5t-5 -13v-174q0 -16 -11 -27.5t-27 -11.5h-21q-8 0 -13 -5t-5 -13
v-119q0 -7 5 -12t12 -5h274zM308 -93q0 17 11.5 28.5t28.5 11.5h24q7 0 12.5 -5t5.5 -13v-22q0 -18 -12.5 -30t-29.5 -12h-22q-8 0 -13 5.5t-5 12.5v24z" />
    <glyph glyph-name="uni1EA1" unicode="&#x1ea1;" 
d="M150 0q-16 0 -27 11t-11 27v20q0 19 -19 19h-20q-16 0 -27 11t-11 27v77q0 16 11 27.5t27 11.5h20q8 0 13.5 5t5.5 13v20q0 16 11 27t27 11h308q16 0 27 -11t11 -27v174q0 8 -5 13t-13 5h-348q-8 0 -13 -5t-5 -13v-20q0 -17 -11 -28t-28 -11h-21q-7 0 -12 5t-5 12v22
q0 16 11 27t27 11h20q8 0 13.5 5t5.5 13v20q0 17 11 28t27 11h308q16 0 27 -11t11 -28v-20q0 -8 5 -13t13 -5h20q17 0 28 -11t11 -27v-231q0 -16 -11 -27t-28 -11h-20q-8 0 -13 -5.5t-5 -13.5v-97q0 -16 -11 -27t-27 -11h-308zM402 77q17 0 17 17v21q0 16 11 27.5t28 11.5
h20q8 0 13 5t5 13v42q0 7 -4.5 12t-12.5 5h-349q-8 0 -13 -5.5t-5 -13.5v-117q0 -8 5 -13t13 -5h272zM263 -103q0 17 11.5 28.5t28.5 11.5h24q7 0 12.5 -5t5.5 -13v-22q0 -18 -12.5 -30t-29.5 -12h-22q-8 0 -13 5.5t-5 12.5v24z" />
    <glyph glyph-name="uni1EA2" unicode="&#x1ea2;" horiz-adv-x="696" 
d="M617 154q17 0 28 -11t11 -27v-99q0 -7 -5 -12t-12 -5h-22q-16 0 -27 11.5t-11 27.5v97q0 8 -5.5 13t-13.5 5h-20q-16 0 -27 11.5t-11 27.5v77q0 -16 -11 -27.5t-28 -11.5h-327q-8 0 -13.5 -5t-5.5 -13v-174q0 -16 -11 -27.5t-27 -11.5h-22q-7 0 -12 5t-5 12v176
q0 16 11 27t28 11h20q8 0 13 5.5t5 13.5v174q0 16 11 27t28 11h20q8 0 13 5.5t5 13.5v174q0 16 11 27t28 11h20q8 0 13 5.5t5 13.5v20q0 16 11 27t27 11h77q17 0 28 -11t11 -27v-97q0 -8 5 -13.5t13 -5.5h20q17 0 28 -11t11 -27v-174q0 -8 5 -13.5t13 -5.5h20q17 0 28 -11
t11 -27v-174q0 -8 5 -13.5t13 -5.5h20zM485 308q7 0 12 5t5 12v42q0 8 -5.5 13t-13.5 5h-20q-16 0 -27 11.5t-11 27.5v174q0 8 -5 13t-13 5h-21q-16 0 -27 11t-11 28v21q0 8 -5 12.5t-12 4.5h-42q-8 0 -13 -5t-5 -13v-174q0 -16 -11 -27.5t-27 -11.5h-21q-8 0 -13 -5t-5 -13
v-119q0 -7 5 -12t12 -5h274zM351 933q-25 0 -48 -0.5t-47 0.5q-3 0 -5.5 9t-1 20.5t9 20.5t24.5 9h53q11 0 19.5 -10t8.5 -22v-14q0 -13 13 -13h14q12 0 23 -8t11 -19v-27q0 -18 -11 -27t-23 -9h-15q-12 0 -12 12v65q0 13 -13 13z" />
    <glyph glyph-name="uni1EA3" unicode="&#x1ea3;" 
d="M150 0q-16 0 -27 11t-11 27v20q0 19 -19 19h-20q-16 0 -27 11t-11 27v77q0 16 11 27.5t27 11.5h20q8 0 13.5 5t5.5 13v20q0 16 11 27t27 11h308q16 0 27 -11t11 -27v174q0 8 -5 13t-13 5h-348q-8 0 -13 -5t-5 -13v-20q0 -17 -11 -28t-28 -11h-21q-7 0 -12 5t-5 12v22
q0 16 11 27t27 11h20q8 0 13.5 5t5.5 13v20q0 17 11 28t27 11h308q16 0 27 -11t11 -28v-20q0 -8 5 -13t13 -5h20q17 0 28 -11t11 -27v-231q0 -16 -11 -27t-28 -11h-20q-8 0 -13 -5.5t-5 -13.5v-97q0 -16 -11 -27t-27 -11h-308zM402 77q17 0 17 17v21q0 16 11 27.5t28 11.5
h20q8 0 13 5t5 13v42q0 7 -4.5 12t-12.5 5h-349q-8 0 -13 -5.5t-5 -13.5v-117q0 -8 5 -13t13 -5h272zM318 704q-25 0 -48 -0.5t-47 0.5q-3 0 -5.5 9t-1 20.5t9 20.5t24.5 9h53q11 0 19.5 -10t8.5 -22v-14q0 -13 13 -13h14q12 0 23 -8t11 -19v-27q0 -18 -11 -27t-23 -9h-15
q-12 0 -12 12v65q0 13 -13 13z" />
    <glyph glyph-name="uni1EA4" unicode="&#x1ea4;" horiz-adv-x="696" 
d="M617 154q17 0 28 -11t11 -27v-99q0 -7 -5 -12t-12 -5h-22q-16 0 -27 11.5t-11 27.5v97q0 8 -5.5 13t-13.5 5h-20q-16 0 -27 11.5t-11 27.5v77q0 -16 -11 -27.5t-28 -11.5h-327q-8 0 -13.5 -5t-5.5 -13v-174q0 -16 -11 -27.5t-27 -11.5h-22q-7 0 -12 5t-5 12v176
q0 16 11 27t28 11h20q8 0 13 5.5t5 13.5v174q0 16 11 27t28 11h20q8 0 13 5.5t5 13.5v174q0 16 11 27t28 11h20q8 0 13 5.5t5 13.5v20q0 16 11 27t27 11h77q17 0 28 -11t11 -27v-97q0 -8 5 -13.5t13 -5.5h20q17 0 28 -11t11 -27v-174q0 -8 5 -13.5t13 -5.5h20q17 0 28 -11
t11 -27v-174q0 -8 5 -13.5t13 -5.5h20zM485 308q7 0 12 5t5 12v42q0 8 -5.5 13t-13.5 5h-20q-16 0 -27 11.5t-11 27.5v174q0 8 -5 13t-13 5h-21q-16 0 -27 11t-11 28v21q0 8 -5 12.5t-12 4.5h-42q-8 0 -13 -5t-5 -13v-174q0 -16 -11 -27.5t-27 -11.5h-21q-8 0 -13 -5t-5 -13
v-119q0 -7 5 -12t12 -5h274zM424 923q16 0 27.5 -11t11.5 -28v-21q0 -8 -5 -12.5t-12 -4.5h-22q-16 0 -27 11t-11 27v20q0 8 -5.5 13.5t-13.5 5.5h-40q-8 0 -13 -5.5t-5 -13.5v-20q0 -16 -11 -27t-28 -11h-21q-17 0 -17 17v21q0 17 11 28t27 11h20q8 0 13.5 5t5.5 13v20
q0 17 11 28t28 11q16 -1 27 -12.5t11 -27.5v-19q0 -8 5 -13t13 -5h20zM498 1067q0 17 11 28t27 11h22q7 0 12 -5t5 -12v-22q0 -16 -11 -27t-28 -11h-20q-8 0 -13 -5t-5 -13v-20q0 -17 -11 -28t-27 -11h-22q-7 0 -12 5t-5 12v22q0 16 11 27t28 11h20q8 0 13 5t5 13v20z" />
    <glyph glyph-name="uni1EA5" unicode="&#x1ea5;" 
d="M150 0q-16 0 -27 11t-11 27v20q0 19 -19 19h-20q-16 0 -27 11t-11 27v77q0 16 11 27.5t27 11.5h20q8 0 13.5 5t5.5 13v20q0 16 11 27t27 11h308q16 0 27 -11t11 -27v174q0 8 -5 13t-13 5h-348q-8 0 -13 -5t-5 -13v-20q0 -17 -11 -28t-28 -11h-21q-7 0 -12 5t-5 12v22
q0 16 11 27t27 11h20q8 0 13.5 5t5.5 13v20q0 17 11 28t27 11h308q16 0 27 -11t11 -28v-20q0 -8 5 -13t13 -5h20q17 0 28 -11t11 -27v-231q0 -16 -11 -27t-28 -11h-20q-8 0 -13 -5.5t-5 -13.5v-97q0 -16 -11 -27t-27 -11h-308zM402 77q17 0 17 17v21q0 16 11 27.5t28 11.5
h20q8 0 13 5t5 13v42q0 7 -4.5 12t-12.5 5h-349q-8 0 -13 -5.5t-5 -13.5v-117q0 -8 5 -13t13 -5h272zM380 691q16 0 27.5 -11t11.5 -28v-21q0 -8 -5 -12.5t-12 -4.5h-22q-16 0 -27 11t-11 27v20q0 8 -5.5 13.5t-13.5 5.5h-40q-8 0 -13 -5.5t-5 -13.5v-20q0 -16 -11 -27
t-28 -11h-21q-17 0 -17 17v21q0 17 11 28t27 11h20q8 0 13.5 5t5.5 13v20q0 17 11 28t28 11q16 -1 27 -12.5t11 -27.5v-19q0 -8 5 -13t13 -5h20zM454 835q0 17 11 28t27 11h22q7 0 12 -5t5 -12v-22q0 -16 -11 -27t-28 -11h-20q-8 0 -13 -5t-5 -13v-20q0 -17 -11 -28t-27 -11
h-22q-7 0 -12 5t-5 12v22q0 16 11 27t28 11h20q8 0 13 5t5 13v20z" />
    <glyph glyph-name="uni1EA6" unicode="&#x1ea6;" horiz-adv-x="696" 
d="M617 154q17 0 28 -11t11 -27v-99q0 -7 -5 -12t-12 -5h-22q-16 0 -27 11.5t-11 27.5v97q0 8 -5.5 13t-13.5 5h-20q-16 0 -27 11.5t-11 27.5v77q0 -16 -11 -27.5t-28 -11.5h-327q-8 0 -13.5 -5t-5.5 -13v-174q0 -16 -11 -27.5t-27 -11.5h-22q-7 0 -12 5t-5 12v176
q0 16 11 27t28 11h20q8 0 13 5.5t5 13.5v174q0 16 11 27t28 11h20q8 0 13 5.5t5 13.5v174q0 16 11 27t28 11h20q8 0 13 5.5t5 13.5v20q0 16 11 27t27 11h77q17 0 28 -11t11 -27v-97q0 -8 5 -13.5t13 -5.5h20q17 0 28 -11t11 -27v-174q0 -8 5 -13.5t13 -5.5h20q17 0 28 -11
t11 -27v-174q0 -8 5 -13.5t13 -5.5h20zM485 308q7 0 12 5t5 12v42q0 8 -5.5 13t-13.5 5h-20q-16 0 -27 11.5t-11 27.5v174q0 8 -5 13t-13 5h-21q-16 0 -27 11t-11 28v21q0 8 -5 12.5t-12 4.5h-42q-8 0 -13 -5t-5 -13v-174q0 -16 -11 -27.5t-27 -11.5h-21q-8 0 -13 -5t-5 -13
v-119q0 -7 5 -12t12 -5h274zM424 923q16 0 27.5 -11t11.5 -28v-21q0 -8 -5 -12.5t-12 -4.5h-22q-16 0 -27 11t-11 27v20q0 8 -5.5 13.5t-13.5 5.5h-40q-8 0 -13 -5.5t-5 -13.5v-20q0 -16 -11 -27t-28 -11h-21q-17 0 -17 17v21q0 17 11 28t27 11h20q8 0 13.5 5t5.5 13v20
q0 17 11 28t28 11q16 -1 27 -12.5t11 -27.5v-19q0 -8 5 -13t13 -5h20zM448 1035q16 0 27 -11t11 -27v-22q0 -7 -4.5 -12t-11.5 -5h-22q-16 0 -27.5 11t-11.5 28v20q0 8 -5 13t-13 5h-20q-16 0 -27 11t-11 27v22q0 7 4.5 12t11.5 5h22q16 0 27 -11t11 -28v-20q0 -8 5.5 -13
t13.5 -5h20z" />
    <glyph glyph-name="uni1EA7" unicode="&#x1ea7;" 
d="M150 0q-16 0 -27 11t-11 27v20q0 19 -19 19h-20q-16 0 -27 11t-11 27v77q0 16 11 27.5t27 11.5h20q8 0 13.5 5t5.5 13v20q0 16 11 27t27 11h308q16 0 27 -11t11 -27v174q0 8 -5 13t-13 5h-348q-8 0 -13 -5t-5 -13v-20q0 -17 -11 -28t-28 -11h-21q-7 0 -12 5t-5 12v22
q0 16 11 27t27 11h20q8 0 13.5 5t5.5 13v20q0 17 11 28t27 11h308q16 0 27 -11t11 -28v-20q0 -8 5 -13t13 -5h20q17 0 28 -11t11 -27v-231q0 -16 -11 -27t-28 -11h-20q-8 0 -13 -5.5t-5 -13.5v-97q0 -16 -11 -27t-27 -11h-308zM402 77q17 0 17 17v21q0 16 11 27.5t28 11.5
h20q8 0 13 5t5 13v42q0 7 -4.5 12t-12.5 5h-349q-8 0 -13 -5.5t-5 -13.5v-117q0 -8 5 -13t13 -5h272zM380 691q16 0 27.5 -11t11.5 -28v-21q0 -8 -5 -12.5t-12 -4.5h-22q-16 0 -27 11t-11 27v20q0 8 -5.5 13.5t-13.5 5.5h-40q-8 0 -13 -5.5t-5 -13.5v-20q0 -16 -11 -27
t-28 -11h-21q-17 0 -17 17v21q0 17 11 28t27 11h20q8 0 13.5 5t5.5 13v20q0 17 11 28t28 11q16 -1 27 -12.5t11 -27.5v-19q0 -8 5 -13t13 -5h20zM404 803q16 0 27 -11t11 -27v-22q0 -7 -4.5 -12t-11.5 -5h-22q-16 0 -27.5 11t-11.5 28v20q0 8 -5 13t-13 5h-20q-16 0 -27 11
t-11 27v22q0 7 4.5 12t11.5 5h22q16 0 27 -11t11 -28v-20q0 -8 5.5 -13t13.5 -5h20z" />
    <glyph glyph-name="uni1EA8" unicode="&#x1ea8;" horiz-adv-x="696" 
d="M617 154q17 0 28 -11t11 -27v-99q0 -7 -5 -12t-12 -5h-22q-16 0 -27 11.5t-11 27.5v97q0 8 -5.5 13t-13.5 5h-20q-16 0 -27 11.5t-11 27.5v77q0 -16 -11 -27.5t-28 -11.5h-327q-8 0 -13.5 -5t-5.5 -13v-174q0 -16 -11 -27.5t-27 -11.5h-22q-7 0 -12 5t-5 12v176
q0 16 11 27t28 11h20q8 0 13 5.5t5 13.5v174q0 16 11 27t28 11h20q8 0 13 5.5t5 13.5v174q0 16 11 27t28 11h20q8 0 13 5.5t5 13.5v20q0 16 11 27t27 11h77q17 0 28 -11t11 -27v-97q0 -8 5 -13.5t13 -5.5h20q17 0 28 -11t11 -27v-174q0 -8 5 -13.5t13 -5.5h20q17 0 28 -11
t11 -27v-174q0 -8 5 -13.5t13 -5.5h20zM485 308q7 0 12 5t5 12v42q0 8 -5.5 13t-13.5 5h-20q-16 0 -27 11.5t-11 27.5v174q0 8 -5 13t-13 5h-21q-16 0 -27 11t-11 28v21q0 8 -5 12.5t-12 4.5h-42q-8 0 -13 -5t-5 -13v-174q0 -16 -11 -27.5t-27 -11.5h-21q-8 0 -13 -5t-5 -13
v-119q0 -7 5 -12t12 -5h274zM424 923q16 0 27.5 -11t11.5 -28v-21q0 -8 -5 -12.5t-12 -4.5h-22q-16 0 -27 11t-11 27v20q0 8 -5.5 13.5t-13.5 5.5h-40q-8 0 -13 -5.5t-5 -13.5v-20q0 -16 -11 -27t-28 -11h-21q-17 0 -17 17v21q0 17 11 28t27 11h20q8 0 13.5 5t5.5 13v20
q0 17 11 28t28 11q16 -1 27 -12.5t11 -27.5v-19q0 -8 5 -13t13 -5h20zM404 1043q-25 0 -48 -0.5t-47 0.5q-3 0 -5.5 9t-1 20.5t9 20.5t24.5 9h53q11 0 19.5 -10t8.5 -22v-14q0 -13 13 -13h14q12 0 23 -8t11 -19v-27q0 -18 -11 -27t-23 -9h-15q-12 0 -12 12v65q0 13 -13 13z
" />
    <glyph glyph-name="uni1EA9" unicode="&#x1ea9;" 
d="M150 0q-16 0 -27 11t-11 27v20q0 19 -19 19h-20q-16 0 -27 11t-11 27v77q0 16 11 27.5t27 11.5h20q8 0 13.5 5t5.5 13v20q0 16 11 27t27 11h308q16 0 27 -11t11 -27v174q0 8 -5 13t-13 5h-348q-8 0 -13 -5t-5 -13v-20q0 -17 -11 -28t-28 -11h-21q-7 0 -12 5t-5 12v22
q0 16 11 27t27 11h20q8 0 13.5 5t5.5 13v20q0 17 11 28t27 11h308q16 0 27 -11t11 -28v-20q0 -8 5 -13t13 -5h20q17 0 28 -11t11 -27v-231q0 -16 -11 -27t-28 -11h-20q-8 0 -13 -5.5t-5 -13.5v-97q0 -16 -11 -27t-27 -11h-308zM402 77q17 0 17 17v21q0 16 11 27.5t28 11.5
h20q8 0 13 5t5 13v42q0 7 -4.5 12t-12.5 5h-349q-8 0 -13 -5.5t-5 -13.5v-117q0 -8 5 -13t13 -5h272zM380 691q16 0 27.5 -11t11.5 -28v-21q0 -8 -5 -12.5t-12 -4.5h-22q-16 0 -27 11t-11 27v20q0 8 -5.5 13.5t-13.5 5.5h-40q-8 0 -13 -5.5t-5 -13.5v-20q0 -16 -11 -27
t-28 -11h-21q-17 0 -17 17v21q0 17 11 28t27 11h20q8 0 13.5 5t5.5 13v20q0 17 11 28t28 11q16 -1 27 -12.5t11 -27.5v-19q0 -8 5 -13t13 -5h20zM360 811q-25 0 -48 -0.5t-47 0.5q-3 0 -5.5 9t-1 20.5t9 20.5t24.5 9h53q11 0 19.5 -10t8.5 -22v-14q0 -13 13 -13h14
q12 0 23 -8t11 -19v-27q0 -18 -11 -27t-23 -9h-15q-12 0 -12 12v65q0 13 -13 13z" />
    <glyph glyph-name="uni1EAA" unicode="&#x1eaa;" horiz-adv-x="696" 
d="M617 154q17 0 28 -11t11 -27v-99q0 -7 -5 -12t-12 -5h-22q-16 0 -27 11.5t-11 27.5v97q0 8 -5.5 13t-13.5 5h-20q-16 0 -27 11.5t-11 27.5v77q0 -16 -11 -27.5t-28 -11.5h-327q-8 0 -13.5 -5t-5.5 -13v-174q0 -16 -11 -27.5t-27 -11.5h-22q-7 0 -12 5t-5 12v176
q0 16 11 27t28 11h20q8 0 13 5.5t5 13.5v174q0 16 11 27t28 11h20q8 0 13 5.5t5 13.5v174q0 16 11 27t28 11h20q8 0 13 5.5t5 13.5v20q0 16 11 27t27 11h77q17 0 28 -11t11 -27v-97q0 -8 5 -13.5t13 -5.5h20q17 0 28 -11t11 -27v-174q0 -8 5 -13.5t13 -5.5h20q17 0 28 -11
t11 -27v-174q0 -8 5 -13.5t13 -5.5h20zM485 308q7 0 12 5t5 12v42q0 8 -5.5 13t-13.5 5h-20q-16 0 -27 11.5t-11 27.5v174q0 8 -5 13t-13 5h-21q-16 0 -27 11t-11 28v21q0 8 -5 12.5t-12 4.5h-42q-8 0 -13 -5t-5 -13v-174q0 -16 -11 -27.5t-27 -11.5h-21q-8 0 -13 -5t-5 -13
v-119q0 -7 5 -12t12 -5h274zM424 923q16 0 27.5 -11t11.5 -28v-21q0 -8 -5 -12.5t-12 -4.5h-22q-16 0 -27 11t-11 27v20q0 8 -5.5 13.5t-13.5 5.5h-40q-8 0 -13 -5.5t-5 -13.5v-20q0 -16 -11 -27t-28 -11h-21q-17 0 -17 17v21q0 17 11 28t27 11h20q8 0 13.5 5t5.5 13v20
q0 17 11 28t28 11q16 -1 27 -12.5t11 -27.5v-19q0 -8 5 -13t13 -5h20zM486 1167q7 0 12 -4.5t5 -11.5v-22q0 -16 -11.5 -27t-27.5 -11h-20q-8 0 -13 -5.5t-5 -13.5v-20q0 -15 -11 -26.5t-27 -11.5q-17 0 -28 11.5t-11 27.5v19q0 8 -5.5 13.5t-13.5 5.5h-40q-8 0 -13 -5.5
t-5 -13.5v-20q0 -16 -11 -27t-28 -11h-21q-17 0 -17 16v22q0 16 11 27.5t27 11.5h20q8 0 13.5 5t5.5 13v20q0 15 10.5 26.5t26.5 11.5q17 0 28.5 -11.5t11.5 -27.5v-19q0 -8 5 -13t13 -5h40q8 0 13.5 5t5.5 13v20q0 16 11 27t27 11h22z" />
    <glyph glyph-name="uni1EAB" unicode="&#x1eab;" 
d="M150 0q-16 0 -27 11t-11 27v20q0 19 -19 19h-20q-16 0 -27 11t-11 27v77q0 16 11 27.5t27 11.5h20q8 0 13.5 5t5.5 13v20q0 16 11 27t27 11h308q16 0 27 -11t11 -27v174q0 8 -5 13t-13 5h-348q-8 0 -13 -5t-5 -13v-20q0 -17 -11 -28t-28 -11h-21q-7 0 -12 5t-5 12v22
q0 16 11 27t27 11h20q8 0 13.5 5t5.5 13v20q0 17 11 28t27 11h308q16 0 27 -11t11 -28v-20q0 -8 5 -13t13 -5h20q17 0 28 -11t11 -27v-231q0 -16 -11 -27t-28 -11h-20q-8 0 -13 -5.5t-5 -13.5v-97q0 -16 -11 -27t-27 -11h-308zM402 77q17 0 17 17v21q0 16 11 27.5t28 11.5
h20q8 0 13 5t5 13v42q0 7 -4.5 12t-12.5 5h-349q-8 0 -13 -5.5t-5 -13.5v-117q0 -8 5 -13t13 -5h272zM380 691q16 0 27.5 -11t11.5 -28v-21q0 -8 -5 -12.5t-12 -4.5h-22q-16 0 -27 11t-11 27v20q0 8 -5.5 13.5t-13.5 5.5h-40q-8 0 -13 -5.5t-5 -13.5v-20q0 -16 -11 -27
t-28 -11h-21q-17 0 -17 17v21q0 17 11 28t27 11h20q8 0 13.5 5t5.5 13v20q0 17 11 28t28 11q16 -1 27 -12.5t11 -27.5v-19q0 -8 5 -13t13 -5h20zM442 935q7 0 12 -4.5t5 -11.5v-22q0 -16 -11.5 -27t-27.5 -11h-20q-8 0 -13 -5.5t-5 -13.5v-20q0 -15 -11 -26.5t-27 -11.5
q-17 0 -28 11.5t-11 27.5v19q0 8 -5.5 13.5t-13.5 5.5h-40q-8 0 -13 -5.5t-5 -13.5v-20q0 -16 -11 -27t-28 -11h-21q-17 0 -17 16v22q0 16 11 27.5t27 11.5h20q8 0 13.5 5t5.5 13v20q0 15 10.5 26.5t26.5 11.5q17 0 28.5 -11.5t11.5 -27.5v-19q0 -8 5 -13t13 -5h40
q8 0 13.5 5t5.5 13v20q0 16 11 27t27 11h22z" />
    <glyph glyph-name="uni1EAC" unicode="&#x1eac;" horiz-adv-x="696" 
d="M617 154q17 0 28 -11t11 -27v-99q0 -7 -5 -12t-12 -5h-22q-16 0 -27 11.5t-11 27.5v97q0 8 -5.5 13t-13.5 5h-20q-16 0 -27 11.5t-11 27.5v77q0 -16 -11 -27.5t-28 -11.5h-327q-8 0 -13.5 -5t-5.5 -13v-174q0 -16 -11 -27.5t-27 -11.5h-22q-7 0 -12 5t-5 12v176
q0 16 11 27t28 11h20q8 0 13 5.5t5 13.5v174q0 16 11 27t28 11h20q8 0 13 5.5t5 13.5v174q0 16 11 27t28 11h20q8 0 13 5.5t5 13.5v20q0 16 11 27t27 11h77q17 0 28 -11t11 -27v-97q0 -8 5 -13.5t13 -5.5h20q17 0 28 -11t11 -27v-174q0 -8 5 -13.5t13 -5.5h20q17 0 28 -11
t11 -27v-174q0 -8 5 -13.5t13 -5.5h20zM485 308q7 0 12 5t5 12v42q0 8 -5.5 13t-13.5 5h-20q-16 0 -27 11.5t-11 27.5v174q0 8 -5 13t-13 5h-21q-16 0 -27 11t-11 28v21q0 8 -5 12.5t-12 4.5h-42q-8 0 -13 -5t-5 -13v-174q0 -16 -11 -27.5t-27 -11.5h-21q-8 0 -13 -5t-5 -13
v-119q0 -7 5 -12t12 -5h274zM308 -93q0 17 11.5 28.5t28.5 11.5h24q7 0 12.5 -5t5.5 -13v-22q0 -18 -12.5 -30t-29.5 -12h-22q-8 0 -13 5.5t-5 12.5v24zM424 923q16 0 27.5 -11t11.5 -28v-21q0 -8 -5 -12.5t-12 -4.5h-22q-16 0 -27 11t-11 27v20q0 8 -5.5 13.5t-13.5 5.5
h-40q-8 0 -13 -5.5t-5 -13.5v-20q0 -16 -11 -27t-28 -11h-21q-17 0 -17 17v21q0 17 11 28t27 11h20q8 0 13.5 5t5.5 13v20q0 17 11 28t28 11q16 -1 27 -12.5t11 -27.5v-19q0 -8 5 -13t13 -5h20z" />
    <glyph glyph-name="uni1EAD" unicode="&#x1ead;" 
d="M150 0q-16 0 -27 11t-11 27v20q0 19 -19 19h-20q-16 0 -27 11t-11 27v77q0 16 11 27.5t27 11.5h20q8 0 13.5 5t5.5 13v20q0 16 11 27t27 11h308q16 0 27 -11t11 -27v174q0 8 -5 13t-13 5h-348q-8 0 -13 -5t-5 -13v-20q0 -17 -11 -28t-28 -11h-21q-7 0 -12 5t-5 12v22
q0 16 11 27t27 11h20q8 0 13.5 5t5.5 13v20q0 17 11 28t27 11h308q16 0 27 -11t11 -28v-20q0 -8 5 -13t13 -5h20q17 0 28 -11t11 -27v-231q0 -16 -11 -27t-28 -11h-20q-8 0 -13 -5.5t-5 -13.5v-97q0 -16 -11 -27t-27 -11h-308zM402 77q17 0 17 17v21q0 16 11 27.5t28 11.5
h20q8 0 13 5t5 13v42q0 7 -4.5 12t-12.5 5h-349q-8 0 -13 -5.5t-5 -13.5v-117q0 -8 5 -13t13 -5h272zM275 -113q0 17 11.5 28.5t28.5 11.5h24q7 0 12.5 -5t5.5 -13v-22q0 -18 -12.5 -30t-29.5 -12h-22q-8 0 -13 5.5t-5 12.5v24zM380 691q16 0 27.5 -11t11.5 -28v-21
q0 -8 -5 -12.5t-12 -4.5h-22q-16 0 -27 11t-11 27v20q0 8 -5.5 13.5t-13.5 5.5h-40q-8 0 -13 -5.5t-5 -13.5v-20q0 -16 -11 -27t-28 -11h-21q-17 0 -17 17v21q0 17 11 28t27 11h20q8 0 13.5 5t5.5 13v20q0 17 11 28t28 11q16 -1 27 -12.5t11 -27.5v-19q0 -8 5 -13t13 -5h20z
" />
    <glyph glyph-name="uni1EAE" unicode="&#x1eae;" horiz-adv-x="696" 
d="M617 154q17 0 28 -11t11 -27v-99q0 -7 -5 -12t-12 -5h-22q-16 0 -27 11.5t-11 27.5v97q0 8 -5.5 13t-13.5 5h-20q-16 0 -27 11.5t-11 27.5v77q0 -16 -11 -27.5t-28 -11.5h-327q-8 0 -13.5 -5t-5.5 -13v-174q0 -16 -11 -27.5t-27 -11.5h-22q-7 0 -12 5t-5 12v176
q0 16 11 27t28 11h20q8 0 13 5.5t5 13.5v174q0 16 11 27t28 11h20q8 0 13 5.5t5 13.5v174q0 16 11 27t28 11h20q8 0 13 5.5t5 13.5v20q0 16 11 27t27 11h77q17 0 28 -11t11 -27v-97q0 -8 5 -13.5t13 -5.5h20q17 0 28 -11t11 -27v-174q0 -8 5 -13.5t13 -5.5h20q17 0 28 -11
t11 -27v-174q0 -8 5 -13.5t13 -5.5h20zM485 308q7 0 12 5t5 12v42q0 8 -5.5 13t-13.5 5h-20q-16 0 -27 11.5t-11 27.5v174q0 8 -5 13t-13 5h-21q-16 0 -27 11t-11 28v21q0 8 -5 12.5t-12 4.5h-42q-8 0 -13 -5t-5 -13v-174q0 -16 -11 -27.5t-27 -11.5h-21q-8 0 -13 -5t-5 -13
v-119q0 -7 5 -12t12 -5h274zM227 960q14 0 24 -9.5t10 -23.5v-17q0 -16 15 -16h145q15 0 15 16v17q0 14 10 23.5t24 9.5h17q15 0 15 -15v-18q0 -14 -9.5 -23.5t-22.5 -9.5h-17q-7 0 -12 -4t-5 -12l-1 -11q0 -13 -8.5 -21.5t-21.5 -8.5h-113q-13 0 -21.5 8.5t-8.5 21.5l-1 11
q0 16 -17 16h-17q-13 0 -22.5 9.5t-9.5 23.5v17q0 5 3.5 10.5t8.5 5.5h20zM400 1071q0 17 11 28t27 11h22q7 0 12 -5t5 -12v-22q0 -16 -11 -27t-28 -11h-20q-8 0 -13 -5t-5 -13v-20q0 -17 -11 -28t-27 -11h-22q-7 0 -12 5t-5 12v22q0 16 11 27t28 11h20q8 0 13 5t5 13v20z
" />
    <glyph glyph-name="uni1EAF" unicode="&#x1eaf;" 
d="M150 0q-16 0 -27 11t-11 27v20q0 19 -19 19h-20q-16 0 -27 11t-11 27v77q0 16 11 27.5t27 11.5h20q8 0 13.5 5t5.5 13v20q0 16 11 27t27 11h308q16 0 27 -11t11 -27v174q0 8 -5 13t-13 5h-348q-8 0 -13 -5t-5 -13v-20q0 -17 -11 -28t-28 -11h-21q-7 0 -12 5t-5 12v22
q0 16 11 27t27 11h20q8 0 13.5 5t5.5 13v20q0 17 11 28t27 11h308q16 0 27 -11t11 -28v-20q0 -8 5 -13t13 -5h20q17 0 28 -11t11 -27v-231q0 -16 -11 -27t-28 -11h-20q-8 0 -13 -5.5t-5 -13.5v-97q0 -16 -11 -27t-27 -11h-308zM402 77q17 0 17 17v21q0 16 11 27.5t28 11.5
h20q8 0 13 5t5 13v42q0 7 -4.5 12t-12.5 5h-349q-8 0 -13 -5.5t-5 -13.5v-117q0 -8 5 -13t13 -5h272zM183 730q14 0 24 -9.5t10 -23.5v-17q0 -16 15 -16h145q15 0 15 16v17q0 14 10 23.5t24 9.5h17q15 0 15 -15v-18q0 -14 -9.5 -23.5t-22.5 -9.5h-17q-7 0 -12 -4t-5 -12
l-1 -11q0 -13 -8.5 -21.5t-21.5 -8.5h-113q-13 0 -21.5 8.5t-8.5 21.5l-1 11q0 16 -17 16h-17q-13 0 -22.5 9.5t-9.5 23.5v17q0 5 3.5 10.5t8.5 5.5h20zM356 841q0 17 11 28t27 11h22q7 0 12 -5t5 -12v-22q0 -16 -11 -27t-28 -11h-20q-8 0 -13 -5t-5 -13v-20q0 -17 -11 -28
t-27 -11h-22q-7 0 -12 5t-5 12v22q0 16 11 27t28 11h20q8 0 13 5t5 13v20z" />
    <glyph glyph-name="uni1EB0" unicode="&#x1eb0;" horiz-adv-x="696" 
d="M617 154q17 0 28 -11t11 -27v-99q0 -7 -5 -12t-12 -5h-22q-16 0 -27 11.5t-11 27.5v97q0 8 -5.5 13t-13.5 5h-20q-16 0 -27 11.5t-11 27.5v77q0 -16 -11 -27.5t-28 -11.5h-327q-8 0 -13.5 -5t-5.5 -13v-174q0 -16 -11 -27.5t-27 -11.5h-22q-7 0 -12 5t-5 12v176
q0 16 11 27t28 11h20q8 0 13 5.5t5 13.5v174q0 16 11 27t28 11h20q8 0 13 5.5t5 13.5v174q0 16 11 27t28 11h20q8 0 13 5.5t5 13.5v20q0 16 11 27t27 11h77q17 0 28 -11t11 -27v-97q0 -8 5 -13.5t13 -5.5h20q17 0 28 -11t11 -27v-174q0 -8 5 -13.5t13 -5.5h20q17 0 28 -11
t11 -27v-174q0 -8 5 -13.5t13 -5.5h20zM485 308q7 0 12 5t5 12v42q0 8 -5.5 13t-13.5 5h-20q-16 0 -27 11.5t-11 27.5v174q0 8 -5 13t-13 5h-21q-16 0 -27 11t-11 28v21q0 8 -5 12.5t-12 4.5h-42q-8 0 -13 -5t-5 -13v-174q0 -16 -11 -27.5t-27 -11.5h-21q-8 0 -13 -5t-5 -13
v-119q0 -7 5 -12t12 -5h274zM227 960q14 0 24 -9.5t10 -23.5v-17q0 -16 15 -16h145q15 0 15 16v17q0 14 10 23.5t24 9.5h17q15 0 15 -15v-18q0 -14 -9.5 -23.5t-22.5 -9.5h-17q-7 0 -12 -4t-5 -12l-1 -11q0 -13 -8.5 -21.5t-21.5 -8.5h-113q-13 0 -21.5 8.5t-8.5 21.5l-1 11
q0 16 -17 16h-17q-13 0 -22.5 9.5t-9.5 23.5v17q0 5 3.5 10.5t8.5 5.5h20zM346 1034q16 0 27 -11t11 -27v-22q0 -7 -4.5 -12t-11.5 -5h-22q-16 0 -27.5 11t-11.5 28v20q0 8 -5 13t-13 5h-20q-16 0 -27 11t-11 27v22q0 7 4.5 12t11.5 5h22q16 0 27 -11t11 -28v-20
q0 -8 5.5 -13t13.5 -5h20z" />
    <glyph glyph-name="uni1EB1" unicode="&#x1eb1;" 
d="M150 0q-16 0 -27 11t-11 27v20q0 19 -19 19h-20q-16 0 -27 11t-11 27v77q0 16 11 27.5t27 11.5h20q8 0 13.5 5t5.5 13v20q0 16 11 27t27 11h308q16 0 27 -11t11 -27v174q0 8 -5 13t-13 5h-348q-8 0 -13 -5t-5 -13v-20q0 -17 -11 -28t-28 -11h-21q-7 0 -12 5t-5 12v22
q0 16 11 27t27 11h20q8 0 13.5 5t5.5 13v20q0 17 11 28t27 11h308q16 0 27 -11t11 -28v-20q0 -8 5 -13t13 -5h20q17 0 28 -11t11 -27v-231q0 -16 -11 -27t-28 -11h-20q-8 0 -13 -5.5t-5 -13.5v-97q0 -16 -11 -27t-27 -11h-308zM402 77q17 0 17 17v21q0 16 11 27.5t28 11.5
h20q8 0 13 5t5 13v42q0 7 -4.5 12t-12.5 5h-349q-8 0 -13 -5.5t-5 -13.5v-117q0 -8 5 -13t13 -5h272zM183 730q14 0 24 -9.5t10 -23.5v-17q0 -16 15 -16h145q15 0 15 16v17q0 14 10 23.5t24 9.5h17q15 0 15 -15v-18q0 -14 -9.5 -23.5t-22.5 -9.5h-17q-7 0 -12 -4t-5 -12
l-1 -11q0 -13 -8.5 -21.5t-21.5 -8.5h-113q-13 0 -21.5 8.5t-8.5 21.5l-1 11q0 16 -17 16h-17q-13 0 -22.5 9.5t-9.5 23.5v17q0 5 3.5 10.5t8.5 5.5h20zM302 804q16 0 27 -11t11 -27v-22q0 -7 -4.5 -12t-11.5 -5h-22q-16 0 -27.5 11t-11.5 28v20q0 8 -5 13t-13 5h-20
q-16 0 -27 11t-11 27v22q0 7 4.5 12t11.5 5h22q16 0 27 -11t11 -28v-20q0 -8 5.5 -13t13.5 -5h20z" />
    <glyph glyph-name="uni1EB2" unicode="&#x1eb2;" horiz-adv-x="696" 
d="M617 154q17 0 28 -11t11 -27v-99q0 -7 -5 -12t-12 -5h-22q-16 0 -27 11.5t-11 27.5v97q0 8 -5.5 13t-13.5 5h-20q-16 0 -27 11.5t-11 27.5v77q0 -16 -11 -27.5t-28 -11.5h-327q-8 0 -13.5 -5t-5.5 -13v-174q0 -16 -11 -27.5t-27 -11.5h-22q-7 0 -12 5t-5 12v176
q0 16 11 27t28 11h20q8 0 13 5.5t5 13.5v174q0 16 11 27t28 11h20q8 0 13 5.5t5 13.5v174q0 16 11 27t28 11h20q8 0 13 5.5t5 13.5v20q0 16 11 27t27 11h77q17 0 28 -11t11 -27v-97q0 -8 5 -13.5t13 -5.5h20q17 0 28 -11t11 -27v-174q0 -8 5 -13.5t13 -5.5h20q17 0 28 -11
t11 -27v-174q0 -8 5 -13.5t13 -5.5h20zM485 308q7 0 12 5t5 12v42q0 8 -5.5 13t-13.5 5h-20q-16 0 -27 11.5t-11 27.5v174q0 8 -5 13t-13 5h-21q-16 0 -27 11t-11 28v21q0 8 -5 12.5t-12 4.5h-42q-8 0 -13 -5t-5 -13v-174q0 -16 -11 -27.5t-27 -11.5h-21q-8 0 -13 -5t-5 -13
v-119q0 -7 5 -12t12 -5h274zM227 960q14 0 24 -9.5t10 -23.5v-17q0 -16 15 -16h145q15 0 15 16v17q0 14 10 23.5t24 9.5h17q15 0 15 -15v-18q0 -14 -9.5 -23.5t-22.5 -9.5h-17q-7 0 -12 -4t-5 -12l-1 -11q0 -13 -8.5 -21.5t-21.5 -8.5h-113q-13 0 -21.5 8.5t-8.5 21.5l-1 11
q0 16 -17 16h-17q-13 0 -22.5 9.5t-9.5 23.5v17q0 5 3.5 10.5t8.5 5.5h20zM321 1049q-25 0 -48 -0.5t-47 0.5q-3 0 -5.5 9t-1 20.5t9 20.5t24.5 9h53q11 0 19.5 -10t8.5 -22v-14q0 -13 13 -13h14q12 0 23 -8t11 -19v-27q0 -18 -11 -27t-23 -9h-15q-12 0 -12 12v65
q0 13 -13 13z" />
    <glyph glyph-name="uni1EB3" unicode="&#x1eb3;" 
d="M150 0q-16 0 -27 11t-11 27v20q0 19 -19 19h-20q-16 0 -27 11t-11 27v77q0 16 11 27.5t27 11.5h20q8 0 13.5 5t5.5 13v20q0 16 11 27t27 11h308q16 0 27 -11t11 -27v174q0 8 -5 13t-13 5h-348q-8 0 -13 -5t-5 -13v-20q0 -17 -11 -28t-28 -11h-21q-7 0 -12 5t-5 12v22
q0 16 11 27t27 11h20q8 0 13.5 5t5.5 13v20q0 17 11 28t27 11h308q16 0 27 -11t11 -28v-20q0 -8 5 -13t13 -5h20q17 0 28 -11t11 -27v-231q0 -16 -11 -27t-28 -11h-20q-8 0 -13 -5.5t-5 -13.5v-97q0 -16 -11 -27t-27 -11h-308zM402 77q17 0 17 17v21q0 16 11 27.5t28 11.5
h20q8 0 13 5t5 13v42q0 7 -4.5 12t-12.5 5h-349q-8 0 -13 -5.5t-5 -13.5v-117q0 -8 5 -13t13 -5h272zM183 730q14 0 24 -9.5t10 -23.5v-17q0 -16 15 -16h145q15 0 15 16v17q0 14 10 23.5t24 9.5h17q15 0 15 -15v-18q0 -14 -9.5 -23.5t-22.5 -9.5h-17q-7 0 -12 -4t-5 -12
l-1 -11q0 -13 -8.5 -21.5t-21.5 -8.5h-113q-13 0 -21.5 8.5t-8.5 21.5l-1 11q0 16 -17 16h-17q-13 0 -22.5 9.5t-9.5 23.5v17q0 5 3.5 10.5t8.5 5.5h20zM277 819q-25 0 -48 -0.5t-47 0.5q-3 0 -5.5 9t-1 20.5t9 20.5t24.5 9h53q11 0 19.5 -10t8.5 -22v-14q0 -13 13 -13h14
q12 0 23 -8t11 -19v-27q0 -18 -11 -27t-23 -9h-15q-12 0 -12 12v65q0 13 -13 13z" />
    <glyph glyph-name="uni1EB4" unicode="&#x1eb4;" horiz-adv-x="696" 
d="M617 154q17 0 28 -11t11 -27v-99q0 -7 -5 -12t-12 -5h-22q-16 0 -27 11.5t-11 27.5v97q0 8 -5.5 13t-13.5 5h-20q-16 0 -27 11.5t-11 27.5v77q0 -16 -11 -27.5t-28 -11.5h-327q-8 0 -13.5 -5t-5.5 -13v-174q0 -16 -11 -27.5t-27 -11.5h-22q-7 0 -12 5t-5 12v176
q0 16 11 27t28 11h20q8 0 13 5.5t5 13.5v174q0 16 11 27t28 11h20q8 0 13 5.5t5 13.5v174q0 16 11 27t28 11h20q8 0 13 5.5t5 13.5v20q0 16 11 27t27 11h77q17 0 28 -11t11 -27v-97q0 -8 5 -13.5t13 -5.5h20q17 0 28 -11t11 -27v-174q0 -8 5 -13.5t13 -5.5h20q17 0 28 -11
t11 -27v-174q0 -8 5 -13.5t13 -5.5h20zM485 308q7 0 12 5t5 12v42q0 8 -5.5 13t-13.5 5h-20q-16 0 -27 11.5t-11 27.5v174q0 8 -5 13t-13 5h-21q-16 0 -27 11t-11 28v21q0 8 -5 12.5t-12 4.5h-42q-8 0 -13 -5t-5 -13v-174q0 -16 -11 -27.5t-27 -11.5h-21q-8 0 -13 -5t-5 -13
v-119q0 -7 5 -12t12 -5h274zM227 960q14 0 24 -9.5t10 -23.5v-17q0 -16 15 -16h145q15 0 15 16v17q0 14 10 23.5t24 9.5h17q15 0 15 -15v-18q0 -14 -9.5 -23.5t-22.5 -9.5h-17q-7 0 -12 -4t-5 -12l-1 -11q0 -13 -8.5 -21.5t-21.5 -8.5h-113q-13 0 -21.5 8.5t-8.5 21.5l-1 11
q0 16 -17 16h-17q-13 0 -22.5 9.5t-9.5 23.5v17q0 5 3.5 10.5t8.5 5.5h20zM476 1140q7 0 12 -4.5t5 -11.5v-22q0 -16 -11.5 -27t-27.5 -11h-20q-8 0 -13 -5.5t-5 -13.5v-20q0 -15 -11 -26.5t-27 -11.5q-17 0 -28 11.5t-11 27.5v19q0 8 -5.5 13.5t-13.5 5.5h-40
q-8 0 -13 -5.5t-5 -13.5v-20q0 -16 -11 -27t-28 -11h-21q-17 0 -17 16v22q0 16 11 27.5t27 11.5h20q8 0 13.5 5t5.5 13v20q0 15 10.5 26.5t26.5 11.5q17 0 28.5 -11.5t11.5 -27.5v-19q0 -8 5 -13t13 -5h40q8 0 13.5 5t5.5 13v20q0 16 11 27t27 11h22z" />
    <glyph glyph-name="uni1EB5" unicode="&#x1eb5;" 
d="M150 0q-16 0 -27 11t-11 27v20q0 19 -19 19h-20q-16 0 -27 11t-11 27v77q0 16 11 27.5t27 11.5h20q8 0 13.5 5t5.5 13v20q0 16 11 27t27 11h308q16 0 27 -11t11 -27v174q0 8 -5 13t-13 5h-348q-8 0 -13 -5t-5 -13v-20q0 -17 -11 -28t-28 -11h-21q-7 0 -12 5t-5 12v22
q0 16 11 27t27 11h20q8 0 13.5 5t5.5 13v20q0 17 11 28t27 11h308q16 0 27 -11t11 -28v-20q0 -8 5 -13t13 -5h20q17 0 28 -11t11 -27v-231q0 -16 -11 -27t-28 -11h-20q-8 0 -13 -5.5t-5 -13.5v-97q0 -16 -11 -27t-27 -11h-308zM402 77q17 0 17 17v21q0 16 11 27.5t28 11.5
h20q8 0 13 5t5 13v42q0 7 -4.5 12t-12.5 5h-349q-8 0 -13 -5.5t-5 -13.5v-117q0 -8 5 -13t13 -5h272zM183 730q14 0 24 -9.5t10 -23.5v-17q0 -16 15 -16h145q15 0 15 16v17q0 14 10 23.5t24 9.5h17q15 0 15 -15v-18q0 -14 -9.5 -23.5t-22.5 -9.5h-17q-7 0 -12 -4t-5 -12
l-1 -11q0 -13 -8.5 -21.5t-21.5 -8.5h-113q-13 0 -21.5 8.5t-8.5 21.5l-1 11q0 16 -17 16h-17q-13 0 -22.5 9.5t-9.5 23.5v17q0 5 3.5 10.5t8.5 5.5h20zM432 910q7 0 12 -4.5t5 -11.5v-22q0 -16 -11.5 -27t-27.5 -11h-20q-8 0 -13 -5.5t-5 -13.5v-20q0 -15 -11 -26.5
t-27 -11.5q-17 0 -28 11.5t-11 27.5v19q0 8 -5.5 13.5t-13.5 5.5h-40q-8 0 -13 -5.5t-5 -13.5v-20q0 -16 -11 -27t-28 -11h-21q-17 0 -17 16v22q0 16 11 27.5t27 11.5h20q8 0 13.5 5t5.5 13v20q0 15 10.5 26.5t26.5 11.5q17 0 28.5 -11.5t11.5 -27.5v-19q0 -8 5 -13t13 -5
h40q8 0 13.5 5t5.5 13v20q0 16 11 27t27 11h22z" />
    <glyph glyph-name="uni1EB6" unicode="&#x1eb6;" horiz-adv-x="696" 
d="M617 154q17 0 28 -11t11 -27v-99q0 -7 -5 -12t-12 -5h-22q-16 0 -27 11.5t-11 27.5v97q0 8 -5.5 13t-13.5 5h-20q-16 0 -27 11.5t-11 27.5v77q0 -16 -11 -27.5t-28 -11.5h-327q-8 0 -13.5 -5t-5.5 -13v-174q0 -16 -11 -27.5t-27 -11.5h-22q-7 0 -12 5t-5 12v176
q0 16 11 27t28 11h20q8 0 13 5.5t5 13.5v174q0 16 11 27t28 11h20q8 0 13 5.5t5 13.5v174q0 16 11 27t28 11h20q8 0 13 5.5t5 13.5v20q0 16 11 27t27 11h77q17 0 28 -11t11 -27v-97q0 -8 5 -13.5t13 -5.5h20q17 0 28 -11t11 -27v-174q0 -8 5 -13.5t13 -5.5h20q17 0 28 -11
t11 -27v-174q0 -8 5 -13.5t13 -5.5h20zM485 308q7 0 12 5t5 12v42q0 8 -5.5 13t-13.5 5h-20q-16 0 -27 11.5t-11 27.5v174q0 8 -5 13t-13 5h-21q-16 0 -27 11t-11 28v21q0 8 -5 12.5t-12 4.5h-42q-8 0 -13 -5t-5 -13v-174q0 -16 -11 -27.5t-27 -11.5h-21q-8 0 -13 -5t-5 -13
v-119q0 -7 5 -12t12 -5h274zM308 -93q0 17 11.5 28.5t28.5 11.5h24q7 0 12.5 -5t5.5 -13v-22q0 -18 -12.5 -30t-29.5 -12h-22q-8 0 -13 5.5t-5 12.5v24zM227 960q14 0 24 -9.5t10 -23.5v-17q0 -16 15 -16h145q15 0 15 16v17q0 14 10 23.5t24 9.5h17q15 0 15 -15v-18
q0 -14 -9.5 -23.5t-22.5 -9.5h-17q-7 0 -12 -4t-5 -12l-1 -11q0 -13 -8.5 -21.5t-21.5 -8.5h-113q-13 0 -21.5 8.5t-8.5 21.5l-1 11q0 16 -17 16h-17q-13 0 -22.5 9.5t-9.5 23.5v17q0 5 3.5 10.5t8.5 5.5h20z" />
    <glyph glyph-name="uni1EB7" unicode="&#x1eb7;" 
d="M150 0q-16 0 -27 11t-11 27v20q0 19 -19 19h-20q-16 0 -27 11t-11 27v77q0 16 11 27.5t27 11.5h20q8 0 13.5 5t5.5 13v20q0 16 11 27t27 11h308q16 0 27 -11t11 -27v174q0 8 -5 13t-13 5h-348q-8 0 -13 -5t-5 -13v-20q0 -17 -11 -28t-28 -11h-21q-7 0 -12 5t-5 12v22
q0 16 11 27t27 11h20q8 0 13.5 5t5.5 13v20q0 17 11 28t27 11h308q16 0 27 -11t11 -28v-20q0 -8 5 -13t13 -5h20q17 0 28 -11t11 -27v-231q0 -16 -11 -27t-28 -11h-20q-8 0 -13 -5.5t-5 -13.5v-97q0 -16 -11 -27t-27 -11h-308zM402 77q17 0 17 17v21q0 16 11 27.5t28 11.5
h20q8 0 13 5t5 13v42q0 7 -4.5 12t-12.5 5h-349q-8 0 -13 -5.5t-5 -13.5v-117q0 -8 5 -13t13 -5h272zM263 -103q0 17 11.5 28.5t28.5 11.5h24q7 0 12.5 -5t5.5 -13v-22q0 -18 -12.5 -30t-29.5 -12h-22q-8 0 -13 5.5t-5 12.5v24zM183 730q14 0 24 -9.5t10 -23.5v-17
q0 -16 15 -16h145q15 0 15 16v17q0 14 10 23.5t24 9.5h17q15 0 15 -15v-18q0 -14 -9.5 -23.5t-22.5 -9.5h-17q-7 0 -12 -4t-5 -12l-1 -11q0 -13 -8.5 -21.5t-21.5 -8.5h-113q-13 0 -21.5 8.5t-8.5 21.5l-1 11q0 16 -17 16h-17q-13 0 -22.5 9.5t-9.5 23.5v17q0 5 3.5 10.5
t8.5 5.5h20z" />
    <glyph glyph-name="uni1EB8" unicode="&#x1eb8;" horiz-adv-x="617" 
d="M539 614q-16 0 -27 11.5t-11 27.5v20q0 8 -5.5 13.5t-13.5 5.5h-348q-8 0 -12.5 -5t-4.5 -12v-197q0 -17 17 -17h21q16 0 27 -11.5t11 -27.5v-19q0 -19 19 -19h250q16 0 27.5 -11t11.5 -28v-21q0 -16 -17 -16h-252q-16 0 -27.5 10.5t-11.5 26.5v21q0 8 -5 13t-13 5h-20
q-16 0 -27 11.5t-11 26.5v-328q0 -17 17 -17h426q8 0 12.5 -5t4.5 -12v-21q0 -17 -11 -28t-27 -11h-461q-17 0 -27.5 11t-10.5 28v691q0 16 10.5 27.5t27.5 11.5h384q16 0 27.5 -11.5t11.5 -27.5v-20q0 -8 5 -13t13 -5h20q16 0 27 -11.5t11 -27.5v-22q0 -7 -4.5 -12
t-12.5 -5h-21zM268 -103q0 17 11.5 28.5t28.5 11.5h24q7 0 12.5 -5t5.5 -13v-22q0 -18 -12.5 -30t-29.5 -12h-22q-8 0 -13 5.5t-5 12.5v24z" />
    <glyph glyph-name="uni1EB9" unicode="&#x1eb9;" 
d="M535 461q16 0 27 -11t11 -27v-77q0 -16 -11 -27.5t-27 -11.5h-20q-8 0 -13.5 -5t-5.5 -13v-20q0 -16 -11 -27t-27 -11h-308q-16 0 -27 11t-11 27v-97q0 -8 5 -13t13 -5h20q17 0 28 -11.5t11 -27.5v-20q0 -8 5 -13t13 -5h271q8 0 13 5t5 13v20q0 16 11 27.5t28 11.5h21
q7 0 12 -5t5 -12v-22q0 -16 -11 -27t-27 -11h-20q-19 0 -19 -19v-20q0 -16 -11 -27t-27 -11h-231q-16 0 -27 11t-11 27v20q0 8 -5.5 13.5t-13.5 5.5h-20q-16 0 -27 11t-11 27v20q0 8 -5.5 13.5t-13.5 5.5h-20q-16 0 -27 11t-11 27v154q0 16 11 27t27 11h20q19 0 19 19v96
q0 17 11 28t27 11h308q16 0 27 -11t11 -28v-20q0 -8 5.5 -13t13.5 -5h20zM478 307q8 0 13 5.5t5 13.5v117q0 8 -5 13t-13 5h-272q-17 0 -17 -17v-21q0 -17 -11 -28t-28 -11h-20q-8 0 -13 -5t-5 -13v-42q0 -7 4.5 -12t12.5 -5h349zM263 -103q0 17 11.5 28.5t28.5 11.5h24
q7 0 12.5 -5t5.5 -13v-22q0 -18 -12.5 -30t-29.5 -12h-22q-8 0 -13 5.5t-5 12.5v24z" />
    <glyph glyph-name="uni1EBA" unicode="&#x1eba;" horiz-adv-x="617" 
d="M539 614q-16 0 -27 11.5t-11 27.5v20q0 8 -5.5 13.5t-13.5 5.5h-348q-8 0 -12.5 -5t-4.5 -12v-197q0 -17 17 -17h21q16 0 27 -11.5t11 -27.5v-19q0 -19 19 -19h250q16 0 27.5 -11t11.5 -28v-21q0 -16 -17 -16h-252q-16 0 -27.5 10.5t-11.5 26.5v21q0 8 -5 13t-13 5h-20
q-16 0 -27 11.5t-11 26.5v-328q0 -17 17 -17h426q8 0 12.5 -5t4.5 -12v-21q0 -17 -11 -28t-27 -11h-461q-17 0 -27.5 11t-10.5 28v691q0 16 10.5 27.5t27.5 11.5h384q16 0 27.5 -11.5t11.5 -27.5v-20q0 -8 5 -13t13 -5h20q16 0 27 -11.5t11 -27.5v-22q0 -7 -4.5 -12
t-12.5 -5h-21zM296 933q-25 0 -48 -0.5t-47 0.5q-3 0 -5.5 9t-1 20.5t9 20.5t24.5 9h53q11 0 19.5 -10t8.5 -22v-14q0 -13 13 -13h14q12 0 23 -8t11 -19v-27q0 -18 -11 -27t-23 -9h-15q-12 0 -12 12v65q0 13 -13 13z" />
    <glyph glyph-name="uni1EBB" unicode="&#x1ebb;" 
d="M535 461q16 0 27 -11t11 -27v-77q0 -16 -11 -27.5t-27 -11.5h-20q-8 0 -13.5 -5t-5.5 -13v-20q0 -16 -11 -27t-27 -11h-308q-16 0 -27 11t-11 27v-97q0 -8 5 -13t13 -5h20q17 0 28 -11.5t11 -27.5v-20q0 -8 5 -13t13 -5h271q8 0 13 5t5 13v20q0 16 11 27.5t28 11.5h21
q7 0 12 -5t5 -12v-22q0 -16 -11 -27t-27 -11h-20q-19 0 -19 -19v-20q0 -16 -11 -27t-27 -11h-231q-16 0 -27 11t-11 27v20q0 8 -5.5 13.5t-13.5 5.5h-20q-16 0 -27 11t-11 27v20q0 8 -5.5 13.5t-13.5 5.5h-20q-16 0 -27 11t-11 27v154q0 16 11 27t27 11h20q19 0 19 19v96
q0 17 11 28t27 11h308q16 0 27 -11t11 -28v-20q0 -8 5.5 -13t13.5 -5h20zM478 307q8 0 13 5.5t5 13.5v117q0 8 -5 13t-13 5h-272q-17 0 -17 -17v-21q0 -17 -11 -28t-28 -11h-20q-8 0 -13 -5t-5 -13v-42q0 -7 4.5 -12t12.5 -5h349zM318 704q-25 0 -48 -0.5t-47 0.5
q-3 0 -5.5 9t-1 20.5t9 20.5t24.5 9h53q11 0 19.5 -10t8.5 -22v-14q0 -13 13 -13h14q12 0 23 -8t11 -19v-27q0 -18 -11 -27t-23 -9h-15q-12 0 -12 12v65q0 13 -13 13z" />
    <glyph glyph-name="uni1EBC" unicode="&#x1ebc;" horiz-adv-x="617" 
d="M539 614q-16 0 -27 11.5t-11 27.5v20q0 8 -5.5 13.5t-13.5 5.5h-348q-8 0 -12.5 -5t-4.5 -12v-197q0 -17 17 -17h21q16 0 27 -11.5t11 -27.5v-19q0 -19 19 -19h250q16 0 27.5 -11t11.5 -28v-21q0 -16 -17 -16h-252q-16 0 -27.5 10.5t-11.5 26.5v21q0 8 -5 13t-13 5h-20
q-16 0 -27 11.5t-11 26.5v-328q0 -17 17 -17h426q8 0 12.5 -5t4.5 -12v-21q0 -17 -11 -28t-27 -11h-461q-17 0 -27.5 11t-10.5 28v691q0 16 10.5 27.5t27.5 11.5h384q16 0 27.5 -11.5t11.5 -27.5v-20q0 -8 5 -13t13 -5h20q16 0 27 -11.5t11 -27.5v-22q0 -7 -4.5 -12
t-12.5 -5h-21zM446 1000q7 0 12 -4.5t5 -11.5v-22q0 -16 -11.5 -27t-27.5 -11h-20q-8 0 -13 -5.5t-5 -13.5v-20q0 -15 -11 -26.5t-27 -11.5q-17 0 -28 11.5t-11 27.5v19q0 8 -5.5 13.5t-13.5 5.5h-40q-8 0 -13 -5.5t-5 -13.5v-20q0 -16 -11 -27t-28 -11h-21q-17 0 -17 16v22
q0 16 11 27.5t27 11.5h20q8 0 13.5 5t5.5 13v20q0 15 10.5 26.5t26.5 11.5q17 0 28.5 -11.5t11.5 -27.5v-19q0 -8 5 -13t13 -5h40q8 0 13.5 5t5.5 13v20q0 16 11 27t27 11h22z" />
    <glyph glyph-name="uni1EBD" unicode="&#x1ebd;" 
d="M535 461q16 0 27 -11t11 -27v-77q0 -16 -11 -27.5t-27 -11.5h-20q-8 0 -13.5 -5t-5.5 -13v-20q0 -16 -11 -27t-27 -11h-308q-16 0 -27 11t-11 27v-97q0 -8 5 -13t13 -5h20q17 0 28 -11.5t11 -27.5v-20q0 -8 5 -13t13 -5h271q8 0 13 5t5 13v20q0 16 11 27.5t28 11.5h21
q7 0 12 -5t5 -12v-22q0 -16 -11 -27t-27 -11h-20q-19 0 -19 -19v-20q0 -16 -11 -27t-27 -11h-231q-16 0 -27 11t-11 27v20q0 8 -5.5 13.5t-13.5 5.5h-20q-16 0 -27 11t-11 27v20q0 8 -5.5 13.5t-13.5 5.5h-20q-16 0 -27 11t-11 27v154q0 16 11 27t27 11h20q19 0 19 19v96
q0 17 11 28t27 11h308q16 0 27 -11t11 -28v-20q0 -8 5.5 -13t13.5 -5h20zM478 307q8 0 13 5.5t5 13.5v117q0 8 -5 13t-13 5h-272q-17 0 -17 -17v-21q0 -17 -11 -28t-28 -11h-20q-8 0 -13 -5t-5 -13v-42q0 -7 4.5 -12t12.5 -5h349zM441 768q7 0 12 -4.5t5 -11.5v-22
q0 -16 -11.5 -27t-27.5 -11h-20q-8 0 -13 -5.5t-5 -13.5v-20q0 -15 -11 -26.5t-27 -11.5q-17 0 -28 11.5t-11 27.5v19q0 8 -5.5 13.5t-13.5 5.5h-40q-8 0 -13 -5.5t-5 -13.5v-20q0 -16 -11 -27t-28 -11h-21q-17 0 -17 16v22q0 16 11 27.5t27 11.5h20q8 0 13.5 5t5.5 13v20
q0 15 10.5 26.5t26.5 11.5q17 0 28.5 -11.5t11.5 -27.5v-19q0 -8 5 -13t13 -5h40q8 0 13.5 5t5.5 13v20q0 16 11 27t27 11h22z" />
    <glyph glyph-name="uni1EBE" unicode="&#x1ebe;" horiz-adv-x="617" 
d="M539 614q-16 0 -27 11.5t-11 27.5v20q0 8 -5.5 13.5t-13.5 5.5h-348q-8 0 -12.5 -5t-4.5 -12v-197q0 -17 17 -17h21q16 0 27 -11.5t11 -27.5v-19q0 -19 19 -19h250q16 0 27.5 -11t11.5 -28v-21q0 -16 -17 -16h-252q-16 0 -27.5 10.5t-11.5 26.5v21q0 8 -5 13t-13 5h-20
q-16 0 -27 11.5t-11 26.5v-328q0 -17 17 -17h426q8 0 12.5 -5t4.5 -12v-21q0 -17 -11 -28t-27 -11h-461q-17 0 -27.5 11t-10.5 28v691q0 16 10.5 27.5t27.5 11.5h384q16 0 27.5 -11.5t11.5 -27.5v-20q0 -8 5 -13t13 -5h20q16 0 27 -11.5t11 -27.5v-22q0 -7 -4.5 -12
t-12.5 -5h-21zM346 922q16 0 27.5 -11t11.5 -28v-21q0 -8 -5 -12.5t-12 -4.5h-22q-16 0 -27 11t-11 27v20q0 8 -5.5 13.5t-13.5 5.5h-40q-8 0 -13 -5.5t-5 -13.5v-20q0 -16 -11 -27t-28 -11h-21q-17 0 -17 17v21q0 17 11 28t27 11h20q8 0 13.5 5t5.5 13v20q0 17 11 28t28 11
q16 -1 27 -12.5t11 -27.5v-19q0 -8 5 -13t13 -5h20zM420 1066q0 17 11 28t27 11h22q7 0 12 -5t5 -12v-22q0 -16 -11 -27t-28 -11h-20q-8 0 -13 -5t-5 -13v-20q0 -17 -11 -28t-27 -11h-22q-7 0 -12 5t-5 12v22q0 16 11 27t28 11h20q8 0 13 5t5 13v20z" />
    <glyph glyph-name="uni1EBF" unicode="&#x1ebf;" 
d="M535 461q16 0 27 -11t11 -27v-77q0 -16 -11 -27.5t-27 -11.5h-20q-8 0 -13.5 -5t-5.5 -13v-20q0 -16 -11 -27t-27 -11h-308q-16 0 -27 11t-11 27v-97q0 -8 5 -13t13 -5h20q17 0 28 -11.5t11 -27.5v-20q0 -8 5 -13t13 -5h271q8 0 13 5t5 13v20q0 16 11 27.5t28 11.5h21
q7 0 12 -5t5 -12v-22q0 -16 -11 -27t-27 -11h-20q-19 0 -19 -19v-20q0 -16 -11 -27t-27 -11h-231q-16 0 -27 11t-11 27v20q0 8 -5.5 13.5t-13.5 5.5h-20q-16 0 -27 11t-11 27v20q0 8 -5.5 13.5t-13.5 5.5h-20q-16 0 -27 11t-11 27v154q0 16 11 27t27 11h20q19 0 19 19v96
q0 17 11 28t27 11h308q16 0 27 -11t11 -28v-20q0 -8 5.5 -13t13.5 -5h20zM478 307q8 0 13 5.5t5 13.5v117q0 8 -5 13t-13 5h-272q-17 0 -17 -17v-21q0 -17 -11 -28t-28 -11h-20q-8 0 -13 -5t-5 -13v-42q0 -7 4.5 -12t12.5 -5h349zM389 693q16 0 27.5 -11t11.5 -28v-21
q0 -8 -5 -12.5t-12 -4.5h-22q-16 0 -27 11t-11 27v20q0 8 -5.5 13.5t-13.5 5.5h-40q-8 0 -13 -5.5t-5 -13.5v-20q0 -16 -11 -27t-28 -11h-21q-17 0 -17 17v21q0 17 11 28t27 11h20q8 0 13.5 5t5.5 13v20q0 17 11 28t28 11q16 -1 27 -12.5t11 -27.5v-19q0 -8 5 -13t13 -5h20z
M463 837q0 17 11 28t27 11h22q7 0 12 -5t5 -12v-22q0 -16 -11 -27t-28 -11h-20q-8 0 -13 -5t-5 -13v-20q0 -17 -11 -28t-27 -11h-22q-7 0 -12 5t-5 12v22q0 16 11 27t28 11h20q8 0 13 5t5 13v20z" />
    <glyph glyph-name="uni1EC0" unicode="&#x1ec0;" horiz-adv-x="617" 
d="M539 614q-16 0 -27 11.5t-11 27.5v20q0 8 -5.5 13.5t-13.5 5.5h-348q-8 0 -12.5 -5t-4.5 -12v-197q0 -17 17 -17h21q16 0 27 -11.5t11 -27.5v-19q0 -19 19 -19h250q16 0 27.5 -11t11.5 -28v-21q0 -16 -17 -16h-252q-16 0 -27.5 10.5t-11.5 26.5v21q0 8 -5 13t-13 5h-20
q-16 0 -27 11.5t-11 26.5v-328q0 -17 17 -17h426q8 0 12.5 -5t4.5 -12v-21q0 -17 -11 -28t-27 -11h-461q-17 0 -27.5 11t-10.5 28v691q0 16 10.5 27.5t27.5 11.5h384q16 0 27.5 -11.5t11.5 -27.5v-20q0 -8 5 -13t13 -5h20q16 0 27 -11.5t11 -27.5v-22q0 -7 -4.5 -12
t-12.5 -5h-21zM346 922q16 0 27.5 -11t11.5 -28v-21q0 -8 -5 -12.5t-12 -4.5h-22q-16 0 -27 11t-11 27v20q0 8 -5.5 13.5t-13.5 5.5h-40q-8 0 -13 -5.5t-5 -13.5v-20q0 -16 -11 -27t-28 -11h-21q-17 0 -17 17v21q0 17 11 28t27 11h20q8 0 13.5 5t5.5 13v20q0 17 11 28t28 11
q16 -1 27 -12.5t11 -27.5v-19q0 -8 5 -13t13 -5h20zM370 1034q16 0 27 -11t11 -27v-22q0 -7 -4.5 -12t-11.5 -5h-22q-16 0 -27.5 11t-11.5 28v20q0 8 -5 13t-13 5h-20q-16 0 -27 11t-11 27v22q0 7 4.5 12t11.5 5h22q16 0 27 -11t11 -28v-20q0 -8 5.5 -13t13.5 -5h20z" />
    </font>
</defs>
</svg>
