<?xml version="1.0" standalone="no"?>
<!DOCTYPE svg PUBLIC "-//W3C//DTD SVG 1.1//EN" "http://www.w3.org/Graphics/SVG/1.1/DTD/svg11.dtd" >
<svg xmlns="http://www.w3.org/2000/svg" xmlns:xlink="http://www.w3.org/1999/xlink" version="1.1">
<metadata>
Created by FontForge 20201107 at Mon Apr 19 10:05:19 2021
 By 
2021 (C) Copyright by Mans Greback AB 
</metadata>
<defs>
<font id="JumperPERSONALUSEONLY-Thin" horiz-adv-x="0" >
  <font-face 
    font-family="Jumper PERSONAL USE ONLY Thin"
    font-weight="100"
    font-stretch="normal"
    units-per-em="1000"
    panose-1="0 0 0 0 0 0 0 0 0 0"
    ascent="800"
    descent="-200"
    x-height="523"
    cap-height="695"
    bbox="-641 -286.765 1647.14 1072"
    underline-thickness="50"
    underline-position="-125"
    unicode-range="U+0020-FB04"
  />
<missing-glyph horiz-adv-x="720" 
 />
    <glyph glyph-name="mn.sg" unicode="&#x30;&#x30;&#x30;&#x30;&#x30;&#x30;&#x30;&#x30;&#x30;&#x30;" horiz-adv-x="1751" 
d="M899.5 765q-14.5 12 -17.5 35q-3 14 -3 41l-1 45q0 32 5 52q8 36 52 38q20 0 36.5 -7.5t22.5 -24.5t6 -47l-1 -49q0 -36 -3 -51q-10 -44 -58 -44q-24 0 -38.5 12zM152 282h39l29 -151l28 151h41l1 -242h-34l-4 101l-17 -101h-28l-20 99l-2 -99h-36zM308 -170q7 10 21 10
q20 0 25 -10t5 -28h-14v7q0 9 -2 13q-3 8 -11 8t-12 -7q-5 -7 -4.5 -21.5t0.5 -17.5v-13q0 -19 6 -27q1 -5 9 -5q9 0 12 8q2 6 2 12.5v8.5h14q0 -18 -5 -30t-22 -12q-19 0 -25.5 13t-6.5 35l1 31q0 15 7 25zM322 282h31l41 -115v115h38v-242h-30l-42 119v-119h-38v242z
M372.5 -203.5q-0.5 23.5 7 34.5t25.5 8q19 -1 24.5 -13t5.5 -31q0 -4 0.5 -24t-7 -32.5t-24.5 -12.5q-19 0 -25 11t-6 29q0 7 -0.5 30.5zM376 975h46q19 0 32 -5t20 -20q10 -16 10 -38q0 -30 -20 -44q-8 -8 -20.5 -10t-24 -1.5t-15.5 0.5v-102h-28v220zM377 724h28v-147
q0 -21 3 -33t15 -19q8 -2 11 -2q16 0 23 15t7 35v151h31v-100l1 -36q0 -32 -8 -54t-31 -29q-9 -4 -22 -4q-17 0 -31.5 8.5t-20.5 24.5q-4 10 -5 24t-1 29v137zM387 -232q0 -24 8 -27q6 -3 10 -3q10 0 11.5 10.5t1.5 29.5l1 23q0 22 -8 25q-6 3 -9 3q-7 0 -10.5 -6t-3.5 -14
q-1 -3 -0.5 -8t0.5 -7zM417 879q12 0 19 2q11 3 15 10.5t4 20.5q0 16 -3 25.5t-16 12.5q-4 2 -13 2l-19 -1v-72h13zM415 -22h42v-11h-25v-38h20v-10h-20v-52h-17v111zM449 -161h18l20 -89l18 89h16l1 -112h-11v82l-18 -82h-12l-18 82v-82h-14v112zM459 84h41v-44h-41v44z
M466.5 -60.5q-0.5 20.5 8 31t26.5 10.5q17 -2 22.5 -14.5t5.5 -33.5q0 -4 0.5 -23t-7.5 -31.5t-24 -12.5q-19 0 -25 13t-6 36q0 4 -0.5 24.5zM482 -95q0 -23 11 -28q14 -3 17.5 9t3.5 32q0 3 0.5 15t-1.5 21.5t-8 11.5q-3 2 -7 2q-7 0 -11 -6t-4 -15v-18zM505 975h84v-24
h-54v-72h44v-22h-44v-81h56v-21h-86v220zM553 127q0 -14 1.5 -24t8.5 -19q5 -9 11 -9q14 0 14 22q0 13 -7.5 24.5t-17 21t-13.5 14.5q-3 4 -11.5 12t-10.5 13q-12 19 -12 40q0 6 2 16q1 20 16.5 33.5t36.5 13.5q13 0 23 -5q19 -9 25 -29t6 -48l-37 -2q-1 6 -2 18.5t-4 20
t-10 8.5q-10 1 -14 -6t-4 -16q0 -7 1 -9q5 -12 13.5 -19t10.5 -9l19 -22q34 -35 28 -81q-1 -17 -12 -30.5t-30 -18.5q-18 -2 -35 5.5t-23 23.5q-11 25 -11 59zM548 573q1 -17 2.5 -25t8.5 -14q8 -9 20 -9q9 0 15 6q9 8 9 21t-7 23q-2 3 -9 11t-16 13l-21 17.5t-22 24.5
q-9 15 -9 33q0 17 8.5 31t25.5 19q5 1 15 1q23 0 39 -9q18 -13 18 -47l-23 -10q-2 37 -25 41q-2 1 -7 1q-10 0 -16 -7.5t-6 -19.5q0 -11 7 -19.5t16 -16t13 -10.5q24 -20 34.5 -33.5t10.5 -38.5q0 -22 -14.5 -37.5t-37.5 -15.5q-25 0 -41 17.5t-18 44.5zM542 -161h16l19 -89
l20 89h15l2 -112h-10l-2 82l-19 -82h-12l-16 82l-2 -82h-11v112zM545 -22l22 1q11 0 19 -4q7 -4 11 -12t4 -17t-4 -15.5t-11 -8.5l18 -55h-18l-15 52h-12v-52h-14v111zM556 452q3 0 15.5 0.5t22 -3t14.5 -10.5q3 -7 3 -18q0 -17 -7 -24q-7 -5 -13 -6t-12 -1h-8v-54h-15v116z
M586 -51q0 12 -6.5 15t-20.5 3v-38q27 0 27 20zM587 402q6 3 7.5 8t1.5 14q0 12 -5.5 15t-19.5 3v-42q13 0 16 2zM614 975q7 0 26 0.5t34 -2t26 -7.5q12 -7 18.5 -22t6.5 -32t-6.5 -30t-19.5 -17l28 -110h-28l-30 103h-23v-103h-32v220zM624 452h12v-103h30v-13h-42v116z
M632 -161h44v-11h-28v-34h23v-12h-23v-45h28v-10h-44v112zM639 -22h58v-11h-21v-100h-17v100h-20v11zM644 203q0 11 2 29q8 38 35 50q11 3 23 3q19 0 31 -8q18 -11 22 -30t4 -50h-39q0 31 -2 39t-11 12q-22 2 -22 -33v-88q0 -3 -0.5 -17t4.5 -24.5t17 -10.5q13 0 15 15.5
t2 40.5h-24v36h62v-127h-31l-2 8q-13 -11 -31 -11q-15 0 -28 8q-21 10 -25 49q-2 20 -2 30l1 38zM677 881q21 10 16 38q0 24 -16 29q-8 5 -18 4t-13 -1v-72q20 0 31 2zM655 724h85v-25h-56v-71h44v-22h-44v-82h56v-19h-85v219zM677 452h43v-10h-29v-40h24v-12h-24v-41h29
v-13h-43v116zM687 -161l24 1q11 0 19 -4q6 -4 9.5 -11.5t3.5 -15.5q0 -9 -4 -16t-11 -9l17 -57h-15l-13 55h-13v-55h-17v112zM722.5 -203.5q5.5 2.5 5.5 12.5q0 12 -6 15.5t-18 3.5v-34q13 0 18.5 2.5zM704 -22h15v-49h30v49h16v-111h-16v52h-30v-52h-15v111zM752 452h16
l22 -116h-15l-6 31h-24l-3 -31h-15zM768 377l-9 53l-13 -53h22zM776 824q2 -30 11 -39t21 -9q9 0 16 7q8 5 8 18t-8 24q-3 3 -9.5 10.5t-15.5 14.5q-5 5 -19.5 17t-21.5 22q-10 18 -10 36q0 17 9 30t26 17q8 3 19 3q21 0 33 -9q16 -10 20 -46l-23 -8q-1 3 -3.5 13.5t-8 18
t-13.5 10.5q-11 0 -20 -5t-10 -14q-3 -17 7.5 -29.5t29.5 -26.5q4 -4 17.5 -17t20.5 -26.5t7 -28.5q0 -23 -14.5 -38.5t-37.5 -15.5q-27 0 -43 17.5t-18 45.5zM765.5 -170q6.5 10 20.5 10q19 0 25 -10.5t6 -27.5h-17q0 2 1 4.5t1 6.5t-3 9q-2 8 -10 8q-7 0 -12 -7
q-5 -5 -5 -19l1 -20l-1 -20q0 -14 5 -20q4 -5 11 -5q10 0 11 8q3 4 3 8q0 3 -1 6.5t-1 6.5h17q0 -42 -30 -42q-17 0 -23 11.5t-6 31.5l1 36q0 15 6.5 25zM836 313h39l-69 -303h-34zM780 -22h44v-11h-27v-38h23v-10h-23v-44h27v-8h-44v111zM814 374q0 -21 8 -25h3q15 0 15 14
q0 7 -5 13t-11.5 12t-9.5 10q-7 5 -11.5 13.5t-4.5 15.5q0 13 9 19q6 5 18 5q8 0 12 -2q8 -3 12 -11t4 -16l-13 -2q-3 11 -7.5 16.5t-8.5 5.5q-8 0 -10 -10q-1 -2 -1 -6q0 -11 15 -24q4 -3 10.5 -8t10.5 -9.5t4 -10.5q2 -8 2 -10q0 -12 -7.5 -20t-19.5 -8q-13 0 -21 9.5
t-10 23.5zM821 644q0 24 4 43q7 21 21 29t37 8q41 0 52 -30q7 -15 7 -43l-1 -28q-1 -9 -1 -24l1 -31q0 -15 -3 -22q-3 -21 -17.5 -32t-37.5 -11q-24 0 -40 11.5t-19 33.5q-2 15 -2 46zM834 -161h14v-112h-14v112zM885 120q0 -3 0.5 -15.5t5 -21.5t13.5 -10h2q5 0 8.5 4
t3.5 11v193h39v-194q0 -21 -14.5 -35t-34.5 -16h-6q-15 0 -22 4q-19 9 -25 29t-6 49zM855 543.5q2 -10.5 11 -15.5q8 -3 15 -3q9 0 13 3q14 7 16 28q1 2 1 8l-1 15v79v14q0 15 -7 22q-17 12 -27 6q-10 -1 -14.5 -5t-8.5 -14q-2 -14 -2 -23l1 -23q1 -8 1 -24v-38
q0 -19 2 -29.5zM883 -161h16l25 -112h-15l-3 30h-24l-6 -30h-17zM866 452h44v-10h-27v-40h23v-12h-23v-41h30v-13h-47v116zM872 -22h42v-11h-31v-38h23v-10h-23v-52h-11v111zM903 -235l-10 53l-10 -53h20zM912.5 793.5q2.5 -10.5 14.5 -15.5q8 -2 13 -2q7 0 13 2q9 5 12 12
t4 17v100q0 14 -1.5 22.5t-8.5 14.5q-7 9 -15 9q-2 0 -10 -2q-17 -1 -21 -20q-4 -12 -4 -32l1 -38v-39q0 -18 2.5 -28.5zM923.5 -93q0.5 8 0.5 12v59h13v-49q0 -3 -0.5 -18t3 -25.5t12.5 -10.5q12 0 15 14t2.5 25.5t-0.5 14.5v49h13v-50q0 -30 -4.5 -46.5t-26.5 -16.5
q-11 0 -18 7.5t-9 21.5q-1 5 -0.5 13zM935 -161h15v-102h29v-10h-44v112zM966 452l16 -83l17 83h14l-24 -116h-14l-25 116h16zM973 724h20l62 -147v147h28v-219h-22l-65 148v-148h-23v219zM975 281h41v-150q0 -32 3 -47q3 -4 8 -7t11 -2q1 1 4.5 3t5 4.5t1.5 7.5q3 11 3 36
v155h39v-155q0 -31 -4 -50.5t-22 -29.5q-13 -8 -33 -8q-15 0 -22 2q-15 7 -23.5 20.5t-9.5 29.5q-2 13 -2 36v155zM999 -22h17v-103h25v-8h-42v111zM1030 -161l18 -82l17 82h14l-25 -112h-13l-24 112h13zM1025 452h16v-116h-16v116zM1030 975h20l60 -147v147h27v-220h-20
l-62 147v-147h-25v220zM1054 -22h15v-103h28v-8h-43v111zM1071 374q0 -7 3 -14.5t9 -10.5h2q12 0 12 14q1 9 -6 17t-20 18q-6 6 -10.5 14t-4.5 16q0 11 9 18q8 5 20 5q8 0 11 -2q12 -5 14 -27l-13 -2q-3 22 -12 22q-7 0 -12 -10q-1 -2 -1 -6q0 -8 7 -14.5t9 -9.5
q10 -7 15.5 -13.5t6.5 -14.5q2 -8 2 -11q0 -12 -7 -19.5t-19 -7.5q-27 0 -29 33zM1091 -161h44v-11h-28v-34h23v-12h-23v-45h28v-10h-44v112zM1113 281h38l28 -152l28 152h43l1 -242h-36l-2 101l-19 -101h-28l-20 99v-99h-38zM1116 724h29v-200h55v-19h-84v219zM1126 452h15
v-116h-15v116zM1157 -22h18l24 -111h-16l-5 28h-23l-7 -28h-13zM1147 -161l24 1q12 0 20 -4q11 -8 11 -26q0 -9 -3.5 -16.5t-10.5 -10.5l16 -56h-15l-15 55h-10v-55h-17v112zM1151 452h53v-10h-18v-106h-13v106h-22v10zM1176 -94l-10 51l-9 -51h19zM1206 975h31l46 -220h-29
l-10 52h-45l-11 -52h-28zM1182.5 -203.5q5.5 2.5 5.5 12.5q0 12 -6 15.5t-18 3.5v-34q13 0 18.5 2.5zM1240 830l-17 101l-20 -101h37zM1209 -22h10l32 -73v73h14v-111h-11l-30 76v-76h-15v111zM1237 724l33 -106l33 106h30l-30 -93l-15 -44q-4 -7 -3 -16.5t1 -12.5v-53h-31
v44q0 5 0.5 16t-0.5 18q-6 24 -15 42l-31 99h28zM1230 -238q0 -6 2.5 -12.5t7.5 -8.5q6 -2 7 -2q5 0 8 4t3 10q0 12 -28 32q-14 14 -14 31q0 12 10 18q11 7 19 7q4 0 12 -4q13 -4 13 -25l-12 -6q0 2 -1 10.5t-7 11.5q-6 2 -7 2q-6 0 -10 -8q-2 -4 -2 -6q0 -7 7 -13t10 -9
q3 -4 9 -9.5t9.5 -11t3.5 -12.5q2 -6 2 -10q0 -11 -6.5 -18t-18.5 -7q-14 0 -22 9.5t-9 24.5zM1273 281h59q22 0 38.5 -22t16.5 -59q0 -28 -8 -51.5t-37 -30.5q-10 -3 -30 -3v-76h-39v242zM1283 -22l20 1q18 0 30 -8q7 -6 7 -24l-1 -25l1 -20q0 -22 -13 -28q-9 -8 -25 -7.5
t-19 0.5v111zM1286 -161h13v-112h-13v112zM1315.5 -122q5.5 3 8.5 16v57q-1 11 -6.5 13.5t-19.5 2.5v-92q12 0 17.5 3zM1306 975h31v-199h55v-21h-86v220zM1334 151q5 2 8 16t3 32q0 20 -4.5 33.5t-12.5 13.5h-16v-95h22zM1316 -198.5q0 21.5 8.5 30.5t26.5 7
q19 -1 23.5 -13t4 -25t-0.5 -17q0 -29 -4 -43.5t-26 -14.5q-20 0 -26 14t-6 37v24.5zM1334.5 -220.5q-1.5 -8.5 -1.5 -19.5q0 -16 7 -19q6 -3 10 -3q14 0 14 35l1 24q0 26 -8 29q-6 3 -10 3q-11 0 -11 -20v-15q0 -6 -1.5 -14.5zM1348 535h30v-30h-30v30zM1378 724l-10 -173
h-10l-10 173h30zM1396 -161h10l33 -75v75h12v-112h-11l-34 78v-78h-10v112zM1407 281h94v-41h-55v-53h44v-43h-44v-64h55v-41h-94v242zM1528 281h70q16 0 30 -16t14 -47q0 -20 -7 -38.5t-22 -28.5l27 -112h-40l-22 105h-11v-105h-39v242zM1589 178q4 3 7 12t3 20
q0 15 -5 25.5t-14 10.5h-13v-68h22z" />
    <glyph glyph-name="f_f" unicode="ff" horiz-adv-x="846" 
d="M149 500q0 70 33 126.5t91 88t129 31.5h43l-2 -69h-15q-88 0 -143 -46t-55 -125v-506h-81v500zM2 476h464v-78h-464v78zM492 500q0 70 33 126.5t91 88t129 31.5h43l-2 -69h-15q-88 0 -143 -46t-55 -125v-506h-81v500zM345 476h464v-78h-464v78z" />
    <glyph glyph-name="fi" unicode="fi" horiz-adv-x="722" 
d="M149 500q0 70 33 126.5t91 88t129 31.5h43l-2 -69h-15q-88 0 -143 -46t-55 -125v-506h-81v500zM2 523h652v-78h-652v78zM571 523h83v-523h-83v523zM574 626.5q-18 9.5 -29 25t-11 34.5t11 34.5t29 25t40 9.5t40.5 -9.5t29.5 -25t11 -34.5t-11 -34.5t-29.5 -25t-40.5 -9.5
t-40 9.5z" />
    <glyph glyph-name="fl" unicode="fl" horiz-adv-x="707" 
d="M149 500q0 70 33 126.5t91 88t129 31.5h43l-2 -69h-15q-88 0 -143 -46t-55 -125v-506h-81v500zM2 476h464v-78h-464v78zM557 746h81v-746h-81v746z" />
    <glyph glyph-name="f_f_i" unicode="ffi" horiz-adv-x="1066" 
d="M149 500q0 70 33 126.5t91 88t129 31.5h43l-2 -69h-15q-88 0 -143 -46t-55 -125v-506h-81v500zM2 476h464v-78h-464v78zM492 500q0 70 33 126.5t91 88t129 31.5h43l-2 -69h-15q-88 0 -143 -46t-55 -125v-506h-81v500zM345 476h464v-78h-464v78zM914 523h83v-523h-83v523z
M917.5 626.5q-18.5 9.5 -29.5 25t-11 34.5t11 34.5t29.5 25t40.5 9.5t40 -9.5t29 -25t11 -34.5t-11 -34.5t-29 -25t-40 -9.5t-40.5 9.5z" />
    <glyph glyph-name="f_f_l" unicode="ffl" horiz-adv-x="1050" 
d="M149 500q0 70 33 126.5t91 88t129 31.5h43l-2 -69h-15q-88 0 -143 -46t-55 -125v-506h-81v500zM2 476h464v-78h-464v78zM492 500q0 70 33 126.5t91 88t129 31.5h43l-2 -69h-15q-88 0 -143 -46t-55 -125v-506h-81v500zM345 476h464v-78h-464v78zM900 746h81v-746h-81v746z
" />
    <glyph glyph-name="f_t" unicode="ft" horiz-adv-x="824" 
d="M167 500q0 70 33 126.5t91 88t129 31.5h43l-2 -69h-15q-88 0 -143 -46t-55 -125v-506h-81v500zM20 476h464v-78h-464v78zM541 746h85v-746h-85v746zM367 476h450v-78h-450v78z" />
    <glyph glyph-name="t_f" unicode="tf" horiz-adv-x="824" 
d="M504 500q0 70 33 126.5t91 88t129 31.5h43l-2 -69h-14q-88 0 -143 -46t-55 -125v-506h-82v500zM182 746h86v-746h-86v746zM8 476h450v-78h-450v78zM358 476h463v-78h-463v78z" />
    <glyph glyph-name=".notdef" horiz-adv-x="720" 
 />
    <glyph glyph-name=".null" 
 />
    <glyph glyph-name="nonmarkingreturn" horiz-adv-x="333" 
 />
    <glyph glyph-name="space" unicode=" " horiz-adv-x="352" 
 />
    <glyph glyph-name="exclam" unicode="!" horiz-adv-x="235" 
d="M72 748h95l-21 -501h-61zM72.5 9q-17.5 9 -27.5 25t-10 34q0 19 10 35t27.5 25.5t39.5 9.5q21 0 39 -9.5t28.5 -25.5t10.5 -35q0 -18 -10.5 -33.5t-28.5 -25t-39 -9.5q-22 0 -39.5 9z" />
    <glyph glyph-name="quotedbl" unicode="&#x22;" horiz-adv-x="322" 
d="M199 746h100l-41 -282h-62zM32 746h99l-41 -282h-61z" />
    <glyph glyph-name="numbersign" unicode="#" horiz-adv-x="659" 
d="M134 180h-84v77h94l24 203h-116l1 78h125l12 99h84l-12 -99h170l12 99h84l-12 -99h88v-77h-97l-25 -203h119v-78h-128l-13 -108h-84l13 108h-171l-13 -108h-84zM398 258l25 203l-171 -1l-24 -203z" />
    <glyph glyph-name="dollar" unicode="$" horiz-adv-x="704" 
d="M205 25.5q-69 26.5 -112 74.5t-45 109h74q11 -70 71.5 -107t158.5 -37q64 0 113 16.5t75 45.5t24 66q-3 49 -59.5 79.5t-164.5 37.5q-132 10 -199 54.5t-65 117.5q2 55 34.5 98t94.5 67.5t149 24.5q86 0 152.5 -27.5t105 -72.5t46.5 -96h-80q-7 33 -35 62t-76 46.5
t-114 17.5q-58 0 -103 -16.5t-69.5 -44.5t-23.5 -61q2 -43 47 -70t139 -31q149 -8 224.5 -57t81.5 -126q3 -52 -31.5 -97t-103.5 -72.5t-162 -27.5q-78 0 -147 26.5zM316 748h79v-836h-79v836z" />
    <glyph glyph-name="percent" unicode="%" horiz-adv-x="761" 
d="M637 672h106l-576 -672h-106zM453.5 25q-48.5 25 -76 68t-27.5 95t26.5 95t74.5 68t108 25q61 0 109 -25t75.5 -68t28.5 -95q0 -52 -26.5 -95t-74.5 -68t-108 -25q-61 0 -109.5 25zM146 321q-48 25 -75 68.5t-27 95.5q0 51 26 94t73.5 68t108.5 25t109 -25t75.5 -68
t27.5 -94q0 -52 -27 -95.5t-74.5 -68.5t-108.5 -25q-60 0 -108 25zM653 100q34 35 36 88t-31 88.5t-94 35.5q-62 0 -96 -35.5t-32 -88.5q-2 -53 30 -88t93 -35q60 0 94 35zM345.5 396q33.5 35 36.5 89q2 53 -31 88t-94 35t-95.5 -35t-33.5 -88q-2 -53 30.5 -88.5t93.5 -35.5
q60 0 93.5 35z" />
    <glyph glyph-name="ampersand" unicode="&#x26;" horiz-adv-x="724" 
d="M150 26.5q-51 26.5 -75.5 70t-21.5 96.5q1 51 33.5 87.5t91.5 56.5q-101 43 -111 145q-6 56 23.5 104.5t90 78t143.5 29.5h210l-7 -78h-155q-116 0 -168 -33t-53 -101q0 -48 35.5 -76.5t107.5 -28.5h400l-3 -75h-399q-39 0 -76 -14t-60 -42t-23 -67q1 -48 41 -80t115 -32
q46 0 96 24t85 71t36 112l50 -68q-38 -91 -106.5 -148.5t-173.5 -57.5q-75 0 -126 26.5zM504 124v217h74v-341h-69z" />
    <glyph glyph-name="quotesingle" unicode="'" horiz-adv-x="116" 
d="M32 746h99l-41 -282h-61z" />
    <glyph glyph-name="parenleft" unicode="(" horiz-adv-x="356" 
d="M337 -186q-79 7 -139.5 57.5t-95.5 148t-37 239.5q-2 149 35 257t100 164t137 57v-71q-52 -6 -93.5 -52.5t-65.5 -131.5t-24 -202q0 -131 25.5 -217t67 -127t90.5 -44v-78z" />
    <glyph glyph-name="parenright" unicode=")" horiz-adv-x="373" 
d="M29 -115q50 6 90.5 50t65.5 127t29 200q4 116 -22.5 207t-70.5 142.5t-90 54.5l-1 72q67 -6 127 -51t101 -144.5t43 -256.5q2 -142 -35 -249t-100.5 -164.5t-136.5 -58.5v71z" />
    <glyph glyph-name="asterisk" unicode="*" horiz-adv-x="568" 
d="M107 328l117 185l-206 -10l4 86l197 -22l-107 176l76 26l96 -188l88 179l79 -30l-103 -166l208 14l-2 -85l-205 17l107 -186l-84 -34l-86 201l-106 -203z" />
    <glyph glyph-name="plus" unicode="+" horiz-adv-x="596" 
d="M251 300h-208v80h208v209h86v-209h215v-80h-215v-193h-86v193z" />
    <glyph glyph-name="comma" unicode="," horiz-adv-x="212" 
d="M36 -107l29 316h111l-72 -328z" />
    <glyph glyph-name="hyphen" unicode="-" horiz-adv-x="400" 
d="M43 356h317v-88h-317v88z" />
    <glyph glyph-name="period" unicode="." horiz-adv-x="248" 
d="M96.5 9q-17.5 9 -27.5 25t-10 34q0 19 10 35t27.5 25.5t39.5 9.5q21 0 39 -9.5t28.5 -25.5t10.5 -35q0 -18 -10.5 -33.5t-28.5 -25t-39 -9.5q-22 0 -39.5 9z" />
    <glyph glyph-name="slash" unicode="/" horiz-adv-x="511" 
d="M418 671h98l-420 -748h-97z" />
    <glyph glyph-name="colon" unicode=":" horiz-adv-x="250" 
d="M81 404q-22 20 -22 48q0 29 22 49.5t55 20.5q32 0 55 -20.5t23 -49.5q0 -28 -23 -48t-55 -20q-33 0 -55 20zM81 20q-22 20 -22 48q0 29 22 49.5t55 20.5q32 0 55 -20.5t23 -49.5q0 -28 -23 -48t-55 -20q-33 0 -55 20z" />
    <glyph glyph-name="semicolon" unicode=";" horiz-adv-x="250" 
d="M56 -107l29 316h112l-72 -328zM81 404q-22 20 -22 48q0 29 22 49.5t55 20.5q32 0 55 -20.5t23 -49.5q0 -28 -23 -48t-55 -20q-33 0 -55 20z" />
    <glyph glyph-name="less" unicode="&#x3c;" horiz-adv-x="408" 
d="M42 265v46l314 254v-103l-216 -173l216 -175v-107z" />
    <glyph glyph-name="equal" unicode="=" horiz-adv-x="569" 
d="M42 496h478l1 -89h-478zM44 306h478v-88h-478v88z" />
    <glyph glyph-name="greater" unicode="&#x3e;" horiz-adv-x="408" 
d="M42 110l216 173l-216 175v107l314 -258v-45l-314 -255v103z" />
    <glyph glyph-name="question" unicode="?" horiz-adv-x="672" 
d="M245 377q18 0 35 0.5t34 2.5q117 9 181 50.5t64 111.5q0 51 -41 90.5t-120 50.5q-95 13 -160.5 -9.5t-95.5 -68t-24 -101.5h-83q-6 75 28.5 133t108 90.5t180.5 32.5q66 0 135 -23.5t115 -72t46 -119.5q2 -65 -37 -115.5t-111.5 -80.5t-167.5 -36l-16 -99h-62zM252.5 9
q-17.5 9 -27.5 25t-10 34q0 19 10 35t27.5 25.5t39.5 9.5q21 0 39 -9.5t28.5 -25.5t10.5 -35q0 -18 -10.5 -33.5t-28.5 -25t-39 -9.5q-22 0 -39.5 9z" />
    <glyph glyph-name="at" unicode="@" horiz-adv-x="952" 
d="M241.5 -148q-99.5 69 -149.5 181.5t-48 240.5q3 120 58.5 229.5t160 178.5t246.5 69q120 0 212.5 -54t143 -161.5t45.5 -261.5q-5 -160 -90.5 -221t-165 -3.5t-64.5 194.5l-10 19v239h72v-268q-1 -97 42 -132t88.5 12t52.5 160q8 118 -29.5 210t-114.5 143.5t-181 51.5
q-110 0 -196.5 -50.5t-138.5 -142.5t-59 -212q-6 -115 39 -211t130.5 -152.5t194.5 -56.5q55 0 119 22.5t105 52.5l63 -53q-60 -41 -135 -67t-153 -26q-138 0 -237.5 69zM352 45q-41 32 -63 89.5t-21 128.5q2 68 28.5 125t69.5 90.5t92 33.5q51 0 92 -30.5t63.5 -84.5
t21.5 -122q-3 -72 -29 -132t-68.5 -95t-93.5 -35t-92 32zM535 135q33 51 35 129q3 83 -16.5 129t-72.5 46q-55 0 -92 -49.5t-40 -125.5q-2 -55 10.5 -95.5t36 -62.5t52.5 -22q54 0 87 51z" />
    <glyph glyph-name="A" unicode="A" horiz-adv-x="676" 
d="M287 695h107l258 -695h-94l-54 151h-329l-55 -151h-97zM474 233l-134 374l-136 -374h270z" />
    <glyph glyph-name="B" unicode="B" horiz-adv-x="606" 
d="M91 385h186q131 0 204 -42.5t82 -130.5q6 -55 -23.5 -104t-89.5 -78.5t-143 -29.5h-223zM61 695h82v-695h-82v695zM294 78q83 0 130 31t51 91q3 52 -35 85t-115 33h-217l1 -240h185zM299 385q71 0 109.5 29.5t42.5 83.5q4 57 -33 88t-108 31h-194l14 -232h169zM92 695
h219q119 0 172.5 -55.5t50.5 -139.5q-4 -84 -89.5 -127.5t-221.5 -43.5h-139z" />
    <glyph glyph-name="C" unicode="C" horiz-adv-x="706" 
d="M189.5 28.5q-74.5 47.5 -115 129t-38.5 179.5q1 98 45 180t120.5 130t170.5 48q92 0 160.5 -42.5t103.5 -109t32 -133.5h-84q-2 59 -28 106t-74 74t-114 27q-71 0 -126 -39t-85.5 -103t-32.5 -137q-3 -83 25 -146t82.5 -98t128.5 -35q57 0 104.5 25.5t77.5 71t36 103.5
h90q-5 -66 -42.5 -130t-105.5 -106t-161 -42q-95 0 -169.5 47.5z" />
    <glyph glyph-name="D" unicode="D" horiz-adv-x="662" 
d="M108 695h198q93 0 164.5 -49t110 -129t38.5 -170q0 -88 -38 -168t-110 -129.5t-169 -49.5h-220zM66 695h85v-695h-85v695zM305 78q72 0 125.5 40.5t81 106.5t24.5 139q-6 117 -68.5 185t-172.5 68h-161l12 -539h159z" />
    <glyph glyph-name="E" unicode="E" horiz-adv-x="565" 
d="M58 695h446l-1 -82h-364v-228h323l-1 -86h-322v-213h365v-86h-446v695z" />
    <glyph glyph-name="F" unicode="F" horiz-adv-x="503" 
d="M54 695h434l-1 -89h-351v-252h320l-2 -89h-318v-265h-82v695z" />
    <glyph glyph-name="G" unicode="G" horiz-adv-x="758" 
d="M199 28.5q-79 47.5 -122 130t-41 182.5q2 95 48.5 176.5t127.5 129.5t182 48q93 0 161.5 -39.5t107 -99.5t46.5 -120h-89q-8 44 -36 85.5t-77.5 68.5t-117.5 27q-76 0 -135.5 -36.5t-92.5 -99.5t-36 -140q-3 -83 28.5 -147t90.5 -99.5t136 -35.5q65 0 121 29.5t92 82
t43 119.5h88q-7 -81 -50.5 -151.5t-119 -114t-175.5 -43.5q-101 0 -180 47.5zM373 340h351v-50l-70 -28h-281v78z" />
    <glyph glyph-name="H" unicode="H" horiz-adv-x="648" 
d="M508 307h-368v-307h-81v695h81v-311h368v311h81v-695h-81v307z" />
    <glyph glyph-name="I" unicode="I" horiz-adv-x="228" 
d="M76 695h81v-695h-81v695z" />
    <glyph glyph-name="J" unicode="J" horiz-adv-x="694" 
d="M157.5 23.5q-65.5 42.5 -96 116.5t-21.5 167h82q-7 -71 13 -127t66 -88.5t115 -32.5q111 0 174.5 68t62.5 213v355h87v-353q0 -118 -38 -199t-110.5 -121.5t-174.5 -40.5q-94 0 -159.5 42.5z" />
    <glyph glyph-name="K" unicode="K" horiz-adv-x="617" 
d="M145 342v-342h-81v695h81v-319l384 319h114l-398 -335l429 -360h-127z" />
    <glyph glyph-name="L" unicode="L" horiz-adv-x="514" 
d="M60 695h82v-613h364v-82h-446v695z" />
    <glyph glyph-name="M" unicode="M" horiz-adv-x="842" 
d="M148 542v-542h-82v695h98l250 -574l282 574h91v-695h-84v548l-260 -548h-65z" />
    <glyph glyph-name="N" unicode="N" horiz-adv-x="708" 
d="M148 561v-561h-82v695h82l414 -581v581h81v-695h-93z" />
    <glyph glyph-name="O" unicode="O" horiz-adv-x="781" 
d="M199 28q-79 47 -122 128t-41 181q2 96 47.5 178t126.5 131t184 49q101 0 179.5 -46t121.5 -127.5t42 -184.5q-2 -97 -49 -178.5t-128 -129.5t-181 -48q-101 0 -180 47zM520 97q60 38 92.5 102t34.5 138q2 79 -28.5 142.5t-89.5 100.5t-140 37q-75 0 -135 -39.5
t-93.5 -104t-35.5 -136.5q-3 -82 27.5 -145t89.5 -98t138 -35q80 0 140 38z" />
    <glyph glyph-name="P" unicode="P" horiz-adv-x="601" 
d="M91 695h191q95 0 161 -33t99 -88.5t35 -122.5q2 -76 -32 -136t-101.5 -95t-161.5 -36h-203zM60 695h82v-695h-82v695zM287 262q96 0 150 51.5t49 137.5q-4 79 -59 122.5t-140 43.5h-175l-9 -355h184z" />
    <glyph glyph-name="Q" unicode="Q" horiz-adv-x="784" 
d="M199 28q-79 47 -122 128t-41 181q2 96 47.5 178t126.5 131t184 49q101 0 179.5 -46t121.5 -127.5t42 -184.5q-2 -97 -49 -178.5t-128 -129.5t-181 -48q-101 0 -180 47zM479 55l80 36l113 -156l-79 -42zM520 97q60 38 92.5 102t34.5 138q2 79 -28.5 142.5t-89.5 100.5
t-140 37q-75 0 -135 -39.5t-93.5 -104t-35.5 -136.5q-3 -82 27.5 -145t89.5 -98t138 -35q80 0 140 38z" />
    <glyph glyph-name="R" unicode="R" horiz-adv-x="575" 
d="M106 328l-2 367h170q77 1 133.5 -27t86.5 -75.5t30 -105.5q0 -97 -65 -155t-185 -58l297 -274h-116zM64 695h84v-695h-84v695zM269 342q81 0 125.5 38.5t42.5 106.5q-4 68 -47.5 99t-119.5 31h-148l2 -275h145z" />
    <glyph glyph-name="S" unicode="S" horiz-adv-x="670" 
d="M164 10.5q-67 29.5 -104.5 81t-41.5 117.5h80q13 -70 69 -111.5t151 -41.5q100 0 157.5 36t57.5 96q0 52 -51 80.5t-168 36.5q-130 10 -195.5 59t-64.5 133q1 53 34.5 98.5t94.5 72.5t139 27q84 0 146.5 -31t98 -81t44.5 -109h-90q-14 62 -62 102.5t-137 40.5
q-57 0 -99 -17t-63.5 -45t-21.5 -59q0 -46 36.5 -73.5t115.5 -35.5l27 -2q159 -9 231 -59.5t72 -134.5q0 -55 -34.5 -103t-103 -77.5t-163.5 -29.5q-88 0 -155 29.5z" />
    <glyph glyph-name="T" unicode="T" horiz-adv-x="601" 
d="M259 616h-265v79h613v-79h-266v-616h-82v616z" />
    <glyph glyph-name="U" unicode="U" horiz-adv-x="732" 
d="M137 65q-83 84 -83 254v376h83v-375q0 -138 60 -199.5t169 -61.5q113 0 173 63.5t60 197.5v375h86v-382q0 -107 -38 -181.5t-110 -112.5t-173 -38q-144 0 -227 84z" />
    <glyph glyph-name="V" unicode="V" horiz-adv-x="655" 
d="M17 695h92l207 -607l231 607h97l-274 -695h-107z" />
    <glyph glyph-name="W" unicode="W" horiz-adv-x="887" 
d="M442 564l-166 -564h-77l-195 695h91l147 -545l155 545h87l181 -537l140 537h95l-198 -695h-68z" />
    <glyph glyph-name="X" unicode="X" horiz-adv-x="666" 
d="M344 307l-228 -307h-105l271 360l-247 335h111l201 -280l206 280h106l-251 -335l278 -360h-114z" />
    <glyph glyph-name="Y" unicode="Y" horiz-adv-x="504" 
d="M199 209l-246 486h96l195 -389l218 389h98l-272 -483v-212h-89v209z" />
    <glyph glyph-name="Z" unicode="Z" horiz-adv-x="667" 
d="M494 614h-465v81h633l-489 -618h469v-77h-641z" />
    <glyph glyph-name="bracketleft" unicode="[" horiz-adv-x="433" 
d="M104 748h321v-66h-239v-785h229v-64h-311v915z" />
    <glyph glyph-name="backslash" unicode="\" horiz-adv-x="475" 
d="M-20 671h92l427 -748h-93z" />
    <glyph glyph-name="bracketright" unicode="]" horiz-adv-x="431" 
d="M23 -101h231v785h-222v64h304v-915h-313v66z" />
    <glyph glyph-name="asciicircum" unicode="^" horiz-adv-x="420" 
d="M185 732h56l139 -240h-81l-88 158l-92 -158h-84z" />
    <glyph glyph-name="underscore" unicode="_" horiz-adv-x="466" 
d="M34 -30h423v-85h-423v85z" />
    <glyph glyph-name="grave" unicode="`" horiz-adv-x="308" 
d="M-35 713l55 72l224 -190l-41 -49z" />
    <glyph glyph-name="a" unicode="a" horiz-adv-x="638" 
d="M166 18q-57 37 -89.5 101.5t-32.5 143.5q0 77 34.5 141t93.5 101t128 37q71 0 126 -37t85.5 -100.5t30.5 -141.5q0 -77 -33 -141.5t-90 -102.5t-127 -38q-69 0 -126 37zM403.5 86.5q44.5 26.5 71 72.5t26.5 103q0 58 -23 104t-64 72t-92 26q-52 0 -96.5 -26.5t-71 -73
t-26.5 -102.5q0 -58 23 -104t64 -72t93 -26q51 0 95.5 26.5zM500 523h82l1 -523h-81z" />
    <glyph glyph-name="b" unicode="b" horiz-adv-x="636" 
d="M219.5 19q-57.5 38 -90.5 102.5t-33 141.5q0 78 30.5 141.5t85.5 100.5t126 37q70 0 128.5 -37t93 -101t34.5 -141q0 -79 -32.5 -143.5t-89 -101.5t-125.5 -37q-70 0 -127.5 38zM56 746h82l-1 -746h-82zM423 86q41 26 64 72t23 104q0 56 -26.5 102.5t-71 73t-95.5 26.5
t-92 -26t-64.5 -72t-23.5 -104q0 -57 26.5 -103t71 -72.5t95.5 -26.5q52 0 93 26z" />
    <glyph glyph-name="c" unicode="c" horiz-adv-x="658" 
d="M177 18q-64 37 -99.5 101t-34.5 143q2 75 40 139.5t103 102.5t146 38q70 0 128.5 -29t96 -79.5t47.5 -111.5h-78q-7 37 -33 69.5t-67 52t-91 19.5q-61 0 -110 -28t-76.5 -74.5t-28.5 -98.5q0 -60 25 -105.5t72 -70.5t109 -25q76 0 129 42t72 107h72q-11 -66 -51 -118
t-99.5 -81.5t-126.5 -29.5q-81 0 -145 37z" />
    <glyph glyph-name="d" unicode="d" horiz-adv-x="635" 
d="M166 18q-57 37 -89.5 101.5t-32.5 143.5q0 77 34.5 141t93.5 101t128 37q71 0 126 -37t85.5 -100.5t30.5 -141.5q0 -77 -33 -141.5t-90 -102.5t-127 -38q-69 0 -126 37zM403.5 86.5q44.5 26.5 71.5 72.5t27 103q0 58 -23.5 104t-64.5 72t-92 26q-52 0 -96.5 -26.5
t-71 -73t-26.5 -102.5q0 -58 23 -104t64 -72t93 -26q51 0 95.5 26.5zM500 746h82l1 -746h-81z" />
    <glyph glyph-name="e" unicode="e" horiz-adv-x="640" 
d="M173 17q-64 36 -100.5 100t-34.5 145q1 77 40 141t104 101.5t142 37.5q93 0 156.5 -40.5t93.5 -105t28 -134.5q-2 -31 -6 -42h-471q4 -73 58.5 -116t139.5 -43q56 0 101.5 23.5t75.5 59.5l68 -42q-37 -55 -104 -88t-147 -33t-144 36zM518 296q0 41 -22.5 80t-65 63.5
t-98.5 24.5q-77 0 -133 -45.5t-72 -122.5h391z" />
    <glyph glyph-name="f" unicode="f" horiz-adv-x="503" 
d="M149 500q0 70 33 126.5t91 88t129 31.5h43l-2 -69h-15q-88 0 -143 -46t-55 -125v-506h-81v500zM2 476h464v-78h-464v78z" />
    <glyph glyph-name="g" unicode="g" horiz-adv-x="624" 
d="M189.5 -244q-60.5 38 -100.5 112l71 32q28 -49 70.5 -77t88.5 -28q79 0 123.5 55.5t45.5 149.5v523h80v-519q-1 -87 -32 -151.5t-86.5 -99.5t-127.5 -35t-132.5 38zM158.5 19q-54.5 38 -84.5 103t-28 141q2 77 37 141t92.5 101t124.5 37t120 -37t82 -101t27 -141
t-36 -141.5t-90.5 -102.5t-122.5 -38q-67 0 -121.5 38zM393 86q42 26 68 72t27 104q2 57 -20.5 103.5t-62.5 72.5t-89 26t-91 -26.5t-68 -73t-27 -102.5q-2 -57 20 -103t62.5 -72.5t89.5 -26.5t91 26z" />
    <glyph glyph-name="h" unicode="h" horiz-adv-x="613" 
d="M470 328q0 61 -32 98.5t-91 37.5q-57 0 -104 -27.5t-75 -78.5t-30 -120l-41 13q2 87 38.5 153t95 102t124.5 36q96 0 146.5 -59.5t50.5 -177.5v-305h-82v328zM56 746h82v-746h-82v746z" />
    <glyph glyph-name="i" unicode="i" horiz-adv-x="220" 
d="M68 523h83v-523h-83v523zM71.5 626.5q-18.5 9.5 -29.5 25t-11 34.5t11 34.5t29.5 25t40.5 9.5t40 -9.5t29 -25t11 -34.5t-11 -34.5t-29 -25t-40 -9.5t-40.5 9.5z" />
    <glyph glyph-name="j" unicode="j" horiz-adv-x="234" 
d="M-138 -154h17q87 0 140 45.5t53 125.5v506h82v-500q0 -71 -32 -127t-89 -87.5t-128 -31.5h-43v69zM74 626.5q-18 9.5 -29 25t-11 34.5t11 34.5t29 25t40 9.5t40 -9.5t29 -25t11 -34.5t-11 -34.5t-29 -25t-40 -9.5t-40 9.5z" />
    <glyph glyph-name="k" unicode="k" horiz-adv-x="571" 
d="M143 246v-246h-82v746h82v-468l318 245h135l-346 -260l355 -263h-137z" />
    <glyph glyph-name="l" unicode="l" horiz-adv-x="214" 
d="M64 746h81v-746h-81v746z" />
    <glyph glyph-name="m" unicode="m" horiz-adv-x="942" 
d="M796 319q0 70 -27 107.5t-85 37.5q-80 0 -125 -56t-48 -157l-41 13q2 84 32.5 147t81 97t112.5 34q90 0 135.5 -59.5t45.5 -169.5v-313h-81v319zM64 523h81v-523h-81v523zM430 319q0 65 -25.5 105t-82.5 40q-79 0 -126.5 -57.5t-50.5 -155.5l-41 13q2 84 32.5 147t81 97
t112.5 34q90 0 135.5 -64t45.5 -182v-296h-81v319z" />
    <glyph glyph-name="n" unicode="n" horiz-adv-x="623" 
d="M478 328q0 61 -32 98.5t-92 37.5q-57 0 -104 -27.5t-75 -78.5t-30 -120l-41 13q2 87 38.5 153t95 102t124.5 36q97 0 147 -59.5t50 -177.5v-305h-81v328zM64 523h81v-523h-81v523z" />
    <glyph glyph-name="o" unicode="o" horiz-adv-x="660" 
d="M186.5 18.5q-66.5 37.5 -105 102t-39.5 141.5q0 78 38 142t103.5 101t146.5 37q85 0 151 -37t103 -101t38 -142q0 -77 -38 -141.5t-104 -102t-146 -37.5q-81 0 -147.5 37.5zM433.5 88q47.5 27 75 73t27.5 101q1 57 -24 103t-71 72.5t-105 26.5t-106.5 -26.5t-75 -73
t-28.5 -102.5t24.5 -102t72 -72.5t105.5 -26.5q58 0 105.5 27z" />
    <glyph glyph-name="p" unicode="p" horiz-adv-x="643" 
d="M213.5 18q-55.5 37 -86 100.5t-30.5 141.5q0 77 33 141.5t90.5 102.5t127.5 38q69 0 125.5 -37t89 -101.5t32.5 -143.5q0 -77 -34.5 -141t-93 -101t-127.5 -37q-71 0 -126.5 37zM56 523h82l1 -746h-81zM413.5 85.5q44.5 26.5 71 73t26.5 103.5q0 58 -23 103.5t-64 71.5
t-93 26q-51 0 -95.5 -26t-71 -72.5t-26.5 -102.5q0 -58 23.5 -104.5t64.5 -72.5t92 -26t95.5 26.5z" />
    <glyph glyph-name="q" unicode="q" horiz-adv-x="638" 
d="M172 18q-59 37 -93.5 101t-34.5 141q0 79 32.5 143.5t89.5 101.5t126 37q70 0 127 -38t90 -102.5t33 -141.5q0 -78 -30.5 -141.5t-85.5 -100.5t-126 -37q-69 0 -128 37zM414 85q41 26 64.5 72.5t23.5 104.5q0 56 -27 102t-71.5 72.5t-95.5 26.5q-52 0 -93 -26t-64 -71.5
t-23 -103.5q0 -57 26.5 -103.5t71 -73t96.5 -26.5q51 0 92 26zM502 523h81l-1 -746h-82z" />
    <glyph glyph-name="r" unicode="r" horiz-adv-x="518" 
d="M106 238q3 101 33 169.5t76 101.5t99 33q54 0 94 -28.5t60.5 -77.5t18.5 -108h-80q1 60 -25.5 98t-75.5 38q-43 0 -79 -26.5t-58 -78t-24 -121.5h-39zM64 523h81v-523h-81v523z" />
    <glyph glyph-name="s" unicode="s" horiz-adv-x="630" 
d="M165 7q-63 26 -97.5 69.5t-37.5 95.5h84q9 -49 58 -82.5t141 -33.5q61 0 101.5 14.5t59 37t16.5 46.5q-2 23 -17 37t-53.5 22.5t-112.5 13.5q-122 8 -180.5 50t-59.5 109q-1 42 26.5 77.5t81.5 57t131 21.5q76 0 132 -22.5t89.5 -62.5t43.5 -93h-89q-11 49 -55 76.5
t-121 27.5q-53 0 -86.5 -12.5t-48.5 -32t-13 -40.5q4 -36 39 -55t113 -23q99 -5 157.5 -23.5t84 -49.5t28.5 -76q2 -43 -25.5 -83t-88 -66t-152.5 -26q-86 0 -149 26z" />
    <glyph glyph-name="t" unicode="t" horiz-adv-x="466" 
d="M188 442h-180v81h180v175h86v-175h184v-81h-184v-442h-86v442z" />
    <glyph glyph-name="u" unicode="u" horiz-adv-x="623" 
d="M114 40.5q-50 59.5 -50 177.5v305h81v-327q0 -61 32 -99t92 -38q57 0 104 27.5t75 79t30 120.5l40 -14q-2 -87 -38.5 -153t-95 -102t-124.5 -36q-96 0 -146 59.5zM478 523h81v-523h-81v523z" />
    <glyph glyph-name="v" unicode="v" horiz-adv-x="632" 
d="M28 523h92l202 -444l212 444h97l-260 -523h-107z" />
    <glyph glyph-name="w" unicode="w" horiz-adv-x="936" 
d="M464 428l-183 -428h-73l-184 523h89l137 -407l172 407h89l161 -401l157 401h97l-222 -523h-68z" />
    <glyph glyph-name="x" unicode="x" horiz-adv-x="614" 
d="M253 268l-239 255h113l185 -204l187 204h113l-244 -258l249 -265h-113l-195 215l-202 -215h-114z" />
    <glyph glyph-name="y" unicode="y" horiz-adv-x="623" 
d="M114 40.5q-50 59.5 -50 177.5v305h81v-327q0 -61 32 -99t92 -38q57 0 104 27.5t75 79t30 120.5l40 -14q-2 -87 -38.5 -153t-95 -102t-124.5 -36q-96 0 -146 59.5zM478 523h81v-746h-81v746z" />
    <glyph glyph-name="z" unicode="z" horiz-adv-x="546" 
d="M380 443h-355v80h513l-363 -446h359v-77h-521z" />
    <glyph glyph-name="braceleft" unicode="{" horiz-adv-x="450" 
d="M323 -167q-71 0 -125.5 33t-80 84.5t-13.5 105.5q6 30 20.5 51t37.5 44q17 18 25 29.5t9 24.5q2 32 -21 54t-61 22v59q39 0 60 12.5t20 39.5q0 13 -6 26.5t-21 41.5q-21 39 -32 67t-10 60q2 68 55.5 110t154.5 42v-85q-61 0 -96.5 -23t-32.5 -71q1 -19 9 -36t24 -43
q19 -29 29 -52.5t9 -50.5q-1 -28 -20 -49t-51 -28q32 -9 51.5 -38t17.5 -61q-1 -32 -14.5 -54t-38.5 -49q-14 -15 -22 -25.5t-12 -21.5q-12 -34 1 -66.5t48 -53t86 -20.5v-79z" />
    <glyph glyph-name="bar" unicode="|" horiz-adv-x="400" 
d="M160 748h78v-971h-78v971z" />
    <glyph glyph-name="braceright" unicode="}" horiz-adv-x="450" 
d="M100 -82q60 0 96 23t32 71q-1 20 -9.5 37.5t-24.5 42.5q-19 31 -28.5 53t-8.5 49q1 29 20 50t51 27q-32 9 -51 38.5t-17 61.5q1 32 14.5 54.5t37.5 48.5q13 13 21.5 24t12.5 23q12 34 -1 66t-48 52.5t-85 20.5v79q71 0 125 -33t79.5 -84.5t13.5 -105.5q-6 -28 -19.5 -48
t-36.5 -45q-17 -17 -25.5 -29.5t-9.5 -26.5q-2 -31 20.5 -53t60.5 -22v-59q-38 0 -59.5 -13t-20.5 -40q0 -13 6.5 -27.5t21.5 -40.5q20 -35 31.5 -64t10.5 -62q-2 -69 -55.5 -111t-154.5 -42v85z" />
    <glyph glyph-name="asciitilde" unicode="~" horiz-adv-x="557" 
d="M38 176q-8 49 1 93.5t36.5 73t73.5 28.5q32 0 59.5 -14.5t67.5 -42.5q34 -25 57 -37.5t47 -12.5q40 0 55.5 30.5t8.5 72.5h73q9 -51 -5 -95t-46 -70t-75 -26q-30 0 -57 14.5t-67 42.5q-35 26 -59 38.5t-48 12.5q-35 0 -44 -29t-1 -79h-77z" />
    <glyph glyph-name="uni00A0" unicode="&#xa0;" horiz-adv-x="352" 
 />
    <glyph glyph-name="exclamdown" unicode="&#xa1;" horiz-adv-x="235" 
d="M152 -60h-95l21 501h61zM151.5 679q17.5 -9 27.5 -25t10 -34q0 -19 -10 -35t-27.5 -25.5t-39.5 -9.5q-21 0 -39 9.5t-28.5 25.5t-10.5 35q0 18 10.5 33.5t28.5 25t39 9.5q22 0 39.5 -9z" />
    <glyph glyph-name="cent" unicode="&#xa2;" horiz-adv-x="710" 
d="M193 26.5q-70 42.5 -108.5 117t-36.5 166.5q2 88 44 162.5t113.5 118.5t158.5 44q80 0 142 -31t100 -86.5t49 -127.5h-78q-14 72 -69 119.5t-142 47.5q-65 0 -120 -35t-88 -92t-33 -120q-2 -73 28 -128.5t83.5 -86t119.5 -30.5q80 0 140.5 51t83.5 125h70
q-12 -78 -53.5 -136t-105 -89.5t-141.5 -31.5q-87 0 -157 42.5zM319 748h79v-868h-79v868z" />
    <glyph glyph-name="sterling" unicode="&#xa3;" horiz-adv-x="692" 
d="M163 421q0 76 27.5 138.5t81 99t128.5 36.5q73 0 127 -32t82.5 -95t25.5 -152h-84q9 89 -31 145t-120 56q-77 0 -115 -56t-38 -185v-232h-84v277zM79 0q-9 46 5.5 91.5t48.5 74t81 28.5q32 0 74 -14.5t104 -42.5q58 -25 91.5 -37t57.5 -12q41 0 61.5 31.5t14.5 71.5h73
q9 -51 -7.5 -95t-51 -70t-78.5 -26q-29 0 -70 14.5t-105 42.5q-59 26 -94.5 38.5t-59.5 12.5q-36 0 -55 -31.5t-12 -76.5h-78zM74 379h404v-72h-404v72z" />
    <glyph glyph-name="currency" unicode="&#xa4;" horiz-adv-x="569" 
d="M145 116.5q-58 34.5 -91.5 94t-34.5 130.5q0 71 33 130.5t90.5 94.5t128.5 35t128.5 -35t91 -94.5t33.5 -130.5q1 -71 -31 -130.5t-89.5 -94t-128.5 -34.5q-72 0 -130 34.5zM-22 134l88 77l72 -31l-83 -114zM-23 542l78 77l84 -96l-47 -51zM365.5 171.5
q42.5 26.5 66.5 71.5t24 98q1 55 -21.5 100t-63.5 71.5t-95 26.5q-53 0 -95.5 -26.5t-67 -71.5t-25.5 -100q-1 -53 21.5 -98t64.5 -71.5t96 -26.5q53 0 95.5 26.5zM426 168l46 54l112 -96l-72 -64zM426 512l83 106l80 -55l-120 -109z" />
    <glyph glyph-name="yen" unicode="&#xa5;" horiz-adv-x="636" 
d="M251 132h-151v85h149l-241 455h95l195 -370l219 370h99l-270 -455h168v-85h-170v-132h-93v132z" />
    <glyph glyph-name="brokenbar" unicode="&#xa6;" horiz-adv-x="400" 
d="M160 748h78v-371h-78v371zM160 148h78v-371h-78v371z" />
    <glyph glyph-name="section" unicode="&#xa7;" horiz-adv-x="638" 
d="M159 -41q-65 26 -101.5 69.5t-39.5 95.5h84q9 -48 61.5 -82t146.5 -34q61 0 103.5 14.5t62.5 37t18 46.5q-2 23 -18.5 37t-56.5 22.5t-115 13.5q-124 8 -186 50.5t-63 108.5q-1 46 38 84t109 56l-4 -36q-70 18 -106 55.5t-37 86.5q-1 41 28.5 77t85.5 57.5t133 21.5
q75 0 133.5 -24t94.5 -64.5t46 -89.5h-89q-14 46 -61.5 75t-123.5 29q-52 0 -88 -12.5t-53 -32t-15 -40.5q4 -35 42.5 -54.5t117.5 -23.5q147 -8 211 -45t67 -104q3 -53 -41 -96t-133 -59l34 40q70 -17 104 -50t36 -81q3 -42 -26.5 -82.5t-92 -66.5t-154.5 -26
q-87 0 -152 26zM407.5 269q40.5 11 64.5 30t24 42t-24 42.5t-64.5 30.5t-87.5 11t-87 -11t-63.5 -30.5t-23.5 -42.5t23.5 -42t63.5 -30t87 -11t87.5 11z" />
    <glyph glyph-name="dieresis" unicode="&#xa8;" horiz-adv-x="577" 
d="M373 593.5q-21 19.5 -21 47.5t20.5 47.5t52.5 19.5q33 0 55 -19.5t22 -47.5t-21 -47.5t-54 -19.5t-54 19.5zM115 593.5q-21 19.5 -21 47.5t20 47.5t52 19.5q33 0 54.5 -19.5t21.5 -47.5t-21 -47.5t-53 -19.5t-53 19.5z" />
    <glyph glyph-name="copyright" unicode="&#xa9;" horiz-adv-x="1022" 
d="M249 -140q-102 63 -153 171.5t-48 242.5q3 131 64 240.5t166 173t236 63.5q140 0 242.5 -64t155.5 -173t50 -240q-2 -130 -63 -239.5t-167 -173.5t-236 -64q-145 0 -247 63zM681.5 -73q86.5 52 136.5 140.5t59 196.5q9 107 -30 201t-121 150.5t-196 56.5t-201.5 -51
t-138 -139t-58.5 -196q-10 -120 31 -213.5t124 -145.5t194 -52q114 0 200.5 52zM378 46.5q-59 36.5 -92.5 98.5t-32.5 136q2 75 35.5 136.5t93 97.5t136.5 36q61 0 111.5 -27t82 -72.5t36.5 -98.5h-74q-5 30 -25.5 56.5t-54.5 42.5t-76 16q-50 0 -92.5 -25t-68 -68
t-27.5 -93q-2 -51 19 -94t60.5 -67.5t89.5 -24.5q68 0 110 29t58 83h78q-6 -53 -39.5 -98.5t-85.5 -72.5t-112 -27q-71 0 -130 36.5z" />
    <glyph glyph-name="ordfeminine" unicode="&#xaa;" horiz-adv-x="500" 
d="M147 285q-43 35 -66.5 94.5t-21.5 129.5q1 71 28.5 130.5t73 94.5t97.5 35t94.5 -35t66 -94.5t21.5 -130.5q-1 -70 -28.5 -129.5t-72.5 -94.5t-97 -35t-95 35zM337 339.5q34 26.5 55 71.5t22 98q1 54 -17.5 99.5t-50.5 72t-71 26.5t-73 -26.5t-54.5 -72.5t-21.5 -99
t17 -98t50 -71.5t71 -26.5t73 26.5zM415 719h66l-3 -419h-65z" />
    <glyph glyph-name="guillemotleft" unicode="&#xab;" horiz-adv-x="654" 
d="M282 227v69l277 215h127l-321 -251l295 -247h-116zM43 296l276 215h127l-321 -251l295 -247h-116l-261 214v69z" />
    <glyph glyph-name="logicalnot" unicode="&#xac;" horiz-adv-x="596" 
d="M43 380h509v-273h-86v193h-423v80z" />
    <glyph glyph-name="registered" unicode="&#xae;" horiz-adv-x="1021" 
d="M249 -140q-102 63 -153 171.5t-48 242.5q3 131 64 240.5t166 173t236 63.5q140 0 242.5 -64t155.5 -173t50 -240q-2 -130 -63 -239.5t-167 -173.5t-236 -64q-145 0 -247 63zM330 575h77v-575h-77v575zM681.5 -73q86.5 52 136.5 140.5t59 196.5q9 107 -30 201t-121 150.5
t-196 56.5t-201.5 -51t-138 -139t-58.5 -196q-10 -120 31 -213.5t124 -145.5t194 -52q114 0 200.5 52zM498 295q66 0 103.5 26t35.5 82q-2 55 -35.5 75.5t-99.5 20.5h-112l-5 -204h113zM372 271v304h134q63 1 110.5 -22t73.5 -62.5t29 -87.5q5 -80 -48.5 -126.5
t-156.5 -46.5l249 -230h-104z" />
    <glyph glyph-name="macron" unicode="&#xaf;" horiz-adv-x="592" 
d="M98 673h401v-80h-401v80z" />
    <glyph glyph-name="degree" unicode="&#xb0;" horiz-adv-x="360" 
d="M104 438.5q-35 18.5 -54.5 49.5t-19.5 69q0 37 19 69t53.5 50.5t78.5 18.5t79.5 -18t55.5 -48.5t20 -68.5q0 -37 -19.5 -69.5t-55 -51.5t-79.5 -19q-43 0 -78 18.5zM239.5 503.5q20.5 21.5 19.5 53.5q2 33 -17 55t-57 22t-58 -22t-21 -55q-2 -32 18 -53.5t58 -21.5
q37 0 57.5 21.5z" />
    <glyph glyph-name="plusminus" unicode="&#xb1;" horiz-adv-x="596" 
d="M251 348h-208v80h208v209h86v-209h215v-80h-215v-193h-86v193zM43 104h509v-80h-509v80z" />
    <glyph glyph-name="uni00B2" unicode="&#xb2;" horiz-adv-x="534" 
d="M54 295q74 25 171.5 79t166.5 128q47 50 49.5 99.5t-35.5 81.5t-104 32q-61 0 -105.5 -23t-64 -61t-8.5 -83h-68q-8 56 17 109t83.5 87t145.5 34q60 0 105.5 -20t72 -52.5t32.5 -69.5q13 -86 -65 -170.5t-239 -163.5h338v-62h-492v55z" />
    <glyph glyph-name="uni00B3" unicode="&#xb3;" horiz-adv-x="574" 
d="M123.5 281.5q-62.5 41.5 -71.5 109.5q-4 18 -2 35h68q-1 -5 -1.5 -10.5t-0.5 -10.5q0 -4 0.5 -7.5t1.5 -6.5q6 -40 54 -64.5t126 -24.5q65 0 111.5 17t69 44t17.5 57q-7 36 -46 59t-114 23h-131l3 58h126q54 0 87.5 13t47 32.5t10.5 41.5q-5 30 -46 49t-121 19
q-72 0 -109.5 -24.5t-35.5 -62.5h-76q-6 39 18 73.5t76.5 55.5t126.5 21q110 0 167.5 -37t66.5 -94q5 -36 -15 -66t-61 -47q39 -17 64 -44t30 -60q7 -44 -16.5 -87.5t-86.5 -73t-167 -29.5q-108 0 -170.5 41.5z" />
    <glyph glyph-name="acute" unicode="&#xb4;" horiz-adv-x="336" 
d="M31 617l227 129l53 -82l-240 -110z" />
    <glyph glyph-name="uni00B5" unicode="&#xb5;" horiz-adv-x="623" 
d="M114 40.5q-50 59.5 -50 177.5v305h81v-327q0 -61 32 -99t92 -38q57 0 104 27.5t75 79t30 120.5l40 -14q-2 -87 -38.5 -153t-95 -102t-124.5 -36q-96 0 -146 59.5zM64 508l30 -12l48 -719h-78v731zM478 523h81v-523h-81v523z" />
    <glyph glyph-name="paragraph" unicode="&#xb6;" horiz-adv-x="625" 
d="M400 748h78v-971h-78v971zM160 748h78v-971h-78v971zM160 422q-75 0 -121.5 46.5t-46.5 120.5q0 76 46 122t122 46v-335zM160 757h459v-80h-459v80z" />
    <glyph glyph-name="periodcentered" unicode="&#xb7;" horiz-adv-x="318" 
d="M115 317.5q-21 19.5 -21 47.5t20 47.5t52 19.5q33 0 54.5 -19.5t21.5 -47.5t-21 -47.5t-53 -19.5t-53 19.5z" />
    <glyph glyph-name="cedilla" unicode="&#xb8;" horiz-adv-x="420" 
d="M48 -198q93 -8 151 -5t81 17.5t16 42.5q-6 24 -37 28t-81 0l-23 -2l38 152l49 3l-15 -104q61 7 101 -10.5t50 -66.5q10 -55 -26 -88t-115.5 -43t-194.5 15z" />
    <glyph glyph-name="uni00B9" unicode="&#xb9;" horiz-adv-x="194" 
d="M79 730l47 48h18v-538h-65v490z" />
    <glyph glyph-name="ordmasculine" unicode="&#xba;" horiz-adv-x="569" 
d="M181 284.5q-58 34.5 -91.5 94t-34.5 130.5q0 71 33 130.5t90.5 94.5t128.5 35t128.5 -35t91 -94.5t33.5 -130.5q1 -71 -31 -130.5t-89.5 -94t-128.5 -34.5q-72 0 -130 34.5zM401.5 339.5q42.5 26.5 66.5 71.5t24 98q1 55 -21.5 100t-63.5 71.5t-95 26.5
q-53 0 -95.5 -26.5t-67 -71.5t-25.5 -100q-1 -53 21.5 -98t64.5 -71.5t96 -26.5q53 0 95.5 26.5z" />
    <glyph glyph-name="guillemotright" unicode="&#xbb;" horiz-adv-x="683" 
d="M565 264l-295 247h116l261 -213v-70l-276 -215h-127zM325 264l-294 247h115l261 -213v-70l-276 -215h-126z" />
    <glyph glyph-name="onequarter" unicode="&#xbc;" horiz-adv-x="884" 
d="M629 698h86l-515 -747h-86zM133 730l47 48h18v-538h-65v490zM716 418h36v-389h58v-63h-59v-86h-63l1 86h-327zM690 28l8 274l-213 -274h205z" />
    <glyph glyph-name="onehalf" unicode="&#xbd;" horiz-adv-x="1049" 
d="M653 698h86l-515 -747h-86zM133 730l47 48h18v-538h-65v490zM560 -65q74 26 171.5 79.5t167.5 127.5q46 50 48.5 99.5t-35 81.5t-103.5 32q-61 0 -106 -23t-64.5 -61t-8.5 -83h-66q-9 56 15 109t82.5 87t146.5 34q59 0 105 -20t72.5 -52.5t32.5 -69.5q13 -85 -65.5 -170
t-239.5 -164h338v-62h-492z" />
    <glyph glyph-name="threequarters" unicode="&#xbe;" horiz-adv-x="1264" 
d="M960 698h86l-514 -747h-87zM177.5 281.5q-62.5 41.5 -71.5 109.5q-4 18 -2 35h68q-1 -5 -1.5 -10.5t-0.5 -10.5q0 -4 0.5 -7.5t1.5 -6.5q6 -40 54 -64.5t126 -24.5q65 0 111.5 17t69 44t17.5 57q-7 36 -46 59t-114 23h-131l3 58h126q54 0 87.5 13t47 32.5t10.5 41.5
q-5 30 -46 49t-121 19q-72 0 -109.5 -24.5t-35.5 -62.5h-76q-6 39 18 73.5t76.5 55.5t126.5 21q110 0 167.5 -37t66.5 -94q5 -36 -15 -66t-61 -47q39 -17 64 -44t30 -60q7 -44 -16.5 -87.5t-86.5 -73t-167 -29.5q-108 0 -170.5 41.5zM1020 -34h-326l354 452h36v-389h57v-63
h-59v-86h-63zM1021 28l9 274l-214 -274h205z" />
    <glyph glyph-name="questiondown" unicode="&#xbf;" horiz-adv-x="672" 
d="M437 323q-18 0 -35 -0.5t-34 -2.5q-117 -9 -181 -50.5t-64 -111.5q0 -51 41 -90.5t120 -50.5q95 -13 160.5 9.5t95.5 68t24 101.5h83q6 -75 -28.5 -133t-108 -90.5t-180.5 -32.5q-66 0 -135 23.5t-115 72t-46 119.5q-2 65 37 115.5t111.5 80.5t167.5 36l16 99h62z
M429.5 691q17.5 -9 27.5 -25t10 -34q0 -19 -10 -35t-27.5 -25.5t-39.5 -9.5q-21 0 -39 9.5t-28.5 25.5t-10.5 35q0 18 10.5 33.5t28.5 25t39 9.5q22 0 39.5 -9z" />
    <glyph glyph-name="Agrave" unicode="&#xc0;" horiz-adv-x="676" 
d="M287 695h107l258 -695h-94l-54 151h-329l-55 -151h-97zM474 233l-134 374l-136 -374h270zM199 885l55 72l224 -190l-41 -49z" />
    <glyph glyph-name="Aacute" unicode="&#xc1;" horiz-adv-x="676" 
d="M287 695h107l258 -695h-94l-54 151h-329l-55 -151h-97zM474 233l-134 374l-136 -374h270zM198 789l227 129l53 -82l-240 -110z" />
    <glyph glyph-name="Acircumflex" unicode="&#xc2;" horiz-adv-x="676" 
d="M287 695h107l258 -695h-94l-54 151h-329l-55 -151h-97zM474 233l-134 374l-136 -374h270zM310 904h56l144 -180h-80l-88 109l-92 -109h-85z" />
    <glyph glyph-name="Atilde" unicode="&#xc3;" horiz-adv-x="676" 
d="M287 695h107l258 -695h-94l-54 151h-329l-55 -151h-97zM474 233l-134 374l-136 -374h270zM121 719q-8 48 2 86.5t38 61.5t73 23q33 0 56.5 -12t52.5 -35q23 -18 39.5 -27t36.5 -9q39 0 54 21.5t9 57.5h74q8 -51 -6.5 -88.5t-47 -58t-76.5 -20.5q-31 0 -54.5 12t-52.5 35
q-25 19 -41.5 28t-36.5 9q-29 0 -39.5 -20t-3.5 -64h-77z" />
    <glyph glyph-name="Adieresis" unicode="&#xc4;" horiz-adv-x="676" 
d="M287 695h107l258 -695h-94l-54 151h-329l-55 -151h-97zM474 233l-134 374l-136 -374h270zM413 765.5q-21 19.5 -21 47.5t20.5 47.5t52.5 19.5q33 0 55 -19.5t22 -47.5t-21 -47.5t-54 -19.5t-54 19.5zM155 765.5q-21 19.5 -21 47.5t20 47.5t52 19.5q33 0 54.5 -19.5
t21.5 -47.5t-21 -47.5t-53 -19.5t-53 19.5z" />
    <glyph glyph-name="Aring" unicode="&#xc5;" horiz-adv-x="676" 
d="M287 695h107l258 -695h-94l-54 151h-329l-55 -151h-97zM474 233l-134 374l-136 -374h270zM260 742.5q-35 18.5 -54.5 49.5t-19.5 69q0 37 19 69t53.5 50.5t78.5 18.5t79.5 -18t55.5 -48.5t20 -68.5q0 -37 -19.5 -69.5t-55 -51.5t-79.5 -19q-43 0 -78 18.5zM395.5 807.5
q20.5 21.5 19.5 53.5q2 33 -17 55t-57 22t-58 -22t-21 -55q-2 -32 18 -53.5t58 -21.5q37 0 57.5 21.5z" />
    <glyph glyph-name="AE" unicode="&#xc6;" horiz-adv-x="865" 
d="M389 695h414v-82h-304v-228h262v-86h-262v-213h305v-86h-386v151h-218l-80 -151h-97zM418 233v329l-174 -329h174z" />
    <glyph glyph-name="Ccedilla" unicode="&#xc7;" horiz-adv-x="706" 
d="M188 -198q93 -8 151 -5t81 17.5t16 42.5q-6 24 -37 28t-81 0l-23 -2l38 152l49 3l-15 -104q61 7 101 -10.5t50 -66.5q10 -55 -26 -88t-115.5 -43t-194.5 15zM189.5 28.5q-74.5 47.5 -115 129t-38.5 179.5q1 98 45 180t120.5 130t170.5 48q92 0 160.5 -42.5t103.5 -109
t32 -133.5h-84q-2 59 -28 106t-74 74t-114 27q-71 0 -126 -39t-85.5 -103t-32.5 -137q-3 -83 25 -146t82.5 -98t128.5 -35q57 0 104.5 25.5t77.5 71t36 103.5h90q-5 -66 -42.5 -130t-105.5 -106t-161 -42q-95 0 -169.5 47.5z" />
    <glyph glyph-name="Egrave" unicode="&#xc8;" horiz-adv-x="565" 
d="M58 695h446l-1 -82h-364v-228h323l-1 -86h-322v-213h365v-86h-446v695zM144 885l55 72l224 -190l-41 -49z" />
    <glyph glyph-name="Eacute" unicode="&#xc9;" horiz-adv-x="565" 
d="M58 695h446l-1 -82h-364v-228h323l-1 -86h-322v-213h365v-86h-446v695zM143 789l227 129l53 -82l-240 -110z" />
    <glyph glyph-name="Ecircumflex" unicode="&#xca;" horiz-adv-x="565" 
d="M58 695h446l-1 -82h-364v-228h323l-1 -86h-322v-213h365v-86h-446v695zM255 904h56l144 -180h-80l-88 109l-92 -109h-85z" />
    <glyph glyph-name="Edieresis" unicode="&#xcb;" horiz-adv-x="565" 
d="M58 695h446l-1 -82h-364v-228h323l-1 -86h-322v-213h365v-86h-446v695zM358 765.5q-21 19.5 -21 47.5t20.5 47.5t52.5 19.5q33 0 55 -19.5t22 -47.5t-21 -47.5t-54 -19.5t-54 19.5zM100 765.5q-21 19.5 -21 47.5t20 47.5t52 19.5q33 0 54.5 -19.5t21.5 -47.5t-21 -47.5
t-53 -19.5t-53 19.5z" />
    <glyph glyph-name="Igrave" unicode="&#xcc;" horiz-adv-x="228" 
d="M76 695h81v-695h-81v695zM-25 885l55 72l224 -190l-41 -49z" />
    <glyph glyph-name="Iacute" unicode="&#xcd;" horiz-adv-x="228" 
d="M76 695h81v-695h-81v695zM-26 789l227 129l53 -82l-240 -110z" />
    <glyph glyph-name="Icircumflex" unicode="&#xce;" horiz-adv-x="228" 
d="M76 695h81v-695h-81v695zM86 904h56l144 -180h-80l-88 109l-92 -109h-85z" />
    <glyph glyph-name="Idieresis" unicode="&#xcf;" horiz-adv-x="228" 
d="M76 695h81v-695h-81v695zM189 765.5q-21 19.5 -21 47.5t20.5 47.5t52.5 19.5q33 0 55 -19.5t22 -47.5t-21 -47.5t-54 -19.5t-54 19.5zM-69 765.5q-21 19.5 -21 47.5t20 47.5t52 19.5q33 0 54.5 -19.5t21.5 -47.5t-21 -47.5t-53 -19.5t-53 19.5z" />
    <glyph glyph-name="Eth" unicode="&#xd0;" horiz-adv-x="662" 
d="M3 397h317v-88h-317v88zM108 695h198q93 0 164.5 -49t110 -129t38.5 -170q0 -88 -38 -168t-110 -129.5t-169 -49.5h-220zM66 695h85v-695h-85v695zM305 78q72 0 125.5 40.5t81 106.5t24.5 139q-6 117 -68.5 185t-172.5 68h-161l12 -539h159z" />
    <glyph glyph-name="Ntilde" unicode="&#xd1;" horiz-adv-x="708" 
d="M148 561v-561h-82v695h82l414 -581v581h81v-695h-93zM138 719q-8 48 2 86.5t38 61.5t73 23q33 0 56.5 -12t52.5 -35q23 -18 39.5 -27t36.5 -9q39 0 54 21.5t9 57.5h74q8 -51 -6.5 -88.5t-47 -58t-76.5 -20.5q-31 0 -54.5 12t-52.5 35q-25 19 -41.5 28t-36.5 9
q-29 0 -39.5 -20t-3.5 -64h-77z" />
    <glyph glyph-name="Ograve" unicode="&#xd2;" horiz-adv-x="781" 
d="M199 28q-79 47 -122 128t-41 181q2 96 47.5 178t126.5 131t184 49q101 0 179.5 -46t121.5 -127.5t42 -184.5q-2 -97 -49 -178.5t-128 -129.5t-181 -48q-101 0 -180 47zM520 97q60 38 92.5 102t34.5 138q2 79 -28.5 142.5t-89.5 100.5t-140 37q-75 0 -135 -39.5
t-93.5 -104t-35.5 -136.5q-3 -82 27.5 -145t89.5 -98t138 -35q80 0 140 38zM252 885l55 72l224 -190l-41 -49z" />
    <glyph glyph-name="Oacute" unicode="&#xd3;" horiz-adv-x="781" 
d="M199 28q-79 47 -122 128t-41 181q2 96 47.5 178t126.5 131t184 49q101 0 179.5 -46t121.5 -127.5t42 -184.5q-2 -97 -49 -178.5t-128 -129.5t-181 -48q-101 0 -180 47zM520 97q60 38 92.5 102t34.5 138q2 79 -28.5 142.5t-89.5 100.5t-140 37q-75 0 -135 -39.5
t-93.5 -104t-35.5 -136.5q-3 -82 27.5 -145t89.5 -98t138 -35q80 0 140 38zM251 789l227 129l53 -82l-240 -110z" />
    <glyph glyph-name="Ocircumflex" unicode="&#xd4;" horiz-adv-x="781" 
d="M199 28q-79 47 -122 128t-41 181q2 96 47.5 178t126.5 131t184 49q101 0 179.5 -46t121.5 -127.5t42 -184.5q-2 -97 -49 -178.5t-128 -129.5t-181 -48q-101 0 -180 47zM520 97q60 38 92.5 102t34.5 138q2 79 -28.5 142.5t-89.5 100.5t-140 37q-75 0 -135 -39.5
t-93.5 -104t-35.5 -136.5q-3 -82 27.5 -145t89.5 -98t138 -35q80 0 140 38zM363 904h56l144 -180h-80l-88 109l-92 -109h-85z" />
    <glyph glyph-name="Otilde" unicode="&#xd5;" horiz-adv-x="781" 
d="M199 28q-79 47 -122 128t-41 181q2 96 47.5 178t126.5 131t184 49q101 0 179.5 -46t121.5 -127.5t42 -184.5q-2 -97 -49 -178.5t-128 -129.5t-181 -48q-101 0 -180 47zM520 97q60 38 92.5 102t34.5 138q2 79 -28.5 142.5t-89.5 100.5t-140 37q-75 0 -135 -39.5
t-93.5 -104t-35.5 -136.5q-3 -82 27.5 -145t89.5 -98t138 -35q80 0 140 38zM174 719q-8 48 2 86.5t38 61.5t73 23q33 0 56.5 -12t52.5 -35q23 -18 39.5 -27t36.5 -9q39 0 54 21.5t9 57.5h74q8 -51 -6.5 -88.5t-47 -58t-76.5 -20.5q-31 0 -54.5 12t-52.5 35q-25 19 -41.5 28
t-36.5 9q-29 0 -39.5 -20t-3.5 -64h-77z" />
    <glyph glyph-name="Odieresis" unicode="&#xd6;" horiz-adv-x="781" 
d="M199 28q-79 47 -122 128t-41 181q2 96 47.5 178t126.5 131t184 49q101 0 179.5 -46t121.5 -127.5t42 -184.5q-2 -97 -49 -178.5t-128 -129.5t-181 -48q-101 0 -180 47zM520 97q60 38 92.5 102t34.5 138q2 79 -28.5 142.5t-89.5 100.5t-140 37q-75 0 -135 -39.5
t-93.5 -104t-35.5 -136.5q-3 -82 27.5 -145t89.5 -98t138 -35q80 0 140 38zM466 765.5q-21 19.5 -21 47.5t20.5 47.5t52.5 19.5q33 0 55 -19.5t22 -47.5t-21 -47.5t-54 -19.5t-54 19.5zM208 765.5q-21 19.5 -21 47.5t20 47.5t52 19.5q33 0 54.5 -19.5t21.5 -47.5t-21 -47.5
t-53 -19.5t-53 19.5z" />
    <glyph glyph-name="multiply" unicode="&#xd7;" horiz-adv-x="587" 
d="M229 346l-198 207h109l137 -150l149 150h112l-212 -209l213 -206h-109l-150 151l-141 -151h-113z" />
    <glyph glyph-name="Oslash" unicode="&#xd8;" horiz-adv-x="781" 
d="M199 28q-79 47 -122 128t-41 181q2 96 47.5 178t126.5 131t184 49q101 0 179.5 -46t121.5 -127.5t42 -184.5q-2 -97 -49 -178.5t-128 -129.5t-181 -48q-101 0 -180 47zM520 97q60 38 92.5 102t34.5 138q2 79 -28.5 142.5t-89.5 100.5t-140 37q-75 0 -135 -39.5
t-93.5 -104t-35.5 -136.5q-3 -82 27.5 -145t89.5 -98t138 -35q80 0 140 38zM557 692h98l-420 -710h-97z" />
    <glyph glyph-name="Ugrave" unicode="&#xd9;" horiz-adv-x="732" 
d="M137 65q-83 84 -83 254v376h83v-375q0 -138 60 -199.5t169 -61.5q113 0 173 63.5t60 197.5v375h86v-382q0 -107 -38 -181.5t-110 -112.5t-173 -38q-144 0 -227 84zM227 885l55 72l224 -190l-41 -49z" />
    <glyph glyph-name="Uacute" unicode="&#xda;" horiz-adv-x="732" 
d="M137 65q-83 84 -83 254v376h83v-375q0 -138 60 -199.5t169 -61.5q113 0 173 63.5t60 197.5v375h86v-382q0 -107 -38 -181.5t-110 -112.5t-173 -38q-144 0 -227 84zM226 789l227 129l53 -82l-240 -110z" />
    <glyph glyph-name="Ucircumflex" unicode="&#xdb;" horiz-adv-x="732" 
d="M137 65q-83 84 -83 254v376h83v-375q0 -138 60 -199.5t169 -61.5q113 0 173 63.5t60 197.5v375h86v-382q0 -107 -38 -181.5t-110 -112.5t-173 -38q-144 0 -227 84zM338 904h56l144 -180h-80l-88 109l-92 -109h-85z" />
    <glyph glyph-name="Udieresis" unicode="&#xdc;" horiz-adv-x="732" 
d="M137 65q-83 84 -83 254v376h83v-375q0 -138 60 -199.5t169 -61.5q113 0 173 63.5t60 197.5v375h86v-382q0 -107 -38 -181.5t-110 -112.5t-173 -38q-144 0 -227 84zM441 765.5q-21 19.5 -21 47.5t20.5 47.5t52.5 19.5q33 0 55 -19.5t22 -47.5t-21 -47.5t-54 -19.5
t-54 19.5zM183 765.5q-21 19.5 -21 47.5t20 47.5t52 19.5q33 0 54.5 -19.5t21.5 -47.5t-21 -47.5t-53 -19.5t-53 19.5z" />
    <glyph glyph-name="Yacute" unicode="&#xdd;" horiz-adv-x="504" 
d="M199 209l-246 486h96l195 -389l218 389h98l-272 -483v-212h-89v209zM112 789l227 129l53 -82l-240 -110z" />
    <glyph glyph-name="Thorn" unicode="&#xde;" horiz-adv-x="641" 
d="M104 599h188q96 0 163 -32.5t101 -88t37 -123.5q1 -79 -37 -139t-112.5 -93.5t-181.5 -34.5h-167zM60 695h82v-695h-82v695zM268 166q59 0 113 18.5t88.5 61t29.5 110.5q-4 79 -57.5 122t-139.5 43h-176l-7 -355h149z" />
    <glyph glyph-name="germandbls" unicode="&#xdf;" horiz-adv-x="635" 
d="M59 493q1 70 31 126.5t86.5 89.5t134.5 33q90 0 151 -32.5t89 -87t25 -118.5q-1 -32 -19 -64t-46.5 -55t-58.5 -29q61 -10 94 -51t36 -97q3 -59 -22 -106.5t-73.5 -74.5t-116.5 -27h-152v78h141q65 0 102.5 32.5t40.5 93.5q2 52 -31.5 85t-97.5 33h-152v73h120
q67 0 108.5 35t42.5 93q3 60 -40.5 100.5t-129.5 40.5q-53 0 -94.5 -24t-64.5 -64t-23 -86v-552h-81v555z" />
    <glyph glyph-name="agrave" unicode="&#xe0;" horiz-adv-x="638" 
d="M166 18q-57 37 -89.5 101.5t-32.5 143.5q0 77 34.5 141t93.5 101t128 37q71 0 126 -37t85.5 -100.5t30.5 -141.5q0 -77 -33 -141.5t-90 -102.5t-127 -38q-69 0 -126 37zM403.5 86.5q44.5 26.5 71 72.5t26.5 103q0 58 -23 104t-64 72t-92 26q-52 0 -96.5 -26.5t-71 -73
t-26.5 -102.5q0 -58 23 -104t64 -72t93 -26q51 0 95.5 26.5zM500 523h82l1 -523h-81zM164 749l55 72l224 -190l-41 -49z" />
    <glyph glyph-name="aacute" unicode="&#xe1;" horiz-adv-x="638" 
d="M166 18q-57 37 -89.5 101.5t-32.5 143.5q0 77 34.5 141t93.5 101t128 37q71 0 126 -37t85.5 -100.5t30.5 -141.5q0 -77 -33 -141.5t-90 -102.5t-127 -38q-69 0 -126 37zM403.5 86.5q44.5 26.5 71 72.5t26.5 103q0 58 -23 104t-64 72t-92 26q-52 0 -96.5 -26.5t-71 -73
t-26.5 -102.5q0 -58 23 -104t64 -72t93 -26q51 0 95.5 26.5zM500 523h82l1 -523h-81zM213 641l227 129l53 -82l-240 -110z" />
    <glyph glyph-name="acircumflex" unicode="&#xe2;" horiz-adv-x="638" 
d="M166 18q-57 37 -89.5 101.5t-32.5 143.5q0 77 34.5 141t93.5 101t128 37q71 0 126 -37t85.5 -100.5t30.5 -141.5q0 -77 -33 -141.5t-90 -102.5t-127 -38q-69 0 -126 37zM403.5 86.5q44.5 26.5 71 72.5t26.5 103q0 58 -23 104t-64 72t-92 26q-52 0 -96.5 -26.5t-71 -73
t-26.5 -102.5q0 -58 23 -104t64 -72t93 -26q51 0 95.5 26.5zM500 523h82l1 -523h-81zM287 768h56l144 -180h-80l-88 109l-92 -109h-85z" />
    <glyph glyph-name="atilde" unicode="&#xe3;" horiz-adv-x="638" 
d="M166 18q-57 37 -89.5 101.5t-32.5 143.5q0 77 34.5 141t93.5 101t128 37q71 0 126 -37t85.5 -100.5t30.5 -141.5q0 -77 -33 -141.5t-90 -102.5t-127 -38q-69 0 -126 37zM403.5 86.5q44.5 26.5 71 72.5t26.5 103q0 58 -23 104t-64 72t-92 26q-52 0 -96.5 -26.5t-71 -73
t-26.5 -102.5q0 -58 23 -104t64 -72t93 -26q51 0 95.5 26.5zM500 523h82l1 -523h-81zM116 583q-8 48 2 86.5t38 61.5t73 23q33 0 56.5 -12t52.5 -35q23 -18 39.5 -27t36.5 -9q39 0 54 21.5t9 57.5h74q8 -51 -6.5 -88.5t-47 -58t-76.5 -20.5q-31 0 -54.5 12t-52.5 35
q-25 19 -41.5 28t-36.5 9q-29 0 -39.5 -20t-3.5 -64h-77z" />
    <glyph glyph-name="adieresis" unicode="&#xe4;" horiz-adv-x="638" 
d="M166 18q-57 37 -89.5 101.5t-32.5 143.5q0 77 34.5 141t93.5 101t128 37q71 0 126 -37t85.5 -100.5t30.5 -141.5q0 -77 -33 -141.5t-90 -102.5t-127 -38q-69 0 -126 37zM403.5 86.5q44.5 26.5 71 72.5t26.5 103q0 58 -23 104t-64 72t-92 26q-52 0 -96.5 -26.5t-71 -73
t-26.5 -102.5q0 -58 23 -104t64 -72t93 -26q51 0 95.5 26.5zM500 523h82l1 -523h-81zM393 629.5q-21 19.5 -21 47.5t20.5 47.5t52.5 19.5q33 0 55 -19.5t22 -47.5t-21 -47.5t-54 -19.5t-54 19.5zM135 629.5q-21 19.5 -21 47.5t20 47.5t52 19.5q33 0 54.5 -19.5t21.5 -47.5
t-21 -47.5t-53 -19.5t-53 19.5z" />
    <glyph glyph-name="aring" unicode="&#xe5;" horiz-adv-x="638" 
d="M166 18q-57 37 -89.5 101.5t-32.5 143.5q0 77 34.5 141t93.5 101t128 37q71 0 126 -37t85.5 -100.5t30.5 -141.5q0 -77 -33 -141.5t-90 -102.5t-127 -38q-69 0 -126 37zM403.5 86.5q44.5 26.5 71 72.5t26.5 103q0 58 -23 104t-64 72t-92 26q-52 0 -96.5 -26.5t-71 -73
t-26.5 -102.5q0 -58 23 -104t64 -72t93 -26q51 0 95.5 26.5zM500 523h82l1 -523h-81zM241 582.5q-35 18.5 -54.5 49.5t-19.5 69q0 37 19 69t53.5 50.5t78.5 18.5t79.5 -18t55.5 -48.5t20 -68.5q0 -37 -19.5 -69.5t-55 -51.5t-79.5 -19q-43 0 -78 18.5zM376.5 647.5
q20.5 21.5 19.5 53.5q2 33 -17 55t-57 22t-58 -22t-21 -55q-2 -32 18 -53.5t58 -21.5q37 0 57.5 21.5z" />
    <glyph glyph-name="ae" unicode="&#xe6;" horiz-adv-x="1066" 
d="M598 16.5q-61 35.5 -94 99.5t-31 146q1 77 36.5 141t97.5 101.5t138 37.5q93 0 154 -40.5t88.5 -104.5t25.5 -135q-1 -24 -6 -42h-449q5 -74 54.5 -116.5t132.5 -42.5q54 0 94.5 22.5t71.5 60.5l67 -42q-38 -56 -99.5 -88.5t-140.5 -32.5t-140 35.5zM407.5 105.5
q51.5 46.5 62.5 132.5h-211q-78 0 -110.5 -45t1 -89.5t120.5 -44.5q86 0 137.5 46.5zM70 62.5q-52 81.5 -0.5 163t181.5 81.5h218q0 68 -38 110.5t-121 42.5q-59 0 -97 -24t-63 -71l-84 37q34 63 97 101.5t149 38.5q78 0 132.5 -29t82 -79.5t24.5 -111.5l-9 -64
q-1 -81 -38 -144t-102 -98t-148 -35q-132 0 -184 81.5zM928 296q0 42 -19.5 80.5t-59 63t-95.5 24.5q-75 0 -126 -45t-66 -123h366z" />
    <glyph glyph-name="ccedilla" unicode="&#xe7;" horiz-adv-x="658" 
d="M164 -198q93 -8 151 -5t81 17.5t16 42.5q-6 24 -37 28t-81 0l-23 -2l38 152l49 3l-15 -104q61 7 101 -10.5t50 -66.5q10 -55 -26 -88t-115.5 -43t-194.5 15zM177 18q-64 37 -99.5 101t-34.5 143q2 75 40 139.5t103 102.5t146 38q70 0 128.5 -29t96 -79.5t47.5 -111.5h-78
q-7 37 -33 69.5t-67 52t-91 19.5q-61 0 -110 -28t-76.5 -74.5t-28.5 -98.5q0 -60 25 -105.5t72 -70.5t109 -25q76 0 129 42t72 107h72q-11 -66 -51 -118t-99.5 -81.5t-126.5 -29.5q-81 0 -145 37z" />
    <glyph glyph-name="egrave" unicode="&#xe8;" horiz-adv-x="640" 
d="M173 17q-64 36 -100.5 100t-34.5 145q1 77 40 141t104 101.5t142 37.5q93 0 156.5 -40.5t93.5 -105t28 -134.5q-2 -31 -6 -42h-471q4 -73 58.5 -116t139.5 -43q56 0 101.5 23.5t75.5 59.5l68 -42q-37 -55 -104 -88t-147 -33t-144 36zM518 296q0 41 -22.5 80t-65 63.5
t-98.5 24.5q-77 0 -133 -45.5t-72 -122.5h391zM165 749l55 72l224 -190l-41 -49z" />
    <glyph glyph-name="eacute" unicode="&#xe9;" horiz-adv-x="640" 
d="M173 17q-64 36 -100.5 100t-34.5 145q1 77 40 141t104 101.5t142 37.5q93 0 156.5 -40.5t93.5 -105t28 -134.5q-2 -31 -6 -42h-471q4 -73 58.5 -116t139.5 -43q56 0 101.5 23.5t75.5 59.5l68 -42q-37 -55 -104 -88t-147 -33t-144 36zM518 296q0 41 -22.5 80t-65 63.5
t-98.5 24.5q-77 0 -133 -45.5t-72 -122.5h391zM213 641l227 129l53 -82l-240 -110z" />
    <glyph glyph-name="ecircumflex" unicode="&#xea;" horiz-adv-x="640" 
d="M173 17q-64 36 -100.5 100t-34.5 145q1 77 40 141t104 101.5t142 37.5q93 0 156.5 -40.5t93.5 -105t28 -134.5q-2 -31 -6 -42h-471q4 -73 58.5 -116t139.5 -43q56 0 101.5 23.5t75.5 59.5l68 -42q-37 -55 -104 -88t-147 -33t-144 36zM518 296q0 41 -22.5 80t-65 63.5
t-98.5 24.5q-77 0 -133 -45.5t-72 -122.5h391zM288 768h56l144 -180h-80l-88 109l-92 -109h-85z" />
    <glyph glyph-name="edieresis" unicode="&#xeb;" horiz-adv-x="640" 
d="M173 17q-64 36 -100.5 100t-34.5 145q1 77 40 141t104 101.5t142 37.5q93 0 156.5 -40.5t93.5 -105t28 -134.5q-2 -31 -6 -42h-471q4 -73 58.5 -116t139.5 -43q56 0 101.5 23.5t75.5 59.5l68 -42q-37 -55 -104 -88t-147 -33t-144 36zM518 296q0 41 -22.5 80t-65 63.5
t-98.5 24.5q-77 0 -133 -45.5t-72 -122.5h391zM396 629.5q-21 19.5 -21 47.5t20.5 47.5t52.5 19.5q33 0 55 -19.5t22 -47.5t-21 -47.5t-54 -19.5t-54 19.5zM138 629.5q-21 19.5 -21 47.5t20 47.5t52 19.5q33 0 54.5 -19.5t21.5 -47.5t-21 -47.5t-53 -19.5t-53 19.5z" />
    <glyph glyph-name="igrave" unicode="&#xec;" horiz-adv-x="220" 
d="M68 523h83v-523h-83v523zM-45 749l55 72l224 -190l-41 -49z" />
    <glyph glyph-name="iacute" unicode="&#xed;" horiz-adv-x="220" 
d="M68 523h83v-523h-83v523zM5 641l227 129l53 -82l-240 -110z" />
    <glyph glyph-name="icircumflex" unicode="&#xee;" horiz-adv-x="220" 
d="M68 523h83v-523h-83v523zM81 768h50l127 -180h-70l-78 109l-82 -109h-75z" />
    <glyph glyph-name="idieresis" unicode="&#xef;" horiz-adv-x="220" 
d="M68 523h83v-523h-83v523zM186 629.5q-21 19.5 -21 47.5t20.5 47.5t52.5 19.5q33 0 55 -19.5t22 -47.5t-21 -47.5t-54 -19.5t-54 19.5zM-72 629.5q-21 19.5 -21 47.5t20 47.5t52 19.5q33 0 54.5 -19.5t21.5 -47.5t-21 -47.5t-53 -19.5t-53 19.5z" />
    <glyph glyph-name="eth" unicode="&#xf0;" horiz-adv-x="689" 
d="M186 20q-71 39 -110 108t-33 154q8 100 77 163t168.5 76t193.5 -28q-101 129 -348 255h136q125 -68 210 -149t126.5 -165t43.5 -165t-35 -146.5t-107.5 -103.5t-163.5 -38q-87 0 -158 39zM462 84q50 26 77.5 71.5t30.5 102.5q2 55 -22.5 100.5t-73 71.5t-115.5 26
t-119.5 -25.5t-82 -71t-31.5 -101.5t25 -101.5t78 -72t117 -26.5t116 26zM112 628l453 136l35 -60l-445 -136z" />
    <glyph glyph-name="ntilde" unicode="&#xf1;" horiz-adv-x="623" 
d="M478 328q0 61 -32 98.5t-92 37.5q-57 0 -104 -27.5t-75 -78.5t-30 -120l-41 13q2 87 38.5 153t95 102t124.5 36q97 0 147 -59.5t50 -177.5v-305h-81v328zM64 523h81v-523h-81v523zM109 583q-8 48 2 86.5t38 61.5t73 23q33 0 56.5 -12t52.5 -35q23 -18 39.5 -27t36.5 -9
q39 0 54 21.5t9 57.5h74q8 -51 -6.5 -88.5t-47 -58t-76.5 -20.5q-31 0 -54.5 12t-52.5 35q-25 19 -41.5 28t-36.5 9q-29 0 -39.5 -20t-3.5 -64h-77z" />
    <glyph glyph-name="ograve" unicode="&#xf2;" horiz-adv-x="660" 
d="M186.5 18.5q-66.5 37.5 -105 102t-39.5 141.5q0 78 38 142t103.5 101t146.5 37q85 0 151 -37t103 -101t38 -142q0 -77 -38 -141.5t-104 -102t-146 -37.5q-81 0 -147.5 37.5zM433.5 88q47.5 27 75 73t27.5 101q1 57 -24 103t-71 72.5t-105 26.5t-106.5 -26.5t-75 -73
t-28.5 -102.5t24.5 -102t72 -72.5t105.5 -26.5q58 0 105.5 27zM175 749l55 72l224 -190l-41 -49z" />
    <glyph glyph-name="oacute" unicode="&#xf3;" horiz-adv-x="660" 
d="M186.5 18.5q-66.5 37.5 -105 102t-39.5 141.5q0 78 38 142t103.5 101t146.5 37q85 0 151 -37t103 -101t38 -142q0 -77 -38 -141.5t-104 -102t-146 -37.5q-81 0 -147.5 37.5zM433.5 88q47.5 27 75 73t27.5 101q1 57 -24 103t-71 72.5t-105 26.5t-106.5 -26.5t-75 -73
t-28.5 -102.5t24.5 -102t72 -72.5t105.5 -26.5q58 0 105.5 27zM224 641l227 129l53 -82l-240 -110z" />
    <glyph glyph-name="ocircumflex" unicode="&#xf4;" horiz-adv-x="660" 
d="M186.5 18.5q-66.5 37.5 -105 102t-39.5 141.5q0 78 38 142t103.5 101t146.5 37q85 0 151 -37t103 -101t38 -142q0 -77 -38 -141.5t-104 -102t-146 -37.5q-81 0 -147.5 37.5zM433.5 88q47.5 27 75 73t27.5 101q1 57 -24 103t-71 72.5t-105 26.5t-106.5 -26.5t-75 -73
t-28.5 -102.5t24.5 -102t72 -72.5t105.5 -26.5q58 0 105.5 27zM298 768h56l144 -180h-80l-88 109l-92 -109h-85z" />
    <glyph glyph-name="otilde" unicode="&#xf5;" horiz-adv-x="660" 
d="M186.5 18.5q-66.5 37.5 -105 102t-39.5 141.5q0 78 38 142t103.5 101t146.5 37q85 0 151 -37t103 -101t38 -142q0 -77 -38 -141.5t-104 -102t-146 -37.5q-81 0 -147.5 37.5zM433.5 88q47.5 27 75 73t27.5 101q1 57 -24 103t-71 72.5t-105 26.5t-106.5 -26.5t-75 -73
t-28.5 -102.5t24.5 -102t72 -72.5t105.5 -26.5q58 0 105.5 27zM127 583q-8 48 2 86.5t38 61.5t73 23q33 0 56.5 -12t52.5 -35q23 -18 39.5 -27t36.5 -9q39 0 54 21.5t9 57.5h74q8 -51 -6.5 -88.5t-47 -58t-76.5 -20.5q-31 0 -54.5 12t-52.5 35q-25 19 -41.5 28t-36.5 9
q-29 0 -39.5 -20t-3.5 -64h-77z" />
    <glyph glyph-name="odieresis" unicode="&#xf6;" horiz-adv-x="660" 
d="M186.5 18.5q-66.5 37.5 -105 102t-39.5 141.5q0 78 38 142t103.5 101t146.5 37q85 0 151 -37t103 -101t38 -142q0 -77 -38 -141.5t-104 -102t-146 -37.5q-81 0 -147.5 37.5zM433.5 88q47.5 27 75 73t27.5 101q1 57 -24 103t-71 72.5t-105 26.5t-106.5 -26.5t-75 -73
t-28.5 -102.5t24.5 -102t72 -72.5t105.5 -26.5q58 0 105.5 27zM405 629.5q-21 19.5 -21 47.5t20.5 47.5t52.5 19.5q33 0 55 -19.5t22 -47.5t-21 -47.5t-54 -19.5t-54 19.5zM147 629.5q-21 19.5 -21 47.5t20 47.5t52 19.5q33 0 54.5 -19.5t21.5 -47.5t-21 -47.5t-53 -19.5
t-53 19.5z" />
    <glyph glyph-name="divide" unicode="&#xf7;" horiz-adv-x="592" 
d="M61 385h449v-80h-449v80zM242 100.5q-22 20.5 -22 48.5q0 29 22 49t54 20q33 0 55.5 -20t22.5 -49q0 -28 -22.5 -48.5t-55.5 -20.5q-32 0 -54 20.5zM242 484.5q-22 20.5 -22 48.5q0 29 22 49t54 20q33 0 55.5 -20t22.5 -49q0 -28 -22.5 -48.5t-55.5 -20.5q-32 0 -54 20.5
z" />
    <glyph glyph-name="oslash" unicode="&#xf8;" horiz-adv-x="660" 
d="M186.5 18.5q-66.5 37.5 -105 102t-39.5 141.5q0 78 38 142t103.5 101t146.5 37q85 0 151 -37t103 -101t38 -142q0 -77 -38 -141.5t-104 -102t-146 -37.5q-81 0 -147.5 37.5zM433.5 88q47.5 27 75 73t27.5 101q1 57 -24 103t-71 72.5t-105 26.5t-106.5 -26.5t-75 -73
t-28.5 -102.5t24.5 -102t72 -72.5t105.5 -26.5q58 0 105.5 27zM502 572h98l-420 -599h-97z" />
    <glyph glyph-name="ugrave" unicode="&#xf9;" horiz-adv-x="623" 
d="M114 40.5q-50 59.5 -50 177.5v305h81v-327q0 -61 32 -99t92 -38q57 0 104 27.5t75 79t30 120.5l40 -14q-2 -87 -38.5 -153t-95 -102t-124.5 -36q-96 0 -146 59.5zM478 523h81v-523h-81v523zM157 749l55 72l224 -190l-41 -49z" />
    <glyph glyph-name="uacute" unicode="&#xfa;" horiz-adv-x="623" 
d="M114 40.5q-50 59.5 -50 177.5v305h81v-327q0 -61 32 -99t92 -38q57 0 104 27.5t75 79t30 120.5l40 -14q-2 -87 -38.5 -153t-95 -102t-124.5 -36q-96 0 -146 59.5zM478 523h81v-523h-81v523zM206 641l227 129l53 -82l-240 -110z" />
    <glyph glyph-name="ucircumflex" unicode="&#xfb;" horiz-adv-x="623" 
d="M114 40.5q-50 59.5 -50 177.5v305h81v-327q0 -61 32 -99t92 -38q57 0 104 27.5t75 79t30 120.5l40 -14q-2 -87 -38.5 -153t-95 -102t-124.5 -36q-96 0 -146 59.5zM478 523h81v-523h-81v523zM280 768h56l144 -180h-80l-88 109l-92 -109h-85z" />
    <glyph glyph-name="udieresis" unicode="&#xfc;" horiz-adv-x="623" 
d="M114 40.5q-50 59.5 -50 177.5v305h81v-327q0 -61 32 -99t92 -38q57 0 104 27.5t75 79t30 120.5l40 -14q-2 -87 -38.5 -153t-95 -102t-124.5 -36q-96 0 -146 59.5zM478 523h81v-523h-81v523zM387 629.5q-21 19.5 -21 47.5t20.5 47.5t52.5 19.5q33 0 55 -19.5t22 -47.5
t-21 -47.5t-54 -19.5t-54 19.5zM129 629.5q-21 19.5 -21 47.5t20 47.5t52 19.5q33 0 54.5 -19.5t21.5 -47.5t-21 -47.5t-53 -19.5t-53 19.5z" />
    <glyph glyph-name="yacute" unicode="&#xfd;" horiz-adv-x="623" 
d="M114 40.5q-50 59.5 -50 177.5v305h81v-327q0 -61 32 -99t92 -38q57 0 104 27.5t75 79t30 120.5l40 -14q-2 -87 -38.5 -153t-95 -102t-124.5 -36q-96 0 -146 59.5zM478 523h81v-746h-81v746zM206 641l227 129l53 -82l-240 -110z" />
    <glyph glyph-name="thorn" unicode="&#xfe;" horiz-adv-x="643" 
d="M213.5 18q-55.5 37 -86 100.5t-30.5 141.5q0 77 33 141.5t90.5 102.5t127.5 38q69 0 125.5 -37t89 -101.5t32.5 -143.5q0 -77 -34.5 -141t-93 -101t-127.5 -37q-71 0 -126.5 37zM56 746h82l1 -969h-81zM413.5 85.5q44.5 26.5 71 73t26.5 103.5q0 58 -23 103.5t-64 71.5
t-93 26q-51 0 -95.5 -26t-71 -72.5t-26.5 -102.5q0 -58 23.5 -104.5t64.5 -72.5t92 -26t95.5 26.5z" />
    <glyph glyph-name="ydieresis" unicode="&#xff;" horiz-adv-x="623" 
d="M114 40.5q-50 59.5 -50 177.5v305h81v-327q0 -61 32 -99t92 -38q57 0 104 27.5t75 79t30 120.5l40 -14q-2 -87 -38.5 -153t-95 -102t-124.5 -36q-96 0 -146 59.5zM478 523h81v-746h-81v746zM387 629.5q-21 19.5 -21 47.5t20.5 47.5t52.5 19.5q33 0 55 -19.5t22 -47.5
t-21 -47.5t-54 -19.5t-54 19.5zM129 629.5q-21 19.5 -21 47.5t20 47.5t52 19.5q33 0 54.5 -19.5t21.5 -47.5t-21 -47.5t-53 -19.5t-53 19.5z" />
    <glyph glyph-name="Amacron" unicode="&#x100;" horiz-adv-x="676" 
d="M287 695h107l258 -695h-94l-54 151h-329l-55 -151h-97zM474 233l-134 374l-136 -374h270zM136 845h401v-80h-401v80z" />
    <glyph glyph-name="amacron" unicode="&#x101;" horiz-adv-x="638" 
d="M166 18q-57 37 -89.5 101.5t-32.5 143.5q0 77 34.5 141t93.5 101t128 37q71 0 126 -37t85.5 -100.5t30.5 -141.5q0 -77 -33 -141.5t-90 -102.5t-127 -38q-69 0 -126 37zM403.5 86.5q44.5 26.5 71 72.5t26.5 103q0 58 -23 104t-64 72t-92 26q-52 0 -96.5 -26.5t-71 -73
t-26.5 -102.5q0 -58 23 -104t64 -72t93 -26q51 0 95.5 26.5zM500 523h82l1 -523h-81zM117 709h401v-80h-401v80z" />
    <glyph glyph-name="Abreve" unicode="&#x102;" horiz-adv-x="676" 
d="M287 695h107l258 -695h-94l-54 151h-329l-55 -151h-97zM474 233l-134 374l-136 -374h270zM239.5 754q-39.5 18 -59 49t-19.5 70h76q-3 -35 19 -55t81 -20q58 0 80 20t21 55h77q1 -39 -18.5 -70t-60 -49t-99.5 -18q-58 0 -97.5 18z" />
    <glyph glyph-name="abreve" unicode="&#x103;" horiz-adv-x="638" 
d="M166 18q-57 37 -89.5 101.5t-32.5 143.5q0 77 34.5 141t93.5 101t128 37q71 0 126 -37t85.5 -100.5t30.5 -141.5q0 -77 -33 -141.5t-90 -102.5t-127 -38q-69 0 -126 37zM403.5 86.5q44.5 26.5 71 72.5t26.5 103q0 58 -23 104t-64 72t-92 26q-52 0 -96.5 -26.5t-71 -73
t-26.5 -102.5q0 -58 23 -104t64 -72t93 -26q51 0 95.5 26.5zM500 523h82l1 -523h-81zM222.5 618q-39.5 18 -59 49t-19.5 70h76q-3 -35 19 -55t81 -20q58 0 80 20t21 55h77q1 -39 -18.5 -70t-60 -49t-99.5 -18q-58 0 -97.5 18z" />
    <glyph glyph-name="Aogonek" unicode="&#x104;" horiz-adv-x="676" 
d="M694 -266q-144 -29 -212.5 -17.5t-93.5 55.5q-19 33 -3.5 76.5t66.5 91.5t136 95q32 6 43.5 -5t6.5 -30q-89 -47 -140.5 -98t-28.5 -89q17 -27 69.5 -27.5t117.5 17.5zM287 695h107l258 -695h-94l-54 151h-329l-55 -151h-97zM474 233l-134 374l-136 -374h270z" />
    <glyph glyph-name="aogonek" unicode="&#x105;" horiz-adv-x="638" 
d="M631 -266q-144 -29 -212.5 -17.5t-93.5 55.5q-19 33 -3.5 76.5t66.5 91.5t136 95q32 6 43.5 -5t6.5 -30q-89 -47 -140.5 -98t-28.5 -89q17 -27 69.5 -27.5t117.5 17.5zM166 18q-57 37 -89.5 101.5t-32.5 143.5q0 77 34.5 141t93.5 101t128 37q71 0 126 -37t85.5 -100.5
t30.5 -141.5q0 -77 -33 -141.5t-90 -102.5t-127 -38q-69 0 -126 37zM403.5 86.5q44.5 26.5 71 72.5t26.5 103q0 58 -23 104t-64 72t-92 26q-52 0 -96.5 -26.5t-71 -73t-26.5 -102.5q0 -58 23 -104t64 -72t93 -26q51 0 95.5 26.5zM500 523h82l1 -523h-81z" />
    <glyph glyph-name="Cacute" unicode="&#x106;" horiz-adv-x="706" 
d="M189.5 28.5q-74.5 47.5 -115 129t-38.5 179.5q1 98 45 180t120.5 130t170.5 48q92 0 160.5 -42.5t103.5 -109t32 -133.5h-84q-2 59 -28 106t-74 74t-114 27q-71 0 -126 -39t-85.5 -103t-32.5 -137q-3 -83 25 -146t82.5 -98t128.5 -35q57 0 104.5 25.5t77.5 71t36 103.5
h90q-5 -66 -42.5 -130t-105.5 -106t-161 -42q-95 0 -169.5 47.5zM212 789l227 129l53 -82l-240 -110z" />
    <glyph glyph-name="cacute" unicode="&#x107;" horiz-adv-x="658" 
d="M177 18q-64 37 -99.5 101t-34.5 143q2 75 40 139.5t103 102.5t146 38q70 0 128.5 -29t96 -79.5t47.5 -111.5h-78q-7 37 -33 69.5t-67 52t-91 19.5q-61 0 -110 -28t-76.5 -74.5t-28.5 -98.5q0 -60 25 -105.5t72 -70.5t109 -25q76 0 129 42t72 107h72q-11 -66 -51 -118
t-99.5 -81.5t-126.5 -29.5q-81 0 -145 37zM223 641l227 129l53 -82l-240 -110z" />
    <glyph glyph-name="Ccircumflex" unicode="&#x108;" horiz-adv-x="706" 
d="M189.5 28.5q-74.5 47.5 -115 129t-38.5 179.5q1 98 45 180t120.5 130t170.5 48q92 0 160.5 -42.5t103.5 -109t32 -133.5h-84q-2 59 -28 106t-74 74t-114 27q-71 0 -126 -39t-85.5 -103t-32.5 -137q-3 -83 25 -146t82.5 -98t128.5 -35q57 0 104.5 25.5t77.5 71t36 103.5
h90q-5 -66 -42.5 -130t-105.5 -106t-161 -42q-95 0 -169.5 47.5zM324 904h56l144 -180h-80l-88 109l-92 -109h-85z" />
    <glyph glyph-name="ccircumflex" unicode="&#x109;" horiz-adv-x="658" 
d="M177 18q-64 37 -99.5 101t-34.5 143q2 75 40 139.5t103 102.5t146 38q70 0 128.5 -29t96 -79.5t47.5 -111.5h-78q-7 37 -33 69.5t-67 52t-91 19.5q-61 0 -110 -28t-76.5 -74.5t-28.5 -98.5q0 -60 25 -105.5t72 -70.5t109 -25q76 0 129 42t72 107h72q-11 -66 -51 -118
t-99.5 -81.5t-126.5 -29.5q-81 0 -145 37zM295 768h56l144 -180h-80l-88 109l-92 -109h-85z" />
    <glyph glyph-name="Cdotaccent" unicode="&#x10a;" horiz-adv-x="706" 
d="M189.5 28.5q-74.5 47.5 -115 129t-38.5 179.5q1 98 45 180t120.5 130t170.5 48q92 0 160.5 -42.5t103.5 -109t32 -133.5h-84q-2 59 -28 106t-74 74t-114 27q-71 0 -126 -39t-85.5 -103t-32.5 -137q-3 -83 25 -146t82.5 -98t128.5 -35q57 0 104.5 25.5t77.5 71t36 103.5
h90q-5 -66 -42.5 -130t-105.5 -106t-161 -42q-95 0 -169.5 47.5zM299 765.5q-21 19.5 -21 47.5t20 47.5t52 19.5q33 0 54.5 -19.5t21.5 -47.5t-21 -47.5t-53 -19.5t-53 19.5z" />
    <glyph glyph-name="cdotaccent" unicode="&#x10b;" horiz-adv-x="658" 
d="M177 18q-64 37 -99.5 101t-34.5 143q2 75 40 139.5t103 102.5t146 38q70 0 128.5 -29t96 -79.5t47.5 -111.5h-78q-7 37 -33 69.5t-67 52t-91 19.5q-61 0 -110 -28t-76.5 -74.5t-28.5 -98.5q0 -60 25 -105.5t72 -70.5t109 -25q76 0 129 42t72 107h72q-11 -66 -51 -118
t-99.5 -81.5t-126.5 -29.5q-81 0 -145 37zM276 629.5q-21 19.5 -21 47.5t20 47.5t52 19.5q33 0 54.5 -19.5t21.5 -47.5t-21 -47.5t-53 -19.5t-53 19.5z" />
    <glyph glyph-name="Ccaron" unicode="&#x10c;" horiz-adv-x="706" 
d="M189.5 28.5q-74.5 47.5 -115 129t-38.5 179.5q1 98 45 180t120.5 130t170.5 48q92 0 160.5 -42.5t103.5 -109t32 -133.5h-84q-2 59 -28 106t-74 74t-114 27q-71 0 -126 -39t-85.5 -103t-32.5 -137q-3 -83 25 -146t82.5 -98t128.5 -35q57 0 104.5 25.5t77.5 71t36 103.5
h90q-5 -66 -42.5 -130t-105.5 -106t-161 -42q-95 0 -169.5 47.5zM180 900h80l85 -109l94 109h86l-146 -180h-56z" />
    <glyph glyph-name="ccaron" unicode="&#x10d;" horiz-adv-x="658" 
d="M177 18q-64 37 -99.5 101t-34.5 143q2 75 40 139.5t103 102.5t146 38q70 0 128.5 -29t96 -79.5t47.5 -111.5h-78q-7 37 -33 69.5t-67 52t-91 19.5q-61 0 -110 -28t-76.5 -74.5t-28.5 -98.5q0 -60 25 -105.5t72 -70.5t109 -25q76 0 129 42t72 107h72q-11 -66 -51 -118
t-99.5 -81.5t-126.5 -29.5q-81 0 -145 37zM156 764h80l85 -109l94 109h86l-146 -180h-56z" />
    <glyph glyph-name="Dcaron" unicode="&#x10e;" horiz-adv-x="662" 
d="M108 695h198q93 0 164.5 -49t110 -129t38.5 -170q0 -88 -38 -168t-110 -129.5t-169 -49.5h-220zM66 695h85v-695h-85v695zM305 78q72 0 125.5 40.5t81 106.5t24.5 139q-6 117 -68.5 185t-172.5 68h-161l12 -539h159zM159 900h80l85 -109l94 109h86l-146 -180h-56z" />
    <glyph glyph-name="dcaron" unicode="&#x10f;" horiz-adv-x="635" 
d="M166 18q-57 37 -89.5 101.5t-32.5 143.5q0 77 34.5 141t93.5 101t128 37q71 0 126 -37t85.5 -100.5t30.5 -141.5q0 -77 -33 -141.5t-90 -102.5t-127 -38q-69 0 -126 37zM403.5 86.5q44.5 26.5 71.5 72.5t27 103q0 58 -23.5 104t-64.5 72t-92 26q-52 0 -96.5 -26.5
t-71 -73t-26.5 -102.5q0 -58 23 -104t64 -72t93 -26q51 0 95.5 26.5zM500 746h82l1 -746h-81zM105 819h80l85 -109l94 109h86l-146 -180h-56z" />
    <glyph glyph-name="Dcroat" unicode="&#x110;" horiz-adv-x="662" 
d="M3 397h317v-88h-317v88zM108 695h198q93 0 164.5 -49t110 -129t38.5 -170q0 -88 -38 -168t-110 -129.5t-169 -49.5h-220zM66 695h85v-695h-85v695zM305 78q72 0 125.5 40.5t81 106.5t24.5 139q-6 117 -68.5 185t-172.5 68h-161l12 -539h159z" />
    <glyph glyph-name="dcroat" unicode="&#x111;" horiz-adv-x="635" 
d="M166 18q-57 37 -89.5 101.5t-32.5 143.5q0 77 34.5 141t93.5 101t128 37q71 0 126 -37t85.5 -100.5t30.5 -141.5q0 -77 -33 -141.5t-90 -102.5t-127 -38q-69 0 -126 37zM403.5 86.5q44.5 26.5 71.5 72.5t27 103q0 58 -23.5 104t-64.5 72t-92 26q-52 0 -96.5 -26.5
t-71 -73t-26.5 -102.5q0 -58 23 -104t64 -72t93 -26q51 0 95.5 26.5zM500 746h82l1 -746h-81zM298 689h401v-80h-401v80z" />
    <glyph glyph-name="Emacron" unicode="&#x112;" horiz-adv-x="565" 
d="M58 695h446l-1 -82h-364v-228h323l-1 -86h-322v-213h365v-86h-446v695zM81 845h401v-80h-401v80z" />
    <glyph glyph-name="emacron" unicode="&#x113;" horiz-adv-x="640" 
d="M173 17q-64 36 -100.5 100t-34.5 145q1 77 40 141t104 101.5t142 37.5q93 0 156.5 -40.5t93.5 -105t28 -134.5q-2 -31 -6 -42h-471q4 -73 58.5 -116t139.5 -43q56 0 101.5 23.5t75.5 59.5l68 -42q-37 -55 -104 -88t-147 -33t-144 36zM518 296q0 41 -22.5 80t-65 63.5
t-98.5 24.5q-77 0 -133 -45.5t-72 -122.5h391zM118 709h401v-80h-401v80z" />
    <glyph glyph-name="Ebreve" unicode="&#x114;" horiz-adv-x="565" 
d="M58 695h446l-1 -82h-364v-228h323l-1 -86h-322v-213h365v-86h-446v695zM184.5 754q-39.5 18 -59 49t-19.5 70h76q-3 -35 19 -55t81 -20q58 0 80 20t21 55h77q1 -39 -18.5 -70t-60 -49t-99.5 -18q-58 0 -97.5 18z" />
    <glyph glyph-name="ebreve" unicode="&#x115;" horiz-adv-x="640" 
d="M173 17q-64 36 -100.5 100t-34.5 145q1 77 40 141t104 101.5t142 37.5q93 0 156.5 -40.5t93.5 -105t28 -134.5q-2 -31 -6 -42h-471q4 -73 58.5 -116t139.5 -43q56 0 101.5 23.5t75.5 59.5l68 -42q-37 -55 -104 -88t-147 -33t-144 36zM518 296q0 41 -22.5 80t-65 63.5
t-98.5 24.5q-77 0 -133 -45.5t-72 -122.5h391zM223.5 618q-39.5 18 -59 49t-19.5 70h76q-3 -35 19 -55t81 -20q58 0 80 20t21 55h77q1 -39 -18.5 -70t-60 -49t-99.5 -18q-58 0 -97.5 18z" />
    <glyph glyph-name="Edotaccent" unicode="&#x116;" horiz-adv-x="565" 
d="M58 695h446l-1 -82h-364v-228h323l-1 -86h-322v-213h365v-86h-446v695zM230 765.5q-21 19.5 -21 47.5t20 47.5t52 19.5q33 0 54.5 -19.5t21.5 -47.5t-21 -47.5t-53 -19.5t-53 19.5z" />
    <glyph glyph-name="edotaccent" unicode="&#x117;" horiz-adv-x="640" 
d="M173 17q-64 36 -100.5 100t-34.5 145q1 77 40 141t104 101.5t142 37.5q93 0 156.5 -40.5t93.5 -105t28 -134.5q-2 -31 -6 -42h-471q4 -73 58.5 -116t139.5 -43q56 0 101.5 23.5t75.5 59.5l68 -42q-37 -55 -104 -88t-147 -33t-144 36zM518 296q0 41 -22.5 80t-65 63.5
t-98.5 24.5q-77 0 -133 -45.5t-72 -122.5h391zM267 629.5q-21 19.5 -21 47.5t20 47.5t52 19.5q33 0 54.5 -19.5t21.5 -47.5t-21 -47.5t-53 -19.5t-53 19.5z" />
    <glyph glyph-name="Eogonek" unicode="&#x118;" horiz-adv-x="565" 
d="M410 -266q-144 -29 -212.5 -17.5t-93.5 55.5q-19 33 -3.5 76.5t66.5 91.5t136 95q32 6 43.5 -5t6.5 -30q-89 -47 -140.5 -98t-28.5 -89q17 -27 69.5 -27.5t117.5 17.5zM58 695h446l-1 -82h-364v-228h323l-1 -86h-322v-213h365v-86h-446v695z" />
    <glyph glyph-name="eogonek" unicode="&#x119;" horiz-adv-x="640" 
d="M447 -266q-144 -29 -212.5 -17.5t-93.5 55.5q-19 33 -3.5 76.5t66.5 91.5t136 95q32 6 43.5 -5t6.5 -30q-89 -47 -140.5 -98t-28.5 -89q17 -27 69.5 -27.5t117.5 17.5zM173 17q-64 36 -100.5 100t-34.5 145q1 77 40 141t104 101.5t142 37.5q93 0 156.5 -40.5t93.5 -105
t28 -134.5q-2 -31 -6 -42h-471q4 -73 58.5 -116t139.5 -43q56 0 101.5 23.5t75.5 59.5l68 -42q-37 -55 -104 -88t-147 -33t-144 36zM518 296q0 41 -22.5 80t-65 63.5t-98.5 24.5q-77 0 -133 -45.5t-72 -122.5h391z" />
    <glyph glyph-name="Ecaron" unicode="&#x11a;" horiz-adv-x="565" 
d="M58 695h446l-1 -82h-364v-228h323l-1 -86h-322v-213h365v-86h-446v695zM111 900h80l85 -109l94 109h86l-146 -180h-56z" />
    <glyph glyph-name="ecaron" unicode="&#x11b;" horiz-adv-x="640" 
d="M173 17q-64 36 -100.5 100t-34.5 145q1 77 40 141t104 101.5t142 37.5q93 0 156.5 -40.5t93.5 -105t28 -134.5q-2 -31 -6 -42h-471q4 -73 58.5 -116t139.5 -43q56 0 101.5 23.5t75.5 59.5l68 -42q-37 -55 -104 -88t-147 -33t-144 36zM518 296q0 41 -22.5 80t-65 63.5
t-98.5 24.5q-77 0 -133 -45.5t-72 -122.5h391zM148 764h80l85 -109l94 109h86l-146 -180h-56z" />
    <glyph glyph-name="Gcircumflex" unicode="&#x11c;" horiz-adv-x="758" 
d="M199 28.5q-79 47.5 -122 130t-41 182.5q2 95 48.5 176.5t127.5 129.5t182 48q93 0 161.5 -39.5t107 -99.5t46.5 -120h-89q-8 44 -36 85.5t-77.5 68.5t-117.5 27q-76 0 -135.5 -36.5t-92.5 -99.5t-36 -140q-3 -83 28.5 -147t90.5 -99.5t136 -35.5q65 0 121 29.5t92 82
t43 119.5h88q-7 -81 -50.5 -151.5t-119 -114t-175.5 -43.5q-101 0 -180 47.5zM373 340h351v-50l-70 -28h-281v78zM351 904h56l144 -180h-80l-88 109l-92 -109h-85z" />
    <glyph glyph-name="gcircumflex" unicode="&#x11d;" horiz-adv-x="624" 
d="M189.5 -244q-60.5 38 -100.5 112l71 32q28 -49 70.5 -77t88.5 -28q79 0 123.5 55.5t45.5 149.5v523h80v-519q-1 -87 -32 -151.5t-86.5 -99.5t-127.5 -35t-132.5 38zM158.5 19q-54.5 38 -84.5 103t-28 141q2 77 37 141t92.5 101t124.5 37t120 -37t82 -101t27 -141
t-36 -141.5t-90.5 -102.5t-122.5 -38q-67 0 -121.5 38zM393 86q42 26 68 72t27 104q2 57 -20.5 103.5t-62.5 72.5t-89 26t-91 -26.5t-68 -73t-27 -102.5q-2 -57 20 -103t62.5 -72.5t89.5 -26.5t91 26zM280 768h56l144 -180h-80l-88 109l-92 -109h-85z" />
    <glyph glyph-name="Gbreve" unicode="&#x11e;" horiz-adv-x="758" 
d="M199 28.5q-79 47.5 -122 130t-41 182.5q2 95 48.5 176.5t127.5 129.5t182 48q93 0 161.5 -39.5t107 -99.5t46.5 -120h-89q-8 44 -36 85.5t-77.5 68.5t-117.5 27q-76 0 -135.5 -36.5t-92.5 -99.5t-36 -140q-3 -83 28.5 -147t90.5 -99.5t136 -35.5q65 0 121 29.5t92 82
t43 119.5h88q-7 -81 -50.5 -151.5t-119 -114t-175.5 -43.5q-101 0 -180 47.5zM373 340h351v-50l-70 -28h-281v78zM280.5 754q-39.5 18 -59 49t-19.5 70h76q-3 -35 19 -55t81 -20q58 0 80 20t21 55h77q1 -39 -18.5 -70t-60 -49t-99.5 -18q-58 0 -97.5 18z" />
    <glyph glyph-name="gbreve" unicode="&#x11f;" horiz-adv-x="624" 
d="M189.5 -244q-60.5 38 -100.5 112l71 32q28 -49 70.5 -77t88.5 -28q79 0 123.5 55.5t45.5 149.5v523h80v-519q-1 -87 -32 -151.5t-86.5 -99.5t-127.5 -35t-132.5 38zM158.5 19q-54.5 38 -84.5 103t-28 141q2 77 37 141t92.5 101t124.5 37t120 -37t82 -101t27 -141
t-36 -141.5t-90.5 -102.5t-122.5 -38q-67 0 -121.5 38zM393 86q42 26 68 72t27 104q2 57 -20.5 103.5t-62.5 72.5t-89 26t-91 -26.5t-68 -73t-27 -102.5q-2 -57 20 -103t62.5 -72.5t89.5 -26.5t91 26zM215.5 618q-39.5 18 -59 49t-19.5 70h76q-3 -35 19 -55t81 -20
q58 0 80 20t21 55h77q1 -39 -18.5 -70t-60 -49t-99.5 -18q-58 0 -97.5 18z" />
    <glyph glyph-name="Gdotaccent" unicode="&#x120;" horiz-adv-x="758" 
d="M199 28.5q-79 47.5 -122 130t-41 182.5q2 95 48.5 176.5t127.5 129.5t182 48q93 0 161.5 -39.5t107 -99.5t46.5 -120h-89q-8 44 -36 85.5t-77.5 68.5t-117.5 27q-76 0 -135.5 -36.5t-92.5 -99.5t-36 -140q-3 -83 28.5 -147t90.5 -99.5t136 -35.5q65 0 121 29.5t92 82
t43 119.5h88q-7 -81 -50.5 -151.5t-119 -114t-175.5 -43.5q-101 0 -180 47.5zM373 340h351v-50l-70 -28h-281v78zM326 765.5q-21 19.5 -21 47.5t20 47.5t52 19.5q33 0 54.5 -19.5t21.5 -47.5t-21 -47.5t-53 -19.5t-53 19.5z" />
    <glyph glyph-name="gdotaccent" unicode="&#x121;" horiz-adv-x="624" 
d="M189.5 -244q-60.5 38 -100.5 112l71 32q28 -49 70.5 -77t88.5 -28q79 0 123.5 55.5t45.5 149.5v523h80v-519q-1 -87 -32 -151.5t-86.5 -99.5t-127.5 -35t-132.5 38zM158.5 19q-54.5 38 -84.5 103t-28 141q2 77 37 141t92.5 101t124.5 37t120 -37t82 -101t27 -141
t-36 -141.5t-90.5 -102.5t-122.5 -38q-67 0 -121.5 38zM393 86q42 26 68 72t27 104q2 57 -20.5 103.5t-62.5 72.5t-89 26t-91 -26.5t-68 -73t-27 -102.5q-2 -57 20 -103t62.5 -72.5t89.5 -26.5t91 26zM259 629.5q-21 19.5 -21 47.5t20 47.5t52 19.5q33 0 54.5 -19.5
t21.5 -47.5t-21 -47.5t-53 -19.5t-53 19.5z" />
    <glyph glyph-name="uni0122" unicode="&#x122;" horiz-adv-x="758" 
d="M199 28.5q-79 47.5 -122 130t-41 182.5q2 95 48.5 176.5t127.5 129.5t182 48q93 0 161.5 -39.5t107 -99.5t46.5 -120h-89q-8 44 -36 85.5t-77.5 68.5t-117.5 27q-76 0 -135.5 -36.5t-92.5 -99.5t-36 -140q-3 -83 28.5 -147t90.5 -99.5t136 -35.5q65 0 121 29.5t92 82
t43 119.5h88q-7 -81 -50.5 -151.5t-119 -114t-175.5 -43.5q-101 0 -180 47.5zM373 340h351v-50l-70 -28h-281v78z" />
    <glyph glyph-name="uni0123" unicode="&#x123;" horiz-adv-x="624" 
d="M189.5 -244q-60.5 38 -100.5 112l71 32q28 -49 70.5 -77t88.5 -28q79 0 123.5 55.5t45.5 149.5v523h80v-519q-1 -87 -32 -151.5t-86.5 -99.5t-127.5 -35t-132.5 38zM158.5 19q-54.5 38 -84.5 103t-28 141q2 77 37 141t92.5 101t124.5 37t120 -37t82 -101t27 -141
t-36 -141.5t-90.5 -102.5t-122.5 -38q-67 0 -121.5 38zM393 86q42 26 68 72t27 104q2 57 -20.5 103.5t-62.5 72.5t-89 26t-91 -26.5t-68 -73t-27 -102.5q-2 -57 20 -103t62.5 -72.5t89.5 -26.5t91 26zM411 801l-29 -227h-111l72 236z" />
    <glyph glyph-name="Hcircumflex" unicode="&#x124;" horiz-adv-x="648" 
d="M508 307h-368v-307h-81v695h81v-311h368v311h81v-695h-81v307zM296 904h56l144 -180h-80l-88 109l-92 -109h-85z" />
    <glyph glyph-name="hcircumflex" unicode="&#x125;" horiz-adv-x="613" 
d="M470 328q0 61 -32 98.5t-91 37.5q-57 0 -104 -27.5t-75 -78.5t-30 -120l-41 13q2 87 38.5 153t95 102t124.5 36q96 0 146.5 -59.5t50.5 -177.5v-305h-82v328zM56 746h82v-746h-82v746zM313 833h56l144 -180h-80l-88 109l-92 -109h-85z" />
    <glyph glyph-name="Hbar" unicode="&#x126;" horiz-adv-x="648" 
d="M508 307h-368v-307h-81v695h81v-129h368v129h81v-695h-81v307zM508 384v102h-368v-102h368z" />
    <glyph glyph-name="hbar" unicode="&#x127;" horiz-adv-x="613" 
d="M470 328q0 61 -32 98.5t-91 37.5q-57 0 -104 -27.5t-75 -78.5t-30 -120l-41 13q2 87 38.5 153t95 102t124.5 36q96 0 146.5 -59.5t50.5 -177.5v-305h-82v328zM56 746h82v-746h-82v746zM-23 667h401v-80h-401v80z" />
    <glyph glyph-name="Itilde" unicode="&#x128;" horiz-adv-x="228" 
d="M76 695h81v-695h-81v695zM-103 719q-8 48 2 86.5t38 61.5t73 23q33 0 56.5 -12t52.5 -35q23 -18 39.5 -27t36.5 -9q39 0 54 21.5t9 57.5h74q8 -51 -6.5 -88.5t-47 -58t-76.5 -20.5q-31 0 -54.5 12t-52.5 35q-25 19 -41.5 28t-36.5 9q-29 0 -39.5 -20t-3.5 -64h-77z" />
    <glyph glyph-name="itilde" unicode="&#x129;" horiz-adv-x="220" 
d="M68 523h83v-523h-83v523zM-47 587q-6 46 1.5 83t30 58.5t57.5 21.5q26 0 44.5 -11t41.5 -33q18 -18 31 -26.5t29 -8.5q31 0 42.5 20.5t7.5 55.5h58q6 -49 -5.5 -85t-37 -55.5t-60.5 -19.5q-24 0 -42.5 11.5t-41.5 33.5q-20 18 -33 26.5t-28 8.5q-23 0 -31.5 -19t-2.5 -61
h-61z" />
    <glyph glyph-name="Imacron" unicode="&#x12a;" horiz-adv-x="228" 
d="M76 695h81v-695h-81v695zM-88 845h401v-80h-401v80z" />
    <glyph glyph-name="imacron" unicode="&#x12b;" horiz-adv-x="220" 
d="M68 523h83v-523h-83v523zM-92 709h401v-80h-401v80z" />
    <glyph glyph-name="Ibreve" unicode="&#x12c;" horiz-adv-x="228" 
d="M76 695h81v-695h-81v695zM15.5 754q-39.5 18 -59 49t-19.5 70h76q-3 -35 19 -55t81 -20q58 0 80 20t21 55h77q1 -39 -18.5 -70t-60 -49t-99.5 -18q-58 0 -97.5 18z" />
    <glyph glyph-name="ibreve" unicode="&#x12d;" horiz-adv-x="220" 
d="M68 523h83v-523h-83v523zM27.5 598q-33.5 18 -50 49t-16.5 70h64q-2 -35 16.5 -55t69.5 -20q49 0 68 20t18 55h66q1 -39 -16 -70t-51.5 -49t-84.5 -18t-83.5 18z" />
    <glyph glyph-name="Iogonek" unicode="&#x12e;" horiz-adv-x="228" 
d="M212 -266q-144 -29 -212.5 -17.5t-93.5 55.5q-19 33 -3.5 76.5t66.5 91.5t136 95q32 6 43.5 -5t6.5 -30q-89 -47 -140.5 -98t-28.5 -89q17 -27 69.5 -27.5t117.5 17.5zM76 695h81v-695h-81v695z" />
    <glyph glyph-name="iogonek" unicode="&#x12f;" horiz-adv-x="220" 
d="M200 -266q-144 -29 -212.5 -17.5t-93.5 55.5q-19 33 -3.5 76.5t66.5 91.5t136 95q32 6 43.5 -5t6.5 -30q-89 -47 -140.5 -98t-28.5 -89q17 -27 69.5 -27.5t117.5 17.5zM68 523h83v-523h-83v523zM71.5 626.5q-18.5 9.5 -29.5 25t-11 34.5t11 34.5t29.5 25t40.5 9.5
t40 -9.5t29 -25t11 -34.5t-11 -34.5t-29 -25t-40 -9.5t-40.5 9.5z" />
    <glyph glyph-name="Idotaccent" unicode="&#x130;" horiz-adv-x="228" 
d="M76 695h81v-695h-81v695zM61 765.5q-21 19.5 -21 47.5t20 47.5t52 19.5q33 0 54.5 -19.5t21.5 -47.5t-21 -47.5t-53 -19.5t-53 19.5z" />
    <glyph glyph-name="dotlessi" unicode="&#x131;" horiz-adv-x="220" 
d="M68 523h83v-523h-83v523z" />
    <glyph glyph-name="IJ" unicode="&#x132;" horiz-adv-x="922" 
d="M76 695h81v-695h-81v695zM385.5 23.5q-65.5 42.5 -96 116.5t-21.5 167h82q-7 -71 13 -127t66 -88.5t115 -32.5q111 0 174.5 68t62.5 213v355h87v-353q0 -118 -38 -199t-110.5 -121.5t-174.5 -40.5q-94 0 -159.5 42.5z" />
    <glyph glyph-name="ij" unicode="&#x133;" horiz-adv-x="454" 
d="M68 523h83v-523h-83v523zM71.5 626.5q-18.5 9.5 -29.5 25t-11 34.5t11 34.5t29.5 25t40.5 9.5t40 -9.5t29 -25t11 -34.5t-11 -34.5t-29 -25t-40 -9.5t-40.5 9.5zM82 -154h17q87 0 140 45.5t53 125.5v506h82v-500q0 -71 -32 -127t-89 -87.5t-128 -31.5h-43v69zM294 626.5
q-18 9.5 -29 25t-11 34.5t11 34.5t29 25t40 9.5t40 -9.5t29 -25t11 -34.5t-11 -34.5t-29 -25t-40 -9.5t-40 9.5z" />
    <glyph glyph-name="Jcircumflex" unicode="&#x134;" horiz-adv-x="694" 
d="M157.5 23.5q-65.5 42.5 -96 116.5t-21.5 167h82q-7 -71 13 -127t66 -88.5t115 -32.5q111 0 174.5 68t62.5 213v355h87v-353q0 -118 -38 -199t-110.5 -121.5t-174.5 -40.5q-94 0 -159.5 42.5zM525 904h56l144 -180h-80l-88 109l-92 -109h-85z" />
    <glyph glyph-name="jcircumflex" unicode="&#x135;" horiz-adv-x="234" 
d="M-138 -154h17q87 0 140 45.5t53 125.5v506h82v-500q0 -71 -32 -127t-89 -87.5t-128 -31.5h-43v69zM84 732h56l144 -180h-80l-88 109l-92 -109h-85z" />
    <glyph glyph-name="uni0136" unicode="&#x136;" horiz-adv-x="617" 
d="M145 342v-342h-81v695h81v-319l384 319h114l-398 -335l429 -360h-127z" />
    <glyph glyph-name="uni0137" unicode="&#x137;" horiz-adv-x="571" 
d="M143 246v-246h-82v746h82v-468l318 245h135l-346 -260l355 -263h-137z" />
    <glyph glyph-name="kgreenlandic" unicode="&#x138;" horiz-adv-x="571" 
d="M143 246v-246h-82v523h82v-245l318 245h135l-346 -260l355 -263h-137z" />
    <glyph glyph-name="Lacute" unicode="&#x139;" horiz-adv-x="514" 
d="M60 695h82v-613h364v-82h-446v695zM116 789l227 129l53 -82l-240 -110z" />
    <glyph glyph-name="lacute" unicode="&#x13a;" horiz-adv-x="214" 
d="M64 746h81v-746h-81v746zM1 803l227 129l53 -82l-240 -110z" />
    <glyph glyph-name="uni013B" unicode="&#x13b;" horiz-adv-x="514" 
d="M60 695h82v-613h364v-82h-446v695z" />
    <glyph glyph-name="uni013C" unicode="&#x13c;" horiz-adv-x="214" 
d="M64 746h81v-746h-81v746z" />
    <glyph glyph-name="Lcaron" unicode="&#x13d;" horiz-adv-x="514" 
d="M60 695h82v-613h364v-82h-446v695zM84 900h80l85 -109l94 109h86l-146 -180h-56z" />
    <glyph glyph-name="lcaron" unicode="&#x13e;" horiz-adv-x="214" 
d="M64 746h81v-746h-81v746zM15 908l85 -87l94 87h86l-146 -144h-56l-143 144h80z" />
    <glyph glyph-name="Ldot" unicode="&#x13f;" horiz-adv-x="514" 
d="M60 695h82v-613h364v-82h-446v695zM324 342.5q-21 19.5 -21 47.5t20 47.5t52 19.5q33 0 54.5 -19.5t21.5 -47.5t-21 -47.5t-53 -19.5t-53 19.5z" />
    <glyph glyph-name="ldot" unicode="&#x140;" horiz-adv-x="359" 
d="M64 746h81v-746h-81v746zM229 323.5q-21 19.5 -21 47.5t20 47.5t52 19.5q33 0 54.5 -19.5t21.5 -47.5t-21 -47.5t-53 -19.5t-53 19.5z" />
    <glyph glyph-name="Lslash" unicode="&#x141;" horiz-adv-x="514" 
d="M60 295l-70 -15v76l70 15v324h82v-306l177 39v-76l-177 -39v-231h364v-82h-446v295z" />
    <glyph glyph-name="lslash" unicode="&#x142;" horiz-adv-x="214" 
d="M64 525l-111 -26v77l111 26v144h81v-125l113 27v-77l-113 -27v-544h-81v525z" />
    <glyph glyph-name="Nacute" unicode="&#x143;" horiz-adv-x="708" 
d="M148 561v-561h-82v695h82l414 -581v581h81v-695h-93zM214 789l227 129l53 -82l-240 -110z" />
    <glyph glyph-name="nacute" unicode="&#x144;" horiz-adv-x="623" 
d="M478 328q0 61 -32 98.5t-92 37.5q-57 0 -104 -27.5t-75 -78.5t-30 -120l-41 13q2 87 38.5 153t95 102t124.5 36q97 0 147 -59.5t50 -177.5v-305h-81v328zM64 523h81v-523h-81v523zM206 641l227 129l53 -82l-240 -110z" />
    <glyph glyph-name="uni0145" unicode="&#x145;" horiz-adv-x="708" 
d="M148 561v-561h-82v695h82l414 -581v581h81v-695h-93z" />
    <glyph glyph-name="uni0146" unicode="&#x146;" horiz-adv-x="623" 
d="M478 328q0 61 -32 98.5t-92 37.5q-57 0 -104 -27.5t-75 -78.5t-30 -120l-41 13q2 87 38.5 153t95 102t124.5 36q97 0 147 -59.5t50 -177.5v-305h-81v328zM64 523h81v-523h-81v523z" />
    <glyph glyph-name="Ncaron" unicode="&#x147;" horiz-adv-x="708" 
d="M148 561v-561h-82v695h82l414 -581v581h81v-695h-93zM181 900h80l85 -109l94 109h86l-146 -180h-56z" />
    <glyph glyph-name="ncaron" unicode="&#x148;" horiz-adv-x="623" 
d="M478 328q0 61 -32 98.5t-92 37.5q-57 0 -104 -27.5t-75 -78.5t-30 -120l-41 13q2 87 38.5 153t95 102t124.5 36q97 0 147 -59.5t50 -177.5v-305h-81v328zM64 523h81v-523h-81v523zM139 764h80l85 -109l94 109h86l-146 -180h-56z" />
    <glyph glyph-name="napostrophe" unicode="&#x149;" horiz-adv-x="623" 
d="M478 328q0 61 -32 98.5t-92 37.5q-57 0 -104 -27.5t-75 -78.5t-30 -120l-41 13q2 87 38.5 153t95 102t124.5 36q97 0 147 -59.5t50 -177.5v-305h-81v328zM64 523h81v-523h-81v523z" />
    <glyph glyph-name="Eng" unicode="&#x14a;" horiz-adv-x="708" 
d="M103 624l45 71l495 -695h-93zM66 695h82v-695h-82v695zM352 -154h16q105 0 149.5 35t44.5 112v290h81v-287q0 -80 -31 -128.5t-86 -69.5t-131 -21h-43v69zM562 695h81v-695h-81v695z" />
    <glyph glyph-name="eng" unicode="&#x14b;" horiz-adv-x="623" 
d="M478 338q0 31 -14.5 60t-42.5 47.5t-67 18.5q-57 0 -104 -27.5t-75 -78.5t-30 -120l-41 13q2 87 38.5 153t95 102t124.5 36q94 0 145.5 -57t51.5 -151v-214h-81v218zM64 523h81v-523h-81v523zM269 -154h17q104 0 148.5 35t44.5 112v290h81v-287q0 -80 -31 -128.5
t-86 -69.5t-131 -21h-43v69z" />
    <glyph glyph-name="Omacron" unicode="&#x14c;" horiz-adv-x="781" 
d="M199 28q-79 47 -122 128t-41 181q2 96 47.5 178t126.5 131t184 49q101 0 179.5 -46t121.5 -127.5t42 -184.5q-2 -97 -49 -178.5t-128 -129.5t-181 -48q-101 0 -180 47zM520 97q60 38 92.5 102t34.5 138q2 79 -28.5 142.5t-89.5 100.5t-140 37q-75 0 -135 -39.5
t-93.5 -104t-35.5 -136.5q-3 -82 27.5 -145t89.5 -98t138 -35q80 0 140 38zM189 845h401v-80h-401v80z" />
    <glyph glyph-name="omacron" unicode="&#x14d;" horiz-adv-x="660" 
d="M186.5 18.5q-66.5 37.5 -105 102t-39.5 141.5q0 78 38 142t103.5 101t146.5 37q85 0 151 -37t103 -101t38 -142q0 -77 -38 -141.5t-104 -102t-146 -37.5q-81 0 -147.5 37.5zM433.5 88q47.5 27 75 73t27.5 101q1 57 -24 103t-71 72.5t-105 26.5t-106.5 -26.5t-75 -73
t-28.5 -102.5t24.5 -102t72 -72.5t105.5 -26.5q58 0 105.5 27zM128 709h401v-80h-401v80z" />
    <glyph glyph-name="Obreve" unicode="&#x14e;" horiz-adv-x="781" 
d="M199 28q-79 47 -122 128t-41 181q2 96 47.5 178t126.5 131t184 49q101 0 179.5 -46t121.5 -127.5t42 -184.5q-2 -97 -49 -178.5t-128 -129.5t-181 -48q-101 0 -180 47zM520 97q60 38 92.5 102t34.5 138q2 79 -28.5 142.5t-89.5 100.5t-140 37q-75 0 -135 -39.5
t-93.5 -104t-35.5 -136.5q-3 -82 27.5 -145t89.5 -98t138 -35q80 0 140 38zM292.5 754q-39.5 18 -59 49t-19.5 70h76q-3 -35 19 -55t81 -20q58 0 80 20t21 55h77q1 -39 -18.5 -70t-60 -49t-99.5 -18q-58 0 -97.5 18z" />
    <glyph glyph-name="obreve" unicode="&#x14f;" horiz-adv-x="660" 
d="M186.5 18.5q-66.5 37.5 -105 102t-39.5 141.5q0 78 38 142t103.5 101t146.5 37q85 0 151 -37t103 -101t38 -142q0 -77 -38 -141.5t-104 -102t-146 -37.5q-81 0 -147.5 37.5zM433.5 88q47.5 27 75 73t27.5 101q1 57 -24 103t-71 72.5t-105 26.5t-106.5 -26.5t-75 -73
t-28.5 -102.5t24.5 -102t72 -72.5t105.5 -26.5q58 0 105.5 27zM233.5 618q-39.5 18 -59 49t-19.5 70h76q-3 -35 19 -55t81 -20q58 0 80 20t21 55h77q1 -39 -18.5 -70t-60 -49t-99.5 -18q-58 0 -97.5 18z" />
    <glyph glyph-name="Ohungarumlaut" unicode="&#x150;" horiz-adv-x="781" 
d="M199 28q-79 47 -122 128t-41 181q2 96 47.5 178t126.5 131t184 49q101 0 179.5 -46t121.5 -127.5t42 -184.5q-2 -97 -49 -178.5t-128 -129.5t-181 -48q-101 0 -180 47zM520 97q60 38 92.5 102t34.5 138q2 79 -28.5 142.5t-89.5 100.5t-140 37q-75 0 -135 -39.5
t-93.5 -104t-35.5 -136.5q-3 -82 27.5 -145t89.5 -98t138 -35q80 0 140 38zM445 789l191 129l41 -82l-204 -110zM408 918l41 -82l-204 -110l-28 63z" />
    <glyph glyph-name="ohungarumlaut" unicode="&#x151;" horiz-adv-x="660" 
d="M186.5 18.5q-66.5 37.5 -105 102t-39.5 141.5q0 78 38 142t103.5 101t146.5 37q85 0 151 -37t103 -101t38 -142q0 -77 -38 -141.5t-104 -102t-146 -37.5q-81 0 -147.5 37.5zM433.5 88q47.5 27 75 73t27.5 101q1 57 -24 103t-71 72.5t-105 26.5t-106.5 -26.5t-75 -73
t-28.5 -102.5t24.5 -102t72 -72.5t105.5 -26.5q58 0 105.5 27zM384 653l191 129l41 -82l-204 -110zM347 782l41 -82l-204 -110l-28 63z" />
    <glyph glyph-name="OE" unicode="&#x152;" horiz-adv-x="1163" 
d="M199 28q-79 47 -122 128t-41 181q2 96 47.5 178t126.5 131t184 49q101 0 179.5 -46t121.5 -127.5t42 -184.5q-2 -97 -49 -178.5t-128 -129.5t-181 -48q-101 0 -180 47zM520 97q60 38 92.5 102t34.5 138q2 79 -28.5 142.5t-89.5 100.5t-140 37q-75 0 -135 -39.5
t-93.5 -104t-35.5 -136.5q-3 -82 27.5 -145t89.5 -98t138 -35q80 0 140 38zM718 86h384v-86h-384v86zM655 695h82v-695h-82v695zM700 385h360l-2 -86h-360zM713 695h389l-2 -82h-384z" />
    <glyph glyph-name="oe" unicode="&#x153;" horiz-adv-x="1142" 
d="M186.5 18.5q-66.5 37.5 -105 102t-39.5 141.5q0 78 38 142t103.5 101t146.5 37q85 0 151 -37t103 -101t38 -142q0 -77 -38 -141.5t-104 -102t-146 -37.5q-81 0 -147.5 37.5zM433.5 88q47.5 27 75 73t27.5 101q1 57 -24 103t-71 72.5t-105 26.5t-106.5 -26.5t-75 -73
t-28.5 -102.5t24.5 -102t72 -72.5t105.5 -26.5q58 0 105.5 27zM675 17q-64 36 -100.5 100t-34.5 145q1 77 40 141t104 101.5t142 37.5q93 0 156.5 -40.5t93.5 -105t28 -134.5q-2 -31 -6 -42h-471q4 -73 58.5 -116t139.5 -43q56 0 101.5 23.5t75.5 59.5l68 -42
q-37 -55 -104 -88t-147 -33t-144 36zM1020 296q0 41 -22.5 80t-65 63.5t-98.5 24.5q-77 0 -133 -45.5t-72 -122.5h391z" />
    <glyph glyph-name="Racute" unicode="&#x154;" horiz-adv-x="575" 
d="M106 328l-2 367h170q77 1 133.5 -27t86.5 -75.5t30 -105.5q0 -97 -65 -155t-185 -58l297 -274h-116zM64 695h84v-695h-84v695zM269 342q81 0 125.5 38.5t42.5 106.5q-4 68 -47.5 99t-119.5 31h-148l2 -275h145zM148 789l227 129l53 -82l-240 -110z" />
    <glyph glyph-name="racute" unicode="&#x155;" horiz-adv-x="518" 
d="M106 238q3 101 33 169.5t76 101.5t99 33q54 0 94 -28.5t60.5 -77.5t18.5 -108h-80q1 60 -25.5 98t-75.5 38q-43 0 -79 -26.5t-58 -78t-24 -121.5h-39zM64 523h81v-523h-81v523zM153 641l227 129l53 -82l-240 -110z" />
    <glyph glyph-name="uni0156" unicode="&#x156;" horiz-adv-x="575" 
d="M106 328l-2 367h170q77 1 133.5 -27t86.5 -75.5t30 -105.5q0 -97 -65 -155t-185 -58l297 -274h-116zM64 695h84v-695h-84v695zM269 342q81 0 125.5 38.5t42.5 106.5q-4 68 -47.5 99t-119.5 31h-148l2 -275h145z" />
    <glyph glyph-name="uni0157" unicode="&#x157;" horiz-adv-x="518" 
d="M106 238q3 101 33 169.5t76 101.5t99 33q54 0 94 -28.5t60.5 -77.5t18.5 -108h-80q1 60 -25.5 98t-75.5 38q-43 0 -79 -26.5t-58 -78t-24 -121.5h-39zM64 523h81v-523h-81v523z" />
    <glyph glyph-name="Rcaron" unicode="&#x158;" horiz-adv-x="575" 
d="M106 328l-2 367h170q77 1 133.5 -27t86.5 -75.5t30 -105.5q0 -97 -65 -155t-185 -58l297 -274h-116zM64 695h84v-695h-84v695zM269 342q81 0 125.5 38.5t42.5 106.5q-4 68 -47.5 99t-119.5 31h-148l2 -275h145zM115 900h80l85 -109l94 109h86l-146 -180h-56z" />
    <glyph glyph-name="rcaron" unicode="&#x159;" horiz-adv-x="518" 
d="M106 238q3 101 33 169.5t76 101.5t99 33q54 0 94 -28.5t60.5 -77.5t18.5 -108h-80q1 60 -25.5 98t-75.5 38q-43 0 -79 -26.5t-58 -78t-24 -121.5h-39zM64 523h81v-523h-81v523zM85 764h80l85 -109l94 109h86l-146 -180h-56z" />
    <glyph glyph-name="Sacute" unicode="&#x15a;" horiz-adv-x="670" 
d="M164 10.5q-67 29.5 -104.5 81t-41.5 117.5h80q13 -70 69 -111.5t151 -41.5q100 0 157.5 36t57.5 96q0 52 -51 80.5t-168 36.5q-130 10 -195.5 59t-64.5 133q1 53 34.5 98.5t94.5 72.5t139 27q84 0 146.5 -31t98 -81t44.5 -109h-90q-14 62 -62 102.5t-137 40.5
q-57 0 -99 -17t-63.5 -45t-21.5 -59q0 -46 36.5 -73.5t115.5 -35.5l27 -2q159 -9 231 -59.5t72 -134.5q0 -55 -34.5 -103t-103 -77.5t-163.5 -29.5q-88 0 -155 29.5zM194 789l227 129l53 -82l-240 -110z" />
    <glyph glyph-name="sacute" unicode="&#x15b;" horiz-adv-x="630" 
d="M165 7q-63 26 -97.5 69.5t-37.5 95.5h84q9 -49 58 -82.5t141 -33.5q61 0 101.5 14.5t59 37t16.5 46.5q-2 23 -17 37t-53.5 22.5t-112.5 13.5q-122 8 -180.5 50t-59.5 109q-1 42 26.5 77.5t81.5 57t131 21.5q76 0 132 -22.5t89.5 -62.5t43.5 -93h-89q-11 49 -55 76.5
t-121 27.5q-53 0 -86.5 -12.5t-48.5 -32t-13 -40.5q4 -36 39 -55t113 -23q99 -5 157.5 -23.5t84 -49.5t28.5 -76q2 -43 -25.5 -83t-88 -66t-152.5 -26q-86 0 -149 26zM210 641l227 129l53 -82l-240 -110z" />
    <glyph glyph-name="Scircumflex" unicode="&#x15c;" horiz-adv-x="670" 
d="M164 10.5q-67 29.5 -104.5 81t-41.5 117.5h80q13 -70 69 -111.5t151 -41.5q100 0 157.5 36t57.5 96q0 52 -51 80.5t-168 36.5q-130 10 -195.5 59t-64.5 133q1 53 34.5 98.5t94.5 72.5t139 27q84 0 146.5 -31t98 -81t44.5 -109h-90q-14 62 -62 102.5t-137 40.5
q-57 0 -99 -17t-63.5 -45t-21.5 -59q0 -46 36.5 -73.5t115.5 -35.5l27 -2q159 -9 231 -59.5t72 -134.5q0 -55 -34.5 -103t-103 -77.5t-163.5 -29.5q-88 0 -155 29.5zM306 904h56l144 -180h-80l-88 109l-92 -109h-85z" />
    <glyph glyph-name="scircumflex" unicode="&#x15d;" horiz-adv-x="630" 
d="M165 7q-63 26 -97.5 69.5t-37.5 95.5h84q9 -49 58 -82.5t141 -33.5q61 0 101.5 14.5t59 37t16.5 46.5q-2 23 -17 37t-53.5 22.5t-112.5 13.5q-122 8 -180.5 50t-59.5 109q-1 42 26.5 77.5t81.5 57t131 21.5q76 0 132 -22.5t89.5 -62.5t43.5 -93h-89q-11 49 -55 76.5
t-121 27.5q-53 0 -86.5 -12.5t-48.5 -32t-13 -40.5q4 -36 39 -55t113 -23q99 -5 157.5 -23.5t84 -49.5t28.5 -76q2 -43 -25.5 -83t-88 -66t-152.5 -26q-86 0 -149 26zM283 768h56l144 -180h-80l-88 109l-92 -109h-85z" />
    <glyph glyph-name="Scedilla" unicode="&#x15e;" horiz-adv-x="670" 
d="M170 -198q93 -8 151 -5t81 17.5t16 42.5q-6 24 -37 28t-81 0l-23 -2l38 152l49 3l-15 -104q61 7 101 -10.5t50 -66.5q10 -55 -26 -88t-115.5 -43t-194.5 15zM164 10.5q-67 29.5 -104.5 81t-41.5 117.5h80q13 -70 69 -111.5t151 -41.5q100 0 157.5 36t57.5 96
q0 52 -51 80.5t-168 36.5q-130 10 -195.5 59t-64.5 133q1 53 34.5 98.5t94.5 72.5t139 27q84 0 146.5 -31t98 -81t44.5 -109h-90q-14 62 -62 102.5t-137 40.5q-57 0 -99 -17t-63.5 -45t-21.5 -59q0 -46 36.5 -73.5t115.5 -35.5l27 -2q159 -9 231 -59.5t72 -134.5
q0 -55 -34.5 -103t-103 -77.5t-163.5 -29.5q-88 0 -155 29.5z" />
    <glyph glyph-name="scedilla" unicode="&#x15f;" horiz-adv-x="630" 
d="M151 -198q93 -8 151 -5t81 17.5t16 42.5q-6 24 -37 28t-81 0l-23 -2l38 152l49 3l-15 -104q61 7 101 -10.5t50 -66.5q10 -55 -26 -88t-115.5 -43t-194.5 15zM165 7q-63 26 -97.5 69.5t-37.5 95.5h84q9 -49 58 -82.5t141 -33.5q61 0 101.5 14.5t59 37t16.5 46.5
q-2 23 -17 37t-53.5 22.5t-112.5 13.5q-122 8 -180.5 50t-59.5 109q-1 42 26.5 77.5t81.5 57t131 21.5q76 0 132 -22.5t89.5 -62.5t43.5 -93h-89q-11 49 -55 76.5t-121 27.5q-53 0 -86.5 -12.5t-48.5 -32t-13 -40.5q4 -36 39 -55t113 -23q99 -5 157.5 -23.5t84 -49.5
t28.5 -76q2 -43 -25.5 -83t-88 -66t-152.5 -26q-86 0 -149 26z" />
    <glyph glyph-name="Scaron" unicode="&#x160;" horiz-adv-x="670" 
d="M164 10.5q-67 29.5 -104.5 81t-41.5 117.5h80q13 -70 69 -111.5t151 -41.5q100 0 157.5 36t57.5 96q0 52 -51 80.5t-168 36.5q-130 10 -195.5 59t-64.5 133q1 53 34.5 98.5t94.5 72.5t139 27q84 0 146.5 -31t98 -81t44.5 -109h-90q-14 62 -62 102.5t-137 40.5
q-57 0 -99 -17t-63.5 -45t-21.5 -59q0 -46 36.5 -73.5t115.5 -35.5l27 -2q159 -9 231 -59.5t72 -134.5q0 -55 -34.5 -103t-103 -77.5t-163.5 -29.5q-88 0 -155 29.5zM162 900h80l85 -109l94 109h86l-146 -180h-56z" />
    <glyph glyph-name="scaron" unicode="&#x161;" horiz-adv-x="630" 
d="M165 7q-63 26 -97.5 69.5t-37.5 95.5h84q9 -49 58 -82.5t141 -33.5q61 0 101.5 14.5t59 37t16.5 46.5q-2 23 -17 37t-53.5 22.5t-112.5 13.5q-122 8 -180.5 50t-59.5 109q-1 42 26.5 77.5t81.5 57t131 21.5q76 0 132 -22.5t89.5 -62.5t43.5 -93h-89q-11 49 -55 76.5
t-121 27.5q-53 0 -86.5 -12.5t-48.5 -32t-13 -40.5q4 -36 39 -55t113 -23q99 -5 157.5 -23.5t84 -49.5t28.5 -76q2 -43 -25.5 -83t-88 -66t-152.5 -26q-86 0 -149 26zM143 764h80l85 -109l94 109h86l-146 -180h-56z" />
    <glyph glyph-name="uni0162" unicode="&#x162;" horiz-adv-x="601" 
d="M259 616h-265v79h613v-79h-266v-616h-82v616z" />
    <glyph glyph-name="uni0163" unicode="&#x163;" horiz-adv-x="466" 
d="M188 442h-180v81h180v175h86v-175h184v-81h-184v-442h-86v442z" />
    <glyph glyph-name="Tcaron" unicode="&#x164;" horiz-adv-x="601" 
d="M259 616h-265v79h613v-79h-266v-616h-82v616zM129 900h80l85 -109l94 109h86l-146 -180h-56z" />
    <glyph glyph-name="tcaron" unicode="&#x165;" horiz-adv-x="466" 
d="M188 442h-180v81h180v175h86v-175h184v-81h-184v-442h-86v442zM141 875l85 -92l94 92h86l-146 -152h-56l-143 152h80z" />
    <glyph glyph-name="Tbar" unicode="&#x166;" horiz-adv-x="601" 
d="M259 316h-157v80h157v220h-265v79h613v-79h-266v-220h162v-80h-162v-316h-82v316z" />
    <glyph glyph-name="tbar" unicode="&#x167;" horiz-adv-x="466" 
d="M30 313h158v129h-180v81h180v175h86v-175h184v-81h-184v-129h157v-80h-157v-233h-86v233h-158v80z" />
    <glyph glyph-name="Utilde" unicode="&#x168;" horiz-adv-x="732" 
d="M137 65q-83 84 -83 254v376h83v-375q0 -138 60 -199.5t169 -61.5q113 0 173 63.5t60 197.5v375h86v-382q0 -107 -38 -181.5t-110 -112.5t-173 -38q-144 0 -227 84zM149 719q-8 48 2 86.5t38 61.5t73 23q33 0 56.5 -12t52.5 -35q23 -18 39.5 -27t36.5 -9q39 0 54 21.5
t9 57.5h74q8 -51 -6.5 -88.5t-47 -58t-76.5 -20.5q-31 0 -54.5 12t-52.5 35q-25 19 -41.5 28t-36.5 9q-29 0 -39.5 -20t-3.5 -64h-77z" />
    <glyph glyph-name="utilde" unicode="&#x169;" horiz-adv-x="623" 
d="M114 40.5q-50 59.5 -50 177.5v305h81v-327q0 -61 32 -99t92 -38q57 0 104 27.5t75 79t30 120.5l40 -14q-2 -87 -38.5 -153t-95 -102t-124.5 -36q-96 0 -146 59.5zM478 523h81v-523h-81v523zM109 583q-8 48 2 86.5t38 61.5t73 23q33 0 56.5 -12t52.5 -35q23 -18 39.5 -27
t36.5 -9q39 0 54 21.5t9 57.5h74q8 -51 -6.5 -88.5t-47 -58t-76.5 -20.5q-31 0 -54.5 12t-52.5 35q-25 19 -41.5 28t-36.5 9q-29 0 -39.5 -20t-3.5 -64h-77z" />
    <glyph glyph-name="Umacron" unicode="&#x16a;" horiz-adv-x="732" 
d="M137 65q-83 84 -83 254v376h83v-375q0 -138 60 -199.5t169 -61.5q113 0 173 63.5t60 197.5v375h86v-382q0 -107 -38 -181.5t-110 -112.5t-173 -38q-144 0 -227 84zM164 845h401v-80h-401v80z" />
    <glyph glyph-name="umacron" unicode="&#x16b;" horiz-adv-x="623" 
d="M114 40.5q-50 59.5 -50 177.5v305h81v-327q0 -61 32 -99t92 -38q57 0 104 27.5t75 79t30 120.5l40 -14q-2 -87 -38.5 -153t-95 -102t-124.5 -36q-96 0 -146 59.5zM478 523h81v-523h-81v523zM110 709h401v-80h-401v80z" />
    <glyph glyph-name="Ubreve" unicode="&#x16c;" horiz-adv-x="732" 
d="M137 65q-83 84 -83 254v376h83v-375q0 -138 60 -199.5t169 -61.5q113 0 173 63.5t60 197.5v375h86v-382q0 -107 -38 -181.5t-110 -112.5t-173 -38q-144 0 -227 84zM267.5 754q-39.5 18 -59 49t-19.5 70h76q-3 -35 19 -55t81 -20q58 0 80 20t21 55h77q1 -39 -18.5 -70
t-60 -49t-99.5 -18q-58 0 -97.5 18z" />
    <glyph glyph-name="ubreve" unicode="&#x16d;" horiz-adv-x="623" 
d="M114 40.5q-50 59.5 -50 177.5v305h81v-327q0 -61 32 -99t92 -38q57 0 104 27.5t75 79t30 120.5l40 -14q-2 -87 -38.5 -153t-95 -102t-124.5 -36q-96 0 -146 59.5zM478 523h81v-523h-81v523zM215.5 618q-39.5 18 -59 49t-19.5 70h76q-3 -35 19 -55t81 -20q58 0 80 20
t21 55h77q1 -39 -18.5 -70t-60 -49t-99.5 -18q-58 0 -97.5 18z" />
    <glyph glyph-name="Uring" unicode="&#x16e;" horiz-adv-x="732" 
d="M137 65q-83 84 -83 254v376h83v-375q0 -138 60 -199.5t169 -61.5q113 0 173 63.5t60 197.5v375h86v-382q0 -107 -38 -181.5t-110 -112.5t-173 -38q-144 0 -227 84zM288 742.5q-35 18.5 -54.5 49.5t-19.5 69q0 37 19 69t53.5 50.5t78.5 18.5t79.5 -18t55.5 -48.5t20 -68.5
q0 -37 -19.5 -69.5t-55 -51.5t-79.5 -19q-43 0 -78 18.5zM423.5 807.5q20.5 21.5 19.5 53.5q2 33 -17 55t-57 22t-58 -22t-21 -55q-2 -32 18 -53.5t58 -21.5q37 0 57.5 21.5z" />
    <glyph glyph-name="uring" unicode="&#x16f;" horiz-adv-x="623" 
d="M114 40.5q-50 59.5 -50 177.5v305h81v-327q0 -61 32 -99t92 -38q57 0 104 27.5t75 79t30 120.5l40 -14q-2 -87 -38.5 -153t-95 -102t-124.5 -36q-96 0 -146 59.5zM478 523h81v-523h-81v523zM232 606.5q-35 18.5 -54.5 49.5t-19.5 69q0 37 19 69t53.5 50.5t78.5 18.5
t79.5 -18t55.5 -48.5t20 -68.5q0 -37 -19.5 -69.5t-55 -51.5t-79.5 -19q-43 0 -78 18.5zM367.5 671.5q20.5 21.5 19.5 53.5q2 33 -17 55t-57 22t-58 -22t-21 -55q-2 -32 18 -53.5t58 -21.5q37 0 57.5 21.5z" />
    <glyph glyph-name="Uhungarumlaut" unicode="&#x170;" horiz-adv-x="732" 
d="M137 65q-83 84 -83 254v376h83v-375q0 -138 60 -199.5t169 -61.5q113 0 173 63.5t60 197.5v375h86v-382q0 -107 -38 -181.5t-110 -112.5t-173 -38q-144 0 -227 84zM420 789l191 129l41 -82l-204 -110zM383 918l41 -82l-204 -110l-28 63z" />
    <glyph glyph-name="uhungarumlaut" unicode="&#x171;" horiz-adv-x="623" 
d="M114 40.5q-50 59.5 -50 177.5v305h81v-327q0 -61 32 -99t92 -38q57 0 104 27.5t75 79t30 120.5l40 -14q-2 -87 -38.5 -153t-95 -102t-124.5 -36q-96 0 -146 59.5zM478 523h81v-523h-81v523zM366 653l191 129l41 -82l-204 -110zM329 782l41 -82l-204 -110l-28 63z" />
    <glyph glyph-name="Uogonek" unicode="&#x172;" horiz-adv-x="732" 
d="M493 -266q-144 -29 -212.5 -17.5t-93.5 55.5q-19 33 -3.5 76.5t66.5 91.5t136 95q32 6 43.5 -5t6.5 -30q-89 -47 -140.5 -98t-28.5 -89q17 -27 69.5 -27.5t117.5 17.5zM137 65q-83 84 -83 254v376h83v-375q0 -138 60 -199.5t169 -61.5q113 0 173 63.5t60 197.5v375h86
v-382q0 -107 -38 -181.5t-110 -112.5t-173 -38q-144 0 -227 84z" />
    <glyph glyph-name="uogonek" unicode="&#x173;" horiz-adv-x="623" 
d="M612 -266q-144 -29 -212.5 -17.5t-93.5 55.5q-19 33 -3.5 76.5t66.5 91.5t136 95q32 6 43.5 -5t6.5 -30q-89 -47 -140.5 -98t-28.5 -89q17 -27 69.5 -27.5t117.5 17.5zM114 40.5q-50 59.5 -50 177.5v305h81v-327q0 -61 32 -99t92 -38q57 0 104 27.5t75 79t30 120.5
l40 -14q-2 -87 -38.5 -153t-95 -102t-124.5 -36q-96 0 -146 59.5zM478 523h81v-523h-81v523z" />
    <glyph glyph-name="Wcircumflex" unicode="&#x174;" horiz-adv-x="887" 
d="M442 564l-166 -564h-77l-195 695h91l147 -545l155 545h87l181 -537l140 537h95l-198 -695h-68zM416 904h56l144 -180h-80l-88 109l-92 -109h-85z" />
    <glyph glyph-name="wcircumflex" unicode="&#x175;" horiz-adv-x="936" 
d="M464 428l-183 -428h-73l-184 523h89l137 -407l172 407h89l161 -401l157 401h97l-222 -523h-68zM436 768h56l144 -180h-80l-88 109l-92 -109h-85z" />
    <glyph glyph-name="Ycircumflex" unicode="&#x176;" horiz-adv-x="504" 
d="M199 209l-246 486h96l195 -389l218 389h98l-272 -483v-212h-89v209zM224 904h56l144 -180h-80l-88 109l-92 -109h-85z" />
    <glyph glyph-name="ycircumflex" unicode="&#x177;" horiz-adv-x="623" 
d="M114 40.5q-50 59.5 -50 177.5v305h81v-327q0 -61 32 -99t92 -38q57 0 104 27.5t75 79t30 120.5l40 -14q-2 -87 -38.5 -153t-95 -102t-124.5 -36q-96 0 -146 59.5zM478 523h81v-746h-81v746zM280 768h56l144 -180h-80l-88 109l-92 -109h-85z" />
    <glyph glyph-name="Ydieresis" unicode="&#x178;" horiz-adv-x="504" 
d="M199 209l-246 486h96l195 -389l218 389h98l-272 -483v-212h-89v209zM327 765.5q-21 19.5 -21 47.5t20.5 47.5t52.5 19.5q33 0 55 -19.5t22 -47.5t-21 -47.5t-54 -19.5t-54 19.5zM69 765.5q-21 19.5 -21 47.5t20 47.5t52 19.5q33 0 54.5 -19.5t21.5 -47.5t-21 -47.5
t-53 -19.5t-53 19.5z" />
    <glyph glyph-name="Zacute" unicode="&#x179;" horiz-adv-x="667" 
d="M494 614h-465v81h633l-489 -618h469v-77h-641zM193 789l227 129l53 -82l-240 -110z" />
    <glyph glyph-name="zacute" unicode="&#x17a;" horiz-adv-x="546" 
d="M380 443h-355v80h513l-363 -446h359v-77h-521zM168 641l227 129l53 -82l-240 -110z" />
    <glyph glyph-name="Zdotaccent" unicode="&#x17b;" horiz-adv-x="667" 
d="M494 614h-465v81h633l-489 -618h469v-77h-641zM280 765.5q-21 19.5 -21 47.5t20 47.5t52 19.5q33 0 54.5 -19.5t21.5 -47.5t-21 -47.5t-53 -19.5t-53 19.5z" />
    <glyph glyph-name="zdotaccent" unicode="&#x17c;" horiz-adv-x="546" 
d="M380 443h-355v80h513l-363 -446h359v-77h-521zM219 629.5q-21 19.5 -21 47.5t20 47.5t52 19.5q33 0 54.5 -19.5t21.5 -47.5t-21 -47.5t-53 -19.5t-53 19.5z" />
    <glyph glyph-name="Zcaron" unicode="&#x17d;" horiz-adv-x="667" 
d="M494 614h-465v81h633l-489 -618h469v-77h-641zM161 900h80l85 -109l94 109h86l-146 -180h-56z" />
    <glyph glyph-name="zcaron" unicode="&#x17e;" horiz-adv-x="546" 
d="M380 443h-355v80h513l-363 -446h359v-77h-521zM101 764h80l85 -109l94 109h86l-146 -180h-56z" />
    <glyph glyph-name="longs" unicode="&#x17f;" horiz-adv-x="503" 
d="M149 500q0 70 33 126.5t91 88t129 31.5h43l-2 -69h-15q-88 0 -143 -46t-55 -125v-506h-81v500z" />
    <glyph glyph-name="uni0189" unicode="&#x189;" horiz-adv-x="662" 
d="M3 397h317v-88h-317v88zM108 695h198q93 0 164.5 -49t110 -129t38.5 -170q0 -88 -38 -168t-110 -129.5t-169 -49.5h-220zM66 695h85v-695h-85v695zM305 78q72 0 125.5 40.5t81 106.5t24.5 139q-6 117 -68.5 185t-172.5 68h-161l12 -539h159z" />
    <glyph glyph-name="florin" unicode="&#x192;" horiz-adv-x="551" 
d="M173 500q0 70 33.5 126.5t91 88t128.5 31.5h41v-69h-15q-88 0 -143.5 -46t-54.5 -125v-729h-81v723zM26 476h464v-78h-464v78z" />
    <glyph glyph-name="uni01C4" unicode="&#x1c4;" horiz-adv-x="1329" 
d="M108 695h198q93 0 164.5 -49t110 -129t38.5 -170q0 -88 -38 -168t-110 -129.5t-169 -49.5h-220zM66 695h85v-695h-85v695zM305 78q72 0 125.5 40.5t81 106.5t24.5 139q-6 117 -68.5 185t-172.5 68h-161l12 -539h159zM1156 614h-465v81h633l-489 -618h469v-77h-641z
M823 900h80l85 -109l94 109h86l-146 -180h-56z" />
    <glyph glyph-name="uni01C5" unicode="&#x1c5;" horiz-adv-x="1208" 
d="M108 695h198q93 0 164.5 -49t110 -129t38.5 -170q0 -88 -38 -168t-110 -129.5t-169 -49.5h-220zM66 695h85v-695h-85v695zM305 78q72 0 125.5 40.5t81 106.5t24.5 139q-6 117 -68.5 185t-172.5 68h-161l12 -539h159zM1042 443h-355v80h513l-363 -446h359v-77h-521z
M745 751h80l85 -109l94 109h86l-146 -180h-56z" />
    <glyph glyph-name="uni01C6" unicode="&#x1c6;" horiz-adv-x="1181" 
d="M166 18q-57 37 -89.5 101.5t-32.5 143.5q0 77 34.5 141t93.5 101t128 37q71 0 126 -37t85.5 -100.5t30.5 -141.5q0 -77 -33 -141.5t-90 -102.5t-127 -38q-69 0 -126 37zM403.5 86.5q44.5 26.5 71.5 72.5t27 103q0 58 -23.5 104t-64.5 72t-92 26q-52 0 -96.5 -26.5
t-71 -73t-26.5 -102.5q0 -58 23 -104t64 -72t93 -26q51 0 95.5 26.5zM500 746h82l1 -746h-81zM1015 443h-355v80h513l-363 -446h359v-77h-521zM743 746h80l85 -109l94 109h86l-146 -180h-56z" />
    <glyph glyph-name="uni01C7" unicode="&#x1c7;" horiz-adv-x="1208" 
d="M60 695h82v-613h364v-82h-446v695zM671.5 23.5q-65.5 42.5 -96 116.5t-21.5 167h82q-7 -71 13 -127t66 -88.5t115 -32.5q111 0 174.5 68t62.5 213v355h87v-353q0 -118 -38 -199t-110.5 -121.5t-174.5 -40.5q-94 0 -159.5 42.5z" />
    <glyph glyph-name="uni01C8" unicode="&#x1c8;" horiz-adv-x="748" 
d="M60 695h82v-613h364v-82h-446v695zM376 -154h17q87 0 140 45.5t53 125.5v506h82v-500q0 -71 -32 -127t-89 -87.5t-128 -31.5h-43v69zM588 626.5q-18 9.5 -29 25t-11 34.5t11 34.5t29 25t40 9.5t40 -9.5t29 -25t11 -34.5t-11 -34.5t-29 -25t-40 -9.5t-40 9.5z" />
    <glyph glyph-name="uni01C9" unicode="&#x1c9;" horiz-adv-x="448" 
d="M64 746h81v-746h-81v746zM76 -154h17q87 0 140 45.5t53 125.5v506h82v-500q0 -71 -32 -127t-89 -87.5t-128 -31.5h-43v69zM288 626.5q-18 9.5 -29 25t-11 34.5t11 34.5t29 25t40 9.5t40 -9.5t29 -25t11 -34.5t-11 -34.5t-29 -25t-40 -9.5t-40 9.5z" />
    <glyph glyph-name="uni01CA" unicode="&#x1ca;" horiz-adv-x="1402" 
d="M148 561v-561h-82v695h82l414 -581v581h81v-695h-93zM865.5 23.5q-65.5 42.5 -96 116.5t-21.5 167h82q-7 -71 13 -127t66 -88.5t115 -32.5q111 0 174.5 68t62.5 213v355h87v-353q0 -118 -38 -199t-110.5 -121.5t-174.5 -40.5q-94 0 -159.5 42.5z" />
    <glyph glyph-name="uni01CB" unicode="&#x1cb;" horiz-adv-x="942" 
d="M148 561v-561h-82v695h82l414 -581v581h81v-695h-93zM570 -154h17q87 0 140 45.5t53 125.5v506h82v-500q0 -71 -32 -127t-89 -87.5t-128 -31.5h-43v69zM782 626.5q-18 9.5 -29 25t-11 34.5t11 34.5t29 25t40 9.5t40 -9.5t29 -25t11 -34.5t-11 -34.5t-29 -25t-40 -9.5
t-40 9.5z" />
    <glyph glyph-name="uni01CC" unicode="&#x1cc;" horiz-adv-x="857" 
d="M478 328q0 61 -32 98.5t-92 37.5q-57 0 -104 -27.5t-75 -78.5t-30 -120l-41 13q2 87 38.5 153t95 102t124.5 36q97 0 147 -59.5t50 -177.5v-305h-81v328zM64 523h81v-523h-81v523zM485 -154h17q87 0 140 45.5t53 125.5v506h82v-500q0 -71 -32 -127t-89 -87.5t-128 -31.5
h-43v69zM697 626.5q-18 9.5 -29 25t-11 34.5t11 34.5t29 25t40 9.5t40 -9.5t29 -25t11 -34.5t-11 -34.5t-29 -25t-40 -9.5t-40 9.5z" />
    <glyph glyph-name="uni01CD" unicode="&#x1cd;" horiz-adv-x="676" 
d="M287 695h107l258 -695h-94l-54 151h-329l-55 -151h-97zM474 233l-134 374l-136 -374h270zM166 900h80l85 -109l94 109h86l-146 -180h-56z" />
    <glyph glyph-name="uni01CE" unicode="&#x1ce;" horiz-adv-x="638" 
d="M166 18q-57 37 -89.5 101.5t-32.5 143.5q0 77 34.5 141t93.5 101t128 37q71 0 126 -37t85.5 -100.5t30.5 -141.5q0 -77 -33 -141.5t-90 -102.5t-127 -38q-69 0 -126 37zM403.5 86.5q44.5 26.5 71 72.5t26.5 103q0 58 -23 104t-64 72t-92 26q-52 0 -96.5 -26.5t-71 -73
t-26.5 -102.5q0 -58 23 -104t64 -72t93 -26q51 0 95.5 26.5zM500 523h82l1 -523h-81zM145 764h80l85 -109l94 109h86l-146 -180h-56z" />
    <glyph glyph-name="uni01CF" unicode="&#x1cf;" horiz-adv-x="228" 
d="M76 695h81v-695h-81v695zM-57 900h80l85 -109l94 109h86l-146 -180h-56z" />
    <glyph glyph-name="uni01D0" unicode="&#x1d0;" horiz-adv-x="220" 
d="M68 523h83v-523h-83v523zM-62 764h80l85 -109l94 109h86l-146 -180h-56z" />
    <glyph glyph-name="uni01D1" unicode="&#x1d1;" horiz-adv-x="781" 
d="M199 28q-79 47 -122 128t-41 181q2 96 47.5 178t126.5 131t184 49q101 0 179.5 -46t121.5 -127.5t42 -184.5q-2 -97 -49 -178.5t-128 -129.5t-181 -48q-101 0 -180 47zM520 97q60 38 92.5 102t34.5 138q2 79 -28.5 142.5t-89.5 100.5t-140 37q-75 0 -135 -39.5
t-93.5 -104t-35.5 -136.5q-3 -82 27.5 -145t89.5 -98t138 -35q80 0 140 38zM219 900h80l85 -109l94 109h86l-146 -180h-56z" />
    <glyph glyph-name="uni01D2" unicode="&#x1d2;" horiz-adv-x="660" 
d="M186.5 18.5q-66.5 37.5 -105 102t-39.5 141.5q0 78 38 142t103.5 101t146.5 37q85 0 151 -37t103 -101t38 -142q0 -77 -38 -141.5t-104 -102t-146 -37.5q-81 0 -147.5 37.5zM433.5 88q47.5 27 75 73t27.5 101q1 57 -24 103t-71 72.5t-105 26.5t-106.5 -26.5t-75 -73
t-28.5 -102.5t24.5 -102t72 -72.5t105.5 -26.5q58 0 105.5 27zM157 764h80l85 -109l94 109h86l-146 -180h-56z" />
    <glyph glyph-name="uni01D3" unicode="&#x1d3;" horiz-adv-x="732" 
d="M137 65q-83 84 -83 254v376h83v-375q0 -138 60 -199.5t169 -61.5q113 0 173 63.5t60 197.5v375h86v-382q0 -107 -38 -181.5t-110 -112.5t-173 -38q-144 0 -227 84zM193 900h80l85 -109l94 109h86l-146 -180h-56z" />
    <glyph glyph-name="uni01D4" unicode="&#x1d4;" horiz-adv-x="623" 
d="M114 40.5q-50 59.5 -50 177.5v305h81v-327q0 -61 32 -99t92 -38q57 0 104 27.5t75 79t30 120.5l40 -14q-2 -87 -38.5 -153t-95 -102t-124.5 -36q-96 0 -146 59.5zM478 523h81v-523h-81v523zM139 764h80l85 -109l94 109h86l-146 -180h-56z" />
    <glyph glyph-name="uni01D5" unicode="&#x1d5;" horiz-adv-x="732" 
d="M137 65q-83 84 -83 254v376h83v-375q0 -138 60 -199.5t169 -61.5q113 0 173 63.5t60 197.5v375h86v-382q0 -107 -38 -181.5t-110 -112.5t-173 -38q-144 0 -227 84zM441 765.5q-21 19.5 -21 47.5t20.5 47.5t52.5 19.5q33 0 55 -19.5t22 -47.5t-21 -47.5t-54 -19.5
t-54 19.5zM183 765.5q-21 19.5 -21 47.5t20 47.5t52 19.5q33 0 54.5 -19.5t21.5 -47.5t-21 -47.5t-53 -19.5t-53 19.5zM162 1000h401v-80h-401v80z" />
    <glyph glyph-name="uni01D6" unicode="&#x1d6;" horiz-adv-x="623" 
d="M114 40.5q-50 59.5 -50 177.5v305h81v-327q0 -61 32 -99t92 -38q57 0 104 27.5t75 79t30 120.5l40 -14q-2 -87 -38.5 -153t-95 -102t-124.5 -36q-96 0 -146 59.5zM478 523h81v-523h-81v523zM387 629.5q-21 19.5 -21 47.5t20.5 47.5t52.5 19.5q33 0 55 -19.5t22 -47.5
t-21 -47.5t-54 -19.5t-54 19.5zM129 629.5q-21 19.5 -21 47.5t20 47.5t52 19.5q33 0 54.5 -19.5t21.5 -47.5t-21 -47.5t-53 -19.5t-53 19.5zM112 894h401v-80h-401v80z" />
    <glyph glyph-name="uni01D7" unicode="&#x1d7;" horiz-adv-x="732" 
d="M137 65q-83 84 -83 254v376h83v-375q0 -138 60 -199.5t169 -61.5q113 0 173 63.5t60 197.5v375h86v-382q0 -107 -38 -181.5t-110 -112.5t-173 -38q-144 0 -227 84zM441 765.5q-21 19.5 -21 47.5t20.5 47.5t52.5 19.5q33 0 55 -19.5t22 -47.5t-21 -47.5t-54 -19.5
t-54 19.5zM183 765.5q-21 19.5 -21 47.5t20 47.5t52 19.5q33 0 54.5 -19.5t21.5 -47.5t-21 -47.5t-53 -19.5t-53 19.5zM266 919l227 129l53 -82l-240 -110z" />
    <glyph glyph-name="uni01D8" unicode="&#x1d8;" horiz-adv-x="623" 
d="M114 40.5q-50 59.5 -50 177.5v305h81v-327q0 -61 32 -99t92 -38q57 0 104 27.5t75 79t30 120.5l40 -14q-2 -87 -38.5 -153t-95 -102t-124.5 -36q-96 0 -146 59.5zM478 523h81v-523h-81v523zM387 629.5q-21 19.5 -21 47.5t20.5 47.5t52.5 19.5q33 0 55 -19.5t22 -47.5
t-21 -47.5t-54 -19.5t-54 19.5zM129 629.5q-21 19.5 -21 47.5t20 47.5t52 19.5q33 0 54.5 -19.5t21.5 -47.5t-21 -47.5t-53 -19.5t-53 19.5zM172 826l227 129l53 -82l-240 -110z" />
    <glyph glyph-name="uni01D9" unicode="&#x1d9;" horiz-adv-x="732" 
d="M137 65q-83 84 -83 254v376h83v-375q0 -138 60 -199.5t169 -61.5q113 0 173 63.5t60 197.5v375h86v-382q0 -107 -38 -181.5t-110 -112.5t-173 -38q-144 0 -227 84zM441 765.5q-21 19.5 -21 47.5t20.5 47.5t52.5 19.5q33 0 55 -19.5t22 -47.5t-21 -47.5t-54 -19.5
t-54 19.5zM183 765.5q-21 19.5 -21 47.5t20 47.5t52 19.5q33 0 54.5 -19.5t21.5 -47.5t-21 -47.5t-53 -19.5t-53 19.5zM193 1054h80l85 -109l94 109h86l-146 -180h-56z" />
    <glyph glyph-name="uni01DA" unicode="&#x1da;" horiz-adv-x="623" 
d="M114 40.5q-50 59.5 -50 177.5v305h81v-327q0 -61 32 -99t92 -38q57 0 104 27.5t75 79t30 120.5l40 -14q-2 -87 -38.5 -153t-95 -102t-124.5 -36q-96 0 -146 59.5zM478 523h81v-523h-81v523zM387 629.5q-21 19.5 -21 47.5t20.5 47.5t52.5 19.5q33 0 55 -19.5t22 -47.5
t-21 -47.5t-54 -19.5t-54 19.5zM129 629.5q-21 19.5 -21 47.5t20 47.5t52 19.5q33 0 54.5 -19.5t21.5 -47.5t-21 -47.5t-53 -19.5t-53 19.5zM140 949h80l85 -109l94 109h86l-146 -180h-56z" />
    <glyph glyph-name="uni01DB" unicode="&#x1db;" horiz-adv-x="732" 
d="M137 65q-83 84 -83 254v376h83v-375q0 -138 60 -199.5t169 -61.5q113 0 173 63.5t60 197.5v375h86v-382q0 -107 -38 -181.5t-110 -112.5t-173 -38q-144 0 -227 84zM441 765.5q-21 19.5 -21 47.5t20.5 47.5t52.5 19.5q33 0 55 -19.5t22 -47.5t-21 -47.5t-54 -19.5
t-54 19.5zM183 765.5q-21 19.5 -21 47.5t20 47.5t52 19.5q33 0 54.5 -19.5t21.5 -47.5t-21 -47.5t-53 -19.5t-53 19.5zM183 1012l55 60l224 -158l-41 -40z" />
    <glyph glyph-name="uni01DC" unicode="&#x1dc;" horiz-adv-x="623" 
d="M114 40.5q-50 59.5 -50 177.5v305h81v-327q0 -61 32 -99t92 -38q57 0 104 27.5t75 79t30 120.5l40 -14q-2 -87 -38.5 -153t-95 -102t-124.5 -36q-96 0 -146 59.5zM478 523h81v-523h-81v523zM387 629.5q-21 19.5 -21 47.5t20.5 47.5t52.5 19.5q33 0 55 -19.5t22 -47.5
t-21 -47.5t-54 -19.5t-54 19.5zM129 629.5q-21 19.5 -21 47.5t20 47.5t52 19.5q33 0 54.5 -19.5t21.5 -47.5t-21 -47.5t-53 -19.5t-53 19.5zM173 934l55 72l224 -190l-41 -49z" />
    <glyph glyph-name="uni01DE" unicode="&#x1de;" horiz-adv-x="676" 
d="M287 695h107l258 -695h-94l-54 151h-329l-55 -151h-97zM474 233l-134 374l-136 -374h270zM413 765.5q-21 19.5 -21 47.5t20.5 47.5t52.5 19.5q33 0 55 -19.5t22 -47.5t-21 -47.5t-54 -19.5t-54 19.5zM155 765.5q-21 19.5 -21 47.5t20 47.5t52 19.5q33 0 54.5 -19.5
t21.5 -47.5t-21 -47.5t-53 -19.5t-53 19.5zM138 977h401v-80h-401v80z" />
    <glyph glyph-name="uni01DF" unicode="&#x1df;" horiz-adv-x="638" 
d="M166 18q-57 37 -89.5 101.5t-32.5 143.5q0 77 34.5 141t93.5 101t128 37q71 0 126 -37t85.5 -100.5t30.5 -141.5q0 -77 -33 -141.5t-90 -102.5t-127 -38q-69 0 -126 37zM403.5 86.5q44.5 26.5 71 72.5t26.5 103q0 58 -23 104t-64 72t-92 26q-52 0 -96.5 -26.5t-71 -73
t-26.5 -102.5q0 -58 23 -104t64 -72t93 -26q51 0 95.5 26.5zM500 523h82l1 -523h-81zM393 629.5q-21 19.5 -21 47.5t20.5 47.5t52.5 19.5q33 0 55 -19.5t22 -47.5t-21 -47.5t-54 -19.5t-54 19.5zM135 629.5q-21 19.5 -21 47.5t20 47.5t52 19.5q33 0 54.5 -19.5t21.5 -47.5
t-21 -47.5t-53 -19.5t-53 19.5zM118 894h401v-80h-401v80z" />
    <glyph glyph-name="uni01E0" unicode="&#x1e0;" horiz-adv-x="676" 
d="M287 695h107l258 -695h-94l-54 151h-329l-55 -151h-97zM474 233l-134 374l-136 -374h270zM285 765.5q-21 19.5 -21 47.5t20 47.5t52 19.5q33 0 54.5 -19.5t21.5 -47.5t-21 -47.5t-53 -19.5t-53 19.5zM137 975h401v-80h-401v80z" />
    <glyph glyph-name="uni01E1" unicode="&#x1e1;" horiz-adv-x="638" 
d="M166 18q-57 37 -89.5 101.5t-32.5 143.5q0 77 34.5 141t93.5 101t128 37q71 0 126 -37t85.5 -100.5t30.5 -141.5q0 -77 -33 -141.5t-90 -102.5t-127 -38q-69 0 -126 37zM403.5 86.5q44.5 26.5 71 72.5t26.5 103q0 58 -23 104t-64 72t-92 26q-52 0 -96.5 -26.5t-71 -73
t-26.5 -102.5q0 -58 23 -104t64 -72t93 -26q51 0 95.5 26.5zM500 523h82l1 -523h-81zM266 629.5q-21 19.5 -21 47.5t20 47.5t52 19.5q33 0 54.5 -19.5t21.5 -47.5t-21 -47.5t-53 -19.5t-53 19.5zM119 894h401v-80h-401v80z" />
    <glyph glyph-name="uni01E2" unicode="&#x1e2;" horiz-adv-x="865" 
d="M389 695h414v-82h-304v-228h262v-86h-262v-213h305v-86h-386v151h-218l-80 -151h-97zM418 233v329l-174 -329h174zM297 845h401v-80h-401v80z" />
    <glyph glyph-name="uni01E3" unicode="&#x1e3;" horiz-adv-x="1066" 
d="M598 16.5q-61 35.5 -94 99.5t-31 146q1 77 36.5 141t97.5 101.5t138 37.5q93 0 154 -40.5t88.5 -104.5t25.5 -135q-1 -24 -6 -42h-449q5 -74 54.5 -116.5t132.5 -42.5q54 0 94.5 22.5t71.5 60.5l67 -42q-38 -56 -99.5 -88.5t-140.5 -32.5t-140 35.5zM407.5 105.5
q51.5 46.5 62.5 132.5h-211q-78 0 -110.5 -45t1 -89.5t120.5 -44.5q86 0 137.5 46.5zM70 62.5q-52 81.5 -0.5 163t181.5 81.5h218q0 68 -38 110.5t-121 42.5q-59 0 -97 -24t-63 -71l-84 37q34 63 97 101.5t149 38.5q78 0 132.5 -29t82 -79.5t24.5 -111.5l-9 -64
q-1 -81 -38 -144t-102 -98t-148 -35q-132 0 -184 81.5zM928 296q0 42 -19.5 80.5t-59 63t-95.5 24.5q-75 0 -126 -45t-66 -123h366zM332 673h401v-80h-401v80z" />
    <glyph glyph-name="Gcaron" unicode="&#x1e6;" horiz-adv-x="758" 
d="M199 28.5q-79 47.5 -122 130t-41 182.5q2 95 48.5 176.5t127.5 129.5t182 48q93 0 161.5 -39.5t107 -99.5t46.5 -120h-89q-8 44 -36 85.5t-77.5 68.5t-117.5 27q-76 0 -135.5 -36.5t-92.5 -99.5t-36 -140q-3 -83 28.5 -147t90.5 -99.5t136 -35.5q65 0 121 29.5t92 82
t43 119.5h88q-7 -81 -50.5 -151.5t-119 -114t-175.5 -43.5q-101 0 -180 47.5zM373 340h351v-50l-70 -28h-281v78zM207 900h80l85 -109l94 109h86l-146 -180h-56z" />
    <glyph glyph-name="gcaron" unicode="&#x1e7;" horiz-adv-x="624" 
d="M189.5 -244q-60.5 38 -100.5 112l71 32q28 -49 70.5 -77t88.5 -28q79 0 123.5 55.5t45.5 149.5v523h80v-519q-1 -87 -32 -151.5t-86.5 -99.5t-127.5 -35t-132.5 38zM158.5 19q-54.5 38 -84.5 103t-28 141q2 77 37 141t92.5 101t124.5 37t120 -37t82 -101t27 -141
t-36 -141.5t-90.5 -102.5t-122.5 -38q-67 0 -121.5 38zM393 86q42 26 68 72t27 104q2 57 -20.5 103.5t-62.5 72.5t-89 26t-91 -26.5t-68 -73t-27 -102.5q-2 -57 20 -103t62.5 -72.5t89.5 -26.5t91 26zM139 764h80l85 -109l94 109h86l-146 -180h-56z" />
    <glyph glyph-name="uni01E8" unicode="&#x1e8;" horiz-adv-x="617" 
d="M145 342v-342h-81v695h81v-319l384 319h114l-398 -335l429 -360h-127zM136 900h80l85 -109l94 109h86l-146 -180h-56z" />
    <glyph glyph-name="uni01E9" unicode="&#x1e9;" horiz-adv-x="571" 
d="M143 246v-246h-82v746h82v-468l318 245h135l-346 -260l355 -263h-137zM187 764h80l85 -109l94 109h86l-146 -180h-56z" />
    <glyph glyph-name="uni01EA" unicode="&#x1ea;" horiz-adv-x="781" 
d="M518 -266q-144 -29 -212.5 -17.5t-93.5 55.5q-19 33 -3.5 76.5t66.5 91.5t136 95q32 6 43.5 -5t6.5 -30q-89 -47 -140.5 -98t-28.5 -89q17 -27 69.5 -27.5t117.5 17.5zM199 28q-79 47 -122 128t-41 181q2 96 47.5 178t126.5 131t184 49q101 0 179.5 -46t121.5 -127.5
t42 -184.5q-2 -97 -49 -178.5t-128 -129.5t-181 -48q-101 0 -180 47zM520 97q60 38 92.5 102t34.5 138q2 79 -28.5 142.5t-89.5 100.5t-140 37q-75 0 -135 -39.5t-93.5 -104t-35.5 -136.5q-3 -82 27.5 -145t89.5 -98t138 -35q80 0 140 38z" />
    <glyph glyph-name="uni01EB" unicode="&#x1eb;" horiz-adv-x="660" 
d="M457 -266q-144 -29 -212.5 -17.5t-93.5 55.5q-19 33 -3.5 76.5t66.5 91.5t136 95q32 6 43.5 -5t6.5 -30q-89 -47 -140.5 -98t-28.5 -89q17 -27 69.5 -27.5t117.5 17.5zM186.5 18.5q-66.5 37.5 -105 102t-39.5 141.5q0 78 38 142t103.5 101t146.5 37q85 0 151 -37
t103 -101t38 -142q0 -77 -38 -141.5t-104 -102t-146 -37.5q-81 0 -147.5 37.5zM433.5 88q47.5 27 75 73t27.5 101q1 57 -24 103t-71 72.5t-105 26.5t-106.5 -26.5t-75 -73t-28.5 -102.5t24.5 -102t72 -72.5t105.5 -26.5q58 0 105.5 27z" />
    <glyph glyph-name="uni01EC" unicode="&#x1ec;" horiz-adv-x="781" 
d="M518 -266q-144 -29 -212.5 -17.5t-93.5 55.5q-19 33 -3.5 76.5t66.5 91.5t136 95q32 6 43.5 -5t6.5 -30q-89 -47 -140.5 -98t-28.5 -89q17 -27 69.5 -27.5t117.5 17.5zM199 28q-79 47 -122 128t-41 181q2 96 47.5 178t126.5 131t184 49q101 0 179.5 -46t121.5 -127.5
t42 -184.5q-2 -97 -49 -178.5t-128 -129.5t-181 -48q-101 0 -180 47zM520 97q60 38 92.5 102t34.5 138q2 79 -28.5 142.5t-89.5 100.5t-140 37q-75 0 -135 -39.5t-93.5 -104t-35.5 -136.5q-3 -82 27.5 -145t89.5 -98t138 -35q80 0 140 38zM189 845h401v-80h-401v80z" />
    <glyph glyph-name="uni01ED" unicode="&#x1ed;" horiz-adv-x="660" 
d="M457 -266q-144 -29 -212.5 -17.5t-93.5 55.5q-19 33 -3.5 76.5t66.5 91.5t136 95q32 6 43.5 -5t6.5 -30q-89 -47 -140.5 -98t-28.5 -89q17 -27 69.5 -27.5t117.5 17.5zM186.5 18.5q-66.5 37.5 -105 102t-39.5 141.5q0 78 38 142t103.5 101t146.5 37q85 0 151 -37
t103 -101t38 -142q0 -77 -38 -141.5t-104 -102t-146 -37.5q-81 0 -147.5 37.5zM433.5 88q47.5 27 75 73t27.5 101q1 57 -24 103t-71 72.5t-105 26.5t-106.5 -26.5t-75 -73t-28.5 -102.5t24.5 -102t72 -72.5t105.5 -26.5q58 0 105.5 27zM128 709h401v-80h-401v80z" />
    <glyph glyph-name="uni01F1" unicode="&#x1f1;" horiz-adv-x="1329" 
d="M108 695h198q93 0 164.5 -49t110 -129t38.5 -170q0 -88 -38 -168t-110 -129.5t-169 -49.5h-220zM66 695h85v-695h-85v695zM305 78q72 0 125.5 40.5t81 106.5t24.5 139q-6 117 -68.5 185t-172.5 68h-161l12 -539h159zM1156 614h-465v81h633l-489 -618h469v-77h-641z" />
    <glyph glyph-name="uni01F2" unicode="&#x1f2;" horiz-adv-x="1208" 
d="M108 695h198q93 0 164.5 -49t110 -129t38.5 -170q0 -88 -38 -168t-110 -129.5t-169 -49.5h-220zM66 695h85v-695h-85v695zM305 78q72 0 125.5 40.5t81 106.5t24.5 139q-6 117 -68.5 185t-172.5 68h-161l12 -539h159zM1042 443h-355v80h513l-363 -446h359v-77h-521z" />
    <glyph glyph-name="uni01F3" unicode="&#x1f3;" horiz-adv-x="1181" 
d="M166 18q-57 37 -89.5 101.5t-32.5 143.5q0 77 34.5 141t93.5 101t128 37q71 0 126 -37t85.5 -100.5t30.5 -141.5q0 -77 -33 -141.5t-90 -102.5t-127 -38q-69 0 -126 37zM403.5 86.5q44.5 26.5 71.5 72.5t27 103q0 58 -23.5 104t-64.5 72t-92 26q-52 0 -96.5 -26.5
t-71 -73t-26.5 -102.5q0 -58 23 -104t64 -72t93 -26q51 0 95.5 26.5zM500 746h82l1 -746h-81zM1015 443h-355v80h513l-363 -446h359v-77h-521z" />
    <glyph glyph-name="uni01F4" unicode="&#x1f4;" horiz-adv-x="758" 
d="M199 28.5q-79 47.5 -122 130t-41 182.5q2 95 48.5 176.5t127.5 129.5t182 48q93 0 161.5 -39.5t107 -99.5t46.5 -120h-89q-8 44 -36 85.5t-77.5 68.5t-117.5 27q-76 0 -135.5 -36.5t-92.5 -99.5t-36 -140q-3 -83 28.5 -147t90.5 -99.5t136 -35.5q65 0 121 29.5t92 82
t43 119.5h88q-7 -81 -50.5 -151.5t-119 -114t-175.5 -43.5q-101 0 -180 47.5zM373 340h351v-50l-70 -28h-281v78zM239 789l227 129l53 -82l-240 -110z" />
    <glyph glyph-name="uni01F5" unicode="&#x1f5;" horiz-adv-x="624" 
d="M189.5 -244q-60.5 38 -100.5 112l71 32q28 -49 70.5 -77t88.5 -28q79 0 123.5 55.5t45.5 149.5v523h80v-519q-1 -87 -32 -151.5t-86.5 -99.5t-127.5 -35t-132.5 38zM158.5 19q-54.5 38 -84.5 103t-28 141q2 77 37 141t92.5 101t124.5 37t120 -37t82 -101t27 -141
t-36 -141.5t-90.5 -102.5t-122.5 -38q-67 0 -121.5 38zM393 86q42 26 68 72t27 104q2 57 -20.5 103.5t-62.5 72.5t-89 26t-91 -26.5t-68 -73t-27 -102.5q-2 -57 20 -103t62.5 -72.5t89.5 -26.5t91 26zM206 641l227 129l53 -82l-240 -110z" />
    <glyph glyph-name="uni01F8" unicode="&#x1f8;" horiz-adv-x="708" 
d="M148 561v-561h-82v695h82l414 -581v581h81v-695h-93zM215 885l55 72l224 -190l-41 -49z" />
    <glyph glyph-name="uni01F9" unicode="&#x1f9;" horiz-adv-x="623" 
d="M478 328q0 61 -32 98.5t-92 37.5q-57 0 -104 -27.5t-75 -78.5t-30 -120l-41 13q2 87 38.5 153t95 102t124.5 36q97 0 147 -59.5t50 -177.5v-305h-81v328zM64 523h81v-523h-81v523zM157 749l55 72l224 -190l-41 -49z" />
    <glyph glyph-name="Aringacute" unicode="&#x1fa;" horiz-adv-x="676" 
d="M287 695h107l258 -695h-94l-54 151h-329l-55 -151h-97zM474 233l-134 374l-136 -374h270zM260 664q-35 15 -54.5 40t-19.5 56q0 30 19 56t53.5 41t78.5 15t79.5 -14.5t55.5 -39.5t20 -56q0 -30 -19.5 -56.5t-55 -41.5t-79.5 -15q-43 0 -78 15zM395.5 716.5
q20.5 17.5 19.5 43.5q2 27 -17 45t-57 18t-58 -18t-21 -45q-2 -26 18 -43.5t58 -17.5q37 0 57.5 17.5zM219 917l227 97l53 -62l-240 -83z" />
    <glyph glyph-name="aringacute" unicode="&#x1fb;" horiz-adv-x="638" 
d="M166 18q-57 37 -89.5 101.5t-32.5 143.5q0 77 34.5 141t93.5 101t128 37q71 0 126 -37t85.5 -100.5t30.5 -141.5q0 -77 -33 -141.5t-90 -102.5t-127 -38q-69 0 -126 37zM403.5 86.5q44.5 26.5 71 72.5t26.5 103q0 58 -23 104t-64 72t-92 26q-52 0 -96.5 -26.5t-71 -73
t-26.5 -102.5q0 -58 23 -104t64 -72t93 -26q51 0 95.5 26.5zM500 523h82l1 -523h-81zM241 582.5q-35 18.5 -54.5 49.5t-19.5 69q0 37 19 69t53.5 50.5t78.5 18.5t79.5 -18t55.5 -48.5t20 -68.5q0 -37 -19.5 -69.5t-55 -51.5t-79.5 -19q-43 0 -78 18.5zM376.5 647.5
q20.5 21.5 19.5 53.5q2 33 -17 55t-57 22t-58 -22t-21 -55q-2 -32 18 -53.5t58 -21.5q37 0 57.5 21.5zM180 921l227 129l53 -82l-240 -110z" />
    <glyph glyph-name="AEacute" unicode="&#x1fc;" horiz-adv-x="865" 
d="M389 695h414v-82h-304v-228h262v-86h-262v-213h305v-86h-386v151h-218l-80 -151h-97zM418 233v329l-174 -329h174zM359 789l227 129l53 -82l-240 -110z" />
    <glyph glyph-name="aeacute" unicode="&#x1fd;" horiz-adv-x="1066" 
d="M598 16.5q-61 35.5 -94 99.5t-31 146q1 77 36.5 141t97.5 101.5t138 37.5q93 0 154 -40.5t88.5 -104.5t25.5 -135q-1 -24 -6 -42h-449q5 -74 54.5 -116.5t132.5 -42.5q54 0 94.5 22.5t71.5 60.5l67 -42q-38 -56 -99.5 -88.5t-140.5 -32.5t-140 35.5zM407.5 105.5
q51.5 46.5 62.5 132.5h-211q-78 0 -110.5 -45t1 -89.5t120.5 -44.5q86 0 137.5 46.5zM70 62.5q-52 81.5 -0.5 163t181.5 81.5h218q0 68 -38 110.5t-121 42.5q-59 0 -97 -24t-63 -71l-84 37q34 63 97 101.5t149 38.5q78 0 132.5 -29t82 -79.5t24.5 -111.5l-9 -64
q-1 -81 -38 -144t-102 -98t-148 -35q-132 0 -184 81.5zM928 296q0 42 -19.5 80.5t-59 63t-95.5 24.5q-75 0 -126 -45t-66 -123h366zM393 605l227 129l53 -82l-240 -110z" />
    <glyph glyph-name="Oslashacute" unicode="&#x1fe;" horiz-adv-x="781" 
d="M199 28q-79 47 -122 128t-41 181q2 96 47.5 178t126.5 131t184 49q101 0 179.5 -46t121.5 -127.5t42 -184.5q-2 -97 -49 -178.5t-128 -129.5t-181 -48q-101 0 -180 47zM520 97q60 38 92.5 102t34.5 138q2 79 -28.5 142.5t-89.5 100.5t-140 37q-75 0 -135 -39.5
t-93.5 -104t-35.5 -136.5q-3 -82 27.5 -145t89.5 -98t138 -35q80 0 140 38zM557 692h98l-420 -710h-97zM251 789l227 129l53 -82l-240 -110z" />
    <glyph glyph-name="oslashacute" unicode="&#x1ff;" horiz-adv-x="660" 
d="M186.5 18.5q-66.5 37.5 -105 102t-39.5 141.5q0 78 38 142t103.5 101t146.5 37q85 0 151 -37t103 -101t38 -142q0 -77 -38 -141.5t-104 -102t-146 -37.5q-81 0 -147.5 37.5zM433.5 88q47.5 27 75 73t27.5 101q1 57 -24 103t-71 72.5t-105 26.5t-106.5 -26.5t-75 -73
t-28.5 -102.5t24.5 -102t72 -72.5t105.5 -26.5q58 0 105.5 27zM502 572h98l-420 -599h-97zM224 641l227 129l53 -82l-240 -110z" />
    <glyph glyph-name="uni0200" unicode="&#x200;" horiz-adv-x="676" 
d="M287 695h107l258 -695h-94l-54 151h-329l-55 -151h-97zM474 233l-134 374l-136 -374h270zM108 836l41 82l191 -129l-28 -63zM377 918l191 -129l-28 -63l-204 110z" />
    <glyph glyph-name="uni0201" unicode="&#x201;" horiz-adv-x="638" 
d="M166 18q-57 37 -89.5 101.5t-32.5 143.5q0 77 34.5 141t93.5 101t128 37q71 0 126 -37t85.5 -100.5t30.5 -141.5q0 -77 -33 -141.5t-90 -102.5t-127 -38q-69 0 -126 37zM403.5 86.5q44.5 26.5 71 72.5t26.5 103q0 58 -23 104t-64 72t-92 26q-52 0 -96.5 -26.5t-71 -73
t-26.5 -102.5q0 -58 23 -104t64 -72t93 -26q51 0 95.5 26.5zM500 523h82l1 -523h-81zM36 700l41 82l191 -129l-28 -63zM305 782l191 -129l-28 -63l-204 110z" />
    <glyph glyph-name="uni0202" unicode="&#x202;" horiz-adv-x="676" 
d="M287 695h107l258 -695h-94l-54 151h-329l-55 -151h-97zM474 233l-134 374l-136 -374h270zM436.5 848q39.5 -18 59 -49t19.5 -70h-76q3 35 -19 55t-81 20q-58 0 -80 -20t-21 -55h-77q-1 39 18.5 70t60 49t99.5 18q58 0 97.5 -18z" />
    <glyph glyph-name="uni0203" unicode="&#x203;" horiz-adv-x="638" 
d="M166 18q-57 37 -89.5 101.5t-32.5 143.5q0 77 34.5 141t93.5 101t128 37q71 0 126 -37t85.5 -100.5t30.5 -141.5q0 -77 -33 -141.5t-90 -102.5t-127 -38q-69 0 -126 37zM403.5 86.5q44.5 26.5 71 72.5t26.5 103q0 58 -23 104t-64 72t-92 26q-52 0 -96.5 -26.5t-71 -73
t-26.5 -102.5q0 -58 23 -104t64 -72t93 -26q51 0 95.5 26.5zM500 523h82l1 -523h-81zM419.5 716q39.5 -18 59 -49t19.5 -70h-76q3 35 -19 55t-81 20q-58 0 -80 -20t-21 -55h-77q-1 39 18.5 70t60 49t99.5 18q58 0 97.5 -18z" />
    <glyph glyph-name="uni0204" unicode="&#x204;" horiz-adv-x="565" 
d="M58 695h446l-1 -82h-364v-228h323l-1 -86h-322v-213h365v-86h-446v695zM0 836l41 82l191 -129l-28 -63zM269 918l191 -129l-28 -63l-204 110z" />
    <glyph glyph-name="uni0205" unicode="&#x205;" horiz-adv-x="640" 
d="M173 17q-64 36 -100.5 100t-34.5 145q1 77 40 141t104 101.5t142 37.5q93 0 156.5 -40.5t93.5 -105t28 -134.5q-2 -31 -6 -42h-471q4 -73 58.5 -116t139.5 -43q56 0 101.5 23.5t75.5 59.5l68 -42q-37 -55 -104 -88t-147 -33t-144 36zM518 296q0 41 -22.5 80t-65 63.5
t-98.5 24.5q-77 0 -133 -45.5t-72 -122.5h391zM37 700l41 82l191 -129l-28 -63zM306 782l191 -129l-28 -63l-204 110z" />
    <glyph glyph-name="uni0206" unicode="&#x206;" horiz-adv-x="565" 
d="M58 695h446l-1 -82h-364v-228h323l-1 -86h-322v-213h365v-86h-446v695zM383.5 861q39.5 -18 59 -49t19.5 -70h-76q3 35 -19 55t-81 20q-58 0 -80 -20t-21 -55h-77q-1 39 18.5 70t60 49t99.5 18q58 0 97.5 -18z" />
    <glyph glyph-name="uni0207" unicode="&#x207;" horiz-adv-x="640" 
d="M173 17q-64 36 -100.5 100t-34.5 145q1 77 40 141t104 101.5t142 37.5q93 0 156.5 -40.5t93.5 -105t28 -134.5q-2 -31 -6 -42h-471q4 -73 58.5 -116t139.5 -43q56 0 101.5 23.5t75.5 59.5l68 -42q-37 -55 -104 -88t-147 -33t-144 36zM518 296q0 41 -22.5 80t-65 63.5
t-98.5 24.5q-77 0 -133 -45.5t-72 -122.5h391zM420.5 703q39.5 -18 59 -49t19.5 -70h-76q3 35 -19 55t-81 20q-58 0 -80 -20t-21 -55h-77q-1 39 18.5 70t60 49t99.5 18q58 0 97.5 -18z" />
    <glyph glyph-name="uni0208" unicode="&#x208;" horiz-adv-x="228" 
d="M76 695h81v-695h-81v695zM-169 836l41 82l191 -129l-28 -63zM100 918l191 -129l-28 -63l-204 110z" />
    <glyph glyph-name="uni0209" unicode="&#x209;" horiz-adv-x="220" 
d="M68 523h83v-523h-83v523zM-173 700l41 82l191 -129l-28 -63zM96 782l191 -129l-28 -63l-204 110z" />
    <glyph glyph-name="uni020A" unicode="&#x20a;" horiz-adv-x="228" 
d="M76 695h81v-695h-81v695zM214.5 838q39.5 -18 59 -49t19.5 -70h-76q3 35 -19 55t-81 20q-58 0 -80 -20t-21 -55h-77q-1 39 18.5 70t60 49t99.5 18q58 0 97.5 -18z" />
    <glyph glyph-name="uni020B" unicode="&#x20b;" horiz-adv-x="220" 
d="M-65 600q-1 39 18.5 70t60 49t99.5 18q58 0 97.5 -18t59 -49t19.5 -70h-75q2 35 -20 54.5t-81 19.5q-58 0 -80 -19.5t-21 -54.5h-77zM68 523h83v-523h-83v523z" />
    <glyph glyph-name="uni020C" unicode="&#x20c;" horiz-adv-x="781" 
d="M199 28q-79 47 -122 128t-41 181q2 96 47.5 178t126.5 131t184 49q101 0 179.5 -46t121.5 -127.5t42 -184.5q-2 -97 -49 -178.5t-128 -129.5t-181 -48q-101 0 -180 47zM520 97q60 38 92.5 102t34.5 138q2 79 -28.5 142.5t-89.5 100.5t-140 37q-75 0 -135 -39.5
t-93.5 -104t-35.5 -136.5q-3 -82 27.5 -145t89.5 -98t138 -35q80 0 140 38zM108 836l41 82l191 -129l-28 -63zM377 918l191 -129l-28 -63l-204 110z" />
    <glyph glyph-name="uni020D" unicode="&#x20d;" horiz-adv-x="660" 
d="M186.5 18.5q-66.5 37.5 -105 102t-39.5 141.5q0 78 38 142t103.5 101t146.5 37q85 0 151 -37t103 -101t38 -142q0 -77 -38 -141.5t-104 -102t-146 -37.5q-81 0 -147.5 37.5zM433.5 88q47.5 27 75 73t27.5 101q1 57 -24 103t-71 72.5t-105 26.5t-106.5 -26.5t-75 -73
t-28.5 -102.5t24.5 -102t72 -72.5t105.5 -26.5q58 0 105.5 27zM45 700l41 82l191 -129l-28 -63zM314 782l191 -129l-28 -63l-204 110z" />
    <glyph glyph-name="uni020E" unicode="&#x20e;" horiz-adv-x="781" 
d="M199 28q-79 47 -122 128t-41 181q2 96 47.5 178t126.5 131t184 49q101 0 179.5 -46t121.5 -127.5t42 -184.5q-2 -97 -49 -178.5t-128 -129.5t-181 -48q-101 0 -180 47zM520 97q60 38 92.5 102t34.5 138q2 79 -28.5 142.5t-89.5 100.5t-140 37q-75 0 -135 -39.5
t-93.5 -104t-35.5 -136.5q-3 -82 27.5 -145t89.5 -98t138 -35q80 0 140 38zM491.5 826q39.5 -18 59 -49t19.5 -70h-76q3 35 -19 55t-81 20q-58 0 -80 -20t-21 -55h-77q-1 39 18.5 70t60 49t99.5 18q58 0 97.5 -18z" />
    <glyph glyph-name="uni020F" unicode="&#x20f;" horiz-adv-x="660" 
d="M186.5 18.5q-66.5 37.5 -105 102t-39.5 141.5q0 78 38 142t103.5 101t146.5 37q85 0 151 -37t103 -101t38 -142q0 -77 -38 -141.5t-104 -102t-146 -37.5q-81 0 -147.5 37.5zM433.5 88q47.5 27 75 73t27.5 101q1 57 -24 103t-71 72.5t-105 26.5t-106.5 -26.5t-75 -73
t-28.5 -102.5t24.5 -102t72 -72.5t105.5 -26.5q58 0 105.5 27zM430.5 715q39.5 -18 59 -49t19.5 -70h-76q3 35 -19 55t-81 20q-58 0 -80 -20t-21 -55h-77q-1 39 18.5 70t60 49t99.5 18q58 0 97.5 -18z" />
    <glyph glyph-name="uni0210" unicode="&#x210;" horiz-adv-x="575" 
d="M106 328l-2 367h170q77 1 133.5 -27t86.5 -75.5t30 -105.5q0 -97 -65 -155t-185 -58l297 -274h-116zM64 695h84v-695h-84v695zM269 342q81 0 125.5 38.5t42.5 106.5q-4 68 -47.5 99t-119.5 31h-148l2 -275h145zM5 836l41 82l191 -129l-28 -63zM274 918l191 -129l-28 -63
l-204 110z" />
    <glyph glyph-name="uni0211" unicode="&#x211;" horiz-adv-x="518" 
d="M106 238q3 101 33 169.5t76 101.5t99 33q54 0 94 -28.5t60.5 -77.5t18.5 -108h-80q1 60 -25.5 98t-75.5 38q-43 0 -79 -26.5t-58 -78t-24 -121.5h-39zM64 523h81v-523h-81v523zM-24 700l41 82l191 -129l-28 -63zM245 782l191 -129l-28 -63l-204 110z" />
    <glyph glyph-name="uni0212" unicode="&#x212;" horiz-adv-x="575" 
d="M106 328l-2 367h170q77 1 133.5 -27t86.5 -75.5t30 -105.5q0 -97 -65 -155t-185 -58l297 -274h-116zM64 695h84v-695h-84v695zM269 342q81 0 125.5 38.5t42.5 106.5q-4 68 -47.5 99t-119.5 31h-148l2 -275h145zM358.5 842q39.5 -18 59 -49t19.5 -70h-76q3 35 -19 55
t-81 20q-58 0 -80 -20t-21 -55h-77q-1 39 18.5 70t60 49t99.5 18q58 0 97.5 -18z" />
    <glyph glyph-name="uni0213" unicode="&#x213;" horiz-adv-x="518" 
d="M106 238q3 101 33 169.5t76 101.5t99 33q54 0 94 -28.5t60.5 -77.5t18.5 -108h-80q1 60 -25.5 98t-75.5 38q-43 0 -79 -26.5t-58 -78t-24 -121.5h-39zM64 523h81v-523h-81v523zM359.5 699q39.5 -18 59 -49t19.5 -70h-76q3 35 -19 55t-81 20q-58 0 -80 -20t-21 -55h-77
q-1 39 18.5 70t60 49t99.5 18q58 0 97.5 -18z" />
    <glyph glyph-name="uni0214" unicode="&#x214;" horiz-adv-x="732" 
d="M137 65q-83 84 -83 254v376h83v-375q0 -138 60 -199.5t169 -61.5q113 0 173 63.5t60 197.5v375h86v-382q0 -107 -38 -181.5t-110 -112.5t-173 -38q-144 0 -227 84zM83 836l41 82l191 -129l-28 -63zM352 918l191 -129l-28 -63l-204 110z" />
    <glyph glyph-name="uni0215" unicode="&#x215;" horiz-adv-x="623" 
d="M114 40.5q-50 59.5 -50 177.5v305h81v-327q0 -61 32 -99t92 -38q57 0 104 27.5t75 79t30 120.5l40 -14q-2 -87 -38.5 -153t-95 -102t-124.5 -36q-96 0 -146 59.5zM478 523h81v-523h-81v523zM29 700l41 82l191 -129l-28 -63zM298 782l191 -129l-28 -63l-204 110z" />
    <glyph glyph-name="uni0216" unicode="&#x216;" horiz-adv-x="732" 
d="M137 65q-83 84 -83 254v376h83v-375q0 -138 60 -199.5t169 -61.5q113 0 173 63.5t60 197.5v375h86v-382q0 -107 -38 -181.5t-110 -112.5t-173 -38q-144 0 -227 84zM466.5 804q39.5 -18 59 -49t19.5 -70h-76q3 35 -19 55t-81 20q-58 0 -80 -20t-21 -55h-77q-1 39 18.5 70
t60 49t99.5 18q58 0 97.5 -18z" />
    <glyph glyph-name="uni0217" unicode="&#x217;" horiz-adv-x="623" 
d="M114 40.5q-50 59.5 -50 177.5v305h81v-327q0 -61 32 -99t92 -38q57 0 104 27.5t75 79t30 120.5l40 -14q-2 -87 -38.5 -153t-95 -102t-124.5 -36q-96 0 -146 59.5zM478 523h81v-523h-81v523zM412.5 704q39.5 -18 59 -49t19.5 -70h-76q3 35 -19 55t-81 20q-58 0 -80 -20
t-21 -55h-77q-1 39 18.5 70t60 49t99.5 18q58 0 97.5 -18z" />
    <glyph glyph-name="uni0218" unicode="&#x218;" horiz-adv-x="670" 
d="M164 10.5q-67 29.5 -104.5 81t-41.5 117.5h80q13 -70 69 -111.5t151 -41.5q100 0 157.5 36t57.5 96q0 52 -51 80.5t-168 36.5q-130 10 -195.5 59t-64.5 133q1 53 34.5 98.5t94.5 72.5t139 27q84 0 146.5 -31t98 -81t44.5 -109h-90q-14 62 -62 102.5t-137 40.5
q-57 0 -99 -17t-63.5 -45t-21.5 -59q0 -46 36.5 -73.5t115.5 -35.5l27 -2q159 -9 231 -59.5t72 -134.5q0 -55 -34.5 -103t-103 -77.5t-163.5 -29.5q-88 0 -155 29.5z" />
    <glyph glyph-name="uni0219" unicode="&#x219;" horiz-adv-x="630" 
d="M165 7q-63 26 -97.5 69.5t-37.5 95.5h84q9 -49 58 -82.5t141 -33.5q61 0 101.5 14.5t59 37t16.5 46.5q-2 23 -17 37t-53.5 22.5t-112.5 13.5q-122 8 -180.5 50t-59.5 109q-1 42 26.5 77.5t81.5 57t131 21.5q76 0 132 -22.5t89.5 -62.5t43.5 -93h-89q-11 49 -55 76.5
t-121 27.5q-53 0 -86.5 -12.5t-48.5 -32t-13 -40.5q4 -36 39 -55t113 -23q99 -5 157.5 -23.5t84 -49.5t28.5 -76q2 -43 -25.5 -83t-88 -66t-152.5 -26q-86 0 -149 26z" />
    <glyph glyph-name="uni021A" unicode="&#x21a;" horiz-adv-x="601" 
d="M259 616h-265v79h613v-79h-266v-616h-82v616z" />
    <glyph glyph-name="uni021B" unicode="&#x21b;" horiz-adv-x="466" 
d="M188 442h-180v81h180v175h86v-175h184v-81h-184v-442h-86v442z" />
    <glyph glyph-name="uni021E" unicode="&#x21e;" horiz-adv-x="648" 
d="M508 307h-368v-307h-81v695h81v-311h368v311h81v-695h-81v307zM151 900h80l85 -109l94 109h86l-146 -180h-56z" />
    <glyph glyph-name="uni021F" unicode="&#x21f;" horiz-adv-x="613" 
d="M470 328q0 61 -32 98.5t-91 37.5q-57 0 -104 -27.5t-75 -78.5t-30 -120l-41 13q2 87 38.5 153t95 102t124.5 36q96 0 146.5 -59.5t50.5 -177.5v-305h-82v328zM56 746h82v-746h-82v746zM173 829h80l85 -109l94 109h86l-146 -180h-56z" />
    <glyph glyph-name="uni0226" unicode="&#x226;" horiz-adv-x="676" 
d="M287 695h107l258 -695h-94l-54 151h-329l-55 -151h-97zM474 233l-134 374l-136 -374h270zM285 765.5q-21 19.5 -21 47.5t20 47.5t52 19.5q33 0 54.5 -19.5t21.5 -47.5t-21 -47.5t-53 -19.5t-53 19.5z" />
    <glyph glyph-name="uni0227" unicode="&#x227;" horiz-adv-x="638" 
d="M166 18q-57 37 -89.5 101.5t-32.5 143.5q0 77 34.5 141t93.5 101t128 37q71 0 126 -37t85.5 -100.5t30.5 -141.5q0 -77 -33 -141.5t-90 -102.5t-127 -38q-69 0 -126 37zM403.5 86.5q44.5 26.5 71 72.5t26.5 103q0 58 -23 104t-64 72t-92 26q-52 0 -96.5 -26.5t-71 -73
t-26.5 -102.5q0 -58 23 -104t64 -72t93 -26q51 0 95.5 26.5zM500 523h82l1 -523h-81zM266 629.5q-21 19.5 -21 47.5t20 47.5t52 19.5q33 0 54.5 -19.5t21.5 -47.5t-21 -47.5t-53 -19.5t-53 19.5z" />
    <glyph glyph-name="uni0228" unicode="&#x228;" horiz-adv-x="565" 
d="M119 -198q93 -8 151 -5t81 17.5t16 42.5q-6 24 -37 28t-81 0l-23 -2l38 152l49 3l-15 -104q61 7 101 -10.5t50 -66.5q10 -55 -26 -88t-115.5 -43t-194.5 15zM58 695h446l-1 -82h-364v-228h323l-1 -86h-322v-213h365v-86h-446v695z" />
    <glyph glyph-name="uni0229" unicode="&#x229;" horiz-adv-x="640" 
d="M148 -189q93 -8 151 -5t81 17.5t16 42.5q-6 24 -37 28t-81 0l-23 -2l38 152l49 3l-15 -104q61 7 101 -10.5t50 -66.5q10 -55 -26 -88t-115.5 -43t-194.5 15zM173 17q-64 36 -100.5 100t-34.5 145q1 77 40 141t104 101.5t142 37.5q93 0 156.5 -40.5t93.5 -105t28 -134.5
q-2 -31 -6 -42h-471q4 -73 58.5 -116t139.5 -43q56 0 101.5 23.5t75.5 59.5l68 -42q-37 -55 -104 -88t-147 -33t-144 36zM518 296q0 41 -22.5 80t-65 63.5t-98.5 24.5q-77 0 -133 -45.5t-72 -122.5h391z" />
    <glyph glyph-name="uni022A" unicode="&#x22a;" horiz-adv-x="781" 
d="M199 28q-79 47 -122 128t-41 181q2 96 47.5 178t126.5 131t184 49q101 0 179.5 -46t121.5 -127.5t42 -184.5q-2 -97 -49 -178.5t-128 -129.5t-181 -48q-101 0 -180 47zM520 97q60 38 92.5 102t34.5 138q2 79 -28.5 142.5t-89.5 100.5t-140 37q-75 0 -135 -39.5
t-93.5 -104t-35.5 -136.5q-3 -82 27.5 -145t89.5 -98t138 -35q80 0 140 38zM466 765.5q-21 19.5 -21 47.5t20.5 47.5t52.5 19.5q33 0 55 -19.5t22 -47.5t-21 -47.5t-54 -19.5t-54 19.5zM208 765.5q-21 19.5 -21 47.5t20 47.5t52 19.5q33 0 54.5 -19.5t21.5 -47.5t-21 -47.5
t-53 -19.5t-53 19.5zM191 989h401v-80h-401v80z" />
    <glyph glyph-name="uni022B" unicode="&#x22b;" horiz-adv-x="660" 
d="M186.5 18.5q-66.5 37.5 -105 102t-39.5 141.5q0 78 38 142t103.5 101t146.5 37q85 0 151 -37t103 -101t38 -142q0 -77 -38 -141.5t-104 -102t-146 -37.5q-81 0 -147.5 37.5zM433.5 88q47.5 27 75 73t27.5 101q1 57 -24 103t-71 72.5t-105 26.5t-106.5 -26.5t-75 -73
t-28.5 -102.5t24.5 -102t72 -72.5t105.5 -26.5q58 0 105.5 27zM405 629.5q-21 19.5 -21 47.5t20.5 47.5t52.5 19.5q33 0 55 -19.5t22 -47.5t-21 -47.5t-54 -19.5t-54 19.5zM147 629.5q-21 19.5 -21 47.5t20 47.5t52 19.5q33 0 54.5 -19.5t21.5 -47.5t-21 -47.5t-53 -19.5
t-53 19.5zM130 894h401v-80h-401v80z" />
    <glyph glyph-name="uni022C" unicode="&#x22c;" horiz-adv-x="781" 
d="M199 28q-79 47 -122 128t-41 181q2 96 47.5 178t126.5 131t184 49q101 0 179.5 -46t121.5 -127.5t42 -184.5q-2 -97 -49 -178.5t-128 -129.5t-181 -48q-101 0 -180 47zM520 97q60 38 92.5 102t34.5 138q2 79 -28.5 142.5t-89.5 100.5t-140 37q-75 0 -135 -39.5
t-93.5 -104t-35.5 -136.5q-3 -82 27.5 -145t89.5 -98t138 -35q80 0 140 38zM174 719q-8 48 2 86.5t38 61.5t73 23q33 0 56.5 -12t52.5 -35q23 -18 39.5 -27t36.5 -9q39 0 54 21.5t9 57.5h74q8 -51 -6.5 -88.5t-47 -58t-76.5 -20.5q-31 0 -54.5 12t-52.5 35q-25 19 -41.5 28
t-36.5 9q-29 0 -39.5 -20t-3.5 -64h-77zM189 985h401v-80h-401v80z" />
    <glyph glyph-name="uni022D" unicode="&#x22d;" horiz-adv-x="660" 
d="M186.5 18.5q-66.5 37.5 -105 102t-39.5 141.5q0 78 38 142t103.5 101t146.5 37q85 0 151 -37t103 -101t38 -142q0 -77 -38 -141.5t-104 -102t-146 -37.5q-81 0 -147.5 37.5zM433.5 88q47.5 27 75 73t27.5 101q1 57 -24 103t-71 72.5t-105 26.5t-106.5 -26.5t-75 -73
t-28.5 -102.5t24.5 -102t72 -72.5t105.5 -26.5q58 0 105.5 27zM127 583q-8 48 2 86.5t38 61.5t73 23q33 0 56.5 -12t52.5 -35q23 -18 39.5 -27t36.5 -9q39 0 54 21.5t9 57.5h74q8 -51 -6.5 -88.5t-47 -58t-76.5 -20.5q-31 0 -54.5 12t-52.5 35q-25 19 -41.5 28t-36.5 9
q-29 0 -39.5 -20t-3.5 -64h-77zM144 904h401v-80h-401v80z" />
    <glyph glyph-name="uni022E" unicode="&#x22e;" horiz-adv-x="781" 
d="M199 28q-79 47 -122 128t-41 181q2 96 47.5 178t126.5 131t184 49q101 0 179.5 -46t121.5 -127.5t42 -184.5q-2 -97 -49 -178.5t-128 -129.5t-181 -48q-101 0 -180 47zM520 97q60 38 92.5 102t34.5 138q2 79 -28.5 142.5t-89.5 100.5t-140 37q-75 0 -135 -39.5
t-93.5 -104t-35.5 -136.5q-3 -82 27.5 -145t89.5 -98t138 -35q80 0 140 38zM338 765.5q-21 19.5 -21 47.5t20 47.5t52 19.5q33 0 54.5 -19.5t21.5 -47.5t-21 -47.5t-53 -19.5t-53 19.5z" />
    <glyph glyph-name="uni022F" unicode="&#x22f;" horiz-adv-x="660" 
d="M186.5 18.5q-66.5 37.5 -105 102t-39.5 141.5q0 78 38 142t103.5 101t146.5 37q85 0 151 -37t103 -101t38 -142q0 -77 -38 -141.5t-104 -102t-146 -37.5q-81 0 -147.5 37.5zM433.5 88q47.5 27 75 73t27.5 101q1 57 -24 103t-71 72.5t-105 26.5t-106.5 -26.5t-75 -73
t-28.5 -102.5t24.5 -102t72 -72.5t105.5 -26.5q58 0 105.5 27zM277 629.5q-21 19.5 -21 47.5t20 47.5t52 19.5q33 0 54.5 -19.5t21.5 -47.5t-21 -47.5t-53 -19.5t-53 19.5z" />
    <glyph glyph-name="uni0230" unicode="&#x230;" horiz-adv-x="781" 
d="M199 28q-79 47 -122 128t-41 181q2 96 47.5 178t126.5 131t184 49q101 0 179.5 -46t121.5 -127.5t42 -184.5q-2 -97 -49 -178.5t-128 -129.5t-181 -48q-101 0 -180 47zM520 97q60 38 92.5 102t34.5 138q2 79 -28.5 142.5t-89.5 100.5t-140 37q-75 0 -135 -39.5
t-93.5 -104t-35.5 -136.5q-3 -82 27.5 -145t89.5 -98t138 -35q80 0 140 38zM338 765.5q-21 19.5 -21 47.5t20 47.5t52 19.5q33 0 54.5 -19.5t21.5 -47.5t-21 -47.5t-53 -19.5t-53 19.5zM189 996h401v-80h-401v80z" />
    <glyph glyph-name="uni0231" unicode="&#x231;" horiz-adv-x="660" 
d="M186.5 18.5q-66.5 37.5 -105 102t-39.5 141.5q0 78 38 142t103.5 101t146.5 37q85 0 151 -37t103 -101t38 -142q0 -77 -38 -141.5t-104 -102t-146 -37.5q-81 0 -147.5 37.5zM433.5 88q47.5 27 75 73t27.5 101q1 57 -24 103t-71 72.5t-105 26.5t-106.5 -26.5t-75 -73
t-28.5 -102.5t24.5 -102t72 -72.5t105.5 -26.5q58 0 105.5 27zM277 629.5q-21 19.5 -21 47.5t20 47.5t52 19.5q33 0 54.5 -19.5t21.5 -47.5t-21 -47.5t-53 -19.5t-53 19.5zM130 894h401v-80h-401v80z" />
    <glyph glyph-name="uni0232" unicode="&#x232;" horiz-adv-x="504" 
d="M199 209l-246 486h96l195 -389l218 389h98l-272 -483v-212h-89v209zM50 845h401v-80h-401v80z" />
    <glyph glyph-name="uni0233" unicode="&#x233;" horiz-adv-x="623" 
d="M114 40.5q-50 59.5 -50 177.5v305h81v-327q0 -61 32 -99t92 -38q57 0 104 27.5t75 79t30 120.5l40 -14q-2 -87 -38.5 -153t-95 -102t-124.5 -36q-96 0 -146 59.5zM478 523h81v-746h-81v746zM110 709h401v-80h-401v80z" />
    <glyph glyph-name="uni0237" unicode="&#x237;" horiz-adv-x="234" 
d="M-138 -154h17q87 0 140 45.5t53 125.5v506h82v-500q0 -71 -32 -127t-89 -87.5t-128 -31.5h-43v69z" />
    <glyph glyph-name="uni0251" unicode="&#x251;" horiz-adv-x="638" 
d="M166 18q-57 37 -89.5 101.5t-32.5 143.5q0 77 34.5 141t93.5 101t128 37q71 0 126 -37t85.5 -100.5t30.5 -141.5q0 -77 -33 -141.5t-90 -102.5t-127 -38q-69 0 -126 37zM403.5 86.5q44.5 26.5 71 72.5t26.5 103q0 58 -23 104t-64 72t-92 26q-52 0 -96.5 -26.5t-71 -73
t-26.5 -102.5q0 -58 23 -104t64 -72t93 -26q51 0 95.5 26.5zM500 523h82l1 -523h-81z" />
    <glyph glyph-name="circumflex" unicode="&#x2c6;" horiz-adv-x="395" 
d="M191 732h56l144 -180h-80l-88 109l-92 -109h-85z" />
    <glyph glyph-name="caron" unicode="&#x2c7;" horiz-adv-x="395" 
d="M17 728h80l85 -109l94 109h86l-146 -180h-56z" />
    <glyph glyph-name="uni02C9" unicode="&#x2c9;" horiz-adv-x="592" 
d="M98 673h401v-80h-401v80z" />
    <glyph glyph-name="breve" unicode="&#x2d8;" horiz-adv-x="403" 
d="M108.5 582q-39.5 18 -59 49t-19.5 70h76q-3 -35 19 -55t81 -20q58 0 80 20t21 55h77q1 -39 -18.5 -70t-60 -49t-99.5 -18q-58 0 -97.5 18z" />
    <glyph glyph-name="dotaccent" unicode="&#x2d9;" horiz-adv-x="318" 
d="M115 593.5q-21 19.5 -21 47.5t20 47.5t52 19.5q33 0 54.5 -19.5t21.5 -47.5t-21 -47.5t-53 -19.5t-53 19.5z" />
    <glyph glyph-name="ring" unicode="&#x2da;" horiz-adv-x="360" 
d="M104 570.5q-35 18.5 -54.5 49.5t-19.5 69q0 37 19 69t53.5 50.5t78.5 18.5t79.5 -18t55.5 -48.5t20 -68.5q0 -37 -19.5 -69.5t-55 -51.5t-79.5 -19q-43 0 -78 18.5zM239.5 635.5q20.5 21.5 19.5 53.5q2 33 -17 55t-57 22t-58 -22t-21 -55q-2 -32 18 -53.5t58 -21.5
q37 0 57.5 21.5z" />
    <glyph glyph-name="ogonek" unicode="&#x2db;" horiz-adv-x="377" 
d="M423 -266q-144 -29 -212.5 -17.5t-93.5 55.5q-19 33 -3.5 76.5t66.5 91.5t136 95q32 6 43.5 -5t6.5 -30q-89 -47 -140.5 -98t-28.5 -89q17 -27 69.5 -27.5t117.5 17.5z" />
    <glyph glyph-name="tilde" unicode="&#x2dc;" horiz-adv-x="512" 
d="M49 547q-8 48 2 86.5t38 61.5t73 23q33 0 56.5 -12t52.5 -35q23 -18 39.5 -27t36.5 -9q39 0 54 21.5t9 57.5h74q8 -51 -6.5 -88.5t-47 -58t-76.5 -20.5q-31 0 -54.5 12t-52.5 35q-25 19 -41.5 28t-36.5 9q-29 0 -39.5 -20t-3.5 -64h-77z" />
    <glyph glyph-name="hungarumlaut" unicode="&#x2dd;" horiz-adv-x="672" 
d="M259 617l191 129l41 -82l-204 -110zM222 746l41 -82l-204 -110l-28 63z" />
    <glyph glyph-name="gravecomb" unicode="&#x300;" 
d="M-343 713l55 72l224 -190l-41 -49z" />
    <glyph glyph-name="acutecomb" unicode="&#x301;" 
d="M-305 605l227 129l53 -82l-240 -110z" />
    <glyph glyph-name="uni0302" unicode="&#x302;" 
d="M-204 732h56l144 -180h-80l-88 109l-92 -109h-85z" />
    <glyph glyph-name="tildecomb" unicode="&#x303;" 
d="M-463 547q-8 48 2 86.5t38 61.5t73 23q33 0 56.5 -12t52.5 -35q23 -18 39.5 -27t36.5 -9q39 0 54 21.5t9 57.5h74q8 -51 -6.5 -88.5t-47 -58t-76.5 -20.5q-31 0 -54.5 12t-52.5 35q-25 19 -41.5 28t-36.5 9q-29 0 -39.5 -20t-3.5 -64h-77z" />
    <glyph glyph-name="uni0304" unicode="&#x304;" 
d="M-494 673h401v-80h-401v80z" />
    <glyph glyph-name="uni0305" unicode="&#x305;" 
d="M-494 673h401v-80h-401v80z" />
    <glyph glyph-name="uni0306" unicode="&#x306;" 
d="M-294.5 582q-39.5 18 -59 49t-19.5 70h76q-3 -35 19 -55t81 -20q58 0 80 20t21 55h77q1 -39 -18.5 -70t-60 -49t-99.5 -18q-58 0 -97.5 18z" />
    <glyph glyph-name="uni0307" unicode="&#x307;" 
d="M-203 593.5q-21 19.5 -21 47.5t20 47.5t52 19.5q33 0 54.5 -19.5t21.5 -47.5t-21 -47.5t-53 -19.5t-53 19.5z" />
    <glyph glyph-name="uni0308" unicode="&#x308;" 
d="M-204 593.5q-21 19.5 -21 47.5t20.5 47.5t52.5 19.5q33 0 55 -19.5t22 -47.5t-21 -47.5t-54 -19.5t-54 19.5zM-462 593.5q-21 19.5 -21 47.5t20 47.5t52 19.5q33 0 54.5 -19.5t21.5 -47.5t-21 -47.5t-53 -19.5t-53 19.5z" />
    <glyph glyph-name="hookabovecomb" unicode="&#x309;" 
d="M-227 470l-21 114q7 -1 13.5 -1.5t13.5 -0.5q50 -2 81 6.5t37 31.5q7 27 -16.5 43.5t-77.5 15.5t-134 -23l-6 66q101 26 175.5 21t110.5 -37.5t26 -85.5q-10 -49 -50 -71.5t-101 -15.5l-2 -66z" />
    <glyph glyph-name="uni030A" unicode="&#x30a;" 
d="M-256 570.5q-35 18.5 -54.5 49.5t-19.5 69q0 37 19 69t53.5 50.5t78.5 18.5t79.5 -18t55.5 -48.5t20 -68.5q0 -37 -19.5 -69.5t-55 -51.5t-79.5 -19q-43 0 -78 18.5zM-120.5 635.5q20.5 21.5 19.5 53.5q2 33 -17 55t-57 22t-58 -22t-21 -55q-2 -32 18 -53.5t58 -21.5
q37 0 57.5 21.5z" />
    <glyph glyph-name="uni030B" unicode="&#x30b;" 
d="M-413 617l191 129l41 -82l-204 -110zM-450 746l41 -82l-204 -110l-28 63z" />
    <glyph glyph-name="uni030C" unicode="&#x30c;" 
d="M-378 728h80l85 -109l94 109h86l-146 -180h-56z" />
    <glyph glyph-name="uni030D" unicode="&#x30d;" 
d="M-227 714h99l-12 -172h-75z" />
    <glyph glyph-name="uni030E" unicode="&#x30e;" 
d="M-227 714h99l-12 -172h-75z" />
    <glyph glyph-name="uni030F" unicode="&#x30f;" 
d="M-641 664l41 82l191 -129l-28 -63zM-372 746l191 -129l-28 -63l-204 110z" />
    <glyph glyph-name="uni0310" unicode="&#x310;" 
d="M-294.5 582q-39.5 18 -59 49t-19.5 70h76q-3 -35 19 -55t81 -20q58 0 80 20t21 55h77q1 -39 -18.5 -70t-60 -49t-99.5 -18q-58 0 -97.5 18zM-253 673.5q-21 19.5 -21 47.5t20 47.5t52 19.5q33 0 54.5 -19.5t21.5 -47.5t-21 -47.5t-53 -19.5t-53 19.5z" />
    <glyph glyph-name="uni0311" unicode="&#x311;" 
d="M-97.5 832q39.5 -18 59 -49t19.5 -70h-76q3 35 -19 55t-81 20q-58 0 -80 -20t-21 -55h-77q-1 39 18.5 70t60 49t99.5 18q58 0 97.5 -18z" />
    <glyph glyph-name="uni0312" unicode="&#x312;" 
d="M-129 746h98l4 -198h-61z" />
    <glyph glyph-name="uni0313" unicode="&#x313;" 
d="M-84 746h99l-41 -198h-61z" />
    <glyph glyph-name="uni0314" unicode="&#x314;" 
d="M-129 746h98l4 -198h-61z" />
    <glyph glyph-name="uni0315" unicode="&#x315;" 
d="M-84 746h99l-41 -198h-61z" />
    <glyph glyph-name="uni0316" unicode="&#x316;" 
d="M-129 -37h98l4 -186h-61z" />
    <glyph glyph-name="uni0317" unicode="&#x317;" 
d="M-84 -37h99l-41 -186h-61z" />
    <glyph glyph-name="uni031B" unicode="&#x31b;" 
d="M37 626q58 0 80 24.5t21 99.5h77q1 -79 -18.5 -114.5t-60 -53.5t-99.5 -18v62z" />
    <glyph glyph-name="dotbelowcomb" unicode="&#x323;" 
d="M110.5 -244q-14.5 7 -23 19.5t-8.5 26.5q0 15 8.5 27.5t23 19.5t32.5 7q17 0 32 -7t23.5 -19.5t8.5 -27.5q0 -14 -8.5 -26t-23.5 -19.5t-32 -7.5q-18 0 -32.5 7z" />
    <glyph glyph-name="uni0326" unicode="&#x326;" 
d="M36 -267l29 227h111l-72 -236z" />
    <glyph glyph-name="uni0327" unicode="&#x327;" 
d="M48 -198q93 -8 151 -5t81 17.5t16 42.5q-6 24 -37 28t-81 0l-23 -2l38 152l49 3l-15 -104q61 7 101 -10.5t50 -66.5q10 -55 -26 -88t-115.5 -43t-194.5 15z" />
    <glyph glyph-name="uni0328" unicode="&#x328;" 
d="M423 -266q-144 -29 -212.5 -17.5t-93.5 55.5q-19 33 -3.5 76.5t66.5 91.5t136 95q32 6 43.5 -5t6.5 -30q-89 -47 -140.5 -98t-28.5 -89q17 -27 69.5 -27.5t117.5 17.5z" />
    <glyph glyph-name="uni0341" unicode="&#x341;" 
d="M-305 605l227 129l53 -82l-240 -110z" />
    <glyph glyph-name="uni0342" unicode="&#x342;" 
d="M-463 547q-8 48 2 86.5t38 61.5t73 23q33 0 56.5 -12t52.5 -35q23 -18 39.5 -27t36.5 -9q39 0 54 21.5t9 57.5h74q8 -51 -6.5 -88.5t-47 -58t-76.5 -20.5q-31 0 -54.5 12t-52.5 35q-25 19 -41.5 28t-36.5 9q-29 0 -39.5 -20t-3.5 -64h-77z" />
    <glyph glyph-name="uni035D" unicode="&#x35d;" 
d="M-294.5 582q-39.5 18 -59 49t-19.5 70h76q-3 -35 19 -55t81 -20q58 0 80 20t21 55h77q1 -39 -18.5 -70t-60 -49t-99.5 -18q-58 0 -97.5 18z" />
    <glyph glyph-name="uni0360" unicode="&#x360;" 
d="M-463 547q-8 48 2 86.5t38 61.5t73 23q33 0 56.5 -12t52.5 -35q23 -18 39.5 -27t36.5 -9q39 0 54 21.5t9 57.5h74q8 -51 -6.5 -88.5t-47 -58t-76.5 -20.5q-31 0 -54.5 12t-52.5 35q-25 19 -41.5 28t-36.5 9q-29 0 -39.5 -20t-3.5 -64h-77z" />
    <glyph glyph-name="uni0361" unicode="&#x361;" 
d="M-97.5 683q39.5 -18 59 -49t19.5 -70h-76q3 35 -19 55t-81 20q-58 0 -80 -20t-21 -55h-77q-1 39 18.5 70t60 49t99.5 18q58 0 97.5 -18z" />
    <glyph glyph-name="uni03BC" unicode="&#x3bc;" horiz-adv-x="623" 
d="M114 40.5q-50 59.5 -50 177.5v305h81v-327q0 -61 32 -99t92 -38q57 0 104 27.5t75 79t30 120.5l40 -14q-2 -87 -38.5 -153t-95 -102t-124.5 -36q-96 0 -146 59.5zM64 508l30 -12l48 -719h-78v731zM478 523h81v-523h-81v523z" />
    <glyph glyph-name="uni0455" unicode="&#x455;" horiz-adv-x="630" 
d="M165 7q-63 26 -97.5 69.5t-37.5 95.5h84q9 -49 58 -82.5t141 -33.5q61 0 101.5 14.5t59 37t16.5 46.5q-2 23 -17 37t-53.5 22.5t-112.5 13.5q-122 8 -180.5 50t-59.5 109q-1 42 26.5 77.5t81.5 57t131 21.5q76 0 132 -22.5t89.5 -62.5t43.5 -93h-89q-11 49 -55 76.5
t-121 27.5q-53 0 -86.5 -12.5t-48.5 -32t-13 -40.5q4 -36 39 -55t113 -23q99 -5 157.5 -23.5t84 -49.5t28.5 -76q2 -43 -25.5 -83t-88 -66t-152.5 -26q-86 0 -149 26z" />
    <glyph glyph-name="uni1E02" unicode="&#x1e02;" horiz-adv-x="606" 
d="M91 385h186q131 0 204 -42.5t82 -130.5q6 -55 -23.5 -104t-89.5 -78.5t-143 -29.5h-223zM61 695h82v-695h-82v695zM294 78q83 0 130 31t51 91q3 52 -35 85t-115 33h-217l1 -240h185zM299 385q71 0 109.5 29.5t42.5 83.5q4 57 -33 88t-108 31h-194l14 -232h169zM92 695
h219q119 0 172.5 -55.5t50.5 -139.5q-4 -84 -89.5 -127.5t-221.5 -43.5h-139zM250 765.5q-21 19.5 -21 47.5t20 47.5t52 19.5q33 0 54.5 -19.5t21.5 -47.5t-21 -47.5t-53 -19.5t-53 19.5z" />
    <glyph glyph-name="uni1E0A" unicode="&#x1e0a;" horiz-adv-x="662" 
d="M108 695h198q93 0 164.5 -49t110 -129t38.5 -170q0 -88 -38 -168t-110 -129.5t-169 -49.5h-220zM66 695h85v-695h-85v695zM305 78q72 0 125.5 40.5t81 106.5t24.5 139q-6 117 -68.5 185t-172.5 68h-161l12 -539h159zM278 765.5q-21 19.5 -21 47.5t20 47.5t52 19.5
q33 0 54.5 -19.5t21.5 -47.5t-21 -47.5t-53 -19.5t-53 19.5z" />
    <glyph glyph-name="uni1E1E" unicode="&#x1e1e;" horiz-adv-x="503" 
d="M54 695h434l-1 -89h-351v-252h320l-2 -89h-318v-265h-82v695zM199 765.5q-21 19.5 -21 47.5t20 47.5t52 19.5q33 0 54.5 -19.5t21.5 -47.5t-21 -47.5t-53 -19.5t-53 19.5z" />
    <glyph glyph-name="uni1E20" unicode="&#x1e20;" horiz-adv-x="758" 
d="M199 28.5q-79 47.5 -122 130t-41 182.5q2 95 48.5 176.5t127.5 129.5t182 48q93 0 161.5 -39.5t107 -99.5t46.5 -120h-89q-8 44 -36 85.5t-77.5 68.5t-117.5 27q-76 0 -135.5 -36.5t-92.5 -99.5t-36 -140q-3 -83 28.5 -147t90.5 -99.5t136 -35.5q65 0 121 29.5t92 82
t43 119.5h88q-7 -81 -50.5 -151.5t-119 -114t-175.5 -43.5q-101 0 -180 47.5zM373 340h351v-50l-70 -28h-281v78zM177 845h401v-80h-401v80z" />
    <glyph glyph-name="uni1E21" unicode="&#x1e21;" horiz-adv-x="624" 
d="M189.5 -244q-60.5 38 -100.5 112l71 32q28 -49 70.5 -77t88.5 -28q79 0 123.5 55.5t45.5 149.5v523h80v-519q-1 -87 -32 -151.5t-86.5 -99.5t-127.5 -35t-132.5 38zM158.5 19q-54.5 38 -84.5 103t-28 141q2 77 37 141t92.5 101t124.5 37t120 -37t82 -101t27 -141
t-36 -141.5t-90.5 -102.5t-122.5 -38q-67 0 -121.5 38zM393 86q42 26 68 72t27 104q2 57 -20.5 103.5t-62.5 72.5t-89 26t-91 -26.5t-68 -73t-27 -102.5q-2 -57 20 -103t62.5 -72.5t89.5 -26.5t91 26zM115 673h401v-80h-401v80z" />
    <glyph glyph-name="uni1E22" unicode="&#x1e22;" horiz-adv-x="648" 
d="M508 307h-368v-307h-81v695h81v-311h368v311h81v-695h-81v307zM271 765.5q-21 19.5 -21 47.5t20 47.5t52 19.5q33 0 54.5 -19.5t21.5 -47.5t-21 -47.5t-53 -19.5t-53 19.5z" />
    <glyph glyph-name="uni1E26" unicode="&#x1e26;" horiz-adv-x="648" 
d="M508 307h-368v-307h-81v695h81v-311h368v311h81v-695h-81v307zM399 765.5q-21 19.5 -21 47.5t20.5 47.5t52.5 19.5q33 0 55 -19.5t22 -47.5t-21 -47.5t-54 -19.5t-54 19.5zM141 765.5q-21 19.5 -21 47.5t20 47.5t52 19.5q33 0 54.5 -19.5t21.5 -47.5t-21 -47.5t-53 -19.5
t-53 19.5z" />
    <glyph glyph-name="uni1E30" unicode="&#x1e30;" horiz-adv-x="617" 
d="M145 342v-342h-81v695h81v-319l384 319h114l-398 -335l429 -360h-127zM168 789l227 129l53 -82l-240 -110z" />
    <glyph glyph-name="uni1E31" unicode="&#x1e31;" horiz-adv-x="571" 
d="M143 246v-246h-82v746h82v-468l318 245h135l-346 -260l355 -263h-137zM255 641l227 129l53 -82l-240 -110z" />
    <glyph glyph-name="uni1E3E" unicode="&#x1e3e;" horiz-adv-x="842" 
d="M148 542v-542h-82v695h98l250 -574l282 574h91v-695h-84v548l-260 -548h-65zM281 789l227 129l53 -82l-240 -110z" />
    <glyph glyph-name="uni1E3F" unicode="&#x1e3f;" horiz-adv-x="942" 
d="M796 319q0 70 -27 107.5t-85 37.5q-80 0 -125 -56t-48 -157l-41 13q2 84 32.5 147t81 97t112.5 34q90 0 135.5 -59.5t45.5 -169.5v-313h-81v319zM64 523h81v-523h-81v523zM430 319q0 65 -25.5 105t-82.5 40q-79 0 -126.5 -57.5t-50.5 -155.5l-41 13q2 84 32.5 147t81 97
t112.5 34q90 0 135.5 -64t45.5 -182v-296h-81v319zM366 641l227 129l53 -82l-240 -110z" />
    <glyph glyph-name="uni1E44" unicode="&#x1e44;" horiz-adv-x="708" 
d="M148 561v-561h-82v695h82l414 -581v581h81v-695h-93zM301 765.5q-21 19.5 -21 47.5t20 47.5t52 19.5q33 0 54.5 -19.5t21.5 -47.5t-21 -47.5t-53 -19.5t-53 19.5z" />
    <glyph glyph-name="uni1E54" unicode="&#x1e54;" horiz-adv-x="601" 
d="M91 695h191q95 0 161 -33t99 -88.5t35 -122.5q2 -76 -32 -136t-101.5 -95t-161.5 -36h-203zM60 695h82v-695h-82v695zM287 262q96 0 150 51.5t49 137.5q-4 79 -59 122.5t-140 43.5h-175l-9 -355h184zM161 789l227 129l53 -82l-240 -110z" />
    <glyph glyph-name="uni1E55" unicode="&#x1e55;" horiz-adv-x="643" 
d="M213.5 18q-55.5 37 -86 100.5t-30.5 141.5q0 77 33 141.5t90.5 102.5t127.5 38q69 0 125.5 -37t89 -101.5t32.5 -143.5q0 -77 -34.5 -141t-93 -101t-127.5 -37q-71 0 -126.5 37zM56 523h82l1 -746h-81zM413.5 85.5q44.5 26.5 71 73t26.5 103.5q0 58 -23 103.5t-64 71.5
t-93 26q-51 0 -95.5 -26t-71 -72.5t-26.5 -102.5q0 -58 23.5 -104.5t64.5 -72.5t92 -26t95.5 26.5zM216 641l227 129l53 -82l-240 -110z" />
    <glyph glyph-name="uni1E56" unicode="&#x1e56;" horiz-adv-x="601" 
d="M91 695h191q95 0 161 -33t99 -88.5t35 -122.5q2 -76 -32 -136t-101.5 -95t-161.5 -36h-203zM60 695h82v-695h-82v695zM287 262q96 0 150 51.5t49 137.5q-4 79 -59 122.5t-140 43.5h-175l-9 -355h184zM248 765.5q-21 19.5 -21 47.5t20 47.5t52 19.5q33 0 54.5 -19.5
t21.5 -47.5t-21 -47.5t-53 -19.5t-53 19.5z" />
    <glyph glyph-name="uni1E58" unicode="&#x1e58;" horiz-adv-x="575" 
d="M106 328l-2 367h170q77 1 133.5 -27t86.5 -75.5t30 -105.5q0 -97 -65 -155t-185 -58l297 -274h-116zM64 695h84v-695h-84v695zM269 342q81 0 125.5 38.5t42.5 106.5q-4 68 -47.5 99t-119.5 31h-148l2 -275h145zM235 765.5q-21 19.5 -21 47.5t20 47.5t52 19.5
q33 0 54.5 -19.5t21.5 -47.5t-21 -47.5t-53 -19.5t-53 19.5z" />
    <glyph glyph-name="uni1E60" unicode="&#x1e60;" horiz-adv-x="670" 
d="M164 10.5q-67 29.5 -104.5 81t-41.5 117.5h80q13 -70 69 -111.5t151 -41.5q100 0 157.5 36t57.5 96q0 52 -51 80.5t-168 36.5q-130 10 -195.5 59t-64.5 133q1 53 34.5 98.5t94.5 72.5t139 27q84 0 146.5 -31t98 -81t44.5 -109h-90q-14 62 -62 102.5t-137 40.5
q-57 0 -99 -17t-63.5 -45t-21.5 -59q0 -46 36.5 -73.5t115.5 -35.5l27 -2q159 -9 231 -59.5t72 -134.5q0 -55 -34.5 -103t-103 -77.5t-163.5 -29.5q-88 0 -155 29.5zM281 765.5q-21 19.5 -21 47.5t20 47.5t52 19.5q33 0 54.5 -19.5t21.5 -47.5t-21 -47.5t-53 -19.5t-53 19.5
z" />
    <glyph glyph-name="uni1E66" unicode="&#x1e66;" horiz-adv-x="670" 
d="M164 10.5q-67 29.5 -104.5 81t-41.5 117.5h80q13 -70 69 -111.5t151 -41.5q100 0 157.5 36t57.5 96q0 52 -51 80.5t-168 36.5q-130 10 -195.5 59t-64.5 133q1 53 34.5 98.5t94.5 72.5t139 27q84 0 146.5 -31t98 -81t44.5 -109h-90q-14 62 -62 102.5t-137 40.5
q-57 0 -99 -17t-63.5 -45t-21.5 -59q0 -46 36.5 -73.5t115.5 -35.5l27 -2q159 -9 231 -59.5t72 -134.5q0 -55 -34.5 -103t-103 -77.5t-163.5 -29.5q-88 0 -155 29.5zM162 900h80l85 -109l94 109h86l-146 -180h-56zM277 916.5q-21 19.5 -21 47.5t20 47.5t52 19.5
q33 0 54.5 -19.5t21.5 -47.5t-21 -47.5t-53 -19.5t-53 19.5z" />
    <glyph glyph-name="uni1E6A" unicode="&#x1e6a;" horiz-adv-x="601" 
d="M259 616h-265v79h613v-79h-266v-616h-82v616zM248 765.5q-21 19.5 -21 47.5t20 47.5t52 19.5q33 0 54.5 -19.5t21.5 -47.5t-21 -47.5t-53 -19.5t-53 19.5z" />
    <glyph glyph-name="uni1E74" unicode="&#x1e74;" horiz-adv-x="732" 
d="M137 65q-83 84 -83 254v376h83v-375q0 -138 60 -199.5t169 -61.5q113 0 173 63.5t60 197.5v375h86v-382q0 -107 -38 -181.5t-110 -112.5t-173 -38q-144 0 -227 84z" />
    <glyph glyph-name="uni1E7C" unicode="&#x1e7c;" horiz-adv-x="655" 
d="M17 695h92l207 -607l231 607h97l-274 -695h-107zM110 719q-8 48 2 86.5t38 61.5t73 23q33 0 56.5 -12t52.5 -35q23 -18 39.5 -27t36.5 -9q39 0 54 21.5t9 57.5h74q8 -51 -6.5 -88.5t-47 -58t-76.5 -20.5q-31 0 -54.5 12t-52.5 35q-25 19 -41.5 28t-36.5 9
q-29 0 -39.5 -20t-3.5 -64h-77z" />
    <glyph glyph-name="Wgrave" unicode="&#x1e80;" horiz-adv-x="887" 
d="M442 564l-166 -564h-77l-195 695h91l147 -545l155 545h87l181 -537l140 537h95l-198 -695h-68zM305 885l55 72l224 -190l-41 -49z" />
    <glyph glyph-name="wgrave" unicode="&#x1e81;" horiz-adv-x="936" 
d="M464 428l-183 -428h-73l-184 523h89l137 -407l172 407h89l161 -401l157 401h97l-222 -523h-68zM313 749l55 72l224 -190l-41 -49z" />
    <glyph glyph-name="Wacute" unicode="&#x1e82;" horiz-adv-x="887" 
d="M442 564l-166 -564h-77l-195 695h91l147 -545l155 545h87l181 -537l140 537h95l-198 -695h-68zM304 789l227 129l53 -82l-240 -110z" />
    <glyph glyph-name="wacute" unicode="&#x1e83;" horiz-adv-x="936" 
d="M464 428l-183 -428h-73l-184 523h89l137 -407l172 407h89l161 -401l157 401h97l-222 -523h-68zM362 641l227 129l53 -82l-240 -110z" />
    <glyph glyph-name="Wdieresis" unicode="&#x1e84;" horiz-adv-x="887" 
d="M442 564l-166 -564h-77l-195 695h91l147 -545l155 545h87l181 -537l140 537h95l-198 -695h-68zM519 765.5q-21 19.5 -21 47.5t20.5 47.5t52.5 19.5q33 0 55 -19.5t22 -47.5t-21 -47.5t-54 -19.5t-54 19.5zM261 765.5q-21 19.5 -21 47.5t20 47.5t52 19.5q33 0 54.5 -19.5
t21.5 -47.5t-21 -47.5t-53 -19.5t-53 19.5z" />
    <glyph glyph-name="wdieresis" unicode="&#x1e85;" horiz-adv-x="936" 
d="M464 428l-183 -428h-73l-184 523h89l137 -407l172 407h89l161 -401l157 401h97l-222 -523h-68zM543 629.5q-21 19.5 -21 47.5t20.5 47.5t52.5 19.5q33 0 55 -19.5t22 -47.5t-21 -47.5t-54 -19.5t-54 19.5zM285 629.5q-21 19.5 -21 47.5t20 47.5t52 19.5q33 0 54.5 -19.5
t21.5 -47.5t-21 -47.5t-53 -19.5t-53 19.5z" />
    <glyph glyph-name="uni1E86" unicode="&#x1e86;" horiz-adv-x="887" 
d="M442 564l-166 -564h-77l-195 695h91l147 -545l155 545h87l181 -537l140 537h95l-198 -695h-68zM391 765.5q-21 19.5 -21 47.5t20 47.5t52 19.5q33 0 54.5 -19.5t21.5 -47.5t-21 -47.5t-53 -19.5t-53 19.5z" />
    <glyph glyph-name="uni1E8A" unicode="&#x1e8a;" horiz-adv-x="666" 
d="M344 307l-228 -307h-105l271 360l-247 335h111l201 -280l206 280h106l-251 -335l278 -360h-114zM280 765.5q-21 19.5 -21 47.5t20 47.5t52 19.5q33 0 54.5 -19.5t21.5 -47.5t-21 -47.5t-53 -19.5t-53 19.5z" />
    <glyph glyph-name="uni1E8C" unicode="&#x1e8c;" horiz-adv-x="666" 
d="M344 307l-228 -307h-105l271 360l-247 335h111l201 -280l206 280h106l-251 -335l278 -360h-114zM408 765.5q-21 19.5 -21 47.5t20.5 47.5t52.5 19.5q33 0 55 -19.5t22 -47.5t-21 -47.5t-54 -19.5t-54 19.5zM150 765.5q-21 19.5 -21 47.5t20 47.5t52 19.5q33 0 54.5 -19.5
t21.5 -47.5t-21 -47.5t-53 -19.5t-53 19.5z" />
    <glyph glyph-name="uni1E8E" unicode="&#x1e8e;" horiz-adv-x="504" 
d="M199 209l-246 486h96l195 -389l218 389h98l-272 -483v-212h-89v209zM199 765.5q-21 19.5 -21 47.5t20 47.5t52 19.5q33 0 54.5 -19.5t21.5 -47.5t-21 -47.5t-53 -19.5t-53 19.5z" />
    <glyph glyph-name="uni1E90" unicode="&#x1e90;" horiz-adv-x="667" 
d="M494 614h-465v81h633l-489 -618h469v-77h-641zM305 904h56l144 -180h-80l-88 109l-92 -109h-85z" />
    <glyph glyph-name="uni1E9E" unicode="&#x1e9e;" horiz-adv-x="635" 
d="M59 481q1 63 31 116t87 85t134 32q90 0 150.5 -33t89 -86.5t25.5 -113.5q-1 -29 -19 -59t-46.5 -51.5t-58.5 -26.5q61 -10 94 -49.5t36 -94.5q3 -56 -22 -101.5t-73.5 -72t-116.5 -26.5h-152v78h141q64 0 102 31t41 89q2 50 -31.5 81t-97.5 31h-152v73h120q67 0 107.5 31
t43.5 84q3 59 -40.5 98.5t-129.5 39.5q-89 0 -135.5 -47.5t-46.5 -118.5v-470h-81v481z" />
    <glyph glyph-name="uni1EA2" unicode="&#x1ea2;" horiz-adv-x="676" 
d="M287 695h107l258 -695h-94l-218 607l-220 -607h-97zM146 233h394l-6 -82h-394zM316 670l-22 114q7 -1 13.5 -1.5t13.5 -0.5q50 -3 81 5.5t37 32.5q7 27 -16.5 43t-77.5 15.5t-134 -22.5l-6 66q101 26 176 21t110.5 -37.5t25.5 -85.5q-10 -50 -49.5 -72t-101.5 -16l-1 -66
z" />
    <glyph glyph-name="uni1EBC" unicode="&#x1ebc;" horiz-adv-x="565" 
d="M58 695h446l-1 -82h-364v-228h323l-1 -86h-322v-213h365v-86h-446v695zM74 743q-8 48 2 86.5t38 61.5t73 23q33 0 56.5 -12t52.5 -35q23 -18 39.5 -27t36.5 -9q39 0 54 21.5t9 57.5h74q8 -51 -6.5 -88.5t-47 -58t-76.5 -20.5q-31 0 -54.5 12t-52.5 35q-25 19 -41.5 28
t-36.5 9q-29 0 -39.5 -20t-3.5 -64h-77z" />
    <glyph glyph-name="uni1EBD" unicode="&#x1ebd;" horiz-adv-x="640" 
d="M173 17q-64 36 -100.5 100t-34.5 145q1 77 40 141t104 101.5t142 37.5q93 0 156.5 -40.5t93.5 -105t28 -134.5q-2 -31 -6 -42h-471q4 -73 58.5 -116t139.5 -43q56 0 101.5 23.5t75.5 59.5l68 -42q-37 -55 -104 -88t-147 -33t-144 36zM518 296q0 41 -22.5 80t-65 63.5
t-98.5 24.5q-77 0 -133 -45.5t-72 -122.5h391zM100 584q-8 48 2 86.5t38 61.5t73 23q33 0 56.5 -12t52.5 -35q23 -18 39.5 -27t36.5 -9q39 0 54 21.5t9 57.5h74q8 -51 -6.5 -88.5t-47 -58t-76.5 -20.5q-31 0 -54.5 12t-52.5 35q-25 19 -41.5 28t-36.5 9q-29 0 -39.5 -20
t-3.5 -64h-77z" />
    <glyph glyph-name="uni1ECE" unicode="&#x1ece;" horiz-adv-x="781" 
d="M199 28q-79 47 -122 128t-41 181q2 96 47.5 178t126.5 131t184 49q101 0 179.5 -46t121.5 -127.5t42 -184.5q-2 -97 -49 -178.5t-128 -129.5t-181 -48q-101 0 -180 47zM520 97q60 38 92.5 102t34.5 138q2 79 -28.5 142.5t-89.5 100.5t-140 37q-75 0 -135 -39.5
t-93.5 -104t-35.5 -136.5q-3 -82 27.5 -145t89.5 -98t138 -35q80 0 140 38zM368 670l-21 114q7 -1 13.5 -1.5t13.5 -0.5q50 -3 81 5.5t37 32.5q7 27 -16.5 43t-77.5 15.5t-134 -22.5l-6 66q101 26 175.5 21t110.5 -37.5t26 -85.5q-10 -50 -49.5 -72t-101.5 -16l-1 -66z" />
    <glyph glyph-name="uni1EE6" unicode="&#x1ee6;" horiz-adv-x="732" 
d="M137 65q-83 84 -83 254v376h83v-375q0 -138 60 -199.5t169 -61.5q113 0 173 63.5t60 197.5v375h86v-382q0 -107 -38 -181.5t-110 -112.5t-173 -38q-144 0 -227 84zM343 669l-21 114q7 -1 13.5 -1.5t13.5 -0.5q50 -2 81 6.5t37 31.5q7 27 -16.5 43.5t-77.5 15.5t-134 -23
l-6 66q101 26 175.5 21t110.5 -37.5t26 -85.5q-10 -49 -50 -71.5t-101 -15.5l-2 -66z" />
    <glyph glyph-name="Ygrave" unicode="&#x1ef2;" horiz-adv-x="504" 
d="M199 209l-246 486h96l195 -389l218 389h98l-272 -483v-212h-89v209zM113 885l55 72l224 -190l-41 -49z" />
    <glyph glyph-name="ygrave" unicode="&#x1ef3;" horiz-adv-x="623" 
d="M114 40.5q-50 59.5 -50 177.5v305h81v-327q0 -61 32 -99t92 -38q57 0 104 27.5t75 79t30 120.5l40 -14q-2 -87 -38.5 -153t-95 -102t-124.5 -36q-96 0 -146 59.5zM478 523h81v-746h-81v746zM149 713l55 72l224 -190l-41 -49z" />
    <glyph glyph-name="uni1EF6" unicode="&#x1ef6;" horiz-adv-x="504" 
d="M199 209l-246 486h96l195 -389l218 389h98l-272 -483v-212h-89v209zM229 669l-21 114q7 -1 13.5 -1.5t13.5 -0.5q50 -2 81 6.5t37 31.5q7 27 -16.5 43.5t-77.5 15.5t-134 -23l-6 66q101 26 175.5 21t110.5 -37.5t26 -85.5q-10 -49 -50 -71.5t-101 -15.5l-2 -66z" />
    <glyph glyph-name="uni1EF8" unicode="&#x1ef8;" horiz-adv-x="504" 
d="M199 209l-246 486h96l195 -389l218 389h98l-272 -483v-212h-89v209zM35 719q-8 48 2 86.5t38 61.5t73 23q33 0 56.5 -12t52.5 -35q23 -18 39.5 -27t36.5 -9q39 0 54 21.5t9 57.5h74q8 -51 -6.5 -88.5t-47 -58t-76.5 -20.5q-31 0 -54.5 12t-52.5 35q-25 19 -41.5 28
t-36.5 9q-29 0 -39.5 -20t-3.5 -64h-77z" />
    <glyph glyph-name="uni1EF9" unicode="&#x1ef9;" horiz-adv-x="623" 
d="M114 40.5q-50 59.5 -50 177.5v305h81v-327q0 -61 32 -99t92 -38q57 0 104 27.5t75 79t30 120.5l40 -14q-2 -87 -38.5 -153t-95 -102t-124.5 -36q-96 0 -146 59.5zM478 523h81v-746h-81v746zM100 573q-8 48 2 86.5t38 61.5t73 23q33 0 56.5 -12t52.5 -35q23 -18 39.5 -27
t36.5 -9q39 0 54 21.5t9 57.5h74q8 -51 -6.5 -88.5t-47 -58t-76.5 -20.5q-31 0 -54.5 12t-52.5 35q-25 19 -41.5 28t-36.5 9q-29 0 -39.5 -20t-3.5 -64h-77z" />
    <glyph glyph-name="uni2000" unicode="&#x2000;" horiz-adv-x="500" 
 />
    <glyph glyph-name="uni2001" unicode="&#x2001;" horiz-adv-x="1000" 
 />
    <glyph glyph-name="uni2002" unicode="&#x2002;" horiz-adv-x="500" 
 />
    <glyph glyph-name="uni2003" unicode="&#x2003;" horiz-adv-x="1000" 
 />
    <glyph glyph-name="uni2004" unicode="&#x2004;" horiz-adv-x="333" 
 />
    <glyph glyph-name="uni2005" unicode="&#x2005;" horiz-adv-x="250" 
 />
    <glyph glyph-name="uni2006" unicode="&#x2006;" horiz-adv-x="167" 
 />
    <glyph glyph-name="uni2007" unicode="&#x2007;" horiz-adv-x="800" 
 />
    <glyph glyph-name="uni2008" unicode="&#x2008;" horiz-adv-x="248" 
 />
    <glyph glyph-name="uni2009" unicode="&#x2009;" horiz-adv-x="200" 
 />
    <glyph glyph-name="uni200A" unicode="&#x200a;" horiz-adv-x="143" 
 />
    <glyph glyph-name="uni200B" unicode="&#x200b;" 
 />
    <glyph glyph-name="uni200C" unicode="&#x200c;" 
 />
    <glyph glyph-name="uni200D" unicode="&#x200d;" 
 />
    <glyph glyph-name="uni200E" unicode="&#x200e;" 
 />
    <glyph glyph-name="uni200F" unicode="&#x200f;" 
 />
    <glyph glyph-name="endash" unicode="&#x2013;" horiz-adv-x="762" 
d="M43 356h665v-88h-665v88z" />
    <glyph glyph-name="emdash" unicode="&#x2014;" horiz-adv-x="877" 
d="M43 356h785v-88h-785v88z" />
    <glyph glyph-name="quoteleft" unicode="&#x2018;" horiz-adv-x="164" 
d="M135 464h-64q-24 0 -35 10t-12.5 36t6.5 80l23 156h72z" />
    <glyph glyph-name="quoteright" unicode="&#x2019;" horiz-adv-x="164" 
d="M32 748h64q24 0 35 -10t12.5 -36t-6.5 -80l-23 -156h-72z" />
    <glyph glyph-name="quotesinglbase" unicode="&#x201a;" horiz-adv-x="164" 
d="M32 206h64q24 0 35 -10t12.5 -36t-6.5 -80l-23 -156h-72z" />
    <glyph glyph-name="quotedblleft" unicode="&#x201c;" horiz-adv-x="323" 
d="M291 466h-64q-24 0 -35 10t-12.5 36t6.5 80l23 156h72zM144 466h-64q-24 0 -35 10t-12.5 36t6.5 80l23 156h72z" />
    <glyph glyph-name="quotedblright" unicode="&#x201d;" horiz-adv-x="323" 
d="M32 748h64q24 0 35 -10t12.5 -36t-6.5 -80l-23 -156h-72zM179 748h64q24 0 35 -10t12.5 -36t-6.5 -80l-23 -156h-72z" />
    <glyph glyph-name="quotedblbase" unicode="&#x201e;" horiz-adv-x="329" 
d="M42 204h64q24 0 35 -10t12.5 -36t-6.5 -80l-23 -156h-72zM189 204h64q24 0 35 -10t12.5 -36t-6.5 -80l-23 -156h-72z" />
    <glyph glyph-name="dagger" unicode="&#x2020;" horiz-adv-x="592" 
d="M266 479h-200v89h200v180h78v-180h201v-89h-201v-702h-78v702z" />
    <glyph glyph-name="daggerdbl" unicode="&#x2021;" horiz-adv-x="592" 
d="M266 -28h-195v88h195v419h-200v89h200v180h78v-180h201v-89h-201v-419h206v-88h-206v-195h-78v195z" />
    <glyph glyph-name="bullet" unicode="&#x2022;" horiz-adv-x="611" 
d="M248 237.5q-31 16.5 -49 45t-18 61.5q0 34 18 62.5t49 45.5t68 17t68 -17t49 -45.5t18 -62.5q0 -33 -18 -61.5t-49 -45t-68 -16.5t-68 16.5z" />
    <glyph glyph-name="ellipsis" unicode="&#x2026;" horiz-adv-x="745" 
d="M345.5 9q-17.5 9 -28 25t-10.5 34q0 19 10.5 35t28 25.5t38.5 9.5t39 -9.5t28.5 -25.5t10.5 -35q0 -18 -10.5 -33.5t-28.5 -25t-39 -9.5t-38.5 9zM96.5 9q-17.5 9 -27.5 25t-10 34q0 19 10 35t27.5 25.5t39.5 9.5q21 0 39 -9.5t28.5 -25.5t10.5 -35q0 -18 -10.5 -33.5
t-28.5 -25t-39 -9.5q-22 0 -39.5 9zM593.5 9q-17.5 9 -27.5 25t-10 34q0 19 10 35t27.5 25.5t38.5 9.5q22 0 39.5 -9.5t28 -25.5t10.5 -35q0 -18 -10.5 -34t-28 -25t-39.5 -9q-21 0 -38.5 9z" />
    <glyph glyph-name="uni202F" unicode="&#x202f;" horiz-adv-x="282" 
 />
    <glyph glyph-name="perthousand" unicode="&#x2030;" horiz-adv-x="1133" 
d="M625 672h106l-564 -672h-106zM134 321q-48 25 -75 68.5t-27 95.5q0 51 26 94t73.5 68t108.5 25t109 -25t75.5 -68t27.5 -94q0 -52 -27 -95.5t-74.5 -68.5t-108.5 -25q-60 0 -108 25zM333.5 396q33.5 35 36.5 89q2 53 -31 88t-94 35t-95.5 -35t-33.5 -88
q-2 -53 30.5 -88.5t93.5 -35.5q60 0 93.5 35zM441.5 25q-48.5 25 -76 68t-27.5 95t26.5 95t74.5 68t108 25q61 0 109 -25t75.5 -68t28.5 -95q0 -52 -26.5 -95t-74.5 -68t-108 -25q-61 0 -109.5 25zM641 100q34 35 36 88t-31 88.5t-94 35.5q-62 0 -96 -35.5t-32 -88.5
q-2 -53 30 -88t93 -35q60 0 94 35zM780.5 25q-48.5 25 -76 68t-27.5 95t26.5 95t74 68t108.5 25q60 0 108.5 -25t76 -68t27.5 -95t-26.5 -95t-74 -68t-108.5 -25q-60 0 -108.5 25zM979.5 100q33.5 35 35.5 88t-31 88.5t-94 35.5t-95 -35.5t-33 -88.5q-2 -53 30.5 -88
t93.5 -35q60 0 93.5 35z" />
    <glyph glyph-name="guilsinglleft" unicode="&#x2039;" horiz-adv-x="424" 
d="M43 227v69l276 215h127l-321 -251l295 -247h-116z" />
    <glyph glyph-name="guilsinglright" unicode="&#x203a;" horiz-adv-x="469" 
d="M336 264l-294 247h115l262 -213l-1 -70l-276 -215h-126z" />
    <glyph glyph-name="fraction" unicode="&#x2044;" horiz-adv-x="241" 
d="M377 698h86l-515 -747h-86z" />
    <glyph glyph-name="uni205F" unicode="&#x205f;" horiz-adv-x="222" 
 />
    <glyph glyph-name="uni2070" unicode="&#x2070;" horiz-adv-x="583" 
d="M189 267.5q-52 27.5 -86.5 76t-43.5 110.5q-14 91 13.5 165t89.5 116.5t145 42.5q78 0 137 -35t91.5 -96.5t32.5 -137.5q0 -79 -34 -140t-95 -95t-138 -34q-60 0 -112 27.5zM441 358q53 56 52 151q1 56 -19 102.5t-61 75t-102 28.5q-55 0 -102.5 -33t-71.5 -90.5
t-13 -125.5q11 -69 58.5 -116.5t113.5 -47.5q92 0 145 56z" />
    <glyph glyph-name="uni2074" unicode="&#x2074;" horiz-adv-x="444" 
d="M326 326h-326l350 452h41v-389h57v-63h-58v-86h-64v86zM328 388l3 274l-209 -274h206z" />
    <glyph glyph-name="uni2075" unicode="&#x2075;" horiz-adv-x="492" 
d="M146 262.5q-46 22.5 -71 61.5t-25 86h62q3 -51 39 -79.5t106 -28.5q43 0 80.5 16t60 44.5t22.5 62.5q1 52 -39.5 80.5t-108.5 28.5q-40 0 -75 -9t-55 -23h-60l31 276h330l-3 -68h-265l-15 -145q56 23 135 23q56 0 101 -21.5t70 -59t24 -82.5q-2 -53 -33 -95t-84 -66
t-120 -24q-61 0 -107 22.5z" />
    <glyph glyph-name="uni2076" unicode="&#x2076;" horiz-adv-x="532" 
d="M183 273q-53 33 -82 95.5t-27 147.5q3 76 35.5 135.5t91.5 93t137 33.5q48 0 99 -16.5t83 -39.5l-10 -57q-29 23 -72.5 36.5t-95.5 13.5q-75 0 -126.5 -46t-61.5 -115q104 50 166 50q90 0 143.5 -43t58.5 -113q5 -50 -16.5 -98t-72 -79t-127.5 -31q-70 0 -123 33z
M408 338.5q43 36.5 44 95.5q2 52 -31.5 79t-94.5 27q-34 0 -80.5 -13.5t-93.5 -39.5q-2 -46 14 -88.5t51 -69.5t85 -27q63 0 106 36.5z" />
    <glyph glyph-name="uni2077" unicode="&#x2077;" horiz-adv-x="415" 
d="M366 710h-347v68h474l-338 -538h-82z" />
    <glyph glyph-name="uni2078" unicode="&#x2078;" horiz-adv-x="485" 
d="M103.5 281q-56.5 41 -66.5 102q-7 45 20 83.5t79 59.5q-33 11 -52.5 35.5t-24.5 55.5q-5 35 10.5 72.5t61 63.5t123.5 26q93 0 142.5 -36t58.5 -93q6 -39 -13.5 -72t-62.5 -52q41 -14 69.5 -44t35.5 -67q7 -45 -14 -85t-73 -65t-134 -25q-103 0 -159.5 41zM345 317.5
q36 15.5 52.5 40t11.5 52.5q-5 39 -44.5 60.5t-102.5 21.5q-70 0 -117 -27.5t-39 -73.5q5 -36 43 -62.5t109 -26.5q51 0 87 15.5zM357 574q36 23 29 68q-6 38 -41 56t-92 18q-68 0 -100.5 -27.5t-26.5 -69.5q5 -31 36 -49.5t90 -18.5q69 0 105 23z" />
    <glyph glyph-name="uni2079" unicode="&#x2079;" horiz-adv-x="524" 
d="M157.5 256.5q-50.5 16.5 -83.5 38.5l10 58q29 -23 72.5 -37t95.5 -14q74 0 121.5 45t58.5 115q-49 -22 -87 -35t-71 -13q-90 0 -144 43t-59 113q-5 50 17 98t72.5 79t127.5 31q69 0 120.5 -33.5t77.5 -96.5t23 -148q-2 -77 -32 -135.5t-86.5 -91.5t-134.5 -33
q-48 0 -98.5 16.5zM433 528q3 47 -11 90t-47 70t-83 27q-63 0 -106 -36t-44 -96q-2 -51 31 -78t93 -27q74 0 167 50z" />
    <glyph glyph-name="uni2080" unicode="&#x2080;" horiz-adv-x="583" 
d="M174 -92.5q-52 27.5 -86 76t-44 110.5q-14 91 13.5 165t89 116.5t145.5 42.5q77 0 136.5 -35t92 -96.5t32.5 -137.5q0 -79 -34.5 -140t-95.5 -95t-137 -34q-60 0 -112 27.5zM426.5 -2q53.5 56 52.5 151q1 56 -19 102.5t-61 75t-103 28.5q-55 0 -102.5 -33t-71.5 -90.5
t-13 -125.5q10 -69 58 -116.5t114 -47.5q92 0 145.5 56z" />
    <glyph glyph-name="uni2081" unicode="&#x2081;" horiz-adv-x="194" 
d="M62 370l48 48h18v-538h-64z" />
    <glyph glyph-name="uni2082" unicode="&#x2082;" horiz-adv-x="534" 
d="M40 -65q74 26 171 79.5t167 127.5q46 50 48.5 99.5t-35 81.5t-103.5 32q-61 0 -106 -23t-64.5 -61t-8.5 -83h-66q-9 56 15 109t82.5 87t146.5 34q60 0 105.5 -20t72 -52.5t32.5 -69.5q13 -86 -65 -170.5t-240 -163.5h338v-62h-492z" />
    <glyph glyph-name="uni2083" unicode="&#x2083;" horiz-adv-x="574" 
d="M108.5 -78.5q-61.5 41.5 -72.5 109.5q-3 20 0 35h67q-1 -4 -1 -8t-1 -8v-9.5t1 -9.5q6 -40 54.5 -64.5t125.5 -24.5q66 0 112.5 17t69 44t17.5 57q-6 36 -45.5 59t-113.5 23h-131v58h127q54 0 88 13t47.5 32.5t10.5 41.5q-5 30 -46 49t-120 19q-72 0 -110 -24.5
t-37 -62.5h-75q-6 39 18 73.5t76 55.5t126 21q111 0 168.5 -37t67.5 -94q5 -36 -15 -66t-61 -47q38 -17 62.5 -44t29.5 -60q8 -43 -15.5 -87t-86.5 -73.5t-168 -29.5q-108 0 -169.5 41.5z" />
    <glyph glyph-name="uni2084" unicode="&#x2084;" horiz-adv-x="444" 
d="M312 -34h-326l354 452h36v-389h57v-63h-59v-86h-63zM313 28l9 274l-214 -274h205z" />
    <glyph glyph-name="uni2085" unicode="&#x2085;" horiz-adv-x="492" 
d="M131 -97.5q-46 22.5 -71 61.5t-24 86h61q4 -51 39 -79.5t105 -28.5q44 0 81.5 16t60 44.5t23.5 62.5q1 52 -39.5 80.5t-108.5 28.5q-40 0 -76 -9t-55 -23h-60l30 276h330l-3 -68h-264l-16 -145q56 23 136 23q56 0 101.5 -21.5t70 -59t23.5 -82.5q-1 -52 -32 -94.5
t-85 -66.5t-120 -24q-61 0 -107 22.5z" />
    <glyph glyph-name="uni2086" unicode="&#x2086;" horiz-adv-x="532" 
d="M167 -87q-53 33 -81 95.5t-26 147.5q3 76 35 135.5t90.5 93t137.5 33.5q47 0 98 -16.5t84 -39.5l-11 -57q-29 23 -71.5 36.5t-94.5 13.5q-75 0 -127 -46t-62 -115q106 50 166 50q89 0 143 -43t60 -113q4 -50 -17.5 -98t-72.5 -79t-128 -31q-70 0 -123 33zM393 -21.5
q44 36.5 45 95.5q1 52 -32.5 79t-93.5 27q-34 0 -81 -14t-93 -39q-3 -46 12.5 -88.5t50.5 -69.5t86 -27q62 0 106 36.5z" />
    <glyph glyph-name="uni2087" unicode="&#x2087;" horiz-adv-x="439" 
d="M362 350h-346v68h474l-339 -538h-81z" />
    <glyph glyph-name="uni2088" unicode="&#x2088;" horiz-adv-x="485" 
d="M88.5 -79q-56.5 41 -66.5 102q-7 45 20 83.5t79 59.5q-32 11 -51 35.5t-24 55.5q-6 35 9.5 72.5t60.5 63.5t123 26q93 0 142 -36t58 -93q7 -38 -12 -71.5t-62 -52.5q40 -14 69 -44t34 -67q7 -45 -13.5 -85t-73 -65t-134.5 -25q-102 0 -158.5 41zM329 -42.5q36 15.5 53 40
t13 52.5q-7 39 -46.5 60.5t-102.5 21.5q-70 0 -116.5 -27t-39.5 -74q6 -36 43.5 -62.5t108.5 -26.5q51 0 87 15.5zM342 214q37 23 29 68q-7 38 -42 56t-91 18q-68 0 -101 -27.5t-27 -69.5q6 -31 37 -49.5t89 -18.5q69 0 106 23z" />
    <glyph glyph-name="uni2089" unicode="&#x2089;" horiz-adv-x="524" 
d="M143 -103.5q-50 16.5 -84 38.5l9 58q30 -23 73.5 -37t94.5 -14q74 0 122 45t58 115q-47 -22 -86 -35t-72 -13q-89 0 -142.5 43t-59.5 113q-4 50 17.5 98t71.5 79t127 31q70 0 121 -33.5t77.5 -96.5t23.5 -148q-2 -77 -32 -135.5t-86.5 -91.5t-135.5 -33q-47 0 -97 16.5z
M418 168q3 47 -11 90t-46.5 70t-83.5 27q-63 0 -106.5 -36t-44.5 -96q-1 -51 32.5 -78t93.5 -27q75 0 166 50z" />
    <glyph glyph-name="lira" unicode="&#x20a4;" horiz-adv-x="692" 
d="M163 421q0 76 27.5 138.5t81 99t128.5 36.5q73 0 127 -32t82.5 -95t25.5 -152h-84q9 89 -31 145t-120 56q-77 0 -115 -56t-38 -185v-232h-84v277zM79 0q-9 46 5.5 91.5t48.5 74t81 28.5q32 0 74 -14.5t104 -42.5q58 -25 91.5 -37t57.5 -12q41 0 61.5 31.5t14.5 71.5h73
q9 -51 -7.5 -95t-51 -70t-78.5 -26q-29 0 -70 14.5t-105 42.5q-59 26 -94.5 38.5t-59.5 12.5q-36 0 -55 -31.5t-12 -76.5h-78zM74 343h404v-72h-404v72zM72 472h401v-75h-401v75z" />
    <glyph glyph-name="peseta" unicode="&#x20a7;" horiz-adv-x="1697" 
d="M91 695h191q95 0 161 -33t99 -88.5t35 -122.5q2 -76 -32 -136t-101.5 -95t-161.5 -36h-203zM60 695h82v-695h-82v695zM287 262q96 0 150 51.5t49 137.5q-4 79 -59 122.5t-140 43.5h-175l-9 -355h184zM789 442h-180v81h180v175h86v-175h184v-81h-184v-442h-86v442zM1232 7
q-63 26 -97.5 69.5t-37.5 95.5h84q9 -49 58 -82.5t141 -33.5q61 0 101.5 14.5t59 37t16.5 46.5q-2 23 -17 37t-53.5 22.5t-112.5 13.5q-122 8 -180.5 50t-59.5 109q-1 42 26.5 77.5t81.5 57t131 21.5q76 0 132 -22.5t89.5 -62.5t43.5 -93h-89q-11 49 -55 76.5t-121 27.5
q-53 0 -86.5 -12.5t-48.5 -32t-13 -40.5q4 -36 39 -55t113 -23q99 -5 157.5 -23.5t84 -49.5t28.5 -76q2 -43 -25.5 -83t-88 -66t-152.5 -26q-86 0 -149 26z" />
    <glyph glyph-name="Euro" unicode="&#x20ac;" horiz-adv-x="800" 
d="M275 34q-65 34 -108.5 95t-56.5 139q-18 113 17 205.5t112.5 145.5t182.5 53q86 0 154.5 -35t111.5 -97.5t55 -143.5h-93q-13 88 -69.5 143t-154.5 55q-69 0 -128 -41.5t-89 -113t-17 -157.5q9 -57 39 -103.5t75.5 -73.5t100.5 -27q106 0 171.5 59t75.5 163h92
q-7 -89 -52 -157t-117.5 -105.5t-161.5 -37.5q-75 0 -140 34zM44 302h431v-74h-431v74zM44 462h431v-76h-431v76z" />
    <glyph glyph-name="uni2116" unicode="&#x2116;" horiz-adv-x="1368" 
d="M148 561v-561h-82v695h82l414 -581v581h81v-695h-93zM894.5 18.5q-66.5 37.5 -105 102t-39.5 141.5q0 78 38 142t103.5 101t146.5 37q85 0 151 -37t103 -101t38 -142q0 -77 -38 -141.5t-104 -102t-146 -37.5q-81 0 -147.5 37.5zM1141.5 88q47.5 27 75 73t27.5 101
q1 57 -24 103t-71 72.5t-105 26.5t-106.5 -26.5t-75 -73t-28.5 -102.5t24.5 -102t72 -72.5t105.5 -26.5q58 0 105.5 27z" />
    <glyph glyph-name="trademark" unicode="&#x2122;" horiz-adv-x="1211" 
d="M592 695h111l162 -414l185 414h113v-537h-93v400l-170 -400h-61l-161 396v-396h-86v537zM20 695h492v-77h-194v-460h-85v460h-213v77z" />
    <glyph glyph-name="uni212A" unicode="&#x212a;" horiz-adv-x="617" 
d="M145 342v-342h-81v695h81v-319l384 319h114l-398 -335l429 -360h-127z" />
    <glyph glyph-name="uni212B" unicode="&#x212b;" horiz-adv-x="676" 
d="M287 695h107l258 -695h-94l-54 151h-329l-55 -151h-97zM474 233l-134 374l-136 -374h270zM260 742.5q-35 18.5 -54.5 49.5t-19.5 69q0 37 19 69t53.5 50.5t78.5 18.5t79.5 -18t55.5 -48.5t20 -68.5q0 -37 -19.5 -69.5t-55 -51.5t-79.5 -19q-43 0 -78 18.5zM395.5 807.5
q20.5 21.5 19.5 53.5q2 33 -17 55t-57 22t-58 -22t-21 -55q-2 -32 18 -53.5t58 -21.5q37 0 57.5 21.5z" />
    <glyph glyph-name="oneeighth" unicode="&#x215b;" horiz-adv-x="920" 
d="M79 730l47 48h18v-538h-65v490zM571 698h86l-515 -747h-86zM523.5 -79q-56.5 41 -66.5 102q-7 45 20 83.5t79 59.5q-32 11 -51 35.5t-24 55.5q-6 35 9.5 72.5t60.5 63.5t123 26q93 0 142 -36t58 -93q7 -38 -12 -71.5t-62 -52.5q40 -14 69 -44t34 -67q7 -45 -13.5 -85
t-73 -65t-134.5 -25q-102 0 -158.5 41zM764 -42.5q36 15.5 53 40t13 52.5q-7 39 -46.5 60.5t-102.5 21.5q-70 0 -116.5 -27t-39.5 -74q6 -36 43.5 -62.5t108.5 -26.5q51 0 87 15.5zM777 214q37 23 29 68q-7 38 -42 56t-91 18q-68 0 -101 -27.5t-27 -69.5q6 -31 37 -49.5
t89 -18.5q69 0 106 23z" />
    <glyph glyph-name="threeeighths" unicode="&#x215c;" horiz-adv-x="1300" 
d="M123.5 281.5q-62.5 41.5 -71.5 109.5q-4 18 -2 35h68q-1 -5 -1.5 -10.5t-0.5 -10.5q0 -4 0.5 -7.5t1.5 -6.5q6 -40 54 -64.5t126 -24.5q65 0 111.5 17t69 44t17.5 57q-7 36 -46 59t-114 23h-131l3 58h126q54 0 87.5 13t47 32.5t10.5 41.5q-5 30 -46 49t-121 19
q-72 0 -109.5 -24.5t-35.5 -62.5h-76q-6 39 18 73.5t76.5 55.5t126.5 21q110 0 167.5 -37t66.5 -94q5 -36 -15 -66t-61 -47q39 -17 64 -44t30 -60q7 -44 -16.5 -87.5t-86.5 -73t-167 -29.5q-108 0 -170.5 41.5zM951 698h86l-515 -747h-86zM903.5 -79q-56.5 41 -66.5 102
q-7 45 20 83.5t79 59.5q-32 11 -51 35.5t-24 55.5q-6 35 9.5 72.5t60.5 63.5t123 26q93 0 142 -36t58 -93q7 -38 -12 -71.5t-62 -52.5q40 -14 69 -44t34 -67q7 -45 -13.5 -85t-73 -65t-134.5 -25q-102 0 -158.5 41zM1144 -42.5q36 15.5 53 40t13 52.5q-7 39 -46.5 60.5
t-102.5 21.5q-70 0 -116.5 -27t-39.5 -74q6 -36 43.5 -62.5t108.5 -26.5q51 0 87 15.5zM1157 214q37 23 29 68q-7 38 -42 56t-91 18q-68 0 -101 -27.5t-27 -69.5q6 -31 37 -49.5t89 -18.5q69 0 106 23z" />
    <glyph glyph-name="fiveeighths" unicode="&#x215d;" horiz-adv-x="1218" 
d="M146 262.5q-46 22.5 -71 61.5t-25 86h62q3 -51 39 -79.5t106 -28.5q43 0 80.5 16t60 44.5t22.5 62.5q1 52 -39.5 80.5t-108.5 28.5q-40 0 -75 -9t-55 -23h-60l31 276h330l-3 -68h-265l-15 -145q56 23 135 23q56 0 101 -21.5t70 -59t24 -82.5q-2 -53 -33 -95t-84 -66
t-120 -24q-61 0 -107 22.5zM869 698h86l-515 -747h-86zM821.5 -79q-56.5 41 -66.5 102q-7 45 20 83.5t79 59.5q-32 11 -51 35.5t-24 55.5q-6 35 9.5 72.5t60.5 63.5t123 26q93 0 142 -36t58 -93q7 -38 -12 -71.5t-62 -52.5q40 -14 69 -44t34 -67q7 -45 -13.5 -85t-73 -65
t-134.5 -25q-102 0 -158.5 41zM1062 -42.5q36 15.5 53 40t13 52.5q-7 39 -46.5 60.5t-102.5 21.5q-70 0 -116.5 -27t-39.5 -74q6 -36 43.5 -62.5t108.5 -26.5q51 0 87 15.5zM1075 214q37 23 29 68q-7 38 -42 56t-91 18q-68 0 -101 -27.5t-27 -69.5q6 -31 37 -49.5t89 -18.5
q69 0 106 23z" />
    <glyph glyph-name="seveneighths" unicode="&#x215e;" horiz-adv-x="1141" 
d="M366 710h-347v68h474l-338 -538h-82zM792 698h86l-515 -747h-86zM744.5 -79q-56.5 41 -66.5 102q-7 45 20 83.5t79 59.5q-32 11 -51 35.5t-24 55.5q-6 35 9.5 72.5t60.5 63.5t123 26q93 0 142 -36t58 -93q7 -38 -12 -71.5t-62 -52.5q40 -14 69 -44t34 -67
q7 -45 -13.5 -85t-73 -65t-134.5 -25q-102 0 -158.5 41zM985 -42.5q36 15.5 53 40t13 52.5q-7 39 -46.5 60.5t-102.5 21.5q-70 0 -116.5 -27t-39.5 -74q6 -36 43.5 -62.5t108.5 -26.5q51 0 87 15.5zM998 214q37 23 29 68q-7 38 -42 56t-91 18q-68 0 -101 -27.5t-27 -69.5
q6 -31 37 -49.5t89 -18.5q69 0 106 23z" />
    <glyph glyph-name="partialdiff" unicode="&#x2202;" horiz-adv-x="689" 
d="M186 20q-71 39 -110 108t-33 154q8 100 77 163t168.5 76t193.5 -28q-101 129 -348 255h136q125 -68 210 -149t126.5 -165t43.5 -165t-35 -146.5t-107.5 -103.5t-163.5 -38q-87 0 -158 39zM462 84q50 26 77.5 71.5t30.5 102.5q2 55 -22.5 100.5t-73 71.5t-115.5 26
t-119.5 -25.5t-82 -71t-31.5 -101.5t25 -101.5t78 -72t117 -26.5t116 26z" />
    <glyph glyph-name="minus" unicode="&#x2212;" horiz-adv-x="592" 
d="M61 385h449v-80h-449v80z" />
    <glyph glyph-name="approxequal" unicode="&#x2248;" horiz-adv-x="557" 
d="M38 68q-8 49 1 93.5t36.5 73t73.5 28.5q32 0 59.5 -14.5t67.5 -42.5q34 -25 57 -37.5t47 -12.5q40 0 55.5 30.5t8.5 72.5h73q9 -51 -5 -95t-46 -70t-75 -26q-30 0 -57 14.5t-67 42.5q-35 26 -59 38.5t-48 12.5q-35 0 -44 -29t-1 -79h-77zM39 284q-8 49 1 93.5t36.5 73
t73.5 28.5q32 0 59.5 -14.5t67.5 -42.5q34 -25 57 -37.5t47 -12.5q40 0 55.5 30.5t8.5 72.5h73q9 -51 -5 -95t-46 -70t-75 -26q-30 0 -57 14.5t-67 42.5q-35 26 -59 38.5t-48 12.5q-35 0 -44 -29t-1 -79h-77z" />
    <glyph glyph-name="notequal" unicode="&#x2260;" horiz-adv-x="600" 
d="M70 496h270l91 162h76l-91 -162h132l1 -89h-183l-56 -101h240v-88h-290l-80 -143h-76l80 143h-112v88h162l56 101h-219z" />
    <glyph glyph-name="lessequal" unicode="&#x2264;" horiz-adv-x="449" 
d="M0 80h449v-80h-449v80zM67 389v46l314 254v-103l-216 -173l216 -175v-107z" />
    <glyph glyph-name="greaterequal" unicode="&#x2265;" horiz-adv-x="449" 
d="M0 81h449v-80h-449v80zM69 222l216 173l-216 175v107l314 -258v-45l-314 -255v103z" />
    <glyph glyph-name="uni3000" unicode="&#x3000;" horiz-adv-x="1000" 
 />
    <glyph glyph-name="uni004A0301" horiz-adv-x="694" 
d="M157.5 23.5q-65.5 42.5 -96 116.5t-21.5 167h82q-7 -71 13 -127t66 -88.5t115 -32.5q111 0 174.5 68t62.5 213v355h87v-353q0 -118 -38 -199t-110.5 -121.5t-174.5 -40.5q-94 0 -159.5 42.5zM474 779l227 129l53 -82l-240 -110z" />
    <glyph glyph-name="uni013B.loclMAH" horiz-adv-x="514" 
d="M210 -267l29 227h111l-72 -236zM60 695h82v-613h364v-82h-446v695z" />
    <glyph glyph-name="uni0145.loclMAH" horiz-adv-x="708" 
d="M287 -267l29 227h111l-72 -236zM148 561v-561h-82v695h82l414 -581v581h81v-695h-93z" />
    <glyph glyph-name="i.loclTRK" horiz-adv-x="220" 
d="M68 523h83v-523h-83v523zM58 593.5q-21 19.5 -21 47.5t20 47.5t52 19.5q33 0 54.5 -19.5t21.5 -47.5t-21 -47.5t-53 -19.5t-53 19.5z" />
    <glyph glyph-name="uni006A0301" horiz-adv-x="234" 
d="M-138 -154h17q87 0 140 45.5t53 125.5v506h82v-500q0 -71 -32 -127t-89 -87.5t-128 -31.5h-43v69zM21 660l227 129l53 -82l-240 -110z" />
    <glyph glyph-name="uni013C.loclMAH" horiz-adv-x="214" 
d="M36 -267l29 227h111l-72 -236zM64 746h81v-746h-81v746z" />
    <glyph glyph-name="uni0146.loclMAH" horiz-adv-x="623" 
d="M209 -267l29 227h111l-72 -236zM478 328q0 61 -32 98.5t-92 37.5q-57 0 -104 -27.5t-75 -78.5t-30 -120l-41 13q2 87 38.5 153t95 102t124.5 36q97 0 147 -59.5t50 -177.5v-305h-81v328zM64 523h81v-523h-81v523z" />
    <glyph glyph-name="a.ss01" horiz-adv-x="607" 
d="M70 62.5q-52 81.5 -0.5 163t181.5 81.5h218q0 68 -38 110.5t-121 42.5q-59 0 -97 -24t-63 -71l-84 37q34 63 97 101.5t149 38.5q78 0 132.5 -29t82 -79.5t24.5 -111.5l-34 -59q-1 -83 -32 -147t-90 -99.5t-141 -35.5q-132 0 -184 81.5zM407.5 105.5q51.5 46.5 62.5 132.5
h-211q-78 0 -110.5 -45t1 -89.5t120.5 -44.5q86 0 137.5 46.5zM472 288l79 34v-322h-79v288z" />
    <glyph glyph-name="g.ss01" horiz-adv-x="665" 
d="M187 142q-63 26 -98.5 73.5t-36.5 108.5q0 63 34.5 112.5t97.5 77.5t144 28l76 -25q62 -7 107.5 -32.5t70.5 -66.5t25 -94q0 -63 -34.5 -110t-97.5 -72.5t-144 -25.5t-144 26zM176.5 -210q-69.5 13 -134.5 42l28 71q55 -24 110.5 -35.5t143.5 -11.5q98 0 151 25.5
t51 63.5q-3 35 -45 54t-127 19q-108 0 -265 -24v83q51 6 125.5 9t139.5 3q130 0 195 -39t65 -106q0 -42 -32.5 -80.5t-98 -62.5t-158.5 -24q-79 0 -148.5 13zM89 77q32 0 62.5 13t50 38.5t19.5 61.5h71q0 -46 -27.5 -78.5t-72.5 -49t-98 -16.5zM467 227q53 37 53 98
q2 62 -48 99.5t-137 37.5t-140 -37.5t-55 -99.5q-2 -59 49 -97t137 -38q88 0 141 37zM328 542q107 0 156 19.5t49 72.5h95q0 -47 -35.5 -80t-101.5 -50t-159 -17z" />
    <glyph glyph-name="j.ss01" horiz-adv-x="234" 
d="M-30 -154h17q50 0 67.5 19t17.5 68v590h82v-584q0 -88 -35.5 -125t-117.5 -37h-31v69zM74 626.5q-18 9.5 -29 25t-11 34.5t11 34.5t29 25t40 9.5t40 -9.5t29 -25t11 -34.5t-11 -34.5t-29 -25t-40 -9.5t-40 9.5z" />
    <glyph glyph-name="r.ss01" horiz-adv-x="356" 
d="M106 238q3 99 41 168t93.5 102.5t109.5 33.5v-84q-54 0 -100.5 -29.5t-74.5 -80t-30 -110.5h-39zM64 523h81v-523h-81v523z" />
    <glyph glyph-name="t.ss01" horiz-adv-x="466" 
d="M334 0q-69 0 -109.5 22t-58 65t-17.5 112v475h81v-486q0 -43 10.5 -65.5t35 -31.5t68.5 -9h29v-82h-39zM8 523h450v-81h-450v81z" />
    <glyph glyph-name="y.ss01" horiz-adv-x="632" 
d="M281 15l-253 508h92l204 -422l210 422h97l-383 -746h-86z" />
    <glyph glyph-name="y.ss02" horiz-adv-x="623" 
d="M178.5 -244q-60.5 38 -100.5 112l71 32q28 -49 70.5 -77t88.5 -28q79 0 123.5 55.5t46.5 149.5v523h79v-519q0 -87 -31.5 -151.5t-87 -99.5t-127.5 -35t-132.5 38zM114 40.5q-50 59.5 -50 177.5v305h81v-327q0 -61 32 -99t92 -38q57 0 104 27.5t75 79t30 120.5l40 -14
q-2 -87 -38.5 -153t-95 -102t-124.5 -36q-96 0 -146 59.5z" />
    <glyph glyph-name="a_alt" horiz-adv-x="607" 
d="M70 62.5q-52 81.5 -0.5 163t181.5 81.5h218q0 68 -38 110.5t-121 42.5q-59 0 -97 -24t-63 -71l-84 37q34 63 97 101.5t149 38.5q78 0 132.5 -29t82 -79.5t24.5 -111.5l-34 -59q-1 -83 -32 -147t-90 -99.5t-141 -35.5q-132 0 -184 81.5zM407.5 105.5q51.5 46.5 62.5 132.5
h-211q-78 0 -110.5 -45t1 -89.5t120.5 -44.5q86 0 137.5 46.5zM472 288l79 34v-322h-79v288z" />
    <glyph glyph-name="g_alt" horiz-adv-x="665" 
d="M187 142q-63 26 -98.5 73.5t-36.5 108.5q0 63 34.5 112.5t97.5 77.5t144 28l76 -25q62 -7 107.5 -32.5t70.5 -66.5t25 -94q0 -63 -34.5 -110t-97.5 -72.5t-144 -25.5t-144 26zM176.5 -210q-69.5 13 -134.5 42l28 71q55 -24 110.5 -35.5t143.5 -11.5q98 0 151 25.5
t51 63.5q-3 35 -45 54t-127 19q-108 0 -265 -24v83q51 6 125.5 9t139.5 3q130 0 195 -39t65 -106q0 -42 -32.5 -80.5t-98 -62.5t-158.5 -24q-79 0 -148.5 13zM89 77q32 0 62.5 13t50 38.5t19.5 61.5h71q0 -46 -27.5 -78.5t-72.5 -49t-98 -16.5zM467 227q53 37 53 98
q2 62 -48 99.5t-137 37.5t-140 -37.5t-55 -99.5q-2 -59 49 -97t137 -38q88 0 141 37zM328 542q107 0 156 19.5t49 72.5h95q0 -47 -35.5 -80t-101.5 -50t-159 -17z" />
    <glyph glyph-name="j_alt" horiz-adv-x="234" 
d="M-30 -154h17q50 0 67.5 19t17.5 68v590h82v-584q0 -88 -35.5 -125t-117.5 -37h-31v69zM74 626.5q-18 9.5 -29 25t-11 34.5t11 34.5t29 25t40 9.5t40 -9.5t29 -25t11 -34.5t-11 -34.5t-29 -25t-40 -9.5t-40 9.5z" />
    <glyph glyph-name="r_alt" horiz-adv-x="356" 
d="M106 238q3 99 41 168t93.5 102.5t109.5 33.5v-84q-54 0 -100.5 -29.5t-74.5 -80t-30 -110.5h-39zM64 523h81v-523h-81v523z" />
    <glyph glyph-name="t_alt" horiz-adv-x="466" 
d="M334 0q-69 0 -109.5 22t-58 65t-17.5 112v475h81v-486q0 -43 10.5 -65.5t35 -31.5t68.5 -9h29v-82h-39zM8 523h450v-81h-450v81z" />
    <glyph glyph-name="y_alt" horiz-adv-x="632" 
d="M281 15l-253 508h92l204 -422l210 422h97l-383 -746h-86z" />
    <glyph glyph-name="y_alt2" horiz-adv-x="623" 
d="M178.5 -244q-60.5 38 -100.5 112l71 32q28 -49 70.5 -77t88.5 -28q79 0 123.5 55.5t46.5 149.5v523h79v-519q0 -87 -31.5 -151.5t-87 -99.5t-127.5 -35t-132.5 38zM114 40.5q-50 59.5 -50 177.5v305h81v-327q0 -61 32 -99t92 -38q57 0 104 27.5t75 79t30 120.5l40 -14
q-2 -87 -38.5 -153t-95 -102t-124.5 -36q-96 0 -146 59.5z" />
    <glyph glyph-name="zero" horiz-adv-x="800" 
d="M222 26.5q-75 45.5 -115.5 126t-40.5 182.5q0 105 43 186t119 125.5t174 44.5q99 0 174 -45.5t115.5 -126t40.5 -182.5q0 -105 -43 -186t-119 -125.5t-174 -44.5q-99 0 -174 45.5zM525 92q55 33 85 95.5t30 147.5q0 78 -25.5 140.5t-79 100t-133.5 37.5q-74 0 -129 -33
t-85 -95.5t-30 -147.5q0 -78 25.5 -140.5t79 -100t133.5 -37.5q74 0 129 33z" />
    <glyph glyph-name="one" horiz-adv-x="424" 
d="M186 570l-120 -19v61l181 60h21v-672h-82v570z" />
    <glyph glyph-name="two" horiz-adv-x="726" 
d="M58 67q35 16 69.5 32t68.5 33q110 54 189.5 107.5t126.5 114.5t44 126q-2 37 -23.5 67t-60.5 48t-90 18q-76 0 -132 -31.5t-81 -82.5t-11 -107h-82q-11 71 19 140t103 114t182 45q76 0 133 -24.5t89.5 -65t39.5 -86.5q34 -232 -392 -437h423v-78h-615v67z" />
    <glyph glyph-name="three" horiz-adv-x="732" 
d="M202.5 7.5q-62.5 26.5 -101.5 71t-48 97.5q-6 25 -1 45h84q-5 -21 0 -45q4 -31 35 -58t77.5 -43t94.5 -16q76 0 132.5 24t84 61.5t21.5 75.5q-7 45 -53.5 75.5t-131.5 30.5h-151l2 75h147q61 0 100.5 18t55.5 45.5t12 56.5q-7 38 -55.5 65t-145.5 27q-45 0 -83 -17.5
t-60 -45.5t-21 -58h-94q-7 48 24.5 94t93.5 75.5t140 29.5q93 0 156.5 -24t95 -62.5t34.5 -83.5q4 -48 -22.5 -91.5t-77.5 -64.5q49 -20 82 -59t39 -82q9 -55 -26 -111.5t-112.5 -94t-189.5 -37.5q-75 0 -137.5 26.5z" />
    <glyph glyph-name="four" horiz-adv-x="602" 
d="M419 108h-432l467 564h45v-486h72l-1 -78h-72v-108h-79v108zM420 185l5 343l-275 -343h270z" />
    <glyph glyph-name="five" horiz-adv-x="709" 
d="M178.5 11q-63.5 30 -97 80.5t-32.5 110.5h77q5 -65 56 -104t148 -39q65 0 117 20t82 55t31 78q2 68 -52 108.5t-158 40.5q-71 0 -122 -11.5t-77 -29.5h-60l39 352h480l-5 -84h-412l-19 -187q76 29 205 29q85 0 146.5 -30t92.5 -80t29 -108q-2 -66 -42.5 -118.5
t-112.5 -82.5t-164 -30q-86 0 -149.5 30z" />
    <glyph glyph-name="six" horiz-adv-x="721" 
d="M206.5 23q-70.5 42 -110 124t-36.5 197q3 99 44 178t115.5 124t174.5 45q72 0 137 -20t112 -55l-36 -69q-36 29 -90.5 47.5t-118.5 18.5q-63 0 -117 -28.5t-89 -79t-41 -113.5q52 24 119.5 43.5t112.5 19.5q75 0 133.5 -25.5t92.5 -73t39 -110.5q4 -62 -26 -123
t-95.5 -101.5t-161.5 -40.5q-88 0 -158.5 42zM457.5 80.5q46.5 21.5 75 60.5t29.5 88q1 65 -47.5 106t-123.5 41q-46 0 -115.5 -18t-125.5 -48q-5 -71 20.5 -128.5t75 -90t114.5 -32.5q51 0 97.5 21.5z" />
    <glyph glyph-name="seven" horiz-adv-x="580" 
d="M468 588h-434v84h592l-422 -672h-102z" />
    <glyph glyph-name="eight" horiz-adv-x="758" 
d="M194 5q-69 24 -104 66t-42 98q-9 59 29.5 109t113.5 78q-37 18 -64.5 52.5t-31.5 70.5q-7 54 20 102.5t91.5 79t164.5 30.5q95 0 158 -23.5t95 -61.5t40 -84q7 -48 -24 -94t-90 -72q58 -13 96.5 -55t43.5 -92q6 -62 -26.5 -113.5t-107 -83t-188.5 -31.5q-105 0 -174 24z
M503 80q56 21 80 54.5t18 69.5q-7 53 -60 82.5t-174 29.5q-115 0 -173 -36.5t-60 -94.5q-1 -33 23 -62t75 -46.5t129 -17.5q86 0 142 21zM530 420q55 32 45 91q-8 49 -61 75.5t-146 26.5q-68 0 -112 -18.5t-63 -48.5t-13 -64q7 -42 49 -68t137 -26q109 0 164 32z" />
    <glyph glyph-name="nine" horiz-adv-x="721" 
d="M179 1q-65 20 -112 55l36 69q37 -29 91 -47.5t118 -18.5q63 0 117 28.5t89 79t41 113.5q-51 -24 -119 -43.5t-112 -19.5q-76 0 -134.5 25.5t-92.5 73t-39 110.5q-4 62 26.5 123t96 101.5t161.5 40.5q88 0 158 -42t109.5 -124t36.5 -197q-3 -99 -44 -178t-115 -124
t-174 -45q-73 0 -138 20zM435 314q69 18 125 48q5 71 -20.5 128.5t-75 90t-114.5 32.5q-51 0 -97.5 -21.5t-75 -60.5t-28.5 -88q0 -43 21.5 -76.5t60.5 -52t88 -18.5q47 0 116 18z" />
    <glyph glyph-name="zero.lf" horiz-adv-x="800" 
d="M222 26.5q-75 45.5 -115.5 126t-40.5 182.5q0 105 43 186t119 125.5t174 44.5q99 0 174 -45.5t115.5 -126t40.5 -182.5q0 -105 -43 -186t-119 -125.5t-174 -44.5q-99 0 -174 45.5zM525 92q55 33 85 95.5t30 147.5q0 78 -25.5 140.5t-79 100t-133.5 37.5q-74 0 -129 -33
t-85 -95.5t-30 -147.5q0 -78 25.5 -140.5t79 -100t133.5 -37.5q74 0 129 33z" />
    <glyph glyph-name="one.lf" horiz-adv-x="424" 
d="M186 570l-120 -19v61l181 60h21v-672h-82v570z" />
    <glyph glyph-name="two.lf" horiz-adv-x="726" 
d="M58 67q35 16 69.5 32t68.5 33q110 54 189.5 107.5t126.5 114.5t44 126q-2 37 -23.5 67t-60.5 48t-90 18q-76 0 -132 -31.5t-81 -82.5t-11 -107h-82q-11 71 19 140t103 114t182 45q76 0 133 -24.5t89.5 -65t39.5 -86.5q34 -232 -392 -437h423v-78h-615v67z" />
    <glyph glyph-name="three.lf" horiz-adv-x="732" 
d="M202.5 7.5q-62.5 26.5 -101.5 71t-48 97.5q-6 25 -1 45h84q-5 -21 0 -45q4 -31 35 -58t77.5 -43t94.5 -16q76 0 132.5 24t84 61.5t21.5 75.5q-7 45 -53.5 75.5t-131.5 30.5h-151l2 75h147q61 0 100.5 18t55.5 45.5t12 56.5q-7 38 -55.5 65t-145.5 27q-45 0 -83 -17.5
t-60 -45.5t-21 -58h-94q-7 48 24.5 94t93.5 75.5t140 29.5q93 0 156.5 -24t95 -62.5t34.5 -83.5q4 -48 -22.5 -91.5t-77.5 -64.5q49 -20 82 -59t39 -82q9 -55 -26 -111.5t-112.5 -94t-189.5 -37.5q-75 0 -137.5 26.5z" />
    <glyph glyph-name="four.lf" horiz-adv-x="602" 
d="M419 108h-432l467 564h45v-486h72l-1 -78h-72v-108h-79v108zM420 185l5 343l-275 -343h270z" />
    <glyph glyph-name="five.lf" horiz-adv-x="709" 
d="M178.5 11q-63.5 30 -97 80.5t-32.5 110.5h77q5 -65 56 -104t148 -39q65 0 117 20t82 55t31 78q2 68 -52 108.5t-158 40.5q-71 0 -122 -11.5t-77 -29.5h-60l39 352h480l-5 -84h-412l-19 -187q76 29 205 29q85 0 146.5 -30t92.5 -80t29 -108q-2 -66 -42.5 -118.5
t-112.5 -82.5t-164 -30q-86 0 -149.5 30z" />
    <glyph glyph-name="six.lf" horiz-adv-x="721" 
d="M206.5 23q-70.5 42 -110 124t-36.5 197q3 99 44 178t115.5 124t174.5 45q72 0 137 -20t112 -55l-36 -69q-36 29 -90.5 47.5t-118.5 18.5q-63 0 -117 -28.5t-89 -79t-41 -113.5q52 24 119.5 43.5t112.5 19.5q75 0 133.5 -25.5t92.5 -73t39 -110.5q4 -62 -26 -123
t-95.5 -101.5t-161.5 -40.5q-88 0 -158.5 42zM457.5 80.5q46.5 21.5 75 60.5t29.5 88q1 65 -47.5 106t-123.5 41q-46 0 -115.5 -18t-125.5 -48q-5 -71 20.5 -128.5t75 -90t114.5 -32.5q51 0 97.5 21.5z" />
    <glyph glyph-name="seven.lf" horiz-adv-x="580" 
d="M468 588h-434v84h592l-422 -672h-102z" />
    <glyph glyph-name="eight.lf" horiz-adv-x="758" 
d="M194 5q-69 24 -104 66t-42 98q-9 59 29.5 109t113.5 78q-37 18 -64.5 52.5t-31.5 70.5q-7 54 20 102.5t91.5 79t164.5 30.5q95 0 158 -23.5t95 -61.5t40 -84q7 -48 -24 -94t-90 -72q58 -13 96.5 -55t43.5 -92q6 -62 -26.5 -113.5t-107 -83t-188.5 -31.5q-105 0 -174 24z
M503 80q56 21 80 54.5t18 69.5q-7 53 -60 82.5t-174 29.5q-115 0 -173 -36.5t-60 -94.5q-1 -33 23 -62t75 -46.5t129 -17.5q86 0 142 21zM530 420q55 32 45 91q-8 49 -61 75.5t-146 26.5q-68 0 -112 -18.5t-63 -48.5t-13 -64q7 -42 49 -68t137 -26q109 0 164 32z" />
    <glyph glyph-name="nine.lf" horiz-adv-x="721" 
d="M179 1q-65 20 -112 55l36 69q37 -29 91 -47.5t118 -18.5q63 0 117 28.5t89 79t41 113.5q-51 -24 -119 -43.5t-112 -19.5q-76 0 -134.5 25.5t-92.5 73t-39 110.5q-4 62 26.5 123t96 101.5t161.5 40.5q88 0 158 -42t109.5 -124t36.5 -197q-3 -99 -44 -178t-115 -124
t-174 -45q-73 0 -138 20zM435 314q69 18 125 48q5 71 -20.5 128.5t-75 90t-114.5 32.5q-51 0 -97.5 -21.5t-75 -60.5t-28.5 -88q0 -43 21.5 -76.5t60.5 -52t88 -18.5q47 0 116 18z" />
    <glyph glyph-name="zero.osf" horiz-adv-x="800" 
d="M223 21q-75 40 -116 107.5t-41 146.5q0 82 43 149.5t120 107t173 39.5q98 0 173 -40t116 -107.5t41 -146.5q0 -82 -43 -149.5t-120 -107t-173 -39.5q-98 0 -173 40zM524.5 87q55.5 28 85.5 77t30 111q0 54 -26 104t-80 82t-132 32q-73 0 -128.5 -28t-85.5 -77t-30 -111
q0 -54 26 -104t80 -82t132 -32q73 0 128.5 28z" />
    <glyph glyph-name="one.osf" horiz-adv-x="424" 
d="M186 450l-120 -19v61l181 60h21v-552h-82v450z" />
    <glyph glyph-name="two.osf" horiz-adv-x="726" 
d="M58 79q104 32 191 64q142 53 228.5 112t78.5 124q-7 55 -51.5 84.5t-122.5 29.5q-76 0 -129.5 -21.5t-78 -58t-16.5 -81.5h-82q-5 60 25 114.5t100 89.5t179 35q76 0 133 -23.5t89.5 -62t39.5 -84.5q11 -77 -43.5 -141.5t-148 -110.5t-200.5 -71h423v-78h-615v79z" />
    <glyph glyph-name="three.osf" horiz-adv-x="732" 
d="M203.5 -112.5q-61.5 26.5 -100.5 71t-50 97.5q-6 25 -1 45h84q-5 -21 0 -45q6 -31 36.5 -58t76.5 -43t94 -16q76 0 132.5 24t84 61.5t21.5 75.5q-7 45 -53.5 75.5t-131.5 30.5h-151l2 75h147q61 0 100.5 18t55.5 45.5t12 56.5q-7 38 -55.5 65t-145.5 27q-45 0 -83 -17.5
t-60 -45.5t-21 -58h-94q-7 48 24.5 94t93.5 75.5t140 29.5q93 0 156.5 -24t95 -62.5t34.5 -83.5q4 -48 -22.5 -91.5t-77.5 -64.5q49 -20 82 -59t39 -82q8 -55 -26.5 -111.5t-112 -94t-189.5 -37.5q-75 0 -136.5 26.5z" />
    <glyph glyph-name="four.osf" horiz-adv-x="602" 
d="M419 -12h-432l467 564h45v-486h72l-1 -78h-72v-108h-79v108zM420 65l5 343l-275 -343h270z" />
    </font>
</defs>
</svg>
