<?xml version="1.0" standalone="no"?>
<!DOCTYPE svg PUBLIC "-//W3C//DTD SVG 1.1//EN" "http://www.w3.org/Graphics/SVG/1.1/DTD/svg11.dtd" >
<svg xmlns="http://www.w3.org/2000/svg" xmlns:xlink="http://www.w3.org/1999/xlink" version="1.1">
<metadata>
Created by FontForge 20201107 at Mon Apr 19 10:05:18 2021
 By 
2021 (C) Copyright by Mans Greback AB 
</metadata>
<defs>
<font id="JumperPERSONALUSEONLY-Regular" horiz-adv-x="683" >
  <font-face 
    font-family="Jumper PERSONAL USE ONLY"
    font-weight="400"
    font-stretch="normal"
    units-per-em="1000"
    panose-1="0 0 0 0 0 0 0 0 0 0"
    ascent="800"
    descent="-200"
    x-height="523"
    cap-height="695"
    bbox="-673 -295.333 1742 1093"
    underline-thickness="50"
    underline-position="-125"
    unicode-range="U+0020-FB04"
  />
<missing-glyph horiz-adv-x="720" 
 />
    <glyph glyph-name="mn.sg" unicode="&#x30;&#x30;&#x30;&#x30;&#x30;&#x30;&#x30;&#x30;&#x30;&#x30;" horiz-adv-x="1951" 
d="M999.5 765q-14.5 12 -17.5 35q-3 14 -3 41l-1 45q0 32 5 52q8 36 52 38q20 0 36.5 -7.5t22.5 -24.5t6 -47l-1 -49q0 -36 -3 -51q-10 -44 -58 -44q-24 0 -38.5 12zM252 282h39l29 -151l28 151h41l1 -242h-34l-4 101l-17 -101h-28l-20 99l-2 -99h-36zM408 -170q7 10 21 10
q20 0 25 -10t5 -28h-14v7q0 9 -2 13q-3 8 -11 8t-12 -7q-5 -7 -4.5 -21.5t0.5 -17.5v-13q0 -19 6 -27q1 -5 9 -5q9 0 12 8q2 6 2 12.5v8.5h14q0 -18 -5 -30t-22 -12q-19 0 -25.5 13t-6.5 35l1 31q0 15 7 25zM422 282h31l41 -115v115h38v-242h-30l-42 119v-119h-38v242z
M472.5 -203.5q-0.5 23.5 7 34.5t25.5 8q19 -1 24.5 -13t5.5 -31q0 -4 0.5 -24t-7 -32.5t-24.5 -12.5q-19 0 -25 11t-6 29q0 7 -0.5 30.5zM476 975h46q19 0 32 -5t20 -20q10 -16 10 -38q0 -30 -20 -44q-8 -8 -20.5 -10t-24 -1.5t-15.5 0.5v-102h-28v220zM477 724h28v-147
q0 -21 3 -33t15 -19q8 -2 11 -2q16 0 23 15t7 35v151h31v-100l1 -36q0 -32 -8 -54t-31 -29q-9 -4 -22 -4q-17 0 -31.5 8.5t-20.5 24.5q-4 10 -5 24t-1 29v137zM487 -232q0 -24 8 -27q6 -3 10 -3q10 0 11.5 10.5t1.5 29.5l1 23q0 22 -8 25q-6 3 -9 3q-7 0 -10.5 -6t-3.5 -14
q-1 -3 -0.5 -8t0.5 -7zM517 879q12 0 19 2q11 3 15 10.5t4 20.5q0 16 -3 25.5t-16 12.5q-4 2 -13 2l-19 -1v-72h13zM515 -22h42v-11h-25v-38h20v-10h-20v-52h-17v111zM549 -161h18l20 -89l18 89h16l1 -112h-11v82l-18 -82h-12l-18 82v-82h-14v112zM559 84h41v-44h-41v44z
M566.5 -60.5q-0.5 20.5 8 31t26.5 10.5q17 -2 22.5 -14.5t5.5 -33.5q0 -4 0.5 -23t-7.5 -31.5t-24 -12.5q-19 0 -25 13t-6 36q0 4 -0.5 24.5zM582 -95q0 -23 11 -28q14 -3 17.5 9t3.5 32q0 3 0.5 15t-1.5 21.5t-8 11.5q-3 2 -7 2q-7 0 -11 -6t-4 -15v-18zM605 975h84v-24
h-54v-72h44v-22h-44v-81h56v-21h-86v220zM653 127q0 -14 1.5 -24t8.5 -19q5 -9 11 -9q14 0 14 22q0 13 -7.5 24.5t-17 21t-13.5 14.5q-3 4 -11.5 12t-10.5 13q-12 19 -12 40q0 6 2 16q1 20 16.5 33.5t36.5 13.5q13 0 23 -5q19 -9 25 -29t6 -48l-37 -2q-1 6 -2 18.5t-4 20
t-10 8.5q-10 1 -14 -6t-4 -16q0 -7 1 -9q5 -12 13.5 -19t10.5 -9l19 -22q34 -35 28 -81q-1 -17 -12 -30.5t-30 -18.5q-18 -2 -35 5.5t-23 23.5q-11 25 -11 59zM648 573q1 -17 2.5 -25t8.5 -14q8 -9 20 -9q9 0 15 6q9 8 9 21t-7 23q-2 3 -9 11t-16 13l-21 17.5t-22 24.5
q-9 15 -9 33q0 17 8.5 31t25.5 19q5 1 15 1q23 0 39 -9q18 -13 18 -47l-23 -10q-2 37 -25 41q-2 1 -7 1q-10 0 -16 -7.5t-6 -19.5q0 -11 7 -19.5t16 -16t13 -10.5q24 -20 34.5 -33.5t10.5 -38.5q0 -22 -14.5 -37.5t-37.5 -15.5q-25 0 -41 17.5t-18 44.5zM642 -161h16l19 -89
l20 89h15l2 -112h-10l-2 82l-19 -82h-12l-16 82l-2 -82h-11v112zM645 -22l22 1q11 0 19 -4q7 -4 11 -12t4 -17t-4 -15.5t-11 -8.5l18 -55h-18l-15 52h-12v-52h-14v111zM656 452q3 0 15.5 0.5t22 -3t14.5 -10.5q3 -7 3 -18q0 -17 -7 -24q-7 -5 -13 -6t-12 -1h-8v-54h-15v116z
M686 -51q0 12 -6.5 15t-20.5 3v-38q27 0 27 20zM687 402q6 3 7.5 8t1.5 14q0 12 -5.5 15t-19.5 3v-42q13 0 16 2zM714 975q7 0 26 0.5t34 -2t26 -7.5q12 -7 18.5 -22t6.5 -32t-6.5 -30t-19.5 -17l28 -110h-28l-30 103h-23v-103h-32v220zM724 452h12v-103h30v-13h-42v116z
M732 -161h44v-11h-28v-34h23v-12h-23v-45h28v-10h-44v112zM739 -22h58v-11h-21v-100h-17v100h-20v11zM744 203q0 11 2 29q8 38 35 50q11 3 23 3q19 0 31 -8q18 -11 22 -30t4 -50h-39q0 31 -2 39t-11 12q-22 2 -22 -33v-88q0 -3 -0.5 -17t4.5 -24.5t17 -10.5q13 0 15 15.5
t2 40.5h-24v36h62v-127h-31l-2 8q-13 -11 -31 -11q-15 0 -28 8q-21 10 -25 49q-2 20 -2 30l1 38zM777 881q21 10 16 38q0 24 -16 29q-8 5 -18 4t-13 -1v-72q20 0 31 2zM755 724h85v-25h-56v-71h44v-22h-44v-82h56v-19h-85v219zM777 452h43v-10h-29v-40h24v-12h-24v-41h29
v-13h-43v116zM787 -161l24 1q11 0 19 -4q6 -4 9.5 -11.5t3.5 -15.5q0 -9 -4 -16t-11 -9l17 -57h-15l-13 55h-13v-55h-17v112zM822.5 -203.5q5.5 2.5 5.5 12.5q0 12 -6 15.5t-18 3.5v-34q13 0 18.5 2.5zM804 -22h15v-49h30v49h16v-111h-16v52h-30v-52h-15v111zM852 452h16
l22 -116h-15l-6 31h-24l-3 -31h-15zM868 377l-9 53l-13 -53h22zM876 824q2 -30 11 -39t21 -9q9 0 16 7q8 5 8 18t-8 24q-3 3 -9.5 10.5t-15.5 14.5q-5 5 -19.5 17t-21.5 22q-10 18 -10 36q0 17 9 30t26 17q8 3 19 3q21 0 33 -9q16 -10 20 -46l-23 -8q-1 3 -3.5 13.5t-8 18
t-13.5 10.5q-11 0 -20 -5t-10 -14q-3 -17 7.5 -29.5t29.5 -26.5q4 -4 17.5 -17t20.5 -26.5t7 -28.5q0 -23 -14.5 -38.5t-37.5 -15.5q-27 0 -43 17.5t-18 45.5zM865.5 -170q6.5 10 20.5 10q19 0 25 -10.5t6 -27.5h-17q0 2 1 4.5t1 6.5t-3 9q-2 8 -10 8q-7 0 -12 -7
q-5 -5 -5 -19l1 -20l-1 -20q0 -14 5 -20q4 -5 11 -5q10 0 11 8q3 4 3 8q0 3 -1 6.5t-1 6.5h17q0 -42 -30 -42q-17 0 -23 11.5t-6 31.5l1 36q0 15 6.5 25zM936 313h39l-69 -303h-34zM880 -22h44v-11h-27v-38h23v-10h-23v-44h27v-8h-44v111zM914 374q0 -21 8 -25h3q15 0 15 14
q0 7 -5 13t-11.5 12t-9.5 10q-7 5 -11.5 13.5t-4.5 15.5q0 13 9 19q6 5 18 5q8 0 12 -2q8 -3 12 -11t4 -16l-13 -2q-3 11 -7.5 16.5t-8.5 5.5q-8 0 -10 -10q-1 -2 -1 -6q0 -11 15 -24q4 -3 10.5 -8t10.5 -9.5t4 -10.5q2 -8 2 -10q0 -12 -7.5 -20t-19.5 -8q-13 0 -21 9.5
t-10 23.5zM921 644q0 24 4 43q7 21 21 29t37 8q41 0 52 -30q7 -15 7 -43l-1 -28q-1 -9 -1 -24l1 -31q0 -15 -3 -22q-3 -21 -17.5 -32t-37.5 -11q-24 0 -40 11.5t-19 33.5q-2 15 -2 46zM934 -161h14v-112h-14v112zM985 120q0 -3 0.5 -15.5t5 -21.5t13.5 -10h2q5 0 8.5 4
t3.5 11v193h39v-194q0 -21 -14.5 -35t-34.5 -16h-6q-15 0 -22 4q-19 9 -25 29t-6 49zM955 543.5q2 -10.5 11 -15.5q8 -3 15 -3q9 0 13 3q14 7 16 28q1 2 1 8l-1 15v79v14q0 15 -7 22q-17 12 -27 6q-10 -1 -14.5 -5t-8.5 -14q-2 -14 -2 -23l1 -23q1 -8 1 -24v-38
q0 -19 2 -29.5zM983 -161h16l25 -112h-15l-3 30h-24l-6 -30h-17zM966 452h44v-10h-27v-40h23v-12h-23v-41h30v-13h-47v116zM972 -22h42v-11h-31v-38h23v-10h-23v-52h-11v111zM1003 -235l-10 53l-10 -53h20zM1012.5 793.5q2.5 -10.5 14.5 -15.5q8 -2 13 -2q7 0 13 2
q9 5 12 12t4 17v100q0 14 -1.5 22.5t-8.5 14.5q-7 9 -15 9q-2 0 -10 -2q-17 -1 -21 -20q-4 -12 -4 -32l1 -38v-39q0 -18 2.5 -28.5zM1023.5 -93q0.5 8 0.5 12v59h13v-49q0 -3 -0.5 -18t3 -25.5t12.5 -10.5q12 0 15 14t2.5 25.5t-0.5 14.5v49h13v-50q0 -30 -4.5 -46.5
t-26.5 -16.5q-11 0 -18 7.5t-9 21.5q-1 5 -0.5 13zM1035 -161h15v-102h29v-10h-44v112zM1066 452l16 -83l17 83h14l-24 -116h-14l-25 116h16zM1073 724h20l62 -147v147h28v-219h-22l-65 148v-148h-23v219zM1075 281h41v-150q0 -32 3 -47q3 -4 8 -7t11 -2q1 1 4.5 3t5 4.5
t1.5 7.5q3 11 3 36v155h39v-155q0 -31 -4 -50.5t-22 -29.5q-13 -8 -33 -8q-15 0 -22 2q-15 7 -23.5 20.5t-9.5 29.5q-2 13 -2 36v155zM1099 -22h17v-103h25v-8h-42v111zM1130 -161l18 -82l17 82h14l-25 -112h-13l-24 112h13zM1125 452h16v-116h-16v116zM1130 975h20l60 -147
v147h27v-220h-20l-62 147v-147h-25v220zM1154 -22h15v-103h28v-8h-43v111zM1171 374q0 -7 3 -14.5t9 -10.5h2q12 0 12 14q1 9 -6 17t-20 18q-6 6 -10.5 14t-4.5 16q0 11 9 18q8 5 20 5q8 0 11 -2q12 -5 14 -27l-13 -2q-3 22 -12 22q-7 0 -12 -10q-1 -2 -1 -6q0 -8 7 -14.5
t9 -9.5q10 -7 15.5 -13.5t6.5 -14.5q2 -8 2 -11q0 -12 -7 -19.5t-19 -7.5q-27 0 -29 33zM1191 -161h44v-11h-28v-34h23v-12h-23v-45h28v-10h-44v112zM1213 281h38l28 -152l28 152h43l1 -242h-36l-2 101l-19 -101h-28l-20 99v-99h-38zM1216 724h29v-200h55v-19h-84v219z
M1226 452h15v-116h-15v116zM1257 -22h18l24 -111h-16l-5 28h-23l-7 -28h-13zM1247 -161l24 1q12 0 20 -4q11 -8 11 -26q0 -9 -3.5 -16.5t-10.5 -10.5l16 -56h-15l-15 55h-10v-55h-17v112zM1251 452h53v-10h-18v-106h-13v106h-22v10zM1276 -94l-10 51l-9 -51h19zM1306 975h31
l46 -220h-29l-10 52h-45l-11 -52h-28zM1282.5 -203.5q5.5 2.5 5.5 12.5q0 12 -6 15.5t-18 3.5v-34q13 0 18.5 2.5zM1340 830l-17 101l-20 -101h37zM1309 -22h10l32 -73v73h14v-111h-11l-30 76v-76h-15v111zM1337 724l33 -106l33 106h30l-30 -93l-15 -44q-4 -7 -3 -16.5
t1 -12.5v-53h-31v44q0 5 0.5 16t-0.5 18q-6 24 -15 42l-31 99h28zM1330 -238q0 -6 2.5 -12.5t7.5 -8.5q6 -2 7 -2q5 0 8 4t3 10q0 12 -28 32q-14 14 -14 31q0 12 10 18q11 7 19 7q4 0 12 -4q13 -4 13 -25l-12 -6q0 2 -1 10.5t-7 11.5q-6 2 -7 2q-6 0 -10 -8q-2 -4 -2 -6
q0 -7 7 -13t10 -9q3 -4 9 -9.5t9.5 -11t3.5 -12.5q2 -6 2 -10q0 -11 -6.5 -18t-18.5 -7q-14 0 -22 9.5t-9 24.5zM1373 281h59q22 0 38.5 -22t16.5 -59q0 -28 -8 -51.5t-37 -30.5q-10 -3 -30 -3v-76h-39v242zM1383 -22l20 1q18 0 30 -8q7 -6 7 -24l-1 -25l1 -20
q0 -22 -13 -28q-9 -8 -25 -7.5t-19 0.5v111zM1386 -161h13v-112h-13v112zM1415.5 -122q5.5 3 8.5 16v57q-1 11 -6.5 13.5t-19.5 2.5v-92q12 0 17.5 3zM1406 975h31v-199h55v-21h-86v220zM1434 151q5 2 8 16t3 32q0 20 -4.5 33.5t-12.5 13.5h-16v-95h22zM1416 -198.5
q0 21.5 8.5 30.5t26.5 7q19 -1 23.5 -13t4 -25t-0.5 -17q0 -29 -4 -43.5t-26 -14.5q-20 0 -26 14t-6 37v24.5zM1434.5 -220.5q-1.5 -8.5 -1.5 -19.5q0 -16 7 -19q6 -3 10 -3q14 0 14 35l1 24q0 26 -8 29q-6 3 -10 3q-11 0 -11 -20v-15q0 -6 -1.5 -14.5zM1448 535h30v-30h-30
v30zM1478 724l-10 -173h-10l-10 173h30zM1496 -161h10l33 -75v75h12v-112h-11l-34 78v-78h-10v112zM1507 281h94v-41h-55v-53h44v-43h-44v-64h55v-41h-94v242zM1628 281h70q16 0 30 -16t14 -47q0 -20 -7 -38.5t-22 -28.5l27 -112h-40l-22 105h-11v-105h-39v242zM1689 178
q4 3 7 12t3 20q0 15 -5 25.5t-14 10.5h-13v-68h22z" />
    <glyph glyph-name="f_f" unicode="ff" horiz-adv-x="885" 
d="M145 500q0 70 33.5 126.5t91.5 88t129 31.5h59l-1 -117h-15q-68 0 -108 -31.5t-40 -91.5v-506h-149v500zM-2 476h507v-113h-507v113zM506 500q0 70 33.5 126.5t91.5 88t129 31.5h59l-1 -117h-15q-68 0 -108 -31.5t-40 -91.5v-506h-149v500zM359 476h507v-113h-507v113z
" />
    <glyph glyph-name="fi" unicode="fi" horiz-adv-x="772" 
d="M145 500q0 70 33.5 126.5t91.5 88t129 31.5h59l-1 -117h-15q-68 0 -108 -31.5t-40 -91.5v-506h-149v500zM-2 523h718v-114h-718v114zM566 523h150v-523h-150v523zM584 608q-26 13 -41 35t-15 49q0 26 15 48t41 35t56 13q31 0 57 -13t41.5 -35t15.5 -48q0 -27 -15.5 -49
t-41.5 -35t-57 -13q-30 0 -56 13z" />
    <glyph glyph-name="fl" unicode="fl" horiz-adv-x="781" 
d="M145 500q0 70 33.5 126.5t91.5 88t129 31.5h59l-1 -117h-15q-68 0 -108 -31.5t-40 -91.5v-506h-149v500zM-2 476h507v-113h-507v113zM573 746h149v-746h-149v746z" />
    <glyph glyph-name="f_f_i" unicode="ffi" horiz-adv-x="1148" 
d="M145 500q0 70 33.5 126.5t91.5 88t129 31.5h59l-1 -117h-15q-68 0 -108 -31.5t-40 -91.5v-506h-149v500zM-2 476h507v-113h-507v113zM506 500q0 70 33.5 126.5t91.5 88t129 31.5h59l-1 -117h-15q-68 0 -108 -31.5t-40 -91.5v-506h-149v500zM359 476h507v-113h-507v113z
M941 523h150v-523h-150v523zM959 608q-26 13 -41 35t-15 49q0 26 15 48t41 35t57 13t57 -13t41 -35t15 -48q0 -27 -15 -49t-41 -35t-57 -13t-57 13z" />
    <glyph glyph-name="f_f_l" unicode="ffl" horiz-adv-x="1141" 
d="M145 500q0 70 33.5 126.5t91.5 88t129 31.5h59l-1 -117h-15q-68 0 -108 -31.5t-40 -91.5v-506h-149v500zM-2 476h507v-113h-507v113zM506 500q0 70 33.5 126.5t91.5 88t129 31.5h59l-1 -117h-15q-68 0 -108 -31.5t-40 -91.5v-506h-149v500zM359 476h507v-113h-507v113z
M933 746h149v-746h-149v746z" />
    <glyph glyph-name="f_t" unicode="ft" horiz-adv-x="880" 
d="M159 500q0 70 33 126.5t91 88t129 31.5h59l-1 -117h-15q-67 0 -107.5 -31.5t-40.5 -91.5v-506h-148v500zM12 476h506v-113h-506v113zM551 746h151v-746h-151v746zM384 476h498v-113h-498v113z" />
    <glyph glyph-name="t_f" unicode="tf" horiz-adv-x="871" 
d="M513 500q0 70 33 126.5t91 88t129 31.5h60l-2 -117h-14q-67 0 -107.5 -31.5t-40.5 -91.5v-506h-149v500zM170 746h152v-746h-152v746zM4 476h498v-113h-498v113zM366 476h507v-113h-507v113z" />
    <glyph glyph-name=".notdef" horiz-adv-x="720" 
 />
    <glyph glyph-name=".null" horiz-adv-x="0" 
 />
    <glyph glyph-name="nonmarkingreturn" horiz-adv-x="333" 
 />
    <glyph glyph-name="space" unicode=" " horiz-adv-x="352" 
 />
    <glyph glyph-name="exclam" unicode="!" horiz-adv-x="259" 
d="M55 748h156l-44 -477h-90zM69 12q-23 12 -36.5 33t-13.5 45q0 25 13.5 46t36.5 33.5t51 12.5t51.5 -12.5t37.5 -33.5t14 -46q0 -24 -14 -44.5t-37.5 -33t-51.5 -12.5t-51 12z" />
    <glyph glyph-name="quotedbl" unicode="&#x22;" horiz-adv-x="348" 
d="M204 746h138l-41 -282h-95zM96 746l43 -113l-83 -169l-40 113z" />
    <glyph glyph-name="numbersign" unicode="#" horiz-adv-x="640" 
d="M110 180h-70v106h83l18 145h-99l1 107h111l12 99h118l-12 -99h131l12 99h118l-12 -99h73v-106h-86l-18 -145h101v-107h-113l-13 -108h-118l13 108h-132l-13 -108h-118zM373 287l18 145l-133 -1l-17 -145z" />
    <glyph glyph-name="dollar" unicode="$" horiz-adv-x="701" 
d="M195 29.5q-72 30.5 -114.5 82.5t-44.5 115h136q8 -52 54 -83t119 -33q54 -2 93.5 9.5t60.5 32.5t21 49q-1 38 -44 61t-135 31q-134 13 -205.5 60t-69.5 130q2 57 38.5 99.5t99.5 65.5t145 23q87 0 156.5 -28.5t111 -77.5t50.5 -108h-135q-6 27 -30 50.5t-63.5 37.5
t-89.5 14q-48 0 -83 -12t-52.5 -32.5t-16.5 -44.5q1 -32 36 -52t114 -26q157 -13 231 -63.5t78 -130.5q2 -56 -34 -101.5t-106 -72t-163 -26.5q-86 0 -158 30.5zM308 748h94v-836h-94v836z" />
    <glyph glyph-name="percent" unicode="%" horiz-adv-x="780" 
d="M594 672h159l-543 -672h-159zM459.5 25q-48.5 25 -76 68t-27.5 95t26.5 95t74.5 68t108 25q61 0 109 -25t75.5 -68t28.5 -95q0 -52 -26.5 -95t-74.5 -68t-108 -25q-61 0 -109.5 25zM136 321q-48 25 -75 68.5t-27 95.5q0 51 26 94t73.5 68t108.5 25t109 -25t75.5 -68
t27.5 -94q0 -52 -27 -95.5t-74.5 -68.5t-108.5 -25q-60 0 -108 25zM636 120q25 27 26 68t-23.5 68.5t-69.5 27.5q-46 0 -71 -27.5t-24 -68.5q-1 -41 23 -68t70 -27q44 0 69 27zM312 416q25 27 27 69q1 41 -23.5 68t-69.5 27q-46 0 -71 -27t-24 -68q-2 -41 22 -68.5t70 -27.5
q44 0 69 27z" />
    <glyph glyph-name="ampersand" unicode="&#x26;" horiz-adv-x="708" 
d="M138 26.5q-51 26.5 -74 70t-21 96.5q1 51 34 87.5t91 56.5q-99 43 -110 145q-6 56 23 104.5t89.5 78t143.5 29.5h210l-9 -116h-155q-83 0 -121.5 -24.5t-39.5 -75.5q-1 -38 26.5 -60t83.5 -22h374l-2 -108h-379q-32 0 -60 -11t-45 -33t-17 -52q0 -39 32 -65t93 -26
q37 0 74.5 19.5t63 58t26.5 92.5l77 -65q-38 -91 -106.5 -148.5t-173.5 -57.5q-77 0 -128 26.5zM466 124v203h126v-327h-109z" />
    <glyph glyph-name="quotesingle" unicode="'" horiz-adv-x="135" 
d="M18 746h151l-60 -282h-90z" />
    <glyph glyph-name="parenleft" unicode="(" horiz-adv-x="352" 
d="M342 -186q-80 7 -144 56.5t-102.5 148t-40.5 245.5q-2 144 38 251t106.5 164.5t143.5 57.5v-107q-43 -4 -77 -49t-54 -123.5t-20 -180.5q-1 -118 19 -194.5t54 -112.5t77 -38v-118z" />
    <glyph glyph-name="parenright" unicode=")" horiz-adv-x="369" 
d="M19 -79q42 4 75.5 44t54 114.5t22.5 175.5q3 109 -17.5 192t-56 128.5t-76.5 47.5l-1 115q77 -6 140.5 -54t104 -148.5t42.5 -256.5q2 -139 -38 -245t-107 -162.5t-143 -57.5v107z" />
    <glyph glyph-name="asterisk" unicode="*" horiz-adv-x="559" 
d="M90 343l99 156l-178 -13l5 119l171 -21l-93 152l108 37l84 -165l75 160l112 -49l-89 -139l171 12l-3 -118l-176 20l94 -163l-110 -45l-73 178l-89 -179z" />
    <glyph glyph-name="plus" unicode="+" horiz-adv-x="584" 
d="M216 278h-179v130h179v181h145v-181h184v-130h-184v-171h-145v171z" />
    <glyph glyph-name="comma" unicode="," horiz-adv-x="232" 
d="M26 -107l20 316h160l-89 -332z" />
    <glyph glyph-name="hyphen" unicode="-" horiz-adv-x="387" 
d="M37 379h317v-135h-317v135z" />
    <glyph glyph-name="period" unicode="." horiz-adv-x="290" 
d="M97 13q-25 13 -39.5 35.5t-14.5 49.5q0 26 14.5 48.5t39.5 36t55 13.5t55.5 -13.5t40.5 -36t15 -48.5q0 -27 -15 -49t-40.5 -35.5t-55.5 -13.5t-55 13z" />
    <glyph glyph-name="slash" unicode="/" horiz-adv-x="501" 
d="M376 671h140l-388 -748h-139z" />
    <glyph glyph-name="colon" unicode=":" horiz-adv-x="292" 
d="M82 371q-29 25 -29 63q0 37 29 62.5t72 25.5q42 0 72 -25.5t30 -62.5q0 -38 -29.5 -63t-72.5 -25t-72 25zM82 25.5q-29 25.5 -29 62.5q0 38 29 63.5t72 25.5q42 0 72 -26t30 -63t-29.5 -62.5t-72.5 -25.5t-72 25.5z" />
    <glyph glyph-name="semicolon" unicode=";" horiz-adv-x="292" 
d="M58 -107l19 316h160l-88 -332zM82 371q-29 25 -29 63q0 37 29 62.5t72 25.5q42 0 72 -25.5t30 -62.5q0 -38 -29.5 -63t-72.5 -25t-72 25z" />
    <glyph glyph-name="less" unicode="&#x3c;" horiz-adv-x="408" 
d="M37 245v100l329 220v-142l-188 -128l188 -129v-154z" />
    <glyph glyph-name="equal" unicode="=" horiz-adv-x="582" 
d="M36 524h502l1 -123h-502zM38 314h502v-122h-502v122z" />
    <glyph glyph-name="greater" unicode="&#x3e;" horiz-adv-x="408" 
d="M37 154l188 128l-188 129v154l329 -232v-101l-329 -220v142z" />
    <glyph glyph-name="question" unicode="?" horiz-adv-x="664" 
d="M226 409h25.5t25.5 1q103 5 164.5 35t61.5 91q0 40 -31.5 71t-90.5 39q-71 10 -121.5 -7t-74 -53t-18.5 -82h-142q-3 79 32.5 136.5t108.5 88.5t181 31q71 0 140.5 -23t116 -71t46.5 -121q1 -63 -35.5 -110.5t-103.5 -76.5t-156 -36l-20 -82h-91zM243 12q-23 12 -36.5 33
t-13.5 45q0 25 13.5 46t36.5 33.5t52 12.5q28 0 51.5 -12.5t37 -33.5t13.5 -46q0 -24 -13.5 -44.5t-37 -33t-51.5 -12.5q-29 0 -52 12z" />
    <glyph glyph-name="at" unicode="@" horiz-adv-x="952" 
d="M231.5 -148q-99.5 69 -149.5 181.5t-48 240.5q3 124 61.5 233.5t164.5 176.5t244 67q127 0 222.5 -57t146.5 -165t47 -255q-5 -160 -95 -221t-174 -5.5t-70 188.5l-14 27v239h105v-268q0 -79 36 -107t74 12t43 135q8 113 -28 201.5t-111 138t-179 49.5q-108 0 -192 -49
t-133 -137.5t-56 -202.5q-6 -111 35.5 -203t122.5 -146t186 -54q55 0 113 19.5t98 49.5l76 -64q-60 -41 -135 -67t-153 -26q-138 0 -237.5 69zM340 45.5q-41 32.5 -63.5 90t-21.5 127.5q2 68 28.5 125t69.5 90.5t93 33.5t91 -31.5t63.5 -87t20.5 -123.5q-2 -70 -28 -129
t-68.5 -93.5t-92.5 -34.5q-51 0 -92 32.5zM534.5 152.5q24.5 42.5 26.5 111.5q3 70 -13 109.5t-61 39.5q-46 0 -78 -42.5t-35 -106.5q-1 -46 10.5 -80.5t33 -54t47.5 -19.5q45 0 69.5 42.5z" />
    <glyph glyph-name="A" unicode="A" horiz-adv-x="708" 
d="M256 695h199l237 -695h-156l-48 143h-265l-45 -143h-163zM451 257l-99 286l-96 -286h195z" />
    <glyph glyph-name="B" unicode="B" horiz-adv-x="630" 
d="M91 385h224q131 0 204 -42.5t81 -130.5q6 -55 -23 -104t-89.5 -78.5t-142.5 -29.5h-266zM51 695h150v-695h-150v695zM316 119q63 0 98 23t39 69q2 39 -26.5 63.5t-87.5 24.5h-197l-4 -180h178zM312 401q55 0 86 22.5t33 64.5q4 44 -25.5 68.5t-84.5 24.5h-183l6 -180h168
zM101 695h247q120 0 173.5 -55.5t50.5 -139.5q-4 -84 -90 -127.5t-221 -43.5h-177z" />
    <glyph glyph-name="C" unicode="C" horiz-adv-x="711" 
d="M182.5 28.5q-77.5 47.5 -118 129t-37.5 179.5q1 98 45 180t123 130t181 48q93 0 163 -43.5t108 -112t39 -141.5h-142q-3 47 -24.5 84.5t-59 58.5t-88.5 21q-57 0 -101 -31t-68.5 -82.5t-26.5 -110.5q-2 -67 20.5 -117.5t66 -78.5t102.5 -28q45 0 83 20t62 56t30 83h145
q-6 -71 -47 -138.5t-111.5 -110.5t-163.5 -43q-103 0 -180.5 47.5z" />
    <glyph glyph-name="D" unicode="D" horiz-adv-x="670" 
d="M113 695h210q94 0 165.5 -48t109.5 -127.5t38 -172.5q0 -88 -38 -168t-110 -129.5t-168 -49.5h-240zM56 695h151v-695h-151v695zM310 122q53 0 95.5 31.5t65 86.5t20.5 119q-3 102 -51.5 159t-130.5 57h-159l10 -453h150z" />
    <glyph glyph-name="E" unicode="E" horiz-adv-x="584" 
d="M49 695h482l-1 -120h-333v-170h292v-122h-292v-160h345v-123h-494z" />
    <glyph glyph-name="F" unicode="F" horiz-adv-x="527" 
d="M44 695h476v-127h-326v-214h294l-1 -126h-293v-228h-150v695z" />
    <glyph glyph-name="G" unicode="G" horiz-adv-x="750" 
d="M189 28.5q-80 47.5 -122 130t-40 182.5q2 94 47 175t127 130t189 49q93 0 161.5 -40.5t107.5 -101.5t48 -123h-145q-7 32 -28.5 62.5t-60 50.5t-89.5 20q-60 0 -107 -29.5t-72.5 -80t-28.5 -112.5q-2 -66 22.5 -118t70.5 -81t106 -29q52 0 95 22.5t71 63t34 93.5l145 -3
q-7 -80 -51 -150.5t-120 -114t-174 -43.5q-106 0 -186 47.5zM367 358h353v-69l-72 -33h-281v102z" />
    <glyph glyph-name="H" unicode="H" horiz-adv-x="696" 
d="M498 287h-300v-287h-149v695h149v-290h301v290h148v-695h-149v287z" />
    <glyph glyph-name="I" unicode="I" horiz-adv-x="276" 
d="M66 695h149v-695h-149v695z" />
    <glyph glyph-name="J" unicode="J" horiz-adv-x="692" 
d="M144 24.5q-65 43.5 -93 117.5t-19 167h143q-6 -57 8.5 -100t48.5 -67t85 -24q84 0 129.5 56t45.5 170v351h155v-354q1 -113 -39 -194t-116 -123.5t-184 -42.5q-99 0 -164 43.5z" />
    <glyph glyph-name="K" unicode="K" horiz-adv-x="665" 
d="M203 336v-336h-149v695h149v-313l309 313h193l-337 -332l359 -363h-199z" />
    <glyph glyph-name="L" unicode="L" horiz-adv-x="550" 
d="M50 695h150v-565h344v-130h-494v695z" />
    <glyph glyph-name="M" unicode="M" horiz-adv-x="880" 
d="M197 492v-492h-141v695h192l190 -462l208 462h189v-695h-142v492l-205 -492h-108z" />
    <glyph glyph-name="N" unicode="N" horiz-adv-x="737" 
d="M201 473v-473h-145v695h145l337 -483v483h143v-695h-150z" />
    <glyph glyph-name="O" unicode="O" horiz-adv-x="773" 
d="M188 28q-80 47 -121.5 127.5t-39.5 181.5q2 96 47 178t126.5 131t189.5 49q106 0 185.5 -47t121.5 -128.5t40 -182.5q-2 -99 -49 -180.5t-129 -128.5t-184 -47q-107 0 -187 47zM486 143.5q47 30.5 73 82t28 111.5q1 63 -22.5 114.5t-69.5 81.5t-110 30q-60 0 -107 -31.5
t-73 -83.5t-28 -111q-2 -65 21.5 -116t69.5 -79.5t108 -28.5q63 0 110 30.5z" />
    <glyph glyph-name="P" unicode="P" horiz-adv-x="615" 
d="M101 695h203q96 0 162.5 -33.5t100 -90.5t34.5 -126q2 -79 -36 -139.5t-110 -94.5t-171 -35h-194zM51 695h149v-695h-149v695zM301 298q72 0 113.5 39.5t37.5 108.5q-2 61 -44.5 95t-107.5 34l-166 -1l3 -276h164z" />
    <glyph glyph-name="Q" unicode="Q" horiz-adv-x="775" 
d="M188 28q-80 47 -121.5 127.5t-39.5 181.5q2 96 47 178t126.5 131t189.5 49q106 0 185.5 -47t121.5 -128t40 -183q-2 -99 -49 -180.5t-129 -128.5t-184 -47q-107 0 -187 47zM452 45l128 57l106 -150l-126 -67zM486 143.5q47 30.5 73 82t28 111.5q1 63 -22.5 114.5
t-69.5 81.5t-110 30q-60 0 -107 -31.5t-73 -83.5t-28 -111q-2 -65 21.5 -116t69.5 -79.5t108 -28.5q63 0 110 30.5z" />
    <glyph glyph-name="R" unicode="R" horiz-adv-x="609" 
d="M150 323l-3 372h154q84 1 146.5 -30t95 -83t33.5 -115q-1 -85 -53 -141.5t-147 -70.5l247 -255h-182zM54 695h150v-695h-150v695zM291 346q63 0 99 31.5t34 86.5q-3 54 -38 80t-94 26h-113l1 -224h111z" />
    <glyph glyph-name="S" unicode="S" horiz-adv-x="680" 
d="M163 14q-73 33 -113.5 89.5t-44.5 125.5h146q10 -55 53.5 -89t116.5 -36q77 -2 122.5 23.5t47.5 68.5q1 39 -38.5 60.5t-130.5 28.5q-140 14 -211.5 66t-70.5 142q2 59 40 105t102.5 71.5t142.5 25.5q89 0 158 -31t110 -85t51 -122l-147 1q-11 49 -55.5 80.5t-115.5 31.5
q-42 0 -73.5 -11.5t-48 -31.5t-16.5 -43q1 -33 28.5 -51.5t90.5 -25.5l21 -2q168 -15 241.5 -67.5t74.5 -139.5q0 -60 -36.5 -109.5t-108 -78.5t-168.5 -29q-95 0 -168 33z" />
    <glyph glyph-name="T" unicode="T" horiz-adv-x="599" 
d="M228 574h-237v121h623v-121h-237v-574h-149v574z" />
    <glyph glyph-name="U" unicode="U" horiz-adv-x="744" 
d="M130.5 65q-86.5 84 -86.5 258v372h148v-367q0 -112 47 -160.5t133 -48.5q87 0 134.5 51.5t47.5 157.5v367h152v-376q0 -107 -39.5 -182.5t-115 -115.5t-182.5 -40q-152 0 -238.5 84z" />
    <glyph glyph-name="V" unicode="V" horiz-adv-x="663" 
d="M3 695h150l163 -537l189 537h162l-251 -695h-191z" />
    <glyph glyph-name="W" unicode="W" horiz-adv-x="913" 
d="M459 476l-123 -476h-183l-159 695h154l105 -521l129 521h147l137 -515l109 515h161l-171 -695h-171z" />
    <glyph glyph-name="X" unicode="X" horiz-adv-x="695" 
d="M355 291l-173 -291h-181l223 358l-211 337h177l164 -266l161 266h184l-214 -332l234 -363h-179z" />
    <glyph glyph-name="Y" unicode="Y" horiz-adv-x="520" 
d="M179 207l-236 488h158l154 -343l173 343h162l-258 -476v-219h-153v207z" />
    <glyph glyph-name="Z" unicode="Z" horiz-adv-x="669" 
d="M413 573h-396v122h654l-431 -576h414v-119h-667z" />
    <glyph glyph-name="bracketleft" unicode="[" horiz-adv-x="433" 
d="M94 748h341v-104h-211v-709h200l1 -102h-331v915z" />
    <glyph glyph-name="backslash" unicode="\" horiz-adv-x="480" 
d="M-30 671h136l407 -748h-136z" />
    <glyph glyph-name="bracketright" unicode="]" horiz-adv-x="431" 
d="M13 -63h203v709h-196v102h326v-915h-333v104z" />
    <glyph glyph-name="asciicircum" unicode="^" horiz-adv-x="497" 
d="M195 732h113l158 -240h-137l-82 145l-84 -145h-138z" />
    <glyph glyph-name="underscore" unicode="_" horiz-adv-x="451" 
d="M24 2h423v-117h-423v117z" />
    <glyph glyph-name="grave" unicode="`" horiz-adv-x="330" 
d="M-17 674l69 111l232 -180l-38 -63z" />
    <glyph glyph-name="a" unicode="a" 
d="M156 18q-57 37 -89.5 101.5t-32.5 143.5q0 77 35.5 141t95 101t129.5 37q71 0 127 -37t87 -101t30 -141q0 -77 -34 -141.5t-92.5 -102.5t-129.5 -38q-69 0 -126 37zM406.5 113.5q37.5 22.5 60 61.5t22.5 87q0 49 -19.5 88t-54 61.5t-77.5 22.5q-44 0 -81.5 -22.5t-59 -62
t-21.5 -88.5t19 -87.5t53.5 -60.5t77.5 -22t80.5 22.5zM489 523h148v-523h-147z" />
    <glyph glyph-name="b" unicode="b" horiz-adv-x="680" 
d="M271.5 19q-58.5 38 -92.5 102.5t-35 141.5q0 77 30.5 141t86.5 101t127 37q70 0 129.5 -37t95 -101t35.5 -141q0 -79 -32.5 -143.5t-89 -101.5t-125.5 -37q-71 0 -129.5 38zM46 746h148l-1 -746h-148zM433.5 113q34.5 22 54 60.5t19.5 87.5t-22 88.5t-59.5 62t-80.5 22.5
t-78 -22.5t-54.5 -61.5t-19.5 -88q0 -48 22.5 -87t60.5 -61.5t80 -22.5q43 0 77.5 22z" />
    <glyph glyph-name="c" unicode="c" horiz-adv-x="669" 
d="M172 18q-67 37 -103.5 101t-35.5 143q2 77 40.5 141t107 101.5t157.5 37.5q77 0 140 -31t102.5 -84t46.5 -117h-137q-5 29 -25.5 54.5t-52.5 41.5t-72 16q-49 0 -87.5 -22.5t-59.5 -59t-22 -78.5q0 -47 19 -83.5t56 -57t86 -20.5q60 0 101.5 33.5t56.5 84.5h133
q-8 -68 -49.5 -122.5t-106 -85t-139.5 -30.5q-89 0 -156 37z" />
    <glyph glyph-name="d" unicode="d" horiz-adv-x="679" 
d="M156 18q-57 37 -89.5 101.5t-32.5 143.5q0 77 35.5 141t95 101t129.5 37q71 0 127 -37t87 -101t30 -141q0 -77 -34 -141.5t-92.5 -102.5t-129.5 -38q-69 0 -126 37zM406.5 113.5q37.5 22.5 60.5 61.5t23 87q0 49 -20 88t-54.5 61.5t-77.5 22.5q-44 0 -81.5 -22.5t-59 -62
t-21.5 -88.5t19 -87.5t53.5 -60.5t77.5 -22t80.5 22.5zM489 746h148v-746h-147z" />
    <glyph glyph-name="e" unicode="e" horiz-adv-x="656" 
d="M170 17q-69 36 -106.5 100t-35.5 145q1 76 40 140t108 102t155 38q94 0 161 -39.5t101 -104t33 -137.5q-2 -34 -6 -45h-447q4 -55 48.5 -87t113.5 -32q47 0 86 18t63 45l108 -65q-41 -51 -111 -82.5t-151 -31.5q-91 0 -160 36zM482 305q-1 32 -19 60t-50.5 45.5
t-76.5 17.5q-61 0 -104 -33.5t-57 -89.5h307z" />
    <glyph glyph-name="f" unicode="f" horiz-adv-x="525" 
d="M145 500q0 70 33.5 126.5t91.5 88t129 31.5h59l-1 -117h-15q-68 0 -108 -31.5t-40 -91.5v-506h-149v500zM-2 476h507v-113h-507v113z" />
    <glyph glyph-name="g" unicode="g" horiz-adv-x="672" 
d="M201.5 -246.5q-67.5 38.5 -108.5 111.5l120 54q26 -38 60.5 -59.5t72.5 -21.5q63 1 97 44t35 115v526h147v-511q-1 -89 -33 -156t-93 -104t-146 -37q-84 0 -151.5 38.5zM151 19q-55 38 -86 103t-29 141q2 77 38 141t94.5 101t125.5 37q68 0 122.5 -37t84.5 -101t28 -141
t-37 -141.5t-93 -102.5t-125 -38q-68 0 -123 38zM398.5 113q35.5 22 57.5 61.5t23 87.5t-18 87.5t-52.5 62t-74.5 22.5t-76.5 -23t-57.5 -62.5t-23 -87.5t17.5 -86.5t52.5 -61t75 -22.5t76.5 22z" />
    <glyph glyph-name="h" unicode="h" horiz-adv-x="672" 
d="M475 303q0 55 -28 88t-81 33q-47 0 -85.5 -24t-61.5 -68t-24 -103l-48 17q2 87 39 154.5t99 104.5t134 37q99 0 152 -60.5t53 -176.5v-305h-149v303zM46 746h149v-746h-149v746z" />
    <glyph glyph-name="i" unicode="i" horiz-adv-x="262" 
d="M56 523h150v-523h-150v523zM74 608q-26 13 -41 35t-15 49q0 26 15 48t41 35t57 13t57 -13t41 -35t15 -48q0 -27 -15 -49t-41 -35t-57 -13t-57 13z" />
    <glyph glyph-name="j" unicode="j" horiz-adv-x="275" 
d="M-107 -106h19q69 0 108.5 35.5t39.5 100.5v493h148v-487q0 -78 -31 -136.5t-87.5 -90.5t-130.5 -32h-66v117zM76 608q-26 13 -41 35t-15 49q0 26 15 48t41 35t56 13q31 0 57 -13t41 -35t15 -48q0 -27 -15 -49t-41 -35t-57 -13q-30 0 -56 13z" />
    <glyph glyph-name="k" unicode="k" horiz-adv-x="639" 
d="M201 242v-242h-150v746h150v-464l265 241h206l-302 -257l308 -266h-205z" />
    <glyph glyph-name="l" unicode="l" horiz-adv-x="262" 
d="M54 746h149v-746h-149v746z" />
    <glyph glyph-name="m" unicode="m" horiz-adv-x="1017" 
d="M816 296q0 63 -22.5 95.5t-71.5 32.5q-62 0 -99 -48t-39 -135l-48 18q2 86 33.5 150t84.5 98.5t118 34.5q94 0 143.5 -59.5t49.5 -169.5v-313h-149v296zM55 523h148v-523h-148v523zM436 296q0 60 -22 94t-70 34q-62 0 -100.5 -48.5t-40.5 -134.5l-49 18q2 86 34 150
t85 98.5t119 34.5q94 0 143 -63t49 -179v-300h-148v296z" />
    <glyph glyph-name="n" unicode="n" 
d="M484 303q0 55 -28.5 88t-81.5 33q-47 0 -85.5 -24t-61 -68t-24.5 -103l-49 17q2 87 39.5 154.5t99 104.5t134.5 37q99 0 152 -60.5t53 -176.5v-305h-148v303zM55 523h148v-523h-148v523z" />
    <glyph glyph-name="o" unicode="o" horiz-adv-x="677" 
d="M182 18.5q-70 37.5 -109.5 102t-40.5 141.5q1 78 41.5 142t111 101t157.5 37q90 0 160 -37t108.5 -101t38.5 -142q-1 -77 -41 -141.5t-110.5 -102t-158.5 -37.5q-87 0 -157 37.5zM422 121.5q38 21.5 59.5 58.5t22.5 82q1 46 -19 83t-56.5 58.5t-84.5 21.5t-86 -21.5
t-60 -59t-23 -82.5t19 -82t57.5 -58.5t84.5 -21.5q48 0 86 21.5z" />
    <glyph glyph-name="p" unicode="p" horiz-adv-x="688" 
d="M264 18q-56 37 -87 101t-31 142q1 77 35 141t92.5 102t129.5 38q70 0 126 -37t88.5 -101t32.5 -143q0 -77 -35 -141.5t-94.5 -101.5t-129.5 -37q-71 0 -127 37zM47 523h148l1 -746h-148zM428 112q37 22 59 61.5t22 88.5t-19.5 87.5t-54 60.5t-76.5 22q-43 0 -80.5 -22
t-60.5 -61.5t-23 -86.5q0 -49 20 -88.5t54.5 -61.5t77.5 -22q44 0 81 22z" />
    <glyph glyph-name="q" unicode="q" horiz-adv-x="684" 
d="M164.5 18q-59.5 37 -95 101.5t-35.5 141.5q0 79 32.5 143t89.5 101t126 37q71 0 129.5 -38t92.5 -102t34 -141q1 -78 -30 -142t-87 -101t-127 -37q-70 0 -129.5 37zM415.5 112q34.5 22 54.5 61.5t20 88.5q0 47 -23 86t-60.5 61.5t-80.5 22.5t-77.5 -22t-53.5 -60.5
t-19 -87.5t21.5 -88.5t59 -61.5t81.5 -22q43 0 77.5 22zM490 523h147v-746h-148z" />
    <glyph glyph-name="r" unicode="r" horiz-adv-x="587" 
d="M155 236q3 96 36 165t84.5 105t110.5 36q56 0 98 -28.5t64 -82.5t21 -129h-148q1 56 -21.5 89t-65.5 33q-36 0 -65.5 -22.5t-47 -65t-18.5 -100.5h-48zM54 523h149v-523h-149v523z" />
    <glyph glyph-name="s" unicode="s" horiz-adv-x="640" 
d="M161 8q-67 27 -102.5 72t-38.5 98h143q6 -37 42.5 -62.5t105.5 -26.5q46 0 77.5 10t46.5 26t15 33q-1 17 -12.5 28t-41 18t-85.5 11q-125 10 -189 53t-65 113q0 45 31 81.5t88.5 58t136.5 21.5q81 0 141 -23.5t95 -66t43 -96.5h-145q-8 36 -42 56t-93 20q-38 0 -62 -8.5
t-35 -22.5t-10 -29q3 -25 29 -39t85 -18q105 -7 166.5 -27.5t87 -52.5t27.5 -78q1 -46 -30 -86t-94.5 -65t-155.5 -25t-159 27z" />
    <glyph glyph-name="t" unicode="t" horiz-adv-x="500" 
d="M174 408h-170v115h170v175h151v-175h177v-115h-177v-408h-151v408z" />
    <glyph glyph-name="u" unicode="u" 
d="M108 41.5q-53 60.5 -53 176.5v305h149v-302q0 -55 28 -88.5t81 -33.5q47 0 85.5 24t61.5 68.5t24 103.5l48 -18q-2 -87 -39.5 -154.5t-99 -104.5t-133.5 -37q-99 0 -152 60.5zM484 523h148v-523h-148v523z" />
    <glyph glyph-name="v" unicode="v" horiz-adv-x="650" 
d="M5 523h156l163 -396l174 396h163l-241 -523h-198z" />
    <glyph glyph-name="w" unicode="w" horiz-adv-x="958" 
d="M474 340l-130 -340h-162l-167 523h153l103 -364l133 364h150l128 -355l118 355h158l-194 -523h-164z" />
    <glyph glyph-name="x" unicode="x" horiz-adv-x="644" 
d="M200 262l-200 261h175l149 -201l153 201h179l-207 -256l206 -267h-177l-155 205l-159 -205h-176z" />
    <glyph glyph-name="y" unicode="y" 
d="M108 41.5q-53 60.5 -53 176.5v305h149v-302q0 -55 28 -88.5t81 -33.5q47 0 85.5 24t61.5 68.5t24 103.5l48 -18q-2 -87 -39.5 -154.5t-99 -104.5t-133.5 -37q-99 0 -152 60.5zM484 523h148v-746h-148v746z" />
    <glyph glyph-name="z" unicode="z" horiz-adv-x="565" 
d="M318 405h-302v118h551l-321 -406h312v-117h-555z" />
    <glyph glyph-name="braceleft" unicode="{" horiz-adv-x="428" 
d="M315 -167q-73 4 -127.5 38t-79.5 84t-16 101q5 30 18 52t34 46q15 20 22 31.5t8 23.5q2 30 -19 50t-54 22l1 69q35 0 55 12t19 37q0 13 -5.5 26.5t-18.5 39.5q-19 35 -29.5 62.5t-9.5 59.5q3 68 55 110t155 42v-116q-44 2 -72 -15.5t-27 -55.5q1 -17 7 -32t20 -41
q17 -28 26 -51t8 -50q-1 -28 -22 -49t-54 -28q31 -11 52 -43t20 -63t-12.5 -50.5t-31.5 -41.5q-13 -14 -19.5 -24t-9.5 -23q-8 -28 4.5 -52t39.5 -38t63 -14v-119z" />
    <glyph glyph-name="bar" unicode="|" horiz-adv-x="400" 
d="M150 748h98v-971h-98v971z" />
    <glyph glyph-name="braceright" unicode="}" horiz-adv-x="428" 
d="M89 -51q44 -1 72 16t26 55q0 18 -6.5 33.5t-20.5 40.5q-17 30 -25.5 51.5t-7.5 48.5q1 29 22 50t53 27q-30 12 -51 44t-19 63q1 30 12 50t31 42q12 13 19 23.5t10 23.5q7 28 -5 51.5t-39 37.5t-63 14v119q74 -4 128 -38t79 -84t16 -101q-6 -29 -18 -50t-32 -47
q-15 -18 -22.5 -30.5t-8.5 -25.5q-2 -29 18.5 -49.5t52.5 -21.5l-1 -69q-33 0 -53.5 -12.5t-20.5 -37.5q0 -13 6 -27t19 -38q19 -34 29.5 -61.5t9.5 -60.5q-3 -69 -55 -111t-155 -42v116z" />
    <glyph glyph-name="asciitilde" unicode="~" horiz-adv-x="540" 
d="M31 162q-11 64 0.5 115t42.5 79.5t78 28.5q33 0 59 -13t59 -38q24 -17 41 -26.5t34 -9.5q33 0 46.5 24.5t7.5 58.5h108q11 -63 -4.5 -113.5t-50 -78t-79.5 -27.5q-32 0 -57 13t-57 37q-25 20 -42 29t-34 9q-30 0 -39.5 -24.5t-2.5 -63.5h-110z" />
    <glyph glyph-name="uni00A0" unicode="&#xa0;" horiz-adv-x="352" 
 />
    <glyph glyph-name="exclamdown" unicode="&#xa1;" horiz-adv-x="259" 
d="M188 -60h-156l44 477h90zM174 676q23 -12 36.5 -33t13.5 -45q0 -25 -13.5 -46t-36.5 -33.5t-51 -12.5t-51.5 12.5t-37.5 33.5t-14 46q0 24 14 44.5t37.5 33t51.5 12.5t51 -12z" />
    <glyph glyph-name="cent" unicode="&#xa2;" horiz-adv-x="707" 
d="M182.5 30.5q-71.5 42.5 -109 117t-35.5 166.5q2 89 43 163t114 117.5t167 43.5q86 0 150.5 -33t102.5 -91.5t49 -134.5h-134q-12 59 -56 97t-113 38q-54 0 -97 -28t-68 -74t-26 -99q-1 -58 21.5 -103.5t64.5 -70.5t97 -25q65 0 112.5 40t65.5 100h128q-12 -79 -53.5 -139
t-107.5 -93.5t-151 -33.5q-93 0 -164.5 42.5zM309 748h95v-868h-95v868z" />
    <glyph glyph-name="sterling" unicode="&#xa3;" horiz-adv-x="677" 
d="M147 413q-1 81 26.5 145t83.5 100.5t139 36.5q79 0 134 -34.5t81.5 -100.5t21.5 -159h-130q6 72 -23.5 114.5t-88.5 42.5q-57 0 -86 -47t-29 -157l-38 -203l-91 -17v279zM69 0q-11 62 3.5 113t48 80t77.5 30q34 1 74 -11t100 -36q50 -20 80 -30t53 -10q33 0 51.5 25.5
t12.5 58.5h98q11 -65 -5.5 -115t-53 -77.5t-85.5 -27.5q-36 0 -73.5 12.5t-92.5 35.5q-47 21 -76 30.5t-53 9.5q-31 0 -47.5 -25.5t-9.5 -62.5h-102zM69 384h383v-87h-383v87z" />
    <glyph glyph-name="currency" unicode="&#xa4;" horiz-adv-x="622" 
d="M160.5 118.5q-60.5 34.5 -94.5 94t-35 130.5q1 71 36.5 130.5t96.5 94.5t137 35t137 -35t95.5 -94t33.5 -130q0 -73 -36 -132.5t-98 -93.5t-136 -34q-76 0 -136.5 34.5zM-6 153l87 95l100 -74l-92 -105zM-5 531l101 88l93 -94l-83 -85zM374.5 204.5q33.5 21.5 52.5 58.5
t19 80q1 45 -16.5 81.5t-50.5 58t-77 21.5q-43 0 -76.5 -21.5t-52.5 -58t-20 -81.5q-1 -44 16.5 -80.5t50.5 -58t77 -21.5t77.5 21.5zM416 171l90 80l103 -115l-100 -70zM426 515l95 105l108 -73l-124 -125z" />
    <glyph glyph-name="yen" unicode="&#xa5;" horiz-adv-x="652" 
d="M231 115h-132v111h127l-228 446h153l157 -322l171 322h163l-251 -446h136v-111h-141v-115h-155v115z" />
    <glyph glyph-name="brokenbar" unicode="&#xa6;" horiz-adv-x="400" 
d="M150 748h98v-371h-98v371zM150 148h98v-371h-98v371z" />
    <glyph glyph-name="section" unicode="&#xa7;" horiz-adv-x="654" 
d="M160.5 -39q-68.5 28 -107 74.5t-41.5 100.5h141q7 -36 48 -62.5t112 -27.5q46 0 80 9.5t51 26t16 34.5q0 17 -13 28.5t-44.5 18.5t-89.5 11q-129 11 -196.5 54.5t-67.5 117.5q0 54 43.5 89.5t119.5 46.5l-6 -63q-76 20 -116.5 60t-40.5 97q0 47 33 84.5t93 58.5t139 21
q80 0 142 -24.5t99.5 -68.5t46.5 -99h-144q-9 34 -47 55.5t-98 21.5q-39 0 -66 -9t-40 -23t-12 -29q3 -25 32.5 -39t92.5 -18q154 -13 220.5 -53.5t68.5 -109.5q2 -58 -51.5 -97.5t-147.5 -49.5l56 56q73 -19 107.5 -54t35.5 -84q2 -48 -31.5 -89.5t-99 -67t-157.5 -25.5
t-160.5 28zM392.5 283.5q30.5 8.5 48.5 23.5t18 32t-18 32.5t-48.5 24t-65.5 8.5q-36 0 -66 -8.5t-47.5 -24t-17.5 -32.5t17.5 -32t47.5 -23.5t66 -8.5q35 0 65.5 8.5z" />
    <glyph glyph-name="dieresis" unicode="&#xa8;" horiz-adv-x="558" 
d="M348 580.5q-27 24.5 -27 60.5t26.5 60.5t67.5 24.5q42 0 69.5 -24.5t27.5 -60.5t-26.5 -60.5t-68.5 -24.5t-69 24.5zM85 580.5q-27 24.5 -27 60.5t26 60.5t66 24.5q43 0 70.5 -24.5t27.5 -60.5t-27 -60.5t-68 -24.5t-68 24.5z" />
    <glyph glyph-name="copyright" unicode="&#xa9;" horiz-adv-x="1004" 
d="M243 -140q-102 63 -154.5 171.5t-50.5 242.5q3 131 64 240.5t166 173t236 63.5q140 0 242.5 -64t155.5 -172.5t50 -240.5q-2 -130 -63 -239.5t-167 -173.5t-236 -64q-141 0 -243 63zM664 -54q81 48 128 132t55 190q8 105 -30.5 194t-116.5 141t-183 52t-188 -48.5
t-131 -133.5t-55 -192q-7 -111 32.5 -198t118 -136t182.5 -49q107 0 188 48zM366 46.5q-59 36.5 -91.5 98.5t-31.5 136q2 75 34.5 136.5t92 97.5t138.5 36q63 0 113.5 -28.5t82 -77t37.5 -106.5h-107q-5 26 -22 48.5t-44.5 36t-60.5 13.5q-40 0 -73.5 -21t-53.5 -56.5
t-22 -77.5q-1 -43 16 -79t48.5 -56.5t71.5 -20.5q53 0 88 26t47 70h109q-7 -58 -40.5 -106.5t-85.5 -77t-114 -28.5q-73 0 -132 36.5z" />
    <glyph glyph-name="ordfeminine" unicode="&#xaa;" horiz-adv-x="538" 
d="M139.5 285q-42.5 35 -66.5 94.5t-22 129.5q2 71 29.5 130.5t72.5 94.5t97 35t94.5 -35t66 -94.5t21.5 -130.5q-1 -70 -28.5 -129.5t-72.5 -94.5t-97 -35t-94.5 35zM341.5 367.5q28.5 22.5 46 60t18.5 81.5q1 45 -14.5 83t-42.5 60.5t-59 22.5q-33 0 -61.5 -22.5
t-45.5 -60.5t-19 -83q0 -45 15 -82t42 -59.5t60 -22.5q32 0 60.5 22.5zM407 719h120l-3 -419h-119z" />
    <glyph glyph-name="guillemotleft" unicode="&#xab;" horiz-adv-x="705" 
d="M306 227v69l253 215h188l-298 -251l271 -247h-176zM33 296l252 215h188l-297 -251l271 -247h-177l-237 214v69z" />
    <glyph glyph-name="logicalnot" unicode="&#xac;" horiz-adv-x="584" 
d="M37 408h508v-301h-145v171h-363v130z" />
    <glyph glyph-name="registered" unicode="&#xae;" horiz-adv-x="1002" 
d="M243 -140q-102 63 -154.5 171.5t-50.5 242.5q3 131 64 240.5t166 173t236 63.5q140 0 242.5 -64t155.5 -172.5t50 -240.5q-2 -130 -63 -239.5t-167 -173.5t-236 -64q-141 0 -243 63zM303 553h121v-529h-121v529zM664 -54q81 48 128 132t55 190q8 105 -30.5 194
t-116.5 141t-183 52t-188 -48.5t-131 -133.5t-55 -192q-7 -111 31 -198.5t116 -136t186 -48.5q107 0 188 48zM489 293q51 0 80.5 22t27.5 67q-2 42 -29 59t-77 17h-84l-4 -165h86zM382 270l-2 283h120q66 1 115 -22t74.5 -62t27.5 -87q3 -67 -37.5 -108.5t-118.5 -51.5
l191 -188l-137 -10z" />
    <glyph glyph-name="macron" unicode="&#xaf;" horiz-adv-x="590" 
d="M89 699h415v-120h-415v120z" />
    <glyph glyph-name="degree" unicode="&#xb0;" horiz-adv-x="350" 
d="M97 431q-36 19 -56.5 51t-20.5 71q0 38 20 71t55.5 52t80.5 19q47 0 83.5 -17.5t56.5 -48.5t20 -70t-19.5 -73t-56 -54t-83.5 -20q-44 0 -80 19zM222 509.5q16 17.5 15 43.5q2 27 -13.5 45t-44.5 18q-30 0 -45.5 -18t-16.5 -45q-1 -26 15 -43.5t45 -17.5t45 17.5z" />
    <glyph glyph-name="plusminus" unicode="&#xb1;" horiz-adv-x="584" 
d="M216 326h-179v130h179v181h145v-181h184v-130h-184v-171h-145v171zM37 117h508v-129h-508v129z" />
    <glyph glyph-name="uni00B2" unicode="&#xb2;" horiz-adv-x="523" 
d="M47 330q77 26 168.5 78t144.5 117q31 35 32 70.5t-26.5 58.5t-73.5 23q-44 0 -75.5 -18t-44.5 -47.5t-5 -63.5h-118q-8 56 16.5 109t83 87t145.5 34q63 0 109.5 -19.5t73 -51.5t32.5 -71q13 -84 -53.5 -157.5t-205.5 -141.5h288v-97h-492z" />
    <glyph glyph-name="uni00B3" unicode="&#xb3;" horiz-adv-x="558" 
d="M116 281.5q-62 41.5 -72 109.5q-4 23 0 47h116q-1 -4 -1 -8v-8q0 -3 0.5 -5.5t0.5 -4.5q5 -30 39.5 -48t92.5 -18q48 0 81.5 12.5t49.5 32.5t12 43q-5 26 -34.5 43t-87.5 17h-116l2 73h110q40 0 65 9.5t35 24t8 30.5q-4 22 -33 36t-86 14q-52 0 -78.5 -18t-25.5 -47h-117
q-7 48 20.5 85t82 57t124.5 20q110 0 167.5 -34.5t65.5 -90.5q6 -37 -13.5 -68.5t-61.5 -50.5q40 -17 64.5 -43.5t29.5 -60.5q7 -44 -16.5 -87.5t-86.5 -73t-167 -29.5q-108 0 -170 41.5z" />
    <glyph glyph-name="acute" unicode="&#xb4;" horiz-adv-x="348" 
d="M23 620l233 145l67 -115l-259 -102z" />
    <glyph glyph-name="uni00B5" unicode="&#xb5;" 
d="M108 41.5q-53 60.5 -53 176.5v305h149v-302q0 -55 28 -88.5t81 -33.5q47 0 85.5 24t61.5 68.5t24 103.5l48 -18q-2 -87 -39.5 -154.5t-99 -104.5t-133.5 -37q-99 0 -152 60.5zM55 460l41 -22l76 -661h-117v683zM484 523h148v-523h-148v523z" />
    <glyph glyph-name="paragraph" unicode="&#xb6;" horiz-adv-x="626" 
d="M390 748h98v-971h-98v971zM150 748h98v-971h-98v971zM150 424q-75 0 -121.5 46t-46.5 121q0 76 46 122t122 46v-335zM150 759h469v-120h-469v120z" />
    <glyph glyph-name="periodcentered" unicode="&#xb7;" horiz-adv-x="320" 
d="M95 314q-27 25 -27 61q0 35 26.5 60t66.5 25q42 0 69.5 -25t27.5 -61q0 -35 -27 -60t-67 -25q-42 0 -69 25z" />
    <glyph glyph-name="cedilla" unicode="&#xb8;" horiz-adv-x="451" 
d="M47 -173q92 -9 141.5 -8.5t74.5 12.5t21 36q-4 21 -35 24.5t-77 1.5l-20 -2l48 145l83 4l-17 -101q57 6 96.5 -9t49.5 -60q14 -60 -26.5 -96t-132.5 -47t-214 11z" />
    <glyph glyph-name="uni00B9" unicode="&#xb9;" horiz-adv-x="236" 
d="M72 718l59 60h63v-538h-123z" />
    <glyph glyph-name="ordmasculine" unicode="&#xba;" horiz-adv-x="585" 
d="M178 284.5q-61 34.5 -95.5 94t-34.5 130.5q1 71 36 130.5t96.5 94.5t137.5 35t136.5 -35t95 -94.5t34.5 -130.5t-34.5 -130.5t-96 -94t-137.5 -34.5q-77 0 -138 34.5zM391 370.5q34 21.5 53 58.5t19 80q1 45 -16.5 81.5t-50 58t-77.5 21.5q-43 0 -76.5 -21.5t-52.5 -58
t-20 -81.5q-1 -44 16.5 -80.5t50.5 -58t77 -21.5q43 0 77 21.5z" />
    <glyph glyph-name="guillemotright" unicode="&#xbb;" horiz-adv-x="734" 
d="M565 264l-271 247h177l236 -213v-70l-252 -215h-187zM291 264l-270 247h176l237 -213v-70l-252 -215h-187z" />
    <glyph glyph-name="onequarter" unicode="&#xbc;" horiz-adv-x="954" 
d="M644 698h133l-508 -747h-132zM126 718l59 60h63v-538h-123zM720 418h113v-351h57v-101h-58v-86h-112l1 86h-317zM727 63l9 222l-157 -222h148z" />
    <glyph glyph-name="onehalf" unicode="&#xbd;" horiz-adv-x="1083" 
d="M660 698h132l-507 -747h-132zM126 718l59 60h63v-538h-123zM593 -30q77 26 168.5 77.5t145.5 117.5q31 35 32 70.5t-26 58.5t-73 23q-44 0 -76 -18t-45 -47.5t-5 -63.5h-116q-9 56 15 109t82.5 87t146.5 34q61 0 108 -19.5t73.5 -51.5t32.5 -71q13 -83 -53.5 -157
t-205.5 -142h288v-97h-492v90z" />
    <glyph glyph-name="threequarters" unicode="&#xbe;" horiz-adv-x="1276" 
d="M918 698h132l-507 -747h-132zM170 281.5q-62 41.5 -72 109.5q-4 23 0 47h116q-1 -4 -1 -8v-8q0 -3 0.5 -5.5t0.5 -4.5q5 -30 39.5 -48t92.5 -18q48 0 81.5 12.5t49.5 32.5t12 43q-5 26 -34.5 43t-87.5 17h-116l2 73h110q40 0 65 9.5t35 24t8 30.5q-4 22 -33 36t-86 14
q-52 0 -78.5 -18t-25.5 -47h-117q-7 48 20.5 85t82 57t124.5 20q110 0 167.5 -34.5t65.5 -90.5q6 -37 -13.5 -68.5t-61.5 -50.5q40 -17 64.5 -43.5t29.5 -60.5q7 -44 -16.5 -87.5t-86.5 -73t-167 -29.5q-108 0 -170 41.5zM999 -34h-316l315 452h114v-351h57v-101h-59v-86
h-112zM1005 63l11 222l-158 -222h147z" />
    <glyph glyph-name="questiondown" unicode="&#xbf;" horiz-adv-x="664" 
d="M448 291h-25.5t-25.5 -1q-103 -5 -164.5 -35t-61.5 -91q0 -40 31.5 -71t90.5 -39q71 -10 121.5 7t74 53t18.5 82h142q3 -79 -32.5 -136.5t-108.5 -88.5t-181 -31q-71 0 -140.5 23t-116 71t-46.5 121q-1 63 35.5 110.5t103.5 76.5t156 36l20 82h91zM431 688
q23 -12 36.5 -33t13.5 -45q0 -25 -13.5 -46t-36.5 -33.5t-52 -12.5q-28 0 -51.5 12.5t-37 33.5t-13.5 46q0 24 13.5 44.5t37 33t51.5 12.5q29 0 52 -12z" />
    <glyph glyph-name="Agrave" unicode="&#xc0;" horiz-adv-x="708" 
d="M256 695h199l237 -695h-156l-48 143h-265l-45 -143h-163zM451 257l-99 286l-96 -286h195zM189 846l69 111l232 -180l-38 -63z" />
    <glyph glyph-name="Aacute" unicode="&#xc1;" horiz-adv-x="708" 
d="M256 695h199l237 -695h-156l-48 143h-265l-45 -143h-163zM451 257l-99 286l-96 -286h195zM219 792l233 145l67 -115l-259 -102z" />
    <glyph glyph-name="Acircumflex" unicode="&#xc2;" horiz-adv-x="708" 
d="M256 695h199l237 -695h-156l-48 143h-265l-45 -143h-163zM451 257l-99 286l-96 -286h195zM302 904h109l163 -180h-130l-81 92l-87 -92h-143z" />
    <glyph glyph-name="Atilde" unicode="&#xc3;" horiz-adv-x="708" 
d="M256 695h199l237 -695h-156l-48 143h-265l-45 -143h-163zM451 257l-99 286l-96 -286h195zM129 719q-9 57 3.5 99.5t44.5 65.5t77 23q33 0 56.5 -10.5t50.5 -30.5q17 -13 30 -20t27 -7q33 0 46.5 17.5t8.5 47.5h107q10 -58 -6.5 -99.5t-52 -63.5t-80.5 -22q-32 0 -54.5 11
t-47.5 31q-19 14 -31.5 21t-26.5 7q-27 0 -37.5 -18t-5.5 -52h-109z" />
    <glyph glyph-name="Adieresis" unicode="&#xc4;" horiz-adv-x="708" 
d="M256 695h199l237 -695h-156l-48 143h-265l-45 -143h-163zM451 257l-99 286l-96 -286h195zM417 757.5q-27 24.5 -27 60.5t26.5 60.5t67.5 24.5q42 0 69.5 -24.5t27.5 -60.5t-26.5 -60.5t-68.5 -24.5t-69 24.5zM154 757.5q-27 24.5 -27 60.5t26 60.5t66 24.5
q43 0 70.5 -24.5t27.5 -60.5t-27 -60.5t-68 -24.5t-68 24.5z" />
    <glyph glyph-name="Aring" unicode="&#xc5;" horiz-adv-x="708" 
d="M256 695h199l237 -695h-156l-48 143h-265l-45 -143h-163zM451 257l-99 286l-96 -286h195zM274 739q-36 19 -56.5 51t-20.5 71q0 38 20 71t55.5 52t80.5 19q47 0 83.5 -17.5t56.5 -48.5t20 -70t-19.5 -73t-56 -54t-83.5 -20q-44 0 -80 19zM399 817.5q16 17.5 15 43.5
q2 27 -13.5 45t-44.5 18q-30 0 -45.5 -18t-16.5 -45q-1 -26 15 -43.5t45 -17.5t45 17.5z" />
    <glyph glyph-name="AE" unicode="&#xc6;" horiz-adv-x="906" 
d="M359 695h493v-120h-273v-170h232v-122h-232v-160h285v-123h-434v143h-186l-69 -143h-162zM430 257v265l-132 -265h132z" />
    <glyph glyph-name="Ccedilla" unicode="&#xc7;" horiz-adv-x="711" 
d="M166 -173q91 -9 140.5 -8.5t74.5 12.5t21 36q-4 21 -35 24.5t-77 1.5l-20 -2l48 145l83 4l-16 -101q56 6 95.5 -9t50.5 -60q13 -60 -27.5 -96t-132.5 -47t-214 11zM182.5 28.5q-77.5 47.5 -118 129t-37.5 179.5q1 98 45 180t123 130t181 48q93 0 163 -43.5t108 -112
t39 -141.5h-142q-3 47 -24.5 84.5t-59 58.5t-88.5 21q-57 0 -101 -31t-68.5 -82.5t-26.5 -110.5q-2 -67 20.5 -117.5t66 -78.5t102.5 -28q45 0 83 20t62 56t30 83h145q-6 -71 -47 -138.5t-111.5 -110.5t-163.5 -43q-103 0 -180.5 47.5z" />
    <glyph glyph-name="Egrave" unicode="&#xc8;" horiz-adv-x="584" 
d="M49 695h482l-1 -120h-333v-170h292v-122h-292v-160h345v-123h-494zM128 846l69 111l232 -180l-38 -63z" />
    <glyph glyph-name="Eacute" unicode="&#xc9;" horiz-adv-x="584" 
d="M49 695h482l-1 -120h-333v-170h292v-122h-292v-160h345v-123h-494zM158 792l233 145l67 -115l-259 -102z" />
    <glyph glyph-name="Ecircumflex" unicode="&#xca;" horiz-adv-x="584" 
d="M49 695h482l-1 -120h-333v-170h292v-122h-292v-160h345v-123h-494zM241 904h109l163 -180h-130l-81 92l-87 -92h-143z" />
    <glyph glyph-name="Edieresis" unicode="&#xcb;" horiz-adv-x="584" 
d="M49 695h482l-1 -120h-333v-170h292v-122h-292v-160h345v-123h-494zM356 757.5q-27 24.5 -27 60.5t26.5 60.5t67.5 24.5q42 0 69.5 -24.5t27.5 -60.5t-26.5 -60.5t-68.5 -24.5t-69 24.5zM93 757.5q-27 24.5 -27 60.5t26 60.5t66 24.5q43 0 70.5 -24.5t27.5 -60.5
t-27 -60.5t-68 -24.5t-68 24.5z" />
    <glyph glyph-name="Igrave" unicode="&#xcc;" horiz-adv-x="276" 
d="M66 695h149v-695h-149v695zM-27 846l69 111l232 -180l-38 -63z" />
    <glyph glyph-name="Iacute" unicode="&#xcd;" horiz-adv-x="276" 
d="M66 695h149v-695h-149v695zM3 792l233 145l67 -115l-259 -102z" />
    <glyph glyph-name="Icircumflex" unicode="&#xce;" horiz-adv-x="276" 
d="M66 695h149v-695h-149v695zM86 904h109l163 -180h-130l-81 92l-87 -92h-143z" />
    <glyph glyph-name="Idieresis" unicode="&#xcf;" horiz-adv-x="276" 
d="M66 695h149v-695h-149v695zM201 757.5q-27 24.5 -27 60.5t26.5 60.5t67.5 24.5q42 0 69.5 -24.5t27.5 -60.5t-26.5 -60.5t-68.5 -24.5t-69 24.5zM-62 757.5q-27 24.5 -27 60.5t26 60.5t66 24.5q43 0 70.5 -24.5t27.5 -60.5t-27 -60.5t-68 -24.5t-68 24.5z" />
    <glyph glyph-name="Eth" unicode="&#xd0;" horiz-adv-x="670" 
d="M5 413h336v-121h-336v121zM113 695h210q94 0 165.5 -48t109.5 -127.5t38 -172.5q0 -88 -38 -168t-110 -129.5t-168 -49.5h-240zM56 695h151v-695h-151v695zM310 122q53 0 95.5 31.5t65 86.5t20.5 119q-3 102 -51.5 159t-130.5 57h-159l10 -453h150z" />
    <glyph glyph-name="Ntilde" unicode="&#xd1;" horiz-adv-x="737" 
d="M201 473v-473h-145v695h145l337 -483v483h143v-695h-150zM144 719q-9 57 3.5 99.5t44.5 65.5t77 23q33 0 56.5 -10.5t50.5 -30.5q17 -13 30 -20t27 -7q33 0 46.5 17.5t8.5 47.5h107q10 -58 -6.5 -99.5t-52 -63.5t-80.5 -22q-32 0 -54.5 11t-47.5 31q-19 14 -31.5 21
t-26.5 7q-27 0 -37.5 -18t-5.5 -52h-109z" />
    <glyph glyph-name="Ograve" unicode="&#xd2;" horiz-adv-x="773" 
d="M188 28q-80 47 -121.5 127.5t-39.5 181.5q2 96 47 178t126.5 131t189.5 49q106 0 185.5 -47t121.5 -128.5t40 -182.5q-2 -99 -49 -180.5t-129 -128.5t-184 -47q-107 0 -187 47zM486 143.5q47 30.5 73 82t28 111.5q1 63 -22.5 114.5t-69.5 81.5t-110 30q-60 0 -107 -31.5
t-73 -83.5t-28 -111q-2 -65 21.5 -116t69.5 -79.5t108 -28.5q63 0 110 30.5zM222 846l69 111l232 -180l-38 -63z" />
    <glyph glyph-name="Oacute" unicode="&#xd3;" horiz-adv-x="773" 
d="M188 28q-80 47 -121.5 127.5t-39.5 181.5q2 96 47 178t126.5 131t189.5 49q106 0 185.5 -47t121.5 -128.5t40 -182.5q-2 -99 -49 -180.5t-129 -128.5t-184 -47q-107 0 -187 47zM486 143.5q47 30.5 73 82t28 111.5q1 63 -22.5 114.5t-69.5 81.5t-110 30q-60 0 -107 -31.5
t-73 -83.5t-28 -111q-2 -65 21.5 -116t69.5 -79.5t108 -28.5q63 0 110 30.5zM252 792l233 145l67 -115l-259 -102z" />
    <glyph glyph-name="Ocircumflex" unicode="&#xd4;" horiz-adv-x="773" 
d="M188 28q-80 47 -121.5 127.5t-39.5 181.5q2 96 47 178t126.5 131t189.5 49q106 0 185.5 -47t121.5 -128.5t40 -182.5q-2 -99 -49 -180.5t-129 -128.5t-184 -47q-107 0 -187 47zM486 143.5q47 30.5 73 82t28 111.5q1 63 -22.5 114.5t-69.5 81.5t-110 30q-60 0 -107 -31.5
t-73 -83.5t-28 -111q-2 -65 21.5 -116t69.5 -79.5t108 -28.5q63 0 110 30.5zM335 904h109l163 -180h-130l-81 92l-87 -92h-143z" />
    <glyph glyph-name="Otilde" unicode="&#xd5;" horiz-adv-x="773" 
d="M188 28q-80 47 -121.5 127.5t-39.5 181.5q2 96 47 178t126.5 131t189.5 49q106 0 185.5 -47t121.5 -128.5t40 -182.5q-2 -99 -49 -180.5t-129 -128.5t-184 -47q-107 0 -187 47zM486 143.5q47 30.5 73 82t28 111.5q1 63 -22.5 114.5t-69.5 81.5t-110 30q-60 0 -107 -31.5
t-73 -83.5t-28 -111q-2 -65 21.5 -116t69.5 -79.5t108 -28.5q63 0 110 30.5zM162 719q-9 57 3.5 99.5t44.5 65.5t77 23q33 0 56.5 -10.5t50.5 -30.5q17 -13 30 -20t27 -7q33 0 46.5 17.5t8.5 47.5h107q10 -58 -6.5 -99.5t-52 -63.5t-80.5 -22q-32 0 -54.5 11t-47.5 31
q-19 14 -31.5 21t-26.5 7q-27 0 -37.5 -18t-5.5 -52h-109z" />
    <glyph glyph-name="Odieresis" unicode="&#xd6;" horiz-adv-x="773" 
d="M188 28q-80 47 -121.5 127.5t-39.5 181.5q2 96 47 178t126.5 131t189.5 49q106 0 185.5 -47t121.5 -128.5t40 -182.5q-2 -99 -49 -180.5t-129 -128.5t-184 -47q-107 0 -187 47zM486 143.5q47 30.5 73 82t28 111.5q1 63 -22.5 114.5t-69.5 81.5t-110 30q-60 0 -107 -31.5
t-73 -83.5t-28 -111q-2 -65 21.5 -116t69.5 -79.5t108 -28.5q63 0 110 30.5zM450 757.5q-27 24.5 -27 60.5t26.5 60.5t67.5 24.5q42 0 69.5 -24.5t27.5 -60.5t-26.5 -60.5t-68.5 -24.5t-69 24.5zM187 757.5q-27 24.5 -27 60.5t26 60.5t66 24.5q43 0 70.5 -24.5t27.5 -60.5
t-27 -60.5t-68 -24.5t-68 24.5z" />
    <glyph glyph-name="multiply" unicode="&#xd7;" horiz-adv-x="568" 
d="M185 351l-173 202h157l106 -131l113 131h148l-180 -213l183 -202h-158l-113 132l-108 -132h-149z" />
    <glyph glyph-name="Oslash" unicode="&#xd8;" horiz-adv-x="773" 
d="M188 28q-80 47 -121.5 127.5t-39.5 181.5q2 96 47 178t126.5 131t189.5 49q106 0 185.5 -47t121.5 -128.5t40 -182.5q-2 -99 -49 -180.5t-129 -128.5t-184 -47q-107 0 -187 47zM486 143.5q47 30.5 73 82t28 111.5q1 63 -22.5 114.5t-69.5 81.5t-110 30q-60 0 -107 -31.5
t-73 -83.5t-28 -111q-2 -65 21.5 -116t69.5 -79.5t108 -28.5q63 0 110 30.5zM511 692h140l-388 -711h-139z" />
    <glyph glyph-name="Ugrave" unicode="&#xd9;" horiz-adv-x="744" 
d="M130.5 65q-86.5 84 -86.5 258v372h148v-367q0 -112 47 -160.5t133 -48.5q87 0 134.5 51.5t47.5 157.5v367h152v-376q0 -107 -39.5 -182.5t-115 -115.5t-182.5 -40q-152 0 -238.5 84zM193 846l69 111l232 -180l-38 -63z" />
    <glyph glyph-name="Uacute" unicode="&#xda;" horiz-adv-x="744" 
d="M130.5 65q-86.5 84 -86.5 258v372h148v-367q0 -112 47 -160.5t133 -48.5q87 0 134.5 51.5t47.5 157.5v367h152v-376q0 -107 -39.5 -182.5t-115 -115.5t-182.5 -40q-152 0 -238.5 84zM222 792l233 145l67 -115l-259 -102z" />
    <glyph glyph-name="Ucircumflex" unicode="&#xdb;" horiz-adv-x="744" 
d="M130.5 65q-86.5 84 -86.5 258v372h148v-367q0 -112 47 -160.5t133 -48.5q87 0 134.5 51.5t47.5 157.5v367h152v-376q0 -107 -39.5 -182.5t-115 -115.5t-182.5 -40q-152 0 -238.5 84zM320 904h109l163 -180h-130l-81 92l-87 -92h-143z" />
    <glyph glyph-name="Udieresis" unicode="&#xdc;" horiz-adv-x="744" 
d="M130.5 65q-86.5 84 -86.5 258v372h148v-367q0 -112 47 -160.5t133 -48.5q87 0 134.5 51.5t47.5 157.5v367h152v-376q0 -107 -39.5 -182.5t-115 -115.5t-182.5 -40q-152 0 -238.5 84zM435 757.5q-27 24.5 -27 60.5t26.5 60.5t67.5 24.5q42 0 69.5 -24.5t27.5 -60.5
t-26.5 -60.5t-68.5 -24.5t-69 24.5zM172 757.5q-27 24.5 -27 60.5t26 60.5t66 24.5q43 0 70.5 -24.5t27.5 -60.5t-27 -60.5t-68 -24.5t-68 24.5z" />
    <glyph glyph-name="Yacute" unicode="&#xdd;" horiz-adv-x="520" 
d="M179 207l-236 488h158l154 -343l173 343h162l-258 -476v-219h-153v207zM110 792l233 145l67 -115l-259 -102z" />
    <glyph glyph-name="Thorn" unicode="&#xde;" horiz-adv-x="653" 
d="M113 602h202q97 0 164 -33t101.5 -90t36.5 -126q0 -81 -40 -142t-116.5 -94t-183.5 -34h-172zM51 695h149v-695h-149v695zM295 210q44 0 84 15t64.5 48.5t21.5 85.5q-3 61 -44 94.5t-107 33.5l-167 -1l4 -276h144z" />
    <glyph glyph-name="germandbls" unicode="&#xdf;" horiz-adv-x="667" 
d="M49 493q1 70 34.5 126.5t96.5 89.5t150 33q96 0 162.5 -33t98.5 -88t29 -119q-1 -32 -18 -62.5t-45.5 -52.5t-61.5 -31q60 -10 95.5 -53.5t38.5 -99.5q3 -59 -24 -105t-79.5 -72t-126.5 -26h-135v116h100q52 0 81.5 24t32.5 70q2 41 -24.5 66.5t-76.5 25.5h-110v106h96
q53 0 84.5 27t33.5 72q2 46 -32.5 77t-101.5 31q-42 0 -76.5 -19t-54.5 -53t-21 -77v-528h-146v555z" />
    <glyph glyph-name="agrave" unicode="&#xe0;" 
d="M156 18q-57 37 -89.5 101.5t-32.5 143.5q0 77 35.5 141t95 101t129.5 37q71 0 127 -37t87 -101t30 -141q0 -77 -34 -141.5t-92.5 -102.5t-129.5 -38q-69 0 -126 37zM406.5 113.5q37.5 22.5 60 61.5t22.5 87q0 49 -19.5 88t-54 61.5t-77.5 22.5q-44 0 -81.5 -22.5t-59 -62
t-21.5 -88.5t19 -87.5t53.5 -60.5t77.5 -22t80.5 22.5zM489 523h148v-523h-147zM170 710l69 111l232 -180l-38 -63z" />
    <glyph glyph-name="aacute" unicode="&#xe1;" 
d="M156 18q-57 37 -89.5 101.5t-32.5 143.5q0 77 35.5 141t95 101t129.5 37q71 0 127 -37t87 -101t30 -141q0 -77 -34 -141.5t-92.5 -102.5t-129.5 -38q-69 0 -126 37zM406.5 113.5q37.5 22.5 60 61.5t22.5 87q0 49 -19.5 88t-54 61.5t-77.5 22.5q-44 0 -81.5 -22.5t-59 -62
t-21.5 -88.5t19 -87.5t53.5 -60.5t77.5 -22t80.5 22.5zM489 523h148v-523h-147zM226 644l233 145l67 -115l-259 -102z" />
    <glyph glyph-name="acircumflex" unicode="&#xe2;" 
d="M156 18q-57 37 -89.5 101.5t-32.5 143.5q0 77 35.5 141t95 101t129.5 37q71 0 127 -37t87 -101t30 -141q0 -77 -34 -141.5t-92.5 -102.5t-129.5 -38q-69 0 -126 37zM406.5 113.5q37.5 22.5 60 61.5t22.5 87q0 49 -19.5 88t-54 61.5t-77.5 22.5q-44 0 -81.5 -22.5t-59 -62
t-21.5 -88.5t19 -87.5t53.5 -60.5t77.5 -22t80.5 22.5zM489 523h148v-523h-147zM292 763h103l154 -180h-123l-77 92l-82 -92h-135z" />
    <glyph glyph-name="atilde" unicode="&#xe3;" 
d="M156 18q-57 37 -89.5 101.5t-32.5 143.5q0 77 35.5 141t95 101t129.5 37q71 0 127 -37t87 -101t30 -141q0 -77 -34 -141.5t-92.5 -102.5t-129.5 -38q-69 0 -126 37zM406.5 113.5q37.5 22.5 60 61.5t22.5 87q0 49 -19.5 88t-54 61.5t-77.5 22.5q-44 0 -81.5 -22.5t-59 -62
t-21.5 -88.5t19 -87.5t53.5 -60.5t77.5 -22t80.5 22.5zM489 523h148v-523h-147zM129 583q-9 57 3.5 99.5t44.5 65.5t77 23q33 0 56.5 -10.5t50.5 -30.5q17 -13 30 -20t27 -7q33 0 46.5 17.5t8.5 47.5h107q10 -58 -6.5 -99.5t-52 -63.5t-80.5 -22q-32 0 -54.5 11t-47.5 31
q-19 14 -31.5 21t-26.5 7q-27 0 -37.5 -18t-5.5 -52h-109z" />
    <glyph glyph-name="adieresis" unicode="&#xe4;" 
d="M156 18q-57 37 -89.5 101.5t-32.5 143.5q0 77 35.5 141t95 101t129.5 37q71 0 127 -37t87 -101t30 -141q0 -77 -34 -141.5t-92.5 -102.5t-129.5 -38q-69 0 -126 37zM406.5 113.5q37.5 22.5 60 61.5t22.5 87q0 49 -19.5 88t-54 61.5t-77.5 22.5q-44 0 -81.5 -22.5t-59 -62
t-21.5 -88.5t19 -87.5t53.5 -60.5t77.5 -22t80.5 22.5zM489 523h148v-523h-147zM404 616.5q-27 24.5 -27 60.5t26.5 60.5t67.5 24.5q42 0 69.5 -24.5t27.5 -60.5t-26.5 -60.5t-68.5 -24.5t-69 24.5zM141 616.5q-27 24.5 -27 60.5t26 60.5t66 24.5q43 0 70.5 -24.5
t27.5 -60.5t-27 -60.5t-68 -24.5t-68 24.5z" />
    <glyph glyph-name="aring" unicode="&#xe5;" 
d="M156 18q-57 37 -89.5 101.5t-32.5 143.5q0 77 35.5 141t95 101t129.5 37q71 0 127 -37t87 -101t30 -141q0 -77 -34 -141.5t-92.5 -102.5t-129.5 -38q-69 0 -126 37zM406.5 113.5q37.5 22.5 60 61.5t22.5 87q0 49 -19.5 88t-54 61.5t-77.5 22.5q-44 0 -81.5 -22.5t-59 -62
t-21.5 -88.5t19 -87.5t53.5 -60.5t77.5 -22t80.5 22.5zM489 523h148v-523h-147zM261 579q-36 19 -56.5 51t-20.5 71q0 38 20 71t55.5 52t80.5 19q47 0 83.5 -17.5t56.5 -48.5t20 -70t-19.5 -73t-56 -54t-83.5 -20q-44 0 -80 19zM386 657.5q16 17.5 15 43.5q2 27 -13.5 45
t-44.5 18q-30 0 -45.5 -18t-16.5 -45q-1 -26 15 -43.5t45 -17.5t45 17.5z" />
    <glyph glyph-name="ae" unicode="&#xe6;" horiz-adv-x="1055" 
d="M579 16.5q-64 35.5 -97.5 99.5t-32.5 146q1 76 36 140t98.5 102t144.5 38q94 0 159 -39.5t96 -103.5t30 -138q-1 -19 -6 -45h-425q5 -55 45.5 -87t105.5 -32q43 0 78 17.5t60 45.5l107 -65q-42 -52 -106.5 -83t-143.5 -31q-85 0 -149 35.5zM388.5 127.5
q41.5 33.5 51.5 92.5h-175q-59 0 -83.5 -31.5t2.5 -63t96 -31.5q67 0 108.5 33.5zM61.5 62.5q-53.5 81.5 -3 163t180.5 81.5h203q0 51 -32.5 82t-98.5 31q-49 0 -80.5 -18t-49.5 -53l-126 54q33 61 99.5 100t163.5 39q87 0 145 -31.5t85.5 -87.5t25.5 -127l-21 -53
q-2 -77 -42 -136.5t-108 -92.5t-155 -33q-133 0 -186.5 81.5zM868 305q-1 32 -16 60t-44.5 45.5t-72.5 17.5q-58 0 -97 -33t-52 -90h282z" />
    <glyph glyph-name="ccedilla" unicode="&#xe7;" horiz-adv-x="669" 
d="M145 -173q92 -9 141.5 -8.5t74.5 12.5t21 36q-4 21 -35 24.5t-77 1.5l-20 -2l48 145l83 4l-17 -101q57 6 96.5 -9t49.5 -60q14 -60 -26.5 -96t-132.5 -47t-214 11zM172 18q-67 37 -103.5 101t-35.5 143q2 77 40.5 141t107 101.5t157.5 37.5q77 0 140 -31t102.5 -84
t46.5 -117h-137q-5 29 -25.5 54.5t-52.5 41.5t-72 16q-49 0 -87.5 -22.5t-59.5 -59t-22 -78.5q0 -47 19 -83.5t56 -57t86 -20.5q60 0 101.5 33.5t56.5 84.5h133q-8 -68 -49.5 -122.5t-106 -85t-139.5 -30.5q-89 0 -156 37z" />
    <glyph glyph-name="egrave" unicode="&#xe8;" horiz-adv-x="656" 
d="M170 17q-69 36 -106.5 100t-35.5 145q1 76 40 140t108 102t155 38q94 0 161 -39.5t101 -104t33 -137.5q-2 -34 -6 -45h-447q4 -55 48.5 -87t113.5 -32q47 0 86 18t63 45l108 -65q-41 -51 -111 -82.5t-151 -31.5q-91 0 -160 36zM482 305q-1 32 -19 60t-50.5 45.5
t-76.5 17.5q-61 0 -104 -33.5t-57 -89.5h307zM157 710l69 111l232 -180l-38 -63z" />
    <glyph glyph-name="eacute" unicode="&#xe9;" horiz-adv-x="656" 
d="M170 17q-69 36 -106.5 100t-35.5 145q1 76 40 140t108 102t155 38q94 0 161 -39.5t101 -104t33 -137.5q-2 -34 -6 -45h-447q4 -55 48.5 -87t113.5 -32q47 0 86 18t63 45l108 -65q-41 -51 -111 -82.5t-151 -31.5q-91 0 -160 36zM482 305q-1 32 -19 60t-50.5 45.5
t-76.5 17.5q-61 0 -104 -33.5t-57 -89.5h307zM211 644l233 145l67 -115l-259 -102z" />
    <glyph glyph-name="ecircumflex" unicode="&#xea;" horiz-adv-x="656" 
d="M170 17q-69 36 -106.5 100t-35.5 145q1 76 40 140t108 102t155 38q94 0 161 -39.5t101 -104t33 -137.5q-2 -34 -6 -45h-447q4 -55 48.5 -87t113.5 -32q47 0 86 18t63 45l108 -65q-41 -51 -111 -82.5t-151 -31.5q-91 0 -160 36zM482 305q-1 32 -19 60t-50.5 45.5
t-76.5 17.5q-61 0 -104 -33.5t-57 -89.5h307zM268 768h109l163 -180h-130l-81 92l-87 -92h-143z" />
    <glyph glyph-name="edieresis" unicode="&#xeb;" horiz-adv-x="656" 
d="M170 17q-69 36 -106.5 100t-35.5 145q1 76 40 140t108 102t155 38q94 0 161 -39.5t101 -104t33 -137.5q-2 -34 -6 -45h-447q4 -55 48.5 -87t113.5 -32q47 0 86 18t63 45l108 -65q-41 -51 -111 -82.5t-151 -31.5q-91 0 -160 36zM482 305q-1 32 -19 60t-50.5 45.5
t-76.5 17.5q-61 0 -104 -33.5t-57 -89.5h307zM391 616.5q-27 24.5 -27 60.5t26.5 60.5t67.5 24.5q42 0 69.5 -24.5t27.5 -60.5t-26.5 -60.5t-68.5 -24.5t-69 24.5zM128 616.5q-27 24.5 -27 60.5t26 60.5t66 24.5q43 0 70.5 -24.5t27.5 -60.5t-27 -60.5t-68 -24.5t-68 24.5z
" />
    <glyph glyph-name="igrave" unicode="&#xec;" horiz-adv-x="262" 
d="M56 523h150v-523h-150v523zM-40 710l69 111l232 -180l-38 -63z" />
    <glyph glyph-name="iacute" unicode="&#xed;" horiz-adv-x="262" 
d="M56 523h150v-523h-150v523zM16 644l233 145l67 -115l-259 -102z" />
    <glyph glyph-name="icircumflex" unicode="&#xee;" horiz-adv-x="262" 
d="M56 523h150v-523h-150v523zM82 761h92l137 -180h-109l-68 92l-73 -92h-120z" />
    <glyph glyph-name="idieresis" unicode="&#xef;" horiz-adv-x="262" 
d="M56 523h150v-523h-150v523zM195 616.5q-27 24.5 -27 60.5t26.5 60.5t67.5 24.5q42 0 69.5 -24.5t27.5 -60.5t-26.5 -60.5t-68.5 -24.5t-69 24.5zM-68 616.5q-27 24.5 -27 60.5t26 60.5t66 24.5q43 0 70.5 -24.5t27.5 -60.5t-27 -60.5t-68 -24.5t-68 24.5z" />
    <glyph glyph-name="eth" unicode="&#xf0;" horiz-adv-x="718" 
d="M186 20.5q-76 39.5 -117.5 109t-35.5 153.5q8 99 77 162t167 76.5t189 -26.5q-103 131 -343 253h207q111 -60 192 -138t124 -164t42 -171q0 -83 -41 -149.5t-117 -105.5t-173 -39q-95 0 -171 39.5zM453.5 125.5q40.5 21.5 62.5 59t24 83.5t-18 83.5t-59 58.5t-93 21
t-96 -21t-65.5 -58.5t-24.5 -83.5q-2 -46 19 -83t62 -59t94 -22q54 0 94.5 21.5zM124 628l453 136l45 -78l-451 -124z" />
    <glyph glyph-name="ntilde" unicode="&#xf1;" 
d="M484 303q0 55 -28.5 88t-81.5 33q-47 0 -85.5 -24t-61 -68t-24.5 -103l-49 17q2 87 39.5 154.5t99 104.5t134.5 37q99 0 152 -60.5t53 -176.5v-305h-148v303zM55 523h148v-523h-148v523zM129 583q-9 57 3.5 99.5t44.5 65.5t77 23q33 0 56.5 -10.5t50.5 -30.5
q17 -13 30 -20t27 -7q33 0 46.5 17.5t8.5 47.5h107q10 -58 -6.5 -99.5t-52 -63.5t-80.5 -22q-32 0 -54.5 11t-47.5 31q-19 14 -31.5 21t-26.5 7q-27 0 -37.5 -18t-5.5 -52h-109z" />
    <glyph glyph-name="ograve" unicode="&#xf2;" horiz-adv-x="677" 
d="M182 18.5q-70 37.5 -109.5 102t-40.5 141.5q1 78 41.5 142t111 101t157.5 37q90 0 160 -37t108.5 -101t38.5 -142q-1 -77 -41 -141.5t-110.5 -102t-158.5 -37.5q-87 0 -157 37.5zM422 121.5q38 21.5 59.5 58.5t22.5 82q1 46 -19 83t-56.5 58.5t-84.5 21.5t-86 -21.5
t-60 -59t-23 -82.5t19 -82t57.5 -58.5t84.5 -21.5q48 0 86 21.5zM167 710l69 111l232 -180l-38 -63z" />
    <glyph glyph-name="oacute" unicode="&#xf3;" horiz-adv-x="677" 
d="M182 18.5q-70 37.5 -109.5 102t-40.5 141.5q1 78 41.5 142t111 101t157.5 37q90 0 160 -37t108.5 -101t38.5 -142q-1 -77 -41 -141.5t-110.5 -102t-158.5 -37.5q-87 0 -157 37.5zM422 121.5q38 21.5 59.5 58.5t22.5 82q1 46 -19 83t-56.5 58.5t-84.5 21.5t-86 -21.5
t-60 -59t-23 -82.5t19 -82t57.5 -58.5t84.5 -21.5q48 0 86 21.5zM223 644l233 145l67 -115l-259 -102z" />
    <glyph glyph-name="ocircumflex" unicode="&#xf4;" horiz-adv-x="677" 
d="M182 18.5q-70 37.5 -109.5 102t-40.5 141.5q1 78 41.5 142t111 101t157.5 37q90 0 160 -37t108.5 -101t38.5 -142q-1 -77 -41 -141.5t-110.5 -102t-158.5 -37.5q-87 0 -157 37.5zM422 121.5q38 21.5 59.5 58.5t22.5 82q1 46 -19 83t-56.5 58.5t-84.5 21.5t-86 -21.5
t-60 -59t-23 -82.5t19 -82t57.5 -58.5t84.5 -21.5q48 0 86 21.5zM279 768h109l163 -180h-130l-81 92l-87 -92h-143z" />
    <glyph glyph-name="otilde" unicode="&#xf5;" horiz-adv-x="677" 
d="M182 18.5q-70 37.5 -109.5 102t-40.5 141.5q1 78 41.5 142t111 101t157.5 37q90 0 160 -37t108.5 -101t38.5 -142q-1 -77 -41 -141.5t-110.5 -102t-158.5 -37.5q-87 0 -157 37.5zM422 121.5q38 21.5 59.5 58.5t22.5 82q1 46 -19 83t-56.5 58.5t-84.5 21.5t-86 -21.5
t-60 -59t-23 -82.5t19 -82t57.5 -58.5t84.5 -21.5q48 0 86 21.5zM126 583q-9 57 3.5 99.5t44.5 65.5t77 23q33 0 56.5 -10.5t50.5 -30.5q17 -13 30 -20t27 -7q33 0 46.5 17.5t8.5 47.5h107q10 -58 -6.5 -99.5t-52 -63.5t-80.5 -22q-32 0 -54.5 11t-47.5 31q-19 14 -31.5 21
t-26.5 7q-27 0 -37.5 -18t-5.5 -52h-109z" />
    <glyph glyph-name="odieresis" unicode="&#xf6;" horiz-adv-x="677" 
d="M182 18.5q-70 37.5 -109.5 102t-40.5 141.5q1 78 41.5 142t111 101t157.5 37q90 0 160 -37t108.5 -101t38.5 -142q-1 -77 -41 -141.5t-110.5 -102t-158.5 -37.5q-87 0 -157 37.5zM422 121.5q38 21.5 59.5 58.5t22.5 82q1 46 -19 83t-56.5 58.5t-84.5 21.5t-86 -21.5
t-60 -59t-23 -82.5t19 -82t57.5 -58.5t84.5 -21.5q48 0 86 21.5zM402 616.5q-27 24.5 -27 60.5t26.5 60.5t67.5 24.5q42 0 69.5 -24.5t27.5 -60.5t-26.5 -60.5t-68.5 -24.5t-69 24.5zM139 616.5q-27 24.5 -27 60.5t26 60.5t66 24.5q43 0 70.5 -24.5t27.5 -60.5t-27 -60.5
t-68 -24.5t-68 24.5z" />
    <glyph glyph-name="divide" unicode="&#xf7;" horiz-adv-x="590" 
d="M53 396h472v-101h-472v101zM225 78.5q-29 25.5 -29 62.5q0 38 29 63.5t72 25.5t72.5 -25.5t29.5 -63.5q0 -37 -29.5 -62.5t-72.5 -25.5t-72 25.5zM225 481.5q-29 25.5 -29 63.5q0 37 29 62.5t72 25.5t72.5 -25.5t29.5 -62.5q0 -38 -29.5 -63.5t-72.5 -25.5t-72 25.5z" />
    <glyph glyph-name="oslash" unicode="&#xf8;" horiz-adv-x="677" 
d="M182 18.5q-70 37.5 -109.5 102t-40.5 141.5q1 78 41.5 142t111 101t157.5 37q90 0 160 -37t108.5 -101t38.5 -142q-1 -77 -41 -141.5t-110.5 -102t-158.5 -37.5q-87 0 -157 37.5zM422 121.5q38 21.5 59.5 58.5t22.5 82q1 46 -19 83t-56.5 58.5t-84.5 21.5t-86 -21.5
t-60 -59t-23 -82.5t19 -82t57.5 -58.5t84.5 -21.5q48 0 86 21.5zM469 557h140l-388 -577h-139z" />
    <glyph glyph-name="ugrave" unicode="&#xf9;" 
d="M108 41.5q-53 60.5 -53 176.5v305h149v-302q0 -55 28 -88.5t81 -33.5q47 0 85.5 24t61.5 68.5t24 103.5l48 -18q-2 -87 -39.5 -154.5t-99 -104.5t-133.5 -37q-99 0 -152 60.5zM484 523h148v-523h-148v523zM171 710l69 111l232 -180l-38 -63z" />
    <glyph glyph-name="uacute" unicode="&#xfa;" 
d="M108 41.5q-53 60.5 -53 176.5v305h149v-302q0 -55 28 -88.5t81 -33.5q47 0 85.5 24t61.5 68.5t24 103.5l48 -18q-2 -87 -39.5 -154.5t-99 -104.5t-133.5 -37q-99 0 -152 60.5zM484 523h148v-523h-148v523zM226 644l233 145l67 -115l-259 -102z" />
    <glyph glyph-name="ucircumflex" unicode="&#xfb;" 
d="M108 41.5q-53 60.5 -53 176.5v305h149v-302q0 -55 28 -88.5t81 -33.5q47 0 85.5 24t61.5 68.5t24 103.5l48 -18q-2 -87 -39.5 -154.5t-99 -104.5t-133.5 -37q-99 0 -152 60.5zM484 523h148v-523h-148v523zM282 768h109l163 -180h-130l-81 92l-87 -92h-143z" />
    <glyph glyph-name="udieresis" unicode="&#xfc;" 
d="M108 41.5q-53 60.5 -53 176.5v305h149v-302q0 -55 28 -88.5t81 -33.5q47 0 85.5 24t61.5 68.5t24 103.5l48 -18q-2 -87 -39.5 -154.5t-99 -104.5t-133.5 -37q-99 0 -152 60.5zM484 523h148v-523h-148v523zM405 616.5q-27 24.5 -27 60.5t26.5 60.5t67.5 24.5
q42 0 69.5 -24.5t27.5 -60.5t-26.5 -60.5t-68.5 -24.5t-69 24.5zM142 616.5q-27 24.5 -27 60.5t26 60.5t66 24.5q43 0 70.5 -24.5t27.5 -60.5t-27 -60.5t-68 -24.5t-68 24.5z" />
    <glyph glyph-name="yacute" unicode="&#xfd;" 
d="M108 41.5q-53 60.5 -53 176.5v305h149v-302q0 -55 28 -88.5t81 -33.5q47 0 85.5 24t61.5 68.5t24 103.5l48 -18q-2 -87 -39.5 -154.5t-99 -104.5t-133.5 -37q-99 0 -152 60.5zM484 523h148v-746h-148v746zM226 644l233 145l67 -115l-259 -102z" />
    <glyph glyph-name="thorn" unicode="&#xfe;" horiz-adv-x="688" 
d="M264 18q-56 37 -87 101t-31 142q1 77 35 141t92.5 102t129.5 38q70 0 126 -37t88.5 -101t32.5 -143q0 -77 -35 -141.5t-94.5 -101.5t-129.5 -37q-71 0 -127 37zM47 746h148l1 -969h-148zM428 112q37 22 59 61.5t22 88.5t-19.5 87.5t-54 60.5t-76.5 22q-43 0 -80.5 -22
t-60.5 -61.5t-23 -86.5q0 -49 20 -88.5t54.5 -61.5t77.5 -22q44 0 81 22z" />
    <glyph glyph-name="ydieresis" unicode="&#xff;" 
d="M108 41.5q-53 60.5 -53 176.5v305h149v-302q0 -55 28 -88.5t81 -33.5q47 0 85.5 24t61.5 68.5t24 103.5l48 -18q-2 -87 -39.5 -154.5t-99 -104.5t-133.5 -37q-99 0 -152 60.5zM484 523h148v-746h-148v746zM405 616.5q-27 24.5 -27 60.5t26.5 60.5t67.5 24.5
q42 0 69.5 -24.5t27.5 -60.5t-26.5 -60.5t-68.5 -24.5t-69 24.5zM142 616.5q-27 24.5 -27 60.5t26 60.5t66 24.5q43 0 70.5 -24.5t27.5 -60.5t-27 -60.5t-68 -24.5t-68 24.5z" />
    <glyph glyph-name="Amacron" unicode="&#x100;" horiz-adv-x="708" 
d="M256 695h199l237 -695h-156l-48 143h-265l-45 -143h-163zM451 257l-99 286l-96 -286h195zM145 871h415v-120h-415v120z" />
    <glyph glyph-name="amacron" unicode="&#x101;" 
d="M156 18q-57 37 -89.5 101.5t-32.5 143.5q0 77 35.5 141t95 101t129.5 37q71 0 127 -37t87 -101t30 -141q0 -77 -34 -141.5t-92.5 -102.5t-129.5 -38q-69 0 -126 37zM406.5 113.5q37.5 22.5 60 61.5t22.5 87q0 49 -19.5 88t-54 61.5t-77.5 22.5q-44 0 -81.5 -22.5t-59 -62
t-21.5 -88.5t19 -87.5t53.5 -60.5t77.5 -22t80.5 22.5zM489 523h148v-523h-147zM134 735h415v-120h-415v120z" />
    <glyph glyph-name="Abreve" unicode="&#x102;" horiz-adv-x="708" 
d="M256 695h199l237 -695h-156l-48 143h-265l-45 -143h-163zM451 257l-99 286l-96 -286h195zM255 747q-41 19 -62 51t-21 71h97q-1 -28 18 -44.5t66 -16.5q46 0 66 17t19 44h98q1 -39 -19.5 -71t-62.5 -51t-101 -19q-57 0 -98 19z" />
    <glyph glyph-name="abreve" unicode="&#x103;" 
d="M156 18q-57 37 -89.5 101.5t-32.5 143.5q0 77 35.5 141t95 101t129.5 37q71 0 127 -37t87 -101t30 -141q0 -77 -34 -141.5t-92.5 -102.5t-129.5 -38q-69 0 -126 37zM406.5 113.5q37.5 22.5 60 61.5t22.5 87q0 49 -19.5 88t-54 61.5t-77.5 22.5q-44 0 -81.5 -22.5t-59 -62
t-21.5 -88.5t19 -87.5t53.5 -60.5t77.5 -22t80.5 22.5zM489 523h148v-523h-147zM244 611q-41 19 -62 51t-21 71h97q-1 -28 18 -44.5t66 -16.5q46 0 66 17t19 44h98q1 -39 -19.5 -71t-62.5 -51t-101 -19q-57 0 -98 19z" />
    <glyph glyph-name="Aogonek" unicode="&#x104;" horiz-adv-x="708" 
d="M724 -276q-148 -29 -229 -14.5t-102 66.5q-15 37 1.5 78.5t69.5 88.5t143 96q33 7 46 -5.5t10 -33.5q-78 -41 -122.5 -85t-25.5 -78q14 -21 57.5 -23t97.5 11zM256 695h199l237 -695h-156l-48 143h-265l-45 -143h-163zM451 257l-99 286l-96 -286h195z" />
    <glyph glyph-name="aogonek" unicode="&#x105;" 
d="M681 -276q-149 -29 -230 -14.5t-102 66.5q-15 37 1.5 78.5t69.5 88.5t143 96q33 7 46 -5.5t10 -33.5q-78 -41 -122.5 -85t-25.5 -78q14 -21 57.5 -23t97.5 11zM156 18q-57 37 -89.5 101.5t-32.5 143.5q0 77 35.5 141t95 101t129.5 37q71 0 127 -37t87 -101t30 -141
q0 -77 -34 -141.5t-92.5 -102.5t-129.5 -38q-69 0 -126 37zM406.5 113.5q37.5 22.5 60 61.5t22.5 87q0 49 -19.5 88t-54 61.5t-77.5 22.5q-44 0 -81.5 -22.5t-59 -62t-21.5 -88.5t19 -87.5t53.5 -60.5t77.5 -22t80.5 22.5zM489 523h148v-523h-147z" />
    <glyph glyph-name="Cacute" unicode="&#x106;" horiz-adv-x="711" 
d="M182.5 28.5q-77.5 47.5 -118 129t-37.5 179.5q1 98 45 180t123 130t181 48q93 0 163 -43.5t108 -112t39 -141.5h-142q-3 47 -24.5 84.5t-59 58.5t-88.5 21q-57 0 -101 -31t-68.5 -82.5t-26.5 -110.5q-2 -67 20.5 -117.5t66 -78.5t102.5 -28q45 0 83 20t62 56t30 83h145
q-6 -71 -47 -138.5t-111.5 -110.5t-163.5 -43q-103 0 -180.5 47.5zM220 792l233 145l67 -115l-259 -102z" />
    <glyph glyph-name="cacute" unicode="&#x107;" horiz-adv-x="669" 
d="M172 18q-67 37 -103.5 101t-35.5 143q2 77 40.5 141t107 101.5t157.5 37.5q77 0 140 -31t102.5 -84t46.5 -117h-137q-5 29 -25.5 54.5t-52.5 41.5t-72 16q-49 0 -87.5 -22.5t-59.5 -59t-22 -78.5q0 -47 19 -83.5t56 -57t86 -20.5q60 0 101.5 33.5t56.5 84.5h133
q-8 -68 -49.5 -122.5t-106 -85t-139.5 -30.5q-89 0 -156 37zM219 644l233 145l67 -115l-259 -102z" />
    <glyph glyph-name="Ccircumflex" unicode="&#x108;" horiz-adv-x="711" 
d="M182.5 28.5q-77.5 47.5 -118 129t-37.5 179.5q1 98 45 180t123 130t181 48q93 0 163 -43.5t108 -112t39 -141.5h-142q-3 47 -24.5 84.5t-59 58.5t-88.5 21q-57 0 -101 -31t-68.5 -82.5t-26.5 -110.5q-2 -67 20.5 -117.5t66 -78.5t102.5 -28q45 0 83 20t62 56t30 83h145
q-6 -71 -47 -138.5t-111.5 -110.5t-163.5 -43q-103 0 -180.5 47.5zM302 904h109l163 -180h-130l-81 92l-87 -92h-143z" />
    <glyph glyph-name="ccircumflex" unicode="&#x109;" horiz-adv-x="669" 
d="M172 18q-67 37 -103.5 101t-35.5 143q2 77 40.5 141t107 101.5t157.5 37.5q77 0 140 -31t102.5 -84t46.5 -117h-137q-5 29 -25.5 54.5t-52.5 41.5t-72 16q-49 0 -87.5 -22.5t-59.5 -59t-22 -78.5q0 -47 19 -83.5t56 -57t86 -20.5q60 0 101.5 33.5t56.5 84.5h133
q-8 -68 -49.5 -122.5t-106 -85t-139.5 -30.5q-89 0 -156 37zM274 768h109l163 -180h-130l-81 92l-87 -92h-143z" />
    <glyph glyph-name="Cdotaccent" unicode="&#x10a;" horiz-adv-x="711" 
d="M182.5 28.5q-77.5 47.5 -118 129t-37.5 179.5q1 98 45 180t123 130t181 48q93 0 163 -43.5t108 -112t39 -141.5h-142q-3 47 -24.5 84.5t-59 58.5t-88.5 21q-57 0 -101 -31t-68.5 -82.5t-26.5 -110.5q-2 -67 20.5 -117.5t66 -78.5t102.5 -28q45 0 83 20t62 56t30 83h145
q-6 -71 -47 -138.5t-111.5 -110.5t-163.5 -43q-103 0 -180.5 47.5zM286 762q-27 25 -27 61q0 35 26.5 60t66.5 25q42 0 69.5 -25t27.5 -61q0 -35 -27 -60t-67 -25q-42 0 -69 25z" />
    <glyph glyph-name="cdotaccent" unicode="&#x10b;" horiz-adv-x="669" 
d="M172 18q-67 37 -103.5 101t-35.5 143q2 77 40.5 141t107 101.5t157.5 37.5q77 0 140 -31t102.5 -84t46.5 -117h-137q-5 29 -25.5 54.5t-52.5 41.5t-72 16q-49 0 -87.5 -22.5t-59.5 -59t-22 -78.5q0 -47 19 -83.5t56 -57t86 -20.5q60 0 101.5 33.5t56.5 84.5h133
q-8 -68 -49.5 -122.5t-106 -85t-139.5 -30.5q-89 0 -156 37zM266 626q-27 25 -27 61q0 35 26.5 60t66.5 25q42 0 69.5 -25t27.5 -61q0 -35 -27 -60t-67 -25q-42 0 -69 25z" />
    <glyph glyph-name="Ccaron" unicode="&#x10c;" horiz-adv-x="711" 
d="M182.5 28.5q-77.5 47.5 -118 129t-37.5 179.5q1 98 45 180t123 130t181 48q93 0 163 -43.5t108 -112t39 -141.5h-142q-3 47 -24.5 84.5t-59 58.5t-88.5 21q-57 0 -101 -31t-68.5 -82.5t-26.5 -110.5q-2 -67 20.5 -117.5t66 -78.5t102.5 -28q45 0 83 20t62 56t30 83h145
q-6 -71 -47 -138.5t-111.5 -110.5t-163.5 -43q-103 0 -180.5 47.5zM139 900h130l80 -92l88 92h143l-170 -180h-108z" />
    <glyph glyph-name="ccaron" unicode="&#x10d;" horiz-adv-x="669" 
d="M172 18q-67 37 -103.5 101t-35.5 143q2 77 40.5 141t107 101.5t157.5 37.5q77 0 140 -31t102.5 -84t46.5 -117h-137q-5 29 -25.5 54.5t-52.5 41.5t-72 16q-49 0 -87.5 -22.5t-59.5 -59t-22 -78.5q0 -47 19 -83.5t56 -57t86 -20.5q60 0 101.5 33.5t56.5 84.5h133
q-8 -68 -49.5 -122.5t-106 -85t-139.5 -30.5q-89 0 -156 37zM118 764h130l80 -92l88 92h143l-170 -180h-108z" />
    <glyph glyph-name="Dcaron" unicode="&#x10e;" horiz-adv-x="670" 
d="M113 695h210q94 0 165.5 -48t109.5 -127.5t38 -172.5q0 -88 -38 -168t-110 -129.5t-168 -49.5h-240zM56 695h151v-695h-151v695zM310 122q53 0 95.5 31.5t65 86.5t20.5 119q-3 102 -51.5 159t-130.5 57h-159l10 -453h150zM119 900h130l80 -92l88 92h143l-170 -180h-108z
" />
    <glyph glyph-name="dcaron" unicode="&#x10f;" horiz-adv-x="679" 
d="M156 18q-57 37 -89.5 101.5t-32.5 143.5q0 77 35.5 141t95 101t129.5 37q71 0 127 -37t87 -101t30 -141q0 -77 -34 -141.5t-92.5 -102.5t-129.5 -38q-69 0 -126 37zM406.5 113.5q37.5 22.5 60.5 61.5t23 87q0 49 -20 88t-54.5 61.5t-77.5 22.5q-44 0 -81.5 -22.5t-59 -62
t-21.5 -88.5t19 -87.5t53.5 -60.5t77.5 -22t80.5 22.5zM489 746h148v-746h-147zM57 819h130l80 -92l88 92h143l-170 -180h-108z" />
    <glyph glyph-name="Dcroat" unicode="&#x110;" horiz-adv-x="670" 
d="M5 413h336v-121h-336v121zM113 695h210q94 0 165.5 -48t109.5 -127.5t38 -172.5q0 -88 -38 -168t-110 -129.5t-168 -49.5h-240zM56 695h151v-695h-151v695zM310 122q53 0 95.5 31.5t65 86.5t20.5 119q-3 102 -51.5 159t-130.5 57h-159l10 -453h150z" />
    <glyph glyph-name="dcroat" unicode="&#x111;" horiz-adv-x="679" 
d="M156 18q-57 37 -89.5 101.5t-32.5 143.5q0 77 35.5 141t95 101t129.5 37q71 0 127 -37t87 -101t30 -141q0 -77 -34 -141.5t-92.5 -102.5t-129.5 -38q-69 0 -126 37zM406.5 113.5q37.5 22.5 60.5 61.5t23 87q0 49 -20 88t-54.5 61.5t-77.5 22.5q-44 0 -81.5 -22.5t-59 -62
t-21.5 -88.5t19 -87.5t53.5 -60.5t77.5 -22t80.5 22.5zM489 746h148v-746h-147zM319 699h415v-114h-415v114z" />
    <glyph glyph-name="Emacron" unicode="&#x112;" horiz-adv-x="584" 
d="M49 695h482l-1 -120h-333v-170h292v-122h-292v-160h345v-123h-494zM84 871h415v-120h-415v120z" />
    <glyph glyph-name="emacron" unicode="&#x113;" horiz-adv-x="656" 
d="M170 17q-69 36 -106.5 100t-35.5 145q1 76 40 140t108 102t155 38q94 0 161 -39.5t101 -104t33 -137.5q-2 -34 -6 -45h-447q4 -55 48.5 -87t113.5 -32q47 0 86 18t63 45l108 -65q-41 -51 -111 -82.5t-151 -31.5q-91 0 -160 36zM482 305q-1 32 -19 60t-50.5 45.5
t-76.5 17.5q-61 0 -104 -33.5t-57 -89.5h307zM120 735h415v-120h-415v120z" />
    <glyph glyph-name="Ebreve" unicode="&#x114;" horiz-adv-x="584" 
d="M49 695h482l-1 -120h-333v-170h292v-122h-292v-160h345v-123h-494zM194 747q-41 19 -62 51t-21 71h97q-1 -28 18 -44.5t66 -16.5q46 0 66 17t19 44h98q1 -39 -19.5 -71t-62.5 -51t-101 -19q-57 0 -98 19z" />
    <glyph glyph-name="ebreve" unicode="&#x115;" horiz-adv-x="656" 
d="M170 17q-69 36 -106.5 100t-35.5 145q1 76 40 140t108 102t155 38q94 0 161 -39.5t101 -104t33 -137.5q-2 -34 -6 -45h-447q4 -55 48.5 -87t113.5 -32q47 0 86 18t63 45l108 -65q-41 -51 -111 -82.5t-151 -31.5q-91 0 -160 36zM482 305q-1 32 -19 60t-50.5 45.5
t-76.5 17.5q-61 0 -104 -33.5t-57 -89.5h307zM231 611q-41 19 -62 51t-21 71h97q-1 -28 18 -44.5t66 -16.5q46 0 66 17t19 44h98q1 -39 -19.5 -71t-62.5 -51t-101 -19q-57 0 -98 19z" />
    <glyph glyph-name="Edotaccent" unicode="&#x116;" horiz-adv-x="584" 
d="M49 695h482l-1 -120h-333v-170h292v-122h-292v-160h345v-123h-494zM225 762q-27 25 -27 61q0 35 26.5 60t66.5 25q42 0 69.5 -25t27.5 -61q0 -35 -27 -60t-67 -25q-42 0 -69 25z" />
    <glyph glyph-name="edotaccent" unicode="&#x117;" horiz-adv-x="656" 
d="M170 17q-69 36 -106.5 100t-35.5 145q1 76 40 140t108 102t155 38q94 0 161 -39.5t101 -104t33 -137.5q-2 -34 -6 -45h-447q4 -55 48.5 -87t113.5 -32q47 0 86 18t63 45l108 -65q-41 -51 -111 -82.5t-151 -31.5q-91 0 -160 36zM482 305q-1 32 -19 60t-50.5 45.5
t-76.5 17.5q-61 0 -104 -33.5t-57 -89.5h307zM259 626q-27 25 -27 61q0 35 26.5 60t66.5 25q42 0 69.5 -25t27.5 -61q0 -35 -27 -60t-67 -25q-42 0 -69 25z" />
    <glyph glyph-name="Eogonek" unicode="&#x118;" horiz-adv-x="584" 
d="M432 -276q-148 -29 -229 -14.5t-102 66.5q-15 37 1.5 78.5t69.5 88.5t143 96q33 7 46 -5.5t10 -33.5q-78 -41 -122.5 -85t-25.5 -78q14 -21 57.5 -23t97.5 11zM49 695h482l-1 -120h-333v-170h292v-122h-292v-160h345v-123h-494z" />
    <glyph glyph-name="eogonek" unicode="&#x119;" horiz-adv-x="656" 
d="M467 -276q-148 -29 -229 -14.5t-102 66.5q-15 37 1.5 78.5t69.5 88.5t143 96q33 7 46 -5.5t10 -33.5q-78 -41 -122.5 -85t-25.5 -78q14 -21 57.5 -23t97.5 11zM170 17q-69 36 -106.5 100t-35.5 145q1 76 40 140t108 102t155 38q94 0 161 -39.5t101 -104t33 -137.5
q-2 -34 -6 -45h-447q4 -55 48.5 -87t113.5 -32q47 0 86 18t63 45l108 -65q-41 -51 -111 -82.5t-151 -31.5q-91 0 -160 36zM482 305q-1 32 -19 60t-50.5 45.5t-76.5 17.5q-61 0 -104 -33.5t-57 -89.5h307z" />
    <glyph glyph-name="Ecaron" unicode="&#x11a;" horiz-adv-x="584" 
d="M49 695h482l-1 -120h-333v-170h292v-122h-292v-160h345v-123h-494zM77 900h130l80 -92l88 92h143l-170 -180h-108z" />
    <glyph glyph-name="ecaron" unicode="&#x11b;" horiz-adv-x="656" 
d="M170 17q-69 36 -106.5 100t-35.5 145q1 76 40 140t108 102t155 38q94 0 161 -39.5t101 -104t33 -137.5q-2 -34 -6 -45h-447q4 -55 48.5 -87t113.5 -32q47 0 86 18t63 45l108 -65q-41 -51 -111 -82.5t-151 -31.5q-91 0 -160 36zM482 305q-1 32 -19 60t-50.5 45.5
t-76.5 17.5q-61 0 -104 -33.5t-57 -89.5h307zM112 764h130l80 -92l88 92h143l-170 -180h-108z" />
    <glyph glyph-name="Gcircumflex" unicode="&#x11c;" horiz-adv-x="750" 
d="M189 28.5q-80 47.5 -122 130t-40 182.5q2 94 47 175t127 130t189 49q93 0 161.5 -40.5t107.5 -101.5t48 -123h-145q-7 32 -28.5 62.5t-60 50.5t-89.5 20q-60 0 -107 -29.5t-72.5 -80t-28.5 -112.5q-2 -66 22.5 -118t70.5 -81t106 -29q52 0 95 22.5t71 63t34 93.5l145 -3
q-7 -80 -51 -150.5t-120 -114t-174 -43.5q-106 0 -186 47.5zM367 358h353v-69l-72 -33h-281v102zM323 904h109l163 -180h-130l-81 92l-87 -92h-143z" />
    <glyph glyph-name="gcircumflex" unicode="&#x11d;" horiz-adv-x="672" 
d="M201.5 -246.5q-67.5 38.5 -108.5 111.5l120 54q26 -38 60.5 -59.5t72.5 -21.5q63 1 97 44t35 115v526h147v-511q-1 -89 -33 -156t-93 -104t-146 -37q-84 0 -151.5 38.5zM151 19q-55 38 -86 103t-29 141q2 77 38 141t94.5 101t125.5 37q68 0 122.5 -37t84.5 -101t28 -141
t-37 -141.5t-93 -102.5t-125 -38q-68 0 -123 38zM398.5 113q35.5 22 57.5 61.5t23 87.5t-18 87.5t-52.5 62t-74.5 22.5t-76.5 -23t-57.5 -62.5t-23 -87.5t17.5 -86.5t52.5 -61t75 -22.5t76.5 22zM276 768h109l163 -180h-130l-81 92l-87 -92h-143z" />
    <glyph glyph-name="Gbreve" unicode="&#x11e;" horiz-adv-x="750" 
d="M189 28.5q-80 47.5 -122 130t-40 182.5q2 94 47 175t127 130t189 49q93 0 161.5 -40.5t107.5 -101.5t48 -123h-145q-7 32 -28.5 62.5t-60 50.5t-89.5 20q-60 0 -107 -29.5t-72.5 -80t-28.5 -112.5q-2 -66 22.5 -118t70.5 -81t106 -29q52 0 95 22.5t71 63t34 93.5l145 -3
q-7 -80 -51 -150.5t-120 -114t-174 -43.5q-106 0 -186 47.5zM367 358h353v-69l-72 -33h-281v102zM276 747q-41 19 -62 51t-21 71h97q-1 -28 18 -44.5t66 -16.5q46 0 66 17t19 44h98q1 -39 -19.5 -71t-62.5 -51t-101 -19q-57 0 -98 19z" />
    <glyph glyph-name="gbreve" unicode="&#x11f;" horiz-adv-x="672" 
d="M201.5 -246.5q-67.5 38.5 -108.5 111.5l120 54q26 -38 60.5 -59.5t72.5 -21.5q63 1 97 44t35 115v526h147v-511q-1 -89 -33 -156t-93 -104t-146 -37q-84 0 -151.5 38.5zM151 19q-55 38 -86 103t-29 141q2 77 38 141t94.5 101t125.5 37q68 0 122.5 -37t84.5 -101t28 -141
t-37 -141.5t-93 -102.5t-125 -38q-68 0 -123 38zM398.5 113q35.5 22 57.5 61.5t23 87.5t-18 87.5t-52.5 62t-74.5 22.5t-76.5 -23t-57.5 -62.5t-23 -87.5t17.5 -86.5t52.5 -61t75 -22.5t76.5 22zM239 611q-41 19 -62 51t-21 71h97q-1 -28 18 -44.5t66 -16.5q46 0 66 17
t19 44h98q1 -39 -19.5 -71t-62.5 -51t-101 -19q-57 0 -98 19z" />
    <glyph glyph-name="Gdotaccent" unicode="&#x120;" horiz-adv-x="750" 
d="M189 28.5q-80 47.5 -122 130t-40 182.5q2 94 47 175t127 130t189 49q93 0 161.5 -40.5t107.5 -101.5t48 -123h-145q-7 32 -28.5 62.5t-60 50.5t-89.5 20q-60 0 -107 -29.5t-72.5 -80t-28.5 -112.5q-2 -66 22.5 -118t70.5 -81t106 -29q52 0 95 22.5t71 63t34 93.5l145 -3
q-7 -80 -51 -150.5t-120 -114t-174 -43.5q-106 0 -186 47.5zM367 358h353v-69l-72 -33h-281v102zM307 762q-27 25 -27 61q0 35 26.5 60t66.5 25q42 0 69.5 -25t27.5 -61q0 -35 -27 -60t-67 -25q-42 0 -69 25z" />
    <glyph glyph-name="gdotaccent" unicode="&#x121;" horiz-adv-x="672" 
d="M201.5 -246.5q-67.5 38.5 -108.5 111.5l120 54q26 -38 60.5 -59.5t72.5 -21.5q63 1 97 44t35 115v526h147v-511q-1 -89 -33 -156t-93 -104t-146 -37q-84 0 -151.5 38.5zM151 19q-55 38 -86 103t-29 141q2 77 38 141t94.5 101t125.5 37q68 0 122.5 -37t84.5 -101t28 -141
t-37 -141.5t-93 -102.5t-125 -38q-68 0 -123 38zM398.5 113q35.5 22 57.5 61.5t23 87.5t-18 87.5t-52.5 62t-74.5 22.5t-76.5 -23t-57.5 -62.5t-23 -87.5t17.5 -86.5t52.5 -61t75 -22.5t76.5 22zM267 626q-27 25 -27 61q0 35 26.5 60t66.5 25q42 0 69.5 -25t27.5 -61
q0 -35 -27 -60t-67 -25q-42 0 -69 25z" />
    <glyph glyph-name="uni0122" unicode="&#x122;" horiz-adv-x="750" 
d="M189 28.5q-80 47.5 -122 130t-40 182.5q2 94 47 175t127 130t189 49q93 0 161.5 -40.5t107.5 -101.5t48 -123h-145q-7 32 -28.5 62.5t-60 50.5t-89.5 20q-60 0 -107 -29.5t-72.5 -80t-28.5 -112.5q-2 -66 22.5 -118t70.5 -81t106 -29q52 0 95 22.5t71 63t34 93.5l145 -3
q-7 -80 -51 -150.5t-120 -114t-174 -43.5q-106 0 -186 47.5zM367 358h353v-69l-72 -33h-281v102z" />
    <glyph glyph-name="uni0123" unicode="&#x123;" horiz-adv-x="672" 
d="M201.5 -246.5q-67.5 38.5 -108.5 111.5l120 54q26 -38 60.5 -59.5t72.5 -21.5q63 1 97 44t35 115v526h147v-511q-1 -89 -33 -156t-93 -104t-146 -37q-84 0 -151.5 38.5zM151 19q-55 38 -86 103t-29 141q2 77 38 141t94.5 101t125.5 37q68 0 122.5 -37t84.5 -101t28 -141
t-37 -141.5t-93 -102.5t-125 -38q-68 0 -123 38zM398.5 113q35.5 22 57.5 61.5t23 87.5t-18 87.5t-52.5 62t-74.5 22.5t-76.5 -23t-57.5 -62.5t-23 -87.5t17.5 -86.5t52.5 -61t75 -22.5t76.5 22zM443 804l-20 -227h-160l89 239z" />
    <glyph glyph-name="Hcircumflex" unicode="&#x124;" horiz-adv-x="696" 
d="M498 287h-300v-287h-149v695h149v-290h301v290h148v-695h-149v287zM296 904h109l163 -180h-130l-81 92l-87 -92h-143z" />
    <glyph glyph-name="hcircumflex" unicode="&#x125;" horiz-adv-x="672" 
d="M475 303q0 55 -28 88t-81 33q-47 0 -85.5 -24t-61.5 -68t-24 -103l-48 17q2 87 39 154.5t99 104.5t134 37q99 0 152 -60.5t53 -176.5v-305h-149v303zM46 746h149v-746h-149v746zM335 833h109l163 -180h-130l-81 92l-87 -92h-143z" />
    <glyph glyph-name="Hbar" unicode="&#x126;" horiz-adv-x="696" 
d="M498 287h-300v-287h-149v695h149v-97h301v97h148v-695h-149v287zM499 405v81h-301v-81h301z" />
    <glyph glyph-name="hbar" unicode="&#x127;" horiz-adv-x="672" 
d="M475 303q0 55 -28 88t-81 33q-47 0 -85.5 -24t-61.5 -68t-24 -103l-48 17q2 87 39 154.5t99 104.5t134 37q99 0 152 -60.5t53 -176.5v-305h-149v303zM46 746h149v-746h-149v746zM-28 691h415v-120h-415v120z" />
    <glyph glyph-name="Itilde" unicode="&#x128;" horiz-adv-x="276" 
d="M66 695h149v-695h-149v695zM-87 719q-9 57 3.5 99.5t44.5 65.5t77 23q33 0 56.5 -10.5t50.5 -30.5q17 -13 30 -20t27 -7q33 0 46.5 17.5t8.5 47.5h107q10 -58 -6.5 -99.5t-52 -63.5t-80.5 -22q-32 0 -54.5 11t-47.5 31q-19 14 -31.5 21t-26.5 7q-27 0 -37.5 -18t-5.5 -52
h-109z" />
    <glyph glyph-name="itilde" unicode="&#x129;" horiz-adv-x="262" 
d="M56 523h150v-523h-150v523zM-31 582q-7 50 2.5 88.5t34.5 59t60 20.5q25 0 43.5 -9.5t39.5 -27.5q13 -12 23 -18t21 -6q25 0 35.5 15.5t6.5 42.5h83q8 -52 -5 -89t-40.5 -57t-61.5 -19q-25 -1 -42.5 9t-37.5 28q-14 12 -24 18.5t-21 6.5q-20 0 -28.5 -16t-4.5 -47z" />
    <glyph glyph-name="Imacron" unicode="&#x12a;" horiz-adv-x="276" 
d="M66 695h149v-695h-149v695zM-70 871h415v-120h-415v120z" />
    <glyph glyph-name="imacron" unicode="&#x12b;" horiz-adv-x="262" 
d="M56 523h150v-523h-150v523zM-76 735h415v-120h-415v120z" />
    <glyph glyph-name="Ibreve" unicode="&#x12c;" horiz-adv-x="276" 
d="M66 695h149v-695h-149v695zM39 747q-41 19 -62 51t-21 71h97q-1 -28 18 -44.5t66 -16.5q46 0 66 17t19 44h98q1 -39 -19.5 -71t-62.5 -51t-101 -19q-57 0 -98 19z" />
    <glyph glyph-name="ibreve" unicode="&#x12d;" horiz-adv-x="262" 
d="M56 523h150v-523h-150v523zM45.5 591q-36.5 19 -55 51t-18.5 71l86 1q-1 -29 16 -45.5t59 -15.5q40 -1 57.5 16t17.5 44l86 1q1 -40 -17 -72t-55 -51t-89 -18q-51 -1 -87.5 18z" />
    <glyph glyph-name="Iogonek" unicode="&#x12e;" horiz-adv-x="276" 
d="M260 -276q-149 -29 -230 -14.5t-102 66.5q-15 37 1.5 78.5t69.5 88.5t144 96q32 7 45 -5.5t11 -33.5q-79 -41 -123.5 -85t-24.5 -78q13 -21 56.5 -23t97.5 11zM66 695h149v-695h-149v695z" />
    <glyph glyph-name="iogonek" unicode="&#x12f;" horiz-adv-x="262" 
d="M249 -276q-149 -29 -230 -14.5t-102 66.5q-15 37 1.5 78.5t69.5 88.5t143 96q33 7 46 -5.5t10 -33.5q-78 -41 -122.5 -85t-24.5 -78q13 -21 56.5 -23t97.5 11zM56 523h150v-523h-150v523zM74 608q-26 13 -41 35t-15 49q0 26 15 48t41 35t57 13t57 -13t41 -35t15 -48
q0 -27 -15 -49t-41 -35t-57 -13t-57 13z" />
    <glyph glyph-name="Idotaccent" unicode="&#x130;" horiz-adv-x="276" 
d="M66 695h149v-695h-149v695zM70 762q-27 25 -27 61q0 35 26.5 60t66.5 25q42 0 69.5 -25t27.5 -61q0 -35 -27 -60t-67 -25q-42 0 -69 25z" />
    <glyph glyph-name="dotlessi" unicode="&#x131;" horiz-adv-x="262" 
d="M56 523h150v-523h-150v523z" />
    <glyph glyph-name="IJ" unicode="&#x132;" horiz-adv-x="968" 
d="M66 695h149v-695h-149v695zM420 24.5q-65 43.5 -93 117.5t-19 167h143q-6 -57 8.5 -100t48.5 -67t85 -24q84 0 129.5 56t45.5 170v351h155v-354q1 -113 -39 -194t-116 -123.5t-184 -42.5q-99 0 -164 43.5z" />
    <glyph glyph-name="ij" unicode="&#x133;" horiz-adv-x="538" 
d="M56 523h150v-523h-150v523zM74 608q-26 13 -41 35t-15 49q0 26 15 48t41 35t57 13t57 -13t41 -35t15 -48q0 -27 -15 -49t-41 -35t-57 -13t-57 13zM155 -106h19q69 0 108.5 35.5t39.5 100.5v493h148v-487q0 -78 -31 -136.5t-87.5 -90.5t-130.5 -32h-66v117zM338 608
q-26 13 -41 35t-15 49q0 26 15 48t41 35t56 13q31 0 57 -13t41 -35t15 -48q0 -27 -15 -49t-41 -35t-57 -13q-30 0 -56 13z" />
    <glyph glyph-name="Jcircumflex" unicode="&#x134;" horiz-adv-x="692" 
d="M144 24.5q-65 43.5 -93 117.5t-19 167h143q-6 -57 8.5 -100t48.5 -67t85 -24q84 0 129.5 56t45.5 170v351h155v-354q1 -113 -39 -194t-116 -123.5t-184 -42.5q-99 0 -164 43.5zM482 904h109l163 -180h-130l-81 92l-87 -92h-143z" />
    <glyph glyph-name="jcircumflex" unicode="&#x135;" horiz-adv-x="275" 
d="M-107 -106h19q69 0 108.5 35.5t39.5 100.5v493h148v-487q0 -78 -31 -136.5t-87.5 -90.5t-130.5 -32h-66v117zM75 732h109l163 -180h-130l-81 92l-87 -92h-143z" />
    <glyph glyph-name="uni0136" unicode="&#x136;" horiz-adv-x="665" 
d="M203 336v-336h-149v695h149v-313l309 313h193l-337 -332l359 -363h-199z" />
    <glyph glyph-name="uni0137" unicode="&#x137;" horiz-adv-x="639" 
d="M201 242v-242h-150v746h150v-464l265 241h206l-302 -257l308 -266h-205z" />
    <glyph glyph-name="kgreenlandic" unicode="&#x138;" horiz-adv-x="639" 
d="M201 242v-242h-150v523h150v-241l265 241h206l-302 -257l308 -266h-205z" />
    <glyph glyph-name="Lacute" unicode="&#x139;" horiz-adv-x="550" 
d="M50 695h150v-565h344v-130h-494v695zM140 792l233 145l67 -115l-259 -102z" />
    <glyph glyph-name="lacute" unicode="&#x13a;" horiz-adv-x="262" 
d="M54 740l-39 68l233 145l67 -115l-234 -92h122v-746h-149v740z" />
    <glyph glyph-name="uni013B" unicode="&#x13b;" horiz-adv-x="550" 
d="M50 695h150v-565h344v-130h-494v695z" />
    <glyph glyph-name="uni013C" unicode="&#x13c;" horiz-adv-x="262" 
d="M54 746h149v-746h-149v746z" />
    <glyph glyph-name="Lcaron" unicode="&#x13d;" horiz-adv-x="550" 
d="M50 695h150v-565h344v-130h-494v695zM59 900h130l80 -92l88 92h143l-170 -180h-108z" />
    <glyph glyph-name="lcaron" unicode="&#x13e;" horiz-adv-x="262" 
d="M54 746h149v-746h-149v746zM53 917l72 -78l80 78h129l-154 -152h-97l-147 152h117z" />
    <glyph glyph-name="Ldot" unicode="&#x13f;" horiz-adv-x="550" 
d="M50 695h150v-565h344v-130h-494v695zM343 349q-27 25 -27 61q0 35 26.5 60t66.5 25q42 0 69.5 -25t27.5 -61q0 -35 -27 -60t-67 -25q-42 0 -69 25z" />
    <glyph glyph-name="ldot" unicode="&#x140;" horiz-adv-x="446" 
d="M54 746h149v-746h-149v746zM281 311q-27 25 -27 61q0 35 26.5 60t66.5 25q42 0 69.5 -25t27.5 -61q0 -35 -27 -60t-67 -25q-42 0 -69 25z" />
    <glyph glyph-name="Lslash" unicode="&#x141;" horiz-adv-x="550" 
d="M50 280l-66 -14v118l66 13v298h150v-267l176 37v-117l-176 -38v-180h344v-130h-494v280z" />
    <glyph glyph-name="lslash" unicode="&#x142;" horiz-adv-x="262" 
d="M54 501l-106 -24v118l106 25v126h149v-93l103 24v-118l-103 -25v-534h-149v501z" />
    <glyph glyph-name="Nacute" unicode="&#x143;" horiz-adv-x="737" 
d="M201 473v-473h-145v695h145l337 -483v483h143v-695h-150zM234 792l233 145l67 -115l-259 -102z" />
    <glyph glyph-name="nacute" unicode="&#x144;" 
d="M484 303q0 55 -28.5 88t-81.5 33q-47 0 -85.5 -24t-61 -68t-24.5 -103l-49 17q2 87 39.5 154.5t99 104.5t134.5 37q99 0 152 -60.5t53 -176.5v-305h-148v303zM55 523h148v-523h-148v523zM226 644l233 145l67 -115l-259 -102z" />
    <glyph glyph-name="uni0145" unicode="&#x145;" horiz-adv-x="737" 
d="M201 473v-473h-145v695h145l337 -483v483h143v-695h-150z" />
    <glyph glyph-name="uni0146" unicode="&#x146;" 
d="M484 303q0 55 -28.5 88t-81.5 33q-47 0 -85.5 -24t-61 -68t-24.5 -103l-49 17q2 87 39.5 154.5t99 104.5t134.5 37q99 0 152 -60.5t53 -176.5v-305h-148v303zM55 523h148v-523h-148v523z" />
    <glyph glyph-name="Ncaron" unicode="&#x147;" horiz-adv-x="737" 
d="M201 473v-473h-145v695h145l337 -483v483h143v-695h-150zM152 900h130l80 -92l88 92h143l-170 -180h-108z" />
    <glyph glyph-name="ncaron" unicode="&#x148;" 
d="M484 303q0 55 -28.5 88t-81.5 33q-47 0 -85.5 -24t-61 -68t-24.5 -103l-49 17q2 87 39.5 154.5t99 104.5t134.5 37q99 0 152 -60.5t53 -176.5v-305h-148v303zM55 523h148v-523h-148v523zM125 764h130l80 -92l88 92h143l-170 -180h-108z" />
    <glyph glyph-name="napostrophe" unicode="&#x149;" 
d="M484 303q0 55 -28.5 88t-81.5 33q-47 0 -85.5 -24t-61 -68t-24.5 -103l-49 17q2 87 39.5 154.5t99 104.5t134.5 37q99 0 152 -60.5t53 -176.5v-305h-148v303zM55 523h148v-523h-148v523z" />
    <glyph glyph-name="Eng" unicode="&#x14a;" horiz-adv-x="737" 
d="M119 595l82 100l480 -695h-150zM56 695h145v-695h-145v695zM367 -106h19q78 0 112.5 29.5t34.5 89.5v219l148 3v-249q0 -68 -30.5 -114.5t-86 -70.5t-131.5 -24h-66v117zM538 695h143v-695h-143v695z" />
    <glyph glyph-name="eng" unicode="&#x14b;" 
d="M484 312q0 29 -13 55t-37.5 41.5t-59.5 15.5q-47 0 -85.5 -24t-61 -68t-24.5 -103l-49 17q2 87 39 154.5t98.5 104.5t134.5 37q97 0 151.5 -56.5t54.5 -151.5v-214h-148v192zM55 523h148v-523h-148v523zM318 -106h19q78 0 112.5 29.5t34.5 89.5v219l149 3v-249
q0 -68 -31 -114.5t-86.5 -70.5t-131.5 -24h-66v117z" />
    <glyph glyph-name="Omacron" unicode="&#x14c;" horiz-adv-x="773" 
d="M188 28q-80 47 -121.5 127.5t-39.5 181.5q2 96 47 178t126.5 131t189.5 49q106 0 185.5 -47t121.5 -128.5t40 -182.5q-2 -99 -49 -180.5t-129 -128.5t-184 -47q-107 0 -187 47zM486 143.5q47 30.5 73 82t28 111.5q1 63 -22.5 114.5t-69.5 81.5t-110 30q-60 0 -107 -31.5
t-73 -83.5t-28 -111q-2 -65 21.5 -116t69.5 -79.5t108 -28.5q63 0 110 30.5zM178 871h415v-120h-415v120z" />
    <glyph glyph-name="omacron" unicode="&#x14d;" horiz-adv-x="677" 
d="M182 18.5q-70 37.5 -109.5 102t-40.5 141.5q1 78 41.5 142t111 101t157.5 37q90 0 160 -37t108.5 -101t38.5 -142q-1 -77 -41 -141.5t-110.5 -102t-158.5 -37.5q-87 0 -157 37.5zM422 121.5q38 21.5 59.5 58.5t22.5 82q1 46 -19 83t-56.5 58.5t-84.5 21.5t-86 -21.5
t-60 -59t-23 -82.5t19 -82t57.5 -58.5t84.5 -21.5q48 0 86 21.5zM131 735h415v-120h-415v120z" />
    <glyph glyph-name="Obreve" unicode="&#x14e;" horiz-adv-x="773" 
d="M188 28q-80 47 -121.5 127.5t-39.5 181.5q2 96 47 178t126.5 131t189.5 49q106 0 185.5 -47t121.5 -128.5t40 -182.5q-2 -99 -49 -180.5t-129 -128.5t-184 -47q-107 0 -187 47zM486 143.5q47 30.5 73 82t28 111.5q1 63 -22.5 114.5t-69.5 81.5t-110 30q-60 0 -107 -31.5
t-73 -83.5t-28 -111q-2 -65 21.5 -116t69.5 -79.5t108 -28.5q63 0 110 30.5zM288 747q-41 19 -62 51t-21 71h97q-1 -28 18 -44.5t66 -16.5q46 0 66 17t19 44h98q1 -39 -19.5 -71t-62.5 -51t-101 -19q-57 0 -98 19z" />
    <glyph glyph-name="obreve" unicode="&#x14f;" horiz-adv-x="677" 
d="M182 18.5q-70 37.5 -109.5 102t-40.5 141.5q1 78 41.5 142t111 101t157.5 37q90 0 160 -37t108.5 -101t38.5 -142q-1 -77 -41 -141.5t-110.5 -102t-158.5 -37.5q-87 0 -157 37.5zM422 121.5q38 21.5 59.5 58.5t22.5 82q1 46 -19 83t-56.5 58.5t-84.5 21.5t-86 -21.5
t-60 -59t-23 -82.5t19 -82t57.5 -58.5t84.5 -21.5q48 0 86 21.5zM241 611q-41 19 -62 51t-21 71h97q-1 -28 18 -44.5t66 -16.5q46 0 66 17t19 44h98q1 -39 -19.5 -71t-62.5 -51t-101 -19q-57 0 -98 19z" />
    <glyph glyph-name="Ohungarumlaut" unicode="&#x150;" horiz-adv-x="773" 
d="M188 28q-80 47 -121.5 127.5t-39.5 181.5q2 96 47 178t126.5 131t189.5 49q106 0 185.5 -47t121.5 -128.5t40 -182.5q-2 -99 -49 -180.5t-129 -128.5t-184 -47q-107 0 -187 47zM486 143.5q47 30.5 73 82t28 111.5q1 63 -22.5 114.5t-69.5 81.5t-110 30q-60 0 -107 -31.5
t-73 -83.5t-28 -111q-2 -65 21.5 -116t69.5 -79.5t108 -28.5q63 0 110 30.5zM417 789l211 145l61 -115l-238 -102zM393 934l61 -115l-238 -102l-34 72z" />
    <glyph glyph-name="ohungarumlaut" unicode="&#x151;" horiz-adv-x="677" 
d="M182 18.5q-70 37.5 -109.5 102t-40.5 141.5q1 78 41.5 142t111 101t157.5 37q90 0 160 -37t108.5 -101t38.5 -142q-1 -77 -41 -141.5t-110.5 -102t-158.5 -37.5q-87 0 -157 37.5zM422 121.5q38 21.5 59.5 58.5t22.5 82q1 46 -19 83t-56.5 58.5t-84.5 21.5t-86 -21.5
t-60 -59t-23 -82.5t19 -82t57.5 -58.5t84.5 -21.5q48 0 86 21.5zM367 653l211 145l61 -115l-238 -102zM343 798l61 -115l-238 -102l-34 72z" />
    <glyph glyph-name="OE" unicode="&#x152;" horiz-adv-x="1122" 
d="M188 28q-80 47 -121.5 127.5t-39.5 181.5q2 96 47 178t126.5 131t189.5 49q106 0 185.5 -47t111 -128.5t30.5 -182.5q-2 -99 -39 -180.5t-119 -128.5t-184 -47q-107 0 -187 47zM486 143.5q47 30.5 70 82t25 111.5q1 63 -19.5 114.5t-66.5 81.5t-110 30q-60 0 -107 -31.5
t-73 -83.5t-28 -111q-2 -65 21.5 -116t69.5 -79.5t108 -28.5q63 0 110 30.5zM697 123h383v-123h-384zM585 695h149v-695h-149v695zM659 405h368l-1 -122h-370zM683 695h385l-1 -120h-384v120z" />
    <glyph glyph-name="oe" unicode="&#x153;" horiz-adv-x="1134" 
d="M182 18.5q-70 37.5 -109.5 102t-40.5 141.5q1 78 41.5 142t111 101t157.5 37q90 0 160 -37t108.5 -101t38.5 -142q-1 -77 -41 -141.5t-110.5 -102t-158.5 -37.5q-87 0 -157 37.5zM422 121.5q38 21.5 59.5 58.5t22.5 82q1 46 -19 83t-56.5 58.5t-84.5 21.5t-86 -21.5
t-60 -59t-23 -82.5t19 -82t57.5 -58.5t84.5 -21.5q48 0 86 21.5zM649 17q-69 36 -106.5 100t-35.5 145q1 76 40 140t108 102t155 38q94 0 161 -39.5t101 -104t33 -137.5q-2 -34 -6 -45h-447q4 -55 48.5 -87t113.5 -32q47 0 86 18t63 45l108 -65q-41 -51 -111 -82.5
t-151 -31.5q-91 0 -160 36zM961 305q-1 32 -19 60t-50.5 45.5t-76.5 17.5q-61 0 -104 -33.5t-57 -89.5h307z" />
    <glyph glyph-name="Racute" unicode="&#x154;" horiz-adv-x="609" 
d="M150 323l-3 372h154q84 1 146.5 -30t95 -83t33.5 -115q-1 -85 -53 -141.5t-147 -70.5l247 -255h-182zM54 695h150v-695h-150v695zM291 346q63 0 99 31.5t34 86.5q-3 54 -38 80t-94 26h-113l1 -224h111zM170 792l233 145l67 -115l-259 -102z" />
    <glyph glyph-name="racute" unicode="&#x155;" horiz-adv-x="587" 
d="M155 236q3 96 36 165t84.5 105t110.5 36q56 0 98 -28.5t64 -82.5t21 -129h-148q1 56 -21.5 89t-65.5 33q-36 0 -65.5 -22.5t-47 -65t-18.5 -100.5h-48zM54 523h149v-523h-149v523zM178 644l233 145l67 -115l-259 -102z" />
    <glyph glyph-name="uni0156" unicode="&#x156;" horiz-adv-x="609" 
d="M150 323l-3 372h154q84 1 146.5 -30t95 -83t33.5 -115q-1 -85 -53 -141.5t-147 -70.5l247 -255h-182zM54 695h150v-695h-150v695zM291 346q63 0 99 31.5t34 86.5q-3 54 -38 80t-94 26h-113l1 -224h111z" />
    <glyph glyph-name="uni0157" unicode="&#x157;" horiz-adv-x="587" 
d="M155 236q3 96 36 165t84.5 105t110.5 36q56 0 98 -28.5t64 -82.5t21 -129h-148q1 56 -21.5 89t-65.5 33q-36 0 -65.5 -22.5t-47 -65t-18.5 -100.5h-48zM54 523h149v-523h-149v523z" />
    <glyph glyph-name="Rcaron" unicode="&#x158;" horiz-adv-x="609" 
d="M150 323l-3 372h154q84 1 146.5 -30t95 -83t33.5 -115q-1 -85 -53 -141.5t-147 -70.5l247 -255h-182zM54 695h150v-695h-150v695zM291 346q63 0 99 31.5t34 86.5q-3 54 -38 80t-94 26h-113l1 -224h111zM89 900h130l80 -92l88 92h143l-170 -180h-108z" />
    <glyph glyph-name="rcaron" unicode="&#x159;" horiz-adv-x="587" 
d="M155 236q3 96 36 165t84.5 105t110.5 36q56 0 98 -28.5t64 -82.5t21 -129h-148q1 56 -21.5 89t-65.5 33q-36 0 -65.5 -22.5t-47 -65t-18.5 -100.5h-48zM54 523h149v-523h-149v523zM77 764h130l80 -92l88 92h143l-170 -180h-108z" />
    <glyph glyph-name="Sacute" unicode="&#x15a;" horiz-adv-x="680" 
d="M163 14q-73 33 -113.5 89.5t-44.5 125.5h146q10 -55 53.5 -89t116.5 -36q77 -2 122.5 23.5t47.5 68.5q1 39 -38.5 60.5t-130.5 28.5q-140 14 -211.5 66t-70.5 142q2 59 40 105t102.5 71.5t142.5 25.5q89 0 158 -31t110 -85t51 -122l-147 1q-11 49 -55.5 80.5t-115.5 31.5
q-42 0 -73.5 -11.5t-48 -31.5t-16.5 -43q1 -33 28.5 -51.5t90.5 -25.5l21 -2q168 -15 241.5 -67.5t74.5 -139.5q0 -60 -36.5 -109.5t-108 -78.5t-168.5 -29q-95 0 -168 33zM205 792l233 145l67 -115l-259 -102z" />
    <glyph glyph-name="sacute" unicode="&#x15b;" horiz-adv-x="640" 
d="M161 8q-67 27 -102.5 72t-38.5 98h143q6 -37 42.5 -62.5t105.5 -26.5q46 0 77.5 10t46.5 26t15 33q-1 17 -12.5 28t-41 18t-85.5 11q-125 10 -189 53t-65 113q0 45 31 81.5t88.5 58t136.5 21.5q81 0 141 -23.5t95 -66t43 -96.5h-145q-8 36 -42 56t-93 20q-38 0 -62 -8.5
t-35 -22.5t-10 -29q3 -25 29 -39t85 -18q105 -7 166.5 -27.5t87 -52.5t27.5 -78q1 -46 -30 -86t-94.5 -65t-155.5 -25t-159 27zM205 644l233 145l67 -115l-259 -102z" />
    <glyph glyph-name="Scircumflex" unicode="&#x15c;" horiz-adv-x="680" 
d="M163 14q-73 33 -113.5 89.5t-44.5 125.5h146q10 -55 53.5 -89t116.5 -36q77 -2 122.5 23.5t47.5 68.5q1 39 -38.5 60.5t-130.5 28.5q-140 14 -211.5 66t-70.5 142q2 59 40 105t102.5 71.5t142.5 25.5q89 0 158 -31t110 -85t51 -122l-147 1q-11 49 -55.5 80.5t-115.5 31.5
q-42 0 -73.5 -11.5t-48 -31.5t-16.5 -43q1 -33 28.5 -51.5t90.5 -25.5l21 -2q168 -15 241.5 -67.5t74.5 -139.5q0 -60 -36.5 -109.5t-108 -78.5t-168.5 -29q-95 0 -168 33zM288 904h109l163 -180h-130l-81 92l-87 -92h-143z" />
    <glyph glyph-name="scircumflex" unicode="&#x15d;" horiz-adv-x="640" 
d="M161 8q-67 27 -102.5 72t-38.5 98h143q6 -37 42.5 -62.5t105.5 -26.5q46 0 77.5 10t46.5 26t15 33q-1 17 -12.5 28t-41 18t-85.5 11q-125 10 -189 53t-65 113q0 45 31 81.5t88.5 58t136.5 21.5q81 0 141 -23.5t95 -66t43 -96.5h-145q-8 36 -42 56t-93 20q-38 0 -62 -8.5
t-35 -22.5t-10 -29q3 -25 29 -39t85 -18q105 -7 166.5 -27.5t87 -52.5t27.5 -78q1 -46 -30 -86t-94.5 -65t-155.5 -25t-159 27zM261 768h109l163 -180h-130l-81 92l-87 -92h-143z" />
    <glyph glyph-name="Scedilla" unicode="&#x15e;" horiz-adv-x="680" 
d="M151 -173q92 -9 141.5 -8.5t74.5 12.5t21 36q-4 21 -35 24.5t-77 1.5l-20 -2l48 145l83 4l-17 -101q57 6 96.5 -9t49.5 -60q14 -60 -26.5 -96t-132.5 -47t-214 11zM163 14q-73 33 -113.5 89.5t-44.5 125.5h146q10 -55 53.5 -89t116.5 -36q77 -2 122.5 23.5t47.5 68.5
q1 39 -38.5 60.5t-130.5 28.5q-140 14 -211.5 66t-70.5 142q2 59 40 105t102.5 71.5t142.5 25.5q89 0 158 -31t110 -85t51 -122l-147 1q-11 49 -55.5 80.5t-115.5 31.5q-42 0 -73.5 -11.5t-48 -31.5t-16.5 -43q1 -33 28.5 -51.5t90.5 -25.5l21 -2q168 -15 241.5 -67.5
t74.5 -139.5q0 -60 -36.5 -109.5t-108 -78.5t-168.5 -29q-95 0 -168 33z" />
    <glyph glyph-name="scedilla" unicode="&#x15f;" horiz-adv-x="640" 
d="M131 -173q92 -9 141.5 -8.5t74.5 12.5t21 36q-4 21 -35 24.5t-77 1.5l-20 -2l48 145l83 4l-17 -101q57 6 96.5 -9t50.5 -60q13 -60 -27.5 -96t-132.5 -47t-214 11zM161 8q-67 27 -102.5 72t-38.5 98h143q6 -37 42.5 -62.5t105.5 -26.5q46 0 77.5 10t46.5 26t15 33
q-1 17 -12.5 28t-41 18t-85.5 11q-125 10 -189 53t-65 113q0 45 31 81.5t88.5 58t136.5 21.5q81 0 141 -23.5t95 -66t43 -96.5h-145q-8 36 -42 56t-93 20q-38 0 -62 -8.5t-35 -22.5t-10 -29q3 -25 29 -39t85 -18q105 -7 166.5 -27.5t87 -52.5t27.5 -78q1 -46 -30 -86
t-94.5 -65t-155.5 -25t-159 27z" />
    <glyph glyph-name="Scaron" unicode="&#x160;" horiz-adv-x="680" 
d="M163 14q-73 33 -113.5 89.5t-44.5 125.5h146q10 -55 53.5 -89t116.5 -36q77 -2 122.5 23.5t47.5 68.5q1 39 -38.5 60.5t-130.5 28.5q-140 14 -211.5 66t-70.5 142q2 59 40 105t102.5 71.5t142.5 25.5q89 0 158 -31t110 -85t51 -122l-147 1q-11 49 -55.5 80.5t-115.5 31.5
q-42 0 -73.5 -11.5t-48 -31.5t-16.5 -43q1 -33 28.5 -51.5t90.5 -25.5l21 -2q168 -15 241.5 -67.5t74.5 -139.5q0 -60 -36.5 -109.5t-108 -78.5t-168.5 -29q-95 0 -168 33zM124 900h130l80 -92l88 92h143l-170 -180h-108z" />
    <glyph glyph-name="scaron" unicode="&#x161;" horiz-adv-x="640" 
d="M161 8q-67 27 -102.5 72t-38.5 98h143q6 -37 42.5 -62.5t105.5 -26.5q46 0 77.5 10t46.5 26t15 33q-1 17 -12.5 28t-41 18t-85.5 11q-125 10 -189 53t-65 113q0 45 31 81.5t88.5 58t136.5 21.5q81 0 141 -23.5t95 -66t43 -96.5h-145q-8 36 -42 56t-93 20q-38 0 -62 -8.5
t-35 -22.5t-10 -29q3 -25 29 -39t85 -18q105 -7 166.5 -27.5t87 -52.5t27.5 -78q1 -46 -30 -86t-94.5 -65t-155.5 -25t-159 27zM105 764h130l80 -92l88 92h143l-170 -180h-108z" />
    <glyph glyph-name="uni0162" unicode="&#x162;" horiz-adv-x="599" 
d="M228 574h-237v121h623v-121h-237v-574h-149v574z" />
    <glyph glyph-name="uni0163" unicode="&#x163;" horiz-adv-x="500" 
d="M174 408h-170v115h170v175h151v-175h177v-115h-177v-408h-151v408z" />
    <glyph glyph-name="Tcaron" unicode="&#x164;" horiz-adv-x="599" 
d="M228 574h-237v121h623v-121h-237v-574h-149v574zM84 900h130l80 -92l88 92h143l-170 -180h-108z" />
    <glyph glyph-name="tcaron" unicode="&#x165;" horiz-adv-x="500" 
d="M174 408h-170v115h170v175h151v-175h177v-115h-177v-408h-151v408zM169 877l77 -80l86 80h138l-165 -156h-104l-158 156h126z" />
    <glyph glyph-name="Tbar" unicode="&#x166;" horiz-adv-x="599" 
d="M228 293h-130v120h130v161h-237v121h623v-121h-237v-161h136v-120h-136v-293h-149v293z" />
    <glyph glyph-name="tbar" unicode="&#x167;" horiz-adv-x="500" 
d="M43 317h131v91h-170v115h170v175h151v-175h177v-115h-177v-91h133v-120h-133v-197h-151v197h-131v120z" />
    <glyph glyph-name="Utilde" unicode="&#x168;" horiz-adv-x="744" 
d="M130.5 65q-86.5 84 -86.5 258v372h148v-367q0 -112 47 -160.5t133 -48.5q87 0 134.5 51.5t47.5 157.5v367h152v-376q0 -107 -39.5 -182.5t-115 -115.5t-182.5 -40q-152 0 -238.5 84zM147 719q-9 57 3.5 99.5t44.5 65.5t77 23q33 0 56.5 -10.5t50.5 -30.5q17 -13 30 -20
t27 -7q33 0 46.5 17.5t8.5 47.5h107q10 -58 -6.5 -99.5t-52 -63.5t-80.5 -22q-32 0 -54.5 11t-47.5 31q-19 14 -31.5 21t-26.5 7q-27 0 -37.5 -18t-5.5 -52h-109z" />
    <glyph glyph-name="utilde" unicode="&#x169;" 
d="M108 41.5q-53 60.5 -53 176.5v305h149v-302q0 -55 28 -88.5t81 -33.5q47 0 85.5 24t61.5 68.5t24 103.5l48 -18q-2 -87 -39.5 -154.5t-99 -104.5t-133.5 -37q-99 0 -152 60.5zM484 523h148v-523h-148v523zM129 583q-9 57 3.5 99.5t44.5 65.5t77 23q33 0 56.5 -10.5
t50.5 -30.5q17 -13 30 -20t27 -7q33 0 46.5 17.5t8.5 47.5h107q10 -58 -6.5 -99.5t-52 -63.5t-80.5 -22q-32 0 -54.5 11t-47.5 31q-19 14 -31.5 21t-26.5 7q-27 0 -37.5 -18t-5.5 -52h-109z" />
    <glyph glyph-name="Umacron" unicode="&#x16a;" horiz-adv-x="744" 
d="M130.5 65q-86.5 84 -86.5 258v372h148v-367q0 -112 47 -160.5t133 -48.5q87 0 134.5 51.5t47.5 157.5v367h152v-376q0 -107 -39.5 -182.5t-115 -115.5t-182.5 -40q-152 0 -238.5 84zM163 871h415v-120h-415v120z" />
    <glyph glyph-name="umacron" unicode="&#x16b;" 
d="M108 41.5q-53 60.5 -53 176.5v305h149v-302q0 -55 28 -88.5t81 -33.5q47 0 85.5 24t61.5 68.5t24 103.5l48 -18q-2 -87 -39.5 -154.5t-99 -104.5t-133.5 -37q-99 0 -152 60.5zM484 523h148v-523h-148v523zM134 735h415v-120h-415v120z" />
    <glyph glyph-name="Ubreve" unicode="&#x16c;" horiz-adv-x="744" 
d="M130.5 65q-86.5 84 -86.5 258v372h148v-367q0 -112 47 -160.5t133 -48.5q87 0 134.5 51.5t47.5 157.5v367h152v-376q0 -107 -39.5 -182.5t-115 -115.5t-182.5 -40q-152 0 -238.5 84zM273 747q-41 19 -62 51t-21 71h97q-1 -28 18 -44.5t66 -16.5q46 0 66 17t19 44h98
q1 -39 -19.5 -71t-62.5 -51t-101 -19q-57 0 -98 19z" />
    <glyph glyph-name="ubreve" unicode="&#x16d;" 
d="M108 41.5q-53 60.5 -53 176.5v305h149v-302q0 -55 28 -88.5t81 -33.5q47 0 85.5 24t61.5 68.5t24 103.5l48 -18q-2 -87 -39.5 -154.5t-99 -104.5t-133.5 -37q-99 0 -152 60.5zM484 523h148v-523h-148v523zM245 611q-41 19 -62 51t-21 71h97q-1 -28 18 -44.5t66 -16.5
q46 0 66 17t19 44h98q1 -39 -19.5 -71t-62.5 -51t-101 -19q-57 0 -98 19z" />
    <glyph glyph-name="Uring" unicode="&#x16e;" horiz-adv-x="744" 
d="M130.5 65q-86.5 84 -86.5 258v372h148v-367q0 -112 47 -160.5t133 -48.5q87 0 134.5 51.5t47.5 157.5v367h152v-376q0 -107 -39.5 -182.5t-115 -115.5t-182.5 -40q-152 0 -238.5 84zM292 739q-36 19 -56.5 51t-20.5 71q0 38 20 71t55.5 52t80.5 19q47 0 83.5 -17.5
t56.5 -48.5t20 -70t-19.5 -73t-56 -54t-83.5 -20q-44 0 -80 19zM417 817.5q16 17.5 15 43.5q2 27 -13.5 45t-44.5 18q-30 0 -45.5 -18t-16.5 -45q-1 -26 15 -43.5t45 -17.5t45 17.5z" />
    <glyph glyph-name="uring" unicode="&#x16f;" 
d="M108 41.5q-53 60.5 -53 176.5v305h149v-302q0 -55 28 -88.5t81 -33.5q47 0 85.5 24t61.5 68.5t24 103.5l48 -18q-2 -87 -39.5 -154.5t-99 -104.5t-133.5 -37q-99 0 -152 60.5zM484 523h148v-523h-148v523zM260 603q-36 19 -56.5 51t-20.5 71q0 38 20 71t55.5 52t80.5 19
q47 0 83.5 -17.5t56.5 -48.5t20 -70t-19.5 -73t-56 -54t-83.5 -20q-44 0 -80 19zM385 681.5q16 17.5 15 43.5q2 27 -13.5 45t-44.5 18q-30 0 -45.5 -18t-16.5 -45q-1 -26 15 -43.5t45 -17.5t45 17.5z" />
    <glyph glyph-name="Uhungarumlaut" unicode="&#x170;" horiz-adv-x="744" 
d="M130.5 65q-86.5 84 -86.5 258v372h148v-367q0 -112 47 -160.5t133 -48.5q87 0 134.5 51.5t47.5 157.5v367h152v-376q0 -107 -39.5 -182.5t-115 -115.5t-182.5 -40q-152 0 -238.5 84zM401 789l211 145l61 -115l-238 -102zM377 934l61 -115l-238 -102l-34 72z" />
    <glyph glyph-name="uhungarumlaut" unicode="&#x171;" 
d="M108 41.5q-53 60.5 -53 176.5v305h149v-302q0 -55 28 -88.5t81 -33.5q47 0 85.5 24t61.5 68.5t24 103.5l48 -18q-2 -87 -39.5 -154.5t-99 -104.5t-133.5 -37q-99 0 -152 60.5zM484 523h148v-523h-148v523zM371 653l211 145l61 -115l-238 -102zM347 798l61 -115l-238 -102
l-34 72z" />
    <glyph glyph-name="Uogonek" unicode="&#x172;" horiz-adv-x="744" 
d="M559 -276q-149 -29 -230 -14.5t-102 66.5q-15 37 1.5 78.5t69.5 88.5t144 96q32 7 45 -5.5t11 -33.5q-79 -41 -123.5 -85t-24.5 -78q13 -21 56.5 -23t97.5 11zM130.5 65q-86.5 84 -86.5 258v372h148v-367q0 -112 47 -160.5t133 -48.5q87 0 134.5 51.5t47.5 157.5v367h152
v-376q0 -107 -39.5 -182.5t-115 -115.5t-182.5 -40q-152 0 -238.5 84z" />
    <glyph glyph-name="uogonek" unicode="&#x173;" 
d="M684 -276q-148 -29 -229 -14.5t-102 66.5q-15 37 1.5 78.5t69.5 88.5t143 96q33 7 46 -5.5t10 -33.5q-78 -41 -122.5 -85t-25.5 -78q14 -21 57.5 -23t97.5 11zM108 41.5q-53 60.5 -53 176.5v305h149v-302q0 -55 28 -88.5t81 -33.5q47 0 85.5 24t61.5 68.5t24 103.5
l48 -18q-2 -87 -39.5 -154.5t-99 -104.5t-133.5 -37q-99 0 -152 60.5zM484 523h148v-523h-148v523z" />
    <glyph glyph-name="Wcircumflex" unicode="&#x174;" horiz-adv-x="913" 
d="M459 476l-123 -476h-183l-159 695h154l105 -521l129 521h147l137 -515l109 515h161l-171 -695h-171zM405 904h109l163 -180h-130l-81 92l-87 -92h-143z" />
    <glyph glyph-name="wcircumflex" unicode="&#x175;" horiz-adv-x="958" 
d="M474 340l-130 -340h-162l-167 523h153l103 -364l133 364h150l128 -355l118 355h158l-194 -523h-164zM420 768h109l163 -180h-130l-81 92l-87 -92h-143z" />
    <glyph glyph-name="Ycircumflex" unicode="&#x176;" horiz-adv-x="520" 
d="M179 207l-236 488h158l154 -343l173 343h162l-258 -476v-219h-153v207zM208 904h109l163 -180h-130l-81 92l-87 -92h-143z" />
    <glyph glyph-name="ycircumflex" unicode="&#x177;" 
d="M108 41.5q-53 60.5 -53 176.5v305h149v-302q0 -55 28 -88.5t81 -33.5q47 0 85.5 24t61.5 68.5t24 103.5l48 -18q-2 -87 -39.5 -154.5t-99 -104.5t-133.5 -37q-99 0 -152 60.5zM484 523h148v-746h-148v746zM282 768h109l163 -180h-130l-81 92l-87 -92h-143z" />
    <glyph glyph-name="Ydieresis" unicode="&#x178;" horiz-adv-x="520" 
d="M179 207l-236 488h158l154 -343l173 343h162l-258 -476v-219h-153v207zM323 757.5q-27 24.5 -27 60.5t26.5 60.5t67.5 24.5q42 0 69.5 -24.5t27.5 -60.5t-26.5 -60.5t-68.5 -24.5t-69 24.5zM60 757.5q-27 24.5 -27 60.5t26 60.5t66 24.5q43 0 70.5 -24.5t27.5 -60.5
t-27 -60.5t-68 -24.5t-68 24.5z" />
    <glyph glyph-name="Zacute" unicode="&#x179;" horiz-adv-x="669" 
d="M413 573h-396v122h654l-431 -576h414v-119h-667zM199 792l233 145l67 -115l-259 -102z" />
    <glyph glyph-name="zacute" unicode="&#x17a;" horiz-adv-x="565" 
d="M318 405h-302v118h551l-321 -406h312v-117h-555zM168 644l233 145l67 -115l-259 -102z" />
    <glyph glyph-name="Zdotaccent" unicode="&#x17b;" horiz-adv-x="669" 
d="M413 573h-396v122h654l-431 -576h414v-119h-667zM266 762q-27 25 -27 61q0 35 26.5 60t66.5 25q42 0 69.5 -25t27.5 -61q0 -35 -27 -60t-67 -25q-42 0 -69 25z" />
    <glyph glyph-name="zdotaccent" unicode="&#x17c;" horiz-adv-x="565" 
d="M318 405h-302v118h551l-321 -406h312v-117h-555zM213 626q-27 25 -27 61q0 35 26.5 60t66.5 25q42 0 69.5 -25t27.5 -61q0 -35 -27 -60t-67 -25q-42 0 -69 25z" />
    <glyph glyph-name="Zcaron" unicode="&#x17d;" horiz-adv-x="669" 
d="M413 573h-396v122h654l-431 -576h414v-119h-667zM118 900h130l80 -92l88 92h143l-170 -180h-108z" />
    <glyph glyph-name="zcaron" unicode="&#x17e;" horiz-adv-x="565" 
d="M318 405h-302v118h551l-321 -406h312v-117h-555zM67 764h130l80 -92l88 92h143l-170 -180h-108z" />
    <glyph glyph-name="longs" unicode="&#x17f;" horiz-adv-x="525" 
d="M145 500q0 70 33.5 126.5t91.5 88t129 31.5h59l-1 -117h-15q-68 0 -108 -31.5t-40 -91.5v-506h-149v500z" />
    <glyph glyph-name="uni0189" unicode="&#x189;" horiz-adv-x="670" 
d="M5 413h336v-121h-336v121zM113 695h210q94 0 165.5 -48t109.5 -127.5t38 -172.5q0 -88 -38 -168t-110 -129.5t-168 -49.5h-240zM56 695h151v-695h-151v695zM310 122q53 0 95.5 31.5t65 86.5t20.5 119q-3 102 -51.5 159t-130.5 57h-159l10 -453h150z" />
    <glyph glyph-name="florin" unicode="&#x192;" horiz-adv-x="553" 
d="M159 500q0 70 33.5 126.5t91.5 88t129 31.5h58v-117h-15q-67 0 -108 -32t-40 -91v-729h-149v723zM13 476h507v-113h-507v113z" />
    <glyph glyph-name="uni01C4" unicode="&#x1c4;" horiz-adv-x="1339" 
d="M113 695h210q94 0 165.5 -48t109.5 -127.5t38 -172.5q0 -88 -38 -168t-110 -129.5t-168 -49.5h-240zM56 695h151v-695h-151v695zM310 122q53 0 95.5 31.5t65 86.5t20.5 119q-3 102 -51.5 159t-130.5 57h-159l10 -453h150zM1083 573h-396v122h654l-431 -576h414v-119h-667
zM788 900h130l80 -92l88 92h143l-170 -180h-108z" />
    <glyph glyph-name="uni01C5" unicode="&#x1c5;" horiz-adv-x="1235" 
d="M113 695h210q94 0 165.5 -48t109.5 -127.5t38 -172.5q0 -88 -38 -168t-110 -129.5t-168 -49.5h-240zM56 695h151v-695h-151v695zM310 122q53 0 95.5 31.5t65 86.5t20.5 119q-3 102 -51.5 159t-130.5 57h-159l10 -453h150zM988 405h-302v118h551l-321 -406h312v-117h-555z
M720 741h130l80 -92l88 92h143l-170 -180h-108z" />
    <glyph glyph-name="uni01C6" unicode="&#x1c6;" horiz-adv-x="1245" 
d="M156 18q-57 37 -89.5 101.5t-32.5 143.5q0 77 35.5 141t95 101t129.5 37q71 0 127 -37t87 -101t30 -141q0 -77 -34 -141.5t-92.5 -102.5t-129.5 -38q-69 0 -126 37zM406.5 113.5q37.5 22.5 60.5 61.5t23 87q0 49 -20 88t-54.5 61.5t-77.5 22.5q-44 0 -81.5 -22.5t-59 -62
t-21.5 -88.5t19 -87.5t53.5 -60.5t77.5 -22t80.5 22.5zM489 746h148v-746h-147zM997 405h-302v118h551l-321 -406h312v-117h-555zM755 742h130l80 -92l88 92h143l-170 -180h-108z" />
    <glyph glyph-name="uni01C7" unicode="&#x1c7;" horiz-adv-x="1242" 
d="M50 695h150v-565h344v-130h-494v695zM694 24.5q-65 43.5 -93 117.5t-19 167h143q-6 -57 8.5 -100t48.5 -67t85 -24q84 0 129.5 56t45.5 170v351h155v-354q1 -113 -39 -194t-116 -123.5t-184 -42.5q-99 0 -164 43.5z" />
    <glyph glyph-name="uni01C8" unicode="&#x1c8;" horiz-adv-x="826" 
d="M50 695h150v-565h344v-130h-494v695zM443 -106h19q69 0 108.5 35.5t39.5 100.5v493h148v-487q0 -78 -31 -136.5t-87.5 -90.5t-130.5 -32h-66v117zM626 608q-26 13 -41 35t-15 49q0 26 15 48t41 35t56 13q31 0 57 -13t41 -35t15 -48q0 -27 -15 -49t-41 -35t-57 -13
q-30 0 -56 13z" />
    <glyph glyph-name="uni01C9" unicode="&#x1c9;" horiz-adv-x="537" 
d="M54 746h149v-746h-149v746zM155 -106h19q69 0 108.5 35.5t39.5 100.5v493h148v-487q0 -78 -31 -136.5t-87.5 -90.5t-130.5 -32h-66v117zM338 608q-26 13 -41 35t-15 49q0 26 15 48t41 35t56 13q31 0 57 -13t41 -35t15 -48q0 -27 -15 -49t-41 -35t-57 -13q-30 0 -56 13z
" />
    <glyph glyph-name="uni01CA" unicode="&#x1ca;" horiz-adv-x="1429" 
d="M201 473v-473h-145v695h145l337 -483v483h143v-695h-150zM881 24.5q-65 43.5 -93 117.5t-19 167h143q-6 -57 8.5 -100t48.5 -67t85 -24q84 0 129.5 56t45.5 170v351h155v-354q1 -113 -39 -194t-116 -123.5t-184 -42.5q-99 0 -164 43.5z" />
    <glyph glyph-name="uni01CB" unicode="&#x1cb;" horiz-adv-x="1012" 
d="M201 473v-473h-145v695h145l337 -483v483h143v-695h-150zM630 -106h19q69 0 108.5 35.5t39.5 100.5v493h148v-487q0 -78 -31 -136.5t-87.5 -90.5t-130.5 -32h-66v117zM813 608q-26 13 -41 35t-15 49q0 26 15 48t41 35t56 13q31 0 57 -13t41 -35t15 -48q0 -27 -15 -49
t-41 -35t-57 -13q-30 0 -56 13z" />
    <glyph glyph-name="uni01CC" unicode="&#x1cc;" horiz-adv-x="958" 
d="M484 303q0 55 -28.5 88t-81.5 33q-47 0 -85.5 -24t-61 -68t-24.5 -103l-49 17q2 87 39.5 154.5t99 104.5t134.5 37q99 0 152 -60.5t53 -176.5v-305h-148v303zM55 523h148v-523h-148v523zM576 -106h19q69 0 108.5 35.5t39.5 100.5v493h148v-487q0 -78 -31 -136.5
t-87.5 -90.5t-130.5 -32h-66v117zM759 608q-26 13 -41 35t-15 49q0 26 15 48t41 35t56 13q31 0 57 -13t41 -35t15 -48q0 -27 -15 -49t-41 -35t-57 -13q-30 0 -56 13z" />
    <glyph glyph-name="uni01CD" unicode="&#x1cd;" horiz-adv-x="708" 
d="M256 695h199l237 -695h-156l-48 143h-265l-45 -143h-163zM451 257l-99 286l-96 -286h195zM134 900h130l80 -92l88 92h143l-170 -180h-108z" />
    <glyph glyph-name="uni01CE" unicode="&#x1ce;" 
d="M156 18q-57 37 -89.5 101.5t-32.5 143.5q0 77 35.5 141t95 101t129.5 37q71 0 127 -37t87 -101t30 -141q0 -77 -34 -141.5t-92.5 -102.5t-129.5 -38q-69 0 -126 37zM406.5 113.5q37.5 22.5 60 61.5t22.5 87q0 49 -19.5 88t-54 61.5t-77.5 22.5q-44 0 -81.5 -22.5t-59 -62
t-21.5 -88.5t19 -87.5t53.5 -60.5t77.5 -22t80.5 22.5zM489 523h148v-523h-147zM125 764h130l80 -92l88 92h143l-170 -180h-108z" />
    <glyph glyph-name="uni01CF" unicode="&#x1cf;" horiz-adv-x="276" 
d="M66 695h149v-695h-149v695zM-77 900h130l80 -92l88 92h143l-170 -180h-108z" />
    <glyph glyph-name="uni01D0" unicode="&#x1d0;" horiz-adv-x="262" 
d="M56 523h150v-523h-150v523zM-84 764h130l80 -92l88 92h143l-170 -180h-108z" />
    <glyph glyph-name="uni01D1" unicode="&#x1d1;" horiz-adv-x="773" 
d="M188 28q-80 47 -121.5 127.5t-39.5 181.5q2 96 47 178t126.5 131t189.5 49q106 0 185.5 -47t121.5 -128.5t40 -182.5q-2 -99 -49 -180.5t-129 -128.5t-184 -47q-107 0 -187 47zM486 143.5q47 30.5 73 82t28 111.5q1 63 -22.5 114.5t-69.5 81.5t-110 30q-60 0 -107 -31.5
t-73 -83.5t-28 -111q-2 -65 21.5 -116t69.5 -79.5t108 -28.5q63 0 110 30.5zM171 900h130l80 -92l88 92h143l-170 -180h-108z" />
    <glyph glyph-name="uni01D2" unicode="&#x1d2;" horiz-adv-x="677" 
d="M182 18.5q-70 37.5 -109.5 102t-40.5 141.5q1 78 41.5 142t111 101t157.5 37q90 0 160 -37t108.5 -101t38.5 -142q-1 -77 -41 -141.5t-110.5 -102t-158.5 -37.5q-87 0 -157 37.5zM422 121.5q38 21.5 59.5 58.5t22.5 82q1 46 -19 83t-56.5 58.5t-84.5 21.5t-86 -21.5
t-60 -59t-23 -82.5t19 -82t57.5 -58.5t84.5 -21.5q48 0 86 21.5zM122 764h130l80 -92l88 92h143l-170 -180h-108z" />
    <glyph glyph-name="uni01D3" unicode="&#x1d3;" horiz-adv-x="744" 
d="M130.5 65q-86.5 84 -86.5 258v372h148v-367q0 -112 47 -160.5t133 -48.5q87 0 134.5 51.5t47.5 157.5v367h152v-376q0 -107 -39.5 -182.5t-115 -115.5t-182.5 -40q-152 0 -238.5 84zM156 900h130l80 -92l88 92h143l-170 -180h-108z" />
    <glyph glyph-name="uni01D4" unicode="&#x1d4;" 
d="M108 41.5q-53 60.5 -53 176.5v305h149v-302q0 -55 28 -88.5t81 -33.5q47 0 85.5 24t61.5 68.5t24 103.5l48 -18q-2 -87 -39.5 -154.5t-99 -104.5t-133.5 -37q-99 0 -152 60.5zM484 523h148v-523h-148v523zM125 764h130l80 -92l88 92h143l-170 -180h-108z" />
    <glyph glyph-name="uni01D5" unicode="&#x1d5;" horiz-adv-x="744" 
d="M130.5 65q-86.5 84 -86.5 258v372h148v-367q0 -112 47 -160.5t133 -48.5q87 0 134.5 51.5t47.5 157.5v367h152v-376q0 -107 -39.5 -182.5t-115 -115.5t-182.5 -40q-152 0 -238.5 84zM435 756.5q-27 24.5 -27 60.5t26.5 60.5t67.5 25.5q42 -1 69.5 -25.5t27.5 -60.5
t-26.5 -60.5t-68.5 -24.5t-69 24.5zM172 756.5q-27 24.5 -27 60.5t26 60.5t66 25.5q43 -1 70.5 -25.5t26.5 -60.5q1 -36 -26 -60.5t-68 -24.5t-68 24.5zM162 1034h415v-102h-415v102z" />
    <glyph glyph-name="uni01D6" unicode="&#x1d6;" 
d="M108 41.5q-53 60.5 -53 176.5v305h149v-302q0 -55 28 -88.5t81 -33.5q47 0 85.5 24t61.5 68.5t24 103.5l48 -18q-2 -87 -39.5 -154.5t-99 -104.5t-133.5 -37q-99 0 -152 60.5zM484 523h148v-523h-148v523zM405 616.5q-27 24.5 -27 60.5t26.5 60.5t67.5 24.5
q42 0 69.5 -24.5t27.5 -60.5t-26.5 -60.5t-68.5 -24.5t-69 24.5zM142 616.5q-27 24.5 -27 60.5t26 60.5t66 24.5q43 0 70.5 -24.5t27.5 -60.5t-27 -60.5t-68 -24.5t-68 24.5zM135 938h415v-120h-415v120z" />
    <glyph glyph-name="uni01D7" unicode="&#x1d7;" horiz-adv-x="744" 
d="M130.5 64q-86.5 83 -86.5 255v368h148v-362q0 -111 47 -159t133 -49q87 1 134.5 52t47.5 155v363h152v-372q0 -105 -39.5 -180t-115 -114.5t-182.5 -39.5q-152 0 -238.5 83zM435 748.5q-27 24.5 -27 59.5q0 36 26.5 60t67.5 25q42 -1 69.5 -25t27.5 -60
q0 -35 -26.5 -59.5t-68.5 -24.5t-69 24.5zM172 748.5q-27 24.5 -27 59.5q0 36 26 60t66 25q43 -1 70.5 -25t26.5 -60q1 -35 -26 -59.5t-68 -24.5t-68 24.5zM262 934l233 140l67 -111l-259 -98z" />
    <glyph glyph-name="uni01D8" unicode="&#x1d8;" 
d="M108 41.5q-53 60.5 -53 176.5v305h149v-302q0 -55 28 -88.5t81 -33.5q47 0 85.5 24t61.5 68.5t24 103.5l48 -18q-2 -87 -39.5 -154.5t-99 -104.5t-133.5 -37q-99 0 -152 60.5zM484 523h148v-523h-148v523zM405 616.5q-27 24.5 -27 60.5t26.5 60.5t67.5 24.5
q42 0 69.5 -24.5t27.5 -60.5t-26.5 -60.5t-68.5 -24.5t-69 24.5zM142 616.5q-27 24.5 -27 60.5t26 60.5t66 24.5q43 0 70.5 -24.5t27.5 -60.5t-27 -60.5t-68 -24.5t-68 24.5zM192 847l233 145l67 -115l-259 -102z" />
    <glyph glyph-name="uni01D9" unicode="&#x1d9;" horiz-adv-x="744" 
d="M130.5 65q-86.5 84 -86.5 258v372h148v-367q0 -112 47 -160.5t133 -48.5q87 0 134.5 51.5t47.5 157.5v367h152v-376q0 -107 -39.5 -182.5t-115 -115.5t-182.5 -40q-152 0 -238.5 84zM435 757.5q-27 24.5 -27 60.5t26.5 60.5t67.5 24.5q42 0 69.5 -24.5t27.5 -60.5
t-26.5 -60.5t-68.5 -24.5t-69 24.5zM172 757.5q-27 24.5 -27 60.5t26 60.5t66 24.5q43 0 70.5 -24.5t27.5 -60.5t-27 -60.5t-68 -24.5t-68 24.5zM156 1056h130l80 -92l88 92h143l-170 -180h-108z" />
    <glyph glyph-name="uni01DA" unicode="&#x1da;" 
d="M108 41.5q-53 60.5 -53 176.5v305h149v-302q0 -55 28 -88.5t81 -33.5q47 0 85.5 24t61.5 68.5t24 103.5l48 -18q-2 -87 -39.5 -154.5t-99 -104.5t-133.5 -37q-99 0 -152 60.5zM484 523h148v-523h-148v523zM405 616.5q-27 24.5 -27 60.5t26.5 60.5t67.5 24.5
q42 0 69.5 -24.5t27.5 -60.5t-26.5 -60.5t-68.5 -24.5t-69 24.5zM142 616.5q-27 24.5 -27 60.5t26 60.5t66 24.5q43 0 70.5 -24.5t27.5 -60.5t-27 -60.5t-68 -24.5t-68 24.5zM122 967h130l80 -92l88 92h143l-170 -180h-108z" />
    <glyph glyph-name="uni01DB" unicode="&#x1db;" horiz-adv-x="744" 
d="M130.5 65q-86.5 84 -86.5 258v372h148v-367q0 -112 47 -160.5t133 -48.5q87 0 134.5 51.5t47.5 157.5v367h152v-376q0 -107 -39.5 -182.5t-115 -115.5t-182.5 -40q-152 0 -238.5 84zM435 756.5q-27 24.5 -27 60.5t26.5 60.5t67.5 25.5q42 -1 69.5 -25.5t27.5 -60.5
t-26.5 -60.5t-68.5 -24.5t-69 24.5zM172 756.5q-27 24.5 -27 60.5t26 60.5t66 25.5q43 -1 70.5 -25.5t26.5 -60.5q1 -36 -26 -60.5t-68 -24.5t-68 24.5zM181 1001l69 92l232 -149l-38 -52z" />
    <glyph glyph-name="uni01DC" unicode="&#x1dc;" 
d="M108 41.5q-53 60.5 -53 176.5v305h149v-302q0 -55 28 -88.5t81 -33.5q47 0 85.5 24t61.5 68.5t24 103.5l48 -18q-2 -87 -39.5 -154.5t-99 -104.5t-133.5 -37q-99 0 -152 60.5zM484 523h148v-523h-148v523zM405 616.5q-27 24.5 -27 60.5t26.5 60.5t67.5 24.5
q42 0 69.5 -24.5t27.5 -60.5t-26.5 -60.5t-68.5 -24.5t-69 24.5zM142 616.5q-27 24.5 -27 60.5t26 60.5t66 24.5q43 0 70.5 -24.5t27.5 -60.5t-27 -60.5t-68 -24.5t-68 24.5zM192 913l69 111l232 -180l-38 -63z" />
    <glyph glyph-name="uni01DE" unicode="&#x1de;" horiz-adv-x="708" 
d="M256 695h199l237 -695h-156l-48 143h-265l-45 -143h-163zM451 257l-99 286l-96 -286h195zM417 757.5q-27 24.5 -27 60.5t26.5 60.5t67.5 24.5q42 0 69.5 -24.5t27.5 -61.5q0 -35 -26.5 -59.5t-68.5 -25.5q-42 1 -69 25.5zM154 757.5q-27 24.5 -27 60.5t26 60.5t66 24.5
q43 0 70.5 -24.5t26.5 -61.5q1 -35 -26 -59.5t-68 -25.5q-41 1 -68 25.5zM143 1022h415v-102h-415v102z" />
    <glyph glyph-name="uni01DF" unicode="&#x1df;" 
d="M156 18q-57 37 -89.5 101.5t-32.5 143.5q0 77 35.5 141t95 101t129.5 37q71 0 127 -37t87 -101t30 -141q0 -77 -34 -141.5t-92.5 -102.5t-129.5 -38q-69 0 -126 37zM406.5 113.5q37.5 22.5 60 61.5t22.5 87q0 49 -19.5 88t-54 61.5t-77.5 22.5q-44 0 -81.5 -22.5t-59 -62
t-21.5 -88.5t19 -87.5t53.5 -60.5t77.5 -22t80.5 22.5zM489 523h148v-523h-147zM404 616.5q-27 24.5 -27 60.5t26.5 60.5t67.5 24.5q42 0 69.5 -24.5t27.5 -60.5t-26.5 -60.5t-68.5 -24.5t-69 24.5zM141 616.5q-27 24.5 -27 60.5t26 60.5t66 24.5q43 0 70.5 -24.5
t27.5 -60.5t-27 -60.5t-68 -24.5t-68 24.5zM134 938h415v-120h-415v120z" />
    <glyph glyph-name="uni01E0" unicode="&#x1e0;" horiz-adv-x="708" 
d="M256 695h199l237 -695h-156l-48 143h-265l-45 -143h-163zM451 257l-99 286l-96 -286h195zM286 762q-27 25 -27 61q0 35 26.5 60t66.5 25q42 0 69.5 -25t27.5 -61q0 -35 -27 -60t-68 -25t-68 25zM146 1022h415v-99h-415v99z" />
    <glyph glyph-name="uni01E1" unicode="&#x1e1;" 
d="M156 18q-57 37 -89.5 101.5t-32.5 143.5q0 77 35.5 141t95 101t129.5 37q71 0 127 -37t87 -101t30 -141q0 -77 -34 -141.5t-92.5 -102.5t-129.5 -38q-69 0 -126 37zM406.5 113.5q37.5 22.5 60 61.5t22.5 87q0 49 -19.5 88t-54 61.5t-77.5 22.5q-44 0 -81.5 -22.5t-59 -62
t-21.5 -88.5t19 -87.5t53.5 -60.5t77.5 -22t80.5 22.5zM489 523h148v-523h-147zM273 626q-27 25 -27 61q0 35 26.5 60t66.5 25q42 0 69.5 -25t27.5 -61q0 -35 -27 -60t-67 -25q-42 0 -69 25zM134 948h415v-120h-415v120z" />
    <glyph glyph-name="uni01E2" unicode="&#x1e2;" horiz-adv-x="906" 
d="M359 695h493v-120h-273v-170h232v-122h-232v-160h285v-123h-434v143h-186l-69 -143h-162zM430 257v265l-132 -265h132zM310 871h415v-120h-415v120z" />
    <glyph glyph-name="uni01E3" unicode="&#x1e3;" horiz-adv-x="1055" 
d="M579 16.5q-64 35.5 -97.5 99.5t-32.5 146q1 76 36 140t98.5 102t144.5 38q94 0 159 -39.5t96 -103.5t30 -138q-1 -19 -6 -45h-425q5 -55 45.5 -87t105.5 -32q43 0 78 17.5t60 45.5l107 -65q-42 -52 -106.5 -83t-143.5 -31q-85 0 -149 35.5zM388.5 127.5
q41.5 33.5 51.5 92.5h-175q-59 0 -83.5 -31.5t2.5 -63t96 -31.5q67 0 108.5 33.5zM61.5 62.5q-53.5 81.5 -3 163t180.5 81.5h203q0 51 -32.5 82t-98.5 31q-49 0 -80.5 -18t-49.5 -53l-126 54q33 61 99.5 100t163.5 39q87 0 145 -31.5t85.5 -87.5t25.5 -127l-21 -53
q-2 -77 -42 -136.5t-108 -92.5t-155 -33q-133 0 -186.5 81.5zM868 305q-1 32 -16 60t-44.5 45.5t-72.5 17.5q-58 0 -97 -33t-52 -90h282zM320 699h415v-120h-415v120z" />
    <glyph glyph-name="Gcaron" unicode="&#x1e6;" horiz-adv-x="750" 
d="M189 28.5q-80 47.5 -122 130t-40 182.5q2 94 47 175t127 130t189 49q93 0 161.5 -40.5t107.5 -101.5t48 -123h-145q-7 32 -28.5 62.5t-60 50.5t-89.5 20q-60 0 -107 -29.5t-72.5 -80t-28.5 -112.5q-2 -66 22.5 -118t70.5 -81t106 -29q52 0 95 22.5t71 63t34 93.5l145 -3
q-7 -80 -51 -150.5t-120 -114t-174 -43.5q-106 0 -186 47.5zM367 358h353v-69l-72 -33h-281v102zM159 900h130l80 -92l88 92h143l-170 -180h-108z" />
    <glyph glyph-name="gcaron" unicode="&#x1e7;" horiz-adv-x="672" 
d="M201.5 -246.5q-67.5 38.5 -108.5 111.5l120 54q26 -38 60.5 -59.5t72.5 -21.5q63 1 97 44t35 115v526h147v-511q-1 -89 -33 -156t-93 -104t-146 -37q-84 0 -151.5 38.5zM151 19q-55 38 -86 103t-29 141q2 77 38 141t94.5 101t125.5 37q68 0 122.5 -37t84.5 -101t28 -141
t-37 -141.5t-93 -102.5t-125 -38q-68 0 -123 38zM398.5 113q35.5 22 57.5 61.5t23 87.5t-18 87.5t-52.5 62t-74.5 22.5t-76.5 -23t-57.5 -62.5t-23 -87.5t17.5 -86.5t52.5 -61t75 -22.5t76.5 22zM119 764h130l80 -92l88 92h143l-170 -180h-108z" />
    <glyph glyph-name="uni01E8" unicode="&#x1e8;" horiz-adv-x="665" 
d="M203 336v-336h-149v695h149v-313l309 313h193l-337 -332l359 -363h-199zM116 900h130l80 -92l88 92h143l-170 -180h-108z" />
    <glyph glyph-name="uni01E9" unicode="&#x1e9;" horiz-adv-x="639" 
d="M201 242v-242h-150v746h150v-464l265 241h206l-302 -257l308 -266h-205zM210 764h130l80 -92l88 92h143l-170 -180h-108z" />
    <glyph glyph-name="uni01EA" unicode="&#x1ea;" horiz-adv-x="773" 
d="M526 -276q-148 -29 -229 -14.5t-102 66.5q-15 37 1.5 78.5t69.5 88.5t143 96q33 7 46 -5.5t10 -33.5q-78 -41 -122.5 -85t-25.5 -78q14 -21 57.5 -23t97.5 11zM188 28q-80 47 -121.5 127.5t-39.5 181.5q2 96 47 178t126.5 131t189.5 49q106 0 185.5 -47t121.5 -128.5
t40 -182.5q-2 -99 -49 -180.5t-129 -128.5t-184 -47q-107 0 -187 47zM486 143.5q47 30.5 73 82t28 111.5q1 63 -22.5 114.5t-69.5 81.5t-110 30q-60 0 -107 -31.5t-73 -83.5t-28 -111q-2 -65 21.5 -116t69.5 -79.5t108 -28.5q63 0 110 30.5z" />
    <glyph glyph-name="uni01EB" unicode="&#x1eb;" horiz-adv-x="677" 
d="M478 -276q-148 -29 -229 -14.5t-102 66.5q-15 37 1.5 78.5t69.5 88.5t143 96q33 7 46 -5.5t10 -33.5q-78 -41 -122.5 -85t-25.5 -78q14 -21 57.5 -23t97.5 11zM182 18.5q-70 37.5 -109.5 102t-40.5 141.5q1 78 41.5 142t111 101t157.5 37q90 0 160 -37t108.5 -101
t38.5 -142q-1 -77 -41 -141.5t-110.5 -102t-158.5 -37.5q-87 0 -157 37.5zM422 121.5q38 21.5 59.5 58.5t22.5 82q1 46 -19 83t-56.5 58.5t-84.5 21.5t-86 -21.5t-60 -59t-23 -82.5t19 -82t57.5 -58.5t84.5 -21.5q48 0 86 21.5z" />
    <glyph glyph-name="uni01EC" unicode="&#x1ec;" horiz-adv-x="773" 
d="M526 -276q-148 -29 -229 -14.5t-102 66.5q-15 37 1.5 78.5t69.5 88.5t143 96q33 7 46 -5.5t10 -33.5q-78 -41 -122.5 -85t-25.5 -78q14 -21 57.5 -23t97.5 11zM188 28q-80 47 -121.5 127.5t-39.5 181.5q2 96 47 178t126.5 131t189.5 49q106 0 185.5 -47t121.5 -128.5
t40 -182.5q-2 -99 -49 -180.5t-129 -128.5t-184 -47q-107 0 -187 47zM486 143.5q47 30.5 73 82t28 111.5q1 63 -22.5 114.5t-69.5 81.5t-110 30q-60 0 -107 -31.5t-73 -83.5t-28 -111q-2 -65 21.5 -116t69.5 -79.5t108 -28.5q63 0 110 30.5zM178 871h415v-120h-415v120z" />
    <glyph glyph-name="uni01ED" unicode="&#x1ed;" horiz-adv-x="677" 
d="M478 -276q-148 -29 -229 -14.5t-102 66.5q-15 37 1.5 78.5t69.5 88.5t143 96q33 7 46 -5.5t10 -33.5q-78 -41 -122.5 -85t-25.5 -78q14 -21 57.5 -23t97.5 11zM182 18.5q-70 37.5 -109.5 102t-40.5 141.5q1 78 41.5 142t111 101t157.5 37q90 0 160 -37t108.5 -101
t38.5 -142q-1 -77 -41 -141.5t-110.5 -102t-158.5 -37.5q-87 0 -157 37.5zM422 121.5q38 21.5 59.5 58.5t22.5 82q1 46 -19 83t-56.5 58.5t-84.5 21.5t-86 -21.5t-60 -59t-23 -82.5t19 -82t57.5 -58.5t84.5 -21.5q48 0 86 21.5zM131 735h415v-120h-415v120z" />
    <glyph glyph-name="uni01F1" unicode="&#x1f1;" horiz-adv-x="1339" 
d="M113 695h210q94 0 165.5 -48t109.5 -127.5t38 -172.5q0 -88 -38 -168t-110 -129.5t-168 -49.5h-240zM56 695h151v-695h-151v695zM310 122q53 0 95.5 31.5t65 86.5t20.5 119q-3 102 -51.5 159t-130.5 57h-159l10 -453h150zM1083 573h-396v122h654l-431 -576h414v-119h-667
z" />
    <glyph glyph-name="uni01F2" unicode="&#x1f2;" horiz-adv-x="1235" 
d="M113 695h210q94 0 165.5 -48t109.5 -127.5t38 -172.5q0 -88 -38 -168t-110 -129.5t-168 -49.5h-240zM56 695h151v-695h-151v695zM310 122q53 0 95.5 31.5t65 86.5t20.5 119q-3 102 -51.5 159t-130.5 57h-159l10 -453h150zM988 405h-302v118h551l-321 -406h312v-117h-555z
" />
    <glyph glyph-name="uni01F3" unicode="&#x1f3;" horiz-adv-x="1245" 
d="M156 18q-57 37 -89.5 101.5t-32.5 143.5q0 77 35.5 141t95 101t129.5 37q71 0 127 -37t87 -101t30 -141q0 -77 -34 -141.5t-92.5 -102.5t-129.5 -38q-69 0 -126 37zM406.5 113.5q37.5 22.5 60.5 61.5t23 87q0 49 -20 88t-54.5 61.5t-77.5 22.5q-44 0 -81.5 -22.5t-59 -62
t-21.5 -88.5t19 -87.5t53.5 -60.5t77.5 -22t80.5 22.5zM489 746h148v-746h-147zM997 405h-302v118h551l-321 -406h312v-117h-555z" />
    <glyph glyph-name="uni01F4" unicode="&#x1f4;" horiz-adv-x="750" 
d="M189 28.5q-80 47.5 -122 130t-40 182.5q2 94 47 175t127 130t189 49q93 0 161.5 -40.5t107.5 -101.5t48 -123h-145q-7 32 -28.5 62.5t-60 50.5t-89.5 20q-60 0 -107 -29.5t-72.5 -80t-28.5 -112.5q-2 -66 22.5 -118t70.5 -81t106 -29q52 0 95 22.5t71 63t34 93.5l145 -3
q-7 -80 -51 -150.5t-120 -114t-174 -43.5q-106 0 -186 47.5zM367 358h353v-69l-72 -33h-281v102zM241 792l233 145l67 -115l-259 -102z" />
    <glyph glyph-name="uni01F5" unicode="&#x1f5;" horiz-adv-x="672" 
d="M201.5 -246.5q-67.5 38.5 -108.5 111.5l120 54q26 -38 60.5 -59.5t72.5 -21.5q63 1 97 44t35 115v526h147v-511q-1 -89 -33 -156t-93 -104t-146 -37q-84 0 -151.5 38.5zM151 19q-55 38 -86 103t-29 141q2 77 38 141t94.5 101t125.5 37q68 0 122.5 -37t84.5 -101t28 -141
t-37 -141.5t-93 -102.5t-125 -38q-68 0 -123 38zM398.5 113q35.5 22 57.5 61.5t23 87.5t-18 87.5t-52.5 62t-74.5 22.5t-76.5 -23t-57.5 -62.5t-23 -87.5t17.5 -86.5t52.5 -61t75 -22.5t76.5 22zM220 644l233 145l67 -115l-259 -102z" />
    <glyph glyph-name="uni01F8" unicode="&#x1f8;" horiz-adv-x="737" 
d="M201 473v-473h-145v695h145l337 -483v483h143v-695h-150zM204 846l69 111l232 -180l-38 -63z" />
    <glyph glyph-name="uni01F9" unicode="&#x1f9;" 
d="M484 303q0 55 -28.5 88t-81.5 33q-47 0 -85.5 -24t-61 -68t-24.5 -103l-49 17q2 87 39.5 154.5t99 104.5t134.5 37q99 0 152 -60.5t53 -176.5v-305h-148v303zM55 523h148v-523h-148v523zM171 710l69 111l232 -180l-38 -63z" />
    <glyph glyph-name="Aringacute" unicode="&#x1fa;" horiz-adv-x="708" 
d="M256 695h199l237 -695h-156l-48 143h-265l-45 -143h-163zM451 257l-99 286l-96 -286h195zM274 654q-36 17 -56.5 45t-20.5 63q0 34 20 63t55.5 46t80.5 17q47 0 83.5 -15.5t56.5 -43t20 -62.5q0 -34 -19.5 -64.5t-56 -48t-83.5 -18.5q-44 1 -80 18zM399 723.5
q16 15.5 15 38.5q2 24 -13.5 40t-45.5 16q-29 0 -44.5 -16t-16.5 -40q-1 -23 15 -38.5t45 -16.5q29 1 45 16.5zM232 914l233 110l67 -87l-259 -77z" />
    <glyph glyph-name="aringacute" unicode="&#x1fb;" 
d="M156 18q-57 37 -89.5 101.5t-32.5 143.5q0 77 35.5 141t95 101t129.5 37q71 0 127 -37t87 -101t30 -141q0 -77 -34 -141.5t-92.5 -102.5t-129.5 -38q-69 0 -126 37zM406.5 113.5q37.5 22.5 60 61.5t22.5 87q0 49 -19.5 88t-54 61.5t-77.5 22.5q-44 0 -81.5 -22.5t-59 -62
t-21.5 -88.5t19 -87.5t53.5 -60.5t77.5 -22t80.5 22.5zM489 523h148v-523h-147zM261 579q-36 19 -56.5 51t-20.5 71q0 38 20 71t55.5 52t80.5 19q47 0 83.5 -17.5t56.5 -48.5t20 -70t-19.5 -73t-56 -54t-83.5 -20q-44 0 -80 19zM386 657.5q16 17.5 15 43.5q2 27 -13.5 45
t-44.5 18q-30 0 -45.5 -18t-16.5 -45q-1 -26 15 -43.5t45 -17.5t45 17.5zM192 928l233 145l67 -115l-259 -102z" />
    <glyph glyph-name="AEacute" unicode="&#x1fc;" horiz-adv-x="906" 
d="M359 695h493v-120h-273v-170h232v-122h-232v-160h285v-123h-434v143h-186l-69 -143h-162zM430 257v265l-132 -265h132zM385 792l233 145l67 -115l-259 -102z" />
    <glyph glyph-name="aeacute" unicode="&#x1fd;" horiz-adv-x="1055" 
d="M579 16.5q-64 35.5 -97.5 99.5t-32.5 146q1 76 36 140t98.5 102t144.5 38q94 0 159 -39.5t96 -103.5t30 -138q-1 -19 -6 -45h-425q5 -55 45.5 -87t105.5 -32q43 0 78 17.5t60 45.5l107 -65q-42 -52 -106.5 -83t-143.5 -31q-85 0 -149 35.5zM388.5 127.5
q41.5 33.5 51.5 92.5h-175q-59 0 -83.5 -31.5t2.5 -63t96 -31.5q67 0 108.5 33.5zM61.5 62.5q-53.5 81.5 -3 163t180.5 81.5h203q0 51 -32.5 82t-98.5 31q-49 0 -80.5 -18t-49.5 -53l-126 54q33 61 99.5 100t163.5 39q87 0 145 -31.5t85.5 -87.5t25.5 -127l-21 -53
q-2 -77 -42 -136.5t-108 -92.5t-155 -33q-133 0 -186.5 81.5zM868 305q-1 32 -16 60t-44.5 45.5t-72.5 17.5q-58 0 -97 -33t-52 -90h282zM377 608l233 145l67 -115l-259 -102z" />
    <glyph glyph-name="Oslashacute" unicode="&#x1fe;" horiz-adv-x="773" 
d="M188 28q-80 47 -121.5 127.5t-39.5 181.5q2 96 47 178t126.5 131t189.5 49q106 0 185.5 -47t121.5 -128.5t40 -182.5q-2 -99 -49 -180.5t-129 -128.5t-184 -47q-107 0 -187 47zM486 143.5q47 30.5 73 82t28 111.5q1 63 -22.5 114.5t-69.5 81.5t-110 30q-60 0 -107 -31.5
t-73 -83.5t-28 -111q-2 -65 21.5 -116t69.5 -79.5t108 -28.5q63 0 110 30.5zM511 692h140l-388 -711h-139zM256 792l233 145l67 -115l-259 -102z" />
    <glyph glyph-name="oslashacute" unicode="&#x1ff;" horiz-adv-x="677" 
d="M182 18.5q-70 37.5 -109.5 102t-40.5 141.5q1 78 41.5 142t111 101t157.5 37q90 0 160 -37t108.5 -101t38.5 -142q-1 -77 -41 -141.5t-110.5 -102t-158.5 -37.5q-87 0 -157 37.5zM422 121.5q38 21.5 59.5 58.5t22.5 82q1 46 -19 83t-56.5 58.5t-84.5 21.5t-86 -21.5
t-60 -59t-23 -82.5t19 -82t57.5 -58.5t84.5 -21.5q48 0 86 21.5zM469 557h140l-388 -577h-139zM214 644l233 145l67 -115l-259 -102z" />
    <glyph glyph-name="uni0200" unicode="&#x200;" horiz-adv-x="708" 
d="M256 695h199l237 -695h-156l-48 143h-265l-45 -143h-163zM451 257l-99 286l-96 -286h195zM100 819l61 115l211 -145l-34 -72zM396 934l211 -145l-34 -72l-238 102z" />
    <glyph glyph-name="uni0201" unicode="&#x201;" 
d="M156 18q-57 37 -89.5 101.5t-32.5 143.5q0 77 35.5 141t95 101t129.5 37q71 0 127 -37t87 -101t30 -141q0 -77 -34 -141.5t-92.5 -102.5t-129.5 -38q-69 0 -126 37zM406.5 113.5q37.5 22.5 60 61.5t22.5 87q0 49 -19.5 88t-54 61.5t-77.5 22.5q-44 0 -81.5 -22.5t-59 -62
t-21.5 -88.5t19 -87.5t53.5 -60.5t77.5 -22t80.5 22.5zM489 523h148v-523h-147zM40 683l61 115l211 -145l-34 -72zM336 798l211 -145l-34 -72l-238 102z" />
    <glyph glyph-name="uni0202" unicode="&#x202;" horiz-adv-x="708" 
d="M256 695h199l237 -695h-156l-48 143h-265l-45 -143h-163zM451 257l-99 286l-96 -286h195zM453 847q41 -19 62 -51t21 -71h-97q1 28 -18 44.5t-66 16.5q-46 0 -66 -17t-19 -44h-97q-2 39 18.5 71t62.5 51t101 19q57 0 98 -19z" />
    <glyph glyph-name="uni0203" unicode="&#x203;" 
d="M156 18q-57 37 -89.5 101.5t-32.5 143.5q0 77 35.5 141t95 101t129.5 37q71 0 127 -37t87 -101t30 -141q0 -77 -34 -141.5t-92.5 -102.5t-129.5 -38q-69 0 -126 37zM406.5 113.5q37.5 22.5 60 61.5t22.5 87q0 49 -19.5 88t-54 61.5t-77.5 22.5q-44 0 -81.5 -22.5t-59 -62
t-21.5 -88.5t19 -87.5t53.5 -60.5t77.5 -22t80.5 22.5zM489 523h148v-523h-147zM442 709q41 -19 62 -51t21 -71h-97q1 28 -18 44.5t-66 16.5q-46 0 -66 -17t-19 -44h-97q-2 39 18.5 71t62.5 51t101 19q57 0 98 -19z" />
    <glyph glyph-name="uni0204" unicode="&#x204;" horiz-adv-x="584" 
d="M49 695h482l-1 -120h-333v-170h292v-122h-292v-160h345v-123h-494zM-9 819l61 115l211 -145l-34 -72zM287 934l211 -145l-34 -72l-238 102z" />
    <glyph glyph-name="uni0205" unicode="&#x205;" horiz-adv-x="656" 
d="M170 17q-69 36 -106.5 100t-35.5 145q1 76 40 140t108 102t155 38q94 0 161 -39.5t101 -104t33 -137.5q-2 -34 -6 -45h-447q4 -55 48.5 -87t113.5 -32q47 0 86 18t63 45l108 -65q-41 -51 -111 -82.5t-151 -31.5q-91 0 -160 36zM482 305q-1 32 -19 60t-50.5 45.5
t-76.5 17.5q-61 0 -104 -33.5t-57 -89.5h307zM26 683l61 115l211 -145l-34 -72zM322 798l211 -145l-34 -72l-238 102z" />
    <glyph glyph-name="uni0206" unicode="&#x206;" horiz-adv-x="584" 
d="M49 695h482l-1 -120h-333v-170h292v-122h-292v-160h345v-123h-494zM394 856q41 -19 62 -51t21 -71h-97q1 28 -18 44.5t-66 16.5q-46 0 -66 -17t-19 -44h-97q-2 39 18.5 71t62.5 51t101 19q57 0 98 -19z" />
    <glyph glyph-name="uni0207" unicode="&#x207;" horiz-adv-x="656" 
d="M170 17q-69 36 -106.5 100t-35.5 145q1 76 40 140t108 102t155 38q94 0 161 -39.5t101 -104t33 -137.5q-2 -34 -6 -45h-447q4 -55 48.5 -87t113.5 -32q47 0 86 18t63 45l108 -65q-41 -51 -111 -82.5t-151 -31.5q-91 0 -160 36zM482 305q-1 32 -19 60t-50.5 45.5
t-76.5 17.5q-61 0 -104 -33.5t-57 -89.5h307zM429 703q41 -19 62 -51t21 -71h-97q1 28 -18 44.5t-66 16.5q-46 0 -66 -17t-19 -44h-97q-2 39 18.5 71t62.5 51t101 19q57 0 98 -19z" />
    <glyph glyph-name="uni0208" unicode="&#x208;" horiz-adv-x="276" 
d="M66 695h149v-695h-149v695zM-163 819l61 115l211 -145l-34 -72zM133 934l211 -145l-34 -72l-238 102z" />
    <glyph glyph-name="uni0209" unicode="&#x209;" horiz-adv-x="262" 
d="M56 523h150v-523h-150v523zM-170 683l61 115l211 -145l-34 -72zM126 798l211 -145l-34 -72l-238 102z" />
    <glyph glyph-name="uni020A" unicode="&#x20a;" horiz-adv-x="276" 
d="M66 695h149v-695h-149v695zM239 843q41 -19 62 -51t21 -71h-97q1 28 -18 44.5t-66 16.5q-46 0 -66 -17t-19 -44h-97q-2 39 18.5 71t62.5 51t101 19q57 0 98 -19z" />
    <glyph glyph-name="uni020B" unicode="&#x20b;" horiz-adv-x="262" 
d="M-49 592q-1 40 20 72t62.5 50.5t100.5 18.5q57 0 98 -18.5t62 -50.5t21 -72h-96q1 29 -18 45t-67 16q-46 0 -65.5 -16t-18.5 -45h-99zM56 523h150v-523h-150v523z" />
    <glyph glyph-name="uni020C" unicode="&#x20c;" horiz-adv-x="773" 
d="M188 28q-80 47 -121.5 127.5t-39.5 181.5q2 96 47 178t126.5 131t189.5 49q106 0 185.5 -47t121.5 -128.5t40 -182.5q-2 -99 -49 -180.5t-129 -128.5t-184 -47q-107 0 -187 47zM486 143.5q47 30.5 73 82t28 111.5q1 63 -22.5 114.5t-69.5 81.5t-110 30q-60 0 -107 -31.5
t-73 -83.5t-28 -111q-2 -65 21.5 -116t69.5 -79.5t108 -28.5q63 0 110 30.5zM85 819l61 115l211 -145l-34 -72zM381 934l211 -145l-34 -72l-238 102z" />
    <glyph glyph-name="uni020D" unicode="&#x20d;" horiz-adv-x="677" 
d="M182 18.5q-70 37.5 -109.5 102t-40.5 141.5q1 78 41.5 142t111 101t157.5 37q90 0 160 -37t108.5 -101t38.5 -142q-1 -77 -41 -141.5t-110.5 -102t-158.5 -37.5q-87 0 -157 37.5zM422 121.5q38 21.5 59.5 58.5t22.5 82q1 46 -19 83t-56.5 58.5t-84.5 21.5t-86 -21.5
t-60 -59t-23 -82.5t19 -82t57.5 -58.5t84.5 -21.5q48 0 86 21.5zM36 683l61 115l211 -145l-34 -72zM332 798l211 -145l-34 -72l-238 102z" />
    <glyph glyph-name="uni020E" unicode="&#x20e;" horiz-adv-x="773" 
d="M188 28q-80 47 -121.5 127.5t-39.5 181.5q2 96 47 178t126.5 131t189.5 49q106 0 185.5 -47t121.5 -128.5t40 -182.5q-2 -99 -49 -180.5t-129 -128.5t-184 -47q-107 0 -187 47zM486 143.5q47 30.5 73 82t28 111.5q1 63 -22.5 114.5t-69.5 81.5t-110 30q-60 0 -107 -31.5
t-73 -83.5t-28 -111q-2 -65 21.5 -116t69.5 -79.5t108 -28.5q63 0 110 30.5zM488 833q41 -19 62 -51t21 -71h-97q1 28 -18 44.5t-66 16.5q-46 0 -66 -17t-19 -44h-97q-2 39 18.5 71t62.5 51t101 19q57 0 98 -19z" />
    <glyph glyph-name="uni020F" unicode="&#x20f;" horiz-adv-x="677" 
d="M182 18.5q-70 37.5 -109.5 102t-40.5 141.5q1 78 41.5 142t111 101t157.5 37q90 0 160 -37t108.5 -101t38.5 -142q-1 -77 -41 -141.5t-110.5 -102t-158.5 -37.5q-87 0 -157 37.5zM422 121.5q38 21.5 59.5 58.5t22.5 82q1 46 -19 83t-56.5 58.5t-84.5 21.5t-86 -21.5
t-60 -59t-23 -82.5t19 -82t57.5 -58.5t84.5 -21.5q48 0 86 21.5zM439 710q41 -19 62 -51t21 -71h-97q1 28 -18 44.5t-66 16.5q-46 0 -66 -17t-19 -44h-97q-2 39 18.5 71t62.5 51t101 19q57 0 98 -19z" />
    <glyph glyph-name="uni0210" unicode="&#x210;" horiz-adv-x="609" 
d="M150 323l-3 372h154q84 1 146.5 -30t95 -83t33.5 -115q-1 -85 -53 -141.5t-147 -70.5l247 -255h-182zM54 695h150v-695h-150v695zM291 346q63 0 99 31.5t34 86.5q-3 54 -38 80t-94 26h-113l1 -224h111zM4 819l61 115l211 -145l-34 -72zM300 934l211 -145l-34 -72
l-238 102z" />
    <glyph glyph-name="uni0211" unicode="&#x211;" horiz-adv-x="587" 
d="M155 236q3 96 36 165t84.5 105t110.5 36q56 0 98 -28.5t64 -82.5t21 -129h-148q1 56 -21.5 89t-65.5 33q-36 0 -65.5 -22.5t-47 -65t-18.5 -100.5h-48zM54 523h149v-523h-149v523zM-8 683l61 115l211 -145l-34 -72zM288 798l211 -145l-34 -72l-238 102z" />
    <glyph glyph-name="uni0212" unicode="&#x212;" horiz-adv-x="609" 
d="M150 323l-3 372h154q84 1 146.5 -30t95 -83t33.5 -115q-1 -85 -53 -141.5t-147 -70.5l247 -255h-182zM54 695h150v-695h-150v695zM291 346q63 0 99 31.5t34 86.5q-3 54 -38 80t-94 26h-113l1 -224h111zM388 845q41 -19 62 -51t21 -71h-97q1 28 -18 44.5t-66 16.5
q-46 0 -66 -17t-19 -44h-97q-2 39 18.5 71t62.5 51t101 19q57 0 98 -19z" />
    <glyph glyph-name="uni0213" unicode="&#x213;" horiz-adv-x="587" 
d="M155 236q3 96 36 165t84.5 105t110.5 36q56 0 98 -28.5t64 -82.5t21 -129h-148q1 56 -21.5 89t-65.5 33q-36 0 -65.5 -22.5t-47 -65t-18.5 -100.5h-48zM54 523h149v-523h-149v523zM394 698q41 -19 62 -51t21 -71h-97q1 28 -18 44.5t-66 16.5q-46 0 -66 -17t-19 -44h-97
q-2 39 18.5 71t62.5 51t101 19q57 0 98 -19z" />
    <glyph glyph-name="uni0214" unicode="&#x214;" horiz-adv-x="744" 
d="M130.5 65q-86.5 84 -86.5 258v372h148v-367q0 -112 47 -160.5t133 -48.5q87 0 134.5 51.5t47.5 157.5v367h152v-376q0 -107 -39.5 -182.5t-115 -115.5t-182.5 -40q-152 0 -238.5 84zM71 819l61 115l211 -145l-34 -72zM367 934l211 -145l-34 -72l-238 102z" />
    <glyph glyph-name="uni0215" unicode="&#x215;" 
d="M108 41.5q-53 60.5 -53 176.5v305h149v-302q0 -55 28 -88.5t81 -33.5q47 0 85.5 24t61.5 68.5t24 103.5l48 -18q-2 -87 -39.5 -154.5t-99 -104.5t-133.5 -37q-99 0 -152 60.5zM484 523h148v-523h-148v523zM40 683l61 115l211 -145l-34 -72zM336 798l211 -145l-34 -72
l-238 102z" />
    <glyph glyph-name="uni0216" unicode="&#x216;" horiz-adv-x="744" 
d="M130.5 65q-86.5 84 -86.5 258v372h148v-367q0 -112 47 -160.5t133 -48.5q87 0 134.5 51.5t47.5 157.5v367h152v-376q0 -107 -39.5 -182.5t-115 -115.5t-182.5 -40q-152 0 -238.5 84zM473 823q41 -19 62 -51t21 -71h-97q1 28 -18 44.5t-66 16.5q-46 0 -66 -17t-19 -44h-97
q-2 39 18.5 71t62.5 51t101 19q57 0 98 -19z" />
    <glyph glyph-name="uni0217" unicode="&#x217;" 
d="M108 41.5q-53 60.5 -53 176.5v305h149v-302q0 -55 28 -88.5t81 -33.5q47 0 85.5 24t61.5 68.5t24 103.5l48 -18q-2 -87 -39.5 -154.5t-99 -104.5t-133.5 -37q-99 0 -152 60.5zM484 523h148v-523h-148v523zM443 700q41 -19 62 -51t21 -71h-97q1 28 -18 44.5t-66 16.5
q-46 0 -66 -17t-19 -44h-97q-2 39 18.5 71t62.5 51t101 19q57 0 98 -19z" />
    <glyph glyph-name="uni0218" unicode="&#x218;" horiz-adv-x="680" 
d="M163 14q-73 33 -113.5 89.5t-44.5 125.5h146q10 -55 53.5 -89t116.5 -36q77 -2 122.5 23.5t47.5 68.5q1 39 -38.5 60.5t-130.5 28.5q-140 14 -211.5 66t-70.5 142q2 59 40 105t102.5 71.5t142.5 25.5q89 0 158 -31t110 -85t51 -122l-147 1q-11 49 -55.5 80.5t-115.5 31.5
q-42 0 -73.5 -11.5t-48 -31.5t-16.5 -43q1 -33 28.5 -51.5t90.5 -25.5l21 -2q168 -15 241.5 -67.5t74.5 -139.5q0 -60 -36.5 -109.5t-108 -78.5t-168.5 -29q-95 0 -168 33z" />
    <glyph glyph-name="uni0219" unicode="&#x219;" horiz-adv-x="640" 
d="M161 8q-67 27 -102.5 72t-38.5 98h143q6 -37 42.5 -62.5t105.5 -26.5q46 0 77.5 10t46.5 26t15 33q-1 17 -12.5 28t-41 18t-85.5 11q-125 10 -189 53t-65 113q0 45 31 81.5t88.5 58t136.5 21.5q81 0 141 -23.5t95 -66t43 -96.5h-145q-8 36 -42 56t-93 20q-38 0 -62 -8.5
t-35 -22.5t-10 -29q3 -25 29 -39t85 -18q105 -7 166.5 -27.5t87 -52.5t27.5 -78q1 -46 -30 -86t-94.5 -65t-155.5 -25t-159 27z" />
    <glyph glyph-name="uni021A" unicode="&#x21a;" horiz-adv-x="599" 
d="M228 574h-237v121h623v-121h-237v-574h-149v574z" />
    <glyph glyph-name="uni021B" unicode="&#x21b;" horiz-adv-x="500" 
d="M174 408h-170v115h170v175h151v-175h177v-115h-177v-408h-151v408z" />
    <glyph glyph-name="uni021E" unicode="&#x21e;" horiz-adv-x="696" 
d="M498 287h-300v-287h-149v695h149v-290h301v290h148v-695h-149v287zM131 900h130l80 -92l88 92h143l-170 -180h-108z" />
    <glyph glyph-name="uni021F" unicode="&#x21f;" horiz-adv-x="672" 
d="M475 303q0 55 -28 88t-81 33q-47 0 -85.5 -24t-61.5 -68t-24 -103l-48 17q2 87 39 154.5t99 104.5t134 37q99 0 152 -60.5t53 -176.5v-305h-149v303zM46 746h149v-746h-149v746zM179 829h130l80 -92l88 92h143l-170 -180h-108z" />
    <glyph glyph-name="uni0226" unicode="&#x226;" horiz-adv-x="708" 
d="M256 695h199l237 -695h-156l-48 143h-265l-45 -143h-163zM451 257l-99 286l-96 -286h195zM286 762q-27 25 -27 61q0 35 26.5 60t66.5 25q42 0 69.5 -25t27.5 -61q0 -35 -27 -60t-67 -25q-42 0 -69 25z" />
    <glyph glyph-name="uni0227" unicode="&#x227;" 
d="M156 18q-57 37 -89.5 101.5t-32.5 143.5q0 77 35.5 141t95 101t129.5 37q71 0 127 -37t87 -101t30 -141q0 -77 -34 -141.5t-92.5 -102.5t-129.5 -38q-69 0 -126 37zM406.5 113.5q37.5 22.5 60 61.5t22.5 87q0 49 -19.5 88t-54 61.5t-77.5 22.5q-44 0 -81.5 -22.5t-59 -62
t-21.5 -88.5t19 -87.5t53.5 -60.5t77.5 -22t80.5 22.5zM489 523h148v-523h-147zM273 626q-27 25 -27 61q0 35 26.5 60t66.5 25q42 0 69.5 -25t27.5 -61q0 -35 -27 -60t-67 -25q-42 0 -69 25z" />
    <glyph glyph-name="uni0228" unicode="&#x228;" horiz-adv-x="584" 
d="M94 -173q92 -9 141.5 -8.5t74.5 12.5t21 36q-4 21 -35 24.5t-77 1.5l-20 -2l48 145l83 4l-17 -101q57 6 96.5 -9t49.5 -60q14 -60 -26.5 -96t-132.5 -47t-214 11zM49 695h482l-1 -120h-333v-170h292v-122h-292v-160h345v-123h-494z" />
    <glyph glyph-name="uni0229" unicode="&#x229;" horiz-adv-x="656" 
d="M136 -163q91 -10 140.5 -9.5t74.5 12.5t21 36q-4 21 -35 24.5t-77 1.5l-20 -2l48 145l83 4l-16 -101q56 6 95.5 -9t50.5 -59q13 -61 -27.5 -97t-132.5 -47t-214 11zM170 17q-69 36 -106.5 100t-35.5 145q1 76 40 140t108 102t155 38q94 0 161 -39.5t101 -104t33 -137.5
q-2 -34 -6 -45h-447q4 -55 48.5 -87t113.5 -32q47 0 86 18t63 45l108 -65q-41 -51 -111 -82.5t-151 -31.5q-91 0 -160 36zM482 305q-1 32 -19 60t-50.5 45.5t-76.5 17.5q-61 0 -104 -33.5t-57 -89.5h307z" />
    <glyph glyph-name="uni022A" unicode="&#x22a;" horiz-adv-x="773" 
d="M188 27.5q-80 46.5 -121.5 126t-39.5 178.5q2 95 47 175.5t126.5 129t189.5 48.5q106 0 185.5 -46.5t121.5 -126.5t40 -180q-2 -97 -49 -177.5t-129 -127t-184 -46.5q-107 0 -187 46.5zM486 141.5q47 30.5 73 81t28 109.5q1 62 -22.5 113t-69.5 80.5t-110 29.5
q-60 0 -107 -31t-73 -82.5t-28 -109.5q-2 -64 21.5 -114t69.5 -78.5t108 -28.5q63 0 110 30.5zM449 746.5q-27 24.5 -26 59.5q-1 36 25.5 60t68.5 24q41 0 68.5 -24t28.5 -60q-1 -35 -27.5 -59.5t-68.5 -24.5t-69 24.5zM186 746.5q-27 24.5 -27 59.5q0 36 26 60t67 24
q42 0 69.5 -24t27.5 -60q0 -35 -27 -59.5t-67 -24.5q-42 0 -69 24.5zM179 1014h415v-98h-415v98z" />
    <glyph glyph-name="uni022B" unicode="&#x22b;" horiz-adv-x="677" 
d="M182 18.5q-70 37.5 -109.5 102t-40.5 141.5q1 78 41.5 142t111 101t157.5 37q90 0 160 -37t108.5 -101t38.5 -142q-1 -77 -41 -141.5t-110.5 -102t-158.5 -37.5q-87 0 -157 37.5zM422 121.5q38 21.5 59.5 58.5t22.5 82q1 46 -19 83t-56.5 58.5t-84.5 21.5t-86 -21.5
t-60 -59t-23 -82.5t19 -82t57.5 -58.5t84.5 -21.5q48 0 86 21.5zM402 616.5q-27 24.5 -27 60.5t26.5 60.5t67.5 24.5q42 0 69.5 -24.5t27.5 -60.5t-26.5 -60.5t-68.5 -24.5t-69 24.5zM139 616.5q-27 24.5 -27 60.5t26 60.5t66 24.5q43 0 70.5 -24.5t27.5 -60.5t-27 -60.5
t-68 -24.5t-68 24.5zM132 938h415v-120h-415v120z" />
    <glyph glyph-name="uni022C" unicode="&#x22c;" horiz-adv-x="773" 
d="M188 27.5q-80 46.5 -121.5 126t-39.5 179.5q2 94 47 175t126.5 129.5t189.5 48.5q106 0 185.5 -46.5t121.5 -127t40 -179.5q-2 -98 -49 -178.5t-129 -127t-184 -46.5q-107 0 -187 46.5zM486 142q47 30 73 80.5t28 110.5q1 62 -22.5 112.5t-69.5 80.5t-110 30
q-60 0 -107 -31.5t-73 -82.5t-28 -109q-2 -65 21.5 -115t69.5 -78t108 -29q63 1 110 31zM162 710q-10 56 2.5 98t44.5 64.5t77 22.5q33 0 56.5 -10.5t50.5 -30.5q17 -12 30 -19t27 -7q33 0 46.5 17t8.5 47h107q10 -57 -6.5 -98t-52 -62.5t-80.5 -21.5q-32 0 -54.5 10.5
t-47.5 30.5q-19 14 -31.5 21t-26.5 6q-27 1 -37.5 -17t-5.5 -51h-108zM182 1014h415v-102h-415v102z" />
    <glyph glyph-name="uni022D" unicode="&#x22d;" horiz-adv-x="677" 
d="M182 18.5q-70 37.5 -109.5 102t-40.5 141.5q1 78 41.5 142t111 101t157.5 37q90 0 160 -37t108.5 -101t38.5 -142q-1 -77 -41 -141.5t-110.5 -102t-158.5 -37.5q-87 0 -157 37.5zM422 121.5q38 21.5 59.5 58.5t22.5 82q1 46 -19 83t-56.5 58.5t-84.5 21.5t-86 -21.5
t-60 -59t-23 -82.5t19 -82t57.5 -58.5t84.5 -21.5q48 0 86 21.5zM126 583q-9 57 3.5 99.5t44.5 65.5t77 23q33 0 56.5 -10.5t50.5 -30.5q17 -13 30 -20t27 -7q33 0 46.5 17.5t8.5 47.5h107q10 -58 -6.5 -99.5t-52 -63.5t-80.5 -22q-32 0 -54.5 11t-47.5 31q-19 14 -31.5 21
t-26.5 7q-27 0 -37.5 -18t-5.5 -52h-109zM144 947h415v-120h-415v120z" />
    <glyph glyph-name="uni022E" unicode="&#x22e;" horiz-adv-x="773" 
d="M188 28q-80 47 -121.5 127.5t-39.5 181.5q2 96 47 178t126.5 131t189.5 49q106 0 185.5 -47t121.5 -128.5t40 -182.5q-2 -99 -49 -180.5t-129 -128.5t-184 -47q-107 0 -187 47zM486 143.5q47 30.5 73 82t28 111.5q1 63 -22.5 114.5t-69.5 81.5t-110 30q-60 0 -107 -31.5
t-73 -83.5t-28 -111q-2 -65 21.5 -116t69.5 -79.5t108 -28.5q63 0 110 30.5zM319 762q-27 25 -27 61q0 35 26.5 60t66.5 25q42 0 69.5 -25t27.5 -61q0 -35 -27 -60t-67 -25q-42 0 -69 25z" />
    <glyph glyph-name="uni022F" unicode="&#x22f;" horiz-adv-x="677" 
d="M182 18.5q-70 37.5 -109.5 102t-40.5 141.5q1 78 41.5 142t111 101t157.5 37q90 0 160 -37t108.5 -101t38.5 -142q-1 -77 -41 -141.5t-110.5 -102t-158.5 -37.5q-87 0 -157 37.5zM422 121.5q38 21.5 59.5 58.5t22.5 82q1 46 -19 83t-56.5 58.5t-84.5 21.5t-86 -21.5
t-60 -59t-23 -82.5t19 -82t57.5 -58.5t84.5 -21.5q48 0 86 21.5zM270 626q-27 25 -27 61q0 35 26.5 60t66.5 25q42 0 69.5 -25t27.5 -61q0 -35 -27 -60t-67 -25q-42 0 -69 25z" />
    <glyph glyph-name="uni0230" unicode="&#x230;" horiz-adv-x="773" 
d="M188 27.5q-80 46.5 -121.5 126t-39.5 178.5q2 95 47 176t126.5 129t189.5 48q106 0 185.5 -46t121.5 -126.5t40 -180.5q-2 -97 -49 -177.5t-129 -127t-184 -46.5q-107 0 -187 46.5zM486 141.5q47 30.5 73 81t28 109.5q1 62 -22.5 113t-69.5 80.5t-110 29.5
q-60 0 -107 -31t-73 -82t-28 -110q-2 -64 21.5 -114t69.5 -78.5t108 -28.5q63 0 110 30.5zM318 751.5q-27 24.5 -26 59.5q-1 35 25.5 60t67.5 25t68.5 -25t27.5 -60t-27 -59.5t-67 -24.5q-42 0 -69 24.5zM178 1030h415v-106h-415v106z" />
    <glyph glyph-name="uni0231" unicode="&#x231;" horiz-adv-x="677" 
d="M182 18.5q-70 37.5 -109.5 102t-40.5 141.5q1 78 41.5 142t111 101t157.5 37q90 0 160 -37t108.5 -101t38.5 -142q-1 -77 -41 -141.5t-110.5 -102t-158.5 -37.5q-87 0 -157 37.5zM422 121.5q38 21.5 59.5 58.5t22.5 82q1 46 -19 83t-56.5 58.5t-84.5 21.5t-86 -21.5
t-60 -59t-23 -82.5t19 -82t57.5 -58.5t84.5 -21.5q48 0 86 21.5zM270 626q-27 25 -27 61q0 35 26.5 60t66.5 25q42 0 69.5 -25t27.5 -61q0 -35 -27 -60t-68 -25t-68 25zM131 926h415v-105h-415v105z" />
    <glyph glyph-name="uni0232" unicode="&#x232;" horiz-adv-x="520" 
d="M179 207l-236 488h158l154 -343l173 343h162l-258 -476v-219h-153v207zM51 871h415v-120h-415v120z" />
    <glyph glyph-name="uni0233" unicode="&#x233;" 
d="M108 41.5q-53 60.5 -53 176.5v305h149v-302q0 -55 28 -88.5t81 -33.5q47 0 85.5 24t61.5 68.5t24 103.5l48 -18q-2 -87 -39.5 -154.5t-99 -104.5t-133.5 -37q-99 0 -152 60.5zM484 523h148v-746h-148v746zM134 735h415v-120h-415v120z" />
    <glyph glyph-name="uni0237" unicode="&#x237;" horiz-adv-x="275" 
d="M-107 -106h19q69 0 108.5 35.5t39.5 100.5v493h148v-487q0 -78 -31 -136.5t-87.5 -90.5t-130.5 -32h-66v117z" />
    <glyph glyph-name="uni0251" unicode="&#x251;" 
d="M156 18q-57 37 -89.5 101.5t-32.5 143.5q0 77 35.5 141t95 101t129.5 37q71 0 127 -37t87 -101t30 -141q0 -77 -34 -141.5t-92.5 -102.5t-129.5 -38q-69 0 -126 37zM406.5 113.5q37.5 22.5 60 61.5t22.5 87q0 49 -19.5 88t-54 61.5t-77.5 22.5q-44 0 -81.5 -22.5t-59 -62
t-21.5 -88.5t19 -87.5t53.5 -60.5t77.5 -22t80.5 22.5zM489 523h148v-523h-147z" />
    <glyph glyph-name="circumflex" unicode="&#x2c6;" horiz-adv-x="472" 
d="M205 732h109l163 -180h-130l-81 92l-87 -92h-143z" />
    <glyph glyph-name="caron" unicode="&#x2c7;" horiz-adv-x="472" 
d="M7 728h130l80 -92l88 92h143l-170 -180h-108z" />
    <glyph glyph-name="uni02C9" unicode="&#x2c9;" horiz-adv-x="590" 
d="M89 699h415v-120h-415v120z" />
    <glyph glyph-name="breve" unicode="&#x2d8;" horiz-adv-x="400" 
d="M104 575q-41 19 -62 51t-21 71h97q-1 -28 18 -44.5t66 -16.5q46 0 66 17t19 44h98q1 -39 -19.5 -71t-62.5 -51t-101 -19q-57 0 -98 19z" />
    <glyph glyph-name="dotaccent" unicode="&#x2d9;" horiz-adv-x="320" 
d="M95 590q-27 25 -27 61q0 35 26.5 60t66.5 25q42 0 69.5 -25t27.5 -61q0 -35 -27 -60t-67 -25q-42 0 -69 25z" />
    <glyph glyph-name="ring" unicode="&#x2da;" horiz-adv-x="350" 
d="M97 567q-36 19 -56.5 51t-20.5 71q0 38 20 71t55.5 52t80.5 19q47 0 83.5 -17.5t56.5 -48.5t20 -70t-19.5 -73t-56 -54t-83.5 -20q-44 0 -80 19zM222 645.5q16 17.5 15 43.5q2 27 -13.5 45t-44.5 18q-30 0 -45.5 -18t-16.5 -45q-1 -26 15 -43.5t45 -17.5t45 17.5z" />
    <glyph glyph-name="ogonek" unicode="&#x2db;" horiz-adv-x="396" 
d="M451 -275q-149 -30 -230 -15.5t-102 67.5q-15 36 1.5 77.5t69.5 88.5t143 97q33 6 46 -6.5t10 -33.5q-78 -41 -122.5 -85t-25.5 -78q14 -21 57.5 -23t97.5 11z" />
    <glyph glyph-name="tilde" unicode="&#x2dc;" horiz-adv-x="512" 
d="M39 547q-9 57 3.5 99.5t44.5 65.5t77 23q33 0 56.5 -10.5t50.5 -30.5q17 -13 30 -20t27 -7q33 0 46.5 17.5t8.5 47.5h107q10 -58 -6.5 -99.5t-52 -63.5t-80.5 -22q-32 0 -54.5 11t-47.5 31q-19 14 -31.5 21t-26.5 7q-27 0 -37.5 -18t-5.5 -52h-109z" />
    <glyph glyph-name="hungarumlaut" unicode="&#x2dd;" horiz-adv-x="696" 
d="M258 617l211 145l61 -115l-238 -102zM234 762l61 -115l-238 -102l-34 72z" />
    <glyph glyph-name="gravecomb" unicode="&#x300;" horiz-adv-x="0" 
d="M-325 674l69 111l232 -180l-38 -63z" />
    <glyph glyph-name="acutecomb" unicode="&#x301;" horiz-adv-x="0" 
d="M-313 608l233 145l67 -115l-259 -102z" />
    <glyph glyph-name="uni0302" unicode="&#x302;" horiz-adv-x="0" 
d="M-190 732h109l163 -180h-130l-81 92l-87 -92h-143z" />
    <glyph glyph-name="tildecomb" unicode="&#x303;" horiz-adv-x="0" 
d="M-473 547q-9 57 3.5 99.5t44.5 65.5t77 23q33 0 56.5 -10.5t50.5 -30.5q17 -13 30 -20t27 -7q33 0 46.5 17.5t8.5 47.5h107q10 -58 -6.5 -99.5t-52 -63.5t-80.5 -22q-32 0 -54.5 11t-47.5 31q-19 14 -31.5 21t-26.5 7q-27 0 -37.5 -18t-5.5 -52h-109z" />
    <glyph glyph-name="uni0304" unicode="&#x304;" horiz-adv-x="0" 
d="M-503 699h415v-120h-415v120z" />
    <glyph glyph-name="uni0305" unicode="&#x305;" horiz-adv-x="0" 
d="M-503 699h415v-120h-415v120z" />
    <glyph glyph-name="uni0306" unicode="&#x306;" horiz-adv-x="0" 
d="M-299 575q-41 19 -62 51t-21 71h97q-1 -28 18 -44.5t66 -16.5q46 0 66 17t19 44h98q1 -39 -19.5 -71t-62.5 -51t-101 -19q-57 0 -98 19z" />
    <glyph glyph-name="uni0307" unicode="&#x307;" horiz-adv-x="0" 
d="M-223 590q-27 25 -27 61q0 35 26.5 60t66.5 25q42 0 69.5 -25t27.5 -61q0 -35 -27 -60t-67 -25q-42 0 -69 25z" />
    <glyph glyph-name="uni0308" unicode="&#x308;" horiz-adv-x="0" 
d="M-229 580.5q-27 24.5 -27 60.5t26.5 60.5t67.5 24.5q42 0 69.5 -24.5t27.5 -60.5t-26.5 -60.5t-68.5 -24.5t-69 24.5zM-492 580.5q-27 24.5 -27 60.5t26 60.5t66 24.5q43 0 70.5 -24.5t27.5 -60.5t-27 -60.5t-68 -24.5t-68 24.5z" />
    <glyph glyph-name="hookabovecomb" unicode="&#x309;" horiz-adv-x="0" 
d="M-239 476l-19 105q6 0 11.5 -0.5t11.5 -0.5q46 -2 75.5 5t36.5 27q7 23 -14 36t-70.5 11.5t-126.5 -19.5l-8 86q105 22 185 17t119.5 -37.5t27.5 -88.5q-11 -45 -50 -65.5t-92 -17.5l-4 -63z" />
    <glyph glyph-name="uni030A" unicode="&#x30a;" horiz-adv-x="0" 
d="M-263 567q-36 19 -56.5 51t-20.5 71q0 38 20 71t55.5 52t80.5 19q47 0 83.5 -17.5t56.5 -48.5t20 -70t-19.5 -73t-56 -54t-83.5 -20q-44 0 -80 19zM-138 645.5q16 17.5 15 43.5q2 27 -13.5 45t-44.5 18q-30 0 -45.5 -18t-16.5 -45q-1 -26 15 -43.5t45 -17.5t45 17.5z" />
    <glyph glyph-name="uni030B" unicode="&#x30b;" horiz-adv-x="0" 
d="M-438 617l211 145l61 -115l-238 -102zM-462 762l61 -115l-238 -102l-34 72z" />
    <glyph glyph-name="uni030C" unicode="&#x30c;" horiz-adv-x="0" 
d="M-388 728h130l80 -92l88 92h143l-170 -180h-108z" />
    <glyph glyph-name="uni030D" unicode="&#x30d;" horiz-adv-x="0" 
d="M-247 729h138l-16 -191h-105z" />
    <glyph glyph-name="uni030E" unicode="&#x30e;" horiz-adv-x="0" 
d="M-247 729h138l-16 -191h-105z" />
    <glyph glyph-name="uni030F" unicode="&#x30f;" horiz-adv-x="0" 
d="M-650 647l61 115l211 -145l-34 -72zM-354 762l211 -145l-34 -72l-238 102z" />
    <glyph glyph-name="uni0310" unicode="&#x310;" horiz-adv-x="0" 
d="M-299 567q-41 19 -62 51t-21 71h97q-1 -28 18 -44.5t66 -16.5q46 0 66 17t19 44h98q1 -39 -19.5 -71t-62.5 -51t-101 -19q-57 0 -98 19zM-271 696q-27 25 -27 61q0 35 26.5 60t66.5 25q42 0 69.5 -25t27.5 -61q0 -35 -27 -60t-67 -25q-42 0 -69 25z" />
    <glyph glyph-name="uni0311" unicode="&#x311;" horiz-adv-x="0" 
d="M-101 827q41 -19 62 -51t21 -71h-97q1 28 -18 44.5t-66 16.5q-46 0 -66 -17t-19 -44h-97q-2 39 18.5 71t62.5 51t101 19q57 0 98 -19z" />
    <glyph glyph-name="uni0312" unicode="&#x312;" horiz-adv-x="0" 
d="M-160 746h151l-1 -208h-90z" />
    <glyph glyph-name="uni0313" unicode="&#x313;" horiz-adv-x="0" 
d="M-98 746h151l-60 -208h-90z" />
    <glyph glyph-name="uni0314" unicode="&#x314;" horiz-adv-x="0" 
d="M-160 746h151l-1 -208h-90z" />
    <glyph glyph-name="uni0315" unicode="&#x315;" horiz-adv-x="0" 
d="M-98 746h151l-60 -208h-90z" />
    <glyph glyph-name="uni0316" unicode="&#x316;" horiz-adv-x="0" 
d="M-160 -32h151l-1 -191h-90z" />
    <glyph glyph-name="uni0317" unicode="&#x317;" horiz-adv-x="0" 
d="M-98 -34h151l-60 -191h-90z" />
    <glyph glyph-name="uni031B" unicode="&#x31b;" horiz-adv-x="0" 
d="M41 597q67 0 83.5 33.5t15.5 89.5h132q1 -74 -25 -116.5t-79 -65.5t-127 -23v82z" />
    <glyph glyph-name="dotbelowcomb" unicode="&#x323;" horiz-adv-x="0" 
d="M110.5 -241q-20.5 10 -32.5 27.5t-12 38.5q0 20 12 37.5t32.5 28t45.5 10.5t46 -10.5t33.5 -28t12.5 -37.5q0 -21 -12.5 -38t-33.5 -27.5t-46 -10.5t-45.5 10z" />
    <glyph glyph-name="uni0326" unicode="&#x326;" horiz-adv-x="0" 
d="M26 -267l20 227h160l-89 -238z" />
    <glyph glyph-name="uni0327" unicode="&#x327;" horiz-adv-x="0" 
d="M47 -173q92 -9 141.5 -8.5t74.5 12.5t21 36q-4 21 -35 24.5t-77 1.5l-20 -2l48 145l83 4l-17 -101q57 6 96.5 -9t49.5 -60q14 -60 -26.5 -96t-132.5 -47t-214 11z" />
    <glyph glyph-name="uni0328" unicode="&#x328;" horiz-adv-x="0" 
d="M451 -275q-149 -30 -230 -15.5t-102 67.5q-15 36 1.5 77.5t69.5 88.5t143 97q33 6 46 -6.5t10 -33.5q-78 -41 -122.5 -85t-25.5 -78q14 -21 57.5 -23t97.5 11z" />
    <glyph glyph-name="uni0341" unicode="&#x341;" horiz-adv-x="0" 
d="M-313 608l233 145l67 -115l-259 -102z" />
    <glyph glyph-name="uni0342" unicode="&#x342;" horiz-adv-x="0" 
d="M-473 547q-9 57 3.5 99.5t44.5 65.5t77 23q33 0 56.5 -10.5t50.5 -30.5q17 -13 30 -20t27 -7q33 0 46.5 17.5t8.5 47.5h107q10 -58 -6.5 -99.5t-52 -63.5t-80.5 -22q-32 0 -54.5 11t-47.5 31q-19 14 -31.5 21t-26.5 7q-27 0 -37.5 -18t-5.5 -52h-109z" />
    <glyph glyph-name="uni035D" unicode="&#x35d;" horiz-adv-x="0" 
d="M-299 575q-41 19 -62 51t-21 71h97q-1 -28 18 -44.5t66 -16.5q46 0 66 17t19 44h98q1 -39 -19.5 -71t-62.5 -51t-101 -19q-57 0 -98 19z" />
    <glyph glyph-name="uni0360" unicode="&#x360;" horiz-adv-x="0" 
d="M-473 547q-9 57 3.5 99.5t44.5 65.5t77 23q33 0 56.5 -10.5t50.5 -30.5q17 -13 30 -20t27 -7q33 0 46.5 17.5t8.5 47.5h107q10 -58 -6.5 -99.5t-52 -63.5t-80.5 -22q-32 0 -54.5 11t-47.5 31q-19 14 -31.5 21t-26.5 7q-27 0 -37.5 -18t-5.5 -52h-109z" />
    <glyph glyph-name="uni0361" unicode="&#x361;" horiz-adv-x="0" 
d="M-101 679q41 -19 62 -51t21 -71l-97 -1q1 29 -18 45.5t-66 15.5q-46 1 -66 -16t-19 -44l-97 -1q-2 40 18.5 72t62.5 51t101 18q57 1 98 -18z" />
    <glyph glyph-name="uni03BC" unicode="&#x3bc;" 
d="M108 41.5q-53 60.5 -53 176.5v305h149v-302q0 -55 28 -88.5t81 -33.5q47 0 85.5 24t61.5 68.5t24 103.5l48 -18q-2 -87 -39.5 -154.5t-99 -104.5t-133.5 -37q-99 0 -152 60.5zM55 460l41 -22l76 -661h-117v683zM484 523h148v-523h-148v523z" />
    <glyph glyph-name="uni0455" unicode="&#x455;" horiz-adv-x="640" 
d="M161 8q-67 27 -102.5 72t-38.5 98h143q6 -37 42.5 -62.5t105.5 -26.5q46 0 77.5 10t46.5 26t15 33q-1 17 -12.5 28t-41 18t-85.5 11q-125 10 -189 53t-65 113q0 45 31 81.5t88.5 58t136.5 21.5q81 0 141 -23.5t95 -66t43 -96.5h-145q-8 36 -42 56t-93 20q-38 0 -62 -8.5
t-35 -22.5t-10 -29q3 -25 29 -39t85 -18q105 -7 166.5 -27.5t87 -52.5t27.5 -78q1 -46 -30 -86t-94.5 -65t-155.5 -25t-159 27z" />
    <glyph glyph-name="uni1E02" unicode="&#x1e02;" horiz-adv-x="630" 
d="M91 385h224q131 0 204 -42.5t81 -130.5q6 -55 -23 -104t-89.5 -78.5t-142.5 -29.5h-266zM51 695h150v-695h-150v695zM316 119q63 0 98 23t39 69q2 39 -26.5 63.5t-87.5 24.5h-197l-4 -180h178zM312 401q55 0 86 22.5t33 64.5q4 44 -25.5 68.5t-84.5 24.5h-183l6 -180h168
zM101 695h247q120 0 173.5 -55.5t50.5 -139.5q-4 -84 -90 -127.5t-221 -43.5h-177zM247 762q-27 25 -27 61q0 35 26.5 60t66.5 25q42 0 69.5 -25t27.5 -61q0 -35 -27 -60t-67 -25q-42 0 -69 25z" />
    <glyph glyph-name="uni1E0A" unicode="&#x1e0a;" horiz-adv-x="670" 
d="M113 695h210q94 0 165.5 -48t109.5 -127.5t38 -172.5q0 -88 -38 -168t-110 -129.5t-168 -49.5h-240zM56 695h151v-695h-151v695zM310 122q53 0 95.5 31.5t65 86.5t20.5 119q-3 102 -51.5 159t-130.5 57h-159l10 -453h150zM267 762q-27 25 -27 61q0 35 26.5 60t66.5 25
q42 0 69.5 -25t27.5 -61q0 -35 -27 -60t-67 -25q-42 0 -69 25z" />
    <glyph glyph-name="uni1E1E" unicode="&#x1e1e;" horiz-adv-x="527" 
d="M44 695h476v-127h-326v-214h294l-1 -126h-293v-228h-150v695zM196 762q-27 25 -27 61q0 35 26.5 60t66.5 25q42 0 69.5 -25t27.5 -61q0 -35 -27 -60t-67 -25q-42 0 -69 25z" />
    <glyph glyph-name="uni1E20" unicode="&#x1e20;" horiz-adv-x="750" 
d="M189 28.5q-80 47.5 -122 130t-40 182.5q2 94 47 175t127 130t189 49q93 0 161.5 -40.5t107.5 -101.5t48 -123h-145q-7 32 -28.5 62.5t-60 50.5t-89.5 20q-60 0 -107 -29.5t-72.5 -80t-28.5 -112.5q-2 -66 22.5 -118t70.5 -81t106 -29q52 0 95 22.5t71 63t34 93.5l145 -3
q-7 -80 -51 -150.5t-120 -114t-174 -43.5q-106 0 -186 47.5zM367 358h353v-69l-72 -33h-281v102zM166 871h415v-120h-415v120z" />
    <glyph glyph-name="uni1E21" unicode="&#x1e21;" horiz-adv-x="672" 
d="M201.5 -246.5q-67.5 38.5 -108.5 111.5l120 54q26 -38 60.5 -59.5t72.5 -21.5q63 1 97 44t35 115v526h147v-511q-1 -89 -33 -156t-93 -104t-146 -37q-84 0 -151.5 38.5zM151 19q-55 38 -86 103t-29 141q2 77 38 141t94.5 101t125.5 37q68 0 122.5 -37t84.5 -101t28 -141
t-37 -141.5t-93 -102.5t-125 -38q-68 0 -123 38zM398.5 113q35.5 22 57.5 61.5t23 87.5t-18 87.5t-52.5 62t-74.5 22.5t-76.5 -23t-57.5 -62.5t-23 -87.5t17.5 -86.5t52.5 -61t75 -22.5t76.5 22zM129 695h415v-111h-415v111z" />
    <glyph glyph-name="uni1E22" unicode="&#x1e22;" horiz-adv-x="696" 
d="M498 287h-300v-287h-149v695h149v-290h301v290h148v-695h-149v287zM280 762q-27 25 -27 61q0 35 26.5 60t66.5 25q42 0 69.5 -25t27.5 -61q0 -35 -27 -60t-67 -25q-42 0 -69 25z" />
    <glyph glyph-name="uni1E26" unicode="&#x1e26;" horiz-adv-x="696" 
d="M498 287h-300v-287h-149v695h149v-290h301v290h148v-695h-149v287zM411 757.5q-27 24.5 -27 60.5t26.5 60.5t67.5 24.5q42 0 69.5 -24.5t27.5 -60.5t-26.5 -60.5t-68.5 -24.5t-69 24.5zM148 757.5q-27 24.5 -27 60.5t26 60.5t66 24.5q43 0 70.5 -24.5t27.5 -60.5
t-27 -60.5t-68 -24.5t-68 24.5z" />
    <glyph glyph-name="uni1E30" unicode="&#x1e30;" horiz-adv-x="665" 
d="M203 336v-336h-149v695h149v-313l309 313h193l-337 -332l359 -363h-199zM197 792l233 145l67 -115l-259 -102z" />
    <glyph glyph-name="uni1E31" unicode="&#x1e31;" horiz-adv-x="639" 
d="M201 242v-242h-150v746h150v-464l265 241h206l-302 -257l308 -266h-205zM311 644l233 145l67 -115l-259 -102z" />
    <glyph glyph-name="uni1E3E" unicode="&#x1e3e;" horiz-adv-x="880" 
d="M197 492v-492h-141v695h192l190 -462l208 462h189v-695h-142v492l-205 -492h-108zM305 792l233 145l67 -115l-259 -102z" />
    <glyph glyph-name="uni1E3F" unicode="&#x1e3f;" horiz-adv-x="1017" 
d="M816 296q0 63 -22.5 95.5t-71.5 32.5q-62 0 -99 -48t-39 -135l-48 18q2 86 33.5 150t84.5 98.5t118 34.5q94 0 143.5 -59.5t49.5 -169.5v-313h-149v296zM55 523h148v-523h-148v523zM436 296q0 60 -22 94t-70 34q-62 0 -100.5 -48.5t-40.5 -134.5l-49 18q2 86 34 150
t85 98.5t119 34.5q94 0 143 -63t49 -179v-300h-148v296zM394 644l233 145l67 -115l-259 -102z" />
    <glyph glyph-name="uni1E44" unicode="&#x1e44;" horiz-adv-x="737" 
d="M201 473v-473h-145v695h145l337 -483v483h143v-695h-150zM300 762q-27 25 -27 61q0 35 26.5 60t66.5 25q42 0 69.5 -25t27.5 -61q0 -35 -27 -60t-67 -25q-42 0 -69 25z" />
    <glyph glyph-name="uni1E54" unicode="&#x1e54;" horiz-adv-x="615" 
d="M101 695h203q96 0 162.5 -33.5t100 -90.5t34.5 -126q2 -79 -36 -139.5t-110 -94.5t-171 -35h-194zM51 695h149v-695h-149v695zM301 298q72 0 113.5 39.5t37.5 108.5q-2 61 -44.5 95t-107.5 34l-166 -1l3 -276h164zM173 792l233 145l67 -115l-259 -102z" />
    <glyph glyph-name="uni1E55" unicode="&#x1e55;" horiz-adv-x="688" 
d="M264 18q-56 37 -87 101t-31 142q1 77 35 141t92.5 102t129.5 38q70 0 126 -37t88.5 -101t32.5 -143q0 -77 -35 -141.5t-94.5 -101.5t-129.5 -37q-71 0 -127 37zM47 523h148l1 -746h-148zM428 112q37 22 59 61.5t22 88.5t-19.5 87.5t-54 60.5t-76.5 22q-43 0 -80.5 -22
t-60.5 -61.5t-23 -86.5q0 -49 20 -88.5t54.5 -61.5t77.5 -22q44 0 81 22zM228 644l233 145l67 -115l-259 -102z" />
    <glyph glyph-name="uni1E56" unicode="&#x1e56;" horiz-adv-x="615" 
d="M101 695h203q96 0 162.5 -33.5t100 -90.5t34.5 -126q2 -79 -36 -139.5t-110 -94.5t-171 -35h-194zM51 695h149v-695h-149v695zM301 298q72 0 113.5 39.5t37.5 108.5q-2 61 -44.5 95t-107.5 34l-166 -1l3 -276h164zM240 762q-27 25 -27 61q0 35 26.5 60t66.5 25
q42 0 69.5 -25t27.5 -61q0 -35 -27 -60t-67 -25q-42 0 -69 25z" />
    <glyph glyph-name="uni1E58" unicode="&#x1e58;" horiz-adv-x="609" 
d="M150 323l-3 372h154q84 1 146.5 -30t95 -83t33.5 -115q-1 -85 -53 -141.5t-147 -70.5l247 -255h-182zM54 695h150v-695h-150v695zM291 346q63 0 99 31.5t34 86.5q-3 54 -38 80t-94 26h-113l1 -224h111zM237 762q-27 25 -27 61q0 35 26.5 60t66.5 25q42 0 69.5 -25
t27.5 -61q0 -35 -27 -60t-67 -25q-42 0 -69 25z" />
    <glyph glyph-name="uni1E60" unicode="&#x1e60;" horiz-adv-x="680" 
d="M163 14q-73 33 -113.5 89.5t-44.5 125.5h146q10 -55 53.5 -89t116.5 -36q77 -2 122.5 23.5t47.5 68.5q1 39 -38.5 60.5t-130.5 28.5q-140 14 -211.5 66t-70.5 142q2 59 40 105t102.5 71.5t142.5 25.5q89 0 158 -31t110 -85t51 -122l-147 1q-11 49 -55.5 80.5t-115.5 31.5
q-42 0 -73.5 -11.5t-48 -31.5t-16.5 -43q1 -33 28.5 -51.5t90.5 -25.5l21 -2q168 -15 241.5 -67.5t74.5 -139.5q0 -60 -36.5 -109.5t-108 -78.5t-168.5 -29q-95 0 -168 33zM272 762q-27 25 -27 61q0 35 26.5 60t66.5 25q42 0 69.5 -25t27.5 -61q0 -35 -27 -60t-67 -25
q-42 0 -69 25z" />
    <glyph glyph-name="uni1E66" unicode="&#x1e66;" horiz-adv-x="680" 
d="M163 14q-73 33 -113.5 89.5t-44.5 125.5h146q10 -55 53.5 -89t116.5 -36q77 -2 122.5 23.5t47.5 68.5q1 39 -38.5 60.5t-130.5 28.5q-140 14 -211.5 66t-70.5 142q2 59 40 105t102.5 71.5t142.5 25.5q89 0 158 -31t110 -85t51 -122l-147 1q-11 49 -55.5 80.5t-115.5 31.5
q-42 0 -73.5 -11.5t-48 -31.5t-16.5 -43q1 -33 28.5 -51.5t90.5 -25.5l21 -2q168 -15 241.5 -67.5t74.5 -139.5q0 -60 -36.5 -109.5t-108 -78.5t-168.5 -29q-95 0 -168 33zM124 900h130l80 -92l88 92h143l-170 -180h-108zM270 918q-27 25 -27 61q0 35 26.5 60t66.5 25
q42 0 69.5 -25t27.5 -61q0 -35 -27 -60t-67 -25q-42 0 -69 25z" />
    <glyph glyph-name="uni1E6A" unicode="&#x1e6a;" horiz-adv-x="599" 
d="M228 574h-237v121h623v-121h-237v-574h-149v574zM231 762q-27 25 -27 61q0 35 26.5 60t66.5 25q42 0 69.5 -25t27.5 -61q0 -35 -27 -60t-67 -25q-42 0 -69 25z" />
    <glyph glyph-name="uni1E74" unicode="&#x1e74;" horiz-adv-x="744" 
d="M130.5 65q-86.5 84 -86.5 258v372h148v-367q0 -112 47 -160.5t133 -48.5q87 0 134.5 51.5t47.5 157.5v367h152v-376q0 -107 -39.5 -182.5t-115 -115.5t-182.5 -40q-152 0 -238.5 84z" />
    <glyph glyph-name="uni1E7C" unicode="&#x1e7c;" horiz-adv-x="663" 
d="M3 695h150l163 -537l189 537h162l-251 -695h-191zM106 719q-9 57 3.5 99.5t44.5 65.5t77 23q33 0 56.5 -10.5t50.5 -30.5q17 -13 30 -20t27 -7q33 0 46.5 17.5t8.5 47.5h107q10 -58 -6.5 -99.5t-52 -63.5t-80.5 -22q-32 0 -54.5 11t-47.5 31q-19 14 -31.5 21t-26.5 7
q-27 0 -37.5 -18t-5.5 -52h-109z" />
    <glyph glyph-name="Wgrave" unicode="&#x1e80;" horiz-adv-x="913" 
d="M459 476l-123 -476h-183l-159 695h154l105 -521l129 521h147l137 -515l109 515h161l-171 -695h-171zM292 846l69 111l232 -180l-38 -63z" />
    <glyph glyph-name="wgrave" unicode="&#x1e81;" horiz-adv-x="958" 
d="M474 340l-130 -340h-162l-167 523h153l103 -364l133 364h150l128 -355l118 355h158l-194 -523h-164zM309 710l69 111l232 -180l-38 -63z" />
    <glyph glyph-name="Wacute" unicode="&#x1e82;" horiz-adv-x="913" 
d="M459 476l-123 -476h-183l-159 695h154l105 -521l129 521h147l137 -515l109 515h161l-171 -695h-171zM322 792l233 145l67 -115l-259 -102z" />
    <glyph glyph-name="wacute" unicode="&#x1e83;" horiz-adv-x="958" 
d="M474 340l-130 -340h-162l-167 523h153l103 -364l133 364h150l128 -355l118 355h158l-194 -523h-164zM364 644l233 145l67 -115l-259 -102z" />
    <glyph glyph-name="Wdieresis" unicode="&#x1e84;" horiz-adv-x="913" 
d="M459 476l-123 -476h-183l-159 695h154l105 -521l129 521h147l137 -515l109 515h161l-171 -695h-171zM520 757.5q-27 24.5 -27 60.5t26.5 60.5t67.5 24.5q42 0 69.5 -24.5t27.5 -60.5t-26.5 -60.5t-68.5 -24.5t-69 24.5zM257 757.5q-27 24.5 -27 60.5t26 60.5t66 24.5
q43 0 70.5 -24.5t27.5 -60.5t-27 -60.5t-68 -24.5t-68 24.5z" />
    <glyph glyph-name="wdieresis" unicode="&#x1e85;" horiz-adv-x="958" 
d="M474 340l-130 -340h-162l-167 523h153l103 -364l133 364h150l128 -355l118 355h158l-194 -523h-164zM543 616.5q-27 24.5 -27 60.5t26.5 60.5t67.5 24.5q42 0 69.5 -24.5t27.5 -60.5t-26.5 -60.5t-68.5 -24.5t-69 24.5zM280 616.5q-27 24.5 -27 60.5t26 60.5t66 24.5
q43 0 70.5 -24.5t27.5 -60.5t-27 -60.5t-68 -24.5t-68 24.5z" />
    <glyph glyph-name="uni1E86" unicode="&#x1e86;" horiz-adv-x="913" 
d="M459 476l-123 -476h-183l-159 695h154l105 -521l129 521h147l137 -515l109 515h161l-171 -695h-171zM389 762q-27 25 -27 61q0 35 26.5 60t66.5 25q42 0 69.5 -25t27.5 -61q0 -35 -27 -60t-67 -25q-42 0 -69 25z" />
    <glyph glyph-name="uni1E8A" unicode="&#x1e8a;" horiz-adv-x="695" 
d="M355 291l-173 -291h-181l223 358l-211 337h177l164 -266l161 266h184l-214 -332l234 -363h-179zM279 762q-27 25 -27 61q0 35 26.5 60t66.5 25q42 0 69.5 -25t27.5 -61q0 -35 -27 -60t-67 -25q-42 0 -69 25z" />
    <glyph glyph-name="uni1E8C" unicode="&#x1e8c;" horiz-adv-x="695" 
d="M355 291l-173 -291h-181l223 358l-211 337h177l164 -266l161 266h184l-214 -332l234 -363h-179zM410 757.5q-27 24.5 -27 60.5t26.5 60.5t67.5 24.5q42 0 69.5 -24.5t27.5 -60.5t-26.5 -60.5t-68.5 -24.5t-69 24.5zM147 757.5q-27 24.5 -27 60.5t26 60.5t66 24.5
q43 0 70.5 -24.5t27.5 -60.5t-27 -60.5t-68 -24.5t-68 24.5z" />
    <glyph glyph-name="uni1E8E" unicode="&#x1e8e;" horiz-adv-x="520" 
d="M179 207l-236 488h158l154 -343l173 343h162l-258 -476v-219h-153v207zM192 762q-27 25 -27 61q0 35 26.5 60t66.5 25q42 0 69.5 -25t27.5 -61q0 -35 -27 -60t-67 -25q-42 0 -69 25z" />
    <glyph glyph-name="uni1E90" unicode="&#x1e90;" horiz-adv-x="669" 
d="M413 573h-396v122h654l-431 -576h414v-119h-667zM282 904h109l163 -180h-130l-81 92l-87 -92h-143z" />
    <glyph glyph-name="uni1E9E" unicode="&#x1e9e;" horiz-adv-x="667" 
d="M49 476q1 64 34.5 118t97 87t149.5 33q96 0 162 -33t98.5 -87t29.5 -115q-1 -31 -18 -60t-45.5 -50t-61.5 -30q62 -10 96.5 -48.5t37.5 -92.5q3 -57 -23.5 -102t-79.5 -70.5t-127 -25.5h-135v116h105q56 0 87.5 23t33.5 69q2 42 -28.5 64t-84.5 22h-110v107h96
q53 0 84 23t34 63q2 43 -32.5 71.5t-101.5 28.5q-74 0 -112.5 -37t-39.5 -100v-450h-146v476z" />
    <glyph glyph-name="uni1EA2" unicode="&#x1ea2;" horiz-adv-x="708" 
d="M256 695h199l237 -695h-156l-184 543l-174 -543h-163zM193 257h337l-8 -114h-337zM314 671l-20 106q6 0 12 -0.5t11 -0.5q47 -2 76.5 4.5t35.5 27.5q7 23 -14 35.5t-70.5 11.5t-126.5 -19l-8 86q106 22 186 17t119.5 -37.5t26.5 -88.5q-10 -46 -49.5 -66.5t-92.5 -17.5
l-3 -63z" />
    <glyph glyph-name="uni1EBC" unicode="&#x1ebc;" horiz-adv-x="584" 
d="M49 695h482l-1 -120h-333v-170h292v-122h-292v-160h345v-123h-494zM81 731q-9 57 3.5 99.5t44.5 65.5t77 23q33 0 56.5 -10.5t50.5 -30.5q17 -13 30 -20t27 -7q33 0 46.5 17.5t8.5 47.5h107q10 -58 -6.5 -99.5t-52 -63.5t-80.5 -22q-32 0 -54.5 11t-47.5 31
q-19 14 -31.5 21t-26.5 7q-27 0 -37.5 -18t-5.5 -52h-109z" />
    <glyph glyph-name="uni1EBD" unicode="&#x1ebd;" horiz-adv-x="656" 
d="M170 17q-69 36 -106.5 100t-35.5 145q1 76 40 140t108 102t155 38q94 0 161 -39.5t101 -104t33 -137.5q-2 -34 -6 -45h-447q4 -55 48.5 -87t113.5 -32q47 0 86 18t63 45l108 -65q-41 -51 -111 -82.5t-151 -31.5q-91 0 -160 36zM482 305q-1 32 -19 60t-50.5 45.5
t-76.5 17.5q-61 0 -104 -33.5t-57 -89.5h307zM102 569q-9 57 3.5 99.5t44.5 65.5t77 23q33 0 56.5 -10.5t50.5 -30.5q17 -13 30 -20t27 -7q33 0 46.5 17.5t8.5 47.5h107q10 -58 -6.5 -99.5t-52 -63.5t-80.5 -22q-32 0 -54.5 11t-47.5 31q-19 14 -31.5 21t-26.5 7
q-27 0 -37.5 -18t-5.5 -52h-109z" />
    <glyph glyph-name="uni1ECE" unicode="&#x1ece;" horiz-adv-x="773" 
d="M188 28q-80 47 -121.5 127.5t-39.5 181.5q2 96 47 178t126.5 131t189.5 49q106 0 185.5 -47t121.5 -128.5t40 -182.5q-2 -99 -49 -180.5t-129 -128.5t-184 -47q-107 0 -187 47zM486 143.5q47 30.5 73 82t28 111.5q1 63 -22.5 114.5t-69.5 81.5t-110 30q-60 0 -107 -31.5
t-73 -83.5t-28 -111q-2 -65 21.5 -116t69.5 -79.5t108 -28.5q63 0 110 30.5zM346 671l-19 106q6 0 11.5 -0.5t11.5 -0.5q46 -2 75.5 4.5t36.5 27.5q7 23 -14 35.5t-70.5 11.5t-126.5 -19l-8 86q105 22 185 17t119.5 -37.5t27.5 -88.5q-11 -46 -50 -66.5t-92 -17.5l-4 -63z
" />
    <glyph glyph-name="uni1EE6" unicode="&#x1ee6;" horiz-adv-x="744" 
d="M130.5 65q-86.5 84 -86.5 258v372h148v-367q0 -112 47 -160.5t133 -48.5q87 0 134.5 51.5t47.5 157.5v367h152v-376q0 -107 -39.5 -182.5t-115 -115.5t-182.5 -40q-152 0 -238.5 84zM331 671l-19 105q6 0 11.5 -0.5t11.5 -0.5q46 -2 75.5 5t36.5 27q7 23 -14 36
t-70.5 11.5t-126.5 -19.5l-8 86q105 22 185 17t119.5 -37.5t27.5 -88.5q-11 -45 -50 -65.5t-92 -17.5l-4 -63z" />
    <glyph glyph-name="Ygrave" unicode="&#x1ef2;" horiz-adv-x="520" 
d="M179 207l-236 488h158l154 -343l173 343h162l-258 -476v-219h-153v207zM95 846l69 111l232 -180l-38 -63z" />
    <glyph glyph-name="ygrave" unicode="&#x1ef3;" 
d="M108 41.5q-53 60.5 -53 176.5v305h149v-302q0 -55 28 -88.5t81 -33.5q47 0 85.5 24t61.5 68.5t24 103.5l48 -18q-2 -87 -39.5 -154.5t-99 -104.5t-133.5 -37q-99 0 -152 60.5zM484 523h148v-746h-148v746zM158 674l69 111l232 -180l-38 -63z" />
    <glyph glyph-name="uni1EF6" unicode="&#x1ef6;" horiz-adv-x="520" 
d="M179 207l-236 488h158l154 -343l173 343h162l-258 -476v-219h-153v207zM219 671l-19 105q6 0 11.5 -0.5t11.5 -0.5q46 -2 75.5 5t36.5 27q7 23 -14 36t-70.5 11.5t-126.5 -19.5l-8 86q105 22 185 17t119.5 -37.5t27.5 -88.5q-11 -45 -50 -65.5t-92 -17.5l-4 -63z" />
    <glyph glyph-name="uni1EF8" unicode="&#x1ef8;" horiz-adv-x="520" 
d="M179 207l-236 488h158l154 -343l173 343h162l-258 -476v-219h-153v207zM35 719q-9 57 3.5 99.5t44.5 65.5t77 23q33 0 56.5 -10.5t50.5 -30.5q17 -13 30 -20t27 -7q33 0 46.5 17.5t8.5 47.5h107q10 -58 -6.5 -99.5t-52 -63.5t-80.5 -22q-32 0 -54.5 11t-47.5 31
q-19 14 -31.5 21t-26.5 7q-27 0 -37.5 -18t-5.5 -52h-109z" />
    <glyph glyph-name="uni1EF9" unicode="&#x1ef9;" 
d="M108 41.5q-53 60.5 -53 176.5v305h149v-302q0 -55 28 -88.5t81 -33.5q47 0 85.5 24t61.5 68.5t24 103.5l48 -18q-2 -87 -39.5 -154.5t-99 -104.5t-133.5 -37q-99 0 -152 60.5zM484 523h148v-746h-148v746zM126 563q-9 57 3.5 99.5t44.5 65.5t77 23q33 0 56.5 -10.5
t50.5 -30.5q17 -13 30 -20t27 -7q33 0 46.5 17.5t8.5 47.5h107q10 -58 -6.5 -99.5t-52 -63.5t-80.5 -22q-32 0 -54.5 11t-47.5 31q-19 14 -31.5 21t-26.5 7q-27 0 -37.5 -18t-5.5 -52h-109z" />
    <glyph glyph-name="uni2000" unicode="&#x2000;" horiz-adv-x="500" 
 />
    <glyph glyph-name="uni2001" unicode="&#x2001;" horiz-adv-x="1000" 
 />
    <glyph glyph-name="uni2002" unicode="&#x2002;" horiz-adv-x="500" 
 />
    <glyph glyph-name="uni2003" unicode="&#x2003;" horiz-adv-x="1000" 
 />
    <glyph glyph-name="uni2004" unicode="&#x2004;" horiz-adv-x="333" 
 />
    <glyph glyph-name="uni2005" unicode="&#x2005;" horiz-adv-x="250" 
 />
    <glyph glyph-name="uni2006" unicode="&#x2006;" horiz-adv-x="167" 
 />
    <glyph glyph-name="uni2007" unicode="&#x2007;" horiz-adv-x="775" 
 />
    <glyph glyph-name="uni2008" unicode="&#x2008;" horiz-adv-x="290" 
 />
    <glyph glyph-name="uni2009" unicode="&#x2009;" horiz-adv-x="200" 
 />
    <glyph glyph-name="uni200A" unicode="&#x200a;" horiz-adv-x="143" 
 />
    <glyph glyph-name="uni200B" unicode="&#x200b;" horiz-adv-x="0" 
 />
    <glyph glyph-name="uni200C" unicode="&#x200c;" horiz-adv-x="0" 
 />
    <glyph glyph-name="uni200D" unicode="&#x200d;" horiz-adv-x="0" 
 />
    <glyph glyph-name="uni200E" unicode="&#x200e;" horiz-adv-x="0" 
 />
    <glyph glyph-name="uni200F" unicode="&#x200f;" horiz-adv-x="0" 
 />
    <glyph glyph-name="endash" unicode="&#x2013;" horiz-adv-x="777" 
d="M37 379h694v-135h-694v135z" />
    <glyph glyph-name="emdash" unicode="&#x2014;" horiz-adv-x="892" 
d="M37 379h814v-135h-814v135z" />
    <glyph glyph-name="quoteleft" unicode="&#x2018;" horiz-adv-x="189" 
d="M172 436h-89q-32 0 -46 10t-15 36t10 80l34 185h88z" />
    <glyph glyph-name="quoteright" unicode="&#x2019;" horiz-adv-x="189" 
d="M27 748h89q32 0 46 -10t15 -36t-10 -80l-34 -185h-88z" />
    <glyph glyph-name="quotesinglbase" unicode="&#x201a;" horiz-adv-x="189" 
d="M27 206h89q32 0 46 -10t15 -36t-10 -80l-34 -185h-88z" />
    <glyph glyph-name="quotedblleft" unicode="&#x201c;" horiz-adv-x="374" 
d="M349 437h-89q-32 0 -46 10t-15 36t10 80l34 185h88zM174 437h-89q-32 0 -46 10t-15 36t10 80l34 185h88z" />
    <glyph glyph-name="quotedblright" unicode="&#x201d;" horiz-adv-x="374" 
d="M27 748h89q32 0 46 -10t15 -36t-10 -80l-34 -185h-88zM202 748h89q32 0 46 -10t15 -36t-10 -80l-34 -185h-88z" />
    <glyph glyph-name="quotedblbase" unicode="&#x201e;" horiz-adv-x="378" 
d="M37 205h89q32 0 46 -10t15 -36t-10 -80l-34 -185h-88zM212 205h89q32 0 46 -10t15 -36t-10 -80l-34 -185h-88z" />
    <glyph glyph-name="dagger" unicode="&#x2020;" horiz-adv-x="592" 
d="M236 444h-187v123h187v181h121v-181h195v-123h-195v-667h-121v667z" />
    <glyph glyph-name="daggerdbl" unicode="&#x2021;" horiz-adv-x="592" 
d="M236 -42h-182v122h182v364h-187v123h187v181h121v-181h195v-123h-195v-364h199v-122h-199v-181h-121v181z" />
    <glyph glyph-name="bullet" unicode="&#x2022;" horiz-adv-x="639" 
d="M244 214.5q-37 19.5 -58.5 53t-21.5 73.5t21.5 73.5t58.5 53.5t82 20q44 0 81.5 -20t59 -53.5t21.5 -73.5t-21.5 -73.5t-59 -53t-81.5 -19.5q-45 0 -82 19.5z" />
    <glyph glyph-name="ellipsis" unicode="&#x2026;" horiz-adv-x="872" 
d="M529 13q-25 13 -39.5 35.5t-14.5 49.5q0 26 14.5 48.5t39.5 36t55 13.5t55.5 -13.5t40.5 -36t15 -48.5q0 -27 -15 -49t-40.5 -35.5t-55.5 -13.5t-55 13zM97 13q-25 13 -39.5 35.5t-14.5 49.5q0 26 14.5 48.5t39.5 36t55 13.5t55.5 -13.5t40.5 -36t15 -48.5q0 -27 -15 -49
t-40.5 -35.5t-55.5 -13.5t-55 13zM536.5 13q-24.5 13 -39 35.5t-14.5 49.5q0 26 14.5 48.5t39 36t54.5 13.5q31 0 56 -13.5t40 -36t15 -48.5q0 -27 -15 -49.5t-40 -35.5t-56 -13q-30 0 -54.5 13z" />
    <glyph glyph-name="uni202F" unicode="&#x202f;" horiz-adv-x="282" 
 />
    <glyph glyph-name="perthousand" unicode="&#x2030;" horiz-adv-x="1097" 
d="M587 672h158l-535 -672h-159zM129 321q-48 25 -75 68.5t-27 95.5q0 51 26 94t73.5 68t108.5 25t109 -25t75.5 -68t27.5 -94q0 -52 -27 -95.5t-74.5 -68.5t-108.5 -25q-60 0 -108 25zM305 416q25 27 27 69q1 41 -23.5 68t-69.5 27q-46 0 -71 -27t-24 -68q-2 -41 22 -68.5
t70 -27.5q44 0 69 27zM436.5 25q-48.5 25 -76 68t-27.5 95t26.5 95t74.5 68t108 25q61 0 109 -25t75.5 -68t28.5 -95q0 -52 -26.5 -95t-74.5 -68t-108 -25q-61 0 -109.5 25zM612.5 120q24.5 27 26.5 68q1 41 -23.5 68.5t-69.5 27.5q-46 0 -71 -27.5t-24 -68.5q-1 -41 23 -68
t69 -27t69.5 27zM742.5 25q-48.5 25 -76 68t-27.5 95t26.5 95t74 68t108.5 25q60 0 108.5 -25t76 -68t27.5 -95t-26.5 -95t-74 -68t-108.5 -25q-60 0 -108.5 25zM917.5 120q24.5 27 26.5 68q1 41 -23.5 68.5t-69.5 27.5q-46 0 -71 -27.5t-24 -68.5q-2 -41 22.5 -68t70.5 -27
q44 0 68.5 27z" />
    <glyph glyph-name="guilsinglleft" unicode="&#x2039;" horiz-adv-x="441" 
d="M33 227v69l252 215h188l-297 -251l271 -247h-177z" />
    <glyph glyph-name="guilsinglright" unicode="&#x203a;" horiz-adv-x="486" 
d="M302 264l-270 247h176l238 -213l-1 -70l-252 -215h-187z" />
    <glyph glyph-name="fraction" unicode="&#x2044;" horiz-adv-x="275" 
d="M375 698h133l-508 -747h-132z" />
    <glyph glyph-name="uni205F" unicode="&#x205f;" horiz-adv-x="222" 
 />
    <glyph glyph-name="uni2070" unicode="&#x2070;" horiz-adv-x="570" 
d="M181 267.5q-52 27.5 -86 76t-43 110.5q-15 91 13.5 165t91 116.5t146.5 42.5q77 0 136 -35t91.5 -96.5t32.5 -137.5q0 -79 -34 -140t-95 -95t-138 -34q-63 0 -115 27.5zM401.5 394.5q39.5 43.5 39.5 114.5q1 41 -14 77t-46 58t-76 22q-41 0 -76.5 -25t-53.5 -69t-9 -96
q8 -54 44 -89.5t85 -35.5q67 0 106.5 43.5z" />
    <glyph glyph-name="uni2074" unicode="&#x2074;" horiz-adv-x="470" 
d="M308 326h-316l314 452h116v-351h56v-101h-57v-86h-113v86zM316 423l7 222l-155 -222h148z" />
    <glyph glyph-name="uni2075" unicode="&#x2075;" horiz-adv-x="501" 
d="M146.5 262q-49.5 22 -78 64.5t-28.5 99.5h116q4 -38 31.5 -59.5t77.5 -21.5q31 0 58.5 12t44 33.5t16.5 47.5q1 39 -28 61t-80 22q-29 0 -55.5 -7.5t-43.5 -19.5h-111l37 284h356l-3 -101h-253l-12 -115q57 26 128 26q53 0 95.5 -19.5t67 -56t23.5 -83.5q-1 -54 -33 -97
t-87 -67.5t-125 -24.5q-64 0 -113.5 22z" />
    <glyph glyph-name="uni2076" unicode="&#x2076;" horiz-adv-x="532" 
d="M180 274.5q-56 34.5 -86 97.5t-27 146q4 76 39.5 135t97 92t140.5 33q45 0 98.5 -14t83.5 -35l-15 -91q-26 19 -64.5 32t-84.5 13q-66 0 -109 -36t-52 -92q86 41 143 41q83 0 136 -39.5t60 -107.5q7 -51 -15.5 -99t-76 -79t-137.5 -31q-75 0 -131 34.5zM383.5 368.5
q30.5 27.5 31.5 71.5q2 38 -22.5 58.5t-68.5 20.5q-24 0 -57 -10t-67 -29q-2 -34 9 -66t36 -52.5t63 -20.5q45 0 75.5 27.5z" />
    <glyph glyph-name="uni2077" unicode="&#x2077;" horiz-adv-x="421" 
d="M320 671h-309v107h496l-313 -538h-129z" />
    <glyph glyph-name="uni2078" unicode="&#x2078;" horiz-adv-x="502" 
d="M99.5 281q-60.5 41 -70.5 102q-7 47 19.5 85.5t76.5 60.5q-30 13 -47.5 36.5t-22.5 51.5q-5 35 12.5 72.5t66.5 63.5t133 26q99 0 151 -36t61 -92q6 -37 -11 -69.5t-58 -53.5q40 -15 66 -43.5t32 -64.5q7 -46 -15.5 -87t-79 -67t-143.5 -26q-110 0 -170.5 41zM332 353.5
q27 11.5 39.5 30t8.5 40.5q-4 29 -33.5 45.5t-76.5 16.5q-52 0 -87 -21.5t-30 -56.5q4 -27 32.5 -46.5t81.5 -19.5q38 0 65 11.5zM342 576q27 17 22 50q-4 28 -30.5 42t-68.5 14q-51 0 -75.5 -20.5t-19.5 -51.5q3 -24 27 -37.5t67 -13.5q51 0 78 17z" />
    <glyph glyph-name="uni2079" unicode="&#x2079;" horiz-adv-x="527" 
d="M151.5 254q-53.5 14 -83.5 34l15 92q26 -19 64.5 -32t84.5 -13q65 0 106 35t50 92q-41 -19 -75 -29.5t-64 -10.5q-83 0 -135.5 39.5t-59.5 107.5q-7 51 15.5 99t76 79t137.5 31q74 0 129.5 -34.5t84 -98t24.5 -146.5q-4 -77 -38 -135.5t-94 -91t-139 -32.5
q-45 0 -98.5 14zM389 536q2 34 -8 66.5t-33.5 53t-61.5 20.5q-45 0 -75.5 -27t-32.5 -71q-1 -38 23 -59t67 -21q53 0 121 38z" />
    <glyph glyph-name="uni2080" unicode="&#x2080;" horiz-adv-x="570" 
d="M166 -92.5q-52 27.5 -86 76t-44 110.5q-14 91 14.5 165t90.5 116.5t147 42.5q76 0 135.5 -35t92 -96.5t32.5 -137.5q0 -79 -34.5 -140t-95.5 -95t-137 -34q-63 0 -115 27.5zM387 34.5q40 43.5 40 114.5q0 41 -15 77t-45.5 58t-76.5 22q-41 0 -76.5 -25t-53.5 -69t-10 -96
q9 -54 45 -89.5t85 -35.5q67 0 107 43.5z" />
    <glyph glyph-name="uni2081" unicode="&#x2081;" horiz-adv-x="236" 
d="M56 358l58 60h64v-538h-121z" />
    <glyph glyph-name="uni2082" unicode="&#x2082;" horiz-adv-x="523" 
d="M32 -30q76 26 167.5 77.5t145.5 117.5q31 35 32 70.5t-26 58.5t-73 23q-44 0 -76 -18t-45 -47.5t-5 -63.5h-117q-9 56 15 109t82.5 87t146.5 34q63 0 109 -19.5t73 -51.5t33 -71q13 -83 -53.5 -157t-205.5 -142h287v-97h-492z" />
    <glyph glyph-name="uni2083" unicode="&#x2083;" horiz-adv-x="558" 
d="M100.5 -78.5q-61.5 41.5 -72.5 109.5q-3 22 1 47h116v-6t-1 -6v-7t1 -7q4 -30 39 -48t93 -18q48 0 81.5 12.5t49.5 32.5t12 43q-5 26 -34.5 43t-86.5 17h-117v73h112q39 0 64.5 9.5t35.5 24t8 30.5q-4 22 -32.5 36t-85.5 14q-52 0 -79 -18t-26 -47h-116q-7 48 20 85
t81 57t124 20q111 0 168.5 -34.5t66.5 -91.5q6 -36 -13.5 -67.5t-61.5 -50.5q39 -17 63 -43.5t29 -60.5q8 -43 -15.5 -87t-86.5 -73.5t-168 -29.5q-108 0 -169.5 41.5z" />
    <glyph glyph-name="uni2084" unicode="&#x2084;" horiz-adv-x="470" 
d="M294 -34h-316l316 452h113v-351h57v-101h-59v-86h-111v86zM301 63l10 222l-158 -222h148z" />
    <glyph glyph-name="uni2085" unicode="&#x2085;" horiz-adv-x="501" 
d="M131.5 -98q-49.5 22 -77.5 64.5t-28 99.5h116q3 -38 30 -59.5t77 -21.5q33 0 60 12t43.5 33.5t17.5 47.5q1 39 -28.5 61t-79.5 22q-29 0 -56 -7.5t-44 -19.5h-111l36 284h356l-4 -101h-251l-12 -115q57 26 128 26q53 0 96 -19.5t67 -56t24 -83.5q-1 -54 -33 -97
t-88 -67.5t-126 -24.5q-63 0 -112.5 22z" />
    <glyph glyph-name="uni2086" unicode="&#x2086;" horiz-adv-x="532" 
d="M164.5 -85.5q-56.5 34.5 -85.5 97.5t-26 146q4 76 39 135t96 92t140 33q45 0 99 -14t84 -35l-16 -91q-24 19 -62.5 32t-84.5 13q-67 0 -110 -36t-51 -92q86 41 142 41q83 0 136 -39.5t61 -107.5q6 -51 -16.5 -99t-76.5 -79t-137 -31q-75 0 -131.5 34.5zM368.5 8.5
q31.5 27.5 32.5 71.5q1 38 -23.5 58.5t-67.5 20.5q-25 0 -58 -10t-66 -29q-3 -34 8 -65.5t35.5 -52.5t62.5 -21q45 0 76.5 27.5z" />
    <glyph glyph-name="uni2087" unicode="&#x2087;" horiz-adv-x="445" 
d="M316 311h-308v107h496l-313 -538h-128z" />
    <glyph glyph-name="uni2088" unicode="&#x2088;" horiz-adv-x="502" 
d="M84 -79q-60 41 -70 102q-7 47 19.5 85.5t76.5 60.5q-29 13 -46 36.5t-22 51.5q-6 35 11 72.5t65.5 63.5t132.5 26q99 0 151.5 -36t60.5 -92q7 -36 -10 -69t-57 -54q39 -15 65.5 -43.5t31.5 -64.5q7 -46 -16 -87t-79.5 -67t-143.5 -26q-110 0 -170 41zM316 -6.5
q27 11.5 39.5 30t9.5 40.5q-5 29 -34.5 45.5t-76.5 16.5q-52 0 -86.5 -21t-29.5 -57q4 -27 32 -46.5t81 -19.5q38 0 65 11.5zM327.5 216q27.5 17 21.5 50q-5 28 -31.5 42t-67.5 14q-51 0 -75.5 -21t-20.5 -52q4 -23 28 -36.5t67 -13.5q51 0 78.5 17z" />
    <glyph glyph-name="uni2089" unicode="&#x2089;" horiz-adv-x="527" 
d="M137 -106q-53 14 -84 34l15 92q25 -19 63.5 -32t84.5 -13q66 0 107 35t49 92q-40 -19 -74 -29.5t-64 -10.5q-82 0 -135 39t-61 107q-5 51 17 99.5t75.5 79.5t136.5 31q75 0 130 -34.5t83.5 -98t24.5 -146.5q-3 -77 -37 -135.5t-94 -91t-139 -32.5q-45 0 -98 14zM374 176
q1 35 -8.5 67t-33 52.5t-61.5 20.5q-45 0 -76 -27t-32 -71q-1 -38 23.5 -59t67.5 -21q53 0 120 38z" />
    <glyph glyph-name="lira" unicode="&#x20a4;" horiz-adv-x="677" 
d="M147 413q-1 81 26.5 145t83.5 100.5t139 36.5q79 0 134 -34.5t81.5 -100.5t21.5 -159h-130q6 72 -23.5 114.5t-88.5 42.5q-57 0 -86 -47t-29 -157l-38 -203l-91 -17v279zM69 0q-11 62 3.5 113t48 80t77.5 30q34 1 74 -11t100 -36q50 -20 80 -30t53 -10q33 0 51.5 25.5
t12.5 58.5h98q11 -65 -5.5 -115t-53 -77.5t-85.5 -27.5q-36 0 -73.5 12.5t-92.5 35.5q-47 21 -76 30.5t-53 9.5q-31 0 -47.5 -25.5t-9.5 -62.5h-102zM69 343h383v-68h-383v68zM70 453h380v-66h-380v66z" />
    <glyph glyph-name="peseta" unicode="&#x20a7;" horiz-adv-x="1756" 
d="M101 695h203q96 0 162.5 -33.5t100 -90.5t34.5 -126q2 -79 -36 -139.5t-110 -94.5t-171 -35h-194zM51 695h149v-695h-149v695zM301 298q72 0 113.5 39.5t37.5 108.5q-2 61 -44.5 95t-107.5 34l-166 -1l3 -276h164zM789 408h-170v115h170v175h151v-175h177v-115h-177v-408
h-151v408zM1277 8q-67 27 -102.5 72t-38.5 98h143q6 -37 42.5 -62.5t105.5 -26.5q46 0 77.5 10t46.5 26t15 33q-1 17 -12.5 28t-41 18t-85.5 11q-125 10 -189 53t-65 113q0 45 31 81.5t88.5 58t136.5 21.5q81 0 141 -23.5t95 -66t43 -96.5h-145q-8 36 -42 56t-93 20
q-38 0 -62 -8.5t-35 -22.5t-10 -29q3 -25 29 -39t85 -18q105 -7 166.5 -27.5t87 -52.5t27.5 -78q1 -46 -30 -86t-94.5 -65t-155.5 -25t-159 27z" />
    <glyph glyph-name="Euro" unicode="&#x20ac;" horiz-adv-x="779" 
d="M259 34q-66 34 -109 95t-55 139q-18 113 18 205.5t114 145.5t184 53q87 0 156.5 -37t112.5 -102.5t53 -149.5h-153q-8 67 -51 108.5t-117 41.5q-51 0 -95 -31.5t-66.5 -86.5t-12.5 -121q8 -45 31.5 -80t57.5 -55t74 -20q79 0 127 44.5t54 122.5h153q-5 -89 -50.5 -158.5
t-119 -108.5t-162.5 -39q-78 0 -144 34zM33 311h420v-69h-420v69zM33 441h421v-70h-421v70z" />
    <glyph glyph-name="uni2116" unicode="&#x2116;" horiz-adv-x="1414" 
d="M201 473v-473h-145v695h145l337 -483v483h143v-695h-150zM919 18.5q-70 37.5 -109.5 102t-40.5 141.5q1 78 41.5 142t111 101t157.5 37q90 0 160 -37t108.5 -101t38.5 -142q-1 -77 -41 -141.5t-110.5 -102t-158.5 -37.5q-87 0 -157 37.5zM1159 121.5q38 21.5 59.5 58.5
t22.5 82q1 46 -19 83t-56.5 58.5t-84.5 21.5t-86 -21.5t-60 -59t-23 -82.5t19 -82t57.5 -58.5t84.5 -21.5q48 0 86 21.5z" />
    <glyph glyph-name="trademark" unicode="&#x2122;" horiz-adv-x="1215" 
d="M567 695h177l120 -340l138 340h175v-537h-131v359l-138 -359h-90l-126 355v-355h-125v537zM15 695h492v-103h-175v-434h-129v434h-188v103z" />
    <glyph glyph-name="uni212A" unicode="&#x212a;" horiz-adv-x="665" 
d="M203 336v-336h-149v695h149v-313l309 313h193l-337 -332l359 -363h-199z" />
    <glyph glyph-name="uni212B" unicode="&#x212b;" horiz-adv-x="708" 
d="M256 695h199l237 -695h-156l-48 143h-265l-45 -143h-163zM451 257l-99 286l-96 -286h195zM274 739q-36 19 -56.5 51t-20.5 71q0 38 20 71t55.5 52t80.5 19q47 0 83.5 -17.5t56.5 -48.5t20 -70t-19.5 -73t-56 -54t-83.5 -20q-44 0 -80 19zM399 817.5q16 17.5 15 43.5
q2 27 -13.5 45t-44.5 18q-30 0 -45.5 -18t-16.5 -45q-1 -26 15 -43.5t45 -17.5t45 17.5z" />
    <glyph glyph-name="oneeighth" unicode="&#x215b;" horiz-adv-x="1013" 
d="M72 718l59 60h63v-538h-123zM611 698h133l-508 -747h-132zM595 -79q-60 41 -70 102q-7 47 19.5 85.5t76.5 60.5q-29 13 -46 36.5t-22 51.5q-6 35 11 72.5t65.5 63.5t132.5 26q99 0 151.5 -36t60.5 -92q7 -36 -10 -69t-57 -54q39 -15 65.5 -43.5t31.5 -64.5q7 -46 -16 -87
t-79.5 -67t-143.5 -26q-110 0 -170 41zM827 -6.5q27 11.5 39.5 30t9.5 40.5q-5 29 -34.5 45.5t-76.5 16.5q-52 0 -86.5 -21t-29.5 -57q4 -27 32 -46.5t81 -19.5q38 0 65 11.5zM838.5 216q27.5 17 21.5 50q-5 28 -31.5 42t-67.5 14q-51 0 -75.5 -21t-20.5 -52q4 -23 28 -36.5
t67 -13.5q51 0 78.5 17z" />
    <glyph glyph-name="threeeighths" unicode="&#x215c;" horiz-adv-x="1335" 
d="M116 281.5q-62 41.5 -72 109.5q-4 23 0 47h116q-1 -4 -1 -8v-8q0 -3 0.5 -5.5t0.5 -4.5q5 -30 39.5 -48t92.5 -18q48 0 81.5 12.5t49.5 32.5t12 43q-5 26 -34.5 43t-87.5 17h-116l2 73h110q40 0 65 9.5t35 24t8 30.5q-4 22 -33 36t-86 14q-52 0 -78.5 -18t-25.5 -47h-117
q-7 48 20.5 85t82 57t124.5 20q110 0 167.5 -34.5t65.5 -90.5q6 -37 -13.5 -68.5t-61.5 -50.5q40 -17 64.5 -43.5t29.5 -60.5q7 -44 -16.5 -87.5t-86.5 -73t-167 -29.5q-108 0 -170 41.5zM933 698h133l-508 -747h-132zM917 -79q-60 41 -70 102q-7 47 19.5 85.5t76.5 60.5
q-29 13 -46 36.5t-22 51.5q-6 35 11 72.5t65.5 63.5t132.5 26q99 0 151.5 -36t60.5 -92q7 -36 -10 -69t-57 -54q39 -15 65.5 -43.5t31.5 -64.5q7 -46 -16 -87t-79.5 -67t-143.5 -26q-110 0 -170 41zM1149 -6.5q27 11.5 39.5 30t9.5 40.5q-5 29 -34.5 45.5t-76.5 16.5
q-52 0 -86.5 -21t-29.5 -57q4 -27 32 -46.5t81 -19.5q38 0 65 11.5zM1160.5 216q27.5 17 21.5 50q-5 28 -31.5 42t-67.5 14q-51 0 -75.5 -21t-20.5 -52q4 -23 28 -36.5t67 -13.5q51 0 78.5 17z" />
    <glyph glyph-name="fiveeighths" unicode="&#x215d;" horiz-adv-x="1278" 
d="M146.5 262q-49.5 22 -78 64.5t-28.5 99.5h116q4 -38 31.5 -59.5t77.5 -21.5q31 0 58.5 12t44 33.5t16.5 47.5q1 39 -28 61t-80 22q-29 0 -55.5 -7.5t-43.5 -19.5h-111l37 284h356l-3 -101h-253l-12 -115q57 26 128 26q53 0 95.5 -19.5t67 -56t23.5 -83.5q-1 -54 -33 -97
t-87 -67.5t-125 -24.5q-64 0 -113.5 22zM876 698h133l-508 -747h-132zM860 -79q-60 41 -70 102q-7 47 19.5 85.5t76.5 60.5q-29 13 -46 36.5t-22 51.5q-6 35 11 72.5t65.5 63.5t132.5 26q99 0 151.5 -36t60.5 -92q7 -36 -10 -69t-57 -54q39 -15 65.5 -43.5t31.5 -64.5
q7 -46 -16 -87t-79.5 -67t-143.5 -26q-110 0 -170 41zM1092 -6.5q27 11.5 39.5 30t9.5 40.5q-5 29 -34.5 45.5t-76.5 16.5q-52 0 -86.5 -21t-29.5 -57q4 -27 32 -46.5t81 -19.5q38 0 65 11.5zM1103.5 216q27.5 17 21.5 50q-5 28 -31.5 42t-67.5 14q-51 0 -75.5 -21
t-20.5 -52q4 -23 28 -36.5t67 -13.5q51 0 78.5 17z" />
    <glyph glyph-name="seveneighths" unicode="&#x215e;" horiz-adv-x="1198" 
d="M320 671h-309v107h496l-313 -538h-129zM796 698h133l-508 -747h-132zM780 -79q-60 41 -70 102q-7 47 19.5 85.5t76.5 60.5q-29 13 -46 36.5t-22 51.5q-6 35 11 72.5t65.5 63.5t132.5 26q99 0 151.5 -36t60.5 -92q7 -36 -10 -69t-57 -54q39 -15 65.5 -43.5t31.5 -64.5
q7 -46 -16 -87t-79.5 -67t-143.5 -26q-110 0 -170 41zM1012 -6.5q27 11.5 39.5 30t9.5 40.5q-5 29 -34.5 45.5t-76.5 16.5q-52 0 -86.5 -21t-29.5 -57q4 -27 32 -46.5t81 -19.5q38 0 65 11.5zM1023.5 216q27.5 17 21.5 50q-5 28 -31.5 42t-67.5 14q-51 0 -75.5 -21
t-20.5 -52q4 -23 28 -36.5t67 -13.5q51 0 78.5 17z" />
    <glyph glyph-name="partialdiff" unicode="&#x2202;" horiz-adv-x="718" 
d="M186 20.5q-76 39.5 -117.5 109t-35.5 153.5q8 99 77 162t167 76.5t189 -26.5q-103 131 -343 253h207q111 -60 192 -138t124 -164t42 -171q0 -83 -41 -149.5t-117 -105.5t-173 -39q-95 0 -171 39.5zM453.5 125.5q40.5 21.5 62.5 59t24 83.5t-18 83.5t-59 58.5t-93 21
t-96 -21t-65.5 -58.5t-24.5 -83.5q-2 -46 19 -83t62 -59t94 -22q54 0 94.5 21.5z" />
    <glyph glyph-name="minus" unicode="&#x2212;" horiz-adv-x="590" 
d="M53 411h472v-130h-472v130z" />
    <glyph glyph-name="approxequal" unicode="&#x2248;" horiz-adv-x="540" 
d="M31 49q-11 64 0.5 115t42.5 79.5t78 28.5q33 0 59 -13t59 -38q24 -17 41 -26.5t34 -9.5q33 0 46.5 24.5t7.5 58.5h108q11 -63 -4.5 -113.5t-50 -78t-79.5 -27.5q-32 0 -57 13t-57 37q-25 20 -42 29t-34 9q-30 0 -39.5 -24.5t-2.5 -63.5h-110zM32 280q-11 64 0.5 115
t42.5 79.5t78 28.5q33 0 59 -13t59 -38q24 -17 41 -26.5t34 -9.5q33 0 46.5 24.5t7.5 58.5h108q11 -63 -4.5 -113.5t-50 -78t-79.5 -27.5q-32 0 -57 13t-57 37q-25 20 -42 29t-34 9q-30 0 -39.5 -24.5t-2.5 -63.5h-110z" />
    <glyph glyph-name="notequal" unicode="&#x2260;" horiz-adv-x="600" 
d="M53 524h276l69 134h109l-69 -134h117l1 -123h-182l-45 -87h228v-122h-291l-61 -117h-109l61 117h-102v122h165l45 87h-211z" />
    <glyph glyph-name="lessequal" unicode="&#x2264;" horiz-adv-x="472" 
d="M0 122h472v-130h-472v130zM66 388v100l329 220v-142l-188 -128l188 -129v-154z" />
    <glyph glyph-name="greaterequal" unicode="&#x2265;" horiz-adv-x="472" 
d="M0 138h472v-130h-472v130zM72 290l188 128l-188 129v154l329 -232v-101l-329 -220v142z" />
    <glyph glyph-name="uni3000" unicode="&#x3000;" horiz-adv-x="1000" 
 />
    <glyph glyph-name="uni004A0301" horiz-adv-x="692" 
d="M144 24.5q-65 43.5 -93 117.5t-19 167h143q-6 -57 8.5 -100t48.5 -67t85 -24q84 0 129.5 56t45.5 170v351h155v-354q1 -113 -39 -194t-116 -123.5t-184 -42.5q-99 0 -164 43.5zM422 788l233 145l67 -115l-259 -102z" />
    <glyph glyph-name="uni013B.loclMAH" horiz-adv-x="550" 
d="M207 -267l20 227h160l-89 -238zM50 695h150v-565h344v-130h-494v695z" />
    <glyph glyph-name="uni0145.loclMAH" horiz-adv-x="737" 
d="M275 -267l20 227h160l-89 -238zM201 473v-473h-145v695h145l337 -483v483h143v-695h-150z" />
    <glyph glyph-name="i.loclTRK" horiz-adv-x="262" 
d="M56 523h150v-523h-150v523zM64 590q-27 25 -27 61q0 35 26.5 60t66.5 25q42 0 69.5 -25t27.5 -61q0 -35 -27 -60t-67 -25q-42 0 -69 25z" />
    <glyph glyph-name="uni006A0301" horiz-adv-x="275" 
d="M-107 -106h19q69 0 108.5 35.5t39.5 100.5v493h148v-487q0 -78 -31 -136.5t-87.5 -90.5t-130.5 -32h-66v117zM15 653l233 145l67 -115l-259 -102z" />
    <glyph glyph-name="uni013C.loclMAH" horiz-adv-x="262" 
d="M35 -267l20 227h160l-89 -238zM54 746h149v-746h-149v746z" />
    <glyph glyph-name="uni0146.loclMAH" 
d="M231 -267l20 227h160l-89 -238zM484 303q0 55 -28.5 88t-81.5 33q-47 0 -85.5 -24t-61 -68t-24.5 -103l-49 17q2 87 39.5 154.5t99 104.5t134.5 37q99 0 152 -60.5t53 -176.5v-305h-148v303zM55 523h148v-523h-148v523z" />
    <glyph glyph-name="a.ss01" horiz-adv-x="634" 
d="M61.5 62.5q-52.5 81.5 -2.5 163t180 81.5h203q0 51 -32.5 82t-98.5 31q-49 0 -80.5 -18t-49.5 -53l-126 54q33 61 99 100t164 39q87 0 148.5 -31t92.5 -86t28 -126l-87 -50q-2 -81 -30.5 -141t-85 -93.5t-138.5 -33.5q-132 0 -184.5 81.5zM388.5 127.5
q41.5 33.5 51.5 92.5h-175q-59 0 -83.5 -31.5t2.5 -63t96 -31.5q67 0 108.5 33.5zM446 278l141 21v-299h-141v278z" />
    <glyph glyph-name="g.ss01" horiz-adv-x="678" 
d="M178 146q-66 24 -102.5 69.5t-37.5 108.5q1 64 38.5 113.5t104.5 77t153 27.5l70 -42q62 0 113 -21.5t80.5 -61.5t29.5 -93q-1 -64 -37.5 -109.5t-103 -69t-155.5 -23.5q-87 0 -153 24zM170 -210q-67 13 -130 38l40 103q44 -20 103 -31.5t127 -10.5q84 0 129.5 19.5
t45.5 49.5q-1 26 -33 40t-100 14q-113 0 -275 -22v88q57 9 141.5 15t147.5 6q137 0 201.5 -41t64.5 -110q0 -44 -35.5 -83.5t-106.5 -63.5t-171 -24q-82 0 -149 13zM77 78q31 0 59.5 16.5t46 45.5t17.5 65h119q0 -46 -29 -79t-82 -52.5t-126 -26.5zM443 244q43 30 43 79
q2 49 -38 79.5t-111 30.5q-69 0 -112.5 -30.5t-45.5 -79.5q-2 -48 39.5 -78.5t110.5 -30.5q71 0 114 30zM334 542q86 0 127 22t41 76h148q0 -50 -33.5 -88t-102.5 -58.5t-174 -18.5z" />
    <glyph glyph-name="j.ss01" horiz-adv-x="275" 
d="M-28 -106h18q40 0 55 16t15 57v556h148v-550q0 -104 -48.5 -150t-152.5 -46h-35v117zM76 608q-26 13 -41 35t-15 49q0 26 15 48t41 35t56 13q31 0 57 -13t41 -35t15 -48q0 -27 -15 -49t-41 -35t-57 -13q-30 0 -56 13z" />
    <glyph glyph-name="r.ss01" horiz-adv-x="414" 
d="M155 212q3 107 39.5 181.5t92.5 111.5t115 37v-142q-57 0 -102 -24.5t-70.5 -67t-26.5 -96.5h-48zM54 523h149v-523h-149v523z" />
    <glyph glyph-name="t.ss01" horiz-adv-x="476" 
d="M344 0q-70 0 -117.5 26t-71.5 74t-24 118v456h149v-460q0 -35 8.5 -53.5t28.5 -26.5t55 -8h24v-126h-52zM4 523h474v-115h-474v115z" />
    <glyph glyph-name="y.ss01" horiz-adv-x="650" 
d="M259 13l-254 510h156l167 -362l175 362h158l-370 -746h-145z" />
    <glyph glyph-name="y.ss02" 
d="M206 -246.5q-67 38.5 -108 111.5l120 54q25 -39 60 -60t74 -21q62 1 96 44t36 115v526h146v-511q0 -89 -32.5 -156t-94.5 -104t-148 -37q-82 0 -149 38.5zM108 41.5q-53 60.5 -53 176.5v305h149v-302q0 -55 28 -88.5t81 -33.5q47 0 85.5 24t61.5 68.5t24 103.5l48 -18
q-2 -87 -39.5 -154.5t-99 -104.5t-133.5 -37q-99 0 -152 60.5z" />
    <glyph glyph-name="a_alt" horiz-adv-x="634" 
d="M61.5 62.5q-52.5 81.5 -2.5 163t180 81.5h203q0 51 -32.5 82t-98.5 31q-49 0 -80.5 -18t-49.5 -53l-126 54q33 61 99 100t164 39q87 0 148.5 -31t92.5 -86t28 -126l-87 -50q-2 -81 -30.5 -141t-85 -93.5t-138.5 -33.5q-132 0 -184.5 81.5zM388.5 127.5
q41.5 33.5 51.5 92.5h-175q-59 0 -83.5 -31.5t2.5 -63t96 -31.5q67 0 108.5 33.5zM446 278l141 21v-299h-141v278z" />
    <glyph glyph-name="g_alt" horiz-adv-x="678" 
d="M178 146q-66 24 -102.5 69.5t-37.5 108.5q1 64 38.5 113.5t104.5 77t153 27.5l70 -42q62 0 113 -21.5t80.5 -61.5t29.5 -93q-1 -64 -37.5 -109.5t-103 -69t-155.5 -23.5q-87 0 -153 24zM170 -210q-67 13 -130 38l40 103q44 -20 103 -31.5t127 -10.5q84 0 129.5 19.5
t45.5 49.5q-1 26 -33 40t-100 14q-113 0 -275 -22v88q57 9 141.5 15t147.5 6q137 0 201.5 -41t64.5 -110q0 -44 -35.5 -83.5t-106.5 -63.5t-171 -24q-82 0 -149 13zM77 78q31 0 59.5 16.5t46 45.5t17.5 65h119q0 -46 -29 -79t-82 -52.5t-126 -26.5zM443 244q43 30 43 79
q2 49 -38 79.5t-111 30.5q-69 0 -112.5 -30.5t-45.5 -79.5q-2 -48 39.5 -78.5t110.5 -30.5q71 0 114 30zM334 542q86 0 127 22t41 76h148q0 -50 -33.5 -88t-102.5 -58.5t-174 -18.5z" />
    <glyph glyph-name="j_alt" horiz-adv-x="275" 
d="M-28 -106h18q40 0 55 16t15 57v556h148v-550q0 -104 -48.5 -150t-152.5 -46h-35v117zM76 608q-26 13 -41 35t-15 49q0 26 15 48t41 35t56 13q31 0 57 -13t41 -35t15 -48q0 -27 -15 -49t-41 -35t-57 -13q-30 0 -56 13z" />
    <glyph glyph-name="r_alt" horiz-adv-x="414" 
d="M155 212q3 107 39.5 181.5t92.5 111.5t115 37v-142q-57 0 -102 -24.5t-70.5 -67t-26.5 -96.5h-48zM54 523h149v-523h-149v523z" />
    <glyph glyph-name="t_alt" horiz-adv-x="476" 
d="M344 0q-70 0 -117.5 26t-71.5 74t-24 118v456h149v-460q0 -35 8.5 -53.5t28.5 -26.5t55 -8h24v-126h-52zM4 523h474v-115h-474v115z" />
    <glyph glyph-name="y_alt" horiz-adv-x="650" 
d="M259 13l-254 510h156l167 -362l175 362h158l-370 -746h-145z" />
    <glyph glyph-name="y_alt2" 
d="M206 -246.5q-67 38.5 -108 111.5l120 54q25 -39 60 -60t74 -21q62 1 96 44t36 115v526h146v-511q0 -89 -32.5 -156t-94.5 -104t-148 -37q-82 0 -149 38.5zM108 41.5q-53 60.5 -53 176.5v305h149v-302q0 -55 28 -88.5t81 -33.5q47 0 85.5 24t61.5 68.5t24 103.5l48 -18
q-2 -87 -39.5 -154.5t-99 -104.5t-133.5 -37q-99 0 -152 60.5z" />
    <glyph glyph-name="zero" horiz-adv-x="775" 
d="M209 26.5q-76 45.5 -117.5 126.5t-41.5 183q0 105 43 186t120 125t176 44q100 0 176.5 -45.5t118 -126.5t41.5 -183q0 -105 -43.5 -186t-120 -125t-175.5 -44q-101 0 -177 45.5zM483.5 145q42.5 25 66 74t23.5 116q0 62 -20.5 111t-62 77.5t-100.5 28.5q-56 0 -98 -25
t-66 -74t-24 -116q0 -62 20.5 -111t62 -77.5t101.5 -28.5q55 0 97.5 25z" />
    <glyph glyph-name="one" horiz-adv-x="451" 
d="M166 514l-120 -19v103l196 74h78v-672h-154v514z" />
    <glyph glyph-name="two" horiz-adv-x="695" 
d="M43 111q26 13 53 25.5t55 26.5q101 48 174 94t119 101t39 113q-2 26 -17.5 47.5t-43 34t-63.5 12.5q-55 0 -94.5 -24.5t-56.5 -64t-6 -82.5h-146q-11 71 19 139.5t103 113t182 44.5q79 0 137.5 -24t91 -64t39.5 -88q34 -217 -330 -393h360v-122h-615v111z" />
    <glyph glyph-name="three" horiz-adv-x="708" 
d="M186.5 6.5q-63.5 25.5 -102 69t-47.5 97.5q-6 30 1 61h145q-3 -16 0 -33q3 -23 25 -43t56.5 -32t71.5 -12q57 0 98 17.5t60.5 45t15.5 55.5q-5 35 -40.5 58t-102.5 23h-138l1 99h132q46 0 75.5 13.5t41.5 34t9 42.5q-5 28 -39.5 48.5t-103.5 20.5q-35 0 -62.5 -13
t-42.5 -34t-14 -44h-145q-9 59 26 107.5t101 76t145 27.5q92 0 155 -22t95.5 -58.5t36.5 -81.5q6 -48 -19.5 -93.5t-77.5 -69.5q49 -20 81 -59t39 -83q9 -55 -24 -111.5t-111 -94t-197 -37.5q-81 0 -144.5 25.5z" />
    <glyph glyph-name="four" horiz-adv-x="621" 
d="M382 108h-409l409 564h141v-438h72l-1 -126h-72v-108h-140v108zM390 229l9 277l-201 -277h192z" />
    <glyph glyph-name="five" horiz-adv-x="685" 
d="M171.5 10q-65.5 29 -102.5 82.5t-36 125.5h145q4 -49 42 -77t107 -28q46 0 83.5 15t59 41t22.5 59q1 51 -37 81t-112 30q-50 0 -87 -9t-59 -25h-130l45 367h486l-8 -125h-361l-15 -148q76 33 182 33q74 0 130.5 -28.5t87 -77.5t29.5 -109q-2 -67 -42.5 -121t-113 -84.5
t-165.5 -30.5q-85 0 -150.5 29z" />
    <glyph glyph-name="six" horiz-adv-x="700" 
d="M189 26q-73 45 -111.5 128t-33.5 193q4 97 48.5 175.5t122 123.5t177.5 45q77 0 142.5 -19t112.5 -51l-52 -106q-30 23 -80.5 39.5t-104.5 16.5q-55 0 -99 -21.5t-72 -60t-33 -88.5q46 21 100 36.5t93 15.5q69 0 125 -24.5t90.5 -71t40.5 -109.5q5 -63 -25.5 -124.5
t-99.5 -102t-172 -40.5q-96 0 -169 45zM424 123.5q34 16.5 54.5 45t21.5 64.5q1 49 -35.5 79t-90.5 30q-33 0 -81.5 -13t-89.5 -35q-4 -53 13.5 -95.5t53 -67t83.5 -24.5q37 0 71 16.5z" />
    <glyph glyph-name="seven" horiz-adv-x="586" 
d="M400 538h-386v134h620l-391 -672h-160z" />
    <glyph glyph-name="eight" horiz-adv-x="740" 
d="M188.5 6q-69.5 25 -105.5 68t-44 96q-9 60 27 111t104 79q-35 19 -58.5 52t-27.5 67q-7 50 19 98.5t91.5 81t172.5 32.5q93 0 156 -23.5t95 -62t40 -83.5q7 -46 -18.5 -90.5t-79.5 -71.5q54 -17 88 -56.5t40 -87.5q7 -60 -25.5 -113.5t-108.5 -87.5t-192 -34
q-104 0 -173.5 25zM459.5 124.5q40.5 16.5 58 42t13.5 52.5q-6 40 -45 62.5t-123 22.5q-81 0 -125 -28.5t-43 -72.5q0 -24 17 -46t54 -35.5t93 -13.5q60 0 100.5 16.5zM479 425q40 25 33 68q-6 36 -44.5 56.5t-103.5 20.5q-49 0 -81 -14t-46 -36.5t-10 -47.5q5 -32 37 -52
t99 -20q76 0 116 25z" />
    <glyph glyph-name="nine" horiz-adv-x="713" 
d="M167 0q-65 19 -112 51l52 106q30 -23 80 -39.5t105 -16.5t99 21.5t71.5 60t33.5 88.5q-46 -21 -100 -36.5t-93 -15.5q-69 0 -125.5 24.5t-90.5 71t-40 109.5q-5 63 25.5 124.5t99.5 102t172 40.5q96 0 169 -45t111.5 -128t33.5 -193q-5 -97 -49.5 -175.5t-121.5 -123.5
t-176 -45q-79 0 -144 19zM409.5 343q48.5 13 89.5 35q3 53 -14.5 95.5t-52.5 67t-83 24.5q-38 0 -71.5 -16.5t-54 -45t-20.5 -64.5q0 -32 15.5 -57t44.5 -38.5t64 -13.5q34 0 82.5 13z" />
    <glyph glyph-name="zero.lf" horiz-adv-x="775" 
d="M209 26.5q-76 45.5 -117.5 126.5t-41.5 183q0 105 43 186t120 125t176 44q100 0 176.5 -45.5t118 -126.5t41.5 -183q0 -105 -43.5 -186t-120 -125t-175.5 -44q-101 0 -177 45.5zM483.5 145q42.5 25 66 74t23.5 116q0 62 -20.5 111t-62 77.5t-100.5 28.5q-56 0 -98 -25
t-66 -74t-24 -116q0 -62 20.5 -111t62 -77.5t101.5 -28.5q55 0 97.5 25z" />
    <glyph glyph-name="one.lf" horiz-adv-x="451" 
d="M166 514l-120 -19v103l196 74h78v-672h-154v514z" />
    <glyph glyph-name="two.lf" horiz-adv-x="695" 
d="M43 111q26 13 53 25.5t55 26.5q101 48 174 94t119 101t39 113q-2 26 -17.5 47.5t-43 34t-63.5 12.5q-55 0 -94.5 -24.5t-56.5 -64t-6 -82.5h-146q-11 71 19 139.5t103 113t182 44.5q79 0 137.5 -24t91 -64t39.5 -88q34 -217 -330 -393h360v-122h-615v111z" />
    <glyph glyph-name="three.lf" horiz-adv-x="708" 
d="M186.5 6.5q-63.5 25.5 -102 69t-47.5 97.5q-6 30 1 61h145q-3 -16 0 -33q3 -23 25 -43t56.5 -32t71.5 -12q57 0 98 17.5t60.5 45t15.5 55.5q-5 35 -40.5 58t-102.5 23h-138l1 99h132q46 0 75.5 13.5t41.5 34t9 42.5q-5 28 -39.5 48.5t-103.5 20.5q-35 0 -62.5 -13
t-42.5 -34t-14 -44h-145q-9 59 26 107.5t101 76t145 27.5q92 0 155 -22t95.5 -58.5t36.5 -81.5q6 -48 -19.5 -93.5t-77.5 -69.5q49 -20 81 -59t39 -83q9 -55 -24 -111.5t-111 -94t-197 -37.5q-81 0 -144.5 25.5z" />
    <glyph glyph-name="four.lf" horiz-adv-x="621" 
d="M382 108h-409l409 564h141v-438h72l-1 -126h-72v-108h-140v108zM390 229l9 277l-201 -277h192z" />
    <glyph glyph-name="five.lf" horiz-adv-x="685" 
d="M171.5 10q-65.5 29 -102.5 82.5t-36 125.5h145q4 -49 42 -77t107 -28q46 0 83.5 15t59 41t22.5 59q1 51 -37 81t-112 30q-50 0 -87 -9t-59 -25h-130l45 367h486l-8 -125h-361l-15 -148q76 33 182 33q74 0 130.5 -28.5t87 -77.5t29.5 -109q-2 -67 -42.5 -121t-113 -84.5
t-165.5 -30.5q-85 0 -150.5 29z" />
    <glyph glyph-name="six.lf" horiz-adv-x="700" 
d="M189 26q-73 45 -111.5 128t-33.5 193q4 97 48.5 175.5t122 123.5t177.5 45q77 0 142.5 -19t112.5 -51l-52 -106q-30 23 -80.5 39.5t-104.5 16.5q-55 0 -99 -21.5t-72 -60t-33 -88.5q46 21 100 36.5t93 15.5q69 0 125 -24.5t90.5 -71t40.5 -109.5q5 -63 -25.5 -124.5
t-99.5 -102t-172 -40.5q-96 0 -169 45zM424 123.5q34 16.5 54.5 45t21.5 64.5q1 49 -35.5 79t-90.5 30q-33 0 -81.5 -13t-89.5 -35q-4 -53 13.5 -95.5t53 -67t83.5 -24.5q37 0 71 16.5z" />
    <glyph glyph-name="seven.lf" horiz-adv-x="586" 
d="M400 538h-386v134h620l-391 -672h-160z" />
    <glyph glyph-name="eight.lf" horiz-adv-x="740" 
d="M188.5 6q-69.5 25 -105.5 68t-44 96q-9 60 27 111t104 79q-35 19 -58.5 52t-27.5 67q-7 50 19 98.5t91.5 81t172.5 32.5q93 0 156 -23.5t95 -62t40 -83.5q7 -46 -18.5 -90.5t-79.5 -71.5q54 -17 88 -56.5t40 -87.5q7 -60 -25.5 -113.5t-108.5 -87.5t-192 -34
q-104 0 -173.5 25zM459.5 124.5q40.5 16.5 58 42t13.5 52.5q-6 40 -45 62.5t-123 22.5q-81 0 -125 -28.5t-43 -72.5q0 -24 17 -46t54 -35.5t93 -13.5q60 0 100.5 16.5zM479 425q40 25 33 68q-6 36 -44.5 56.5t-103.5 20.5q-49 0 -81 -14t-46 -36.5t-10 -47.5q5 -32 37 -52
t99 -20q76 0 116 25z" />
    <glyph glyph-name="nine.lf" horiz-adv-x="713" 
d="M167 0q-65 19 -112 51l52 106q30 -23 80 -39.5t105 -16.5t99 21.5t71.5 60t33.5 88.5q-46 -21 -100 -36.5t-93 -15.5q-69 0 -125.5 24.5t-90.5 71t-40 109.5q-5 63 25.5 124.5t99.5 102t172 40.5q96 0 169 -45t111.5 -128t33.5 -193q-5 -97 -49.5 -175.5t-121.5 -123.5
t-176 -45q-79 0 -144 19zM409.5 343q48.5 13 89.5 35q3 53 -14.5 95.5t-52.5 67t-83 24.5q-38 0 -71.5 -16.5t-54 -45t-20.5 -64.5q0 -32 15.5 -57t44.5 -38.5t64 -13.5q34 0 82.5 13z" />
    </font>
</defs>
</svg>
