<?xml version="1.0" standalone="no"?>
<!DOCTYPE svg PUBLIC "-//W3C//DTD SVG 1.1//EN" "http://www.w3.org/Graphics/SVG/1.1/DTD/svg11.dtd" >
<svg xmlns="http://www.w3.org/2000/svg" xmlns:xlink="http://www.w3.org/1999/xlink" version="1.1">
<metadata>
Created by FontForge 20201107 at Sat Dec  7 23:12:27 2024
 By 
</metadata>
<defs>
<font id="NewakeDemo" horiz-adv-x="1335" >
  <font-face 
    font-family="Newake Demo"
    font-weight="400"
    font-stretch="normal"
    units-per-em="2048"
    panose-1="0 0 0 0 0 0 0 0 0 0"
    ascent="1638"
    descent="-410"
    x-height="1096"
    cap-height="1430"
    bbox="-0.0588235 -461 1685.15 1471"
    underline-thickness="0"
    underline-position="0"
    unicode-range="U+000A-00AD"
  />
<missing-glyph horiz-adv-x="1079" 
d="M102 1434h875v-1434h-875v1434zM160 1393l379 -633l381 633h-760zM514 717l-369 614v-1231zM541 674l-379 -631h758zM565 717l371 -621v1239z" />
    <glyph glyph-name=".notdef" horiz-adv-x="1079" 
d="M102 1434h875v-1434h-875v1434zM160 1393l379 -633l381 633h-760zM514 717l-369 614v-1231zM541 674l-379 -631h758zM565 717l371 -621v1239z" />
    <glyph glyph-name=".null" horiz-adv-x="0" 
 />
    <glyph glyph-name=".null" horiz-adv-x="0" 
 />
    <glyph glyph-name="nonmarkingreturn" horiz-adv-x="682" 
 />
    <glyph glyph-name="controlLF" unicode="&#xa;" horiz-adv-x="0" 
 />
    <glyph glyph-name="controlCR" unicode="&#xd;" horiz-adv-x="0" 
 />
    <glyph glyph-name="space" unicode=" " horiz-adv-x="286" 
 />
    <glyph glyph-name="zero" unicode="0" horiz-adv-x="1370" 
d="M683 1469q129 0 244.5 -57.5t198.5 -156t131.5 -235.5t48.5 -290q0 -204 -82.5 -373.5t-225.5 -267t-315 -97.5q-129 0 -244 57.5t-198 156t-131.5 235t-48.5 289.5t48.5 290t131.5 235.5t198 156t244 57.5zM683 329q115 0 196 117.5t81 283.5t-81 283.5t-196 117.5
t-195.5 -117.5t-80.5 -283.5t80.5 -283.5t195.5 -117.5z" />
    <glyph glyph-name="one" unicode="1" horiz-adv-x="731" 
d="M650 1445q18 0 18 -17v-1395q0 -7 -5 -12.5t-13 -5.5h-329q-17 0 -17 18v1065q0 8 -5 13t-13 5h-206q-8 0 -13.5 6t-4.5 14l26 293q2 16 18 16h544z" />
    <glyph glyph-name="two" unicode="2" horiz-adv-x="1124" 
d="M1044 330q17 0 17 -17v-280q0 -18 -17 -18h-965q-7 0 -12.5 5.5t-5.5 12.5v249q0 8 6 13l9 8q32 29 98 87.5t98 88.5q32 29 98 87.5t98 88.5l4 4q43 38 63 56t52 49.5t46.5 52.5t32 50.5t24.5 58.5t7 62q0 75 -39.5 116.5t-111.5 41.5q-110 0 -137 -139q-3 -17 -21 -13
l-300 75q-7 1 -11 7.5t-2 13.5q23 100 84 183q44 62 103.5 105t120 61t103.5 24.5t83 6.5q222 0 357 -137q128 -130 128 -321q-1 -127 -53.5 -228.5t-176.5 -220.5q-51 -50 -155 -150q-9 -9 -28 -26.5t-28 -26.5q-8 -8 -4 -19t16 -11h419z" />
    <glyph glyph-name="three" unicode="3" horiz-adv-x="1161" 
d="M1099 478v-1v-2q0 -48 -8 -87q-27 -138 -131.5 -242t-251.5 -139q-64 -15 -131 -15t-131 15q-139 34 -240 128t-135 223q-2 7 -7 29q-1 2 -1.5 8t-0.5 9q-2 16 12 19l280 72q7 2 13.5 -2t7.5 -11q12 -46 38 -82q23 -44 65 -70t93 -25q70 1 121 49.5t55 118.5
q4 76 -48 131.5t-128 56.5h-74q-7 0 -12.5 5t-5.5 12l-1 199q0 17 17 17h73q58 0 100 42t42 101q0 64 -48 107t-113 35q-22 -2 -51 -17l-7 -4q-15 -10 -23 -18q-18 -18 -29 -41q-16 -29 -25 -84q-2 -8 -8.5 -12t-13.5 -2l-265 69q-15 4 -13 19q7 69 34 127q54 115 170.5 184
t258.5 69q126 0 233 -54.5t169 -148.5t62 -205v-18q0 -1 -0.5 -2.5t-0.5 -2.5q0 -10 -1 -15q0 -1 -0.5 -5t-0.5 -5t-0.5 -4t-0.5 -4q-15 -95 -80 -177q-11 -12 1 -24l1 -1q1 -1 2 -1q5 -5 7 -8q1 -1 3 -2.5t3 -2.5q2 -3 6 -7t6 -7q88 -103 108 -234q0 -1 1 -4t1 -5
q1 -4 1 -11q1 -6 1 -18l1 -7v-3v-7v-7v-1z" />
    <glyph glyph-name="four" unicode="4" horiz-adv-x="1165" 
d="M1086 558q17 0 17 -17v-266q0 -18 -17 -18h-64q-17 0 -17 -17v-211q0 -17 -18 -17h-329q-17 0 -17 18l7 209q0 7 -5 12.5t-13 5.5h-551q-7 0 -12.5 5.5t-5.5 12.5v235q0 3 2 7l397 916q6 11 16 11h520q17 0 17 -18l-8 -850q0 -18 17 -18h64zM675 582l7 467q0 14 -13.5 17
t-19.5 -10l-207 -466q-4 -8 1 -16.5t15 -8.5h200q7 0 12 5t5 12z" />
    <glyph glyph-name="five" unicode="5" horiz-adv-x="1185" 
d="M1002 840q58 -68 89.5 -153.5t31.5 -173.5q0 -95 -36 -187.5t-101 -165.5q-155 -173 -406 -173q-184 0 -324.5 95t-193.5 253q-2 8 2 15t11 8l124 25l190 38q14 2 19 -9q21 -44 62 -76l1 -1q2 -1 6 -4t6 -4v-1q52 -33 113 -33q23 0 40 4q51 10 94 45q2 1 5 3.5t5.5 4.5
t4.5 4q7 7 19 23q13 17 25 44q6 12 8 19q4 15 5 20l3 21q1 7 1 22q0 87 -61.5 148.5t-148.5 61.5q-67 0 -120 -38t-76 -99q-5 -14 -20 -10l-128 31l-144 36q-15 4 -13 18l50 778q2 16 17 16h812q16 0 18 -16l18 -298q1 -8 -4.5 -13.5t-12.5 -5.5h-524q-15 0 -17 -15l-9 -98
q-1 -10 6.5 -15.5t16.5 -1.5q61 25 165 25q230 0 371 -167z" />
    <glyph glyph-name="six" unicode="6" horiz-adv-x="1273" 
d="M934 1050q127 -76 202 -205.5t75 -281.5q0 -116 -45.5 -221.5t-122.5 -182t-183.5 -122t-223.5 -45.5q-89 0 -184 31h-2l-15 6q-137 51 -233.5 162t-127.5 254q-6 32 -8 44q-5 40 -5 74q0 79 24 161q20 65 92 180q1 2 10.5 15t25 35t27.5 40q4 6 40 56t57 79
q177 247 221 309q4 7 14 7h394q10 0 15 -9.5t-1 -17.5l-205 -287q-3 -5 -1 -10t7 -6q1 0 2 -1t2 -1q19 -5 25 -7q2 -1 6 -2.5t6 -1.5l18 -6q3 -1 9 -3.5t9 -3.5q1 -1 5 -3t5 -2q4 -2 13 -6t13 -6q2 -1 5.5 -2.5t5.5 -2.5q1 0 8 -5q3 -2 9 -5.5t9 -4.5q1 0 1 -1zM687 325
q92 12 154.5 82t62.5 164q0 92 -60.5 162t-151.5 84q-20 3 -38 3q-57 0 -106 -23q-60 -27 -98.5 -81t-45.5 -121q-1 -8 -1 -24q0 -103 73.5 -175.5t177.5 -72.5q11 0 33 2z" />
    <glyph glyph-name="seven" unicode="7" horiz-adv-x="1077" 
d="M997 1445q9 0 14 -7.5t2 -15.5l-542 -1397q-5 -11 -16 -11h-376q-9 0 -14.5 8t-1.5 16l97 218v1l344 835q4 8 -1.5 16t-14.5 8h-403q-18 0 -18 17l26 295q0 17 18 17h886z" />
    <glyph glyph-name="eight" unicode="8" horiz-adv-x="1167" 
d="M1105 478v-1l1 -2q0 -45 -9 -88q-27 -138 -131 -241.5t-251 -138.5q-65 -15 -132 -15t-131 15q-147 35 -250.5 138.5t-131.5 241.5q-9 44 -9 88v1h9l-9 1v1v1q0 2 0.5 4t0.5 3v7v3v7q0 5 2 17q0 2 0.5 6t0.5 6t0.5 5t0.5 4q22 137 117 243l2 2q1 0 1 1t1 2l5 5l8 8l2 2
q12 12 2 24q-65 82 -80 178q0 2 -0.5 4t-0.5 3t-0.5 5t-0.5 5q-1 5 -1 15q0 1 -0.5 2.5t-0.5 2.5v19q0 111 62 204.5t168.5 148t232.5 54.5t233 -54.5t169 -148t62 -204.5v-19q0 -1 -0.5 -2.5t-0.5 -2.5q0 -10 -1 -15q0 -1 -0.5 -5t-0.5 -5t-0.5 -3t-0.5 -4
q-15 -96 -80 -178q-10 -12 2 -24l2 -2q1 -2 3 -4.5t4 -3.5q1 -1 3 -2.5t3 -2.5q2 -3 6 -7t6 -7q88 -103 108 -234q0 -1 1 -4t1 -5t0.5 -6t0.5 -6q2 -12 2 -17v-7v-4v-6v-7v-1zM467 1149q-47 -47 -47 -113q0 -46 23 -83q22 -34 59 -54.5t81 -20.5q89 0 137 69q27 41 27 89
q0 66 -47 113q-47 45 -117 45q-69 0 -116 -45zM583 292q82 0 140.5 57.5t58.5 138.5t-58.5 138.5t-140.5 57.5t-140 -57.5t-58 -138.5t58 -138.5t140 -57.5z" />
    <glyph glyph-name="nine" unicode="9" horiz-adv-x="1273" 
d="M1206 969q5 -40 5 -74q0 -83 -23 -161q-21 -67 -92 -181q-18 -25 -64 -89q-15 -21 -47.5 -67t-48.5 -68q-134 -186 -221 -310q-4 -7 -14 -7h-394q-10 0 -15 9.5t1 17.5l205 288q3 5 1 10t-7 6q-1 0 -2.5 0.5t-2.5 0.5q-11 3 -25 8l-12 3q-3 1 -8.5 3.5t-8.5 3.5
q-12 4 -18 7q-1 0 -5 1.5t-5 2.5q-5 2 -14 6.5l-13 6.5l-10 5q-3 1 -9 5q-3 2 -8.5 5.5t-8.5 4.5l-1 1q-1 1 -2 1q-127 76 -202.5 205.5t-75.5 281.5q0 155 77 286.5t209.5 208t288.5 76.5q92 0 184 -30h1l1 -1q2 -1 7 -2.5t8 -2.5q137 -51 234 -162.5t128 -254.5
q3 -17 7 -44zM886 872q1 8 1 23q0 103 -73.5 176t-177.5 73q-11 0 -33 -2q-92 -12 -154.5 -82.5t-62.5 -164.5q0 -92 60 -162t151 -84q19 -3 39 -3q55 0 106 24q60 27 98.5 81t45.5 121z" />
    <glyph glyph-name="A" unicode="A" horiz-adv-x="1406" 
d="M1403 21q3 -9 -2.5 -16.5t-14.5 -7.5h-353q-16 0 -21 15l-75 226q-4 13 -16 13h-438q-13 0 -17 -13l-75 -228q-4 -13 -17 -13h-356q-9 0 -14.5 7.5t-2.5 16.5l526 1395q5 15 21 15h310q13 0 18 -13zM812 543q9 0 14.5 7.5t2.5 16.5l-110 334q-4 13 -17 13t-17 -13
l-111 -335q-3 -8 2.5 -15.5t14.5 -7.5h221z" />
    <glyph glyph-name="A" unicode="&#xc5;" horiz-adv-x="1406" 
d="M1403 21q3 -9 -2.5 -16.5t-14.5 -7.5h-353q-16 0 -21 15l-75 226q-4 13 -16 13h-438q-13 0 -17 -13l-75 -228q-4 -13 -17 -13h-356q-9 0 -14.5 7.5t-2.5 16.5l526 1395q5 15 21 15h310q13 0 18 -13zM812 543q9 0 14.5 7.5t2.5 16.5l-110 334q-4 13 -17 13t-17 -13
l-111 -335q-3 -8 2.5 -15.5t14.5 -7.5h221z" />
    <glyph glyph-name="A" unicode="&#xc4;" horiz-adv-x="1406" 
d="M1403 21q3 -9 -2.5 -16.5t-14.5 -7.5h-353q-16 0 -21 15l-75 226q-4 13 -16 13h-438q-13 0 -17 -13l-75 -228q-4 -13 -17 -13h-356q-9 0 -14.5 7.5t-2.5 16.5l526 1395q5 15 21 15h310q13 0 18 -13zM812 543q9 0 14.5 7.5t2.5 16.5l-110 334q-4 13 -17 13t-17 -13
l-111 -335q-3 -8 2.5 -15.5t14.5 -7.5h221z" />
    <glyph glyph-name="A" unicode="&#xc3;" horiz-adv-x="1406" 
d="M1403 21q3 -9 -2.5 -16.5t-14.5 -7.5h-353q-16 0 -21 15l-75 226q-4 13 -16 13h-438q-13 0 -17 -13l-75 -228q-4 -13 -17 -13h-356q-9 0 -14.5 7.5t-2.5 16.5l526 1395q5 15 21 15h310q13 0 18 -13zM812 543q9 0 14.5 7.5t2.5 16.5l-110 334q-4 13 -17 13t-17 -13
l-111 -335q-3 -8 2.5 -15.5t14.5 -7.5h221z" />
    <glyph glyph-name="A" unicode="&#xc2;" horiz-adv-x="1406" 
d="M1403 21q3 -9 -2.5 -16.5t-14.5 -7.5h-353q-16 0 -21 15l-75 226q-4 13 -16 13h-438q-13 0 -17 -13l-75 -228q-4 -13 -17 -13h-356q-9 0 -14.5 7.5t-2.5 16.5l526 1395q5 15 21 15h310q13 0 18 -13zM812 543q9 0 14.5 7.5t2.5 16.5l-110 334q-4 13 -17 13t-17 -13
l-111 -335q-3 -8 2.5 -15.5t14.5 -7.5h221z" />
    <glyph glyph-name="A" unicode="&#xc1;" horiz-adv-x="1406" 
d="M1403 21q3 -9 -2.5 -16.5t-14.5 -7.5h-353q-16 0 -21 15l-75 226q-4 13 -16 13h-438q-13 0 -17 -13l-75 -228q-4 -13 -17 -13h-356q-9 0 -14.5 7.5t-2.5 16.5l526 1395q5 15 21 15h310q13 0 18 -13zM812 543q9 0 14.5 7.5t2.5 16.5l-110 334q-4 13 -17 13t-17 -13
l-111 -335q-3 -8 2.5 -15.5t14.5 -7.5h221z" />
    <glyph glyph-name="A" unicode="&#xc0;" horiz-adv-x="1406" 
d="M1403 21q3 -9 -2.5 -16.5t-14.5 -7.5h-353q-16 0 -21 15l-75 226q-4 13 -16 13h-438q-13 0 -17 -13l-75 -228q-4 -13 -17 -13h-356q-9 0 -14.5 7.5t-2.5 16.5l526 1395q5 15 21 15h310q13 0 18 -13zM812 543q9 0 14.5 7.5t2.5 16.5l-110 334q-4 13 -17 13t-17 -13
l-111 -335q-3 -8 2.5 -15.5t14.5 -7.5h221z" />
    <glyph glyph-name="B" unicode="B" horiz-adv-x="1171" 
d="M915 755q193 -92 193 -319q0 -94 -35 -178.5t-95 -134.5q-94 -80 -183.5 -102t-272.5 -22h-442q-8 0 -13.5 5.5t-5.5 12.5v1395q0 17 18 17h497q112 0 205 -25.5t151 -71.5v0q126 -95 126 -280q0 -75 -38 -145.5t-108 -122.5q-8 -6 -7 -15.5t10 -13.5zM405 1085v-210
q0 -7 5.5 -12.5t12.5 -5.5h113q69 0 107 16q77 31 77 113q0 77 -73 103q-37 14 -111 14h-113q-7 0 -12.5 -5.5t-5.5 -12.5zM686 340q77 31 77 118q0 79 -72 106q-37 15 -112 15h-157q-18 0 -18 -17v-220q0 -8 5 -13t13 -5h157q69 0 107 16z" />
    <glyph glyph-name="C" unicode="C" horiz-adv-x="1443" 
d="M1373 279q14 -10 3 -25q-104 -137 -257 -214t-323 -77q-149 0 -285 59.5t-234.5 160.5t-157 240t-58.5 292t58.5 292t157 240t234.5 160.5t285 59.5q180 0 338 -84q137 -73 235 -197q10 -13 -4 -24l-243 -178q-14 -10 -24 2q-57 67 -135.5 103.5t-166.5 36.5
q-167 0 -284.5 -120.5t-117.5 -290.5t117.5 -290.5t284.5 -120.5q90 0 171.5 39.5t138.5 110.5q11 12 24 3z" />
    <glyph glyph-name="C" unicode="&#xc7;" horiz-adv-x="1443" 
d="M1373 279q14 -10 3 -25q-104 -137 -257 -214t-323 -77q-149 0 -285 59.5t-234.5 160.5t-157 240t-58.5 292t58.5 292t157 240t234.5 160.5t285 59.5q180 0 338 -84q137 -73 235 -197q10 -13 -4 -24l-243 -178q-14 -10 -24 2q-57 67 -135.5 103.5t-166.5 36.5
q-167 0 -284.5 -120.5t-117.5 -290.5t117.5 -290.5t284.5 -120.5q90 0 171.5 39.5t138.5 110.5q11 12 24 3z" />
    <glyph glyph-name="D" unicode="D" horiz-adv-x="1327" 
d="M837 1374q193 -85 309 -264.5t116 -394.5q0 -212 -111 -387q-109 -172 -288 -260q-49 -24 -80.5 -35.5t-103.5 -22.5t-172 -11h-428q-7 0 -12.5 5.5t-5.5 12.5v1396q0 7 5.5 12.5t12.5 5.5h417q212 0 341 -57zM803 444q99 101 99 272q-1 76 -23 138t-56 101.5t-81.5 68.5
t-90.5 43.5t-91.5 23t-77.5 10t-54 0.5q-8 0 -13 -5.5t-5 -12.5v-732q0 -8 5.5 -13.5t12.5 -5.5h20q114 0 209.5 30t145.5 82z" />
    <glyph glyph-name="E" unicode="E" horiz-adv-x="968" 
d="M888 328q8 0 13.5 -5.5t4.5 -13.5l-29 -294q-2 -16 -18 -16h-778q-8 0 -14 6t-6 14v1392q0 7 5.5 12.5t12.5 5.5h780q16 0 18 -16l29 -292q1 -8 -4.5 -14.5t-13.5 -6.5h-445q-17 0 -17 -18v-174q0 -18 17 -18h324q17 0 17 -18v-292q0 -8 -5 -13t-13 -5h-323
q-17 0 -17 -18v-198q0 -8 5 -13t13 -5h444z" />
    <glyph glyph-name="E" unicode="&#xcb;" horiz-adv-x="968" 
d="M888 328q8 0 13.5 -5.5t4.5 -13.5l-29 -294q-2 -16 -18 -16h-778q-8 0 -14 6t-6 14v1392q0 7 5.5 12.5t12.5 5.5h780q16 0 18 -16l29 -292q1 -8 -4.5 -14.5t-13.5 -6.5h-445q-17 0 -17 -18v-174q0 -18 17 -18h324q17 0 17 -18v-292q0 -8 -5 -13t-13 -5h-323
q-17 0 -17 -18v-198q0 -8 5 -13t13 -5h444z" />
    <glyph glyph-name="E" unicode="&#xca;" horiz-adv-x="968" 
d="M888 328q8 0 13.5 -5.5t4.5 -13.5l-29 -294q-2 -16 -18 -16h-778q-8 0 -14 6t-6 14v1392q0 7 5.5 12.5t12.5 5.5h780q16 0 18 -16l29 -292q1 -8 -4.5 -14.5t-13.5 -6.5h-445q-17 0 -17 -18v-174q0 -18 17 -18h324q17 0 17 -18v-292q0 -8 -5 -13t-13 -5h-323
q-17 0 -17 -18v-198q0 -8 5 -13t13 -5h444z" />
    <glyph glyph-name="E" unicode="&#xc9;" horiz-adv-x="968" 
d="M888 328q8 0 13.5 -5.5t4.5 -13.5l-29 -294q-2 -16 -18 -16h-778q-8 0 -14 6t-6 14v1392q0 7 5.5 12.5t12.5 5.5h780q16 0 18 -16l29 -292q1 -8 -4.5 -14.5t-13.5 -6.5h-445q-17 0 -17 -18v-174q0 -18 17 -18h324q17 0 17 -18v-292q0 -8 -5 -13t-13 -5h-323
q-17 0 -17 -18v-198q0 -8 5 -13t13 -5h444z" />
    <glyph glyph-name="E" unicode="&#xc8;" horiz-adv-x="968" 
d="M888 328q8 0 13.5 -5.5t4.5 -13.5l-29 -294q-2 -16 -18 -16h-778q-8 0 -14 6t-6 14v1392q0 7 5.5 12.5t12.5 5.5h780q16 0 18 -16l29 -292q1 -8 -4.5 -14.5t-13.5 -6.5h-445q-17 0 -17 -18v-174q0 -18 17 -18h324q17 0 17 -18v-292q0 -8 -5 -13t-13 -5h-323
q-17 0 -17 -18v-198q0 -8 5 -13t13 -5h444z" />
    <glyph glyph-name="F" unicode="F" horiz-adv-x="937" 
d="M849 1414l26 -293q1 -8 -4.5 -14t-13.5 -6h-413q-8 0 -13 -5.5t-5 -12.5v-177q0 -18 17 -18h305q7 0 12.5 -5.5t5.5 -13.5l-3 -292q0 -7 -5.5 -12.5t-12.5 -5.5h-301q-8 0 -13 -5.5t-5 -12.5v-523q0 -8 -5 -13t-13 -5h-329q-7 0 -12.5 5t-5.5 13v1395q0 17 18 17h752
q16 0 18 -16z" />
    <glyph glyph-name="G" unicode="G" horiz-adv-x="1595" 
d="M1526 789q5 -50 5 -74q0 -113 -31 -218q-36 -124 -111 -227q-102 -141 -256 -223q-157 -84 -337 -84q-149 0 -285 59.5t-234.5 160.5t-157 240t-58.5 292t58.5 292t157 240t234.5 160.5t285 59.5q181 0 337 -83q132 -69 230 -190q7 -8 5.5 -18.5t-9.5 -16.5l-236 -176
q-13 -11 -24 2q-57 67 -136.5 104t-166.5 37q-167 0 -284.5 -120.5t-117.5 -290.5t117.5 -290.5t284.5 -120.5q95 0 179 43t142 121q6 8 1 17.5t-15 9.5h-343q-8 0 -13 5.5t-5 12.5v275q0 8 5 13t13 5h748q16 0 18 -17z" />
    <glyph glyph-name="H" unicode="H" horiz-adv-x="1298" 
d="M1216 1430q8 0 13 -5t5 -13v-1394q0 -8 -5 -13t-13 -5h-329q-7 0 -12.5 5t-5.5 13v525q0 18 -17 18h-409q-17 0 -17 -18v-525q0 -8 -5 -13t-13 -5h-329q-7 0 -12.5 5t-5.5 13v1394q0 8 5.5 13t12.5 5h329q18 0 18 -17v-507q0 -18 17 -18h408q7 0 12.5 5t5.5 13v506
q0 8 5.5 13t12.5 5h329z" />
    <glyph glyph-name="I" unicode="I" horiz-adv-x="489" 
d="M408 1430q8 0 13 -5t5 -13v-1394q0 -8 -5 -13t-13 -5h-329q-7 0 -12.5 5t-5.5 13v1394q0 8 5.5 13t12.5 5h329z" />
    <glyph glyph-name="I" unicode="&#xcf;" horiz-adv-x="489" 
d="M408 1430q8 0 13 -5t5 -13v-1394q0 -8 -5 -13t-13 -5h-329q-7 0 -12.5 5t-5.5 13v1394q0 8 5.5 13t12.5 5h329z" />
    <glyph glyph-name="I" unicode="&#xce;" horiz-adv-x="489" 
d="M408 1430q8 0 13 -5t5 -13v-1394q0 -8 -5 -13t-13 -5h-329q-7 0 -12.5 5t-5.5 13v1394q0 8 5.5 13t12.5 5h329z" />
    <glyph glyph-name="I" unicode="&#xcd;" horiz-adv-x="489" 
d="M408 1430q8 0 13 -5t5 -13v-1394q0 -8 -5 -13t-13 -5h-329q-7 0 -12.5 5t-5.5 13v1394q0 8 5.5 13t12.5 5h329z" />
    <glyph glyph-name="I" unicode="&#xcc;" horiz-adv-x="489" 
d="M408 1430q8 0 13 -5t5 -13v-1394q0 -8 -5 -13t-13 -5h-329q-7 0 -12.5 5t-5.5 13v1394q0 8 5.5 13t12.5 5h329z" />
    <glyph glyph-name="J" unicode="J" horiz-adv-x="1163" 
d="M1083 1434q7 0 12.5 -5t5.5 -13v-839q0 -170 -34 -266t-106 -170q-148 -154 -374 -154q-38 0 -78 5t-96 19t-112 47t-100 81q-80 89 -108.5 173t-31.5 214q0 8 5.5 13t12.5 5h312q16 0 18 -17q4 -69 23 -117v-1q42 -95 151 -95q114 0 149 88q22 53 22 175v839q0 8 5 13
t13 5h311z" />
    <glyph glyph-name="K" unicode="K" horiz-adv-x="1294" 
d="M1226 27q6 -8 1 -17.5t-15 -9.5h-401q-11 0 -16 9l-336 557q-7 11 -20 7.5t-13 -16.5v-539q0 -8 -5 -13t-13 -5h-329q-7 0 -12.5 5t-5.5 13v1394q0 8 5.5 13t12.5 5h329q8 0 13 -5t5 -13v-528q0 -9 6 -14t14 -3.5t13 8.5l349 547q5 8 15 8h340q11 0 16 -9t-1 -18
l-435 -656q-7 -10 0 -20z" />
    <glyph glyph-name="L" unicode="L" horiz-adv-x="966" 
d="M886 332q7 0 12.5 -5.5t4.5 -13.5l-31 -295q-2 -15 -17 -15h-776q-18 0 -18 17v1397q0 17 18 17h329q18 0 18 -17v-1067q0 -18 17 -18h443z" />
    <glyph glyph-name="M" unicode="M" horiz-adv-x="1748" 
d="M1685 23q1 -8 -4.5 -14t-12.5 -6h-318q-15 0 -17 16l-67 725q-1 14 -15 15.5t-18 -12.5l-235 -732q-3 -12 -16 -12h-217q-14 0 -17 12l-234 732q-4 14 -18.5 12.5t-15.5 -15.5l-67 -725q-2 -16 -17 -16h-317q-7 0 -12.5 6t-4.5 14l179 1397q2 15 17 15h367q13 0 16 -12
l218 -709q4 -12 16.5 -12t16.5 12l211 709q3 12 17 12h368q16 0 18 -15z" />
    <glyph glyph-name="N" unicode="N" horiz-adv-x="1304" 
d="M1224 1433q17 0 17 -17v-1396q0 -17 -17 -17h-290q-10 0 -14 7l-485 680q-7 10 -19 6.5t-12 -16.5l6 -659q0 -18 -17 -18h-314q-18 0 -18 17v1396q0 17 18 17h287q10 0 14 -7l487 -732q7 -11 19.5 -7.5t12.5 16.5l-7 713q0 17 17 17h315z" />
    <glyph glyph-name="N" unicode="&#xd1;" horiz-adv-x="1304" 
d="M1224 1433q17 0 17 -17v-1396q0 -17 -17 -17h-290q-10 0 -14 7l-485 680q-7 10 -19 6.5t-12 -16.5l6 -659q0 -18 -17 -18h-314q-18 0 -18 17v1396q0 17 18 17h287q10 0 14 -7l487 -732q7 -11 19.5 -7.5t12.5 16.5l-7 713q0 17 17 17h315z" />
    <glyph glyph-name="O" unicode="O" horiz-adv-x="1521" 
d="M759 1471q149 0 285 -59.5t234.5 -160.5t157 -240t58.5 -292t-58.5 -292t-157 -240t-234.5 -160.5t-285 -59.5t-285 59.5t-234.5 160.5t-156.5 240t-58 292t58 292t156.5 240t234.5 160.5t285 59.5zM759 308q167 0 284.5 120.5t117.5 290.5t-117.5 290.5t-284.5 120.5
t-284.5 -120.5t-117.5 -290.5t117.5 -290.5t284.5 -120.5z" />
    <glyph glyph-name="O" unicode="&#xd8;" horiz-adv-x="1521" 
d="M759 1471q149 0 285 -59.5t234.5 -160.5t157 -240t58.5 -292t-58.5 -292t-157 -240t-234.5 -160.5t-285 -59.5t-285 59.5t-234.5 160.5t-156.5 240t-58 292t58 292t156.5 240t234.5 160.5t285 59.5zM759 308q167 0 284.5 120.5t117.5 290.5t-117.5 290.5t-284.5 120.5
t-284.5 -120.5t-117.5 -290.5t117.5 -290.5t284.5 -120.5z" />
    <glyph glyph-name="O" unicode="&#xd6;" horiz-adv-x="1521" 
d="M759 1471q149 0 285 -59.5t234.5 -160.5t157 -240t58.5 -292t-58.5 -292t-157 -240t-234.5 -160.5t-285 -59.5t-285 59.5t-234.5 160.5t-156.5 240t-58 292t58 292t156.5 240t234.5 160.5t285 59.5zM759 308q167 0 284.5 120.5t117.5 290.5t-117.5 290.5t-284.5 120.5
t-284.5 -120.5t-117.5 -290.5t117.5 -290.5t284.5 -120.5z" />
    <glyph glyph-name="O" unicode="&#xd5;" horiz-adv-x="1521" 
d="M759 1471q149 0 285 -59.5t234.5 -160.5t157 -240t58.5 -292t-58.5 -292t-157 -240t-234.5 -160.5t-285 -59.5t-285 59.5t-234.5 160.5t-156.5 240t-58 292t58 292t156.5 240t234.5 160.5t285 59.5zM759 308q167 0 284.5 120.5t117.5 290.5t-117.5 290.5t-284.5 120.5
t-284.5 -120.5t-117.5 -290.5t117.5 -290.5t284.5 -120.5z" />
    <glyph glyph-name="O" unicode="&#xd4;" horiz-adv-x="1521" 
d="M759 1471q149 0 285 -59.5t234.5 -160.5t157 -240t58.5 -292t-58.5 -292t-157 -240t-234.5 -160.5t-285 -59.5t-285 59.5t-234.5 160.5t-156.5 240t-58 292t58 292t156.5 240t234.5 160.5t285 59.5zM759 308q167 0 284.5 120.5t117.5 290.5t-117.5 290.5t-284.5 120.5
t-284.5 -120.5t-117.5 -290.5t117.5 -290.5t284.5 -120.5z" />
    <glyph glyph-name="O" unicode="&#xd3;" horiz-adv-x="1521" 
d="M759 1471q149 0 285 -59.5t234.5 -160.5t157 -240t58.5 -292t-58.5 -292t-157 -240t-234.5 -160.5t-285 -59.5t-285 59.5t-234.5 160.5t-156.5 240t-58 292t58 292t156.5 240t234.5 160.5t285 59.5zM759 308q167 0 284.5 120.5t117.5 290.5t-117.5 290.5t-284.5 120.5
t-284.5 -120.5t-117.5 -290.5t117.5 -290.5t284.5 -120.5z" />
    <glyph glyph-name="O" unicode="&#xd2;" horiz-adv-x="1521" 
d="M759 1471q149 0 285 -59.5t234.5 -160.5t157 -240t58.5 -292t-58.5 -292t-157 -240t-234.5 -160.5t-285 -59.5t-285 59.5t-234.5 160.5t-156.5 240t-58 292t58 292t156.5 240t234.5 160.5t285 59.5zM759 308q167 0 284.5 120.5t117.5 290.5t-117.5 290.5t-284.5 120.5
t-284.5 -120.5t-117.5 -290.5t117.5 -290.5t284.5 -120.5z" />
    <glyph glyph-name="P" unicode="P" horiz-adv-x="1177" 
d="M950 1329q79 -67 122 -166.5t43 -214.5q0 -111 -40.5 -214.5t-107.5 -161.5q-76 -65 -163.5 -94.5t-244.5 -29.5h-116q-17 0 -17 -17v-411q0 -17 -18 -17h-329q-18 0 -18 17v1396q0 17 18 17h441q180 0 273.5 -25.5t156.5 -78.5zM685 798q81 36 81 145q0 103 -85 140
q-48 21 -144 21h-94q-17 0 -17 -17v-292q0 -18 17 -18h107q89 0 135 21z" />
    <glyph glyph-name="Q" unicode="Q" horiz-adv-x="1595" 
d="M1421 298l87 -90q12 -12 0 -24l-190 -194q-12 -12 -24 0l-87 88q-10 10 -21 3q-179 -115 -390 -115q-147 0 -281.5 57t-238.5 163q-106 108 -161 248.5t-55 283.5t55 283.5t161 248.5q104 106 238.5 163t281.5 57t281 -56.5t238 -163.5q183 -188 211 -451
q26 -261 -108 -480q-7 -11 3 -21zM1176 584q37 113 11.5 226.5t-107.5 197.5q-118 121 -284 121q-89 0 -168 -37t-137 -106q-99 -117 -97 -272t103 -270q64 -72 151 -107.5t182 -27.5q54 5 102 22q7 2 8.5 10t-3.5 13l-3 4l-93 95q-12 12 0 24l190 194q13 13 25 0l91 -93
q7 -7 16.5 -5t12.5 11z" />
    <glyph glyph-name="R" unicode="R" horiz-adv-x="1177" 
d="M886 498l207 -473q4 -8 -1.5 -16t-14.5 -8h-358q-11 0 -16 10l-187 429q-5 10 -16 10h-57q-17 0 -17 -17v-410q0 -7 -5 -12.5t-13 -5.5h-329q-7 0 -12.5 5.5t-5.5 12.5v1395q0 17 18 17h441q180 0 273.5 -25.5t156.5 -78.5q79 -67 122 -166t43 -214q0 -111 -40.5 -215
t-107.5 -162q-39 -33 -74 -55q-12 -7 -7 -21zM685 800q81 36 81 145q0 104 -85 141q-46 20 -144 20h-94q-17 0 -17 -17v-292q0 -18 17 -18h107q89 0 135 21z" />
    <glyph glyph-name="S" unicode="S" horiz-adv-x="1105" 
d="M715 848q177 -81 252.5 -176t75.5 -236q0 -166 -79 -282q-122 -178 -410 -178q-238 0 -370 123q-89 87 -122 222q-4 18 13 21l326 67q15 3 20 -12q10 -35 29 -59t41 -33t35.5 -12t24.5 -3q57 0 93.5 40.5t36.5 90.5q0 49 -45 78.5t-208 99.5l-16 7q-30 13 -49 21t-59 30
t-67 42.5t-61.5 54.5t-55 70.5t-35.5 86.5t-15 106q0 104 43 190t113 140t156.5 83.5t177.5 29.5q117 0 214 -41q29 -12 57 -29.5t63 -47.5t61 -75.5t35 -98.5q2 -17 -13 -20l-303 -75q-15 -4 -20 9q-28 64 -105 64q-46 0 -81.5 -29.5t-35.5 -76.5q0 -45 44.5 -74
t238.5 -118z" />
    <glyph glyph-name="T" unicode="T" horiz-adv-x="966" 
d="M937 1434q17 0 17 -17v-295q0 -17 -17 -17h-254q-7 0 -12.5 -5.5t-5.5 -12.5v-1067q0 -17 -17 -17h-329q-18 0 -18 17v1067q0 18 -17 18h-256q-18 0 -18 17v295q0 17 18 17h909z" />
    <glyph glyph-name="U" unicode="U" horiz-adv-x="1198" 
d="M1119 1431q17 0 17 -17v-843q0 -172 -35.5 -269t-109.5 -172q-78 -80 -171.5 -118.5t-215.5 -38.5q-39 0 -80.5 5t-99 19.5t-115.5 48t-103 82.5q-88 97 -116.5 191.5t-28.5 251.5v843q0 17 18 17h329q18 0 18 -17v-843q0 -106 22 -159q18 -40 59.5 -61.5t93.5 -21.5
q54 0 94.5 19.5t55.5 56.5q21 49 21 166v843q0 17 17 17h330z" />
    <glyph glyph-name="U" unicode="&#xdc;" horiz-adv-x="1198" 
d="M1119 1431q17 0 17 -17v-843q0 -172 -35.5 -269t-109.5 -172q-78 -80 -171.5 -118.5t-215.5 -38.5q-39 0 -80.5 5t-99 19.5t-115.5 48t-103 82.5q-88 97 -116.5 191.5t-28.5 251.5v843q0 17 18 17h329q18 0 18 -17v-843q0 -106 22 -159q18 -40 59.5 -61.5t93.5 -21.5
q54 0 94.5 19.5t55.5 56.5q21 49 21 166v843q0 17 17 17h330z" />
    <glyph glyph-name="U" unicode="&#xdb;" horiz-adv-x="1198" 
d="M1119 1431q17 0 17 -17v-843q0 -172 -35.5 -269t-109.5 -172q-78 -80 -171.5 -118.5t-215.5 -38.5q-39 0 -80.5 5t-99 19.5t-115.5 48t-103 82.5q-88 97 -116.5 191.5t-28.5 251.5v843q0 17 18 17h329q18 0 18 -17v-843q0 -106 22 -159q18 -40 59.5 -61.5t93.5 -21.5
q54 0 94.5 19.5t55.5 56.5q21 49 21 166v843q0 17 17 17h330z" />
    <glyph glyph-name="U" unicode="&#xda;" horiz-adv-x="1198" 
d="M1119 1431q17 0 17 -17v-843q0 -172 -35.5 -269t-109.5 -172q-78 -80 -171.5 -118.5t-215.5 -38.5q-39 0 -80.5 5t-99 19.5t-115.5 48t-103 82.5q-88 97 -116.5 191.5t-28.5 251.5v843q0 17 18 17h329q18 0 18 -17v-843q0 -106 22 -159q18 -40 59.5 -61.5t93.5 -21.5
q54 0 94.5 19.5t55.5 56.5q21 49 21 166v843q0 17 17 17h330z" />
    <glyph glyph-name="U" unicode="&#xd9;" horiz-adv-x="1198" 
d="M1119 1431q17 0 17 -17v-843q0 -172 -35.5 -269t-109.5 -172q-78 -80 -171.5 -118.5t-215.5 -38.5q-39 0 -80.5 5t-99 19.5t-115.5 48t-103 82.5q-88 97 -116.5 191.5t-28.5 251.5v843q0 17 18 17h329q18 0 18 -17v-843q0 -106 22 -159q18 -40 59.5 -61.5t93.5 -21.5
q54 0 94.5 19.5t55.5 56.5q21 49 21 166v843q0 17 17 17h330z" />
    <glyph glyph-name="V" unicode="V" horiz-adv-x="1361" 
d="M1321 1436q9 0 14 -7.5t2 -15.5l-472 -1400q-3 -12 -17 -12h-338q-13 0 -16 12l-473 1400q-3 8 2.5 15.5t14.5 7.5h395q13 0 16 -13l214 -820q4 -13 17 -13t16 13l213 820q3 13 17 13h395z" />
    <glyph glyph-name="W" unicode="W" horiz-adv-x="1667" 
d="M1627 1435q7 0 12.5 -6t4.5 -14l-179 -1397q-2 -16 -18 -16h-366q-13 0 -17 13l-218 708q-4 12 -16.5 12t-16.5 -12l-211 -708q-4 -13 -16 -13h-369q-15 0 -17 16l-179 1397q-1 8 4.5 14t12.5 6h317q15 0 17 -16l67 -725q1 -14 15.5 -16t18.5 12l234 732q4 13 17 13h217
q12 0 16 -13l235 -732q4 -14 18 -12t15 16l67 725q2 16 17 16h318z" />
    <glyph glyph-name="X" unicode="X" horiz-adv-x="1398" 
d="M999 711l333 -684q5 -8 0 -16.5t-15 -8.5h-367q-11 0 -16 10l-221 451q-5 10 -16 10t-15 -10l-221 -451q-5 -10 -15 -10h-367q-10 0 -15 8.5t-1 16.5l333 684q3 7 0 15l-333 683q-4 8 1 16.5t15 8.5h367q10 0 15 -10l221 -451q4 -10 15 -10t16 10l221 451q5 10 16 10h367
q10 0 15 -8.5t0 -16.5l-333 -683q-3 -8 0 -15z" />
    <glyph glyph-name="Y" unicode="Y" horiz-adv-x="1298" 
d="M1217 1433q10 0 15 -8.5t1 -16.5l-399 -828q-2 -4 -2 -8v-552q0 -17 -17 -17h-330q-17 0 -17 17v552q0 4 -2 8l-403 828q-4 8 1 16.5t15 8.5h356q11 0 16 -10l182 -432q5 -11 16 -11t16 10l184 433q5 10 16 10h352z" />
    <glyph glyph-name="Y" unicode="&#x178;" horiz-adv-x="1298" 
d="M1217 1433q10 0 15 -8.5t1 -16.5l-399 -828q-2 -4 -2 -8v-552q0 -17 -17 -17h-330q-17 0 -17 17v552q0 4 -2 8l-403 828q-4 8 1 16.5t15 8.5h356q11 0 16 -10l182 -432q5 -11 16 -11t16 10l184 433q5 10 16 10h352z" />
    <glyph glyph-name="Y" unicode="&#xdd;" horiz-adv-x="1298" 
d="M1217 1433q10 0 15 -8.5t1 -16.5l-399 -828q-2 -4 -2 -8v-552q0 -17 -17 -17h-330q-17 0 -17 17v552q0 4 -2 8l-403 828q-4 8 1 16.5t15 8.5h356q11 0 16 -10l182 -432q5 -11 16 -11t16 10l184 433q5 10 16 10h352z" />
    <glyph glyph-name="Z" unicode="Z" horiz-adv-x="1079" 
d="M999 332q17 0 17 -17l-26 -295q0 -17 -17 -17h-892q-10 0 -14.5 8t-0.5 16l96 218l1 1l343 834q4 8 -1.5 16t-14.5 8h-411q-18 0 -18 17l26 295q0 17 18 17h895q9 0 14 -7.5t2 -15.5l-101 -275l-309 -779q-3 -8 2 -16t14 -8h377z" />
    <glyph glyph-name="a" unicode="a" 
d="M1254 1096q18 0 18 -17v-1048q0 -17 -18 -17h-302q-18 0 -18 17v16q0 5 -4 7t-8 0q-131 -74 -286 -74q-156 0 -288.5 76t-209.5 206.5t-77 284.5q0 115 45.5 220t122.5 180.5t183.5 120.5t223.5 45q155 0 286 -74q4 -2 8 0t4 7v33q0 17 18 17h302zM688 287
q107 0 176.5 75.5t69.5 184.5t-69.5 184.5t-176.5 75.5q-109 0 -186.5 -76.5t-77.5 -183.5t77.5 -183.5t186.5 -76.5z" />
    <glyph glyph-name="a" unicode="&#xe5;" 
d="M1254 1096q18 0 18 -17v-1048q0 -17 -18 -17h-302q-18 0 -18 17v16q0 5 -4 7t-8 0q-131 -74 -286 -74q-156 0 -288.5 76t-209.5 206.5t-77 284.5q0 115 45.5 220t122.5 180.5t183.5 120.5t223.5 45q155 0 286 -74q4 -2 8 0t4 7v33q0 17 18 17h302zM688 287
q107 0 176.5 75.5t69.5 184.5t-69.5 184.5t-176.5 75.5q-109 0 -186.5 -76.5t-77.5 -183.5t77.5 -183.5t186.5 -76.5z" />
    <glyph glyph-name="a" unicode="&#xe4;" 
d="M1254 1096q18 0 18 -17v-1048q0 -17 -18 -17h-302q-18 0 -18 17v16q0 5 -4 7t-8 0q-131 -74 -286 -74q-156 0 -288.5 76t-209.5 206.5t-77 284.5q0 115 45.5 220t122.5 180.5t183.5 120.5t223.5 45q155 0 286 -74q4 -2 8 0t4 7v33q0 17 18 17h302zM688 287
q107 0 176.5 75.5t69.5 184.5t-69.5 184.5t-176.5 75.5q-109 0 -186.5 -76.5t-77.5 -183.5t77.5 -183.5t186.5 -76.5z" />
    <glyph glyph-name="a" unicode="&#xe3;" 
d="M1254 1096q18 0 18 -17v-1048q0 -17 -18 -17h-302q-18 0 -18 17v16q0 5 -4 7t-8 0q-131 -74 -286 -74q-156 0 -288.5 76t-209.5 206.5t-77 284.5q0 115 45.5 220t122.5 180.5t183.5 120.5t223.5 45q155 0 286 -74q4 -2 8 0t4 7v33q0 17 18 17h302zM688 287
q107 0 176.5 75.5t69.5 184.5t-69.5 184.5t-176.5 75.5q-109 0 -186.5 -76.5t-77.5 -183.5t77.5 -183.5t186.5 -76.5z" />
    <glyph glyph-name="a" unicode="&#xe2;" 
d="M1254 1096q18 0 18 -17v-1048q0 -17 -18 -17h-302q-18 0 -18 17v16q0 5 -4 7t-8 0q-131 -74 -286 -74q-156 0 -288.5 76t-209.5 206.5t-77 284.5q0 115 45.5 220t122.5 180.5t183.5 120.5t223.5 45q155 0 286 -74q4 -2 8 0t4 7v33q0 17 18 17h302zM688 287
q107 0 176.5 75.5t69.5 184.5t-69.5 184.5t-176.5 75.5q-109 0 -186.5 -76.5t-77.5 -183.5t77.5 -183.5t186.5 -76.5z" />
    <glyph glyph-name="a" unicode="&#xe1;" 
d="M1254 1096q18 0 18 -17v-1048q0 -17 -18 -17h-302q-18 0 -18 17v16q0 5 -4 7t-8 0q-131 -74 -286 -74q-156 0 -288.5 76t-209.5 206.5t-77 284.5q0 115 45.5 220t122.5 180.5t183.5 120.5t223.5 45q155 0 286 -74q4 -2 8 0t4 7v33q0 17 18 17h302zM688 287
q107 0 176.5 75.5t69.5 184.5t-69.5 184.5t-176.5 75.5q-109 0 -186.5 -76.5t-77.5 -183.5t77.5 -183.5t186.5 -76.5z" />
    <glyph glyph-name="a" unicode="&#xe0;" 
d="M1254 1096q18 0 18 -17v-1048q0 -17 -18 -17h-302q-18 0 -18 17v16q0 5 -4 7t-8 0q-131 -74 -286 -74q-156 0 -288.5 76t-209.5 206.5t-77 284.5q0 115 45.5 220t122.5 180.5t183.5 120.5t223.5 45q155 0 286 -74q4 -2 8 0t4 7v33q0 17 18 17h302zM688 287
q107 0 176.5 75.5t69.5 184.5t-69.5 184.5t-176.5 75.5q-109 0 -186.5 -76.5t-77.5 -183.5t77.5 -183.5t186.5 -76.5z" />
    <glyph glyph-name="b" unicode="b" 
d="M697 1113q117 0 223.5 -45t183.5 -120.5t122.5 -180.5t45.5 -220q0 -154 -77 -284.5t-209.5 -206.5t-288.5 -76q-154 0 -285 74q-4 2 -8.5 0t-4.5 -7v-16q0 -17 -18 -17h-302q-18 0 -18 17v1389q0 17 18 17h302q18 0 18 -17v-374q0 -5 4.5 -7t8.5 0q131 74 285 74z
M645 287q109 0 186.5 76.5t77.5 183.5t-77.5 183.5t-186.5 76.5q-107 0 -176.5 -75.5t-69.5 -184.5t69.5 -184.5t176.5 -75.5z" />
    <glyph glyph-name="c" unicode="c" horiz-adv-x="1191" 
d="M1119 273q16 -9 6 -24l-13 -19.5t-15 -21.5v-1q-17 -21 -34 -40l-1 -1q-2 -3 -8.5 -10t-9.5 -9q0 -1 -1 -1t-2 -1l-15 -15q-2 -2 -5.5 -4.5t-4.5 -3.5l-6 -6q-128 -108 -295 -131q-2 0 -5.5 -0.5t-5.5 -0.5q-10 -2 -13 -2q-7 -1 -21 -1q-2 0 -4 -0.5t-4 -0.5h-26
q-156 0 -288.5 76t-209.5 206.5t-77 284.5q0 115 45.5 220t122.5 180.5t183.5 120.5t223.5 45h26q2 0 4 -0.5t4 -0.5q14 0 21 -1q3 0 13 -2q2 0 5.5 -0.5t5.5 -0.5q167 -23 295 -131l6 -6q1 -1 4.5 -3.5t5.5 -4.5l15 -15q1 0 1 -1l2 -1q11 -11 16 -17l3 -3q11 -11 33 -40
l1 -1q15 -19 30 -44q8 -12 -4 -19l-154 -88l-89 -51q-14 -9 -23 5q-78 119 -203 119q-60 0 -113 -25t-90 -69q-65 -70 -65 -166q0 -97 65 -167q37 -43 90 -68t113 -25q125 0 203 118q9 15 23 6z" />
    <glyph glyph-name="c" unicode="&#xe7;" horiz-adv-x="1191" 
d="M1119 273q16 -9 6 -24l-13 -19.5t-15 -21.5v-1q-17 -21 -34 -40l-1 -1q-2 -3 -8.5 -10t-9.5 -9q0 -1 -1 -1t-2 -1l-15 -15q-2 -2 -5.5 -4.5t-4.5 -3.5l-6 -6q-128 -108 -295 -131q-2 0 -5.5 -0.5t-5.5 -0.5q-10 -2 -13 -2q-7 -1 -21 -1q-2 0 -4 -0.5t-4 -0.5h-26
q-156 0 -288.5 76t-209.5 206.5t-77 284.5q0 115 45.5 220t122.5 180.5t183.5 120.5t223.5 45h26q2 0 4 -0.5t4 -0.5q14 0 21 -1q3 0 13 -2q2 0 5.5 -0.5t5.5 -0.5q167 -23 295 -131l6 -6q1 -1 4.5 -3.5t5.5 -4.5l15 -15q1 0 1 -1l2 -1q11 -11 16 -17l3 -3q11 -11 33 -40
l1 -1q15 -19 30 -44q8 -12 -4 -19l-154 -88l-89 -51q-14 -9 -23 5q-78 119 -203 119q-60 0 -113 -25t-90 -69q-65 -70 -65 -166q0 -97 65 -167q37 -43 90 -68t113 -25q125 0 203 118q9 15 23 6z" />
    <glyph glyph-name="d" unicode="d" 
d="M1254 1437q18 0 18 -17v-1389q0 -17 -18 -17h-302q-18 0 -18 17v16q0 5 -4 7t-8 0q-131 -74 -286 -74q-156 0 -288.5 76t-209.5 206.5t-77 284.5q0 115 45.5 220t122.5 180.5t183.5 120.5t223.5 45q155 0 286 -74q4 -2 8 0t4 7v374q0 17 18 17h302zM688 287
q107 0 176.5 75.5t69.5 184.5t-69.5 184.5t-176.5 75.5q-109 0 -186.5 -76.5t-77.5 -183.5t77.5 -183.5t186.5 -76.5z" />
    <glyph glyph-name="e" unicode="e" horiz-adv-x="1273" 
d="M1188 706q23 -75 23 -160q0 -50 -9 -100q-2 -15 -17 -15h-759q-10 0 -14.5 -8.5t0.5 -17.5q35 -60 94 -94t128 -34q125 0 203 101q6 8 17 6l290 -52q8 -2 12.5 -9.5t0.5 -14.5q-15 -30 -20 -39h1l-5 -8q-2 -4 -7.5 -12t-7.5 -11q-3 -4 -9.5 -14t-9.5 -14l-4 -5
q-1 -1 -3 -3.5t-3 -4.5l-3 -4q-2 -2 -6 -7t-6 -7l-3 -4q-6 -7 -20 -21l-4 -4q-2 -2 -4.5 -5t-5 -5t-4.5 -4l-1 -1q-2 -3 -8 -7t-8 -7l-6 -5l-6 6l5 -7q-14 -12 -23 -19l-6 -4q-3 -2 -28 -19l-2 -2q-11 -7 -33 -19l-3 -2q-1 0 -3.5 -2t-4.5 -2l-2 -1q-7 -4 -14 -7l-2 -2
q-10 -5 -30 -13l-2 -1q-6 -3 -18 -7l-7 -2q-7 -3 -21 -7l-2 -1q-3 -1 -11.5 -3.5t-13.5 -3.5l-6 -2q-13 -3 -50 -10l-6 -1q-16 -3 -52 -5h-6q-5 0 -14 -0.5t-13 -0.5t-12.5 0.5t-13.5 0.5h-6h-2q-8 0 -20 2h-2q-1 0 -2.5 0.5t-2.5 0.5q-18 2 -26 3v0l-5 1l-21 3l-7 2
q-14 2 -19 4l-2 1q-1 0 -2.5 0.5t-2.5 0.5q-2 0 -25 7q-4 2 -12 4t-12 4q-1 1 -2.5 1t-2.5 1h-2q-3 1 -8.5 3.5t-8.5 3.5l-2 1q-1 1 -2.5 1t-2.5 1q-12 4 -23 10l-1 1q-14 6 -21 10q-1 0 -2.5 1t-2.5 2l-2 1q-3 1 -8.5 4t-7.5 5l-6 4q-14 8 -21 13q-105 70 -170 176
q-8 12 -11 18l-1 3q-1 3 -5 8.5t-5 8.5l-1 3l-3 6q-17 34 -29 70q-2 5 -10 35q-1 5 -3.5 14.5t-3.5 13.5q-10 45 -11 85q0 5 -0.5 14.5t-0.5 14.5q0 19 1 29q5 79 28 149q6 19 17 43q5 13 10 22l3 6l2 4q0 1 1 2.5t1 2.5l3 6l5 9q2 3 6.5 10t6.5 11q65 106 170 176
q7 5 21 13l6 4q3 1 8 4t8 5l2 1q1 1 2.5 2t2.5 1q3 2 6.5 3.5t8 4t7.5 3.5q11 5 23 10q1 1 2.5 2t2.5 1h2q3 1 8.5 3.5t8.5 3.5l2 1q1 0 2.5 1t2.5 1q16 6 24 8l8 2t9 2t8 2q1 0 2.5 1t2.5 1h2q5 2 19 4l4 1q10 3 27 5h2v1q8 1 26 3h5h2q12 2 20 2h1h7q5 0 13.5 0.5
t12.5 0.5t13 -0.5t14 -0.5h6q17 -1 51 -5l7 -1q36 -7 49 -10l7 -2q2 0 25 -7h1q4 -1 11.5 -3.5l10.5 -3.5l6 -3q3 -1 9 -3.5t9 -3.5l3 -1q27 -12 29 -13l3 -1l14 -7l1 -1l-3 -8l4 8q1 -1 4 -3t4 -2q20 -10 35 -20l1 -1q14 -9 29 -20l1 -1q1 0 3 -1.5t3 -2.5q9 -7 23 -19
l5 -4q3 -3 9 -8.5t9 -7.5l1 -1q10 -8 14 -13l3 -4q14 -14 20 -21l-6 -7l7 6l3 -4q2 -2 6 -7.5t5 -6.5l4 -4q2 -3 6.5 -8.5t6.5 -8.5l1 -1q2 -2 5 -6.5t4 -7.5l7 -9q1 -2 4 -6.5t4 -6.5l10 -17q34 -60 51 -118zM855 670q8 0 13 6t4 14q-10 61 -73 101.5t-150 40.5
q-81 0 -146.5 -41t-76.5 -101q-1 -8 4 -14t13 -6h412z" />
    <glyph glyph-name="e" unicode="&#xeb;" horiz-adv-x="1273" 
d="M1188 706q23 -75 23 -160q0 -50 -9 -100q-2 -15 -17 -15h-759q-10 0 -14.5 -8.5t0.5 -17.5q35 -60 94 -94t128 -34q125 0 203 101q6 8 17 6l290 -52q8 -2 12.5 -9.5t0.5 -14.5q-15 -30 -20 -39h1l-5 -8q-2 -4 -7.5 -12t-7.5 -11q-3 -4 -9.5 -14t-9.5 -14l-4 -5
q-1 -1 -3 -3.5t-3 -4.5l-3 -4q-2 -2 -6 -7t-6 -7l-3 -4q-6 -7 -20 -21l-4 -4q-2 -2 -4.5 -5t-5 -5t-4.5 -4l-1 -1q-2 -3 -8 -7t-8 -7l-6 -5l-6 6l5 -7q-14 -12 -23 -19l-6 -4q-3 -2 -28 -19l-2 -2q-11 -7 -33 -19l-3 -2q-1 0 -3.5 -2t-4.5 -2l-2 -1q-7 -4 -14 -7l-2 -2
q-10 -5 -30 -13l-2 -1q-6 -3 -18 -7l-7 -2q-7 -3 -21 -7l-2 -1q-3 -1 -11.5 -3.5t-13.5 -3.5l-6 -2q-13 -3 -50 -10l-6 -1q-16 -3 -52 -5h-6q-5 0 -14 -0.5t-13 -0.5t-12.5 0.5t-13.5 0.5h-6h-2q-8 0 -20 2h-2q-1 0 -2.5 0.5t-2.5 0.5q-18 2 -26 3v0l-5 1l-21 3l-7 2
q-14 2 -19 4l-2 1q-1 0 -2.5 0.5t-2.5 0.5q-2 0 -25 7q-4 2 -12 4t-12 4q-1 1 -2.5 1t-2.5 1h-2q-3 1 -8.5 3.5t-8.5 3.5l-2 1q-1 1 -2.5 1t-2.5 1q-12 4 -23 10l-1 1q-14 6 -21 10q-1 0 -2.5 1t-2.5 2l-2 1q-3 1 -8.5 4t-7.5 5l-6 4q-14 8 -21 13q-105 70 -170 176
q-8 12 -11 18l-1 3q-1 3 -5 8.5t-5 8.5l-1 3l-3 6q-17 34 -29 70q-2 5 -10 35q-1 5 -3.5 14.5t-3.5 13.5q-10 45 -11 85q0 5 -0.5 14.5t-0.5 14.5q0 19 1 29q5 79 28 149q6 19 17 43q5 13 10 22l3 6l2 4q0 1 1 2.5t1 2.5l3 6l5 9q2 3 6.5 10t6.5 11q65 106 170 176
q7 5 21 13l6 4q3 1 8 4t8 5l2 1q1 1 2.5 2t2.5 1q3 2 6.5 3.5t8 4t7.5 3.5q11 5 23 10q1 1 2.5 2t2.5 1h2q3 1 8.5 3.5t8.5 3.5l2 1q1 0 2.5 1t2.5 1q16 6 24 8l8 2t9 2t8 2q1 0 2.5 1t2.5 1h2q5 2 19 4l4 1q10 3 27 5h2v1q8 1 26 3h5h2q12 2 20 2h1h7q5 0 13.5 0.5
t12.5 0.5t13 -0.5t14 -0.5h6q17 -1 51 -5l7 -1q36 -7 49 -10l7 -2q2 0 25 -7h1q4 -1 11.5 -3.5l10.5 -3.5l6 -3q3 -1 9 -3.5t9 -3.5l3 -1q27 -12 29 -13l3 -1l14 -7l1 -1l-3 -8l4 8q1 -1 4 -3t4 -2q20 -10 35 -20l1 -1q14 -9 29 -20l1 -1q1 0 3 -1.5t3 -2.5q9 -7 23 -19
l5 -4q3 -3 9 -8.5t9 -7.5l1 -1q10 -8 14 -13l3 -4q14 -14 20 -21l-6 -7l7 6l3 -4q2 -2 6 -7.5t5 -6.5l4 -4q2 -3 6.5 -8.5t6.5 -8.5l1 -1q2 -2 5 -6.5t4 -7.5l7 -9q1 -2 4 -6.5t4 -6.5l10 -17q34 -60 51 -118zM855 670q8 0 13 6t4 14q-10 61 -73 101.5t-150 40.5
q-81 0 -146.5 -41t-76.5 -101q-1 -8 4 -14t13 -6h412z" />
    <glyph glyph-name="e" unicode="&#xea;" horiz-adv-x="1273" 
d="M1188 706q23 -75 23 -160q0 -50 -9 -100q-2 -15 -17 -15h-759q-10 0 -14.5 -8.5t0.5 -17.5q35 -60 94 -94t128 -34q125 0 203 101q6 8 17 6l290 -52q8 -2 12.5 -9.5t0.5 -14.5q-15 -30 -20 -39h1l-5 -8q-2 -4 -7.5 -12t-7.5 -11q-3 -4 -9.5 -14t-9.5 -14l-4 -5
q-1 -1 -3 -3.5t-3 -4.5l-3 -4q-2 -2 -6 -7t-6 -7l-3 -4q-6 -7 -20 -21l-4 -4q-2 -2 -4.5 -5t-5 -5t-4.5 -4l-1 -1q-2 -3 -8 -7t-8 -7l-6 -5l-6 6l5 -7q-14 -12 -23 -19l-6 -4q-3 -2 -28 -19l-2 -2q-11 -7 -33 -19l-3 -2q-1 0 -3.5 -2t-4.5 -2l-2 -1q-7 -4 -14 -7l-2 -2
q-10 -5 -30 -13l-2 -1q-6 -3 -18 -7l-7 -2q-7 -3 -21 -7l-2 -1q-3 -1 -11.5 -3.5t-13.5 -3.5l-6 -2q-13 -3 -50 -10l-6 -1q-16 -3 -52 -5h-6q-5 0 -14 -0.5t-13 -0.5t-12.5 0.5t-13.5 0.5h-6h-2q-8 0 -20 2h-2q-1 0 -2.5 0.5t-2.5 0.5q-18 2 -26 3v0l-5 1l-21 3l-7 2
q-14 2 -19 4l-2 1q-1 0 -2.5 0.5t-2.5 0.5q-2 0 -25 7q-4 2 -12 4t-12 4q-1 1 -2.5 1t-2.5 1h-2q-3 1 -8.5 3.5t-8.5 3.5l-2 1q-1 1 -2.5 1t-2.5 1q-12 4 -23 10l-1 1q-14 6 -21 10q-1 0 -2.5 1t-2.5 2l-2 1q-3 1 -8.5 4t-7.5 5l-6 4q-14 8 -21 13q-105 70 -170 176
q-8 12 -11 18l-1 3q-1 3 -5 8.5t-5 8.5l-1 3l-3 6q-17 34 -29 70q-2 5 -10 35q-1 5 -3.5 14.5t-3.5 13.5q-10 45 -11 85q0 5 -0.5 14.5t-0.5 14.5q0 19 1 29q5 79 28 149q6 19 17 43q5 13 10 22l3 6l2 4q0 1 1 2.5t1 2.5l3 6l5 9q2 3 6.5 10t6.5 11q65 106 170 176
q7 5 21 13l6 4q3 1 8 4t8 5l2 1q1 1 2.5 2t2.5 1q3 2 6.5 3.5t8 4t7.5 3.5q11 5 23 10q1 1 2.5 2t2.5 1h2q3 1 8.5 3.5t8.5 3.5l2 1q1 0 2.5 1t2.5 1q16 6 24 8l8 2t9 2t8 2q1 0 2.5 1t2.5 1h2q5 2 19 4l4 1q10 3 27 5h2v1q8 1 26 3h5h2q12 2 20 2h1h7q5 0 13.5 0.5
t12.5 0.5t13 -0.5t14 -0.5h6q17 -1 51 -5l7 -1q36 -7 49 -10l7 -2q2 0 25 -7h1q4 -1 11.5 -3.5l10.5 -3.5l6 -3q3 -1 9 -3.5t9 -3.5l3 -1q27 -12 29 -13l3 -1l14 -7l1 -1l-3 -8l4 8q1 -1 4 -3t4 -2q20 -10 35 -20l1 -1q14 -9 29 -20l1 -1q1 0 3 -1.5t3 -2.5q9 -7 23 -19
l5 -4q3 -3 9 -8.5t9 -7.5l1 -1q10 -8 14 -13l3 -4q14 -14 20 -21l-6 -7l7 6l3 -4q2 -2 6 -7.5t5 -6.5l4 -4q2 -3 6.5 -8.5t6.5 -8.5l1 -1q2 -2 5 -6.5t4 -7.5l7 -9q1 -2 4 -6.5t4 -6.5l10 -17q34 -60 51 -118zM855 670q8 0 13 6t4 14q-10 61 -73 101.5t-150 40.5
q-81 0 -146.5 -41t-76.5 -101q-1 -8 4 -14t13 -6h412z" />
    <glyph glyph-name="e" unicode="&#xe9;" horiz-adv-x="1273" 
d="M1188 706q23 -75 23 -160q0 -50 -9 -100q-2 -15 -17 -15h-759q-10 0 -14.5 -8.5t0.5 -17.5q35 -60 94 -94t128 -34q125 0 203 101q6 8 17 6l290 -52q8 -2 12.5 -9.5t0.5 -14.5q-15 -30 -20 -39h1l-5 -8q-2 -4 -7.5 -12t-7.5 -11q-3 -4 -9.5 -14t-9.5 -14l-4 -5
q-1 -1 -3 -3.5t-3 -4.5l-3 -4q-2 -2 -6 -7t-6 -7l-3 -4q-6 -7 -20 -21l-4 -4q-2 -2 -4.5 -5t-5 -5t-4.5 -4l-1 -1q-2 -3 -8 -7t-8 -7l-6 -5l-6 6l5 -7q-14 -12 -23 -19l-6 -4q-3 -2 -28 -19l-2 -2q-11 -7 -33 -19l-3 -2q-1 0 -3.5 -2t-4.5 -2l-2 -1q-7 -4 -14 -7l-2 -2
q-10 -5 -30 -13l-2 -1q-6 -3 -18 -7l-7 -2q-7 -3 -21 -7l-2 -1q-3 -1 -11.5 -3.5t-13.5 -3.5l-6 -2q-13 -3 -50 -10l-6 -1q-16 -3 -52 -5h-6q-5 0 -14 -0.5t-13 -0.5t-12.5 0.5t-13.5 0.5h-6h-2q-8 0 -20 2h-2q-1 0 -2.5 0.5t-2.5 0.5q-18 2 -26 3v0l-5 1l-21 3l-7 2
q-14 2 -19 4l-2 1q-1 0 -2.5 0.5t-2.5 0.5q-2 0 -25 7q-4 2 -12 4t-12 4q-1 1 -2.5 1t-2.5 1h-2q-3 1 -8.5 3.5t-8.5 3.5l-2 1q-1 1 -2.5 1t-2.5 1q-12 4 -23 10l-1 1q-14 6 -21 10q-1 0 -2.5 1t-2.5 2l-2 1q-3 1 -8.5 4t-7.5 5l-6 4q-14 8 -21 13q-105 70 -170 176
q-8 12 -11 18l-1 3q-1 3 -5 8.5t-5 8.5l-1 3l-3 6q-17 34 -29 70q-2 5 -10 35q-1 5 -3.5 14.5t-3.5 13.5q-10 45 -11 85q0 5 -0.5 14.5t-0.5 14.5q0 19 1 29q5 79 28 149q6 19 17 43q5 13 10 22l3 6l2 4q0 1 1 2.5t1 2.5l3 6l5 9q2 3 6.5 10t6.5 11q65 106 170 176
q7 5 21 13l6 4q3 1 8 4t8 5l2 1q1 1 2.5 2t2.5 1q3 2 6.5 3.5t8 4t7.5 3.5q11 5 23 10q1 1 2.5 2t2.5 1h2q3 1 8.5 3.5t8.5 3.5l2 1q1 0 2.5 1t2.5 1q16 6 24 8l8 2t9 2t8 2q1 0 2.5 1t2.5 1h2q5 2 19 4l4 1q10 3 27 5h2v1q8 1 26 3h5h2q12 2 20 2h1h7q5 0 13.5 0.5
t12.5 0.5t13 -0.5t14 -0.5h6q17 -1 51 -5l7 -1q36 -7 49 -10l7 -2q2 0 25 -7h1q4 -1 11.5 -3.5l10.5 -3.5l6 -3q3 -1 9 -3.5t9 -3.5l3 -1q27 -12 29 -13l3 -1l14 -7l1 -1l-3 -8l4 8q1 -1 4 -3t4 -2q20 -10 35 -20l1 -1q14 -9 29 -20l1 -1q1 0 3 -1.5t3 -2.5q9 -7 23 -19
l5 -4q3 -3 9 -8.5t9 -7.5l1 -1q10 -8 14 -13l3 -4q14 -14 20 -21l-6 -7l7 6l3 -4q2 -2 6 -7.5t5 -6.5l4 -4q2 -3 6.5 -8.5t6.5 -8.5l1 -1q2 -2 5 -6.5t4 -7.5l7 -9q1 -2 4 -6.5t4 -6.5l10 -17q34 -60 51 -118zM855 670q8 0 13 6t4 14q-10 61 -73 101.5t-150 40.5
q-81 0 -146.5 -41t-76.5 -101q-1 -8 4 -14t13 -6h412z" />
    <glyph glyph-name="e" unicode="&#xe8;" horiz-adv-x="1273" 
d="M1188 706q23 -75 23 -160q0 -50 -9 -100q-2 -15 -17 -15h-759q-10 0 -14.5 -8.5t0.5 -17.5q35 -60 94 -94t128 -34q125 0 203 101q6 8 17 6l290 -52q8 -2 12.5 -9.5t0.5 -14.5q-15 -30 -20 -39h1l-5 -8q-2 -4 -7.5 -12t-7.5 -11q-3 -4 -9.5 -14t-9.5 -14l-4 -5
q-1 -1 -3 -3.5t-3 -4.5l-3 -4q-2 -2 -6 -7t-6 -7l-3 -4q-6 -7 -20 -21l-4 -4q-2 -2 -4.5 -5t-5 -5t-4.5 -4l-1 -1q-2 -3 -8 -7t-8 -7l-6 -5l-6 6l5 -7q-14 -12 -23 -19l-6 -4q-3 -2 -28 -19l-2 -2q-11 -7 -33 -19l-3 -2q-1 0 -3.5 -2t-4.5 -2l-2 -1q-7 -4 -14 -7l-2 -2
q-10 -5 -30 -13l-2 -1q-6 -3 -18 -7l-7 -2q-7 -3 -21 -7l-2 -1q-3 -1 -11.5 -3.5t-13.5 -3.5l-6 -2q-13 -3 -50 -10l-6 -1q-16 -3 -52 -5h-6q-5 0 -14 -0.5t-13 -0.5t-12.5 0.5t-13.5 0.5h-6h-2q-8 0 -20 2h-2q-1 0 -2.5 0.5t-2.5 0.5q-18 2 -26 3v0l-5 1l-21 3l-7 2
q-14 2 -19 4l-2 1q-1 0 -2.5 0.5t-2.5 0.5q-2 0 -25 7q-4 2 -12 4t-12 4q-1 1 -2.5 1t-2.5 1h-2q-3 1 -8.5 3.5t-8.5 3.5l-2 1q-1 1 -2.5 1t-2.5 1q-12 4 -23 10l-1 1q-14 6 -21 10q-1 0 -2.5 1t-2.5 2l-2 1q-3 1 -8.5 4t-7.5 5l-6 4q-14 8 -21 13q-105 70 -170 176
q-8 12 -11 18l-1 3q-1 3 -5 8.5t-5 8.5l-1 3l-3 6q-17 34 -29 70q-2 5 -10 35q-1 5 -3.5 14.5t-3.5 13.5q-10 45 -11 85q0 5 -0.5 14.5t-0.5 14.5q0 19 1 29q5 79 28 149q6 19 17 43q5 13 10 22l3 6l2 4q0 1 1 2.5t1 2.5l3 6l5 9q2 3 6.5 10t6.5 11q65 106 170 176
q7 5 21 13l6 4q3 1 8 4t8 5l2 1q1 1 2.5 2t2.5 1q3 2 6.5 3.5t8 4t7.5 3.5q11 5 23 10q1 1 2.5 2t2.5 1h2q3 1 8.5 3.5t8.5 3.5l2 1q1 0 2.5 1t2.5 1q16 6 24 8l8 2t9 2t8 2q1 0 2.5 1t2.5 1h2q5 2 19 4l4 1q10 3 27 5h2v1q8 1 26 3h5h2q12 2 20 2h1h7q5 0 13.5 0.5
t12.5 0.5t13 -0.5t14 -0.5h6q17 -1 51 -5l7 -1q36 -7 49 -10l7 -2q2 0 25 -7h1q4 -1 11.5 -3.5l10.5 -3.5l6 -3q3 -1 9 -3.5t9 -3.5l3 -1q27 -12 29 -13l3 -1l14 -7l1 -1l-3 -8l4 8q1 -1 4 -3t4 -2q20 -10 35 -20l1 -1q14 -9 29 -20l1 -1q1 0 3 -1.5t3 -2.5q9 -7 23 -19
l5 -4q3 -3 9 -8.5t9 -7.5l1 -1q10 -8 14 -13l3 -4q14 -14 20 -21l-6 -7l7 6l3 -4q2 -2 6 -7.5t5 -6.5l4 -4q2 -3 6.5 -8.5t6.5 -8.5l1 -1q2 -2 5 -6.5t4 -7.5l7 -9q1 -2 4 -6.5t4 -6.5l10 -17q34 -60 51 -118zM855 670q8 0 13 6t4 14q-10 61 -73 101.5t-150 40.5
q-81 0 -146.5 -41t-76.5 -101q-1 -8 4 -14t13 -6h412z" />
    <glyph glyph-name="f" unicode="f" horiz-adv-x="780" 
d="M641 1164q-45 0 -68 -24q-28 -28 -28 -112q0 -17 18 -17h112q17 0 17 -18v-255q0 -17 -17 -17h-112q-18 0 -18 -17v-674q0 -17 -17 -17h-303q-17 0 -17 18v59v614q0 17 -17 17h-112q-18 0 -18 17v255q0 7 5.5 12.5t12.5 5.5h112q17 0 17 17v128q0 69 22 121.5t52.5 81
t72 47t72.5 24.5t62 7h40h171q7 0 12.5 -5.5t4.5 -13.5l-24 -238q-2 -16 -17 -16h-35z" />
    <glyph glyph-name="g" unicode="g" horiz-adv-x="1331" 
d="M1250 1093q17 0 17 -17v-852v-108q0 -279 -146 -428t-419 -149h-9h-13q-274 0 -517 221q-6 5 -6 13.5t7 13.5l223 171q12 9 22 -1q137 -140 294 -130q68 5 121.5 29.5t81.5 64.5q38 54 24 127q-1 4 -5 6t-8 0q-133 -74 -283 -74q-155 0 -287 76t-209 206t-77 283t77 283
t209 206t287 76q154 0 284 -74q4 -2 8.5 0t4.5 7v33q0 17 18 17h301zM686 286q107 0 176 75t69 184q0 48 -16 90q-29 78 -89 123.5t-140 45.5q-109 0 -186 -76t-77 -183q0 -106 74 -181t181 -78h2h6z" />
    <glyph glyph-name="h" unicode="h" horiz-adv-x="1112" 
d="M920 1000q79 -79 104 -155.5t25 -204.5v-610q0 -17 -17 -17h-323q-17 0 -17 17v593q0 82 -19 123q-11 23 -31 39q-29 23 -80 23q-46 0 -80.5 -15t-45.5 -41q-17 -35 -17 -129v-593q0 -17 -17 -17h-323q-18 0 -18 17v1389q0 7 5.5 12.5t12.5 5.5h302q7 0 12.5 -5.5
t5.5 -12.5v-370q0 -5 4.5 -7.5t8.5 0.5q68 47 143.5 62t132 5t107.5 -31t73.5 -36t27.5 -20q9 -7 24 -22z" />
    <glyph glyph-name="i" unicode="i" horiz-adv-x="462" 
d="M381 1096q18 0 18 -17v-1049q0 -17 -18 -17h-302q-18 0 -18 17v1049q0 17 18 17h302zM381 1437q7 0 12.5 -5.5t5.5 -12.5v-220q0 -7 -5.5 -12.5t-12.5 -5.5h-302q-7 0 -12.5 5.5t-5.5 12.5v220q0 7 5.5 12.5t12.5 5.5h302z" />
    <glyph glyph-name="i" unicode="&#xef;" horiz-adv-x="462" 
d="M381 1096q18 0 18 -17v-1049q0 -17 -18 -17h-302q-18 0 -18 17v1049q0 17 18 17h302zM381 1437q7 0 12.5 -5.5t5.5 -12.5v-220q0 -7 -5.5 -12.5t-12.5 -5.5h-302q-7 0 -12.5 5.5t-5.5 12.5v220q0 7 5.5 12.5t12.5 5.5h302z" />
    <glyph glyph-name="i" unicode="&#xee;" horiz-adv-x="462" 
d="M381 1096q18 0 18 -17v-1049q0 -17 -18 -17h-302q-18 0 -18 17v1049q0 17 18 17h302zM381 1437q7 0 12.5 -5.5t5.5 -12.5v-220q0 -7 -5.5 -12.5t-12.5 -5.5h-302q-7 0 -12.5 5.5t-5.5 12.5v220q0 7 5.5 12.5t12.5 5.5h302z" />
    <glyph glyph-name="i" unicode="&#xed;" horiz-adv-x="462" 
d="M381 1096q18 0 18 -17v-1049q0 -17 -18 -17h-302q-18 0 -18 17v1049q0 17 18 17h302zM381 1437q7 0 12.5 -5.5t5.5 -12.5v-220q0 -7 -5.5 -12.5t-12.5 -5.5h-302q-7 0 -12.5 5.5t-5.5 12.5v220q0 7 5.5 12.5t12.5 5.5h302z" />
    <glyph glyph-name="i" unicode="&#xec;" horiz-adv-x="462" 
d="M381 1096q18 0 18 -17v-1049q0 -17 -18 -17h-302q-18 0 -18 17v1049q0 17 18 17h302zM381 1437q7 0 12.5 -5.5t5.5 -12.5v-220q0 -7 -5.5 -12.5t-12.5 -5.5h-302q-7 0 -12.5 5.5t-5.5 12.5v220q0 7 5.5 12.5t12.5 5.5h302z" />
    <glyph glyph-name="j" unicode="j" horiz-adv-x="634" 
d="M553 1437q17 0 17 -18v-220q0 -18 -17 -18h-303q-17 0 -17 18v220q0 18 17 18h303zM553 1096q17 0 17 -17v-1168q0 -69 -22 -121.5t-52.5 -81t-72 -47t-72.5 -24.5t-62 -7q-1 0 -24.5 -0.5t-43.5 -0.5q-25 0 -76.5 0.5t-65.5 0.5q-7 0 -12.5 5.5t-4.5 13.5l32 255
q2 15 17 15h27q50 0 72 24q26 27 24 105l-1 8v1023q0 17 17 17h303z" />
    <glyph glyph-name="k" unicode="k" horiz-adv-x="1050" 
d="M682 546l304 -507q5 -9 0 -17.5t-15 -8.5h-351q-10 0 -15 9l-174 324q-6 12 -19 9t-13 -17v-308q0 -17 -18 -17h-302q-18 0 -18 17v1389q0 7 5.5 12.5t12.5 5.5h302q7 0 12.5 -5.5t5.5 -12.5v-648q0 -13 13 -16.5t19 8.5l174 324q5 9 15 9h351q10 0 15 -8.5t0 -17.5
l-304 -507q-5 -9 0 -17z" />
    <glyph glyph-name="l" unicode="l" horiz-adv-x="479" 
d="M399 1437q17 0 17 -18v-1389q0 -17 -17 -17h-320q-18 0 -18 17v1389q0 7 5.5 12.5t12.5 5.5h320z" />
    <glyph glyph-name="m" unicode="m" horiz-adv-x="1734" 
d="M1542 1000q79 -79 104 -155.5t25 -204.5v-610q0 -17 -17 -17h-323q-17 0 -17 17v593q0 82 -19 123q-12 24 -30 39q-29 23 -80 23q-46 0 -80.5 -15t-45.5 -41q-18 -37 -18 -129v-593q0 -17 -17 -17h-314q-18 0 -18 17v593q0 82 -19 123q-11 23 -31 39q-29 23 -80 23
q-46 0 -80.5 -15t-45.5 -41q-17 -35 -17 -129v-593q0 -17 -17 -17h-323q-18 0 -18 17v1049q0 17 18 17h302q18 0 18 -17v-30q0 -5 4.5 -7.5t8.5 0.5q68 47 143.5 62t132 5t107.5 -31t73.5 -36t27.5 -20q9 -7 24 -22l19 -19q5 -6 13 -6t13 6q31 38 66 62q49 36 104 50
q55 19 113 19t100.5 -11t83 -29.5t58 -29.5t27.5 -19l1 -1q9 -7 24 -22z" />
    <glyph glyph-name="n" unicode="n" horiz-adv-x="1112" 
d="M920 1000q79 -79 104 -155.5t25 -204.5v-610q0 -17 -17 -17h-323q-17 0 -17 17v593q0 82 -19 123q-11 23 -31 39q-29 23 -80 23q-46 0 -80.5 -15t-45.5 -41q-17 -35 -17 -129v-593q0 -17 -17 -17h-323q-18 0 -18 17v1049q0 17 18 17h302q18 0 18 -17v-30q0 -5 4.5 -7.5
t8.5 0.5q68 47 143.5 62t132 5t107.5 -31t73.5 -36t27.5 -20q5 -4 13 -12t11 -10z" />
    <glyph glyph-name="n" unicode="&#xf1;" horiz-adv-x="1112" 
d="M920 1000q79 -79 104 -155.5t25 -204.5v-610q0 -17 -17 -17h-323q-17 0 -17 17v593q0 82 -19 123q-11 23 -31 39q-29 23 -80 23q-46 0 -80.5 -15t-45.5 -41q-17 -35 -17 -129v-593q0 -17 -17 -17h-323q-18 0 -18 17v1049q0 17 18 17h302q18 0 18 -17v-30q0 -5 4.5 -7.5
t8.5 0.5q68 47 143.5 62t132 5t107.5 -31t73.5 -36t27.5 -20q5 -4 13 -12t11 -10z" />
    <glyph glyph-name="o" unicode="o" horiz-adv-x="1212" 
d="M606 1113q156 0 288 -76t209 -206.5t77 -284.5t-77 -284.5t-209 -206.5t-288 -76t-288.5 76t-209.5 206.5t-77 284.5t77 284.5t209.5 206.5t288.5 76zM606 299q103 0 176.5 72.5t73.5 174.5t-73.5 174.5t-176.5 72.5q-104 0 -177.5 -72.5t-73.5 -174.5t73.5 -174.5
t177.5 -72.5z" />
    <glyph glyph-name="o" unicode="&#xf8;" horiz-adv-x="1212" 
d="M606 1113q156 0 288 -76t209 -206.5t77 -284.5t-77 -284.5t-209 -206.5t-288 -76t-288.5 76t-209.5 206.5t-77 284.5t77 284.5t209.5 206.5t288.5 76zM606 299q103 0 176.5 72.5t73.5 174.5t-73.5 174.5t-176.5 72.5q-104 0 -177.5 -72.5t-73.5 -174.5t73.5 -174.5
t177.5 -72.5z" />
    <glyph glyph-name="o" unicode="&#xf6;" horiz-adv-x="1212" 
d="M606 1113q156 0 288 -76t209 -206.5t77 -284.5t-77 -284.5t-209 -206.5t-288 -76t-288.5 76t-209.5 206.5t-77 284.5t77 284.5t209.5 206.5t288.5 76zM606 299q103 0 176.5 72.5t73.5 174.5t-73.5 174.5t-176.5 72.5q-104 0 -177.5 -72.5t-73.5 -174.5t73.5 -174.5
t177.5 -72.5z" />
    <glyph glyph-name="o" unicode="&#xf5;" horiz-adv-x="1212" 
d="M606 1113q156 0 288 -76t209 -206.5t77 -284.5t-77 -284.5t-209 -206.5t-288 -76t-288.5 76t-209.5 206.5t-77 284.5t77 284.5t209.5 206.5t288.5 76zM606 299q103 0 176.5 72.5t73.5 174.5t-73.5 174.5t-176.5 72.5q-104 0 -177.5 -72.5t-73.5 -174.5t73.5 -174.5
t177.5 -72.5z" />
    <glyph glyph-name="o" unicode="&#xf4;" horiz-adv-x="1212" 
d="M606 1113q156 0 288 -76t209 -206.5t77 -284.5t-77 -284.5t-209 -206.5t-288 -76t-288.5 76t-209.5 206.5t-77 284.5t77 284.5t209.5 206.5t288.5 76zM606 299q103 0 176.5 72.5t73.5 174.5t-73.5 174.5t-176.5 72.5q-104 0 -177.5 -72.5t-73.5 -174.5t73.5 -174.5
t177.5 -72.5z" />
    <glyph glyph-name="o" unicode="&#xf3;" horiz-adv-x="1212" 
d="M606 1113q156 0 288 -76t209 -206.5t77 -284.5t-77 -284.5t-209 -206.5t-288 -76t-288.5 76t-209.5 206.5t-77 284.5t77 284.5t209.5 206.5t288.5 76zM606 299q103 0 176.5 72.5t73.5 174.5t-73.5 174.5t-176.5 72.5q-104 0 -177.5 -72.5t-73.5 -174.5t73.5 -174.5
t177.5 -72.5z" />
    <glyph glyph-name="o" unicode="&#xf2;" horiz-adv-x="1212" 
d="M606 1113q156 0 288 -76t209 -206.5t77 -284.5t-77 -284.5t-209 -206.5t-288 -76t-288.5 76t-209.5 206.5t-77 284.5t77 284.5t209.5 206.5t288.5 76zM606 299q103 0 176.5 72.5t73.5 174.5t-73.5 174.5t-176.5 72.5q-104 0 -177.5 -72.5t-73.5 -174.5t73.5 -174.5
t177.5 -72.5z" />
    <glyph glyph-name="p" unicode="p" 
d="M697 1113q156 0 288.5 -76t209.5 -206.5t77 -284.5t-77 -284.5t-209.5 -206.5t-288.5 -76q-152 0 -285 75q-4 2 -8.5 0t-4.5 -7v-374q0 -7 -5.5 -12.5t-12.5 -5.5h-302q-7 0 -12.5 5.5t-5.5 12.5v1406q0 17 18 17h302q18 0 18 -17v-33q0 -5 4 -7.5t9 -0.5q133 75 285 75z
M645 286q109 0 186.5 76.5t77.5 183.5t-77.5 183.5t-186.5 76.5q-107 0 -176.5 -75.5t-69.5 -184.5t69.5 -184.5t176.5 -75.5z" />
    <glyph glyph-name="q" unicode="q" 
d="M1254 1096q18 0 18 -17v-1406q0 -7 -5 -12.5t-13 -5.5h-302q-8 0 -13 5.5t-5 12.5v374q0 5 -4 7t-8 0q-133 -75 -286 -75q-156 0 -288.5 76t-209.5 206.5t-77 284.5t77 284.5t209.5 206.5t288.5 76q153 0 286 -75q4 -2 8 0.5t4 7.5v33q0 17 18 17h302zM688 286
q107 0 176.5 75.5t69.5 184.5t-69.5 184.5t-176.5 75.5q-109 0 -186.5 -76.5t-77.5 -183.5t77.5 -183.5t186.5 -76.5z" />
    <glyph glyph-name="r" unicode="r" horiz-adv-x="720" 
d="M640 1096q17 0 17 -18l-10 -254q0 -7 -5.5 -12t-13.5 -4q-80 8 -124 -2q-26 -6 -44 -22.5t-24 -31.5q-17 -35 -17 -112v-610q0 -17 -17 -17h-323q-18 0 -18 17v1049q0 17 18 17h302q18 0 18 -17v-31q0 -5 4.5 -7.5t8.5 0.5q85 53 228 55z" />
    <glyph glyph-name="s" unicode="s" horiz-adv-x="995" 
d="M711 633q26 -12 51 -27t58.5 -42.5t57.5 -58.5t40 -75.5t13 -93.5q-5 -60 -29 -120q-49 -104 -155 -162t-245 -58q-34 0 -79 5q-127 15 -218 66q-93 63 -142 176q-3 8 0.5 15.5t11.5 8.5l297 64q12 2 18 -8q14 -21 36 -33.5t39 -14.5q55 -6 81 18q18 17 15 43
q-4 28 -30 48.5t-112 61.5l-2 1q-69 33 -83 40q-33 13 -63 30l-1 1q-1 1 -4 2.5l-5 2.5q-157 90 -179 214q-22 120 70 237q36 41 79 68q140 89 327 67q109 -12 196 -58q39 -20 75 -50q61 -54 78 -135q2 -7 -2 -13.5t-11 -7.5l-292 -59q-14 -3 -19 11q-15 39 -65 45
q-41 5 -64 -20q-18 -20 -12 -41q15 -46 135 -95q11 -4 61 -24q37 -13 73 -29z" />
    <glyph glyph-name="t" unicode="t" horiz-adv-x="780" 
d="M699 295q8 0 13.5 -6.5t4.5 -13.5l-39 -256q-2 -15 -16 -15q-148 -8 -167 -8h-6q-138 8 -209.5 77t-71.5 196v520q0 17 -17 17h-112q-18 0 -18 17v257q0 17 18 17h112q17 0 17 17v297q0 17 18 17h302q18 0 18 -17v-297q0 -17 17 -17h112q17 0 17 -17v-257q0 -17 -17 -17
h-112q-17 0 -17 -17v-71v-93.5t-0.5 -91.5t-0.5 -73v-29v-8q-2 -78 24 -105q22 -23 72 -23h58z" />
    <glyph glyph-name="u" unicode="u" horiz-adv-x="1112" 
d="M1032 1096q17 0 17 -17v-1049q0 -17 -17 -17h-303q-17 0 -17 17v30q0 5 -4 7.5t-9 -0.5q-102 -70 -219 -70q-141 0 -263 89l-2 1q-14 11 -25 22q-79 79 -104 155.5t-25 204.5v610q0 17 18 17h323q17 0 17 -17v-593q0 -82 19 -123q12 -24 30 -39q29 -23 80 -23
q46 0 80.5 15t45.5 41q18 37 18 129v593q0 17 17 17h323z" />
    <glyph glyph-name="u" unicode="&#xfc;" horiz-adv-x="1112" 
d="M1032 1096q17 0 17 -17v-1049q0 -17 -17 -17h-303q-17 0 -17 17v30q0 5 -4 7.5t-9 -0.5q-102 -70 -219 -70q-141 0 -263 89l-2 1q-14 11 -25 22q-79 79 -104 155.5t-25 204.5v610q0 17 18 17h323q17 0 17 -17v-593q0 -82 19 -123q12 -24 30 -39q29 -23 80 -23
q46 0 80.5 15t45.5 41q18 37 18 129v593q0 17 17 17h323z" />
    <glyph glyph-name="u" unicode="&#xfb;" horiz-adv-x="1112" 
d="M1032 1096q17 0 17 -17v-1049q0 -17 -17 -17h-303q-17 0 -17 17v30q0 5 -4 7.5t-9 -0.5q-102 -70 -219 -70q-141 0 -263 89l-2 1q-14 11 -25 22q-79 79 -104 155.5t-25 204.5v610q0 17 18 17h323q17 0 17 -17v-593q0 -82 19 -123q12 -24 30 -39q29 -23 80 -23
q46 0 80.5 15t45.5 41q18 37 18 129v593q0 17 17 17h323z" />
    <glyph glyph-name="u" unicode="&#xfa;" horiz-adv-x="1112" 
d="M1032 1096q17 0 17 -17v-1049q0 -17 -17 -17h-303q-17 0 -17 17v30q0 5 -4 7.5t-9 -0.5q-102 -70 -219 -70q-141 0 -263 89l-2 1q-14 11 -25 22q-79 79 -104 155.5t-25 204.5v610q0 17 18 17h323q17 0 17 -17v-593q0 -82 19 -123q12 -24 30 -39q29 -23 80 -23
q46 0 80.5 15t45.5 41q18 37 18 129v593q0 17 17 17h323z" />
    <glyph glyph-name="u" unicode="&#xf9;" horiz-adv-x="1112" 
d="M1032 1096q17 0 17 -17v-1049q0 -17 -17 -17h-303q-17 0 -17 17v30q0 5 -4 7.5t-9 -0.5q-102 -70 -219 -70q-141 0 -263 89l-2 1q-14 11 -25 22q-79 79 -104 155.5t-25 204.5v610q0 17 18 17h323q17 0 17 -17v-593q0 -82 19 -123q12 -24 30 -39q29 -23 80 -23
q46 0 80.5 15t45.5 41q18 37 18 129v593q0 17 17 17h323z" />
    <glyph glyph-name="v" unicode="v" horiz-adv-x="1222" 
d="M1143 1096q9 0 14.5 -7.5t2.5 -15.5l-375 -1048q-3 -12 -16 -12h-316q-13 0 -16 12l-375 1048q-3 8 2.5 15.5t14.5 7.5h301q13 0 16 -12l215 -601l215 601q3 12 16 12h301z" />
    <glyph glyph-name="w" unicode="w" horiz-adv-x="1675" 
d="M1595 1096q8 0 13 -7t3 -15l-280 -1048q-3 -13 -17 -13h-316q-13 0 -16 12l-129 361q-4 11 -16.5 11t-16.5 -11l-129 -361q-3 -12 -16 -12h-316q-13 0 -16 13l-281 1048q-2 8 3.5 15t13.5 7h301q14 0 17 -14l110 -532q3 -13 16 -13.5t17 11.5l191 536q3 12 17 12h178
q13 0 16 -12l212 -594l122 592q4 14 17 14h302z" />
    <glyph glyph-name="x" unicode="x" horiz-adv-x="1146" 
d="M766 545l316 -505q5 -9 0 -18t-15 -9h-334q-9 0 -14 8l-131 210q-5 8 -15 8t-15 -8l-131 -210q-5 -8 -14 -8h-334q-10 0 -15 9t0 18l316 505q6 9 0 19l-316 505q-5 9 0 18t15 9h334q9 0 14 -8l131 -210q5 -8 15 -8t15 8l131 210q5 8 14 8h334q10 0 15 -9t0 -18l-316 -505
q-6 -10 0 -19z" />
    <glyph glyph-name="y" unicode="y" horiz-adv-x="1222" 
d="M1143 1096q9 0 14 -7.5t2 -15.5l-340 -947l-159 -451q-3 -11 -16 -11h-337q-9 0 -14 7t-2 15l132 391q1 5 0 11l-360 985q-3 8 2 15.5t14 7.5h301q11 0 16 -12l198 -533q4 -11 16 -11t16 11l182 533q3 12 16 12h319z" />
    <glyph glyph-name="y" unicode="&#xff;" horiz-adv-x="1222" 
d="M1143 1096q9 0 14 -7.5t2 -15.5l-340 -947l-159 -451q-3 -11 -16 -11h-337q-9 0 -14 7t-2 15l132 391q1 5 0 11l-360 985q-3 8 2 15.5t14 7.5h301q11 0 16 -12l198 -533q4 -11 16 -11t16 11l182 533q3 12 16 12h319z" />
    <glyph glyph-name="y" unicode="&#xfd;" horiz-adv-x="1222" 
d="M1143 1096q9 0 14 -7.5t2 -15.5l-340 -947l-159 -451q-3 -11 -16 -11h-337q-9 0 -14 7t-2 15l132 391q1 5 0 11l-360 985q-3 8 2 15.5t14 7.5h301q11 0 16 -12l198 -533q4 -11 16 -11t16 11l182 533q3 12 16 12h319z" />
    <glyph glyph-name="z" unicode="z" horiz-adv-x="1124" 
d="M1062 33q1 -8 -4.5 -14t-12.5 -6h-965q-10 0 -15 8.5t0 17.5l422 733q5 9 0 17t-15 8h-361q-15 0 -17 16l-32 263q-1 8 4.5 14t12.5 6h947q10 0 15 -8.5t0 -17.5l-422 -733q-5 -9 0 -17t15 -8h378q15 0 17 -16z" />
    <glyph glyph-name="nonbreakingspace" unicode="&#xa0;" horiz-adv-x="675" 
 />
    <glyph glyph-name="section" unicode="&#xa7;" horiz-adv-x="1552" 
d="M639 479h-123v481h123v-481zM837 479h-123v481h123v-481zM1035 479h-123v481h123v-481zM641 71l9 39l17 -4l-19 -89l-18 4l7 33l-18 4l-7 -33l-18 4l20 89l18 -4l-9 -39zM596 124l-27 -88l-18 6l28 87zM535 148q30 -13 12 -56q-19 -45 -49 -32q-18 7 -16 31l18 -1
q-2 -12 4 -15q7 -3 14 6t11 18q14 28 -1 34q-10 4 -18 -14l11 -5l-7 -15l-27 11q1 1 2 3.5t1 3.5q3 10 9 17q15 23 36 14zM478 173l16 -9l-46 -80l-15 9l16 30l-16 9l-16 -30l-16 9l45 80l16 -9l-20 -35l16 -9zM378 243q10 -8 11 -21q1 -17 -15 -37q-17 -21 -34 -22
q-12 -1 -21 6q-8 7 -10 20q-1 17 16 38q13 15 28 20l1 15l13 -1l-1 -13q5 0 12 -5zM358 197q13 15 13 25q0 4 -3 7q-1 1 -4 1l-1 -13l-12 1l1 9q-7 -6 -13 -13q-12 -14 -12 -25q0 -5 2 -7t7 -2q8 1 22 17zM325 293q19 -21 2 -36l-51 -48l-12 13l44 42q11 11 5 18t-17 -4
l-45 -43l-12 13l49 47q7 7 13 8q13 3 24 -10zM288 333l11 -14l-86 -39l-12 15l60 74l12 -16l-11 -12l12 -14zM226 302q4 2 35 18l-8 10q-12 -14 -18 -20q-1 -2 -4 -4t-5 -4zM236 410l19 -32l-78 -48l-9 15l63 40l-10 16zM230 420l-81 -43l-8 16l81 43zM142 429l6 -13l-16 -7
l-19 43l16 6l6 -13l68 31l7 -17zM187 517l-37 -12l-43 -37l-6 19l17 12q1 1 5 4t6 4h-5.5h-5h-3.5h-21l-6 19l56 -4l37 12zM121 591q-27 -3 -41 7q-10 6 -12 20q-1 4 1 12l18 3q-2 -3 -2 -10q1 -6 5 -10q9 -6 28 -3q14 0 22 10q4 4 3 11q0 5 -6 10l19 3q4 -5 5 -12
q2 -14 -5 -23q-10 -14 -35 -18zM156 686q2 -27 -22 -28l-70 -4l-1 18l61 3q4 0 7 0.5t5.5 3t2.5 6.5q-1 8 -15 8l-62 -3l-1 18l69 4q11 0 14 -2q12 -5 12 -24zM87 732q-26 2 -25 25q0 8 5 16l17 -1q-6 -8 -6 -13q0 -9 8 -9q7 0 18 13t25 12q28 -2 27 -27q0 -6 -6 -16l-17 1
q6 8 6 13q0 11 -10 11h-5q-3 -1 -9 -10q-13 -16 -28 -15zM84 805l-2 -14l-17 2l7 46l16 -2l-2 -14l75 -10l-3 -18zM119 846q-23 6 -32 16q-9 11 -6 26q3 14 18 21q12 5 35 -1t32 -16q10 -12 7 -26q-3 -13 -19 -20q-13 -6 -35 0zM97 885q-2 -8 6.5 -12.5t19.5 -7.5
q30 -7 33 5t-27 20q-29 7 -32 -5zM189 927l-7 -18l-83 41l9 22l54 -12l-48 27l9 23l89 -25l-7 -17l-63 20q4 -2 18 -11l39 -24l-5 -13l-42 8q-5 1 -13 3l-11 3zM245 1044l-9 -15l-79 48l19 31l15 -9l-10 -16l17 -10l9 14l14 -9l-8 -14zM225 1098q-18 14 -23 28q-5 15 4 26
q9 12 25 12q14 0 33 -15q18 -14 22 -27q5 -15 -4 -27q-8 -11 -25 -11q-14 0 -32 14zM220 1142q-8 -11 16 -28q25 -18 32 -8q8 11 -16 28q-25 18 -32 8zM323 1146l-13 -13l-66 64l12 12l56 -22q-6 3 -10 7l-31 30l13 14l66 -64l-12 -13l-56 23q6 -4 9 -7zM320 1247l-11 -9
l-10 13l35 30l11 -13l-11 -9l49 -57l-14 -12zM448 1248l-17 -10l-48 78l17 10q10 7 20 5q9 -3 16 -13q5 -10 4 -14q0 -2 -4 -8q7 1 13 -2q4 -2 9 -9q7 -10 4 -19q-2 -11 -14 -18zM424 1300q1 3 -2 9q-2 4 -7 5q-7 0 -8 -1l11 -20q5 5 6 7zM434 1283q-4 0 -8 -2l12 -20l2 2
q3 2 4 4q2 5 -2 10q-2 4 -8 6zM502 1278l-17 -8l-39 83l18 8q12 6 20 5q12 -1 19 -15q6 -14 -2 -27l33 -31l-18 -8l-32 31zM479 1325q1 0 3 1q10 4 5 17q-5 11 -15 6l-3 -1zM548 1311q-11 8 -19 30q-8 21 -4 35q5 15 19 20q13 4 27 -4q11 -8 19 -30q7 -19 3 -35
q-5 -16 -18 -20t-27 4zM549 1380q-12 -4 -2 -32q2 -7 4.5 -11.5t7.5 -10t10 -3.5q13 5 2 33q-2 6 -4.5 11t-7.5 10t-10 3zM653 1423l15 -67q2 -8 -1 -14q-4 -12 -21 -16q-27 -5 -31 18l-15 68l18 4l13 -60q1 -4 1.5 -7t3.5 -5.5t7 -1.5q7 2 5 17l-12 60zM720 1337
q-17 -1 -26 12.5t-11 31.5q-5 47 28 50q21 2 29 -19l-17 -8q-3 13 -10 12q-14 -1 -10 -33q3 -30 16 -29q12 1 9 20l-11 -1l-2 17l29 2q0 -1 0.5 -3.5t0.5 -3.5q2 -10 0 -19q-4 -28 -25 -29zM783 1382l-1 -41l-18 1l2 92l19 -1l-1 -34h18l1 34l18 -1l-2 -92l-18 1l1 40z
M862 1335l-18 3l9 74l-14 2l2 16l46 -5l-2 -17l-14 2zM946 1318l-18 4l20 73l-14 3l5 17l44 -12l-4 -17l-14 4zM979 1320q-3 13 5 35q7 20 20 29q13 8 27 3q15 -5 18 -20q3 -13 -5 -35q-8 -21 -20 -30q-13 -8 -27 -3t-18 21zM1002 1348q-11 -29 1 -33q7 -3 13 5.5t10 18.5
q11 29 -1 33q-7 3 -13 -5.5t-10 -18.5zM1122 1282l-20 -33l-16 9l20 34l8 56l17 -10l-4 -21q-1 -2 -2 -6.5t-1 -6.5q3 3 6 5.5t4 3.5l16 14l17 -10zM1152 1272q14 18 27 22q16 5 27 -4q11 -8 11 -25q0 -14 -14 -32q-15 -19 -27 -23q-14 -5 -27 5q-11 8 -11 24q0 15 14 33z
M1196 1277q-11 7 -28 -17q-18 -25 -8 -32q11 -7 28 17q18 25 8 32zM1205 1166q-20 18 -3 36l49 50l13 -12l-42 -44q-12 -12 -5 -18q6 -6 17 5l43 44l13 -12l-48 -50q-7 -7 -11 -8q-11 -4 -26 9zM1273 1092l-12 16l74 54l12 -15q7 -9 6 -19q-2 -11 -12 -18q-7 -5 -13 -5
q-4 0 -8 3q2 -7 -1 -13t-8 -10q-10 -6 -19 -5q-11 1 -19 12zM1334 1139l-18 -14q4 -4 7 -4q1 0 8 3q4 2 5 7q0 5 -2 8zM1304 1117l-19 -14q4 -4 7 -5q6 0 9 2q6 4 6 9t-3 8zM1305 1046l33 20l34 46l10 -17l-14 -16q-2 -2 -5 -5.5t-4 -4.5q4 1 8.5 2t5.5 1l20 5l10 -17
l-56 -9l-33 -20zM1437 988l-85 -35l-7 16l85 36zM1365 919l-6 17l87 28l6 -16l-46 -39q9 5 11 5l41 13l6 -17l-88 -28l-5 16l46 38q-2 -1 -10 -4zM1384 848l-4 17l90 18l3 -15q2 -15 1 -19q-5 -23 -38 -29q-45 -9 -52 28zM1458 862l-58 -11l1 -1q4 -17 31 -12q18 4 25 15
q2 4 1 9zM1486 788l-92 -10l-1 18l91 10zM1397 723l-1 37l92 3l1 -36l-17 -1l-1 18h-19v-16l-17 -1l-1 16l-20 -1v-18zM1443 706q19 -1 33 -9t13 -26q-1 -21 -24 -26l-6 18q14 0 14 9q1 11 -31 15q-30 3 -31 -11q-1 -10 19 -13v12l17 -1l-2 -30q-1 0 -3.5 0.5t-3.5 0.5
q-11 0 -20 3q-25 7 -24 29q3 31 49 29zM1388 615l4 17l90 -16l-4 -19q-2 -13 -8 -19q-10 -10 -23 -7q-15 3 -21 17l-44 -8l3 19l45 8zM1439 602q-1 -11 11 -13q13 -2 14 8l1 4l-25 4v-1zM1424 556q22 -6 30 -18q10 -11 5 -26t-19 -20q-10 -4 -35 3q-24 6 -31 17
q-10 12 -5 27q5 14 19 19q12 4 36 -2zM1444 516q2 7 -7.5 13.5t-18.5 8.5q-29 7 -32 -4q-2 -7 7 -13t18 -8q30 -8 33 3zM1343 470q11 25 33 15l63 -28l-7 -17l-56 25q-14 7 -18 -2q-4 -8 10 -15l57 -24l-7 -17l-63 27q-7 3 -12 9q-8 11 0 27zM1317 413l9 16l79 -47l-9 -15
l-59 9q2 0 11 -5l37 -22l-9 -16l-79 47l9 15l59 -9q-8 3 -10 4zM1254 323l12 13l69 -59l-9 -12q-6 -7 -15 -12q-21 -11 -46 12q-35 30 -11 58zM1267 311h-1q-12 -15 10 -32q16 -13 27 -11q4 1 8 5zM1192 258l27 25l63 -66l-26 -25l-12 12l13 13l-13 14l-12 -11l-12 13l12 11
l-15 15l-13 -13zM1194 208q21 2 30 -10q17 -20 -2 -36q-7 -6 -15 -7l-11 14q10 0 14 3q7 5 1 13q-4 5 -21 4.5t-26 10.5q-18 22 3 38q6 6 15 6l11 -13q-7 0 -14 -5q-8 -6 -2 -14q1 -1 4 -3q1 -1 13 -1zM1187 137l-15 -10l-52 75l15 10zM1079 178q28 16 51 -25t-5 -57
q-17 -10 -34 5l12 15q7 -9 14 -6q10 6 -4 34q-14 27 -27 20q-10 -6 0 -23l11 6l8 -14l-26 -15q-1 1 -2.5 3t-1.5 3q-6 12 -8 18q-7 25 12 36zM1023 149l17 7l35 -85l-16 -6l-42 42q2 -3 6 -11l17 -39l-17 -7l-35 84l15 7l42 -43q-1 2 -4 10zM958 30l-17 -5l-23 89l18 4z
M883 107l18 3l14 -91l-17 -3l-31 52q1 -2 2.5 -6t1.5 -6l6 -43l-18 -3l-14 91l17 3l31 -52q-1 2 -2 6t-1 5zM817 92q14 -12 15 -37q0 -25 -12 -39q-10 -11 -21 -11q-4 0 -12 2l-1 19q4 -3 11 -3q5 0 9 4q9 9 7 27q0 15 -8 23q-4 4 -11 4q-5 0 -10 -5l-1 19q8 4 12 4
q15 0 22 -7zM757 100q5 0 8.5 -4t3.5 -8t-3.5 -8t-8.5 -4t-8.5 4t-3.5 8t3.5 8t8.5 4z" />
    <glyph glyph-name="softhyphen" unicode="&#xad;" horiz-adv-x="0" 
 />
    </font>
</defs>
</svg>
